0
SECTION
2
HEADER
9
$INSUNITS
70
4
9
$ACADVER
1
AC1014
9
$HANDSEED
5
FFFF
0
ENDSEC
0
SECTION
2
TABLES
0
TABLE
2
VPORT
5
8
100
AcDbSymbolTable
0
ENDTAB
0
TABLE
2
LTYPE
5
5
100
AcDbSymbolTable
0
LTYPE
5
14
100
AcDbSymbolTableRecord
100
AcDbLinetypeTableRecord
2
BYBLOCK
70
0
0
LTYPE
5
15
100
AcDbSymbolTableRecord
100
AcDbLinetypeTableRecord
2
BYLAYER
70
0
0
LTYPE
5
16
100
AcDbSymbolTableRecord
100
AcDbLinetypeTableRecord
2
DASHED
70
0
3
Dashed __ __ __ __ __ __ __ __ __ __ __ __ __ _
72
65
73
2
40
0.75
49
0.5
74
0
49
-0.25
74
0
0
ENDTAB
0
TABLE
2
LAYER
5
2
100
AcDbSymbolTable
70
2
0
LAYER
5
50
100
AcDbSymbolTableRecord
100
AcDbLayerTableRecord
2
0
70
0
62
7
6
CONTINUOUS
0
ENDTAB
0
TABLE
2
STYLE
5
3
100
AcDbSymbolTable
70
1
0
STYLE
5
11
100
AcDbSymbolTableRecord
100
AcDbTextStyleTableRecord
2
STANDARD
70
0
0
ENDTAB
0
TABLE
2
VIEW
5
6
100
AcDbSymbolTable
70
0
0
ENDTAB
0
TABLE
2
UCS
5
7
100
AcDbSymbolTable
70
0
0
ENDTAB
0
TABLE
2
APPID
5
9
100
AcDbSymbolTable
70
2
0
APPID
5
12
100
AcDbSymbolTableRecord
100
AcDbRegAppTableRecord
2
ACAD
70
0
0
ENDTAB
0
TABLE
2
DIMSTYLE
5
A
100
AcDbSymbolTable
70
1
0
ENDTAB
0
TABLE
2
BLOCK_RECORD
5
1
100
AcDbSymbolTable
70
1
0
BLOCK_RECORD
5
1F
100
AcDbSymbolTableRecord
100
AcDbBlockTableRecord
2
*MODEL_SPACE
0
BLOCK_RECORD
5
1B
100
AcDbSymbolTableRecord
100
AcDbBlockTableRecord
2
*PAPER_SPACE
0
ENDTAB
0
ENDSEC
0
SECTION
2
BLOCKS
0
BLOCK
5
20
100
AcDbEntity
100
AcDbBlockBegin
2
*MODEL_SPACE
0
ENDBLK
5
21
100
AcDbEntity
100
AcDbBlockEnd
0
BLOCK
5
1C
100
AcDbEntity
100
AcDbBlockBegin
2
*PAPER_SPACE
0
ENDBLK
5
1D
100
AcDbEntity
100
AcDbBlockEnd
0
ENDSEC
0
SECTION
2
ENTITIES
0
LWPOLYLINE
5
100
100
AcDbEntity
8
0
100
AcDbPolyline
90
4
70
1
43
0.0
10
-104.521
20
87.082000000000022
10
-119.76100000000001
20
87.082000000000022
10
-119.76100000000001
20
82.002000000000024
10
-104.521
20
82.00200000000001
0
LWPOLYLINE
5
101
100
AcDbEntity
8
0
100
AcDbPolyline
90
4
70
1
43
0.0
10
-110.27100000000002
20
82.672000000000011
10
-111.47100000000002
20
82.672000000000011
10
-111.471
20
83.872
10
-110.27100000000002
20
83.872000000000014
0
LWPOLYLINE
5
102
100
AcDbEntity
8
0
100
AcDbPolyline
90
4
70
1
43
0.0
10
-115.351
20
82.672000000000011
10
-116.55099999999999
20
82.672000000000011
10
-116.55099999999999
20
83.872
10
-115.351
20
83.872
0
LWPOLYLINE
5
103
100
AcDbEntity
8
0
100
AcDbPolyline
90
4
70
1
43
0.0
10
-112.81100000000001
20
83.872
10
-112.81100000000001
20
82.672000000000011
10
-114.011
20
82.672000000000011
10
-114.011
20
83.872
0
LWPOLYLINE
5
104
100
AcDbEntity
8
0
100
AcDbPolyline
90
4
70
1
43
0.0
10
-114.011
20
86.412000000000006
10
-112.81100000000001
20
86.412000000000006
10
-112.81100000000001
20
85.212000000000018
10
-114.011
20
85.212000000000003
0
LWPOLYLINE
5
105
100
AcDbEntity
8
0
100
AcDbPolyline
90
4
70
1
43
0.0
10
-110.27100000000002
20
85.212000000000003
10
-111.47100000000002
20
85.212000000000003
10
-111.471
20
86.411999999999992
10
-110.27100000000002
20
86.412000000000006
0
LWPOLYLINE
5
106
100
AcDbEntity
8
0
100
AcDbPolyline
90
4
70
1
43
0.0
10
-116.55099999999999
20
86.412000000000006
10
-115.351
20
86.412000000000006
10
-115.351
20
85.212000000000018
10
-116.55099999999999
20
85.212000000000003
0
LWPOLYLINE
5
107
100
AcDbEntity
8
0
100
AcDbPolyline
90
4
70
1
43
0.0
10
-107.73099999999999
20
86.412000000000006
10
-107.73099999999999
20
85.212000000000018
10
-108.93099999999998
20
85.212000000000003
10
-108.93100000000001
20
86.411999999999992
0
LWPOLYLINE
5
108
100
AcDbEntity
8
0
100
AcDbPolyline
90
4
70
1
43
0.0
10
-107.73099999999999
20
83.872000000000014
10
-107.73099999999999
20
82.672000000000025
10
-108.93099999999998
20
82.672000000000011
10
-108.93100000000001
20
83.872
0
LWPOLYLINE
5
109
100
AcDbEntity
8
0
100
AcDbPolyline
90
4
70
1
43
0.0
10
-106.39099999999999
20
83.872000000000014
10
-105.19099999999997
20
83.872000000000014
10
-105.191
20
82.672000000000025
10
-106.39099999999999
20
82.672000000000011
0
LWPOLYLINE
5
110
100
AcDbEntity
8
0
100
AcDbPolyline
90
4
70
1
43
0.0
10
-106.39099999999999
20
86.412000000000006
10
-105.19099999999997
20
86.412000000000006
10
-105.191
20
85.212000000000018
10
-106.39099999999999
20
85.212000000000003
0
LWPOLYLINE
5
111
100
AcDbEntity
8
0
100
AcDbPolyline
90
4
70
1
43
0.0
10
-119.09100000000001
20
86.412000000000006
10
-117.89100000000002
20
86.412000000000006
10
-117.89099999999999
20
85.212000000000018
10
-119.09099999999998
20
85.212000000000003
0
LWPOLYLINE
5
112
100
AcDbEntity
8
0
100
AcDbPolyline
90
4
70
1
43
0.0
10
-117.89099999999999
20
83.872
10
-117.89099999999999
20
82.672000000000011
10
-119.09099999999998
20
82.672000000000011
10
-119.09100000000001
20
83.872
0
LWPOLYLINE
5
113
100
AcDbEntity
8
0
100
AcDbPolyline
90
4
70
1
43
0.0
10
-97.536000000000001
20
122.05780000000003
10
-112.77600000000001
20
122.05780000000003
10
-112.77600000000001
20
116.97780000000002
10
-97.536000000000001
20
116.97780000000002
0
LWPOLYLINE
5
114
100
AcDbEntity
8
0
100
AcDbPolyline
90
4
70
1
43
0.0
10
-103.28600000000002
20
117.64780000000002
10
-104.48600000000002
20
117.64780000000002
10
-104.486
20
118.84780000000001
10
-103.28600000000002
20
118.84780000000003
0
LWPOLYLINE
5
115
100
AcDbEntity
8
0
100
AcDbPolyline
90
4
70
1
43
0.0
10
-108.36600000000001
20
117.64780000000002
10
-109.566
20
117.64780000000002
10
-109.566
20
118.84780000000001
10
-108.36600000000001
20
118.84780000000001
0
LWPOLYLINE
5
116
100
AcDbEntity
8
0
100
AcDbPolyline
90
4
70
1
43
0.0
10
-105.82600000000001
20
118.84780000000003
10
-105.82600000000001
20
117.64780000000003
10
-107.02600000000001
20
117.64780000000002
10
-107.02600000000001
20
118.84780000000001
0
LWPOLYLINE
5
117
100
AcDbEntity
8
0
100
AcDbPolyline
90
4
70
1
43
0.0
10
-107.02600000000001
20
121.38780000000003
10
-105.82600000000001
20
121.38780000000003
10
-105.82600000000001
20
120.18780000000004
10
-107.02600000000001
20
120.18780000000001
0
LWPOLYLINE
5
118
100
AcDbEntity
8
0
100
AcDbPolyline
90
4
70
1
43
0.0
10
-103.28600000000002
20
120.18780000000001
10
-104.48600000000002
20
120.18780000000001
10
-104.486
20
121.3878
10
-103.28600000000002
20
121.38780000000003
0
LWPOLYLINE
5
119
100
AcDbEntity
8
0
100
AcDbPolyline
90
4
70
1
43
0.0
10
-109.566
20
121.38780000000003
10
-108.36600000000001
20
121.38780000000003
10
-108.36600000000001
20
120.18780000000004
10
-109.566
20
120.18780000000001
0
LWPOLYLINE
5
120
100
AcDbEntity
8
0
100
AcDbPolyline
90
4
70
1
43
0.0
10
-100.74600000000001
20
121.38780000000003
10
-100.74600000000001
20
120.18780000000004
10
-101.946
20
120.18780000000001
10
-101.94600000000001
20
121.3878
0
LWPOLYLINE
5
121
100
AcDbEntity
8
0
100
AcDbPolyline
90
4
70
1
43
0.0
10
-100.74600000000001
20
118.84780000000003
10
-100.74600000000001
20
117.64780000000003
10
-101.946
20
117.64780000000002
10
-101.94600000000001
20
118.84780000000001
0
LWPOLYLINE
5
122
100
AcDbEntity
8
0
100
AcDbPolyline
90
4
70
1
43
0.0
10
-99.406000000000006
20
118.84780000000003
10
-98.205999999999989
20
118.84780000000003
10
-98.206000000000003
20
117.64780000000003
10
-99.406000000000006
20
117.64780000000002
0
LWPOLYLINE
5
123
100
AcDbEntity
8
0
100
AcDbPolyline
90
4
70
1
43
0.0
10
-99.406000000000006
20
121.38780000000003
10
-98.205999999999989
20
121.38780000000003
10
-98.206000000000003
20
120.18780000000004
10
-99.406000000000006
20
120.18780000000001
0
LWPOLYLINE
5
124
100
AcDbEntity
8
0
100
AcDbPolyline
90
4
70
1
43
0.0
10
-112.10600000000001
20
121.38780000000003
10
-110.90600000000002
20
121.38780000000003
10
-110.90600000000001
20
120.18780000000004
10
-112.10599999999999
20
120.18780000000001
0
LWPOLYLINE
5
125
100
AcDbEntity
8
0
100
AcDbPolyline
90
4
70
1
43
0.0
10
-110.90600000000001
20
118.84780000000001
10
-110.90600000000001
20
117.64780000000002
10
-112.10599999999999
20
117.64780000000002
10
-112.10600000000001
20
118.84780000000001
0
LWPOLYLINE
5
126
100
AcDbEntity
8
0
100
AcDbPolyline
90
23
70
1
43
0.0
10
-121.97948985398106
20
102.02990000000001
10
-121.97948985398106
20
90.599900000000005
10
-121.97948985398106
20
82.701999999999998
42
0.41421356237309243
10
-119.97948985398109
20
80.701999999999998
10
-105.22099999999998
20
80.701999999999998
42
0.41421356237309503
10
-103.22099999999999
20
82.701999999999998
10
-103.22099999999999
20
85.599900000000005
42
-0.41421356237309293
10
-98.220999999999989
20
90.599900000000005
10
-76.88748985398108
20
90.599900000000005
42
0.41421356237309503
10
-74.88748985398108
20
92.599900000000005
10
-74.88748985398108
20
102.02990000000001
10
-74.88748985398108
20
111.45990000000003
42
0.41421356237309503
10
-76.88748985398108
20
113.45990000000002
10
-91.23599999999999
20
113.45990000000002
42
-0.41421356237309293
10
-96.23599999999999
20
118.45990000000002
10
-96.23599999999999
20
121.35780000000004
42
0.41421356237310025
10
-98.236000000000018
20
123.35780000000007
10
-112.07600000000002
20
123.35780000000003
42
0.41421356237309243
10
-114.07600000000005
20
121.35780000000005
10
-114.07600000000002
20
118.45990000000002
42
-0.41421356237309293
10
-119.07600000000002
20
113.45990000000002
10
-119.97948985398109
20
113.45990000000003
42
0.41421356237309243
10
-121.97948985398106
20
111.45990000000003
0
LWPOLYLINE
5
127
100
AcDbEntity
8
0
100
AcDbPolyline
90
4
70
1
43
0.0
10
-93.197655243946002
20
82.160919524647994
10
-93.012879337443763
20
82.084382838174974
42
-5.0273394921266981
10
-93.012879337443749
20
85.911217161825022
10
-93.197655243945718
20
85.83468047535213
42
5.0273394921267274
0
ARC
5
128
100
AcDbEntity
8
0
100
AcDbCircle
10
-97.632277000000016
20
83.997799999999998
30
0
40
5.0000000000000036
210
0
220
-0
230
1
100
AcDbArc
50
22.499999999996991
51
337.50000000000284
0
LINE
5
129
100
AcDbEntity
8
0
100
AcDbLine
10
-97.632277000000016
20
83.997800000000012
30
0
11
-102.63227700000003
21
83.997799999999998
31
0
0
ENDSEC
0
SECTION
2
OBJECTS
0
DICTIONARY
5
C
100
AcDbDictionary
3
ACAD_GROUP
350
D
3
ACAD_MLINESTYLE
350
17
0
DICTIONARY
5
D
100
AcDbDictionary
0
DICTIONARY
5
1A
330
C
100
AcDbDictionary
0
DICTIONARY
5
17
100
AcDbDictionary
0
ENDSEC
0
EOF
