%TF.GenerationSoftware,KiCad,Pcbnew,8.0.6*%
%TF.CreationDate,2025-12-29T11:58:41+02:00*%
%TF.ProjectId,TMCM_1260_alternative,544d434d-5f31-4323-9630-5f616c746572,rev?*%
%TF.SameCoordinates,Original*%
%TF.FileFunction,Profile,NP*%
%FSLAX46Y46*%
G04 Gerber Fmt 4.6, Leading zero omitted, Abs format (unit mm)*
G04 Created by KiCad (PCBNEW 8.0.6) date 2025-12-29 11:58:41*
%MOMM*%
%LPD*%
G01*
G04 APERTURE LIST*
%TA.AperFunction,Profile*%
%ADD10C,0.100000*%
%TD*%
G04 APERTURE END LIST*
D10*
X80500000Y-124007800D02*
X80500000Y-127498791D01*
X72500000Y-119498791D02*
X76000000Y-119498791D01*
X80500000Y-72498800D02*
X80500000Y-75998800D01*
X106590000Y-69998791D02*
X93410000Y-69998791D01*
X75991515Y-80498791D02*
X72500000Y-80498791D01*
X70000000Y-82998800D02*
X70000000Y-116998791D01*
X124000000Y-80498791D02*
G75*
G02*
X119500009Y-75998791I0J4499991D01*
G01*
X93410000Y-69998791D02*
X83000000Y-69998791D01*
X124000000Y-119498791D02*
X127506324Y-119498791D01*
X130000000Y-116998800D02*
X130000000Y-82991729D01*
X119500000Y-123998800D02*
G75*
G02*
X124000000Y-119498800I4500000J0D01*
G01*
X83000000Y-129998791D02*
X117006324Y-129998791D01*
X72500000Y-119498791D02*
G75*
G02*
X70006211Y-116998801I2400J2496191D01*
G01*
X83000000Y-129998791D02*
G75*
G02*
X80500009Y-127498791I0J2499991D01*
G01*
X119500000Y-127498800D02*
G75*
G02*
X117006324Y-129998792I-2500000J0D01*
G01*
X76000000Y-119498791D02*
G75*
G02*
X80500000Y-124007800I0J-4500009D01*
G01*
X119500000Y-75998791D02*
X119500000Y-72491729D01*
X117000000Y-69998791D02*
X106590000Y-69998791D01*
X80500000Y-72498800D02*
G75*
G02*
X83000000Y-69998800I2500000J0D01*
G01*
X80500000Y-75998800D02*
G75*
G02*
X75991515Y-80498792I-4500000J0D01*
G01*
X119500000Y-127498800D02*
X119500000Y-123998800D01*
X117000000Y-69998791D02*
G75*
G02*
X119499999Y-72491729I0J-2500009D01*
G01*
X127500000Y-80498791D02*
X124000000Y-80498791D01*
X130001676Y-117007009D02*
G75*
G02*
X127508000Y-119506968I-2499976J9D01*
G01*
X70000000Y-82998800D02*
G75*
G02*
X72500000Y-80498800I2500000J0D01*
G01*
X127500000Y-80498791D02*
G75*
G02*
X129999999Y-82991729I0J-2500009D01*
G01*
M02*
