%TF.GenerationSoftware,KiCad,Pcbnew,8.0.6*%
%TF.CreationDate,2025-12-29T11:58:40+02:00*%
%TF.ProjectId,TMCM_1260_alternative,544d434d-5f31-4323-9630-5f616c746572,rev?*%
%TF.SameCoordinates,Original*%
%TF.FileFunction,Soldermask,Top*%
%TF.FilePolarity,Negative*%
%FSLAX46Y46*%
G04 Gerber Fmt 4.6, Leading zero omitted, Abs format (unit mm)*
G04 Created by KiCad (PCBNEW 8.0.6) date 2025-12-29 11:58:40*
%MOMM*%
%LPD*%
G01*
G04 APERTURE LIST*
G04 Aperture macros list*
%AMRoundRect*
0 Rectangle with rounded corners*
0 $1 Rounding radius*
0 $2 $3 $4 $5 $6 $7 $8 $9 X,Y pos of 4 corners*
0 Add a 4 corners polygon primitive as box body*
4,1,4,$2,$3,$4,$5,$6,$7,$8,$9,$2,$3,0*
0 Add four circle primitives for the rounded corners*
1,1,$1+$1,$2,$3*
1,1,$1+$1,$4,$5*
1,1,$1+$1,$6,$7*
1,1,$1+$1,$8,$9*
0 Add four rect primitives between the rounded corners*
20,1,$1+$1,$2,$3,$4,$5,0*
20,1,$1+$1,$4,$5,$6,$7,0*
20,1,$1+$1,$6,$7,$8,$9,0*
20,1,$1+$1,$8,$9,$2,$3,0*%
G04 Aperture macros list end*
%ADD10C,3.200000*%
%ADD11R,2.000000X2.000000*%
%ADD12C,2.000000*%
%ADD13RoundRect,0.250000X0.250000X0.475000X-0.250000X0.475000X-0.250000X-0.475000X0.250000X-0.475000X0*%
%ADD14RoundRect,0.237500X0.237500X-0.300000X0.237500X0.300000X-0.237500X0.300000X-0.237500X-0.300000X0*%
%ADD15R,2.700000X1.500000*%
%ADD16RoundRect,0.250000X0.312500X0.625000X-0.312500X0.625000X-0.312500X-0.625000X0.312500X-0.625000X0*%
%ADD17RoundRect,0.237500X0.250000X0.237500X-0.250000X0.237500X-0.250000X-0.237500X0.250000X-0.237500X0*%
%ADD18RoundRect,0.225000X-0.225000X-0.250000X0.225000X-0.250000X0.225000X0.250000X-0.225000X0.250000X0*%
%ADD19RoundRect,0.237500X-0.237500X0.300000X-0.237500X-0.300000X0.237500X-0.300000X0.237500X0.300000X0*%
%ADD20RoundRect,0.237500X-0.287500X-0.237500X0.287500X-0.237500X0.287500X0.237500X-0.287500X0.237500X0*%
%ADD21RoundRect,0.225000X0.250000X-0.225000X0.250000X0.225000X-0.250000X0.225000X-0.250000X-0.225000X0*%
%ADD22R,1.500000X0.450000*%
%ADD23O,1.100000X1.800000*%
%ADD24O,1.100000X2.200000*%
%ADD25R,4.280000X2.080000*%
%ADD26R,1.400000X0.495000*%
%ADD27R,0.560000X0.750000*%
%ADD28R,1.000000X0.750000*%
%ADD29RoundRect,0.225000X-0.250000X0.225000X-0.250000X-0.225000X0.250000X-0.225000X0.250000X0.225000X0*%
%ADD30RoundRect,0.237500X-0.300000X-0.237500X0.300000X-0.237500X0.300000X0.237500X-0.300000X0.237500X0*%
%ADD31RoundRect,0.250000X0.475000X-0.250000X0.475000X0.250000X-0.475000X0.250000X-0.475000X-0.250000X0*%
%ADD32RoundRect,0.250000X0.650000X-0.325000X0.650000X0.325000X-0.650000X0.325000X-0.650000X-0.325000X0*%
%ADD33RoundRect,0.250001X-1.099999X-1.099999X1.099999X-1.099999X1.099999X1.099999X-1.099999X1.099999X0*%
%ADD34C,2.700000*%
%ADD35RoundRect,0.237500X0.300000X0.237500X-0.300000X0.237500X-0.300000X-0.237500X0.300000X-0.237500X0*%
%ADD36RoundRect,0.250000X0.350000X0.625000X-0.350000X0.625000X-0.350000X-0.625000X0.350000X-0.625000X0*%
%ADD37O,1.200000X1.750000*%
%ADD38RoundRect,0.150000X-0.825000X-0.150000X0.825000X-0.150000X0.825000X0.150000X-0.825000X0.150000X0*%
%ADD39O,1.950000X1.700000*%
%ADD40RoundRect,0.250000X0.725000X-0.600000X0.725000X0.600000X-0.725000X0.600000X-0.725000X-0.600000X0*%
%ADD41RoundRect,0.075000X0.662500X0.075000X-0.662500X0.075000X-0.662500X-0.075000X0.662500X-0.075000X0*%
%ADD42RoundRect,0.075000X0.075000X0.662500X-0.075000X0.662500X-0.075000X-0.662500X0.075000X-0.662500X0*%
%ADD43RoundRect,0.237500X0.237500X-0.250000X0.237500X0.250000X-0.237500X0.250000X-0.237500X-0.250000X0*%
%ADD44C,0.499999*%
%ADD45R,0.800001X2.999999*%
%ADD46R,0.750001X0.399999*%
%ADD47RoundRect,0.250000X-0.625000X0.350000X-0.625000X-0.350000X0.625000X-0.350000X0.625000X0.350000X0*%
%ADD48O,1.750000X1.200000*%
%ADD49RoundRect,0.225000X0.225000X0.250000X-0.225000X0.250000X-0.225000X-0.250000X0.225000X-0.250000X0*%
%ADD50RoundRect,0.250000X0.337500X0.475000X-0.337500X0.475000X-0.337500X-0.475000X0.337500X-0.475000X0*%
%ADD51RoundRect,0.237500X0.287500X0.237500X-0.287500X0.237500X-0.287500X-0.237500X0.287500X-0.237500X0*%
%ADD52RoundRect,0.200000X0.200000X0.275000X-0.200000X0.275000X-0.200000X-0.275000X0.200000X-0.275000X0*%
%ADD53RoundRect,0.200000X-0.200000X-0.275000X0.200000X-0.275000X0.200000X0.275000X-0.200000X0.275000X0*%
%ADD54R,1.700000X1.700000*%
%ADD55O,1.700000X1.700000*%
%ADD56RoundRect,0.250000X-0.475000X0.250000X-0.475000X-0.250000X0.475000X-0.250000X0.475000X0.250000X0*%
%ADD57RoundRect,0.250000X-0.262500X-0.450000X0.262500X-0.450000X0.262500X0.450000X-0.262500X0.450000X0*%
%ADD58RoundRect,0.237500X-0.250000X-0.237500X0.250000X-0.237500X0.250000X0.237500X-0.250000X0.237500X0*%
%ADD59R,0.279400X1.346200*%
%ADD60R,1.346200X0.279400*%
%ADD61R,5.105400X5.105400*%
G04 APERTURE END LIST*
D10*
%TO.C,REF\u002A\u002A*%
X115951000Y-74574400D03*
%TD*%
%TO.C,REF\u002A\u002A*%
X83743800Y-73253600D03*
%TD*%
%TO.C,REF\u002A\u002A*%
X84048600Y-125399800D03*
%TD*%
%TO.C,REF\u002A\u002A*%
X116255800Y-126746000D03*
%TD*%
D11*
%TO.C,C24*%
X93425000Y-119583200D03*
D12*
X98425000Y-119583200D03*
%TD*%
D13*
%TO.C,C15*%
X103693000Y-93776800D03*
X101793000Y-93776800D03*
%TD*%
D14*
%TO.C,C8*%
X115976400Y-95147300D03*
X115976400Y-93422300D03*
%TD*%
D15*
%TO.C,Y1*%
X124790200Y-114041000D03*
X124790200Y-112141000D03*
%TD*%
D16*
%TO.C,R10*%
X90337100Y-105714800D03*
X87412100Y-105714800D03*
%TD*%
D17*
%TO.C,R34*%
X105130600Y-118846600D03*
X103305600Y-118846600D03*
%TD*%
D18*
%TO.C,C29*%
X108864000Y-93192200D03*
X110414000Y-93192200D03*
%TD*%
%TO.C,C19*%
X87109000Y-98628200D03*
X88659000Y-98628200D03*
%TD*%
D19*
%TO.C,C37*%
X120904000Y-117247500D03*
X120904000Y-118972500D03*
%TD*%
D20*
%TO.C,D2*%
X122834400Y-117551200D03*
X124584400Y-117551200D03*
%TD*%
D21*
%TO.C,C20*%
X82245200Y-79743600D03*
X82245200Y-78193600D03*
%TD*%
D17*
%TO.C,R35*%
X105105200Y-117348000D03*
X103280200Y-117348000D03*
%TD*%
D22*
%TO.C,J5*%
X127021400Y-88758200D03*
X127021400Y-88108200D03*
X127021400Y-87458200D03*
X127021400Y-86808200D03*
X127021400Y-86158200D03*
D23*
X126771400Y-90258200D03*
D24*
X128921400Y-87458200D03*
D23*
X126771400Y-84658200D03*
%TD*%
D25*
%TO.C,Q1*%
X80911600Y-115595600D03*
X80911600Y-113115600D03*
D26*
X80051600Y-111828600D03*
X82351600Y-111828600D03*
X82351600Y-116882600D03*
X80051600Y-116882600D03*
D27*
X78491600Y-116260600D03*
X78491600Y-114930600D03*
X78491600Y-113780600D03*
X78491600Y-112450600D03*
D28*
X84300600Y-112450600D03*
X84300600Y-113720600D03*
X84300600Y-114990600D03*
X84300600Y-116260600D03*
%TD*%
D29*
%TO.C,C17*%
X85623400Y-121069400D03*
X85623400Y-119519400D03*
%TD*%
D18*
%TO.C,C16*%
X107784600Y-112344200D03*
X109334600Y-112344200D03*
%TD*%
D30*
%TO.C,C38*%
X104928500Y-115798600D03*
X106653500Y-115798600D03*
%TD*%
%TO.C,C4*%
X110312200Y-125704600D03*
X112037200Y-125704600D03*
%TD*%
D13*
%TO.C,C13*%
X96073000Y-97993200D03*
X94173000Y-97993200D03*
%TD*%
D31*
%TO.C,C21*%
X90347800Y-77429400D03*
X90347800Y-75529400D03*
%TD*%
D20*
%TO.C,D3*%
X122834400Y-115925600D03*
X124584400Y-115925600D03*
%TD*%
D32*
%TO.C,C1*%
X116912300Y-83847200D03*
X116912300Y-80897200D03*
%TD*%
D33*
%TO.C,J4*%
X94060000Y-73400000D03*
D34*
X98020000Y-73400000D03*
X101980000Y-73400000D03*
X105940000Y-73400000D03*
%TD*%
D35*
%TO.C,C10*%
X111936700Y-116611400D03*
X110211700Y-116611400D03*
%TD*%
D18*
%TO.C,C32*%
X105879600Y-93218000D03*
X107429600Y-93218000D03*
%TD*%
D36*
%TO.C,J3*%
X107000000Y-128248000D03*
D37*
X105000000Y-128248000D03*
X103000000Y-128248000D03*
X101000000Y-128248000D03*
X99000000Y-128248000D03*
X97000000Y-128248000D03*
X95000000Y-128248000D03*
X93000000Y-128248000D03*
%TD*%
D38*
%TO.C,U3*%
X118073400Y-97550200D03*
X118073400Y-98820200D03*
X118073400Y-100090200D03*
X118073400Y-101360200D03*
X123023400Y-101360200D03*
X123023400Y-100090200D03*
X123023400Y-98820200D03*
X123023400Y-97550200D03*
%TD*%
D39*
%TO.C,J1*%
X71690500Y-95554000D03*
X71690500Y-98054000D03*
X71690500Y-100554000D03*
D40*
X71690500Y-103054000D03*
%TD*%
D14*
%TO.C,C11*%
X113919000Y-105840700D03*
X113919000Y-104115700D03*
%TD*%
D16*
%TO.C,R9*%
X90337100Y-110718600D03*
X87412100Y-110718600D03*
%TD*%
D41*
%TO.C,U2*%
X120697700Y-115373600D03*
X120697700Y-114873600D03*
X120697700Y-114373600D03*
X120697700Y-113873600D03*
X120697700Y-113373600D03*
X120697700Y-112873600D03*
X120697700Y-112373600D03*
X120697700Y-111873600D03*
X120697700Y-111373600D03*
X120697700Y-110873600D03*
X120697700Y-110373600D03*
X120697700Y-109873600D03*
D42*
X119285200Y-108461100D03*
X118785200Y-108461100D03*
X118285200Y-108461100D03*
X117785200Y-108461100D03*
X117285200Y-108461100D03*
X116785200Y-108461100D03*
X116285200Y-108461100D03*
X115785200Y-108461100D03*
X115285200Y-108461100D03*
X114785200Y-108461100D03*
X114285200Y-108461100D03*
X113785200Y-108461100D03*
D41*
X112372700Y-109873600D03*
X112372700Y-110373600D03*
X112372700Y-110873600D03*
X112372700Y-111373600D03*
X112372700Y-111873600D03*
X112372700Y-112373600D03*
X112372700Y-112873600D03*
X112372700Y-113373600D03*
X112372700Y-113873600D03*
X112372700Y-114373600D03*
X112372700Y-114873600D03*
X112372700Y-115373600D03*
D42*
X113785200Y-116786100D03*
X114285200Y-116786100D03*
X114785200Y-116786100D03*
X115285200Y-116786100D03*
X115785200Y-116786100D03*
X116285200Y-116786100D03*
X116785200Y-116786100D03*
X117285200Y-116786100D03*
X117785200Y-116786100D03*
X118285200Y-116786100D03*
X118785200Y-116786100D03*
X119285200Y-116786100D03*
%TD*%
D16*
%TO.C,R11*%
X90337100Y-100761800D03*
X87412100Y-100761800D03*
%TD*%
D25*
%TO.C,Q3*%
X80793800Y-95765800D03*
X80793800Y-93285800D03*
D26*
X79933800Y-91998800D03*
X82233800Y-91998800D03*
X82233800Y-97052800D03*
X79933800Y-97052800D03*
D27*
X78373800Y-96430800D03*
X78373800Y-95100800D03*
X78373800Y-93950800D03*
X78373800Y-92620800D03*
D28*
X84182800Y-92620800D03*
X84182800Y-93890800D03*
X84182800Y-95160800D03*
X84182800Y-96430800D03*
%TD*%
D18*
%TO.C,C30*%
X103060200Y-89814400D03*
X104610200Y-89814400D03*
%TD*%
D16*
%TO.C,R19*%
X90260900Y-90906600D03*
X87335900Y-90906600D03*
%TD*%
D25*
%TO.C,Q2*%
X80844600Y-105646400D03*
X80844600Y-103166400D03*
D26*
X79984600Y-101879400D03*
X82284600Y-101879400D03*
X82284600Y-106933400D03*
X79984600Y-106933400D03*
D27*
X78424600Y-106311400D03*
X78424600Y-104981400D03*
X78424600Y-103831400D03*
X78424600Y-102501400D03*
D28*
X84233600Y-102501400D03*
X84233600Y-103771400D03*
X84233600Y-105041400D03*
X84233600Y-106311400D03*
%TD*%
D43*
%TO.C,R1*%
X114931100Y-84249900D03*
X114931100Y-82424900D03*
%TD*%
%TO.C,R5*%
X114503200Y-95222700D03*
X114503200Y-93397700D03*
%TD*%
D35*
%TO.C,C7*%
X119251900Y-118643400D03*
X117526900Y-118643400D03*
%TD*%
D44*
%TO.C,U1*%
X120749498Y-84272000D03*
X120749498Y-83242000D03*
X120749498Y-82212000D03*
D45*
X120749498Y-83242000D03*
D46*
X122449500Y-82042000D03*
X122449500Y-82642001D03*
X122449500Y-83242003D03*
X122449500Y-83842001D03*
X122449500Y-84442003D03*
X119399498Y-84442003D03*
X119399498Y-83842001D03*
X119399498Y-83242003D03*
X119399498Y-82642001D03*
X119399498Y-82042000D03*
%TD*%
D47*
%TO.C,J2*%
X128250000Y-96000000D03*
D48*
X128250000Y-98000000D03*
X128250000Y-100000000D03*
X128250000Y-102000000D03*
X128250000Y-104000000D03*
%TD*%
D21*
%TO.C,C9*%
X117525800Y-95136000D03*
X117525800Y-93586000D03*
%TD*%
D30*
%TO.C,C2*%
X123852600Y-108762800D03*
X125577600Y-108762800D03*
%TD*%
D49*
%TO.C,C31*%
X104610200Y-91338400D03*
X103060200Y-91338400D03*
%TD*%
D50*
%TO.C,C3*%
X122267800Y-86182200D03*
X120192800Y-86182200D03*
%TD*%
D51*
%TO.C,D1*%
X116847500Y-85902800D03*
X115097500Y-85902800D03*
%TD*%
D13*
%TO.C,C12*%
X96073000Y-99999800D03*
X94173000Y-99999800D03*
%TD*%
D52*
%TO.C,R24*%
X111480000Y-91668200D03*
X109830000Y-91668200D03*
%TD*%
D25*
%TO.C,Q4*%
X80793800Y-85682000D03*
X80793800Y-83202000D03*
D26*
X79933800Y-81915000D03*
X82233800Y-81915000D03*
X82233800Y-86969000D03*
X79933800Y-86969000D03*
D27*
X78373800Y-86347000D03*
X78373800Y-85017000D03*
X78373800Y-83867000D03*
X78373800Y-82537000D03*
D28*
X84182800Y-82537000D03*
X84182800Y-83807000D03*
X84182800Y-85077000D03*
X84182800Y-86347000D03*
%TD*%
D53*
%TO.C,R39*%
X126517400Y-92887800D03*
X128167400Y-92887800D03*
%TD*%
D16*
%TO.C,R8*%
X90337100Y-115620800D03*
X87412100Y-115620800D03*
%TD*%
D11*
%TO.C,C22*%
X100132277Y-83997800D03*
D12*
X95132277Y-83997800D03*
%TD*%
D13*
%TO.C,C14*%
X101940400Y-104267000D03*
X100040400Y-104267000D03*
%TD*%
D52*
%TO.C,R27*%
X112686600Y-95123000D03*
X111036600Y-95123000D03*
%TD*%
D54*
%TO.C,J7*%
X117602000Y-122936000D03*
D55*
X115062000Y-122936000D03*
X112522000Y-122936000D03*
X109982000Y-122936000D03*
X107442000Y-122936000D03*
%TD*%
D29*
%TO.C,C26*%
X104165400Y-107698200D03*
X104165400Y-109248200D03*
%TD*%
D21*
%TO.C,C33*%
X113030000Y-99250800D03*
X113030000Y-97700800D03*
%TD*%
D56*
%TO.C,C27*%
X105943400Y-107812800D03*
X105943400Y-109712800D03*
%TD*%
D16*
%TO.C,R18*%
X90286300Y-95783400D03*
X87361300Y-95783400D03*
%TD*%
D57*
%TO.C,R25*%
X106377100Y-90246200D03*
X108202100Y-90246200D03*
%TD*%
D16*
%TO.C,R21*%
X90235500Y-80899000D03*
X87310500Y-80899000D03*
%TD*%
D58*
%TO.C,R2*%
X126184600Y-117500400D03*
X128009600Y-117500400D03*
%TD*%
D11*
%TO.C,C23*%
X105765600Y-83997800D03*
D12*
X110765600Y-83997800D03*
%TD*%
D18*
%TO.C,C6*%
X127279400Y-112293400D03*
X128829400Y-112293400D03*
%TD*%
%TO.C,C5*%
X127279400Y-113842800D03*
X128829400Y-113842800D03*
%TD*%
D17*
%TO.C,R3*%
X128009600Y-115976400D03*
X126184600Y-115976400D03*
%TD*%
D16*
%TO.C,R20*%
X90260900Y-85725000D03*
X87335900Y-85725000D03*
%TD*%
D59*
%TO.C,U4*%
X104100500Y-104177091D03*
X104600499Y-104177091D03*
X105100501Y-104177091D03*
X105600500Y-104177091D03*
X106100499Y-104177091D03*
X106600500Y-104177091D03*
X107100500Y-104177091D03*
X107600501Y-104177091D03*
X108100500Y-104177091D03*
X108600499Y-104177091D03*
X109100501Y-104177091D03*
X109600500Y-104177091D03*
D60*
X111028800Y-102748791D03*
X111028800Y-102248792D03*
X111028800Y-101748790D03*
X111028800Y-101248791D03*
X111028800Y-100748792D03*
X111028800Y-100248791D03*
X111028800Y-99748791D03*
X111028800Y-99248790D03*
X111028800Y-98748791D03*
X111028800Y-98248792D03*
X111028800Y-97748790D03*
X111028800Y-97248791D03*
D59*
X109600500Y-95820491D03*
X109100501Y-95820491D03*
X108600499Y-95820491D03*
X108100500Y-95820491D03*
X107600501Y-95820491D03*
X107100500Y-95820491D03*
X106600500Y-95820491D03*
X106100499Y-95820491D03*
X105600500Y-95820491D03*
X105100501Y-95820491D03*
X104600499Y-95820491D03*
X104100500Y-95820491D03*
D60*
X102672200Y-97248791D03*
X102672200Y-97748790D03*
X102672200Y-98248792D03*
X102672200Y-98748791D03*
X102672200Y-99248790D03*
X102672200Y-99748791D03*
X102672200Y-100248791D03*
X102672200Y-100748792D03*
X102672200Y-101248791D03*
X102672200Y-101748790D03*
X102672200Y-102248792D03*
X102672200Y-102748791D03*
D61*
X106850500Y-99998791D03*
%TD*%
D49*
%TO.C,C25*%
X106312000Y-112344200D03*
X104762000Y-112344200D03*
%TD*%
D56*
%TO.C,C28*%
X102362000Y-107294600D03*
X102362000Y-109194600D03*
%TD*%
M02*
