M48
; DRILL file {KiCad 8.0.6} date 2025-12-29T11:59:08+0200
; FORMAT={-:-/ absolute / inch / decimal}
; #@! TF.CreationDate,2025-12-29T11:59:08+02:00
; #@! TF.GenerationSoftware,Kicad,Pcbnew,8.0.6
; #@! TF.FileFunction,Plated,1,4,PTH
FMAT,2
INCH
; #@! TA.AperFunction,Plated,PTH,ComponentDrill
T1C0.0080
; #@! TA.AperFunction,Plated,PTH,ViaDrill
T2C0.0118
; #@! TA.AperFunction,Plated,PTH,ViaDrill
T3C0.0157
; #@! TA.AperFunction,Plated,PTH,ComponentDrill
T4C0.0197
; #@! TA.AperFunction,Plated,PTH,ComponentDrill
T5C0.0295
; #@! TA.AperFunction,Plated,PTH,ComponentDrill
T6C0.0374
; #@! TA.AperFunction,Plated,PTH,ComponentDrill
T7C0.0394
; #@! TA.AperFunction,Plated,PTH,ComponentDrill
T8C0.0669
%
G90
G05
T1
X4.7539Y-3.2367
X4.7539Y-3.2772
X4.7539Y-3.3178
T2
X2.944Y-4.314
X2.944Y-4.375
X3.1153Y-3.7431
X3.1153Y-3.7711
X3.1153Y-3.7991
X3.1156Y-3.3466
X3.1156Y-3.3746
X3.1156Y-3.4026
X3.1173Y-4.1321
X3.1173Y-4.1601
X3.1173Y-4.1881
X3.1203Y-4.5241
X3.1203Y-4.5521
X3.1203Y-4.5801
X3.1473Y-3.7431
X3.1473Y-3.7711
X3.1473Y-3.7991
X3.1476Y-3.3466
X3.1476Y-3.3746
X3.1476Y-3.4026
X3.1493Y-4.1321
X3.1493Y-4.1601
X3.1493Y-4.1881
X3.1523Y-4.5241
X3.1523Y-4.5521
X3.1523Y-4.5801
X3.1813Y-3.7431
X3.1813Y-3.7711
X3.1813Y-3.7991
X3.1816Y-3.3466
X3.1816Y-3.3746
X3.1816Y-3.4026
X3.1833Y-4.1321
X3.1833Y-4.1601
X3.1833Y-4.1881
X3.1863Y-4.5241
X3.1863Y-4.5521
X3.1863Y-4.5801
X3.2143Y-3.7431
X3.2143Y-3.7711
X3.2143Y-3.7991
X3.2146Y-3.3466
X3.2146Y-3.3746
X3.2146Y-3.4026
X3.2163Y-4.1321
X3.2163Y-4.1601
X3.2163Y-4.1881
X3.2193Y-4.5241
X3.2193Y-4.5521
X3.2193Y-4.5801
X3.2473Y-3.7431
X3.2473Y-3.7711
X3.2473Y-3.7991
X3.2476Y-3.3466
X3.2476Y-3.3746
X3.2476Y-3.4026
X3.2493Y-4.1321
X3.2493Y-4.1601
X3.2493Y-4.1881
X3.2523Y-4.5241
X3.2523Y-4.5521
X3.2523Y-4.5801
X3.314Y-3.696
X3.316Y-4.0857
X3.317Y-3.2995
X3.319Y-4.4778
X3.37Y-3.248
X3.37Y-3.278
X3.37Y-3.308
X3.37Y-3.644
X3.37Y-3.674
X3.37Y-3.704
X3.372Y-4.0337
X3.372Y-4.0637
X3.372Y-4.0938
X3.375Y-4.4257
X3.375Y-4.4558
X3.375Y-4.4857
X3.405Y-3.248
X3.405Y-3.278
X3.405Y-3.308
X3.405Y-3.644
X3.405Y-3.674
X3.405Y-3.704
X3.407Y-4.0337
X3.407Y-4.0637
X3.407Y-4.0938
X3.41Y-4.4257
X3.41Y-4.4558
X3.41Y-4.4857
X3.44Y-3.248
X3.44Y-3.278
X3.44Y-3.308
X3.44Y-3.644
X3.44Y-3.674
X3.44Y-3.704
X3.442Y-4.0337
X3.442Y-4.0637
X3.442Y-4.0938
X3.445Y-4.4257
X3.445Y-4.4558
X3.445Y-4.4857
X3.475Y-3.248
X3.475Y-3.278
X3.475Y-3.308
X3.475Y-3.644
X3.475Y-3.674
X3.475Y-3.704
X3.477Y-4.0337
X3.477Y-4.0637
X3.477Y-4.0938
X3.48Y-4.4257
X3.48Y-4.4558
X3.48Y-4.4857
X3.547Y-4.261
X3.566Y-4.043
X3.612Y-4.13
X3.614Y-4.409
X3.67Y-4.367
X3.67Y-4.409
X3.671Y-3.283
X3.671Y-3.341
X3.681Y-4.096
X3.698Y-3.398
X3.7Y-3.163
X3.702Y-3.227
X3.7076Y-3.937
X3.717Y-3.449
X3.718Y-4.365
X3.718Y-4.41
X3.719Y-4.2
X3.719Y-4.26
X3.719Y-4.318
X3.736Y-3.994
X3.754Y-3.398
X3.757Y-3.161
X3.757Y-3.227
X3.76Y-4.048
X3.761Y-3.535
X3.774Y-4.365
X3.774Y-4.41
X3.775Y-4.2
X3.775Y-4.26
X3.775Y-4.318
X3.776Y-3.449
X3.801Y-4.734
X3.802Y-4.58
X3.802Y-4.63
X3.802Y-4.686
X3.802Y-4.778
X3.808Y-3.56
X3.809Y-3.228
X3.81Y-3.28
X3.81Y-3.34
X3.81Y-3.398
X3.817Y-3.161
X3.846Y-3.528
X3.852Y-4.579
X3.852Y-4.629
X3.9Y-4.58
X3.9Y-4.63
X3.956Y-4.58
X3.956Y-4.63
X3.986Y-3.56
X3.988Y-3.614
X3.998Y-4.534
X4.034Y-4.536
X4.042Y-3.765
X4.0661Y-4.62
X4.101Y-4.3011
X4.106Y-4.749
X4.1245Y-4.423
X4.126Y-3.855
X4.126Y-3.896
X4.126Y-3.936
X4.126Y-3.978
X4.126Y-4.018
X4.139Y-4.679
X4.162Y-3.855
X4.162Y-3.896
X4.162Y-3.936
X4.162Y-3.978
X4.162Y-4.018
X4.1855Y-4.423
X4.199Y-4.559
X4.206Y-3.855
X4.206Y-3.896
X4.206Y-3.936
X4.206Y-3.978
X4.206Y-4.018
X4.246Y-3.855
X4.246Y-3.896
X4.246Y-3.936
X4.246Y-3.978
X4.246Y-4.018
X4.286Y-3.855
X4.286Y-3.896
X4.286Y-3.936
X4.286Y-3.978
X4.286Y-4.018
X4.307Y-3.396
X4.307Y-3.452
X4.309Y-3.168
X4.31Y-3.221
X4.312Y-4.169
X4.339Y-4.591
X4.343Y-4.376
X4.348Y-4.651
X4.362Y-3.222
X4.362Y-3.396
X4.362Y-3.452
X4.363Y-4.523
X4.364Y-3.168
X4.368Y-4.438
X4.37Y-4.682
X4.3739Y-4.3503
X4.4005Y-3.669
X4.407Y-4.591
X4.409Y-4.221
X4.4109Y-4.949
X4.414Y-3.397
X4.414Y-3.453
X4.416Y-3.169
X4.417Y-3.222
X4.4365Y-3.745
X4.4499Y-3.9074
X4.45Y-3.8465
X4.48Y-4.34
X4.48Y-4.657
X4.484Y-4.438
X4.485Y-4.099
X4.51Y-4.35
X4.5248Y-3.2451
X4.532Y-4.544
X4.536Y-4.376
X4.54Y-4.147
X4.541Y-4.198
X4.566Y-3.746
X4.568Y-4.378
X4.624Y-4.396
X4.626Y-4.36
X4.627Y-3.6845
X4.627Y-4.671
X4.63Y-4.448
X4.648Y-4.4206
X4.6486Y-3.8906
X4.6486Y-3.9406
X4.6521Y-3.556
X4.654Y-3.497
X4.656Y-4.057
X4.6618Y-3.23
X4.666Y-4.359
X4.691Y-4.5167
X4.693Y-4.056
X4.72Y-3.556
X4.732Y-3.393
X4.734Y-4.084
X4.735Y-3.72
X4.7366Y-3.6598
X4.76Y-4.684
X4.765Y-3.69
X4.7683Y-3.545
X4.771Y-4.084
X4.795Y-3.66
X4.795Y-3.72
X4.8017Y-3.545
X4.832Y-4.388
X4.853Y-3.6
X4.8792Y-3.402
X4.9015Y-3.629
X4.906Y-3.7
X4.944Y-4.282
X5.072Y-4.421
X5.072Y-4.482
T3
X3.55Y-3.884
X3.557Y-3.0484
X3.618Y-4.024
X3.65Y-3.994
X3.7076Y-3.858
X3.708Y-3.769
X3.776Y-4.086
X3.776Y-4.128
X3.788Y-3.612
X3.79Y-3.712
X3.838Y-3.611
X3.839Y-3.712
X3.959Y-4.323
X4.101Y-4.2401
X4.171Y-4.2446
X4.187Y-3.471
X4.357Y-3.547
X4.6018Y-3.122
T5
X3.6614Y-5.0491
X3.7402Y-5.0491
X3.8189Y-5.0491
X3.8976Y-5.0491
X3.9764Y-5.0491
X4.0551Y-5.0491
X4.1339Y-5.0491
X4.2126Y-5.0491
X5.0492Y-3.7795
X5.0492Y-3.8583
X5.0492Y-3.937
X5.0492Y-4.0157
X5.0492Y-4.0945
T6
X2.8225Y-3.762
X2.8225Y-3.8604
X2.8225Y-3.9588
X2.8225Y-4.0572
T7
X3.6781Y-4.708
X3.7454Y-3.307
X3.875Y-4.708
X3.9422Y-3.307
X4.164Y-3.307
X4.23Y-4.84
X4.33Y-4.84
X4.3609Y-3.307
X4.43Y-4.84
X4.53Y-4.84
X4.63Y-4.84
T8
X3.7031Y-2.8898
X3.8591Y-2.8898
X4.015Y-2.8898
X4.1709Y-2.8898
T4
G00X4.991Y-3.3468
M15
G01X4.991Y-3.3192
M16
G05
G00X4.991Y-3.5673
M15
G01X4.991Y-3.5397
M16
G05
G00X5.0756Y-3.4649
M15
G01X5.0756Y-3.4216
M16
G05
M30
