%TF.GenerationSoftware,KiCad,Pcbnew,8.0.6*%
%TF.CreationDate,2025-12-29T11:58:40+02:00*%
%TF.ProjectId,TMCM_1260_alternative,544d434d-5f31-4323-9630-5f616c746572,rev?*%
%TF.SameCoordinates,Original*%
%TF.FileFunction,Legend,Top*%
%TF.FilePolarity,Positive*%
%FSLAX46Y46*%
G04 Gerber Fmt 4.6, Leading zero omitted, Abs format (unit mm)*
G04 Created by KiCad (PCBNEW 8.0.6) date 2025-12-29 11:58:40*
%MOMM*%
%LPD*%
G01*
G04 APERTURE LIST*
%ADD10C,0.150000*%
%ADD11C,0.125000*%
%ADD12C,0.254000*%
%ADD13C,0.120000*%
%ADD14C,0.100000*%
%ADD15C,0.200000*%
%ADD16C,0.177800*%
%ADD17C,0.152400*%
%ADD18C,0.000000*%
G04 APERTURE END LIST*
D10*
X95282142Y-113692780D02*
X95234523Y-113740400D01*
X95234523Y-113740400D02*
X95091666Y-113788019D01*
X95091666Y-113788019D02*
X94996428Y-113788019D01*
X94996428Y-113788019D02*
X94853571Y-113740400D01*
X94853571Y-113740400D02*
X94758333Y-113645161D01*
X94758333Y-113645161D02*
X94710714Y-113549923D01*
X94710714Y-113549923D02*
X94663095Y-113359447D01*
X94663095Y-113359447D02*
X94663095Y-113216590D01*
X94663095Y-113216590D02*
X94710714Y-113026114D01*
X94710714Y-113026114D02*
X94758333Y-112930876D01*
X94758333Y-112930876D02*
X94853571Y-112835638D01*
X94853571Y-112835638D02*
X94996428Y-112788019D01*
X94996428Y-112788019D02*
X95091666Y-112788019D01*
X95091666Y-112788019D02*
X95234523Y-112835638D01*
X95234523Y-112835638D02*
X95282142Y-112883257D01*
X95663095Y-112883257D02*
X95710714Y-112835638D01*
X95710714Y-112835638D02*
X95805952Y-112788019D01*
X95805952Y-112788019D02*
X96044047Y-112788019D01*
X96044047Y-112788019D02*
X96139285Y-112835638D01*
X96139285Y-112835638D02*
X96186904Y-112883257D01*
X96186904Y-112883257D02*
X96234523Y-112978495D01*
X96234523Y-112978495D02*
X96234523Y-113073733D01*
X96234523Y-113073733D02*
X96186904Y-113216590D01*
X96186904Y-113216590D02*
X95615476Y-113788019D01*
X95615476Y-113788019D02*
X96234523Y-113788019D01*
X97091666Y-113121352D02*
X97091666Y-113788019D01*
X96853571Y-112740400D02*
X96615476Y-113454685D01*
X96615476Y-113454685D02*
X97234523Y-113454685D01*
X98848942Y-94136380D02*
X98801323Y-94184000D01*
X98801323Y-94184000D02*
X98658466Y-94231619D01*
X98658466Y-94231619D02*
X98563228Y-94231619D01*
X98563228Y-94231619D02*
X98420371Y-94184000D01*
X98420371Y-94184000D02*
X98325133Y-94088761D01*
X98325133Y-94088761D02*
X98277514Y-93993523D01*
X98277514Y-93993523D02*
X98229895Y-93803047D01*
X98229895Y-93803047D02*
X98229895Y-93660190D01*
X98229895Y-93660190D02*
X98277514Y-93469714D01*
X98277514Y-93469714D02*
X98325133Y-93374476D01*
X98325133Y-93374476D02*
X98420371Y-93279238D01*
X98420371Y-93279238D02*
X98563228Y-93231619D01*
X98563228Y-93231619D02*
X98658466Y-93231619D01*
X98658466Y-93231619D02*
X98801323Y-93279238D01*
X98801323Y-93279238D02*
X98848942Y-93326857D01*
X99801323Y-94231619D02*
X99229895Y-94231619D01*
X99515609Y-94231619D02*
X99515609Y-93231619D01*
X99515609Y-93231619D02*
X99420371Y-93374476D01*
X99420371Y-93374476D02*
X99325133Y-93469714D01*
X99325133Y-93469714D02*
X99229895Y-93517333D01*
X100706085Y-93231619D02*
X100229895Y-93231619D01*
X100229895Y-93231619D02*
X100182276Y-93707809D01*
X100182276Y-93707809D02*
X100229895Y-93660190D01*
X100229895Y-93660190D02*
X100325133Y-93612571D01*
X100325133Y-93612571D02*
X100563228Y-93612571D01*
X100563228Y-93612571D02*
X100658466Y-93660190D01*
X100658466Y-93660190D02*
X100706085Y-93707809D01*
X100706085Y-93707809D02*
X100753704Y-93803047D01*
X100753704Y-93803047D02*
X100753704Y-94041142D01*
X100753704Y-94041142D02*
X100706085Y-94136380D01*
X100706085Y-94136380D02*
X100658466Y-94184000D01*
X100658466Y-94184000D02*
X100563228Y-94231619D01*
X100563228Y-94231619D02*
X100325133Y-94231619D01*
X100325133Y-94231619D02*
X100229895Y-94184000D01*
X100229895Y-94184000D02*
X100182276Y-94136380D01*
X116335980Y-91835266D02*
X116383600Y-91882885D01*
X116383600Y-91882885D02*
X116431219Y-92025742D01*
X116431219Y-92025742D02*
X116431219Y-92120980D01*
X116431219Y-92120980D02*
X116383600Y-92263837D01*
X116383600Y-92263837D02*
X116288361Y-92359075D01*
X116288361Y-92359075D02*
X116193123Y-92406694D01*
X116193123Y-92406694D02*
X116002647Y-92454313D01*
X116002647Y-92454313D02*
X115859790Y-92454313D01*
X115859790Y-92454313D02*
X115669314Y-92406694D01*
X115669314Y-92406694D02*
X115574076Y-92359075D01*
X115574076Y-92359075D02*
X115478838Y-92263837D01*
X115478838Y-92263837D02*
X115431219Y-92120980D01*
X115431219Y-92120980D02*
X115431219Y-92025742D01*
X115431219Y-92025742D02*
X115478838Y-91882885D01*
X115478838Y-91882885D02*
X115526457Y-91835266D01*
X115859790Y-91263837D02*
X115812171Y-91359075D01*
X115812171Y-91359075D02*
X115764552Y-91406694D01*
X115764552Y-91406694D02*
X115669314Y-91454313D01*
X115669314Y-91454313D02*
X115621695Y-91454313D01*
X115621695Y-91454313D02*
X115526457Y-91406694D01*
X115526457Y-91406694D02*
X115478838Y-91359075D01*
X115478838Y-91359075D02*
X115431219Y-91263837D01*
X115431219Y-91263837D02*
X115431219Y-91073361D01*
X115431219Y-91073361D02*
X115478838Y-90978123D01*
X115478838Y-90978123D02*
X115526457Y-90930504D01*
X115526457Y-90930504D02*
X115621695Y-90882885D01*
X115621695Y-90882885D02*
X115669314Y-90882885D01*
X115669314Y-90882885D02*
X115764552Y-90930504D01*
X115764552Y-90930504D02*
X115812171Y-90978123D01*
X115812171Y-90978123D02*
X115859790Y-91073361D01*
X115859790Y-91073361D02*
X115859790Y-91263837D01*
X115859790Y-91263837D02*
X115907409Y-91359075D01*
X115907409Y-91359075D02*
X115955028Y-91406694D01*
X115955028Y-91406694D02*
X116050266Y-91454313D01*
X116050266Y-91454313D02*
X116240742Y-91454313D01*
X116240742Y-91454313D02*
X116335980Y-91406694D01*
X116335980Y-91406694D02*
X116383600Y-91359075D01*
X116383600Y-91359075D02*
X116431219Y-91263837D01*
X116431219Y-91263837D02*
X116431219Y-91073361D01*
X116431219Y-91073361D02*
X116383600Y-90978123D01*
X116383600Y-90978123D02*
X116335980Y-90930504D01*
X116335980Y-90930504D02*
X116240742Y-90882885D01*
X116240742Y-90882885D02*
X116050266Y-90882885D01*
X116050266Y-90882885D02*
X115955028Y-90930504D01*
X115955028Y-90930504D02*
X115907409Y-90978123D01*
X115907409Y-90978123D02*
X115859790Y-91073361D01*
X124364809Y-110301028D02*
X124364809Y-110777219D01*
X124031476Y-109777219D02*
X124364809Y-110301028D01*
X124364809Y-110301028D02*
X124698142Y-109777219D01*
X125555285Y-110777219D02*
X124983857Y-110777219D01*
X125269571Y-110777219D02*
X125269571Y-109777219D01*
X125269571Y-109777219D02*
X125174333Y-109920076D01*
X125174333Y-109920076D02*
X125079095Y-110015314D01*
X125079095Y-110015314D02*
X124983857Y-110062933D01*
X88231742Y-107989619D02*
X87898409Y-107513428D01*
X87660314Y-107989619D02*
X87660314Y-106989619D01*
X87660314Y-106989619D02*
X88041266Y-106989619D01*
X88041266Y-106989619D02*
X88136504Y-107037238D01*
X88136504Y-107037238D02*
X88184123Y-107084857D01*
X88184123Y-107084857D02*
X88231742Y-107180095D01*
X88231742Y-107180095D02*
X88231742Y-107322952D01*
X88231742Y-107322952D02*
X88184123Y-107418190D01*
X88184123Y-107418190D02*
X88136504Y-107465809D01*
X88136504Y-107465809D02*
X88041266Y-107513428D01*
X88041266Y-107513428D02*
X87660314Y-107513428D01*
X89184123Y-107989619D02*
X88612695Y-107989619D01*
X88898409Y-107989619D02*
X88898409Y-106989619D01*
X88898409Y-106989619D02*
X88803171Y-107132476D01*
X88803171Y-107132476D02*
X88707933Y-107227714D01*
X88707933Y-107227714D02*
X88612695Y-107275333D01*
X89803171Y-106989619D02*
X89898409Y-106989619D01*
X89898409Y-106989619D02*
X89993647Y-107037238D01*
X89993647Y-107037238D02*
X90041266Y-107084857D01*
X90041266Y-107084857D02*
X90088885Y-107180095D01*
X90088885Y-107180095D02*
X90136504Y-107370571D01*
X90136504Y-107370571D02*
X90136504Y-107608666D01*
X90136504Y-107608666D02*
X90088885Y-107799142D01*
X90088885Y-107799142D02*
X90041266Y-107894380D01*
X90041266Y-107894380D02*
X89993647Y-107942000D01*
X89993647Y-107942000D02*
X89898409Y-107989619D01*
X89898409Y-107989619D02*
X89803171Y-107989619D01*
X89803171Y-107989619D02*
X89707933Y-107942000D01*
X89707933Y-107942000D02*
X89660314Y-107894380D01*
X89660314Y-107894380D02*
X89612695Y-107799142D01*
X89612695Y-107799142D02*
X89565076Y-107608666D01*
X89565076Y-107608666D02*
X89565076Y-107370571D01*
X89565076Y-107370571D02*
X89612695Y-107180095D01*
X89612695Y-107180095D02*
X89660314Y-107084857D01*
X89660314Y-107084857D02*
X89707933Y-107037238D01*
X89707933Y-107037238D02*
X89803171Y-106989619D01*
D11*
X102409009Y-119087228D02*
X102170914Y-119253894D01*
X102409009Y-119372942D02*
X101909009Y-119372942D01*
X101909009Y-119372942D02*
X101909009Y-119182466D01*
X101909009Y-119182466D02*
X101932819Y-119134847D01*
X101932819Y-119134847D02*
X101956628Y-119111037D01*
X101956628Y-119111037D02*
X102004247Y-119087228D01*
X102004247Y-119087228D02*
X102075676Y-119087228D01*
X102075676Y-119087228D02*
X102123295Y-119111037D01*
X102123295Y-119111037D02*
X102147104Y-119134847D01*
X102147104Y-119134847D02*
X102170914Y-119182466D01*
X102170914Y-119182466D02*
X102170914Y-119372942D01*
X101909009Y-118920561D02*
X101909009Y-118611037D01*
X101909009Y-118611037D02*
X102099485Y-118777704D01*
X102099485Y-118777704D02*
X102099485Y-118706275D01*
X102099485Y-118706275D02*
X102123295Y-118658656D01*
X102123295Y-118658656D02*
X102147104Y-118634847D01*
X102147104Y-118634847D02*
X102194723Y-118611037D01*
X102194723Y-118611037D02*
X102313771Y-118611037D01*
X102313771Y-118611037D02*
X102361390Y-118634847D01*
X102361390Y-118634847D02*
X102385200Y-118658656D01*
X102385200Y-118658656D02*
X102409009Y-118706275D01*
X102409009Y-118706275D02*
X102409009Y-118849132D01*
X102409009Y-118849132D02*
X102385200Y-118896751D01*
X102385200Y-118896751D02*
X102361390Y-118920561D01*
X102075676Y-118182466D02*
X102409009Y-118182466D01*
X101885200Y-118301514D02*
X102242342Y-118420561D01*
X102242342Y-118420561D02*
X102242342Y-118111038D01*
X108085771Y-91972790D02*
X108061962Y-91996600D01*
X108061962Y-91996600D02*
X107990533Y-92020409D01*
X107990533Y-92020409D02*
X107942914Y-92020409D01*
X107942914Y-92020409D02*
X107871486Y-91996600D01*
X107871486Y-91996600D02*
X107823867Y-91948980D01*
X107823867Y-91948980D02*
X107800057Y-91901361D01*
X107800057Y-91901361D02*
X107776248Y-91806123D01*
X107776248Y-91806123D02*
X107776248Y-91734695D01*
X107776248Y-91734695D02*
X107800057Y-91639457D01*
X107800057Y-91639457D02*
X107823867Y-91591838D01*
X107823867Y-91591838D02*
X107871486Y-91544219D01*
X107871486Y-91544219D02*
X107942914Y-91520409D01*
X107942914Y-91520409D02*
X107990533Y-91520409D01*
X107990533Y-91520409D02*
X108061962Y-91544219D01*
X108061962Y-91544219D02*
X108085771Y-91568028D01*
X108276248Y-91568028D02*
X108300057Y-91544219D01*
X108300057Y-91544219D02*
X108347676Y-91520409D01*
X108347676Y-91520409D02*
X108466724Y-91520409D01*
X108466724Y-91520409D02*
X108514343Y-91544219D01*
X108514343Y-91544219D02*
X108538152Y-91568028D01*
X108538152Y-91568028D02*
X108561962Y-91615647D01*
X108561962Y-91615647D02*
X108561962Y-91663266D01*
X108561962Y-91663266D02*
X108538152Y-91734695D01*
X108538152Y-91734695D02*
X108252438Y-92020409D01*
X108252438Y-92020409D02*
X108561962Y-92020409D01*
X108800057Y-92020409D02*
X108895295Y-92020409D01*
X108895295Y-92020409D02*
X108942914Y-91996600D01*
X108942914Y-91996600D02*
X108966723Y-91972790D01*
X108966723Y-91972790D02*
X109014342Y-91901361D01*
X109014342Y-91901361D02*
X109038152Y-91806123D01*
X109038152Y-91806123D02*
X109038152Y-91615647D01*
X109038152Y-91615647D02*
X109014342Y-91568028D01*
X109014342Y-91568028D02*
X108990533Y-91544219D01*
X108990533Y-91544219D02*
X108942914Y-91520409D01*
X108942914Y-91520409D02*
X108847676Y-91520409D01*
X108847676Y-91520409D02*
X108800057Y-91544219D01*
X108800057Y-91544219D02*
X108776247Y-91568028D01*
X108776247Y-91568028D02*
X108752438Y-91615647D01*
X108752438Y-91615647D02*
X108752438Y-91734695D01*
X108752438Y-91734695D02*
X108776247Y-91782314D01*
X108776247Y-91782314D02*
X108800057Y-91806123D01*
X108800057Y-91806123D02*
X108847676Y-91829933D01*
X108847676Y-91829933D02*
X108942914Y-91829933D01*
X108942914Y-91829933D02*
X108990533Y-91806123D01*
X108990533Y-91806123D02*
X109014342Y-91782314D01*
X109014342Y-91782314D02*
X109038152Y-91734695D01*
D10*
X90136742Y-98911580D02*
X90089123Y-98959200D01*
X90089123Y-98959200D02*
X89946266Y-99006819D01*
X89946266Y-99006819D02*
X89851028Y-99006819D01*
X89851028Y-99006819D02*
X89708171Y-98959200D01*
X89708171Y-98959200D02*
X89612933Y-98863961D01*
X89612933Y-98863961D02*
X89565314Y-98768723D01*
X89565314Y-98768723D02*
X89517695Y-98578247D01*
X89517695Y-98578247D02*
X89517695Y-98435390D01*
X89517695Y-98435390D02*
X89565314Y-98244914D01*
X89565314Y-98244914D02*
X89612933Y-98149676D01*
X89612933Y-98149676D02*
X89708171Y-98054438D01*
X89708171Y-98054438D02*
X89851028Y-98006819D01*
X89851028Y-98006819D02*
X89946266Y-98006819D01*
X89946266Y-98006819D02*
X90089123Y-98054438D01*
X90089123Y-98054438D02*
X90136742Y-98102057D01*
X91089123Y-99006819D02*
X90517695Y-99006819D01*
X90803409Y-99006819D02*
X90803409Y-98006819D01*
X90803409Y-98006819D02*
X90708171Y-98149676D01*
X90708171Y-98149676D02*
X90612933Y-98244914D01*
X90612933Y-98244914D02*
X90517695Y-98292533D01*
X91565314Y-99006819D02*
X91755790Y-99006819D01*
X91755790Y-99006819D02*
X91851028Y-98959200D01*
X91851028Y-98959200D02*
X91898647Y-98911580D01*
X91898647Y-98911580D02*
X91993885Y-98768723D01*
X91993885Y-98768723D02*
X92041504Y-98578247D01*
X92041504Y-98578247D02*
X92041504Y-98197295D01*
X92041504Y-98197295D02*
X91993885Y-98102057D01*
X91993885Y-98102057D02*
X91946266Y-98054438D01*
X91946266Y-98054438D02*
X91851028Y-98006819D01*
X91851028Y-98006819D02*
X91660552Y-98006819D01*
X91660552Y-98006819D02*
X91565314Y-98054438D01*
X91565314Y-98054438D02*
X91517695Y-98102057D01*
X91517695Y-98102057D02*
X91470076Y-98197295D01*
X91470076Y-98197295D02*
X91470076Y-98435390D01*
X91470076Y-98435390D02*
X91517695Y-98530628D01*
X91517695Y-98530628D02*
X91565314Y-98578247D01*
X91565314Y-98578247D02*
X91660552Y-98625866D01*
X91660552Y-98625866D02*
X91851028Y-98625866D01*
X91851028Y-98625866D02*
X91946266Y-98578247D01*
X91946266Y-98578247D02*
X91993885Y-98530628D01*
X91993885Y-98530628D02*
X92041504Y-98435390D01*
D11*
X122274990Y-119320428D02*
X122298800Y-119344237D01*
X122298800Y-119344237D02*
X122322609Y-119415666D01*
X122322609Y-119415666D02*
X122322609Y-119463285D01*
X122322609Y-119463285D02*
X122298800Y-119534713D01*
X122298800Y-119534713D02*
X122251180Y-119582332D01*
X122251180Y-119582332D02*
X122203561Y-119606142D01*
X122203561Y-119606142D02*
X122108323Y-119629951D01*
X122108323Y-119629951D02*
X122036895Y-119629951D01*
X122036895Y-119629951D02*
X121941657Y-119606142D01*
X121941657Y-119606142D02*
X121894038Y-119582332D01*
X121894038Y-119582332D02*
X121846419Y-119534713D01*
X121846419Y-119534713D02*
X121822609Y-119463285D01*
X121822609Y-119463285D02*
X121822609Y-119415666D01*
X121822609Y-119415666D02*
X121846419Y-119344237D01*
X121846419Y-119344237D02*
X121870228Y-119320428D01*
X121822609Y-119153761D02*
X121822609Y-118844237D01*
X121822609Y-118844237D02*
X122013085Y-119010904D01*
X122013085Y-119010904D02*
X122013085Y-118939475D01*
X122013085Y-118939475D02*
X122036895Y-118891856D01*
X122036895Y-118891856D02*
X122060704Y-118868047D01*
X122060704Y-118868047D02*
X122108323Y-118844237D01*
X122108323Y-118844237D02*
X122227371Y-118844237D01*
X122227371Y-118844237D02*
X122274990Y-118868047D01*
X122274990Y-118868047D02*
X122298800Y-118891856D01*
X122298800Y-118891856D02*
X122322609Y-118939475D01*
X122322609Y-118939475D02*
X122322609Y-119082332D01*
X122322609Y-119082332D02*
X122298800Y-119129951D01*
X122298800Y-119129951D02*
X122274990Y-119153761D01*
X121822609Y-118677571D02*
X121822609Y-118344238D01*
X121822609Y-118344238D02*
X122322609Y-118558523D01*
X123303552Y-118969809D02*
X123303552Y-118469809D01*
X123303552Y-118469809D02*
X123422600Y-118469809D01*
X123422600Y-118469809D02*
X123494028Y-118493619D01*
X123494028Y-118493619D02*
X123541647Y-118541238D01*
X123541647Y-118541238D02*
X123565457Y-118588857D01*
X123565457Y-118588857D02*
X123589266Y-118684095D01*
X123589266Y-118684095D02*
X123589266Y-118755523D01*
X123589266Y-118755523D02*
X123565457Y-118850761D01*
X123565457Y-118850761D02*
X123541647Y-118898380D01*
X123541647Y-118898380D02*
X123494028Y-118946000D01*
X123494028Y-118946000D02*
X123422600Y-118969809D01*
X123422600Y-118969809D02*
X123303552Y-118969809D01*
X123779743Y-118517428D02*
X123803552Y-118493619D01*
X123803552Y-118493619D02*
X123851171Y-118469809D01*
X123851171Y-118469809D02*
X123970219Y-118469809D01*
X123970219Y-118469809D02*
X124017838Y-118493619D01*
X124017838Y-118493619D02*
X124041647Y-118517428D01*
X124041647Y-118517428D02*
X124065457Y-118565047D01*
X124065457Y-118565047D02*
X124065457Y-118612666D01*
X124065457Y-118612666D02*
X124041647Y-118684095D01*
X124041647Y-118684095D02*
X123755933Y-118969809D01*
X123755933Y-118969809D02*
X124065457Y-118969809D01*
D10*
X81174780Y-79611457D02*
X81222400Y-79659076D01*
X81222400Y-79659076D02*
X81270019Y-79801933D01*
X81270019Y-79801933D02*
X81270019Y-79897171D01*
X81270019Y-79897171D02*
X81222400Y-80040028D01*
X81222400Y-80040028D02*
X81127161Y-80135266D01*
X81127161Y-80135266D02*
X81031923Y-80182885D01*
X81031923Y-80182885D02*
X80841447Y-80230504D01*
X80841447Y-80230504D02*
X80698590Y-80230504D01*
X80698590Y-80230504D02*
X80508114Y-80182885D01*
X80508114Y-80182885D02*
X80412876Y-80135266D01*
X80412876Y-80135266D02*
X80317638Y-80040028D01*
X80317638Y-80040028D02*
X80270019Y-79897171D01*
X80270019Y-79897171D02*
X80270019Y-79801933D01*
X80270019Y-79801933D02*
X80317638Y-79659076D01*
X80317638Y-79659076D02*
X80365257Y-79611457D01*
X80365257Y-79230504D02*
X80317638Y-79182885D01*
X80317638Y-79182885D02*
X80270019Y-79087647D01*
X80270019Y-79087647D02*
X80270019Y-78849552D01*
X80270019Y-78849552D02*
X80317638Y-78754314D01*
X80317638Y-78754314D02*
X80365257Y-78706695D01*
X80365257Y-78706695D02*
X80460495Y-78659076D01*
X80460495Y-78659076D02*
X80555733Y-78659076D01*
X80555733Y-78659076D02*
X80698590Y-78706695D01*
X80698590Y-78706695D02*
X81270019Y-79278123D01*
X81270019Y-79278123D02*
X81270019Y-78659076D01*
X80270019Y-78040028D02*
X80270019Y-77944790D01*
X80270019Y-77944790D02*
X80317638Y-77849552D01*
X80317638Y-77849552D02*
X80365257Y-77801933D01*
X80365257Y-77801933D02*
X80460495Y-77754314D01*
X80460495Y-77754314D02*
X80650971Y-77706695D01*
X80650971Y-77706695D02*
X80889066Y-77706695D01*
X80889066Y-77706695D02*
X81079542Y-77754314D01*
X81079542Y-77754314D02*
X81174780Y-77801933D01*
X81174780Y-77801933D02*
X81222400Y-77849552D01*
X81222400Y-77849552D02*
X81270019Y-77944790D01*
X81270019Y-77944790D02*
X81270019Y-78040028D01*
X81270019Y-78040028D02*
X81222400Y-78135266D01*
X81222400Y-78135266D02*
X81174780Y-78182885D01*
X81174780Y-78182885D02*
X81079542Y-78230504D01*
X81079542Y-78230504D02*
X80889066Y-78278123D01*
X80889066Y-78278123D02*
X80650971Y-78278123D01*
X80650971Y-78278123D02*
X80460495Y-78230504D01*
X80460495Y-78230504D02*
X80365257Y-78182885D01*
X80365257Y-78182885D02*
X80317638Y-78135266D01*
X80317638Y-78135266D02*
X80270019Y-78040028D01*
D11*
X102461709Y-117644028D02*
X102223614Y-117810694D01*
X102461709Y-117929742D02*
X101961709Y-117929742D01*
X101961709Y-117929742D02*
X101961709Y-117739266D01*
X101961709Y-117739266D02*
X101985519Y-117691647D01*
X101985519Y-117691647D02*
X102009328Y-117667837D01*
X102009328Y-117667837D02*
X102056947Y-117644028D01*
X102056947Y-117644028D02*
X102128376Y-117644028D01*
X102128376Y-117644028D02*
X102175995Y-117667837D01*
X102175995Y-117667837D02*
X102199804Y-117691647D01*
X102199804Y-117691647D02*
X102223614Y-117739266D01*
X102223614Y-117739266D02*
X102223614Y-117929742D01*
X101961709Y-117477361D02*
X101961709Y-117167837D01*
X101961709Y-117167837D02*
X102152185Y-117334504D01*
X102152185Y-117334504D02*
X102152185Y-117263075D01*
X102152185Y-117263075D02*
X102175995Y-117215456D01*
X102175995Y-117215456D02*
X102199804Y-117191647D01*
X102199804Y-117191647D02*
X102247423Y-117167837D01*
X102247423Y-117167837D02*
X102366471Y-117167837D01*
X102366471Y-117167837D02*
X102414090Y-117191647D01*
X102414090Y-117191647D02*
X102437900Y-117215456D01*
X102437900Y-117215456D02*
X102461709Y-117263075D01*
X102461709Y-117263075D02*
X102461709Y-117405932D01*
X102461709Y-117405932D02*
X102437900Y-117453551D01*
X102437900Y-117453551D02*
X102414090Y-117477361D01*
X101961709Y-116715457D02*
X101961709Y-116953552D01*
X101961709Y-116953552D02*
X102199804Y-116977361D01*
X102199804Y-116977361D02*
X102175995Y-116953552D01*
X102175995Y-116953552D02*
X102152185Y-116905933D01*
X102152185Y-116905933D02*
X102152185Y-116786885D01*
X102152185Y-116786885D02*
X102175995Y-116739266D01*
X102175995Y-116739266D02*
X102199804Y-116715457D01*
X102199804Y-116715457D02*
X102247423Y-116691647D01*
X102247423Y-116691647D02*
X102366471Y-116691647D01*
X102366471Y-116691647D02*
X102414090Y-116715457D01*
X102414090Y-116715457D02*
X102437900Y-116739266D01*
X102437900Y-116739266D02*
X102461709Y-116786885D01*
X102461709Y-116786885D02*
X102461709Y-116905933D01*
X102461709Y-116905933D02*
X102437900Y-116953552D01*
X102437900Y-116953552D02*
X102414090Y-116977361D01*
D10*
X124803819Y-84483533D02*
X125518104Y-84483533D01*
X125518104Y-84483533D02*
X125660961Y-84531152D01*
X125660961Y-84531152D02*
X125756200Y-84626390D01*
X125756200Y-84626390D02*
X125803819Y-84769247D01*
X125803819Y-84769247D02*
X125803819Y-84864485D01*
X124803819Y-83531152D02*
X124803819Y-84007342D01*
X124803819Y-84007342D02*
X125280009Y-84054961D01*
X125280009Y-84054961D02*
X125232390Y-84007342D01*
X125232390Y-84007342D02*
X125184771Y-83912104D01*
X125184771Y-83912104D02*
X125184771Y-83674009D01*
X125184771Y-83674009D02*
X125232390Y-83578771D01*
X125232390Y-83578771D02*
X125280009Y-83531152D01*
X125280009Y-83531152D02*
X125375247Y-83483533D01*
X125375247Y-83483533D02*
X125613342Y-83483533D01*
X125613342Y-83483533D02*
X125708580Y-83531152D01*
X125708580Y-83531152D02*
X125756200Y-83578771D01*
X125756200Y-83578771D02*
X125803819Y-83674009D01*
X125803819Y-83674009D02*
X125803819Y-83912104D01*
X125803819Y-83912104D02*
X125756200Y-84007342D01*
X125756200Y-84007342D02*
X125708580Y-84054961D01*
D12*
X78556470Y-109456552D02*
X78495994Y-109577504D01*
X78495994Y-109577504D02*
X78375042Y-109698457D01*
X78375042Y-109698457D02*
X78193613Y-109879885D01*
X78193613Y-109879885D02*
X78133137Y-110000838D01*
X78133137Y-110000838D02*
X78133137Y-110121790D01*
X78435518Y-110061314D02*
X78375042Y-110182266D01*
X78375042Y-110182266D02*
X78254089Y-110303219D01*
X78254089Y-110303219D02*
X78012184Y-110363695D01*
X78012184Y-110363695D02*
X77588851Y-110363695D01*
X77588851Y-110363695D02*
X77346946Y-110303219D01*
X77346946Y-110303219D02*
X77225994Y-110182266D01*
X77225994Y-110182266D02*
X77165518Y-110061314D01*
X77165518Y-110061314D02*
X77165518Y-109819409D01*
X77165518Y-109819409D02*
X77225994Y-109698457D01*
X77225994Y-109698457D02*
X77346946Y-109577504D01*
X77346946Y-109577504D02*
X77588851Y-109517028D01*
X77588851Y-109517028D02*
X78012184Y-109517028D01*
X78012184Y-109517028D02*
X78254089Y-109577504D01*
X78254089Y-109577504D02*
X78375042Y-109698457D01*
X78375042Y-109698457D02*
X78435518Y-109819409D01*
X78435518Y-109819409D02*
X78435518Y-110061314D01*
X78435518Y-108307504D02*
X78435518Y-109033219D01*
X78435518Y-108670362D02*
X77165518Y-108670362D01*
X77165518Y-108670362D02*
X77346946Y-108791314D01*
X77346946Y-108791314D02*
X77467899Y-108912266D01*
X77467899Y-108912266D02*
X77528375Y-109033219D01*
D10*
X87412980Y-120937257D02*
X87460600Y-120984876D01*
X87460600Y-120984876D02*
X87508219Y-121127733D01*
X87508219Y-121127733D02*
X87508219Y-121222971D01*
X87508219Y-121222971D02*
X87460600Y-121365828D01*
X87460600Y-121365828D02*
X87365361Y-121461066D01*
X87365361Y-121461066D02*
X87270123Y-121508685D01*
X87270123Y-121508685D02*
X87079647Y-121556304D01*
X87079647Y-121556304D02*
X86936790Y-121556304D01*
X86936790Y-121556304D02*
X86746314Y-121508685D01*
X86746314Y-121508685D02*
X86651076Y-121461066D01*
X86651076Y-121461066D02*
X86555838Y-121365828D01*
X86555838Y-121365828D02*
X86508219Y-121222971D01*
X86508219Y-121222971D02*
X86508219Y-121127733D01*
X86508219Y-121127733D02*
X86555838Y-120984876D01*
X86555838Y-120984876D02*
X86603457Y-120937257D01*
X87508219Y-119984876D02*
X87508219Y-120556304D01*
X87508219Y-120270590D02*
X86508219Y-120270590D01*
X86508219Y-120270590D02*
X86651076Y-120365828D01*
X86651076Y-120365828D02*
X86746314Y-120461066D01*
X86746314Y-120461066D02*
X86793933Y-120556304D01*
X86508219Y-119651542D02*
X86508219Y-118984876D01*
X86508219Y-118984876D02*
X87508219Y-119413447D01*
X107942142Y-114176980D02*
X107894523Y-114224600D01*
X107894523Y-114224600D02*
X107751666Y-114272219D01*
X107751666Y-114272219D02*
X107656428Y-114272219D01*
X107656428Y-114272219D02*
X107513571Y-114224600D01*
X107513571Y-114224600D02*
X107418333Y-114129361D01*
X107418333Y-114129361D02*
X107370714Y-114034123D01*
X107370714Y-114034123D02*
X107323095Y-113843647D01*
X107323095Y-113843647D02*
X107323095Y-113700790D01*
X107323095Y-113700790D02*
X107370714Y-113510314D01*
X107370714Y-113510314D02*
X107418333Y-113415076D01*
X107418333Y-113415076D02*
X107513571Y-113319838D01*
X107513571Y-113319838D02*
X107656428Y-113272219D01*
X107656428Y-113272219D02*
X107751666Y-113272219D01*
X107751666Y-113272219D02*
X107894523Y-113319838D01*
X107894523Y-113319838D02*
X107942142Y-113367457D01*
X108894523Y-114272219D02*
X108323095Y-114272219D01*
X108608809Y-114272219D02*
X108608809Y-113272219D01*
X108608809Y-113272219D02*
X108513571Y-113415076D01*
X108513571Y-113415076D02*
X108418333Y-113510314D01*
X108418333Y-113510314D02*
X108323095Y-113557933D01*
X109751666Y-113272219D02*
X109561190Y-113272219D01*
X109561190Y-113272219D02*
X109465952Y-113319838D01*
X109465952Y-113319838D02*
X109418333Y-113367457D01*
X109418333Y-113367457D02*
X109323095Y-113510314D01*
X109323095Y-113510314D02*
X109275476Y-113700790D01*
X109275476Y-113700790D02*
X109275476Y-114081742D01*
X109275476Y-114081742D02*
X109323095Y-114176980D01*
X109323095Y-114176980D02*
X109370714Y-114224600D01*
X109370714Y-114224600D02*
X109465952Y-114272219D01*
X109465952Y-114272219D02*
X109656428Y-114272219D01*
X109656428Y-114272219D02*
X109751666Y-114224600D01*
X109751666Y-114224600D02*
X109799285Y-114176980D01*
X109799285Y-114176980D02*
X109846904Y-114081742D01*
X109846904Y-114081742D02*
X109846904Y-113843647D01*
X109846904Y-113843647D02*
X109799285Y-113748409D01*
X109799285Y-113748409D02*
X109751666Y-113700790D01*
X109751666Y-113700790D02*
X109656428Y-113653171D01*
X109656428Y-113653171D02*
X109465952Y-113653171D01*
X109465952Y-113653171D02*
X109370714Y-113700790D01*
X109370714Y-113700790D02*
X109323095Y-113748409D01*
X109323095Y-113748409D02*
X109275476Y-113843647D01*
D11*
X107907971Y-115924990D02*
X107884162Y-115948800D01*
X107884162Y-115948800D02*
X107812733Y-115972609D01*
X107812733Y-115972609D02*
X107765114Y-115972609D01*
X107765114Y-115972609D02*
X107693686Y-115948800D01*
X107693686Y-115948800D02*
X107646067Y-115901180D01*
X107646067Y-115901180D02*
X107622257Y-115853561D01*
X107622257Y-115853561D02*
X107598448Y-115758323D01*
X107598448Y-115758323D02*
X107598448Y-115686895D01*
X107598448Y-115686895D02*
X107622257Y-115591657D01*
X107622257Y-115591657D02*
X107646067Y-115544038D01*
X107646067Y-115544038D02*
X107693686Y-115496419D01*
X107693686Y-115496419D02*
X107765114Y-115472609D01*
X107765114Y-115472609D02*
X107812733Y-115472609D01*
X107812733Y-115472609D02*
X107884162Y-115496419D01*
X107884162Y-115496419D02*
X107907971Y-115520228D01*
X108074638Y-115472609D02*
X108384162Y-115472609D01*
X108384162Y-115472609D02*
X108217495Y-115663085D01*
X108217495Y-115663085D02*
X108288924Y-115663085D01*
X108288924Y-115663085D02*
X108336543Y-115686895D01*
X108336543Y-115686895D02*
X108360352Y-115710704D01*
X108360352Y-115710704D02*
X108384162Y-115758323D01*
X108384162Y-115758323D02*
X108384162Y-115877371D01*
X108384162Y-115877371D02*
X108360352Y-115924990D01*
X108360352Y-115924990D02*
X108336543Y-115948800D01*
X108336543Y-115948800D02*
X108288924Y-115972609D01*
X108288924Y-115972609D02*
X108146067Y-115972609D01*
X108146067Y-115972609D02*
X108098448Y-115948800D01*
X108098448Y-115948800D02*
X108074638Y-115924990D01*
X108669876Y-115686895D02*
X108622257Y-115663085D01*
X108622257Y-115663085D02*
X108598447Y-115639276D01*
X108598447Y-115639276D02*
X108574638Y-115591657D01*
X108574638Y-115591657D02*
X108574638Y-115567847D01*
X108574638Y-115567847D02*
X108598447Y-115520228D01*
X108598447Y-115520228D02*
X108622257Y-115496419D01*
X108622257Y-115496419D02*
X108669876Y-115472609D01*
X108669876Y-115472609D02*
X108765114Y-115472609D01*
X108765114Y-115472609D02*
X108812733Y-115496419D01*
X108812733Y-115496419D02*
X108836542Y-115520228D01*
X108836542Y-115520228D02*
X108860352Y-115567847D01*
X108860352Y-115567847D02*
X108860352Y-115591657D01*
X108860352Y-115591657D02*
X108836542Y-115639276D01*
X108836542Y-115639276D02*
X108812733Y-115663085D01*
X108812733Y-115663085D02*
X108765114Y-115686895D01*
X108765114Y-115686895D02*
X108669876Y-115686895D01*
X108669876Y-115686895D02*
X108622257Y-115710704D01*
X108622257Y-115710704D02*
X108598447Y-115734514D01*
X108598447Y-115734514D02*
X108574638Y-115782133D01*
X108574638Y-115782133D02*
X108574638Y-115877371D01*
X108574638Y-115877371D02*
X108598447Y-115924990D01*
X108598447Y-115924990D02*
X108622257Y-115948800D01*
X108622257Y-115948800D02*
X108669876Y-115972609D01*
X108669876Y-115972609D02*
X108765114Y-115972609D01*
X108765114Y-115972609D02*
X108812733Y-115948800D01*
X108812733Y-115948800D02*
X108836542Y-115924990D01*
X108836542Y-115924990D02*
X108860352Y-115877371D01*
X108860352Y-115877371D02*
X108860352Y-115782133D01*
X108860352Y-115782133D02*
X108836542Y-115734514D01*
X108836542Y-115734514D02*
X108812733Y-115710704D01*
X108812733Y-115710704D02*
X108765114Y-115686895D01*
D10*
X110958333Y-127562780D02*
X110910714Y-127610400D01*
X110910714Y-127610400D02*
X110767857Y-127658019D01*
X110767857Y-127658019D02*
X110672619Y-127658019D01*
X110672619Y-127658019D02*
X110529762Y-127610400D01*
X110529762Y-127610400D02*
X110434524Y-127515161D01*
X110434524Y-127515161D02*
X110386905Y-127419923D01*
X110386905Y-127419923D02*
X110339286Y-127229447D01*
X110339286Y-127229447D02*
X110339286Y-127086590D01*
X110339286Y-127086590D02*
X110386905Y-126896114D01*
X110386905Y-126896114D02*
X110434524Y-126800876D01*
X110434524Y-126800876D02*
X110529762Y-126705638D01*
X110529762Y-126705638D02*
X110672619Y-126658019D01*
X110672619Y-126658019D02*
X110767857Y-126658019D01*
X110767857Y-126658019D02*
X110910714Y-126705638D01*
X110910714Y-126705638D02*
X110958333Y-126753257D01*
X111815476Y-126991352D02*
X111815476Y-127658019D01*
X111577381Y-126610400D02*
X111339286Y-127324685D01*
X111339286Y-127324685D02*
X111958333Y-127324685D01*
X94505542Y-96777980D02*
X94457923Y-96825600D01*
X94457923Y-96825600D02*
X94315066Y-96873219D01*
X94315066Y-96873219D02*
X94219828Y-96873219D01*
X94219828Y-96873219D02*
X94076971Y-96825600D01*
X94076971Y-96825600D02*
X93981733Y-96730361D01*
X93981733Y-96730361D02*
X93934114Y-96635123D01*
X93934114Y-96635123D02*
X93886495Y-96444647D01*
X93886495Y-96444647D02*
X93886495Y-96301790D01*
X93886495Y-96301790D02*
X93934114Y-96111314D01*
X93934114Y-96111314D02*
X93981733Y-96016076D01*
X93981733Y-96016076D02*
X94076971Y-95920838D01*
X94076971Y-95920838D02*
X94219828Y-95873219D01*
X94219828Y-95873219D02*
X94315066Y-95873219D01*
X94315066Y-95873219D02*
X94457923Y-95920838D01*
X94457923Y-95920838D02*
X94505542Y-95968457D01*
X95457923Y-96873219D02*
X94886495Y-96873219D01*
X95172209Y-96873219D02*
X95172209Y-95873219D01*
X95172209Y-95873219D02*
X95076971Y-96016076D01*
X95076971Y-96016076D02*
X94981733Y-96111314D01*
X94981733Y-96111314D02*
X94886495Y-96158933D01*
X95791257Y-95873219D02*
X96410304Y-95873219D01*
X96410304Y-95873219D02*
X96076971Y-96254171D01*
X96076971Y-96254171D02*
X96219828Y-96254171D01*
X96219828Y-96254171D02*
X96315066Y-96301790D01*
X96315066Y-96301790D02*
X96362685Y-96349409D01*
X96362685Y-96349409D02*
X96410304Y-96444647D01*
X96410304Y-96444647D02*
X96410304Y-96682742D01*
X96410304Y-96682742D02*
X96362685Y-96777980D01*
X96362685Y-96777980D02*
X96315066Y-96825600D01*
X96315066Y-96825600D02*
X96219828Y-96873219D01*
X96219828Y-96873219D02*
X95934114Y-96873219D01*
X95934114Y-96873219D02*
X95838876Y-96825600D01*
X95838876Y-96825600D02*
X95791257Y-96777980D01*
X90732780Y-73937057D02*
X90780400Y-73984676D01*
X90780400Y-73984676D02*
X90828019Y-74127533D01*
X90828019Y-74127533D02*
X90828019Y-74222771D01*
X90828019Y-74222771D02*
X90780400Y-74365628D01*
X90780400Y-74365628D02*
X90685161Y-74460866D01*
X90685161Y-74460866D02*
X90589923Y-74508485D01*
X90589923Y-74508485D02*
X90399447Y-74556104D01*
X90399447Y-74556104D02*
X90256590Y-74556104D01*
X90256590Y-74556104D02*
X90066114Y-74508485D01*
X90066114Y-74508485D02*
X89970876Y-74460866D01*
X89970876Y-74460866D02*
X89875638Y-74365628D01*
X89875638Y-74365628D02*
X89828019Y-74222771D01*
X89828019Y-74222771D02*
X89828019Y-74127533D01*
X89828019Y-74127533D02*
X89875638Y-73984676D01*
X89875638Y-73984676D02*
X89923257Y-73937057D01*
X89923257Y-73556104D02*
X89875638Y-73508485D01*
X89875638Y-73508485D02*
X89828019Y-73413247D01*
X89828019Y-73413247D02*
X89828019Y-73175152D01*
X89828019Y-73175152D02*
X89875638Y-73079914D01*
X89875638Y-73079914D02*
X89923257Y-73032295D01*
X89923257Y-73032295D02*
X90018495Y-72984676D01*
X90018495Y-72984676D02*
X90113733Y-72984676D01*
X90113733Y-72984676D02*
X90256590Y-73032295D01*
X90256590Y-73032295D02*
X90828019Y-73603723D01*
X90828019Y-73603723D02*
X90828019Y-72984676D01*
X90828019Y-72032295D02*
X90828019Y-72603723D01*
X90828019Y-72318009D02*
X89828019Y-72318009D01*
X89828019Y-72318009D02*
X89970876Y-72413247D01*
X89970876Y-72413247D02*
X90066114Y-72508485D01*
X90066114Y-72508485D02*
X90113733Y-72603723D01*
D11*
X121881152Y-114931209D02*
X121881152Y-114431209D01*
X121881152Y-114431209D02*
X122000200Y-114431209D01*
X122000200Y-114431209D02*
X122071628Y-114455019D01*
X122071628Y-114455019D02*
X122119247Y-114502638D01*
X122119247Y-114502638D02*
X122143057Y-114550257D01*
X122143057Y-114550257D02*
X122166866Y-114645495D01*
X122166866Y-114645495D02*
X122166866Y-114716923D01*
X122166866Y-114716923D02*
X122143057Y-114812161D01*
X122143057Y-114812161D02*
X122119247Y-114859780D01*
X122119247Y-114859780D02*
X122071628Y-114907400D01*
X122071628Y-114907400D02*
X122000200Y-114931209D01*
X122000200Y-114931209D02*
X121881152Y-114931209D01*
X122333533Y-114431209D02*
X122643057Y-114431209D01*
X122643057Y-114431209D02*
X122476390Y-114621685D01*
X122476390Y-114621685D02*
X122547819Y-114621685D01*
X122547819Y-114621685D02*
X122595438Y-114645495D01*
X122595438Y-114645495D02*
X122619247Y-114669304D01*
X122619247Y-114669304D02*
X122643057Y-114716923D01*
X122643057Y-114716923D02*
X122643057Y-114835971D01*
X122643057Y-114835971D02*
X122619247Y-114883590D01*
X122619247Y-114883590D02*
X122595438Y-114907400D01*
X122595438Y-114907400D02*
X122547819Y-114931209D01*
X122547819Y-114931209D02*
X122404962Y-114931209D01*
X122404962Y-114931209D02*
X122357343Y-114907400D01*
X122357343Y-114907400D02*
X122333533Y-114883590D01*
D10*
X115849480Y-79059066D02*
X115897100Y-79106685D01*
X115897100Y-79106685D02*
X115944719Y-79249542D01*
X115944719Y-79249542D02*
X115944719Y-79344780D01*
X115944719Y-79344780D02*
X115897100Y-79487637D01*
X115897100Y-79487637D02*
X115801861Y-79582875D01*
X115801861Y-79582875D02*
X115706623Y-79630494D01*
X115706623Y-79630494D02*
X115516147Y-79678113D01*
X115516147Y-79678113D02*
X115373290Y-79678113D01*
X115373290Y-79678113D02*
X115182814Y-79630494D01*
X115182814Y-79630494D02*
X115087576Y-79582875D01*
X115087576Y-79582875D02*
X114992338Y-79487637D01*
X114992338Y-79487637D02*
X114944719Y-79344780D01*
X114944719Y-79344780D02*
X114944719Y-79249542D01*
X114944719Y-79249542D02*
X114992338Y-79106685D01*
X114992338Y-79106685D02*
X115039957Y-79059066D01*
X115944719Y-78106685D02*
X115944719Y-78678113D01*
X115944719Y-78392399D02*
X114944719Y-78392399D01*
X114944719Y-78392399D02*
X115087576Y-78487637D01*
X115087576Y-78487637D02*
X115182814Y-78582875D01*
X115182814Y-78582875D02*
X115230433Y-78678113D01*
X90471666Y-70295419D02*
X90471666Y-71009704D01*
X90471666Y-71009704D02*
X90424047Y-71152561D01*
X90424047Y-71152561D02*
X90328809Y-71247800D01*
X90328809Y-71247800D02*
X90185952Y-71295419D01*
X90185952Y-71295419D02*
X90090714Y-71295419D01*
X91376428Y-70628752D02*
X91376428Y-71295419D01*
X91138333Y-70247800D02*
X90900238Y-70962085D01*
X90900238Y-70962085D02*
X91519285Y-70962085D01*
D11*
X109711371Y-115696390D02*
X109687562Y-115720200D01*
X109687562Y-115720200D02*
X109616133Y-115744009D01*
X109616133Y-115744009D02*
X109568514Y-115744009D01*
X109568514Y-115744009D02*
X109497086Y-115720200D01*
X109497086Y-115720200D02*
X109449467Y-115672580D01*
X109449467Y-115672580D02*
X109425657Y-115624961D01*
X109425657Y-115624961D02*
X109401848Y-115529723D01*
X109401848Y-115529723D02*
X109401848Y-115458295D01*
X109401848Y-115458295D02*
X109425657Y-115363057D01*
X109425657Y-115363057D02*
X109449467Y-115315438D01*
X109449467Y-115315438D02*
X109497086Y-115267819D01*
X109497086Y-115267819D02*
X109568514Y-115244009D01*
X109568514Y-115244009D02*
X109616133Y-115244009D01*
X109616133Y-115244009D02*
X109687562Y-115267819D01*
X109687562Y-115267819D02*
X109711371Y-115291628D01*
X110187562Y-115744009D02*
X109901848Y-115744009D01*
X110044705Y-115744009D02*
X110044705Y-115244009D01*
X110044705Y-115244009D02*
X109997086Y-115315438D01*
X109997086Y-115315438D02*
X109949467Y-115363057D01*
X109949467Y-115363057D02*
X109901848Y-115386866D01*
X110497085Y-115244009D02*
X110544704Y-115244009D01*
X110544704Y-115244009D02*
X110592323Y-115267819D01*
X110592323Y-115267819D02*
X110616133Y-115291628D01*
X110616133Y-115291628D02*
X110639942Y-115339247D01*
X110639942Y-115339247D02*
X110663752Y-115434485D01*
X110663752Y-115434485D02*
X110663752Y-115553533D01*
X110663752Y-115553533D02*
X110639942Y-115648771D01*
X110639942Y-115648771D02*
X110616133Y-115696390D01*
X110616133Y-115696390D02*
X110592323Y-115720200D01*
X110592323Y-115720200D02*
X110544704Y-115744009D01*
X110544704Y-115744009D02*
X110497085Y-115744009D01*
X110497085Y-115744009D02*
X110449466Y-115720200D01*
X110449466Y-115720200D02*
X110425657Y-115696390D01*
X110425657Y-115696390D02*
X110401847Y-115648771D01*
X110401847Y-115648771D02*
X110378038Y-115553533D01*
X110378038Y-115553533D02*
X110378038Y-115434485D01*
X110378038Y-115434485D02*
X110401847Y-115339247D01*
X110401847Y-115339247D02*
X110425657Y-115291628D01*
X110425657Y-115291628D02*
X110449466Y-115267819D01*
X110449466Y-115267819D02*
X110497085Y-115244009D01*
X105494971Y-94563590D02*
X105471162Y-94587400D01*
X105471162Y-94587400D02*
X105399733Y-94611209D01*
X105399733Y-94611209D02*
X105352114Y-94611209D01*
X105352114Y-94611209D02*
X105280686Y-94587400D01*
X105280686Y-94587400D02*
X105233067Y-94539780D01*
X105233067Y-94539780D02*
X105209257Y-94492161D01*
X105209257Y-94492161D02*
X105185448Y-94396923D01*
X105185448Y-94396923D02*
X105185448Y-94325495D01*
X105185448Y-94325495D02*
X105209257Y-94230257D01*
X105209257Y-94230257D02*
X105233067Y-94182638D01*
X105233067Y-94182638D02*
X105280686Y-94135019D01*
X105280686Y-94135019D02*
X105352114Y-94111209D01*
X105352114Y-94111209D02*
X105399733Y-94111209D01*
X105399733Y-94111209D02*
X105471162Y-94135019D01*
X105471162Y-94135019D02*
X105494971Y-94158828D01*
X105661638Y-94111209D02*
X105971162Y-94111209D01*
X105971162Y-94111209D02*
X105804495Y-94301685D01*
X105804495Y-94301685D02*
X105875924Y-94301685D01*
X105875924Y-94301685D02*
X105923543Y-94325495D01*
X105923543Y-94325495D02*
X105947352Y-94349304D01*
X105947352Y-94349304D02*
X105971162Y-94396923D01*
X105971162Y-94396923D02*
X105971162Y-94515971D01*
X105971162Y-94515971D02*
X105947352Y-94563590D01*
X105947352Y-94563590D02*
X105923543Y-94587400D01*
X105923543Y-94587400D02*
X105875924Y-94611209D01*
X105875924Y-94611209D02*
X105733067Y-94611209D01*
X105733067Y-94611209D02*
X105685448Y-94587400D01*
X105685448Y-94587400D02*
X105661638Y-94563590D01*
X106161638Y-94158828D02*
X106185447Y-94135019D01*
X106185447Y-94135019D02*
X106233066Y-94111209D01*
X106233066Y-94111209D02*
X106352114Y-94111209D01*
X106352114Y-94111209D02*
X106399733Y-94135019D01*
X106399733Y-94135019D02*
X106423542Y-94158828D01*
X106423542Y-94158828D02*
X106447352Y-94206447D01*
X106447352Y-94206447D02*
X106447352Y-94254066D01*
X106447352Y-94254066D02*
X106423542Y-94325495D01*
X106423542Y-94325495D02*
X106137828Y-94611209D01*
X106137828Y-94611209D02*
X106447352Y-94611209D01*
D10*
X110105866Y-128639219D02*
X110105866Y-129353504D01*
X110105866Y-129353504D02*
X110058247Y-129496361D01*
X110058247Y-129496361D02*
X109963009Y-129591600D01*
X109963009Y-129591600D02*
X109820152Y-129639219D01*
X109820152Y-129639219D02*
X109724914Y-129639219D01*
X110486819Y-128639219D02*
X111105866Y-128639219D01*
X111105866Y-128639219D02*
X110772533Y-129020171D01*
X110772533Y-129020171D02*
X110915390Y-129020171D01*
X110915390Y-129020171D02*
X111010628Y-129067790D01*
X111010628Y-129067790D02*
X111058247Y-129115409D01*
X111058247Y-129115409D02*
X111105866Y-129210647D01*
X111105866Y-129210647D02*
X111105866Y-129448742D01*
X111105866Y-129448742D02*
X111058247Y-129543980D01*
X111058247Y-129543980D02*
X111010628Y-129591600D01*
X111010628Y-129591600D02*
X110915390Y-129639219D01*
X110915390Y-129639219D02*
X110629676Y-129639219D01*
X110629676Y-129639219D02*
X110534438Y-129591600D01*
X110534438Y-129591600D02*
X110486819Y-129543980D01*
X115036695Y-96838419D02*
X115036695Y-97647942D01*
X115036695Y-97647942D02*
X115084314Y-97743180D01*
X115084314Y-97743180D02*
X115131933Y-97790800D01*
X115131933Y-97790800D02*
X115227171Y-97838419D01*
X115227171Y-97838419D02*
X115417647Y-97838419D01*
X115417647Y-97838419D02*
X115512885Y-97790800D01*
X115512885Y-97790800D02*
X115560504Y-97743180D01*
X115560504Y-97743180D02*
X115608123Y-97647942D01*
X115608123Y-97647942D02*
X115608123Y-96838419D01*
X115989076Y-96838419D02*
X116608123Y-96838419D01*
X116608123Y-96838419D02*
X116274790Y-97219371D01*
X116274790Y-97219371D02*
X116417647Y-97219371D01*
X116417647Y-97219371D02*
X116512885Y-97266990D01*
X116512885Y-97266990D02*
X116560504Y-97314609D01*
X116560504Y-97314609D02*
X116608123Y-97409847D01*
X116608123Y-97409847D02*
X116608123Y-97647942D01*
X116608123Y-97647942D02*
X116560504Y-97743180D01*
X116560504Y-97743180D02*
X116512885Y-97790800D01*
X116512885Y-97790800D02*
X116417647Y-97838419D01*
X116417647Y-97838419D02*
X116131933Y-97838419D01*
X116131933Y-97838419D02*
X116036695Y-97790800D01*
X116036695Y-97790800D02*
X115989076Y-97743180D01*
X70361319Y-107282533D02*
X71075604Y-107282533D01*
X71075604Y-107282533D02*
X71218461Y-107330152D01*
X71218461Y-107330152D02*
X71313700Y-107425390D01*
X71313700Y-107425390D02*
X71361319Y-107568247D01*
X71361319Y-107568247D02*
X71361319Y-107663485D01*
X71361319Y-106282533D02*
X71361319Y-106853961D01*
X71361319Y-106568247D02*
X70361319Y-106568247D01*
X70361319Y-106568247D02*
X70504176Y-106663485D01*
X70504176Y-106663485D02*
X70599414Y-106758723D01*
X70599414Y-106758723D02*
X70647033Y-106853961D01*
X115675580Y-105543757D02*
X115723200Y-105591376D01*
X115723200Y-105591376D02*
X115770819Y-105734233D01*
X115770819Y-105734233D02*
X115770819Y-105829471D01*
X115770819Y-105829471D02*
X115723200Y-105972328D01*
X115723200Y-105972328D02*
X115627961Y-106067566D01*
X115627961Y-106067566D02*
X115532723Y-106115185D01*
X115532723Y-106115185D02*
X115342247Y-106162804D01*
X115342247Y-106162804D02*
X115199390Y-106162804D01*
X115199390Y-106162804D02*
X115008914Y-106115185D01*
X115008914Y-106115185D02*
X114913676Y-106067566D01*
X114913676Y-106067566D02*
X114818438Y-105972328D01*
X114818438Y-105972328D02*
X114770819Y-105829471D01*
X114770819Y-105829471D02*
X114770819Y-105734233D01*
X114770819Y-105734233D02*
X114818438Y-105591376D01*
X114818438Y-105591376D02*
X114866057Y-105543757D01*
X115770819Y-104591376D02*
X115770819Y-105162804D01*
X115770819Y-104877090D02*
X114770819Y-104877090D01*
X114770819Y-104877090D02*
X114913676Y-104972328D01*
X114913676Y-104972328D02*
X115008914Y-105067566D01*
X115008914Y-105067566D02*
X115056533Y-105162804D01*
X115770819Y-103638995D02*
X115770819Y-104210423D01*
X115770819Y-103924709D02*
X114770819Y-103924709D01*
X114770819Y-103924709D02*
X114913676Y-104019947D01*
X114913676Y-104019947D02*
X115008914Y-104115185D01*
X115008914Y-104115185D02*
X115056533Y-104210423D01*
X88805133Y-109456419D02*
X88471800Y-108980228D01*
X88233705Y-109456419D02*
X88233705Y-108456419D01*
X88233705Y-108456419D02*
X88614657Y-108456419D01*
X88614657Y-108456419D02*
X88709895Y-108504038D01*
X88709895Y-108504038D02*
X88757514Y-108551657D01*
X88757514Y-108551657D02*
X88805133Y-108646895D01*
X88805133Y-108646895D02*
X88805133Y-108789752D01*
X88805133Y-108789752D02*
X88757514Y-108884990D01*
X88757514Y-108884990D02*
X88709895Y-108932609D01*
X88709895Y-108932609D02*
X88614657Y-108980228D01*
X88614657Y-108980228D02*
X88233705Y-108980228D01*
X89281324Y-109456419D02*
X89471800Y-109456419D01*
X89471800Y-109456419D02*
X89567038Y-109408800D01*
X89567038Y-109408800D02*
X89614657Y-109361180D01*
X89614657Y-109361180D02*
X89709895Y-109218323D01*
X89709895Y-109218323D02*
X89757514Y-109027847D01*
X89757514Y-109027847D02*
X89757514Y-108646895D01*
X89757514Y-108646895D02*
X89709895Y-108551657D01*
X89709895Y-108551657D02*
X89662276Y-108504038D01*
X89662276Y-108504038D02*
X89567038Y-108456419D01*
X89567038Y-108456419D02*
X89376562Y-108456419D01*
X89376562Y-108456419D02*
X89281324Y-108504038D01*
X89281324Y-108504038D02*
X89233705Y-108551657D01*
X89233705Y-108551657D02*
X89186086Y-108646895D01*
X89186086Y-108646895D02*
X89186086Y-108884990D01*
X89186086Y-108884990D02*
X89233705Y-108980228D01*
X89233705Y-108980228D02*
X89281324Y-109027847D01*
X89281324Y-109027847D02*
X89376562Y-109075466D01*
X89376562Y-109075466D02*
X89567038Y-109075466D01*
X89567038Y-109075466D02*
X89662276Y-109027847D01*
X89662276Y-109027847D02*
X89709895Y-108980228D01*
X89709895Y-108980228D02*
X89757514Y-108884990D01*
X120409619Y-109296104D02*
X121219142Y-109296104D01*
X121219142Y-109296104D02*
X121314380Y-109248485D01*
X121314380Y-109248485D02*
X121362000Y-109200866D01*
X121362000Y-109200866D02*
X121409619Y-109105628D01*
X121409619Y-109105628D02*
X121409619Y-108915152D01*
X121409619Y-108915152D02*
X121362000Y-108819914D01*
X121362000Y-108819914D02*
X121314380Y-108772295D01*
X121314380Y-108772295D02*
X121219142Y-108724676D01*
X121219142Y-108724676D02*
X120409619Y-108724676D01*
X120504857Y-108296104D02*
X120457238Y-108248485D01*
X120457238Y-108248485D02*
X120409619Y-108153247D01*
X120409619Y-108153247D02*
X120409619Y-107915152D01*
X120409619Y-107915152D02*
X120457238Y-107819914D01*
X120457238Y-107819914D02*
X120504857Y-107772295D01*
X120504857Y-107772295D02*
X120600095Y-107724676D01*
X120600095Y-107724676D02*
X120695333Y-107724676D01*
X120695333Y-107724676D02*
X120838190Y-107772295D01*
X120838190Y-107772295D02*
X121409619Y-108343723D01*
X121409619Y-108343723D02*
X121409619Y-107724676D01*
X89501742Y-103172419D02*
X89168409Y-102696228D01*
X88930314Y-103172419D02*
X88930314Y-102172419D01*
X88930314Y-102172419D02*
X89311266Y-102172419D01*
X89311266Y-102172419D02*
X89406504Y-102220038D01*
X89406504Y-102220038D02*
X89454123Y-102267657D01*
X89454123Y-102267657D02*
X89501742Y-102362895D01*
X89501742Y-102362895D02*
X89501742Y-102505752D01*
X89501742Y-102505752D02*
X89454123Y-102600990D01*
X89454123Y-102600990D02*
X89406504Y-102648609D01*
X89406504Y-102648609D02*
X89311266Y-102696228D01*
X89311266Y-102696228D02*
X88930314Y-102696228D01*
X90454123Y-103172419D02*
X89882695Y-103172419D01*
X90168409Y-103172419D02*
X90168409Y-102172419D01*
X90168409Y-102172419D02*
X90073171Y-102315276D01*
X90073171Y-102315276D02*
X89977933Y-102410514D01*
X89977933Y-102410514D02*
X89882695Y-102458133D01*
X91406504Y-103172419D02*
X90835076Y-103172419D01*
X91120790Y-103172419D02*
X91120790Y-102172419D01*
X91120790Y-102172419D02*
X91025552Y-102315276D01*
X91025552Y-102315276D02*
X90930314Y-102410514D01*
X90930314Y-102410514D02*
X90835076Y-102458133D01*
D12*
X78420870Y-89617552D02*
X78360394Y-89738504D01*
X78360394Y-89738504D02*
X78239442Y-89859457D01*
X78239442Y-89859457D02*
X78058013Y-90040885D01*
X78058013Y-90040885D02*
X77997537Y-90161838D01*
X77997537Y-90161838D02*
X77997537Y-90282790D01*
X78299918Y-90222314D02*
X78239442Y-90343266D01*
X78239442Y-90343266D02*
X78118489Y-90464219D01*
X78118489Y-90464219D02*
X77876584Y-90524695D01*
X77876584Y-90524695D02*
X77453251Y-90524695D01*
X77453251Y-90524695D02*
X77211346Y-90464219D01*
X77211346Y-90464219D02*
X77090394Y-90343266D01*
X77090394Y-90343266D02*
X77029918Y-90222314D01*
X77029918Y-90222314D02*
X77029918Y-89980409D01*
X77029918Y-89980409D02*
X77090394Y-89859457D01*
X77090394Y-89859457D02*
X77211346Y-89738504D01*
X77211346Y-89738504D02*
X77453251Y-89678028D01*
X77453251Y-89678028D02*
X77876584Y-89678028D01*
X77876584Y-89678028D02*
X78118489Y-89738504D01*
X78118489Y-89738504D02*
X78239442Y-89859457D01*
X78239442Y-89859457D02*
X78299918Y-89980409D01*
X78299918Y-89980409D02*
X78299918Y-90222314D01*
X77029918Y-89254695D02*
X77029918Y-88468504D01*
X77029918Y-88468504D02*
X77513727Y-88891838D01*
X77513727Y-88891838D02*
X77513727Y-88710409D01*
X77513727Y-88710409D02*
X77574203Y-88589457D01*
X77574203Y-88589457D02*
X77634680Y-88528981D01*
X77634680Y-88528981D02*
X77755632Y-88468504D01*
X77755632Y-88468504D02*
X78058013Y-88468504D01*
X78058013Y-88468504D02*
X78178965Y-88528981D01*
X78178965Y-88528981D02*
X78239442Y-88589457D01*
X78239442Y-88589457D02*
X78299918Y-88710409D01*
X78299918Y-88710409D02*
X78299918Y-89073266D01*
X78299918Y-89073266D02*
X78239442Y-89194219D01*
X78239442Y-89194219D02*
X78178965Y-89254695D01*
D11*
X102183590Y-90135828D02*
X102207400Y-90159637D01*
X102207400Y-90159637D02*
X102231209Y-90231066D01*
X102231209Y-90231066D02*
X102231209Y-90278685D01*
X102231209Y-90278685D02*
X102207400Y-90350113D01*
X102207400Y-90350113D02*
X102159780Y-90397732D01*
X102159780Y-90397732D02*
X102112161Y-90421542D01*
X102112161Y-90421542D02*
X102016923Y-90445351D01*
X102016923Y-90445351D02*
X101945495Y-90445351D01*
X101945495Y-90445351D02*
X101850257Y-90421542D01*
X101850257Y-90421542D02*
X101802638Y-90397732D01*
X101802638Y-90397732D02*
X101755019Y-90350113D01*
X101755019Y-90350113D02*
X101731209Y-90278685D01*
X101731209Y-90278685D02*
X101731209Y-90231066D01*
X101731209Y-90231066D02*
X101755019Y-90159637D01*
X101755019Y-90159637D02*
X101778828Y-90135828D01*
X101731209Y-89969161D02*
X101731209Y-89659637D01*
X101731209Y-89659637D02*
X101921685Y-89826304D01*
X101921685Y-89826304D02*
X101921685Y-89754875D01*
X101921685Y-89754875D02*
X101945495Y-89707256D01*
X101945495Y-89707256D02*
X101969304Y-89683447D01*
X101969304Y-89683447D02*
X102016923Y-89659637D01*
X102016923Y-89659637D02*
X102135971Y-89659637D01*
X102135971Y-89659637D02*
X102183590Y-89683447D01*
X102183590Y-89683447D02*
X102207400Y-89707256D01*
X102207400Y-89707256D02*
X102231209Y-89754875D01*
X102231209Y-89754875D02*
X102231209Y-89897732D01*
X102231209Y-89897732D02*
X102207400Y-89945351D01*
X102207400Y-89945351D02*
X102183590Y-89969161D01*
X101731209Y-89350114D02*
X101731209Y-89302495D01*
X101731209Y-89302495D02*
X101755019Y-89254876D01*
X101755019Y-89254876D02*
X101778828Y-89231066D01*
X101778828Y-89231066D02*
X101826447Y-89207257D01*
X101826447Y-89207257D02*
X101921685Y-89183447D01*
X101921685Y-89183447D02*
X102040733Y-89183447D01*
X102040733Y-89183447D02*
X102135971Y-89207257D01*
X102135971Y-89207257D02*
X102183590Y-89231066D01*
X102183590Y-89231066D02*
X102207400Y-89254876D01*
X102207400Y-89254876D02*
X102231209Y-89302495D01*
X102231209Y-89302495D02*
X102231209Y-89350114D01*
X102231209Y-89350114D02*
X102207400Y-89397733D01*
X102207400Y-89397733D02*
X102183590Y-89421542D01*
X102183590Y-89421542D02*
X102135971Y-89445352D01*
X102135971Y-89445352D02*
X102040733Y-89469161D01*
X102040733Y-89469161D02*
X101921685Y-89469161D01*
X101921685Y-89469161D02*
X101826447Y-89445352D01*
X101826447Y-89445352D02*
X101778828Y-89421542D01*
X101778828Y-89421542D02*
X101755019Y-89397733D01*
X101755019Y-89397733D02*
X101731209Y-89350114D01*
D10*
X88155542Y-89608819D02*
X87822209Y-89132628D01*
X87584114Y-89608819D02*
X87584114Y-88608819D01*
X87584114Y-88608819D02*
X87965066Y-88608819D01*
X87965066Y-88608819D02*
X88060304Y-88656438D01*
X88060304Y-88656438D02*
X88107923Y-88704057D01*
X88107923Y-88704057D02*
X88155542Y-88799295D01*
X88155542Y-88799295D02*
X88155542Y-88942152D01*
X88155542Y-88942152D02*
X88107923Y-89037390D01*
X88107923Y-89037390D02*
X88060304Y-89085009D01*
X88060304Y-89085009D02*
X87965066Y-89132628D01*
X87965066Y-89132628D02*
X87584114Y-89132628D01*
X89107923Y-89608819D02*
X88536495Y-89608819D01*
X88822209Y-89608819D02*
X88822209Y-88608819D01*
X88822209Y-88608819D02*
X88726971Y-88751676D01*
X88726971Y-88751676D02*
X88631733Y-88846914D01*
X88631733Y-88846914D02*
X88536495Y-88894533D01*
X89584114Y-89608819D02*
X89774590Y-89608819D01*
X89774590Y-89608819D02*
X89869828Y-89561200D01*
X89869828Y-89561200D02*
X89917447Y-89513580D01*
X89917447Y-89513580D02*
X90012685Y-89370723D01*
X90012685Y-89370723D02*
X90060304Y-89180247D01*
X90060304Y-89180247D02*
X90060304Y-88799295D01*
X90060304Y-88799295D02*
X90012685Y-88704057D01*
X90012685Y-88704057D02*
X89965066Y-88656438D01*
X89965066Y-88656438D02*
X89869828Y-88608819D01*
X89869828Y-88608819D02*
X89679352Y-88608819D01*
X89679352Y-88608819D02*
X89584114Y-88656438D01*
X89584114Y-88656438D02*
X89536495Y-88704057D01*
X89536495Y-88704057D02*
X89488876Y-88799295D01*
X89488876Y-88799295D02*
X89488876Y-89037390D01*
X89488876Y-89037390D02*
X89536495Y-89132628D01*
X89536495Y-89132628D02*
X89584114Y-89180247D01*
X89584114Y-89180247D02*
X89679352Y-89227866D01*
X89679352Y-89227866D02*
X89869828Y-89227866D01*
X89869828Y-89227866D02*
X89965066Y-89180247D01*
X89965066Y-89180247D02*
X90012685Y-89132628D01*
X90012685Y-89132628D02*
X90060304Y-89037390D01*
D12*
X78471670Y-99498152D02*
X78411194Y-99619104D01*
X78411194Y-99619104D02*
X78290242Y-99740057D01*
X78290242Y-99740057D02*
X78108813Y-99921485D01*
X78108813Y-99921485D02*
X78048337Y-100042438D01*
X78048337Y-100042438D02*
X78048337Y-100163390D01*
X78350718Y-100102914D02*
X78290242Y-100223866D01*
X78290242Y-100223866D02*
X78169289Y-100344819D01*
X78169289Y-100344819D02*
X77927384Y-100405295D01*
X77927384Y-100405295D02*
X77504051Y-100405295D01*
X77504051Y-100405295D02*
X77262146Y-100344819D01*
X77262146Y-100344819D02*
X77141194Y-100223866D01*
X77141194Y-100223866D02*
X77080718Y-100102914D01*
X77080718Y-100102914D02*
X77080718Y-99861009D01*
X77080718Y-99861009D02*
X77141194Y-99740057D01*
X77141194Y-99740057D02*
X77262146Y-99619104D01*
X77262146Y-99619104D02*
X77504051Y-99558628D01*
X77504051Y-99558628D02*
X77927384Y-99558628D01*
X77927384Y-99558628D02*
X78169289Y-99619104D01*
X78169289Y-99619104D02*
X78290242Y-99740057D01*
X78290242Y-99740057D02*
X78350718Y-99861009D01*
X78350718Y-99861009D02*
X78350718Y-100102914D01*
X77201670Y-99074819D02*
X77141194Y-99014343D01*
X77141194Y-99014343D02*
X77080718Y-98893390D01*
X77080718Y-98893390D02*
X77080718Y-98591009D01*
X77080718Y-98591009D02*
X77141194Y-98470057D01*
X77141194Y-98470057D02*
X77201670Y-98409581D01*
X77201670Y-98409581D02*
X77322622Y-98349104D01*
X77322622Y-98349104D02*
X77443575Y-98349104D01*
X77443575Y-98349104D02*
X77625003Y-98409581D01*
X77625003Y-98409581D02*
X78350718Y-99135295D01*
X78350718Y-99135295D02*
X78350718Y-98349104D01*
D10*
X115462119Y-80989466D02*
X114985928Y-81322799D01*
X115462119Y-81560894D02*
X114462119Y-81560894D01*
X114462119Y-81560894D02*
X114462119Y-81179942D01*
X114462119Y-81179942D02*
X114509738Y-81084704D01*
X114509738Y-81084704D02*
X114557357Y-81037085D01*
X114557357Y-81037085D02*
X114652595Y-80989466D01*
X114652595Y-80989466D02*
X114795452Y-80989466D01*
X114795452Y-80989466D02*
X114890690Y-81037085D01*
X114890690Y-81037085D02*
X114938309Y-81084704D01*
X114938309Y-81084704D02*
X114985928Y-81179942D01*
X114985928Y-81179942D02*
X114985928Y-81560894D01*
X115462119Y-80037085D02*
X115462119Y-80608513D01*
X115462119Y-80322799D02*
X114462119Y-80322799D01*
X114462119Y-80322799D02*
X114604976Y-80418037D01*
X114604976Y-80418037D02*
X114700214Y-80513275D01*
X114700214Y-80513275D02*
X114747833Y-80608513D01*
X114958019Y-91862566D02*
X114481828Y-92195899D01*
X114958019Y-92433994D02*
X113958019Y-92433994D01*
X113958019Y-92433994D02*
X113958019Y-92053042D01*
X113958019Y-92053042D02*
X114005638Y-91957804D01*
X114005638Y-91957804D02*
X114053257Y-91910185D01*
X114053257Y-91910185D02*
X114148495Y-91862566D01*
X114148495Y-91862566D02*
X114291352Y-91862566D01*
X114291352Y-91862566D02*
X114386590Y-91910185D01*
X114386590Y-91910185D02*
X114434209Y-91957804D01*
X114434209Y-91957804D02*
X114481828Y-92053042D01*
X114481828Y-92053042D02*
X114481828Y-92433994D01*
X113958019Y-90957804D02*
X113958019Y-91433994D01*
X113958019Y-91433994D02*
X114434209Y-91481613D01*
X114434209Y-91481613D02*
X114386590Y-91433994D01*
X114386590Y-91433994D02*
X114338971Y-91338756D01*
X114338971Y-91338756D02*
X114338971Y-91100661D01*
X114338971Y-91100661D02*
X114386590Y-91005423D01*
X114386590Y-91005423D02*
X114434209Y-90957804D01*
X114434209Y-90957804D02*
X114529447Y-90910185D01*
X114529447Y-90910185D02*
X114767542Y-90910185D01*
X114767542Y-90910185D02*
X114862780Y-90957804D01*
X114862780Y-90957804D02*
X114910400Y-91005423D01*
X114910400Y-91005423D02*
X114958019Y-91100661D01*
X114958019Y-91100661D02*
X114958019Y-91338756D01*
X114958019Y-91338756D02*
X114910400Y-91433994D01*
X114910400Y-91433994D02*
X114862780Y-91481613D01*
X116673333Y-120450780D02*
X116625714Y-120498400D01*
X116625714Y-120498400D02*
X116482857Y-120546019D01*
X116482857Y-120546019D02*
X116387619Y-120546019D01*
X116387619Y-120546019D02*
X116244762Y-120498400D01*
X116244762Y-120498400D02*
X116149524Y-120403161D01*
X116149524Y-120403161D02*
X116101905Y-120307923D01*
X116101905Y-120307923D02*
X116054286Y-120117447D01*
X116054286Y-120117447D02*
X116054286Y-119974590D01*
X116054286Y-119974590D02*
X116101905Y-119784114D01*
X116101905Y-119784114D02*
X116149524Y-119688876D01*
X116149524Y-119688876D02*
X116244762Y-119593638D01*
X116244762Y-119593638D02*
X116387619Y-119546019D01*
X116387619Y-119546019D02*
X116482857Y-119546019D01*
X116482857Y-119546019D02*
X116625714Y-119593638D01*
X116625714Y-119593638D02*
X116673333Y-119641257D01*
X117006667Y-119546019D02*
X117673333Y-119546019D01*
X117673333Y-119546019D02*
X117244762Y-120546019D01*
X119833204Y-81297983D02*
X119833204Y-80488460D01*
X119833204Y-80488460D02*
X119785585Y-80393222D01*
X119785585Y-80393222D02*
X119737966Y-80345603D01*
X119737966Y-80345603D02*
X119642728Y-80297983D01*
X119642728Y-80297983D02*
X119452252Y-80297983D01*
X119452252Y-80297983D02*
X119357014Y-80345603D01*
X119357014Y-80345603D02*
X119309395Y-80393222D01*
X119309395Y-80393222D02*
X119261776Y-80488460D01*
X119261776Y-80488460D02*
X119261776Y-81297983D01*
X118261776Y-80297983D02*
X118833204Y-80297983D01*
X118547490Y-80297983D02*
X118547490Y-81297983D01*
X118547490Y-81297983D02*
X118642728Y-81155126D01*
X118642728Y-81155126D02*
X118737966Y-81059888D01*
X118737966Y-81059888D02*
X118833204Y-81012269D01*
X128613819Y-107648333D02*
X129328104Y-107648333D01*
X129328104Y-107648333D02*
X129470961Y-107695952D01*
X129470961Y-107695952D02*
X129566200Y-107791190D01*
X129566200Y-107791190D02*
X129613819Y-107934047D01*
X129613819Y-107934047D02*
X129613819Y-108029285D01*
X128709057Y-107219761D02*
X128661438Y-107172142D01*
X128661438Y-107172142D02*
X128613819Y-107076904D01*
X128613819Y-107076904D02*
X128613819Y-106838809D01*
X128613819Y-106838809D02*
X128661438Y-106743571D01*
X128661438Y-106743571D02*
X128709057Y-106695952D01*
X128709057Y-106695952D02*
X128804295Y-106648333D01*
X128804295Y-106648333D02*
X128899533Y-106648333D01*
X128899533Y-106648333D02*
X129042390Y-106695952D01*
X129042390Y-106695952D02*
X129613819Y-107267380D01*
X129613819Y-107267380D02*
X129613819Y-106648333D01*
X117859980Y-92013066D02*
X117907600Y-92060685D01*
X117907600Y-92060685D02*
X117955219Y-92203542D01*
X117955219Y-92203542D02*
X117955219Y-92298780D01*
X117955219Y-92298780D02*
X117907600Y-92441637D01*
X117907600Y-92441637D02*
X117812361Y-92536875D01*
X117812361Y-92536875D02*
X117717123Y-92584494D01*
X117717123Y-92584494D02*
X117526647Y-92632113D01*
X117526647Y-92632113D02*
X117383790Y-92632113D01*
X117383790Y-92632113D02*
X117193314Y-92584494D01*
X117193314Y-92584494D02*
X117098076Y-92536875D01*
X117098076Y-92536875D02*
X117002838Y-92441637D01*
X117002838Y-92441637D02*
X116955219Y-92298780D01*
X116955219Y-92298780D02*
X116955219Y-92203542D01*
X116955219Y-92203542D02*
X117002838Y-92060685D01*
X117002838Y-92060685D02*
X117050457Y-92013066D01*
X117955219Y-91536875D02*
X117955219Y-91346399D01*
X117955219Y-91346399D02*
X117907600Y-91251161D01*
X117907600Y-91251161D02*
X117859980Y-91203542D01*
X117859980Y-91203542D02*
X117717123Y-91108304D01*
X117717123Y-91108304D02*
X117526647Y-91060685D01*
X117526647Y-91060685D02*
X117145695Y-91060685D01*
X117145695Y-91060685D02*
X117050457Y-91108304D01*
X117050457Y-91108304D02*
X117002838Y-91155923D01*
X117002838Y-91155923D02*
X116955219Y-91251161D01*
X116955219Y-91251161D02*
X116955219Y-91441637D01*
X116955219Y-91441637D02*
X117002838Y-91536875D01*
X117002838Y-91536875D02*
X117050457Y-91584494D01*
X117050457Y-91584494D02*
X117145695Y-91632113D01*
X117145695Y-91632113D02*
X117383790Y-91632113D01*
X117383790Y-91632113D02*
X117479028Y-91584494D01*
X117479028Y-91584494D02*
X117526647Y-91536875D01*
X117526647Y-91536875D02*
X117574266Y-91441637D01*
X117574266Y-91441637D02*
X117574266Y-91251161D01*
X117574266Y-91251161D02*
X117526647Y-91155923D01*
X117526647Y-91155923D02*
X117479028Y-91108304D01*
X117479028Y-91108304D02*
X117383790Y-91060685D01*
D11*
X124631766Y-107746190D02*
X124607957Y-107770000D01*
X124607957Y-107770000D02*
X124536528Y-107793809D01*
X124536528Y-107793809D02*
X124488909Y-107793809D01*
X124488909Y-107793809D02*
X124417481Y-107770000D01*
X124417481Y-107770000D02*
X124369862Y-107722380D01*
X124369862Y-107722380D02*
X124346052Y-107674761D01*
X124346052Y-107674761D02*
X124322243Y-107579523D01*
X124322243Y-107579523D02*
X124322243Y-107508095D01*
X124322243Y-107508095D02*
X124346052Y-107412857D01*
X124346052Y-107412857D02*
X124369862Y-107365238D01*
X124369862Y-107365238D02*
X124417481Y-107317619D01*
X124417481Y-107317619D02*
X124488909Y-107293809D01*
X124488909Y-107293809D02*
X124536528Y-107293809D01*
X124536528Y-107293809D02*
X124607957Y-107317619D01*
X124607957Y-107317619D02*
X124631766Y-107341428D01*
X124822243Y-107341428D02*
X124846052Y-107317619D01*
X124846052Y-107317619D02*
X124893671Y-107293809D01*
X124893671Y-107293809D02*
X125012719Y-107293809D01*
X125012719Y-107293809D02*
X125060338Y-107317619D01*
X125060338Y-107317619D02*
X125084147Y-107341428D01*
X125084147Y-107341428D02*
X125107957Y-107389047D01*
X125107957Y-107389047D02*
X125107957Y-107436666D01*
X125107957Y-107436666D02*
X125084147Y-107508095D01*
X125084147Y-107508095D02*
X124798433Y-107793809D01*
X124798433Y-107793809D02*
X125107957Y-107793809D01*
X102183590Y-91659828D02*
X102207400Y-91683637D01*
X102207400Y-91683637D02*
X102231209Y-91755066D01*
X102231209Y-91755066D02*
X102231209Y-91802685D01*
X102231209Y-91802685D02*
X102207400Y-91874113D01*
X102207400Y-91874113D02*
X102159780Y-91921732D01*
X102159780Y-91921732D02*
X102112161Y-91945542D01*
X102112161Y-91945542D02*
X102016923Y-91969351D01*
X102016923Y-91969351D02*
X101945495Y-91969351D01*
X101945495Y-91969351D02*
X101850257Y-91945542D01*
X101850257Y-91945542D02*
X101802638Y-91921732D01*
X101802638Y-91921732D02*
X101755019Y-91874113D01*
X101755019Y-91874113D02*
X101731209Y-91802685D01*
X101731209Y-91802685D02*
X101731209Y-91755066D01*
X101731209Y-91755066D02*
X101755019Y-91683637D01*
X101755019Y-91683637D02*
X101778828Y-91659828D01*
X101731209Y-91493161D02*
X101731209Y-91183637D01*
X101731209Y-91183637D02*
X101921685Y-91350304D01*
X101921685Y-91350304D02*
X101921685Y-91278875D01*
X101921685Y-91278875D02*
X101945495Y-91231256D01*
X101945495Y-91231256D02*
X101969304Y-91207447D01*
X101969304Y-91207447D02*
X102016923Y-91183637D01*
X102016923Y-91183637D02*
X102135971Y-91183637D01*
X102135971Y-91183637D02*
X102183590Y-91207447D01*
X102183590Y-91207447D02*
X102207400Y-91231256D01*
X102207400Y-91231256D02*
X102231209Y-91278875D01*
X102231209Y-91278875D02*
X102231209Y-91421732D01*
X102231209Y-91421732D02*
X102207400Y-91469351D01*
X102207400Y-91469351D02*
X102183590Y-91493161D01*
X102231209Y-90707447D02*
X102231209Y-90993161D01*
X102231209Y-90850304D02*
X101731209Y-90850304D01*
X101731209Y-90850304D02*
X101802638Y-90897923D01*
X101802638Y-90897923D02*
X101850257Y-90945542D01*
X101850257Y-90945542D02*
X101874066Y-90993161D01*
D10*
X119107833Y-88268980D02*
X119060214Y-88316600D01*
X119060214Y-88316600D02*
X118917357Y-88364219D01*
X118917357Y-88364219D02*
X118822119Y-88364219D01*
X118822119Y-88364219D02*
X118679262Y-88316600D01*
X118679262Y-88316600D02*
X118584024Y-88221361D01*
X118584024Y-88221361D02*
X118536405Y-88126123D01*
X118536405Y-88126123D02*
X118488786Y-87935647D01*
X118488786Y-87935647D02*
X118488786Y-87792790D01*
X118488786Y-87792790D02*
X118536405Y-87602314D01*
X118536405Y-87602314D02*
X118584024Y-87507076D01*
X118584024Y-87507076D02*
X118679262Y-87411838D01*
X118679262Y-87411838D02*
X118822119Y-87364219D01*
X118822119Y-87364219D02*
X118917357Y-87364219D01*
X118917357Y-87364219D02*
X119060214Y-87411838D01*
X119060214Y-87411838D02*
X119107833Y-87459457D01*
X119441167Y-87364219D02*
X120060214Y-87364219D01*
X120060214Y-87364219D02*
X119726881Y-87745171D01*
X119726881Y-87745171D02*
X119869738Y-87745171D01*
X119869738Y-87745171D02*
X119964976Y-87792790D01*
X119964976Y-87792790D02*
X120012595Y-87840409D01*
X120012595Y-87840409D02*
X120060214Y-87935647D01*
X120060214Y-87935647D02*
X120060214Y-88173742D01*
X120060214Y-88173742D02*
X120012595Y-88268980D01*
X120012595Y-88268980D02*
X119964976Y-88316600D01*
X119964976Y-88316600D02*
X119869738Y-88364219D01*
X119869738Y-88364219D02*
X119584024Y-88364219D01*
X119584024Y-88364219D02*
X119488786Y-88316600D01*
X119488786Y-88316600D02*
X119441167Y-88268980D01*
X117887405Y-86332219D02*
X117887405Y-85332219D01*
X117887405Y-85332219D02*
X118125500Y-85332219D01*
X118125500Y-85332219D02*
X118268357Y-85379838D01*
X118268357Y-85379838D02*
X118363595Y-85475076D01*
X118363595Y-85475076D02*
X118411214Y-85570314D01*
X118411214Y-85570314D02*
X118458833Y-85760790D01*
X118458833Y-85760790D02*
X118458833Y-85903647D01*
X118458833Y-85903647D02*
X118411214Y-86094123D01*
X118411214Y-86094123D02*
X118363595Y-86189361D01*
X118363595Y-86189361D02*
X118268357Y-86284600D01*
X118268357Y-86284600D02*
X118125500Y-86332219D01*
X118125500Y-86332219D02*
X117887405Y-86332219D01*
X119411214Y-86332219D02*
X118839786Y-86332219D01*
X119125500Y-86332219D02*
X119125500Y-85332219D01*
X119125500Y-85332219D02*
X119030262Y-85475076D01*
X119030262Y-85475076D02*
X118935024Y-85570314D01*
X118935024Y-85570314D02*
X118839786Y-85617933D01*
X93120380Y-100261657D02*
X93168000Y-100309276D01*
X93168000Y-100309276D02*
X93215619Y-100452133D01*
X93215619Y-100452133D02*
X93215619Y-100547371D01*
X93215619Y-100547371D02*
X93168000Y-100690228D01*
X93168000Y-100690228D02*
X93072761Y-100785466D01*
X93072761Y-100785466D02*
X92977523Y-100833085D01*
X92977523Y-100833085D02*
X92787047Y-100880704D01*
X92787047Y-100880704D02*
X92644190Y-100880704D01*
X92644190Y-100880704D02*
X92453714Y-100833085D01*
X92453714Y-100833085D02*
X92358476Y-100785466D01*
X92358476Y-100785466D02*
X92263238Y-100690228D01*
X92263238Y-100690228D02*
X92215619Y-100547371D01*
X92215619Y-100547371D02*
X92215619Y-100452133D01*
X92215619Y-100452133D02*
X92263238Y-100309276D01*
X92263238Y-100309276D02*
X92310857Y-100261657D01*
X93215619Y-99309276D02*
X93215619Y-99880704D01*
X93215619Y-99594990D02*
X92215619Y-99594990D01*
X92215619Y-99594990D02*
X92358476Y-99690228D01*
X92358476Y-99690228D02*
X92453714Y-99785466D01*
X92453714Y-99785466D02*
X92501333Y-99880704D01*
X92310857Y-98928323D02*
X92263238Y-98880704D01*
X92263238Y-98880704D02*
X92215619Y-98785466D01*
X92215619Y-98785466D02*
X92215619Y-98547371D01*
X92215619Y-98547371D02*
X92263238Y-98452133D01*
X92263238Y-98452133D02*
X92310857Y-98404514D01*
X92310857Y-98404514D02*
X92406095Y-98356895D01*
X92406095Y-98356895D02*
X92501333Y-98356895D01*
X92501333Y-98356895D02*
X92644190Y-98404514D01*
X92644190Y-98404514D02*
X93215619Y-98975942D01*
X93215619Y-98975942D02*
X93215619Y-98356895D01*
X111904542Y-90701019D02*
X111571209Y-90224828D01*
X111333114Y-90701019D02*
X111333114Y-89701019D01*
X111333114Y-89701019D02*
X111714066Y-89701019D01*
X111714066Y-89701019D02*
X111809304Y-89748638D01*
X111809304Y-89748638D02*
X111856923Y-89796257D01*
X111856923Y-89796257D02*
X111904542Y-89891495D01*
X111904542Y-89891495D02*
X111904542Y-90034352D01*
X111904542Y-90034352D02*
X111856923Y-90129590D01*
X111856923Y-90129590D02*
X111809304Y-90177209D01*
X111809304Y-90177209D02*
X111714066Y-90224828D01*
X111714066Y-90224828D02*
X111333114Y-90224828D01*
X112285495Y-89796257D02*
X112333114Y-89748638D01*
X112333114Y-89748638D02*
X112428352Y-89701019D01*
X112428352Y-89701019D02*
X112666447Y-89701019D01*
X112666447Y-89701019D02*
X112761685Y-89748638D01*
X112761685Y-89748638D02*
X112809304Y-89796257D01*
X112809304Y-89796257D02*
X112856923Y-89891495D01*
X112856923Y-89891495D02*
X112856923Y-89986733D01*
X112856923Y-89986733D02*
X112809304Y-90129590D01*
X112809304Y-90129590D02*
X112237876Y-90701019D01*
X112237876Y-90701019D02*
X112856923Y-90701019D01*
X113714066Y-90034352D02*
X113714066Y-90701019D01*
X113475971Y-89653400D02*
X113237876Y-90367685D01*
X113237876Y-90367685D02*
X113856923Y-90367685D01*
D12*
X76133270Y-82620152D02*
X76072794Y-82741104D01*
X76072794Y-82741104D02*
X75951842Y-82862057D01*
X75951842Y-82862057D02*
X75770413Y-83043485D01*
X75770413Y-83043485D02*
X75709937Y-83164438D01*
X75709937Y-83164438D02*
X75709937Y-83285390D01*
X76012318Y-83224914D02*
X75951842Y-83345866D01*
X75951842Y-83345866D02*
X75830889Y-83466819D01*
X75830889Y-83466819D02*
X75588984Y-83527295D01*
X75588984Y-83527295D02*
X75165651Y-83527295D01*
X75165651Y-83527295D02*
X74923746Y-83466819D01*
X74923746Y-83466819D02*
X74802794Y-83345866D01*
X74802794Y-83345866D02*
X74742318Y-83224914D01*
X74742318Y-83224914D02*
X74742318Y-82983009D01*
X74742318Y-82983009D02*
X74802794Y-82862057D01*
X74802794Y-82862057D02*
X74923746Y-82741104D01*
X74923746Y-82741104D02*
X75165651Y-82680628D01*
X75165651Y-82680628D02*
X75588984Y-82680628D01*
X75588984Y-82680628D02*
X75830889Y-82741104D01*
X75830889Y-82741104D02*
X75951842Y-82862057D01*
X75951842Y-82862057D02*
X76012318Y-82983009D01*
X76012318Y-82983009D02*
X76012318Y-83224914D01*
X75165651Y-81592057D02*
X76012318Y-81592057D01*
X74681842Y-81894438D02*
X75588984Y-82196819D01*
X75588984Y-82196819D02*
X75588984Y-81410628D01*
D11*
X124900571Y-93569809D02*
X124733905Y-93331714D01*
X124614857Y-93569809D02*
X124614857Y-93069809D01*
X124614857Y-93069809D02*
X124805333Y-93069809D01*
X124805333Y-93069809D02*
X124852952Y-93093619D01*
X124852952Y-93093619D02*
X124876762Y-93117428D01*
X124876762Y-93117428D02*
X124900571Y-93165047D01*
X124900571Y-93165047D02*
X124900571Y-93236476D01*
X124900571Y-93236476D02*
X124876762Y-93284095D01*
X124876762Y-93284095D02*
X124852952Y-93307904D01*
X124852952Y-93307904D02*
X124805333Y-93331714D01*
X124805333Y-93331714D02*
X124614857Y-93331714D01*
X125067238Y-93069809D02*
X125376762Y-93069809D01*
X125376762Y-93069809D02*
X125210095Y-93260285D01*
X125210095Y-93260285D02*
X125281524Y-93260285D01*
X125281524Y-93260285D02*
X125329143Y-93284095D01*
X125329143Y-93284095D02*
X125352952Y-93307904D01*
X125352952Y-93307904D02*
X125376762Y-93355523D01*
X125376762Y-93355523D02*
X125376762Y-93474571D01*
X125376762Y-93474571D02*
X125352952Y-93522190D01*
X125352952Y-93522190D02*
X125329143Y-93546000D01*
X125329143Y-93546000D02*
X125281524Y-93569809D01*
X125281524Y-93569809D02*
X125138667Y-93569809D01*
X125138667Y-93569809D02*
X125091048Y-93546000D01*
X125091048Y-93546000D02*
X125067238Y-93522190D01*
X125614857Y-93569809D02*
X125710095Y-93569809D01*
X125710095Y-93569809D02*
X125757714Y-93546000D01*
X125757714Y-93546000D02*
X125781523Y-93522190D01*
X125781523Y-93522190D02*
X125829142Y-93450761D01*
X125829142Y-93450761D02*
X125852952Y-93355523D01*
X125852952Y-93355523D02*
X125852952Y-93165047D01*
X125852952Y-93165047D02*
X125829142Y-93117428D01*
X125829142Y-93117428D02*
X125805333Y-93093619D01*
X125805333Y-93093619D02*
X125757714Y-93069809D01*
X125757714Y-93069809D02*
X125662476Y-93069809D01*
X125662476Y-93069809D02*
X125614857Y-93093619D01*
X125614857Y-93093619D02*
X125591047Y-93117428D01*
X125591047Y-93117428D02*
X125567238Y-93165047D01*
X125567238Y-93165047D02*
X125567238Y-93284095D01*
X125567238Y-93284095D02*
X125591047Y-93331714D01*
X125591047Y-93331714D02*
X125614857Y-93355523D01*
X125614857Y-93355523D02*
X125662476Y-93379333D01*
X125662476Y-93379333D02*
X125757714Y-93379333D01*
X125757714Y-93379333D02*
X125805333Y-93355523D01*
X125805333Y-93355523D02*
X125829142Y-93331714D01*
X125829142Y-93331714D02*
X125852952Y-93284095D01*
D10*
X88377733Y-117895619D02*
X88044400Y-117419428D01*
X87806305Y-117895619D02*
X87806305Y-116895619D01*
X87806305Y-116895619D02*
X88187257Y-116895619D01*
X88187257Y-116895619D02*
X88282495Y-116943238D01*
X88282495Y-116943238D02*
X88330114Y-116990857D01*
X88330114Y-116990857D02*
X88377733Y-117086095D01*
X88377733Y-117086095D02*
X88377733Y-117228952D01*
X88377733Y-117228952D02*
X88330114Y-117324190D01*
X88330114Y-117324190D02*
X88282495Y-117371809D01*
X88282495Y-117371809D02*
X88187257Y-117419428D01*
X88187257Y-117419428D02*
X87806305Y-117419428D01*
X88949162Y-117324190D02*
X88853924Y-117276571D01*
X88853924Y-117276571D02*
X88806305Y-117228952D01*
X88806305Y-117228952D02*
X88758686Y-117133714D01*
X88758686Y-117133714D02*
X88758686Y-117086095D01*
X88758686Y-117086095D02*
X88806305Y-116990857D01*
X88806305Y-116990857D02*
X88853924Y-116943238D01*
X88853924Y-116943238D02*
X88949162Y-116895619D01*
X88949162Y-116895619D02*
X89139638Y-116895619D01*
X89139638Y-116895619D02*
X89234876Y-116943238D01*
X89234876Y-116943238D02*
X89282495Y-116990857D01*
X89282495Y-116990857D02*
X89330114Y-117086095D01*
X89330114Y-117086095D02*
X89330114Y-117133714D01*
X89330114Y-117133714D02*
X89282495Y-117228952D01*
X89282495Y-117228952D02*
X89234876Y-117276571D01*
X89234876Y-117276571D02*
X89139638Y-117324190D01*
X89139638Y-117324190D02*
X88949162Y-117324190D01*
X88949162Y-117324190D02*
X88853924Y-117371809D01*
X88853924Y-117371809D02*
X88806305Y-117419428D01*
X88806305Y-117419428D02*
X88758686Y-117514666D01*
X88758686Y-117514666D02*
X88758686Y-117705142D01*
X88758686Y-117705142D02*
X88806305Y-117800380D01*
X88806305Y-117800380D02*
X88853924Y-117848000D01*
X88853924Y-117848000D02*
X88949162Y-117895619D01*
X88949162Y-117895619D02*
X89139638Y-117895619D01*
X89139638Y-117895619D02*
X89234876Y-117848000D01*
X89234876Y-117848000D02*
X89282495Y-117800380D01*
X89282495Y-117800380D02*
X89330114Y-117705142D01*
X89330114Y-117705142D02*
X89330114Y-117514666D01*
X89330114Y-117514666D02*
X89282495Y-117419428D01*
X89282495Y-117419428D02*
X89234876Y-117371809D01*
X89234876Y-117371809D02*
X89139638Y-117324190D01*
X92143342Y-79709180D02*
X92095723Y-79756800D01*
X92095723Y-79756800D02*
X91952866Y-79804419D01*
X91952866Y-79804419D02*
X91857628Y-79804419D01*
X91857628Y-79804419D02*
X91714771Y-79756800D01*
X91714771Y-79756800D02*
X91619533Y-79661561D01*
X91619533Y-79661561D02*
X91571914Y-79566323D01*
X91571914Y-79566323D02*
X91524295Y-79375847D01*
X91524295Y-79375847D02*
X91524295Y-79232990D01*
X91524295Y-79232990D02*
X91571914Y-79042514D01*
X91571914Y-79042514D02*
X91619533Y-78947276D01*
X91619533Y-78947276D02*
X91714771Y-78852038D01*
X91714771Y-78852038D02*
X91857628Y-78804419D01*
X91857628Y-78804419D02*
X91952866Y-78804419D01*
X91952866Y-78804419D02*
X92095723Y-78852038D01*
X92095723Y-78852038D02*
X92143342Y-78899657D01*
X92524295Y-78899657D02*
X92571914Y-78852038D01*
X92571914Y-78852038D02*
X92667152Y-78804419D01*
X92667152Y-78804419D02*
X92905247Y-78804419D01*
X92905247Y-78804419D02*
X93000485Y-78852038D01*
X93000485Y-78852038D02*
X93048104Y-78899657D01*
X93048104Y-78899657D02*
X93095723Y-78994895D01*
X93095723Y-78994895D02*
X93095723Y-79090133D01*
X93095723Y-79090133D02*
X93048104Y-79232990D01*
X93048104Y-79232990D02*
X92476676Y-79804419D01*
X92476676Y-79804419D02*
X93095723Y-79804419D01*
X93476676Y-78899657D02*
X93524295Y-78852038D01*
X93524295Y-78852038D02*
X93619533Y-78804419D01*
X93619533Y-78804419D02*
X93857628Y-78804419D01*
X93857628Y-78804419D02*
X93952866Y-78852038D01*
X93952866Y-78852038D02*
X94000485Y-78899657D01*
X94000485Y-78899657D02*
X94048104Y-78994895D01*
X94048104Y-78994895D02*
X94048104Y-79090133D01*
X94048104Y-79090133D02*
X94000485Y-79232990D01*
X94000485Y-79232990D02*
X93429057Y-79804419D01*
X93429057Y-79804419D02*
X94048104Y-79804419D01*
X100347542Y-106306580D02*
X100299923Y-106354200D01*
X100299923Y-106354200D02*
X100157066Y-106401819D01*
X100157066Y-106401819D02*
X100061828Y-106401819D01*
X100061828Y-106401819D02*
X99918971Y-106354200D01*
X99918971Y-106354200D02*
X99823733Y-106258961D01*
X99823733Y-106258961D02*
X99776114Y-106163723D01*
X99776114Y-106163723D02*
X99728495Y-105973247D01*
X99728495Y-105973247D02*
X99728495Y-105830390D01*
X99728495Y-105830390D02*
X99776114Y-105639914D01*
X99776114Y-105639914D02*
X99823733Y-105544676D01*
X99823733Y-105544676D02*
X99918971Y-105449438D01*
X99918971Y-105449438D02*
X100061828Y-105401819D01*
X100061828Y-105401819D02*
X100157066Y-105401819D01*
X100157066Y-105401819D02*
X100299923Y-105449438D01*
X100299923Y-105449438D02*
X100347542Y-105497057D01*
X101299923Y-106401819D02*
X100728495Y-106401819D01*
X101014209Y-106401819D02*
X101014209Y-105401819D01*
X101014209Y-105401819D02*
X100918971Y-105544676D01*
X100918971Y-105544676D02*
X100823733Y-105639914D01*
X100823733Y-105639914D02*
X100728495Y-105687533D01*
X102157066Y-105735152D02*
X102157066Y-106401819D01*
X101918971Y-105354200D02*
X101680876Y-106068485D01*
X101680876Y-106068485D02*
X102299923Y-106068485D01*
D11*
X112302171Y-94255609D02*
X112135505Y-94017514D01*
X112016457Y-94255609D02*
X112016457Y-93755609D01*
X112016457Y-93755609D02*
X112206933Y-93755609D01*
X112206933Y-93755609D02*
X112254552Y-93779419D01*
X112254552Y-93779419D02*
X112278362Y-93803228D01*
X112278362Y-93803228D02*
X112302171Y-93850847D01*
X112302171Y-93850847D02*
X112302171Y-93922276D01*
X112302171Y-93922276D02*
X112278362Y-93969895D01*
X112278362Y-93969895D02*
X112254552Y-93993704D01*
X112254552Y-93993704D02*
X112206933Y-94017514D01*
X112206933Y-94017514D02*
X112016457Y-94017514D01*
X112492648Y-93803228D02*
X112516457Y-93779419D01*
X112516457Y-93779419D02*
X112564076Y-93755609D01*
X112564076Y-93755609D02*
X112683124Y-93755609D01*
X112683124Y-93755609D02*
X112730743Y-93779419D01*
X112730743Y-93779419D02*
X112754552Y-93803228D01*
X112754552Y-93803228D02*
X112778362Y-93850847D01*
X112778362Y-93850847D02*
X112778362Y-93898466D01*
X112778362Y-93898466D02*
X112754552Y-93969895D01*
X112754552Y-93969895D02*
X112468838Y-94255609D01*
X112468838Y-94255609D02*
X112778362Y-94255609D01*
X112945028Y-93755609D02*
X113278361Y-93755609D01*
X113278361Y-93755609D02*
X113064076Y-94255609D01*
X104317190Y-111065428D02*
X104341000Y-111089237D01*
X104341000Y-111089237D02*
X104364809Y-111160666D01*
X104364809Y-111160666D02*
X104364809Y-111208285D01*
X104364809Y-111208285D02*
X104341000Y-111279713D01*
X104341000Y-111279713D02*
X104293380Y-111327332D01*
X104293380Y-111327332D02*
X104245761Y-111351142D01*
X104245761Y-111351142D02*
X104150523Y-111374951D01*
X104150523Y-111374951D02*
X104079095Y-111374951D01*
X104079095Y-111374951D02*
X103983857Y-111351142D01*
X103983857Y-111351142D02*
X103936238Y-111327332D01*
X103936238Y-111327332D02*
X103888619Y-111279713D01*
X103888619Y-111279713D02*
X103864809Y-111208285D01*
X103864809Y-111208285D02*
X103864809Y-111160666D01*
X103864809Y-111160666D02*
X103888619Y-111089237D01*
X103888619Y-111089237D02*
X103912428Y-111065428D01*
X103912428Y-110874951D02*
X103888619Y-110851142D01*
X103888619Y-110851142D02*
X103864809Y-110803523D01*
X103864809Y-110803523D02*
X103864809Y-110684475D01*
X103864809Y-110684475D02*
X103888619Y-110636856D01*
X103888619Y-110636856D02*
X103912428Y-110613047D01*
X103912428Y-110613047D02*
X103960047Y-110589237D01*
X103960047Y-110589237D02*
X104007666Y-110589237D01*
X104007666Y-110589237D02*
X104079095Y-110613047D01*
X104079095Y-110613047D02*
X104364809Y-110898761D01*
X104364809Y-110898761D02*
X104364809Y-110589237D01*
X103864809Y-110160666D02*
X103864809Y-110255904D01*
X103864809Y-110255904D02*
X103888619Y-110303523D01*
X103888619Y-110303523D02*
X103912428Y-110327333D01*
X103912428Y-110327333D02*
X103983857Y-110374952D01*
X103983857Y-110374952D02*
X104079095Y-110398761D01*
X104079095Y-110398761D02*
X104269571Y-110398761D01*
X104269571Y-110398761D02*
X104317190Y-110374952D01*
X104317190Y-110374952D02*
X104341000Y-110351142D01*
X104341000Y-110351142D02*
X104364809Y-110303523D01*
X104364809Y-110303523D02*
X104364809Y-110208285D01*
X104364809Y-110208285D02*
X104341000Y-110160666D01*
X104341000Y-110160666D02*
X104317190Y-110136857D01*
X104317190Y-110136857D02*
X104269571Y-110113047D01*
X104269571Y-110113047D02*
X104150523Y-110113047D01*
X104150523Y-110113047D02*
X104102904Y-110136857D01*
X104102904Y-110136857D02*
X104079095Y-110160666D01*
X104079095Y-110160666D02*
X104055285Y-110208285D01*
X104055285Y-110208285D02*
X104055285Y-110303523D01*
X104055285Y-110303523D02*
X104079095Y-110351142D01*
X104079095Y-110351142D02*
X104102904Y-110374952D01*
X104102904Y-110374952D02*
X104150523Y-110398761D01*
X114350190Y-97857428D02*
X114374000Y-97881237D01*
X114374000Y-97881237D02*
X114397809Y-97952666D01*
X114397809Y-97952666D02*
X114397809Y-98000285D01*
X114397809Y-98000285D02*
X114374000Y-98071713D01*
X114374000Y-98071713D02*
X114326380Y-98119332D01*
X114326380Y-98119332D02*
X114278761Y-98143142D01*
X114278761Y-98143142D02*
X114183523Y-98166951D01*
X114183523Y-98166951D02*
X114112095Y-98166951D01*
X114112095Y-98166951D02*
X114016857Y-98143142D01*
X114016857Y-98143142D02*
X113969238Y-98119332D01*
X113969238Y-98119332D02*
X113921619Y-98071713D01*
X113921619Y-98071713D02*
X113897809Y-98000285D01*
X113897809Y-98000285D02*
X113897809Y-97952666D01*
X113897809Y-97952666D02*
X113921619Y-97881237D01*
X113921619Y-97881237D02*
X113945428Y-97857428D01*
X113897809Y-97690761D02*
X113897809Y-97381237D01*
X113897809Y-97381237D02*
X114088285Y-97547904D01*
X114088285Y-97547904D02*
X114088285Y-97476475D01*
X114088285Y-97476475D02*
X114112095Y-97428856D01*
X114112095Y-97428856D02*
X114135904Y-97405047D01*
X114135904Y-97405047D02*
X114183523Y-97381237D01*
X114183523Y-97381237D02*
X114302571Y-97381237D01*
X114302571Y-97381237D02*
X114350190Y-97405047D01*
X114350190Y-97405047D02*
X114374000Y-97428856D01*
X114374000Y-97428856D02*
X114397809Y-97476475D01*
X114397809Y-97476475D02*
X114397809Y-97619332D01*
X114397809Y-97619332D02*
X114374000Y-97666951D01*
X114374000Y-97666951D02*
X114350190Y-97690761D01*
X113897809Y-97214571D02*
X113897809Y-96905047D01*
X113897809Y-96905047D02*
X114088285Y-97071714D01*
X114088285Y-97071714D02*
X114088285Y-97000285D01*
X114088285Y-97000285D02*
X114112095Y-96952666D01*
X114112095Y-96952666D02*
X114135904Y-96928857D01*
X114135904Y-96928857D02*
X114183523Y-96905047D01*
X114183523Y-96905047D02*
X114302571Y-96905047D01*
X114302571Y-96905047D02*
X114350190Y-96928857D01*
X114350190Y-96928857D02*
X114374000Y-96952666D01*
X114374000Y-96952666D02*
X114397809Y-97000285D01*
X114397809Y-97000285D02*
X114397809Y-97143142D01*
X114397809Y-97143142D02*
X114374000Y-97190761D01*
X114374000Y-97190761D02*
X114350190Y-97214571D01*
D10*
X107982980Y-109405657D02*
X108030600Y-109453276D01*
X108030600Y-109453276D02*
X108078219Y-109596133D01*
X108078219Y-109596133D02*
X108078219Y-109691371D01*
X108078219Y-109691371D02*
X108030600Y-109834228D01*
X108030600Y-109834228D02*
X107935361Y-109929466D01*
X107935361Y-109929466D02*
X107840123Y-109977085D01*
X107840123Y-109977085D02*
X107649647Y-110024704D01*
X107649647Y-110024704D02*
X107506790Y-110024704D01*
X107506790Y-110024704D02*
X107316314Y-109977085D01*
X107316314Y-109977085D02*
X107221076Y-109929466D01*
X107221076Y-109929466D02*
X107125838Y-109834228D01*
X107125838Y-109834228D02*
X107078219Y-109691371D01*
X107078219Y-109691371D02*
X107078219Y-109596133D01*
X107078219Y-109596133D02*
X107125838Y-109453276D01*
X107125838Y-109453276D02*
X107173457Y-109405657D01*
X107173457Y-109024704D02*
X107125838Y-108977085D01*
X107125838Y-108977085D02*
X107078219Y-108881847D01*
X107078219Y-108881847D02*
X107078219Y-108643752D01*
X107078219Y-108643752D02*
X107125838Y-108548514D01*
X107125838Y-108548514D02*
X107173457Y-108500895D01*
X107173457Y-108500895D02*
X107268695Y-108453276D01*
X107268695Y-108453276D02*
X107363933Y-108453276D01*
X107363933Y-108453276D02*
X107506790Y-108500895D01*
X107506790Y-108500895D02*
X108078219Y-109072323D01*
X108078219Y-109072323D02*
X108078219Y-108453276D01*
X107078219Y-108119942D02*
X107078219Y-107453276D01*
X107078219Y-107453276D02*
X108078219Y-107881847D01*
X89908142Y-94409419D02*
X89574809Y-93933228D01*
X89336714Y-94409419D02*
X89336714Y-93409419D01*
X89336714Y-93409419D02*
X89717666Y-93409419D01*
X89717666Y-93409419D02*
X89812904Y-93457038D01*
X89812904Y-93457038D02*
X89860523Y-93504657D01*
X89860523Y-93504657D02*
X89908142Y-93599895D01*
X89908142Y-93599895D02*
X89908142Y-93742752D01*
X89908142Y-93742752D02*
X89860523Y-93837990D01*
X89860523Y-93837990D02*
X89812904Y-93885609D01*
X89812904Y-93885609D02*
X89717666Y-93933228D01*
X89717666Y-93933228D02*
X89336714Y-93933228D01*
X90860523Y-94409419D02*
X90289095Y-94409419D01*
X90574809Y-94409419D02*
X90574809Y-93409419D01*
X90574809Y-93409419D02*
X90479571Y-93552276D01*
X90479571Y-93552276D02*
X90384333Y-93647514D01*
X90384333Y-93647514D02*
X90289095Y-93695133D01*
X91431952Y-93837990D02*
X91336714Y-93790371D01*
X91336714Y-93790371D02*
X91289095Y-93742752D01*
X91289095Y-93742752D02*
X91241476Y-93647514D01*
X91241476Y-93647514D02*
X91241476Y-93599895D01*
X91241476Y-93599895D02*
X91289095Y-93504657D01*
X91289095Y-93504657D02*
X91336714Y-93457038D01*
X91336714Y-93457038D02*
X91431952Y-93409419D01*
X91431952Y-93409419D02*
X91622428Y-93409419D01*
X91622428Y-93409419D02*
X91717666Y-93457038D01*
X91717666Y-93457038D02*
X91765285Y-93504657D01*
X91765285Y-93504657D02*
X91812904Y-93599895D01*
X91812904Y-93599895D02*
X91812904Y-93647514D01*
X91812904Y-93647514D02*
X91765285Y-93742752D01*
X91765285Y-93742752D02*
X91717666Y-93790371D01*
X91717666Y-93790371D02*
X91622428Y-93837990D01*
X91622428Y-93837990D02*
X91431952Y-93837990D01*
X91431952Y-93837990D02*
X91336714Y-93885609D01*
X91336714Y-93885609D02*
X91289095Y-93933228D01*
X91289095Y-93933228D02*
X91241476Y-94028466D01*
X91241476Y-94028466D02*
X91241476Y-94218942D01*
X91241476Y-94218942D02*
X91289095Y-94314180D01*
X91289095Y-94314180D02*
X91336714Y-94361800D01*
X91336714Y-94361800D02*
X91431952Y-94409419D01*
X91431952Y-94409419D02*
X91622428Y-94409419D01*
X91622428Y-94409419D02*
X91717666Y-94361800D01*
X91717666Y-94361800D02*
X91765285Y-94314180D01*
X91765285Y-94314180D02*
X91812904Y-94218942D01*
X91812904Y-94218942D02*
X91812904Y-94028466D01*
X91812904Y-94028466D02*
X91765285Y-93933228D01*
X91765285Y-93933228D02*
X91717666Y-93885609D01*
X91717666Y-93885609D02*
X91622428Y-93837990D01*
D11*
X109152571Y-89937609D02*
X108985905Y-89699514D01*
X108866857Y-89937609D02*
X108866857Y-89437609D01*
X108866857Y-89437609D02*
X109057333Y-89437609D01*
X109057333Y-89437609D02*
X109104952Y-89461419D01*
X109104952Y-89461419D02*
X109128762Y-89485228D01*
X109128762Y-89485228D02*
X109152571Y-89532847D01*
X109152571Y-89532847D02*
X109152571Y-89604276D01*
X109152571Y-89604276D02*
X109128762Y-89651895D01*
X109128762Y-89651895D02*
X109104952Y-89675704D01*
X109104952Y-89675704D02*
X109057333Y-89699514D01*
X109057333Y-89699514D02*
X108866857Y-89699514D01*
X109343048Y-89485228D02*
X109366857Y-89461419D01*
X109366857Y-89461419D02*
X109414476Y-89437609D01*
X109414476Y-89437609D02*
X109533524Y-89437609D01*
X109533524Y-89437609D02*
X109581143Y-89461419D01*
X109581143Y-89461419D02*
X109604952Y-89485228D01*
X109604952Y-89485228D02*
X109628762Y-89532847D01*
X109628762Y-89532847D02*
X109628762Y-89580466D01*
X109628762Y-89580466D02*
X109604952Y-89651895D01*
X109604952Y-89651895D02*
X109319238Y-89937609D01*
X109319238Y-89937609D02*
X109628762Y-89937609D01*
X110081142Y-89437609D02*
X109843047Y-89437609D01*
X109843047Y-89437609D02*
X109819238Y-89675704D01*
X109819238Y-89675704D02*
X109843047Y-89651895D01*
X109843047Y-89651895D02*
X109890666Y-89628085D01*
X109890666Y-89628085D02*
X110009714Y-89628085D01*
X110009714Y-89628085D02*
X110057333Y-89651895D01*
X110057333Y-89651895D02*
X110081142Y-89675704D01*
X110081142Y-89675704D02*
X110104952Y-89723323D01*
X110104952Y-89723323D02*
X110104952Y-89842371D01*
X110104952Y-89842371D02*
X110081142Y-89889990D01*
X110081142Y-89889990D02*
X110057333Y-89913800D01*
X110057333Y-89913800D02*
X110009714Y-89937609D01*
X110009714Y-89937609D02*
X109890666Y-89937609D01*
X109890666Y-89937609D02*
X109843047Y-89913800D01*
X109843047Y-89913800D02*
X109819238Y-89889990D01*
D10*
X88119442Y-79601219D02*
X87786109Y-79125028D01*
X87548014Y-79601219D02*
X87548014Y-78601219D01*
X87548014Y-78601219D02*
X87928966Y-78601219D01*
X87928966Y-78601219D02*
X88024204Y-78648838D01*
X88024204Y-78648838D02*
X88071823Y-78696457D01*
X88071823Y-78696457D02*
X88119442Y-78791695D01*
X88119442Y-78791695D02*
X88119442Y-78934552D01*
X88119442Y-78934552D02*
X88071823Y-79029790D01*
X88071823Y-79029790D02*
X88024204Y-79077409D01*
X88024204Y-79077409D02*
X87928966Y-79125028D01*
X87928966Y-79125028D02*
X87548014Y-79125028D01*
X88500395Y-78696457D02*
X88548014Y-78648838D01*
X88548014Y-78648838D02*
X88643252Y-78601219D01*
X88643252Y-78601219D02*
X88881347Y-78601219D01*
X88881347Y-78601219D02*
X88976585Y-78648838D01*
X88976585Y-78648838D02*
X89024204Y-78696457D01*
X89024204Y-78696457D02*
X89071823Y-78791695D01*
X89071823Y-78791695D02*
X89071823Y-78886933D01*
X89071823Y-78886933D02*
X89024204Y-79029790D01*
X89024204Y-79029790D02*
X88452776Y-79601219D01*
X88452776Y-79601219D02*
X89071823Y-79601219D01*
X90024204Y-79601219D02*
X89452776Y-79601219D01*
X89738490Y-79601219D02*
X89738490Y-78601219D01*
X89738490Y-78601219D02*
X89643252Y-78744076D01*
X89643252Y-78744076D02*
X89548014Y-78839314D01*
X89548014Y-78839314D02*
X89452776Y-78886933D01*
D11*
X129225466Y-117750609D02*
X129058800Y-117512514D01*
X128939752Y-117750609D02*
X128939752Y-117250609D01*
X128939752Y-117250609D02*
X129130228Y-117250609D01*
X129130228Y-117250609D02*
X129177847Y-117274419D01*
X129177847Y-117274419D02*
X129201657Y-117298228D01*
X129201657Y-117298228D02*
X129225466Y-117345847D01*
X129225466Y-117345847D02*
X129225466Y-117417276D01*
X129225466Y-117417276D02*
X129201657Y-117464895D01*
X129201657Y-117464895D02*
X129177847Y-117488704D01*
X129177847Y-117488704D02*
X129130228Y-117512514D01*
X129130228Y-117512514D02*
X128939752Y-117512514D01*
X129415943Y-117298228D02*
X129439752Y-117274419D01*
X129439752Y-117274419D02*
X129487371Y-117250609D01*
X129487371Y-117250609D02*
X129606419Y-117250609D01*
X129606419Y-117250609D02*
X129654038Y-117274419D01*
X129654038Y-117274419D02*
X129677847Y-117298228D01*
X129677847Y-117298228D02*
X129701657Y-117345847D01*
X129701657Y-117345847D02*
X129701657Y-117393466D01*
X129701657Y-117393466D02*
X129677847Y-117464895D01*
X129677847Y-117464895D02*
X129392133Y-117750609D01*
X129392133Y-117750609D02*
X129701657Y-117750609D01*
D10*
X109847142Y-78489980D02*
X109799523Y-78537600D01*
X109799523Y-78537600D02*
X109656666Y-78585219D01*
X109656666Y-78585219D02*
X109561428Y-78585219D01*
X109561428Y-78585219D02*
X109418571Y-78537600D01*
X109418571Y-78537600D02*
X109323333Y-78442361D01*
X109323333Y-78442361D02*
X109275714Y-78347123D01*
X109275714Y-78347123D02*
X109228095Y-78156647D01*
X109228095Y-78156647D02*
X109228095Y-78013790D01*
X109228095Y-78013790D02*
X109275714Y-77823314D01*
X109275714Y-77823314D02*
X109323333Y-77728076D01*
X109323333Y-77728076D02*
X109418571Y-77632838D01*
X109418571Y-77632838D02*
X109561428Y-77585219D01*
X109561428Y-77585219D02*
X109656666Y-77585219D01*
X109656666Y-77585219D02*
X109799523Y-77632838D01*
X109799523Y-77632838D02*
X109847142Y-77680457D01*
X110228095Y-77680457D02*
X110275714Y-77632838D01*
X110275714Y-77632838D02*
X110370952Y-77585219D01*
X110370952Y-77585219D02*
X110609047Y-77585219D01*
X110609047Y-77585219D02*
X110704285Y-77632838D01*
X110704285Y-77632838D02*
X110751904Y-77680457D01*
X110751904Y-77680457D02*
X110799523Y-77775695D01*
X110799523Y-77775695D02*
X110799523Y-77870933D01*
X110799523Y-77870933D02*
X110751904Y-78013790D01*
X110751904Y-78013790D02*
X110180476Y-78585219D01*
X110180476Y-78585219D02*
X110799523Y-78585219D01*
X111132857Y-77585219D02*
X111751904Y-77585219D01*
X111751904Y-77585219D02*
X111418571Y-77966171D01*
X111418571Y-77966171D02*
X111561428Y-77966171D01*
X111561428Y-77966171D02*
X111656666Y-78013790D01*
X111656666Y-78013790D02*
X111704285Y-78061409D01*
X111704285Y-78061409D02*
X111751904Y-78156647D01*
X111751904Y-78156647D02*
X111751904Y-78394742D01*
X111751904Y-78394742D02*
X111704285Y-78489980D01*
X111704285Y-78489980D02*
X111656666Y-78537600D01*
X111656666Y-78537600D02*
X111561428Y-78585219D01*
X111561428Y-78585219D02*
X111275714Y-78585219D01*
X111275714Y-78585219D02*
X111180476Y-78537600D01*
X111180476Y-78537600D02*
X111132857Y-78489980D01*
X127900133Y-110036780D02*
X127852514Y-110084400D01*
X127852514Y-110084400D02*
X127709657Y-110132019D01*
X127709657Y-110132019D02*
X127614419Y-110132019D01*
X127614419Y-110132019D02*
X127471562Y-110084400D01*
X127471562Y-110084400D02*
X127376324Y-109989161D01*
X127376324Y-109989161D02*
X127328705Y-109893923D01*
X127328705Y-109893923D02*
X127281086Y-109703447D01*
X127281086Y-109703447D02*
X127281086Y-109560590D01*
X127281086Y-109560590D02*
X127328705Y-109370114D01*
X127328705Y-109370114D02*
X127376324Y-109274876D01*
X127376324Y-109274876D02*
X127471562Y-109179638D01*
X127471562Y-109179638D02*
X127614419Y-109132019D01*
X127614419Y-109132019D02*
X127709657Y-109132019D01*
X127709657Y-109132019D02*
X127852514Y-109179638D01*
X127852514Y-109179638D02*
X127900133Y-109227257D01*
X128757276Y-109132019D02*
X128566800Y-109132019D01*
X128566800Y-109132019D02*
X128471562Y-109179638D01*
X128471562Y-109179638D02*
X128423943Y-109227257D01*
X128423943Y-109227257D02*
X128328705Y-109370114D01*
X128328705Y-109370114D02*
X128281086Y-109560590D01*
X128281086Y-109560590D02*
X128281086Y-109941542D01*
X128281086Y-109941542D02*
X128328705Y-110036780D01*
X128328705Y-110036780D02*
X128376324Y-110084400D01*
X128376324Y-110084400D02*
X128471562Y-110132019D01*
X128471562Y-110132019D02*
X128662038Y-110132019D01*
X128662038Y-110132019D02*
X128757276Y-110084400D01*
X128757276Y-110084400D02*
X128804895Y-110036780D01*
X128804895Y-110036780D02*
X128852514Y-109941542D01*
X128852514Y-109941542D02*
X128852514Y-109703447D01*
X128852514Y-109703447D02*
X128804895Y-109608209D01*
X128804895Y-109608209D02*
X128757276Y-109560590D01*
X128757276Y-109560590D02*
X128662038Y-109512971D01*
X128662038Y-109512971D02*
X128471562Y-109512971D01*
X128471562Y-109512971D02*
X128376324Y-109560590D01*
X128376324Y-109560590D02*
X128328705Y-109608209D01*
X128328705Y-109608209D02*
X128281086Y-109703447D01*
X127823933Y-111332180D02*
X127776314Y-111379800D01*
X127776314Y-111379800D02*
X127633457Y-111427419D01*
X127633457Y-111427419D02*
X127538219Y-111427419D01*
X127538219Y-111427419D02*
X127395362Y-111379800D01*
X127395362Y-111379800D02*
X127300124Y-111284561D01*
X127300124Y-111284561D02*
X127252505Y-111189323D01*
X127252505Y-111189323D02*
X127204886Y-110998847D01*
X127204886Y-110998847D02*
X127204886Y-110855990D01*
X127204886Y-110855990D02*
X127252505Y-110665514D01*
X127252505Y-110665514D02*
X127300124Y-110570276D01*
X127300124Y-110570276D02*
X127395362Y-110475038D01*
X127395362Y-110475038D02*
X127538219Y-110427419D01*
X127538219Y-110427419D02*
X127633457Y-110427419D01*
X127633457Y-110427419D02*
X127776314Y-110475038D01*
X127776314Y-110475038D02*
X127823933Y-110522657D01*
X128728695Y-110427419D02*
X128252505Y-110427419D01*
X128252505Y-110427419D02*
X128204886Y-110903609D01*
X128204886Y-110903609D02*
X128252505Y-110855990D01*
X128252505Y-110855990D02*
X128347743Y-110808371D01*
X128347743Y-110808371D02*
X128585838Y-110808371D01*
X128585838Y-110808371D02*
X128681076Y-110855990D01*
X128681076Y-110855990D02*
X128728695Y-110903609D01*
X128728695Y-110903609D02*
X128776314Y-110998847D01*
X128776314Y-110998847D02*
X128776314Y-111236942D01*
X128776314Y-111236942D02*
X128728695Y-111332180D01*
X128728695Y-111332180D02*
X128681076Y-111379800D01*
X128681076Y-111379800D02*
X128585838Y-111427419D01*
X128585838Y-111427419D02*
X128347743Y-111427419D01*
X128347743Y-111427419D02*
X128252505Y-111379800D01*
X128252505Y-111379800D02*
X128204886Y-111332180D01*
D11*
X129250866Y-116302809D02*
X129084200Y-116064714D01*
X128965152Y-116302809D02*
X128965152Y-115802809D01*
X128965152Y-115802809D02*
X129155628Y-115802809D01*
X129155628Y-115802809D02*
X129203247Y-115826619D01*
X129203247Y-115826619D02*
X129227057Y-115850428D01*
X129227057Y-115850428D02*
X129250866Y-115898047D01*
X129250866Y-115898047D02*
X129250866Y-115969476D01*
X129250866Y-115969476D02*
X129227057Y-116017095D01*
X129227057Y-116017095D02*
X129203247Y-116040904D01*
X129203247Y-116040904D02*
X129155628Y-116064714D01*
X129155628Y-116064714D02*
X128965152Y-116064714D01*
X129417533Y-115802809D02*
X129727057Y-115802809D01*
X129727057Y-115802809D02*
X129560390Y-115993285D01*
X129560390Y-115993285D02*
X129631819Y-115993285D01*
X129631819Y-115993285D02*
X129679438Y-116017095D01*
X129679438Y-116017095D02*
X129703247Y-116040904D01*
X129703247Y-116040904D02*
X129727057Y-116088523D01*
X129727057Y-116088523D02*
X129727057Y-116207571D01*
X129727057Y-116207571D02*
X129703247Y-116255190D01*
X129703247Y-116255190D02*
X129679438Y-116279000D01*
X129679438Y-116279000D02*
X129631819Y-116302809D01*
X129631819Y-116302809D02*
X129488962Y-116302809D01*
X129488962Y-116302809D02*
X129441343Y-116279000D01*
X129441343Y-116279000D02*
X129417533Y-116255190D01*
D10*
X88155542Y-87999819D02*
X87822209Y-87523628D01*
X87584114Y-87999819D02*
X87584114Y-86999819D01*
X87584114Y-86999819D02*
X87965066Y-86999819D01*
X87965066Y-86999819D02*
X88060304Y-87047438D01*
X88060304Y-87047438D02*
X88107923Y-87095057D01*
X88107923Y-87095057D02*
X88155542Y-87190295D01*
X88155542Y-87190295D02*
X88155542Y-87333152D01*
X88155542Y-87333152D02*
X88107923Y-87428390D01*
X88107923Y-87428390D02*
X88060304Y-87476009D01*
X88060304Y-87476009D02*
X87965066Y-87523628D01*
X87965066Y-87523628D02*
X87584114Y-87523628D01*
X88536495Y-87095057D02*
X88584114Y-87047438D01*
X88584114Y-87047438D02*
X88679352Y-86999819D01*
X88679352Y-86999819D02*
X88917447Y-86999819D01*
X88917447Y-86999819D02*
X89012685Y-87047438D01*
X89012685Y-87047438D02*
X89060304Y-87095057D01*
X89060304Y-87095057D02*
X89107923Y-87190295D01*
X89107923Y-87190295D02*
X89107923Y-87285533D01*
X89107923Y-87285533D02*
X89060304Y-87428390D01*
X89060304Y-87428390D02*
X88488876Y-87999819D01*
X88488876Y-87999819D02*
X89107923Y-87999819D01*
X89726971Y-86999819D02*
X89822209Y-86999819D01*
X89822209Y-86999819D02*
X89917447Y-87047438D01*
X89917447Y-87047438D02*
X89965066Y-87095057D01*
X89965066Y-87095057D02*
X90012685Y-87190295D01*
X90012685Y-87190295D02*
X90060304Y-87380771D01*
X90060304Y-87380771D02*
X90060304Y-87618866D01*
X90060304Y-87618866D02*
X90012685Y-87809342D01*
X90012685Y-87809342D02*
X89965066Y-87904580D01*
X89965066Y-87904580D02*
X89917447Y-87952200D01*
X89917447Y-87952200D02*
X89822209Y-87999819D01*
X89822209Y-87999819D02*
X89726971Y-87999819D01*
X89726971Y-87999819D02*
X89631733Y-87952200D01*
X89631733Y-87952200D02*
X89584114Y-87904580D01*
X89584114Y-87904580D02*
X89536495Y-87809342D01*
X89536495Y-87809342D02*
X89488876Y-87618866D01*
X89488876Y-87618866D02*
X89488876Y-87380771D01*
X89488876Y-87380771D02*
X89536495Y-87190295D01*
X89536495Y-87190295D02*
X89584114Y-87095057D01*
X89584114Y-87095057D02*
X89631733Y-87047438D01*
X89631733Y-87047438D02*
X89726971Y-86999819D01*
X105308304Y-106361580D02*
X105308304Y-105552057D01*
X105308304Y-105552057D02*
X105260685Y-105456819D01*
X105260685Y-105456819D02*
X105213066Y-105409200D01*
X105213066Y-105409200D02*
X105117828Y-105361580D01*
X105117828Y-105361580D02*
X104927352Y-105361580D01*
X104927352Y-105361580D02*
X104832114Y-105409200D01*
X104832114Y-105409200D02*
X104784495Y-105456819D01*
X104784495Y-105456819D02*
X104736876Y-105552057D01*
X104736876Y-105552057D02*
X104736876Y-106361580D01*
X103832114Y-106028247D02*
X103832114Y-105361580D01*
X104070209Y-106409200D02*
X104308304Y-105694914D01*
X104308304Y-105694914D02*
X103689257Y-105694914D01*
X102924319Y-105485190D02*
X103162414Y-105485190D01*
X103067176Y-105723285D02*
X103162414Y-105485190D01*
X103162414Y-105485190D02*
X103067176Y-105247095D01*
X103352890Y-105628047D02*
X103162414Y-105485190D01*
X103162414Y-105485190D02*
X103352890Y-105342333D01*
X104716342Y-114151580D02*
X104668723Y-114199200D01*
X104668723Y-114199200D02*
X104525866Y-114246819D01*
X104525866Y-114246819D02*
X104430628Y-114246819D01*
X104430628Y-114246819D02*
X104287771Y-114199200D01*
X104287771Y-114199200D02*
X104192533Y-114103961D01*
X104192533Y-114103961D02*
X104144914Y-114008723D01*
X104144914Y-114008723D02*
X104097295Y-113818247D01*
X104097295Y-113818247D02*
X104097295Y-113675390D01*
X104097295Y-113675390D02*
X104144914Y-113484914D01*
X104144914Y-113484914D02*
X104192533Y-113389676D01*
X104192533Y-113389676D02*
X104287771Y-113294438D01*
X104287771Y-113294438D02*
X104430628Y-113246819D01*
X104430628Y-113246819D02*
X104525866Y-113246819D01*
X104525866Y-113246819D02*
X104668723Y-113294438D01*
X104668723Y-113294438D02*
X104716342Y-113342057D01*
X105097295Y-113342057D02*
X105144914Y-113294438D01*
X105144914Y-113294438D02*
X105240152Y-113246819D01*
X105240152Y-113246819D02*
X105478247Y-113246819D01*
X105478247Y-113246819D02*
X105573485Y-113294438D01*
X105573485Y-113294438D02*
X105621104Y-113342057D01*
X105621104Y-113342057D02*
X105668723Y-113437295D01*
X105668723Y-113437295D02*
X105668723Y-113532533D01*
X105668723Y-113532533D02*
X105621104Y-113675390D01*
X105621104Y-113675390D02*
X105049676Y-114246819D01*
X105049676Y-114246819D02*
X105668723Y-114246819D01*
X106573485Y-113246819D02*
X106097295Y-113246819D01*
X106097295Y-113246819D02*
X106049676Y-113723009D01*
X106049676Y-113723009D02*
X106097295Y-113675390D01*
X106097295Y-113675390D02*
X106192533Y-113627771D01*
X106192533Y-113627771D02*
X106430628Y-113627771D01*
X106430628Y-113627771D02*
X106525866Y-113675390D01*
X106525866Y-113675390D02*
X106573485Y-113723009D01*
X106573485Y-113723009D02*
X106621104Y-113818247D01*
X106621104Y-113818247D02*
X106621104Y-114056342D01*
X106621104Y-114056342D02*
X106573485Y-114151580D01*
X106573485Y-114151580D02*
X106525866Y-114199200D01*
X106525866Y-114199200D02*
X106430628Y-114246819D01*
X106430628Y-114246819D02*
X106192533Y-114246819D01*
X106192533Y-114246819D02*
X106097295Y-114199200D01*
X106097295Y-114199200D02*
X106049676Y-114151580D01*
D11*
X101167590Y-108423828D02*
X101191400Y-108447637D01*
X101191400Y-108447637D02*
X101215209Y-108519066D01*
X101215209Y-108519066D02*
X101215209Y-108566685D01*
X101215209Y-108566685D02*
X101191400Y-108638113D01*
X101191400Y-108638113D02*
X101143780Y-108685732D01*
X101143780Y-108685732D02*
X101096161Y-108709542D01*
X101096161Y-108709542D02*
X101000923Y-108733351D01*
X101000923Y-108733351D02*
X100929495Y-108733351D01*
X100929495Y-108733351D02*
X100834257Y-108709542D01*
X100834257Y-108709542D02*
X100786638Y-108685732D01*
X100786638Y-108685732D02*
X100739019Y-108638113D01*
X100739019Y-108638113D02*
X100715209Y-108566685D01*
X100715209Y-108566685D02*
X100715209Y-108519066D01*
X100715209Y-108519066D02*
X100739019Y-108447637D01*
X100739019Y-108447637D02*
X100762828Y-108423828D01*
X100762828Y-108233351D02*
X100739019Y-108209542D01*
X100739019Y-108209542D02*
X100715209Y-108161923D01*
X100715209Y-108161923D02*
X100715209Y-108042875D01*
X100715209Y-108042875D02*
X100739019Y-107995256D01*
X100739019Y-107995256D02*
X100762828Y-107971447D01*
X100762828Y-107971447D02*
X100810447Y-107947637D01*
X100810447Y-107947637D02*
X100858066Y-107947637D01*
X100858066Y-107947637D02*
X100929495Y-107971447D01*
X100929495Y-107971447D02*
X101215209Y-108257161D01*
X101215209Y-108257161D02*
X101215209Y-107947637D01*
X100929495Y-107661923D02*
X100905685Y-107709542D01*
X100905685Y-107709542D02*
X100881876Y-107733352D01*
X100881876Y-107733352D02*
X100834257Y-107757161D01*
X100834257Y-107757161D02*
X100810447Y-107757161D01*
X100810447Y-107757161D02*
X100762828Y-107733352D01*
X100762828Y-107733352D02*
X100739019Y-107709542D01*
X100739019Y-107709542D02*
X100715209Y-107661923D01*
X100715209Y-107661923D02*
X100715209Y-107566685D01*
X100715209Y-107566685D02*
X100739019Y-107519066D01*
X100739019Y-107519066D02*
X100762828Y-107495257D01*
X100762828Y-107495257D02*
X100810447Y-107471447D01*
X100810447Y-107471447D02*
X100834257Y-107471447D01*
X100834257Y-107471447D02*
X100881876Y-107495257D01*
X100881876Y-107495257D02*
X100905685Y-107519066D01*
X100905685Y-107519066D02*
X100929495Y-107566685D01*
X100929495Y-107566685D02*
X100929495Y-107661923D01*
X100929495Y-107661923D02*
X100953304Y-107709542D01*
X100953304Y-107709542D02*
X100977114Y-107733352D01*
X100977114Y-107733352D02*
X101024733Y-107757161D01*
X101024733Y-107757161D02*
X101119971Y-107757161D01*
X101119971Y-107757161D02*
X101167590Y-107733352D01*
X101167590Y-107733352D02*
X101191400Y-107709542D01*
X101191400Y-107709542D02*
X101215209Y-107661923D01*
X101215209Y-107661923D02*
X101215209Y-107566685D01*
X101215209Y-107566685D02*
X101191400Y-107519066D01*
X101191400Y-107519066D02*
X101167590Y-107495257D01*
X101167590Y-107495257D02*
X101119971Y-107471447D01*
X101119971Y-107471447D02*
X101024733Y-107471447D01*
X101024733Y-107471447D02*
X100977114Y-107495257D01*
X100977114Y-107495257D02*
X100953304Y-107519066D01*
X100953304Y-107519066D02*
X100929495Y-107566685D01*
D13*
%TO.C,C24*%
X89699200Y-117881400D02*
X90699200Y-117881400D01*
X90199200Y-117381400D02*
X90199200Y-118381400D01*
X95925000Y-114503200D02*
X95925000Y-124663200D01*
X95965000Y-114503200D02*
X95965000Y-124663200D01*
X96005000Y-114503200D02*
X96005000Y-124663200D01*
X96045000Y-114504200D02*
X96045000Y-124662200D01*
X96085000Y-114505200D02*
X96085000Y-124661200D01*
X96125000Y-114506200D02*
X96125000Y-124660200D01*
X96165000Y-114508200D02*
X96165000Y-124658200D01*
X96205000Y-114510200D02*
X96205000Y-124656200D01*
X96245000Y-114513200D02*
X96245000Y-124653200D01*
X96285000Y-114515200D02*
X96285000Y-124651200D01*
X96325000Y-114518200D02*
X96325000Y-124648200D01*
X96365000Y-114521200D02*
X96365000Y-124645200D01*
X96405000Y-114525200D02*
X96405000Y-124641200D01*
X96445000Y-114529200D02*
X96445000Y-124637200D01*
X96485000Y-114533200D02*
X96485000Y-124633200D01*
X96525000Y-114538200D02*
X96525000Y-124628200D01*
X96565000Y-114543200D02*
X96565000Y-124623200D01*
X96605000Y-114548200D02*
X96605000Y-124618200D01*
X96646000Y-114553200D02*
X96646000Y-124613200D01*
X96686000Y-114559200D02*
X96686000Y-124607200D01*
X96726000Y-114565200D02*
X96726000Y-124601200D01*
X96766000Y-114572200D02*
X96766000Y-124594200D01*
X96806000Y-114579200D02*
X96806000Y-124587200D01*
X96846000Y-114586200D02*
X96846000Y-124580200D01*
X96886000Y-114593200D02*
X96886000Y-124573200D01*
X96926000Y-114601200D02*
X96926000Y-124565200D01*
X96966000Y-114609200D02*
X96966000Y-124557200D01*
X97006000Y-114618200D02*
X97006000Y-124548200D01*
X97046000Y-114627200D02*
X97046000Y-124539200D01*
X97086000Y-114636200D02*
X97086000Y-124530200D01*
X97126000Y-114645200D02*
X97126000Y-124521200D01*
X97166000Y-114655200D02*
X97166000Y-124511200D01*
X97206000Y-114665200D02*
X97206000Y-118342200D01*
X97206000Y-120824200D02*
X97206000Y-124501200D01*
X97246000Y-114676200D02*
X97246000Y-118342200D01*
X97246000Y-120824200D02*
X97246000Y-124490200D01*
X97286000Y-114686200D02*
X97286000Y-118342200D01*
X97286000Y-120824200D02*
X97286000Y-124480200D01*
X97326000Y-114698200D02*
X97326000Y-118342200D01*
X97326000Y-120824200D02*
X97326000Y-124468200D01*
X97366000Y-114709200D02*
X97366000Y-118342200D01*
X97366000Y-120824200D02*
X97366000Y-124457200D01*
X97406000Y-114721200D02*
X97406000Y-118342200D01*
X97406000Y-120824200D02*
X97406000Y-124445200D01*
X97446000Y-114733200D02*
X97446000Y-118342200D01*
X97446000Y-120824200D02*
X97446000Y-124433200D01*
X97486000Y-114746200D02*
X97486000Y-118342200D01*
X97486000Y-120824200D02*
X97486000Y-124420200D01*
X97526000Y-114759200D02*
X97526000Y-118342200D01*
X97526000Y-120824200D02*
X97526000Y-124407200D01*
X97566000Y-114772200D02*
X97566000Y-118342200D01*
X97566000Y-120824200D02*
X97566000Y-124394200D01*
X97606000Y-114786200D02*
X97606000Y-118342200D01*
X97606000Y-120824200D02*
X97606000Y-124380200D01*
X97646000Y-114800200D02*
X97646000Y-118342200D01*
X97646000Y-120824200D02*
X97646000Y-124366200D01*
X97686000Y-114815200D02*
X97686000Y-118342200D01*
X97686000Y-120824200D02*
X97686000Y-124351200D01*
X97726000Y-114829200D02*
X97726000Y-118342200D01*
X97726000Y-120824200D02*
X97726000Y-124337200D01*
X97766000Y-114845200D02*
X97766000Y-118342200D01*
X97766000Y-120824200D02*
X97766000Y-124321200D01*
X97806000Y-114860200D02*
X97806000Y-118342200D01*
X97806000Y-120824200D02*
X97806000Y-124306200D01*
X97846000Y-114876200D02*
X97846000Y-118342200D01*
X97846000Y-120824200D02*
X97846000Y-124290200D01*
X97886000Y-114893200D02*
X97886000Y-118342200D01*
X97886000Y-120824200D02*
X97886000Y-124273200D01*
X97926000Y-114909200D02*
X97926000Y-118342200D01*
X97926000Y-120824200D02*
X97926000Y-124257200D01*
X97966000Y-114926200D02*
X97966000Y-118342200D01*
X97966000Y-120824200D02*
X97966000Y-124240200D01*
X98006000Y-114944200D02*
X98006000Y-118342200D01*
X98006000Y-120824200D02*
X98006000Y-124222200D01*
X98046000Y-114962200D02*
X98046000Y-118342200D01*
X98046000Y-120824200D02*
X98046000Y-124204200D01*
X98086000Y-114980200D02*
X98086000Y-118342200D01*
X98086000Y-120824200D02*
X98086000Y-124186200D01*
X98126000Y-114999200D02*
X98126000Y-118342200D01*
X98126000Y-120824200D02*
X98126000Y-124167200D01*
X98166000Y-115019200D02*
X98166000Y-118342200D01*
X98166000Y-120824200D02*
X98166000Y-124147200D01*
X98206000Y-115038200D02*
X98206000Y-118342200D01*
X98206000Y-120824200D02*
X98206000Y-124128200D01*
X98246000Y-115058200D02*
X98246000Y-118342200D01*
X98246000Y-120824200D02*
X98246000Y-124108200D01*
X98286000Y-115079200D02*
X98286000Y-118342200D01*
X98286000Y-120824200D02*
X98286000Y-124087200D01*
X98326000Y-115100200D02*
X98326000Y-118342200D01*
X98326000Y-120824200D02*
X98326000Y-124066200D01*
X98366000Y-115121200D02*
X98366000Y-118342200D01*
X98366000Y-120824200D02*
X98366000Y-124045200D01*
X98406000Y-115143200D02*
X98406000Y-118342200D01*
X98406000Y-120824200D02*
X98406000Y-124023200D01*
X98446000Y-115166200D02*
X98446000Y-118342200D01*
X98446000Y-120824200D02*
X98446000Y-124000200D01*
X98486000Y-115188200D02*
X98486000Y-118342200D01*
X98486000Y-120824200D02*
X98486000Y-123978200D01*
X98526000Y-115212200D02*
X98526000Y-118342200D01*
X98526000Y-120824200D02*
X98526000Y-123954200D01*
X98566000Y-115236200D02*
X98566000Y-118342200D01*
X98566000Y-120824200D02*
X98566000Y-123930200D01*
X98606000Y-115260200D02*
X98606000Y-118342200D01*
X98606000Y-120824200D02*
X98606000Y-123906200D01*
X98646000Y-115285200D02*
X98646000Y-118342200D01*
X98646000Y-120824200D02*
X98646000Y-123881200D01*
X98686000Y-115310200D02*
X98686000Y-118342200D01*
X98686000Y-120824200D02*
X98686000Y-123856200D01*
X98726000Y-115336200D02*
X98726000Y-118342200D01*
X98726000Y-120824200D02*
X98726000Y-123830200D01*
X98766000Y-115362200D02*
X98766000Y-118342200D01*
X98766000Y-120824200D02*
X98766000Y-123804200D01*
X98806000Y-115389200D02*
X98806000Y-118342200D01*
X98806000Y-120824200D02*
X98806000Y-123777200D01*
X98846000Y-115417200D02*
X98846000Y-118342200D01*
X98846000Y-120824200D02*
X98846000Y-123749200D01*
X98886000Y-115445200D02*
X98886000Y-118342200D01*
X98886000Y-120824200D02*
X98886000Y-123721200D01*
X98926000Y-115473200D02*
X98926000Y-118342200D01*
X98926000Y-120824200D02*
X98926000Y-123693200D01*
X98966000Y-115503200D02*
X98966000Y-118342200D01*
X98966000Y-120824200D02*
X98966000Y-123663200D01*
X99006000Y-115533200D02*
X99006000Y-118342200D01*
X99006000Y-120824200D02*
X99006000Y-123633200D01*
X99046000Y-115563200D02*
X99046000Y-118342200D01*
X99046000Y-120824200D02*
X99046000Y-123603200D01*
X99086000Y-115594200D02*
X99086000Y-118342200D01*
X99086000Y-120824200D02*
X99086000Y-123572200D01*
X99126000Y-115626200D02*
X99126000Y-118342200D01*
X99126000Y-120824200D02*
X99126000Y-123540200D01*
X99166000Y-115658200D02*
X99166000Y-118342200D01*
X99166000Y-120824200D02*
X99166000Y-123508200D01*
X99206000Y-115691200D02*
X99206000Y-118342200D01*
X99206000Y-120824200D02*
X99206000Y-123475200D01*
X99246000Y-115725200D02*
X99246000Y-118342200D01*
X99246000Y-120824200D02*
X99246000Y-123441200D01*
X99286000Y-115759200D02*
X99286000Y-118342200D01*
X99286000Y-120824200D02*
X99286000Y-123407200D01*
X99326000Y-115794200D02*
X99326000Y-118342200D01*
X99326000Y-120824200D02*
X99326000Y-123372200D01*
X99366000Y-115830200D02*
X99366000Y-118342200D01*
X99366000Y-120824200D02*
X99366000Y-123336200D01*
X99406000Y-115867200D02*
X99406000Y-118342200D01*
X99406000Y-120824200D02*
X99406000Y-123299200D01*
X99446000Y-115904200D02*
X99446000Y-118342200D01*
X99446000Y-120824200D02*
X99446000Y-123262200D01*
X99486000Y-115943200D02*
X99486000Y-118342200D01*
X99486000Y-120824200D02*
X99486000Y-123223200D01*
X99526000Y-115982200D02*
X99526000Y-118342200D01*
X99526000Y-120824200D02*
X99526000Y-123184200D01*
X99566000Y-116022200D02*
X99566000Y-118342200D01*
X99566000Y-120824200D02*
X99566000Y-123144200D01*
X99606000Y-116063200D02*
X99606000Y-118342200D01*
X99606000Y-120824200D02*
X99606000Y-123103200D01*
X99646000Y-116105200D02*
X99646000Y-118342200D01*
X99646000Y-120824200D02*
X99646000Y-123061200D01*
X99686000Y-116147200D02*
X99686000Y-123019200D01*
X99726000Y-116191200D02*
X99726000Y-122975200D01*
X99766000Y-116236200D02*
X99766000Y-122930200D01*
X99806000Y-116282200D02*
X99806000Y-122884200D01*
X99846000Y-116329200D02*
X99846000Y-122837200D01*
X99886000Y-116377200D02*
X99886000Y-122789200D01*
X99926000Y-116427200D02*
X99926000Y-122739200D01*
X99966000Y-116477200D02*
X99966000Y-122689200D01*
X100006000Y-116529200D02*
X100006000Y-122637200D01*
X100046000Y-116583200D02*
X100046000Y-122583200D01*
X100086000Y-116638200D02*
X100086000Y-122528200D01*
X100126000Y-116694200D02*
X100126000Y-122472200D01*
X100166000Y-116753200D02*
X100166000Y-122413200D01*
X100206000Y-116813200D02*
X100206000Y-122353200D01*
X100246000Y-116874200D02*
X100246000Y-122292200D01*
X100286000Y-116938200D02*
X100286000Y-122228200D01*
X100326000Y-117004200D02*
X100326000Y-122162200D01*
X100366000Y-117073200D02*
X100366000Y-122093200D01*
X100406000Y-117144200D02*
X100406000Y-122022200D01*
X100446000Y-117218200D02*
X100446000Y-121948200D01*
X100486000Y-117294200D02*
X100486000Y-121872200D01*
X100526000Y-117374200D02*
X100526000Y-121792200D01*
X100566000Y-117458200D02*
X100566000Y-121708200D01*
X100606000Y-117546200D02*
X100606000Y-121620200D01*
X100646000Y-117639200D02*
X100646000Y-121527200D01*
X100686000Y-117737200D02*
X100686000Y-121429200D01*
X100726000Y-117841200D02*
X100726000Y-121325200D01*
X100766000Y-117953200D02*
X100766000Y-121213200D01*
X100806000Y-118073200D02*
X100806000Y-121093200D01*
X100846000Y-118205200D02*
X100846000Y-120961200D01*
X100886000Y-118353200D02*
X100886000Y-120813200D01*
X100926000Y-118521200D02*
X100926000Y-120645200D01*
X100966000Y-118721200D02*
X100966000Y-120445200D01*
X101006000Y-118984200D02*
X101006000Y-120182200D01*
X101045000Y-119583200D02*
G75*
G02*
X90805000Y-119583200I-5120000J0D01*
G01*
X90805000Y-119583200D02*
G75*
G02*
X101045000Y-119583200I5120000J0D01*
G01*
%TO.C,C15*%
X103004252Y-93041800D02*
X102481748Y-93041800D01*
X103004252Y-94511800D02*
X102481748Y-94511800D01*
%TO.C,C8*%
X115466400Y-94431067D02*
X115466400Y-94138533D01*
X116486400Y-94431067D02*
X116486400Y-94138533D01*
D14*
%TO.C,Y1*%
X123290200Y-113091000D02*
X123290200Y-112591000D01*
X123290200Y-113091000D02*
X123290200Y-113591000D01*
X126290200Y-113091000D02*
X126290200Y-112591000D01*
X126290200Y-113591000D02*
X126290200Y-113091000D01*
D13*
%TO.C,R10*%
X89601664Y-104804800D02*
X88147536Y-104804800D01*
X89601664Y-106624800D02*
X88147536Y-106624800D01*
%TO.C,R34*%
X104472824Y-118324100D02*
X103963376Y-118324100D01*
X104472824Y-119369100D02*
X103963376Y-119369100D01*
%TO.C,C29*%
X109498420Y-92682200D02*
X109779580Y-92682200D01*
X109498420Y-93702200D02*
X109779580Y-93702200D01*
%TO.C,C19*%
X87743420Y-98118200D02*
X88024580Y-98118200D01*
X87743420Y-99138200D02*
X88024580Y-99138200D01*
%TO.C,C37*%
X120394000Y-117963733D02*
X120394000Y-118256267D01*
X121414000Y-117963733D02*
X121414000Y-118256267D01*
%TO.C,D2*%
X122049400Y-116816200D02*
X122049400Y-118286200D01*
X122049400Y-118286200D02*
X124509400Y-118286200D01*
X124509400Y-116816200D02*
X122049400Y-116816200D01*
%TO.C,C20*%
X81735200Y-79109180D02*
X81735200Y-78828020D01*
X82755200Y-79109180D02*
X82755200Y-78828020D01*
%TO.C,R35*%
X104447424Y-116825500D02*
X103937976Y-116825500D01*
X104447424Y-117870500D02*
X103937976Y-117870500D01*
%TO.C,J5*%
X126021400Y-89158200D02*
X126021400Y-88558200D01*
X126061400Y-83148200D02*
X129981400Y-83148200D01*
X126061400Y-85458200D02*
X126061400Y-83148200D01*
X126061400Y-89458200D02*
X126061400Y-91768200D01*
X126061400Y-91768200D02*
X129981400Y-91768200D01*
X126771400Y-89158200D02*
X126021400Y-89158200D01*
X129151400Y-85418200D02*
X129151400Y-86248200D01*
X129151400Y-85418200D02*
X129981400Y-85418200D01*
X129151400Y-89498200D02*
X129151400Y-88668200D01*
X129151400Y-89498200D02*
X129981400Y-89498200D01*
X129981400Y-83148200D02*
X129981400Y-85418200D01*
X129981400Y-91768200D02*
X129981400Y-89498200D01*
D15*
%TO.C,Q1*%
X85306600Y-116355600D02*
G75*
G02*
X85306600Y-116155600I0J100000D01*
G01*
X85306600Y-116155600D02*
G75*
G02*
X85306600Y-116355600I0J-100000D01*
G01*
X85306600Y-116355600D02*
X85306600Y-116355600D01*
X85306600Y-116155600D02*
X85306600Y-116155600D01*
D14*
X84456600Y-111905600D02*
X83506600Y-111905600D01*
X83506600Y-116805600D02*
X84456600Y-116805600D01*
X78556600Y-116805600D02*
X79006600Y-116805600D01*
X78556600Y-111905600D02*
X79006600Y-111905600D01*
D13*
%TO.C,C17*%
X86133400Y-120153820D02*
X86133400Y-120434980D01*
X85113400Y-120153820D02*
X85113400Y-120434980D01*
%TO.C,C16*%
X108419020Y-111834200D02*
X108700180Y-111834200D01*
X108419020Y-112854200D02*
X108700180Y-112854200D01*
%TO.C,C38*%
X105644733Y-115288600D02*
X105937267Y-115288600D01*
X105644733Y-116308600D02*
X105937267Y-116308600D01*
%TO.C,C4*%
X111028433Y-125194600D02*
X111320967Y-125194600D01*
X111028433Y-126214600D02*
X111320967Y-126214600D01*
%TO.C,C13*%
X95384252Y-97258200D02*
X94861748Y-97258200D01*
X95384252Y-98728200D02*
X94861748Y-98728200D01*
%TO.C,C21*%
X89612800Y-76740652D02*
X89612800Y-76218148D01*
X91082800Y-76740652D02*
X91082800Y-76218148D01*
%TO.C,D3*%
X122049400Y-115190600D02*
X122049400Y-116660600D01*
X122049400Y-116660600D02*
X124509400Y-116660600D01*
X124509400Y-115190600D02*
X122049400Y-115190600D01*
%TO.C,C1*%
X116002300Y-83083452D02*
X116002300Y-81660948D01*
X117822300Y-83083452D02*
X117822300Y-81660948D01*
%TO.C,J4*%
X91200000Y-73100000D02*
X91800000Y-73400000D01*
X91200000Y-73700000D02*
X91200000Y-73100000D01*
X91800000Y-73400000D02*
X91200000Y-73700000D01*
X92000000Y-71290000D02*
X93200000Y-71290000D01*
X92000000Y-78310000D02*
X92000000Y-71290000D01*
X93200000Y-69590000D02*
X106800000Y-69590000D01*
X93200000Y-71290000D02*
X93200000Y-69590000D01*
X106800000Y-69590000D02*
X106800000Y-71290000D01*
X106800000Y-71290000D02*
X108000000Y-71290000D01*
X108000000Y-71290000D02*
X108000000Y-78310000D01*
X108000000Y-78310000D02*
X92000000Y-78310000D01*
%TO.C,C10*%
X111220467Y-116101400D02*
X110927933Y-116101400D01*
X111220467Y-117121400D02*
X110927933Y-117121400D01*
%TO.C,C32*%
X106514020Y-92708000D02*
X106795180Y-92708000D01*
X106514020Y-93728000D02*
X106795180Y-93728000D01*
%TO.C,J3*%
X90940000Y-125338000D02*
X90940000Y-130058000D01*
X90940000Y-127448000D02*
X91550000Y-127448000D01*
X90940000Y-128748000D02*
X91550000Y-128748000D01*
X90940000Y-130058000D02*
X109060000Y-130058000D01*
X91550000Y-125948000D02*
X91550000Y-129448000D01*
X91550000Y-129448000D02*
X93500000Y-129448000D01*
X93500000Y-129448000D02*
X93500000Y-130058000D01*
X93900000Y-126448000D02*
X93900000Y-125948000D01*
X94000000Y-125948000D02*
X94000000Y-126448000D01*
X94100000Y-125948000D02*
X94100000Y-126448000D01*
X94100000Y-126448000D02*
X93900000Y-126448000D01*
X95900000Y-126448000D02*
X95900000Y-125948000D01*
X96000000Y-125948000D02*
X96000000Y-126448000D01*
X96100000Y-125948000D02*
X96100000Y-126448000D01*
X96100000Y-126448000D02*
X95900000Y-126448000D01*
X97900000Y-126448000D02*
X97900000Y-125948000D01*
X98000000Y-125948000D02*
X98000000Y-126448000D01*
X98100000Y-125948000D02*
X98100000Y-126448000D01*
X98100000Y-126448000D02*
X97900000Y-126448000D01*
X99900000Y-126448000D02*
X99900000Y-125948000D01*
X100000000Y-125948000D02*
X100000000Y-126448000D01*
X100100000Y-125948000D02*
X100100000Y-126448000D01*
X100100000Y-126448000D02*
X99900000Y-126448000D01*
X101900000Y-126448000D02*
X101900000Y-125948000D01*
X102000000Y-125948000D02*
X102000000Y-126448000D01*
X102100000Y-125948000D02*
X102100000Y-126448000D01*
X102100000Y-126448000D02*
X101900000Y-126448000D01*
X103900000Y-126448000D02*
X103900000Y-125948000D01*
X104000000Y-125948000D02*
X104000000Y-126448000D01*
X104100000Y-125948000D02*
X104100000Y-126448000D01*
X104100000Y-126448000D02*
X103900000Y-126448000D01*
X105900000Y-126448000D02*
X105900000Y-125948000D01*
X106000000Y-125948000D02*
X106000000Y-126448000D01*
X106100000Y-125948000D02*
X106100000Y-126448000D01*
X106100000Y-126448000D02*
X105900000Y-126448000D01*
X106500000Y-129448000D02*
X108450000Y-129448000D01*
X106500000Y-130058000D02*
X106500000Y-129448000D01*
X107300000Y-130058000D02*
X107300000Y-130258000D01*
X107300000Y-130158000D02*
X107600000Y-130158000D01*
X107300000Y-130258000D02*
X107600000Y-130258000D01*
X107600000Y-130258000D02*
X107600000Y-130058000D01*
X108110000Y-130358000D02*
X109360000Y-130358000D01*
X108450000Y-125948000D02*
X91550000Y-125948000D01*
X108450000Y-129448000D02*
X108450000Y-125948000D01*
X109060000Y-125338000D02*
X90940000Y-125338000D01*
X109060000Y-127448000D02*
X108450000Y-127448000D01*
X109060000Y-128748000D02*
X108450000Y-128748000D01*
X109060000Y-130058000D02*
X109060000Y-125338000D01*
X109360000Y-130358000D02*
X109360000Y-129108000D01*
%TO.C,U3*%
X120548400Y-96895200D02*
X118598400Y-96895200D01*
X120548400Y-96895200D02*
X122498400Y-96895200D01*
X120548400Y-102015200D02*
X118598400Y-102015200D01*
X120548400Y-102015200D02*
X122498400Y-102015200D01*
X117848400Y-96990200D02*
X117608400Y-96660200D01*
X118088400Y-96660200D01*
X117848400Y-96990200D01*
G36*
X117848400Y-96990200D02*
G01*
X117608400Y-96660200D01*
X118088400Y-96660200D01*
X117848400Y-96990200D01*
G37*
%TO.C,J1*%
X74300500Y-105964000D02*
X74300500Y-103464000D01*
X74000500Y-105664000D02*
X74000500Y-92944000D01*
X74000500Y-92944000D02*
X69980500Y-92944000D01*
X72500500Y-105664000D02*
X72500500Y-104664000D01*
X72500500Y-104664000D02*
X74000500Y-104664000D01*
X72500500Y-93944000D02*
X74000500Y-93944000D01*
X72500500Y-92944000D02*
X72500500Y-93944000D01*
X71800500Y-105964000D02*
X74300500Y-105964000D01*
X71690500Y-105664000D02*
X71690500Y-105164000D01*
X71690500Y-105164000D02*
X70480500Y-105164000D01*
X71690500Y-93444000D02*
X71690500Y-92944000D01*
X70480500Y-105164000D02*
X70480500Y-93444000D01*
X70480500Y-93444000D02*
X71690500Y-93444000D01*
X69980500Y-105664000D02*
X74000500Y-105664000D01*
X69980500Y-92944000D02*
X69980500Y-105664000D01*
%TO.C,C11*%
X113409000Y-105124467D02*
X113409000Y-104831933D01*
X114429000Y-105124467D02*
X114429000Y-104831933D01*
%TO.C,R9*%
X89601664Y-109808600D02*
X88147536Y-109808600D01*
X89601664Y-111628600D02*
X88147536Y-111628600D01*
%TO.C,U2*%
X112925200Y-109013600D02*
X112925200Y-109463600D01*
X112925200Y-116233600D02*
X112925200Y-115783600D01*
X113375200Y-109013600D02*
X112925200Y-109013600D01*
X113375200Y-116233600D02*
X112925200Y-116233600D01*
X119695200Y-109013600D02*
X120145200Y-109013600D01*
X119695200Y-116233600D02*
X120145200Y-116233600D01*
X120145200Y-109013600D02*
X120145200Y-109463600D01*
X120145200Y-116233600D02*
X120145200Y-115783600D01*
X121075200Y-116253600D02*
X120395200Y-116253600D01*
X120735200Y-115783600D01*
X121075200Y-116253600D01*
G36*
X121075200Y-116253600D02*
G01*
X120395200Y-116253600D01*
X120735200Y-115783600D01*
X121075200Y-116253600D01*
G37*
%TO.C,R11*%
X89601664Y-99851800D02*
X88147536Y-99851800D01*
X89601664Y-101671800D02*
X88147536Y-101671800D01*
D15*
%TO.C,Q3*%
X85188800Y-96525800D02*
G75*
G02*
X85188800Y-96325800I0J100000D01*
G01*
X85188800Y-96325800D02*
G75*
G02*
X85188800Y-96525800I0J-100000D01*
G01*
X85188800Y-96525800D02*
X85188800Y-96525800D01*
X85188800Y-96325800D02*
X85188800Y-96325800D01*
D14*
X84338800Y-92075800D02*
X83388800Y-92075800D01*
X83388800Y-96975800D02*
X84338800Y-96975800D01*
X78438800Y-96975800D02*
X78888800Y-96975800D01*
X78438800Y-92075800D02*
X78888800Y-92075800D01*
D13*
%TO.C,C30*%
X103694620Y-89304400D02*
X103975780Y-89304400D01*
X103694620Y-90324400D02*
X103975780Y-90324400D01*
%TO.C,R19*%
X89525464Y-89996600D02*
X88071336Y-89996600D01*
X89525464Y-91816600D02*
X88071336Y-91816600D01*
D15*
%TO.C,Q2*%
X85239600Y-106406400D02*
G75*
G02*
X85239600Y-106206400I0J100000D01*
G01*
X85239600Y-106206400D02*
G75*
G02*
X85239600Y-106406400I0J-100000D01*
G01*
X85239600Y-106406400D02*
X85239600Y-106406400D01*
X85239600Y-106206400D02*
X85239600Y-106206400D01*
D14*
X84389600Y-101956400D02*
X83439600Y-101956400D01*
X83439600Y-106856400D02*
X84389600Y-106856400D01*
X78489600Y-106856400D02*
X78939600Y-106856400D01*
X78489600Y-101956400D02*
X78939600Y-101956400D01*
D13*
%TO.C,R1*%
X114408600Y-83592124D02*
X114408600Y-83082676D01*
X115453600Y-83592124D02*
X115453600Y-83082676D01*
%TO.C,R5*%
X113980700Y-94564924D02*
X113980700Y-94055476D01*
X115025700Y-94564924D02*
X115025700Y-94055476D01*
%TO.C,C7*%
X118535667Y-118133400D02*
X118243133Y-118133400D01*
X118535667Y-119153400D02*
X118243133Y-119153400D01*
D16*
%TO.C,U1*%
X122624498Y-84917000D02*
X122824498Y-84917000D01*
X122624498Y-81567000D02*
X122824498Y-81567000D01*
X119024500Y-84917000D02*
X119224500Y-84917000D01*
X119024500Y-81567000D02*
X120324500Y-81567000D01*
D13*
%TO.C,J2*%
X125340000Y-93940000D02*
X125340000Y-106060000D01*
X125340000Y-106060000D02*
X130060000Y-106060000D01*
X125950000Y-94550000D02*
X125950000Y-105450000D01*
X125950000Y-96900000D02*
X126450000Y-96900000D01*
X125950000Y-97000000D02*
X126450000Y-97000000D01*
X125950000Y-98900000D02*
X126450000Y-98900000D01*
X125950000Y-99000000D02*
X126450000Y-99000000D01*
X125950000Y-100900000D02*
X126450000Y-100900000D01*
X125950000Y-101000000D02*
X126450000Y-101000000D01*
X125950000Y-102900000D02*
X126450000Y-102900000D01*
X125950000Y-103000000D02*
X126450000Y-103000000D01*
X125950000Y-105450000D02*
X129450000Y-105450000D01*
X126450000Y-96900000D02*
X126450000Y-97100000D01*
X126450000Y-97100000D02*
X125950000Y-97100000D01*
X126450000Y-98900000D02*
X126450000Y-99100000D01*
X126450000Y-99100000D02*
X125950000Y-99100000D01*
X126450000Y-100900000D02*
X126450000Y-101100000D01*
X126450000Y-101100000D02*
X125950000Y-101100000D01*
X126450000Y-102900000D02*
X126450000Y-103100000D01*
X126450000Y-103100000D02*
X125950000Y-103100000D01*
X127450000Y-93940000D02*
X127450000Y-94550000D01*
X127450000Y-106060000D02*
X127450000Y-105450000D01*
X128750000Y-93940000D02*
X128750000Y-94550000D01*
X128750000Y-106060000D02*
X128750000Y-105450000D01*
X129450000Y-94550000D02*
X125950000Y-94550000D01*
X129450000Y-96500000D02*
X129450000Y-94550000D01*
X129450000Y-103500000D02*
X130060000Y-103500000D01*
X129450000Y-105450000D02*
X129450000Y-103500000D01*
X130060000Y-93940000D02*
X125340000Y-93940000D01*
X130060000Y-95700000D02*
X130260000Y-95700000D01*
X130060000Y-96500000D02*
X129450000Y-96500000D01*
X130060000Y-106060000D02*
X130060000Y-93940000D01*
X130160000Y-95700000D02*
X130160000Y-95400000D01*
X130260000Y-95400000D02*
X130060000Y-95400000D01*
X130260000Y-95700000D02*
X130260000Y-95400000D01*
X130360000Y-93640000D02*
X129110000Y-93640000D01*
X130360000Y-94890000D02*
X130360000Y-93640000D01*
%TO.C,C9*%
X117015800Y-94501580D02*
X117015800Y-94220420D01*
X118035800Y-94501580D02*
X118035800Y-94220420D01*
%TO.C,C2*%
X124568833Y-108252800D02*
X124861367Y-108252800D01*
X124568833Y-109272800D02*
X124861367Y-109272800D01*
%TO.C,C31*%
X103975780Y-90828400D02*
X103694620Y-90828400D01*
X103975780Y-91848400D02*
X103694620Y-91848400D01*
%TO.C,C3*%
X121491552Y-85447200D02*
X120969048Y-85447200D01*
X121491552Y-86917200D02*
X120969048Y-86917200D01*
%TO.C,D1*%
X115172500Y-86637800D02*
X117632500Y-86637800D01*
X117632500Y-85167800D02*
X115172500Y-85167800D01*
X117632500Y-86637800D02*
X117632500Y-85167800D01*
%TO.C,C12*%
X95384252Y-99264800D02*
X94861748Y-99264800D01*
X95384252Y-100734800D02*
X94861748Y-100734800D01*
%TO.C,R24*%
X110892258Y-91145700D02*
X110417742Y-91145700D01*
X110892258Y-92190700D02*
X110417742Y-92190700D01*
D15*
%TO.C,Q4*%
X85188800Y-86442000D02*
G75*
G02*
X85188800Y-86242000I0J100000D01*
G01*
X85188800Y-86242000D02*
G75*
G02*
X85188800Y-86442000I0J-100000D01*
G01*
X85188800Y-86442000D02*
X85188800Y-86442000D01*
X85188800Y-86242000D02*
X85188800Y-86242000D01*
D14*
X84338800Y-81992000D02*
X83388800Y-81992000D01*
X83388800Y-86892000D02*
X84338800Y-86892000D01*
X78438800Y-86892000D02*
X78888800Y-86892000D01*
X78438800Y-81992000D02*
X78888800Y-81992000D01*
D13*
%TO.C,R39*%
X127105142Y-92365300D02*
X127579658Y-92365300D01*
X127105142Y-93410300D02*
X127579658Y-93410300D01*
%TO.C,R8*%
X89601664Y-114710800D02*
X88147536Y-114710800D01*
X89601664Y-116530800D02*
X88147536Y-116530800D01*
%TO.C,C22*%
X92551277Y-84596800D02*
X92551277Y-83398800D01*
X92591277Y-84859800D02*
X92591277Y-83135800D01*
X92631277Y-85059800D02*
X92631277Y-82935800D01*
X92671277Y-85227800D02*
X92671277Y-82767800D01*
X92711277Y-85375800D02*
X92711277Y-82619800D01*
X92751277Y-85507800D02*
X92751277Y-82487800D01*
X92791277Y-85627800D02*
X92791277Y-82367800D01*
X92831277Y-85739800D02*
X92831277Y-82255800D01*
X92871277Y-85843800D02*
X92871277Y-82151800D01*
X92911277Y-85941800D02*
X92911277Y-82053800D01*
X92951277Y-86034800D02*
X92951277Y-81960800D01*
X92991277Y-86122800D02*
X92991277Y-81872800D01*
X93031277Y-86206800D02*
X93031277Y-81788800D01*
X93071277Y-86286800D02*
X93071277Y-81708800D01*
X93111277Y-86362800D02*
X93111277Y-81632800D01*
X93151277Y-86436800D02*
X93151277Y-81558800D01*
X93191277Y-86507800D02*
X93191277Y-81487800D01*
X93231277Y-86576800D02*
X93231277Y-81418800D01*
X93271277Y-86642800D02*
X93271277Y-81352800D01*
X93311277Y-86706800D02*
X93311277Y-81288800D01*
X93351277Y-86767800D02*
X93351277Y-81227800D01*
X93391277Y-86827800D02*
X93391277Y-81167800D01*
X93431277Y-86886800D02*
X93431277Y-81108800D01*
X93471277Y-86942800D02*
X93471277Y-81052800D01*
X93511277Y-86997800D02*
X93511277Y-80997800D01*
X93551277Y-87051800D02*
X93551277Y-80943800D01*
X93591277Y-87103800D02*
X93591277Y-80891800D01*
X93631277Y-87153800D02*
X93631277Y-80841800D01*
X93671277Y-87203800D02*
X93671277Y-80791800D01*
X93711277Y-87251800D02*
X93711277Y-80743800D01*
X93751277Y-87298800D02*
X93751277Y-80696800D01*
X93791277Y-87344800D02*
X93791277Y-80650800D01*
X93831277Y-87389800D02*
X93831277Y-80605800D01*
X93871277Y-87433800D02*
X93871277Y-80561800D01*
X93911277Y-82756800D02*
X93911277Y-80519800D01*
X93911277Y-87475800D02*
X93911277Y-85238800D01*
X93951277Y-82756800D02*
X93951277Y-80477800D01*
X93951277Y-87517800D02*
X93951277Y-85238800D01*
X93991277Y-82756800D02*
X93991277Y-80436800D01*
X93991277Y-87558800D02*
X93991277Y-85238800D01*
X94031277Y-82756800D02*
X94031277Y-80396800D01*
X94031277Y-87598800D02*
X94031277Y-85238800D01*
X94071277Y-82756800D02*
X94071277Y-80357800D01*
X94071277Y-87637800D02*
X94071277Y-85238800D01*
X94111277Y-82756800D02*
X94111277Y-80318800D01*
X94111277Y-87676800D02*
X94111277Y-85238800D01*
X94151277Y-82756800D02*
X94151277Y-80281800D01*
X94151277Y-87713800D02*
X94151277Y-85238800D01*
X94191277Y-82756800D02*
X94191277Y-80244800D01*
X94191277Y-87750800D02*
X94191277Y-85238800D01*
X94231277Y-82756800D02*
X94231277Y-80208800D01*
X94231277Y-87786800D02*
X94231277Y-85238800D01*
X94271277Y-82756800D02*
X94271277Y-80173800D01*
X94271277Y-87821800D02*
X94271277Y-85238800D01*
X94311277Y-82756800D02*
X94311277Y-80139800D01*
X94311277Y-87855800D02*
X94311277Y-85238800D01*
X94351277Y-82756800D02*
X94351277Y-80105800D01*
X94351277Y-87889800D02*
X94351277Y-85238800D01*
X94391277Y-82756800D02*
X94391277Y-80072800D01*
X94391277Y-87922800D02*
X94391277Y-85238800D01*
X94431277Y-82756800D02*
X94431277Y-80040800D01*
X94431277Y-87954800D02*
X94431277Y-85238800D01*
X94471277Y-82756800D02*
X94471277Y-80008800D01*
X94471277Y-87986800D02*
X94471277Y-85238800D01*
X94511277Y-82756800D02*
X94511277Y-79977800D01*
X94511277Y-88017800D02*
X94511277Y-85238800D01*
X94551277Y-82756800D02*
X94551277Y-79947800D01*
X94551277Y-88047800D02*
X94551277Y-85238800D01*
X94591277Y-82756800D02*
X94591277Y-79917800D01*
X94591277Y-88077800D02*
X94591277Y-85238800D01*
X94631277Y-82756800D02*
X94631277Y-79887800D01*
X94631277Y-88107800D02*
X94631277Y-85238800D01*
X94671277Y-82756800D02*
X94671277Y-79859800D01*
X94671277Y-88135800D02*
X94671277Y-85238800D01*
X94711277Y-82756800D02*
X94711277Y-79831800D01*
X94711277Y-88163800D02*
X94711277Y-85238800D01*
X94751277Y-82756800D02*
X94751277Y-79803800D01*
X94751277Y-88191800D02*
X94751277Y-85238800D01*
X94791277Y-82756800D02*
X94791277Y-79776800D01*
X94791277Y-88218800D02*
X94791277Y-85238800D01*
X94831277Y-82756800D02*
X94831277Y-79750800D01*
X94831277Y-88244800D02*
X94831277Y-85238800D01*
X94871277Y-82756800D02*
X94871277Y-79724800D01*
X94871277Y-88270800D02*
X94871277Y-85238800D01*
X94911277Y-82756800D02*
X94911277Y-79699800D01*
X94911277Y-88295800D02*
X94911277Y-85238800D01*
X94951277Y-82756800D02*
X94951277Y-79674800D01*
X94951277Y-88320800D02*
X94951277Y-85238800D01*
X94991277Y-82756800D02*
X94991277Y-79650800D01*
X94991277Y-88344800D02*
X94991277Y-85238800D01*
X95031277Y-82756800D02*
X95031277Y-79626800D01*
X95031277Y-88368800D02*
X95031277Y-85238800D01*
X95071277Y-82756800D02*
X95071277Y-79602800D01*
X95071277Y-88392800D02*
X95071277Y-85238800D01*
X95111277Y-82756800D02*
X95111277Y-79580800D01*
X95111277Y-88414800D02*
X95111277Y-85238800D01*
X95151277Y-82756800D02*
X95151277Y-79557800D01*
X95151277Y-88437800D02*
X95151277Y-85238800D01*
X95191277Y-82756800D02*
X95191277Y-79535800D01*
X95191277Y-88459800D02*
X95191277Y-85238800D01*
X95231277Y-82756800D02*
X95231277Y-79514800D01*
X95231277Y-88480800D02*
X95231277Y-85238800D01*
X95271277Y-82756800D02*
X95271277Y-79493800D01*
X95271277Y-88501800D02*
X95271277Y-85238800D01*
X95311277Y-82756800D02*
X95311277Y-79472800D01*
X95311277Y-88522800D02*
X95311277Y-85238800D01*
X95351277Y-82756800D02*
X95351277Y-79452800D01*
X95351277Y-88542800D02*
X95351277Y-85238800D01*
X95391277Y-82756800D02*
X95391277Y-79433800D01*
X95391277Y-88561800D02*
X95391277Y-85238800D01*
X95431277Y-82756800D02*
X95431277Y-79413800D01*
X95431277Y-88581800D02*
X95431277Y-85238800D01*
X95471277Y-82756800D02*
X95471277Y-79394800D01*
X95471277Y-88600800D02*
X95471277Y-85238800D01*
X95511277Y-82756800D02*
X95511277Y-79376800D01*
X95511277Y-88618800D02*
X95511277Y-85238800D01*
X95551277Y-82756800D02*
X95551277Y-79358800D01*
X95551277Y-88636800D02*
X95551277Y-85238800D01*
X95591277Y-82756800D02*
X95591277Y-79340800D01*
X95591277Y-88654800D02*
X95591277Y-85238800D01*
X95631277Y-82756800D02*
X95631277Y-79323800D01*
X95631277Y-88671800D02*
X95631277Y-85238800D01*
X95671277Y-82756800D02*
X95671277Y-79307800D01*
X95671277Y-88687800D02*
X95671277Y-85238800D01*
X95711277Y-82756800D02*
X95711277Y-79290800D01*
X95711277Y-88704800D02*
X95711277Y-85238800D01*
X95751277Y-82756800D02*
X95751277Y-79274800D01*
X95751277Y-88720800D02*
X95751277Y-85238800D01*
X95791277Y-82756800D02*
X95791277Y-79259800D01*
X95791277Y-88735800D02*
X95791277Y-85238800D01*
X95831277Y-82756800D02*
X95831277Y-79243800D01*
X95831277Y-88751800D02*
X95831277Y-85238800D01*
X95871277Y-82756800D02*
X95871277Y-79229800D01*
X95871277Y-88765800D02*
X95871277Y-85238800D01*
X95911277Y-82756800D02*
X95911277Y-79214800D01*
X95911277Y-88780800D02*
X95911277Y-85238800D01*
X95951277Y-82756800D02*
X95951277Y-79200800D01*
X95951277Y-88794800D02*
X95951277Y-85238800D01*
X95991277Y-82756800D02*
X95991277Y-79186800D01*
X95991277Y-88808800D02*
X95991277Y-85238800D01*
X96031277Y-82756800D02*
X96031277Y-79173800D01*
X96031277Y-88821800D02*
X96031277Y-85238800D01*
X96071277Y-82756800D02*
X96071277Y-79160800D01*
X96071277Y-88834800D02*
X96071277Y-85238800D01*
X96111277Y-82756800D02*
X96111277Y-79147800D01*
X96111277Y-88847800D02*
X96111277Y-85238800D01*
X96151277Y-82756800D02*
X96151277Y-79135800D01*
X96151277Y-88859800D02*
X96151277Y-85238800D01*
X96191277Y-82756800D02*
X96191277Y-79123800D01*
X96191277Y-88871800D02*
X96191277Y-85238800D01*
X96231277Y-82756800D02*
X96231277Y-79112800D01*
X96231277Y-88882800D02*
X96231277Y-85238800D01*
X96271277Y-82756800D02*
X96271277Y-79100800D01*
X96271277Y-88894800D02*
X96271277Y-85238800D01*
X96311277Y-82756800D02*
X96311277Y-79090800D01*
X96311277Y-88904800D02*
X96311277Y-85238800D01*
X96351277Y-82756800D02*
X96351277Y-79079800D01*
X96351277Y-88915800D02*
X96351277Y-85238800D01*
X96391277Y-88925800D02*
X96391277Y-79069800D01*
X96431277Y-88935800D02*
X96431277Y-79059800D01*
X96471277Y-88944800D02*
X96471277Y-79050800D01*
X96511277Y-88953800D02*
X96511277Y-79041800D01*
X96551277Y-88962800D02*
X96551277Y-79032800D01*
X96591277Y-88971800D02*
X96591277Y-79023800D01*
X96631277Y-88979800D02*
X96631277Y-79015800D01*
X96671277Y-88987800D02*
X96671277Y-79007800D01*
X96711277Y-88994800D02*
X96711277Y-79000800D01*
X96751277Y-89001800D02*
X96751277Y-78993800D01*
X96791277Y-89008800D02*
X96791277Y-78986800D01*
X96831277Y-89015800D02*
X96831277Y-78979800D01*
X96871277Y-89021800D02*
X96871277Y-78973800D01*
X96911277Y-89027800D02*
X96911277Y-78967800D01*
X96952277Y-89032800D02*
X96952277Y-78962800D01*
X96992277Y-89037800D02*
X96992277Y-78957800D01*
X97032277Y-89042800D02*
X97032277Y-78952800D01*
X97072277Y-89047800D02*
X97072277Y-78947800D01*
X97112277Y-89051800D02*
X97112277Y-78943800D01*
X97152277Y-89055800D02*
X97152277Y-78939800D01*
X97192277Y-89059800D02*
X97192277Y-78935800D01*
X97232277Y-89062800D02*
X97232277Y-78932800D01*
X97272277Y-89065800D02*
X97272277Y-78929800D01*
X97312277Y-89067800D02*
X97312277Y-78927800D01*
X97352277Y-89070800D02*
X97352277Y-78924800D01*
X97392277Y-89072800D02*
X97392277Y-78922800D01*
X97432277Y-89074800D02*
X97432277Y-78920800D01*
X97472277Y-89075800D02*
X97472277Y-78919800D01*
X97512277Y-89076800D02*
X97512277Y-78918800D01*
X97552277Y-89077800D02*
X97552277Y-78917800D01*
X97592277Y-89077800D02*
X97592277Y-78917800D01*
X97632277Y-89077800D02*
X97632277Y-78917800D01*
X102611923Y-87372800D02*
X102611923Y-86372800D01*
X103111923Y-86872800D02*
X102111923Y-86872800D01*
X102752277Y-83997800D02*
G75*
G02*
X92512277Y-83997800I-5120000J0D01*
G01*
X92512277Y-83997800D02*
G75*
G02*
X102752277Y-83997800I5120000J0D01*
G01*
%TO.C,C14*%
X101251652Y-103532000D02*
X100729148Y-103532000D01*
X101251652Y-105002000D02*
X100729148Y-105002000D01*
%TO.C,R27*%
X112098858Y-94600500D02*
X111624342Y-94600500D01*
X112098858Y-95645500D02*
X111624342Y-95645500D01*
%TO.C,J7*%
X106112000Y-121606000D02*
X106112000Y-124266000D01*
X116332000Y-121606000D02*
X106112000Y-121606000D01*
X116332000Y-121606000D02*
X116332000Y-124266000D01*
X116332000Y-124266000D02*
X106112000Y-124266000D01*
X117602000Y-121606000D02*
X118932000Y-121606000D01*
X118932000Y-121606000D02*
X118932000Y-122936000D01*
%TO.C,C26*%
X103655400Y-108332620D02*
X103655400Y-108613780D01*
X104675400Y-108332620D02*
X104675400Y-108613780D01*
%TO.C,C33*%
X112520000Y-98616380D02*
X112520000Y-98335220D01*
X113540000Y-98616380D02*
X113540000Y-98335220D01*
%TO.C,C27*%
X105208400Y-108501548D02*
X105208400Y-109024052D01*
X106678400Y-108501548D02*
X106678400Y-109024052D01*
%TO.C,R18*%
X89550864Y-94873400D02*
X88096736Y-94873400D01*
X89550864Y-96693400D02*
X88096736Y-96693400D01*
%TO.C,R25*%
X107062536Y-89511200D02*
X107516664Y-89511200D01*
X107062536Y-90981200D02*
X107516664Y-90981200D01*
%TO.C,R21*%
X89500064Y-79989000D02*
X88045936Y-79989000D01*
X89500064Y-81809000D02*
X88045936Y-81809000D01*
%TO.C,R2*%
X126842376Y-116977900D02*
X127351824Y-116977900D01*
X126842376Y-118022900D02*
X127351824Y-118022900D01*
%TO.C,C23*%
X102785954Y-81122800D02*
X103785954Y-81122800D01*
X103285954Y-80622800D02*
X103285954Y-81622800D01*
X108265600Y-78917800D02*
X108265600Y-89077800D01*
X108305600Y-78917800D02*
X108305600Y-89077800D01*
X108345600Y-78917800D02*
X108345600Y-89077800D01*
X108385600Y-78918800D02*
X108385600Y-89076800D01*
X108425600Y-78919800D02*
X108425600Y-89075800D01*
X108465600Y-78920800D02*
X108465600Y-89074800D01*
X108505600Y-78922800D02*
X108505600Y-89072800D01*
X108545600Y-78924800D02*
X108545600Y-89070800D01*
X108585600Y-78927800D02*
X108585600Y-89067800D01*
X108625600Y-78929800D02*
X108625600Y-89065800D01*
X108665600Y-78932800D02*
X108665600Y-89062800D01*
X108705600Y-78935800D02*
X108705600Y-89059800D01*
X108745600Y-78939800D02*
X108745600Y-89055800D01*
X108785600Y-78943800D02*
X108785600Y-89051800D01*
X108825600Y-78947800D02*
X108825600Y-89047800D01*
X108865600Y-78952800D02*
X108865600Y-89042800D01*
X108905600Y-78957800D02*
X108905600Y-89037800D01*
X108945600Y-78962800D02*
X108945600Y-89032800D01*
X108986600Y-78967800D02*
X108986600Y-89027800D01*
X109026600Y-78973800D02*
X109026600Y-89021800D01*
X109066600Y-78979800D02*
X109066600Y-89015800D01*
X109106600Y-78986800D02*
X109106600Y-89008800D01*
X109146600Y-78993800D02*
X109146600Y-89001800D01*
X109186600Y-79000800D02*
X109186600Y-88994800D01*
X109226600Y-79007800D02*
X109226600Y-88987800D01*
X109266600Y-79015800D02*
X109266600Y-88979800D01*
X109306600Y-79023800D02*
X109306600Y-88971800D01*
X109346600Y-79032800D02*
X109346600Y-88962800D01*
X109386600Y-79041800D02*
X109386600Y-88953800D01*
X109426600Y-79050800D02*
X109426600Y-88944800D01*
X109466600Y-79059800D02*
X109466600Y-88935800D01*
X109506600Y-79069800D02*
X109506600Y-88925800D01*
X109546600Y-79079800D02*
X109546600Y-82756800D01*
X109546600Y-85238800D02*
X109546600Y-88915800D01*
X109586600Y-79090800D02*
X109586600Y-82756800D01*
X109586600Y-85238800D02*
X109586600Y-88904800D01*
X109626600Y-79100800D02*
X109626600Y-82756800D01*
X109626600Y-85238800D02*
X109626600Y-88894800D01*
X109666600Y-79112800D02*
X109666600Y-82756800D01*
X109666600Y-85238800D02*
X109666600Y-88882800D01*
X109706600Y-79123800D02*
X109706600Y-82756800D01*
X109706600Y-85238800D02*
X109706600Y-88871800D01*
X109746600Y-79135800D02*
X109746600Y-82756800D01*
X109746600Y-85238800D02*
X109746600Y-88859800D01*
X109786600Y-79147800D02*
X109786600Y-82756800D01*
X109786600Y-85238800D02*
X109786600Y-88847800D01*
X109826600Y-79160800D02*
X109826600Y-82756800D01*
X109826600Y-85238800D02*
X109826600Y-88834800D01*
X109866600Y-79173800D02*
X109866600Y-82756800D01*
X109866600Y-85238800D02*
X109866600Y-88821800D01*
X109906600Y-79186800D02*
X109906600Y-82756800D01*
X109906600Y-85238800D02*
X109906600Y-88808800D01*
X109946600Y-79200800D02*
X109946600Y-82756800D01*
X109946600Y-85238800D02*
X109946600Y-88794800D01*
X109986600Y-79214800D02*
X109986600Y-82756800D01*
X109986600Y-85238800D02*
X109986600Y-88780800D01*
X110026600Y-79229800D02*
X110026600Y-82756800D01*
X110026600Y-85238800D02*
X110026600Y-88765800D01*
X110066600Y-79243800D02*
X110066600Y-82756800D01*
X110066600Y-85238800D02*
X110066600Y-88751800D01*
X110106600Y-79259800D02*
X110106600Y-82756800D01*
X110106600Y-85238800D02*
X110106600Y-88735800D01*
X110146600Y-79274800D02*
X110146600Y-82756800D01*
X110146600Y-85238800D02*
X110146600Y-88720800D01*
X110186600Y-79290800D02*
X110186600Y-82756800D01*
X110186600Y-85238800D02*
X110186600Y-88704800D01*
X110226600Y-79307800D02*
X110226600Y-82756800D01*
X110226600Y-85238800D02*
X110226600Y-88687800D01*
X110266600Y-79323800D02*
X110266600Y-82756800D01*
X110266600Y-85238800D02*
X110266600Y-88671800D01*
X110306600Y-79340800D02*
X110306600Y-82756800D01*
X110306600Y-85238800D02*
X110306600Y-88654800D01*
X110346600Y-79358800D02*
X110346600Y-82756800D01*
X110346600Y-85238800D02*
X110346600Y-88636800D01*
X110386600Y-79376800D02*
X110386600Y-82756800D01*
X110386600Y-85238800D02*
X110386600Y-88618800D01*
X110426600Y-79394800D02*
X110426600Y-82756800D01*
X110426600Y-85238800D02*
X110426600Y-88600800D01*
X110466600Y-79413800D02*
X110466600Y-82756800D01*
X110466600Y-85238800D02*
X110466600Y-88581800D01*
X110506600Y-79433800D02*
X110506600Y-82756800D01*
X110506600Y-85238800D02*
X110506600Y-88561800D01*
X110546600Y-79452800D02*
X110546600Y-82756800D01*
X110546600Y-85238800D02*
X110546600Y-88542800D01*
X110586600Y-79472800D02*
X110586600Y-82756800D01*
X110586600Y-85238800D02*
X110586600Y-88522800D01*
X110626600Y-79493800D02*
X110626600Y-82756800D01*
X110626600Y-85238800D02*
X110626600Y-88501800D01*
X110666600Y-79514800D02*
X110666600Y-82756800D01*
X110666600Y-85238800D02*
X110666600Y-88480800D01*
X110706600Y-79535800D02*
X110706600Y-82756800D01*
X110706600Y-85238800D02*
X110706600Y-88459800D01*
X110746600Y-79557800D02*
X110746600Y-82756800D01*
X110746600Y-85238800D02*
X110746600Y-88437800D01*
X110786600Y-79580800D02*
X110786600Y-82756800D01*
X110786600Y-85238800D02*
X110786600Y-88414800D01*
X110826600Y-79602800D02*
X110826600Y-82756800D01*
X110826600Y-85238800D02*
X110826600Y-88392800D01*
X110866600Y-79626800D02*
X110866600Y-82756800D01*
X110866600Y-85238800D02*
X110866600Y-88368800D01*
X110906600Y-79650800D02*
X110906600Y-82756800D01*
X110906600Y-85238800D02*
X110906600Y-88344800D01*
X110946600Y-79674800D02*
X110946600Y-82756800D01*
X110946600Y-85238800D02*
X110946600Y-88320800D01*
X110986600Y-79699800D02*
X110986600Y-82756800D01*
X110986600Y-85238800D02*
X110986600Y-88295800D01*
X111026600Y-79724800D02*
X111026600Y-82756800D01*
X111026600Y-85238800D02*
X111026600Y-88270800D01*
X111066600Y-79750800D02*
X111066600Y-82756800D01*
X111066600Y-85238800D02*
X111066600Y-88244800D01*
X111106600Y-79776800D02*
X111106600Y-82756800D01*
X111106600Y-85238800D02*
X111106600Y-88218800D01*
X111146600Y-79803800D02*
X111146600Y-82756800D01*
X111146600Y-85238800D02*
X111146600Y-88191800D01*
X111186600Y-79831800D02*
X111186600Y-82756800D01*
X111186600Y-85238800D02*
X111186600Y-88163800D01*
X111226600Y-79859800D02*
X111226600Y-82756800D01*
X111226600Y-85238800D02*
X111226600Y-88135800D01*
X111266600Y-79887800D02*
X111266600Y-82756800D01*
X111266600Y-85238800D02*
X111266600Y-88107800D01*
X111306600Y-79917800D02*
X111306600Y-82756800D01*
X111306600Y-85238800D02*
X111306600Y-88077800D01*
X111346600Y-79947800D02*
X111346600Y-82756800D01*
X111346600Y-85238800D02*
X111346600Y-88047800D01*
X111386600Y-79977800D02*
X111386600Y-82756800D01*
X111386600Y-85238800D02*
X111386600Y-88017800D01*
X111426600Y-80008800D02*
X111426600Y-82756800D01*
X111426600Y-85238800D02*
X111426600Y-87986800D01*
X111466600Y-80040800D02*
X111466600Y-82756800D01*
X111466600Y-85238800D02*
X111466600Y-87954800D01*
X111506600Y-80072800D02*
X111506600Y-82756800D01*
X111506600Y-85238800D02*
X111506600Y-87922800D01*
X111546600Y-80105800D02*
X111546600Y-82756800D01*
X111546600Y-85238800D02*
X111546600Y-87889800D01*
X111586600Y-80139800D02*
X111586600Y-82756800D01*
X111586600Y-85238800D02*
X111586600Y-87855800D01*
X111626600Y-80173800D02*
X111626600Y-82756800D01*
X111626600Y-85238800D02*
X111626600Y-87821800D01*
X111666600Y-80208800D02*
X111666600Y-82756800D01*
X111666600Y-85238800D02*
X111666600Y-87786800D01*
X111706600Y-80244800D02*
X111706600Y-82756800D01*
X111706600Y-85238800D02*
X111706600Y-87750800D01*
X111746600Y-80281800D02*
X111746600Y-82756800D01*
X111746600Y-85238800D02*
X111746600Y-87713800D01*
X111786600Y-80318800D02*
X111786600Y-82756800D01*
X111786600Y-85238800D02*
X111786600Y-87676800D01*
X111826600Y-80357800D02*
X111826600Y-82756800D01*
X111826600Y-85238800D02*
X111826600Y-87637800D01*
X111866600Y-80396800D02*
X111866600Y-82756800D01*
X111866600Y-85238800D02*
X111866600Y-87598800D01*
X111906600Y-80436800D02*
X111906600Y-82756800D01*
X111906600Y-85238800D02*
X111906600Y-87558800D01*
X111946600Y-80477800D02*
X111946600Y-82756800D01*
X111946600Y-85238800D02*
X111946600Y-87517800D01*
X111986600Y-80519800D02*
X111986600Y-82756800D01*
X111986600Y-85238800D02*
X111986600Y-87475800D01*
X112026600Y-80561800D02*
X112026600Y-87433800D01*
X112066600Y-80605800D02*
X112066600Y-87389800D01*
X112106600Y-80650800D02*
X112106600Y-87344800D01*
X112146600Y-80696800D02*
X112146600Y-87298800D01*
X112186600Y-80743800D02*
X112186600Y-87251800D01*
X112226600Y-80791800D02*
X112226600Y-87203800D01*
X112266600Y-80841800D02*
X112266600Y-87153800D01*
X112306600Y-80891800D02*
X112306600Y-87103800D01*
X112346600Y-80943800D02*
X112346600Y-87051800D01*
X112386600Y-80997800D02*
X112386600Y-86997800D01*
X112426600Y-81052800D02*
X112426600Y-86942800D01*
X112466600Y-81108800D02*
X112466600Y-86886800D01*
X112506600Y-81167800D02*
X112506600Y-86827800D01*
X112546600Y-81227800D02*
X112546600Y-86767800D01*
X112586600Y-81288800D02*
X112586600Y-86706800D01*
X112626600Y-81352800D02*
X112626600Y-86642800D01*
X112666600Y-81418800D02*
X112666600Y-86576800D01*
X112706600Y-81487800D02*
X112706600Y-86507800D01*
X112746600Y-81558800D02*
X112746600Y-86436800D01*
X112786600Y-81632800D02*
X112786600Y-86362800D01*
X112826600Y-81708800D02*
X112826600Y-86286800D01*
X112866600Y-81788800D02*
X112866600Y-86206800D01*
X112906600Y-81872800D02*
X112906600Y-86122800D01*
X112946600Y-81960800D02*
X112946600Y-86034800D01*
X112986600Y-82053800D02*
X112986600Y-85941800D01*
X113026600Y-82151800D02*
X113026600Y-85843800D01*
X113066600Y-82255800D02*
X113066600Y-85739800D01*
X113106600Y-82367800D02*
X113106600Y-85627800D01*
X113146600Y-82487800D02*
X113146600Y-85507800D01*
X113186600Y-82619800D02*
X113186600Y-85375800D01*
X113226600Y-82767800D02*
X113226600Y-85227800D01*
X113266600Y-82935800D02*
X113266600Y-85059800D01*
X113306600Y-83135800D02*
X113306600Y-84859800D01*
X113346600Y-83398800D02*
X113346600Y-84596800D01*
X113385600Y-83997800D02*
G75*
G02*
X103145600Y-83997800I-5120000J0D01*
G01*
X103145600Y-83997800D02*
G75*
G02*
X113385600Y-83997800I5120000J0D01*
G01*
%TO.C,C6*%
X127913820Y-111783400D02*
X128194980Y-111783400D01*
X127913820Y-112803400D02*
X128194980Y-112803400D01*
%TO.C,C5*%
X127913820Y-113332800D02*
X128194980Y-113332800D01*
X127913820Y-114352800D02*
X128194980Y-114352800D01*
%TO.C,R3*%
X127351824Y-115453900D02*
X126842376Y-115453900D01*
X127351824Y-116498900D02*
X126842376Y-116498900D01*
%TO.C,R20*%
X89525464Y-84815000D02*
X88071336Y-84815000D01*
X89525464Y-86635000D02*
X88071336Y-86635000D01*
D17*
%TO.C,U4*%
X103218300Y-96366591D02*
X103218300Y-96776351D01*
X103218300Y-103221231D02*
X103218300Y-103630991D01*
X103218300Y-103630991D02*
X103628060Y-103630991D01*
X103628060Y-96366591D02*
X103218300Y-96366591D01*
X110072940Y-103630991D02*
X110482700Y-103630991D01*
X110482700Y-96366591D02*
X110072940Y-96366591D01*
X110482700Y-96776351D02*
X110482700Y-96366591D01*
X110482700Y-103630991D02*
X110482700Y-103221231D01*
D18*
G36*
X101745100Y-98939291D02*
G01*
X101491100Y-98939291D01*
X101491100Y-98558291D01*
X101745100Y-98558291D01*
X101745100Y-98939291D01*
G37*
G36*
X107291000Y-94893391D02*
G01*
X106909999Y-94893391D01*
X106909999Y-94639391D01*
X107291000Y-94639391D01*
X107291000Y-94893391D01*
G37*
G36*
X108790999Y-105358191D02*
G01*
X108409999Y-105358191D01*
X108409999Y-105104191D01*
X108790999Y-105104191D01*
X108790999Y-105358191D01*
G37*
G36*
X112209900Y-99439290D02*
G01*
X111955900Y-99439290D01*
X111955900Y-99058290D01*
X112209900Y-99058290D01*
X112209900Y-99439290D01*
G37*
D13*
%TO.C,C25*%
X105677580Y-111834200D02*
X105396420Y-111834200D01*
X105677580Y-112854200D02*
X105396420Y-112854200D01*
%TO.C,C28*%
X101627000Y-107983348D02*
X101627000Y-108505852D01*
X103097000Y-107983348D02*
X103097000Y-108505852D01*
%TD*%
M02*
