%TF.GenerationSoftware,KiCad,Pcbnew,8.0.6*%
%TF.CreationDate,2025-12-29T11:58:41+02:00*%
%TF.ProjectId,TMCM_1260_alternative,544d434d-5f31-4323-9630-5f616c746572,rev?*%
%TF.SameCoordinates,Original*%
%TF.FileFunction,Soldermask,Bot*%
%TF.FilePolarity,Negative*%
%FSLAX46Y46*%
G04 Gerber Fmt 4.6, Leading zero omitted, Abs format (unit mm)*
G04 Created by KiCad (PCBNEW 8.0.6) date 2025-12-29 11:58:41*
%MOMM*%
%LPD*%
G01*
G04 APERTURE LIST*
G04 Aperture macros list*
%AMRoundRect*
0 Rectangle with rounded corners*
0 $1 Rounding radius*
0 $2 $3 $4 $5 $6 $7 $8 $9 X,Y pos of 4 corners*
0 Add a 4 corners polygon primitive as box body*
4,1,4,$2,$3,$4,$5,$6,$7,$8,$9,$2,$3,0*
0 Add four circle primitives for the rounded corners*
1,1,$1+$1,$2,$3*
1,1,$1+$1,$4,$5*
1,1,$1+$1,$6,$7*
1,1,$1+$1,$8,$9*
0 Add four rect primitives between the rounded corners*
20,1,$1+$1,$2,$3,$4,$5,0*
20,1,$1+$1,$4,$5,$6,$7,0*
20,1,$1+$1,$6,$7,$8,$9,0*
20,1,$1+$1,$8,$9,$2,$3,0*%
G04 Aperture macros list end*
%ADD10C,3.200000*%
%ADD11R,2.000000X2.000000*%
%ADD12C,2.000000*%
%ADD13O,1.100000X1.800000*%
%ADD14O,1.100000X2.200000*%
%ADD15RoundRect,0.250001X-1.099999X-1.099999X1.099999X-1.099999X1.099999X1.099999X-1.099999X1.099999X0*%
%ADD16C,2.700000*%
%ADD17RoundRect,0.250000X0.350000X0.625000X-0.350000X0.625000X-0.350000X-0.625000X0.350000X-0.625000X0*%
%ADD18O,1.200000X1.750000*%
%ADD19O,1.950000X1.700000*%
%ADD20RoundRect,0.250000X0.725000X-0.600000X0.725000X0.600000X-0.725000X0.600000X-0.725000X-0.600000X0*%
%ADD21C,0.499999*%
%ADD22RoundRect,0.250000X-0.625000X0.350000X-0.625000X-0.350000X0.625000X-0.350000X0.625000X0.350000X0*%
%ADD23O,1.750000X1.200000*%
%ADD24R,1.700000X1.700000*%
%ADD25O,1.700000X1.700000*%
%ADD26RoundRect,0.200000X-0.200000X-0.275000X0.200000X-0.275000X0.200000X0.275000X-0.200000X0.275000X0*%
%ADD27RoundRect,0.200000X0.200000X0.275000X-0.200000X0.275000X-0.200000X-0.275000X0.200000X-0.275000X0*%
%ADD28R,1.308100X0.355600*%
%ADD29RoundRect,0.237500X-0.237500X0.300000X-0.237500X-0.300000X0.237500X-0.300000X0.237500X0.300000X0*%
%ADD30RoundRect,0.250000X-0.312500X-0.625000X0.312500X-0.625000X0.312500X0.625000X-0.312500X0.625000X0*%
%ADD31RoundRect,0.225000X-0.225000X-0.250000X0.225000X-0.250000X0.225000X0.250000X-0.225000X0.250000X0*%
%ADD32RoundRect,0.175000X0.325000X-0.175000X0.325000X0.175000X-0.325000X0.175000X-0.325000X-0.175000X0*%
%ADD33RoundRect,0.150000X0.150000X-0.200000X0.150000X0.200000X-0.150000X0.200000X-0.150000X-0.200000X0*%
%ADD34R,2.600000X2.600000*%
%ADD35RoundRect,0.062500X-0.350000X0.062500X-0.350000X-0.062500X0.350000X-0.062500X0.350000X0.062500X0*%
%ADD36RoundRect,0.062500X-0.062500X0.350000X-0.062500X-0.350000X0.062500X-0.350000X0.062500X0.350000X0*%
%ADD37RoundRect,0.225000X-0.250000X0.225000X-0.250000X-0.225000X0.250000X-0.225000X0.250000X0.225000X0*%
%ADD38RoundRect,0.237500X0.300000X0.237500X-0.300000X0.237500X-0.300000X-0.237500X0.300000X-0.237500X0*%
G04 APERTURE END LIST*
D10*
%TO.C,REF\u002A\u002A*%
X115951000Y-74574400D03*
%TD*%
%TO.C,REF\u002A\u002A*%
X83743800Y-73253600D03*
%TD*%
%TO.C,REF\u002A\u002A*%
X84048600Y-125399800D03*
%TD*%
%TO.C,REF\u002A\u002A*%
X116255800Y-126746000D03*
%TD*%
D11*
%TO.C,C24*%
X93425000Y-119583200D03*
D12*
X98425000Y-119583200D03*
%TD*%
D13*
%TO.C,J5*%
X126771400Y-90258200D03*
D14*
X128921400Y-87458200D03*
D13*
X126771400Y-84658200D03*
%TD*%
D15*
%TO.C,J4*%
X94060000Y-73400000D03*
D16*
X98020000Y-73400000D03*
X101980000Y-73400000D03*
X105940000Y-73400000D03*
%TD*%
D17*
%TO.C,J3*%
X107000000Y-128248000D03*
D18*
X105000000Y-128248000D03*
X103000000Y-128248000D03*
X101000000Y-128248000D03*
X99000000Y-128248000D03*
X97000000Y-128248000D03*
X95000000Y-128248000D03*
X93000000Y-128248000D03*
%TD*%
D19*
%TO.C,J1*%
X71690500Y-95554000D03*
X71690500Y-98054000D03*
X71690500Y-100554000D03*
D20*
X71690500Y-103054000D03*
%TD*%
D21*
%TO.C,U1*%
X120749498Y-84272000D03*
X120749498Y-83242000D03*
X120749498Y-82212000D03*
%TD*%
D22*
%TO.C,J2*%
X128250000Y-96000000D03*
D23*
X128250000Y-98000000D03*
X128250000Y-100000000D03*
X128250000Y-102000000D03*
X128250000Y-104000000D03*
%TD*%
D11*
%TO.C,C22*%
X100132277Y-83997800D03*
D12*
X95132277Y-83997800D03*
%TD*%
D24*
%TO.C,J7*%
X117602000Y-122936000D03*
D25*
X115062000Y-122936000D03*
X112522000Y-122936000D03*
X109982000Y-122936000D03*
X107442000Y-122936000D03*
%TD*%
D11*
%TO.C,C23*%
X105765600Y-83997800D03*
D12*
X110765600Y-83997800D03*
%TD*%
D26*
%TO.C,R22*%
X92520000Y-91694000D03*
X94170000Y-91694000D03*
%TD*%
D27*
%TO.C,R40*%
X126148600Y-92176600D03*
X124498600Y-92176600D03*
%TD*%
D28*
%TO.C,U5*%
X102901750Y-98048790D03*
X102901750Y-98698791D03*
X102901750Y-99348792D03*
X102901750Y-99998791D03*
X102901750Y-100648790D03*
X102901750Y-101298791D03*
X102901750Y-101948790D03*
X97097850Y-101948792D03*
X97097850Y-101298791D03*
X97097850Y-100648792D03*
X97097850Y-99998791D03*
X97097850Y-99348792D03*
X97097850Y-98698791D03*
X97097850Y-98048792D03*
%TD*%
D29*
%TO.C,C40*%
X123266200Y-88545500D03*
X123266200Y-90270500D03*
%TD*%
D30*
%TO.C,R7*%
X88631300Y-108229400D03*
X91556300Y-108229400D03*
%TD*%
D26*
%TO.C,R16*%
X98641400Y-114452400D03*
X100291400Y-114452400D03*
%TD*%
D29*
%TO.C,C41*%
X124739400Y-88544400D03*
X124739400Y-90269400D03*
%TD*%
D27*
%TO.C,R41*%
X129171200Y-92176600D03*
X127521200Y-92176600D03*
%TD*%
D31*
%TO.C,C36*%
X97421400Y-96316800D03*
X98971400Y-96316800D03*
%TD*%
D32*
%TO.C,D8*%
X123930600Y-86410000D03*
D33*
X122230600Y-86410000D03*
X122230600Y-84410000D03*
X124130600Y-84410000D03*
%TD*%
D34*
%TO.C,U7*%
X121060400Y-93707700D03*
D35*
X119122900Y-92457700D03*
X119122900Y-92957700D03*
X119122900Y-93457700D03*
X119122900Y-93957700D03*
X119122900Y-94457700D03*
X119122900Y-94957700D03*
D36*
X119810400Y-95645200D03*
X120310400Y-95645200D03*
X120810400Y-95645200D03*
X121310400Y-95645200D03*
X121810400Y-95645200D03*
X122310400Y-95645200D03*
D35*
X122997900Y-94957700D03*
X122997900Y-94457700D03*
X122997900Y-93957700D03*
X122997900Y-93457700D03*
X122997900Y-92957700D03*
X122997900Y-92457700D03*
D36*
X122310400Y-91770200D03*
X121810400Y-91770200D03*
X121310400Y-91770200D03*
X120810400Y-91770200D03*
X120310400Y-91770200D03*
X119810400Y-91770200D03*
%TD*%
D26*
%TO.C,R23*%
X92570800Y-90220800D03*
X94220800Y-90220800D03*
%TD*%
D37*
%TO.C,C39*%
X95453200Y-98361200D03*
X95453200Y-99911200D03*
%TD*%
%TO.C,C18*%
X74777600Y-109575000D03*
X74777600Y-111125000D03*
%TD*%
D27*
%TO.C,R26*%
X114667800Y-99263200D03*
X113017800Y-99263200D03*
%TD*%
D38*
%TO.C,C42*%
X119888000Y-90322400D03*
X118163000Y-90322400D03*
%TD*%
%TO.C,C43*%
X119937700Y-88823800D03*
X118212700Y-88823800D03*
%TD*%
D30*
%TO.C,R6*%
X89621900Y-88112600D03*
X92546900Y-88112600D03*
%TD*%
D26*
%TO.C,R17*%
X98641400Y-112903000D03*
X100291400Y-112903000D03*
%TD*%
M02*
