%TF.GenerationSoftware,KiCad,Pcbnew,8.0.6*%
%TF.CreationDate,2025-12-29T11:58:40+02:00*%
%TF.ProjectId,TMCM_1260_alternative,544d434d-5f31-4323-9630-5f616c746572,rev?*%
%TF.SameCoordinates,Original*%
%TF.FileFunction,Copper,L2,Inr*%
%TF.FilePolarity,Positive*%
%FSLAX46Y46*%
G04 Gerber Fmt 4.6, Leading zero omitted, Abs format (unit mm)*
G04 Created by KiCad (PCBNEW 8.0.6) date 2025-12-29 11:58:40*
%MOMM*%
%LPD*%
G01*
G04 APERTURE LIST*
G04 Aperture macros list*
%AMRoundRect*
0 Rectangle with rounded corners*
0 $1 Rounding radius*
0 $2 $3 $4 $5 $6 $7 $8 $9 X,Y pos of 4 corners*
0 Add a 4 corners polygon primitive as box body*
4,1,4,$2,$3,$4,$5,$6,$7,$8,$9,$2,$3,0*
0 Add four circle primitives for the rounded corners*
1,1,$1+$1,$2,$3*
1,1,$1+$1,$4,$5*
1,1,$1+$1,$6,$7*
1,1,$1+$1,$8,$9*
0 Add four rect primitives between the rounded corners*
20,1,$1+$1,$2,$3,$4,$5,0*
20,1,$1+$1,$4,$5,$6,$7,0*
20,1,$1+$1,$6,$7,$8,$9,0*
20,1,$1+$1,$8,$9,$2,$3,0*%
G04 Aperture macros list end*
%TA.AperFunction,ComponentPad*%
%ADD10R,2.000000X2.000000*%
%TD*%
%TA.AperFunction,ComponentPad*%
%ADD11C,2.000000*%
%TD*%
%TA.AperFunction,HeatsinkPad*%
%ADD12O,1.100000X1.800000*%
%TD*%
%TA.AperFunction,HeatsinkPad*%
%ADD13O,1.100000X2.200000*%
%TD*%
%TA.AperFunction,ComponentPad*%
%ADD14RoundRect,0.250001X-1.099999X-1.099999X1.099999X-1.099999X1.099999X1.099999X-1.099999X1.099999X0*%
%TD*%
%TA.AperFunction,ComponentPad*%
%ADD15C,2.700000*%
%TD*%
%TA.AperFunction,ComponentPad*%
%ADD16RoundRect,0.250000X0.350000X0.625000X-0.350000X0.625000X-0.350000X-0.625000X0.350000X-0.625000X0*%
%TD*%
%TA.AperFunction,ComponentPad*%
%ADD17O,1.200000X1.750000*%
%TD*%
%TA.AperFunction,ComponentPad*%
%ADD18O,1.950000X1.700000*%
%TD*%
%TA.AperFunction,ComponentPad*%
%ADD19RoundRect,0.250000X0.725000X-0.600000X0.725000X0.600000X-0.725000X0.600000X-0.725000X-0.600000X0*%
%TD*%
%TA.AperFunction,ComponentPad*%
%ADD20C,0.499999*%
%TD*%
%TA.AperFunction,ComponentPad*%
%ADD21RoundRect,0.250000X-0.625000X0.350000X-0.625000X-0.350000X0.625000X-0.350000X0.625000X0.350000X0*%
%TD*%
%TA.AperFunction,ComponentPad*%
%ADD22O,1.750000X1.200000*%
%TD*%
%TA.AperFunction,ComponentPad*%
%ADD23R,1.700000X1.700000*%
%TD*%
%TA.AperFunction,ComponentPad*%
%ADD24O,1.700000X1.700000*%
%TD*%
%TA.AperFunction,ViaPad*%
%ADD25C,0.600000*%
%TD*%
%TA.AperFunction,ViaPad*%
%ADD26C,0.800000*%
%TD*%
G04 APERTURE END LIST*
D10*
%TO.N,12-36V*%
%TO.C,C24*%
X93425000Y-119583200D03*
D11*
%TO.N,GND*%
X98425000Y-119583200D03*
%TD*%
D12*
%TO.N,GND*%
%TO.C,J5*%
X126771400Y-90258200D03*
D13*
X128921400Y-87458200D03*
D12*
X126771400Y-84658200D03*
%TD*%
D14*
%TO.N,GND*%
%TO.C,J4*%
X94060000Y-73400000D03*
D15*
%TO.N,12-36V*%
X98020000Y-73400000D03*
X101980000Y-73400000D03*
%TO.N,/Vlogic*%
X105940000Y-73400000D03*
%TD*%
D16*
%TO.N,GND*%
%TO.C,J3*%
X107000000Y-128248000D03*
D17*
%TO.N,Out_1*%
X105000000Y-128248000D03*
%TO.N,Out_2*%
X103000000Y-128248000D03*
%TO.N,/IN2{slash}ENC_B*%
X101000000Y-128248000D03*
%TO.N,/STOP_L{slash}STEP*%
X99000000Y-128248000D03*
%TO.N,GND*%
X97000000Y-128248000D03*
%TO.N,5VOUT*%
X95000000Y-128248000D03*
X93000000Y-128248000D03*
%TD*%
D18*
%TO.N,BMA2*%
%TO.C,J1*%
X71690500Y-95554000D03*
%TO.N,BMA1*%
X71690500Y-98054000D03*
%TO.N,BMB2*%
X71690500Y-100554000D03*
D19*
%TO.N,BMB1*%
X71690500Y-103054000D03*
%TD*%
D20*
%TO.N,GND*%
%TO.C,U1*%
X120749498Y-84272000D03*
X120749498Y-83242000D03*
X120749498Y-82212000D03*
%TD*%
D21*
%TO.N,GND*%
%TO.C,J2*%
X128250000Y-96000000D03*
D22*
%TO.N,unconnected-(J2-Pin_2-Pad2)*%
X128250000Y-98000000D03*
%TO.N,unconnected-(J2-Pin_3-Pad3)*%
X128250000Y-100000000D03*
%TO.N,/CANH*%
X128250000Y-102000000D03*
%TO.N,/CANL*%
X128250000Y-104000000D03*
%TD*%
D10*
%TO.N,12-36V*%
%TO.C,C22*%
X100132277Y-83997800D03*
D11*
%TO.N,GND*%
X95132277Y-83997800D03*
%TD*%
D23*
%TO.N,+3V3*%
%TO.C,J7*%
X117602000Y-122936000D03*
D24*
%TO.N,/SWCLK*%
X115062000Y-122936000D03*
%TO.N,GND*%
X112522000Y-122936000D03*
%TO.N,/SWDIO*%
X109982000Y-122936000D03*
%TO.N,/NRST*%
X107442000Y-122936000D03*
%TD*%
D10*
%TO.N,12-36V*%
%TO.C,C23*%
X105765600Y-83997800D03*
D11*
%TO.N,GND*%
X110765600Y-83997800D03*
%TD*%
D25*
%TO.N,GND*%
X110845600Y-80467200D03*
X112166400Y-80492600D03*
X109448600Y-80467200D03*
X110794800Y-81838800D03*
X109474000Y-81813400D03*
X112191800Y-81838800D03*
X110794800Y-87680800D03*
X112115600Y-87706200D03*
X109397800Y-87680800D03*
X110794800Y-86258400D03*
X112115600Y-86283800D03*
X109397800Y-86258400D03*
X96570800Y-121361200D03*
X96570800Y-116332000D03*
X97840800Y-116306600D03*
X99060000Y-116332000D03*
X100482400Y-116332000D03*
X97840800Y-117576600D03*
X99060000Y-117602000D03*
X100482400Y-117602000D03*
X96545400Y-120243600D03*
X96570800Y-119024400D03*
X96570800Y-117602000D03*
X113792000Y-110236000D03*
X116027200Y-111201200D03*
%TO.N,UART_TX*%
X110947200Y-112725200D03*
%TO.N,UART_RX*%
X113893600Y-112725200D03*
%TO.N,/TXD*%
X118059200Y-112283400D03*
%TO.N,BMB2*%
X95504000Y-102819200D03*
X94173000Y-99999800D03*
X74777600Y-109575000D03*
D26*
%TO.N,BMA1*%
X94173000Y-97993200D03*
X94183200Y-95732600D03*
D25*
%TO.N,GND*%
X117602000Y-112979200D03*
X74777600Y-111125000D03*
X108864400Y-97917000D03*
X104800400Y-97917000D03*
X117500400Y-110744000D03*
X94030800Y-81965800D03*
X105714800Y-99974400D03*
X95910400Y-87604600D03*
D26*
X91897200Y-102209600D03*
D25*
X93218000Y-110921800D03*
X113919000Y-104115700D03*
X94894400Y-101447600D03*
X104165400Y-109248200D03*
X118073400Y-98820200D03*
X110820200Y-114884200D03*
X107848400Y-101041200D03*
X96748600Y-81991200D03*
X94437200Y-110871000D03*
X94437200Y-112014000D03*
X91795600Y-111988600D03*
X106832400Y-101041200D03*
X105714800Y-98958400D03*
X107848400Y-102057200D03*
X96951800Y-80289400D03*
X102666800Y-95631000D03*
X106832400Y-97917000D03*
D26*
X90170000Y-98653600D03*
D25*
X106653500Y-115798600D03*
X121183400Y-103733600D03*
X128829400Y-113842800D03*
X120310400Y-92957700D03*
X128829400Y-112293400D03*
X104800400Y-101041200D03*
X93243400Y-83388200D03*
X109524800Y-105892600D03*
X106832400Y-98958400D03*
X106832400Y-102057200D03*
X122732800Y-111455200D03*
X90576400Y-102692200D03*
X94462600Y-108204000D03*
X94462600Y-106680000D03*
X118163000Y-90322400D03*
X107848400Y-98958400D03*
X105714800Y-102057200D03*
X97688400Y-89611200D03*
X107848400Y-97917000D03*
X105714800Y-101041200D03*
X108864400Y-102057200D03*
X95885000Y-106680000D03*
X108864400Y-99974400D03*
X95859600Y-112014000D03*
X111772600Y-93192200D03*
D26*
X100558600Y-109804200D03*
D25*
X104800400Y-98958400D03*
X95859600Y-110871000D03*
X123930600Y-86410000D03*
X95427800Y-80289400D03*
X105714800Y-97917000D03*
X120192800Y-86182200D03*
X110211700Y-116611400D03*
X108864400Y-98958400D03*
X113030000Y-97700800D03*
X93497400Y-104038400D03*
X112037200Y-125704600D03*
X119202200Y-103022400D03*
X121793000Y-94488000D03*
X121031000Y-93726000D03*
X96774000Y-83312000D03*
X104800400Y-102057200D03*
X118212700Y-88823800D03*
D26*
X95910400Y-104851200D03*
D25*
X96774000Y-86309200D03*
X121793000Y-92964000D03*
X93929200Y-86309200D03*
X118410900Y-82042000D03*
X117525800Y-93586000D03*
X120269000Y-94488000D03*
X104800400Y-99974400D03*
D26*
X97510600Y-94284800D03*
D25*
X95427800Y-81965800D03*
X115341400Y-106629200D03*
X93980000Y-80340200D03*
X120904000Y-118972500D03*
X95885000Y-109677200D03*
X108864400Y-101041200D03*
X107848400Y-99974400D03*
D26*
X116886900Y-79298800D03*
D25*
X94462600Y-109677200D03*
X91744800Y-104902000D03*
D26*
X97485200Y-91719400D03*
D25*
X125577600Y-108762800D03*
X93218000Y-111988600D03*
X117526900Y-118643400D03*
X95885000Y-108204000D03*
X96774000Y-84836000D03*
X95351600Y-86309200D03*
X93243400Y-84861400D03*
X94411800Y-87604600D03*
X106832400Y-99974400D03*
%TO.N,+3V3*%
X118073400Y-100090200D03*
X111936700Y-116611400D03*
X115316000Y-105333800D03*
X119888000Y-90322400D03*
X123266200Y-91440000D03*
X115976400Y-95147300D03*
%TO.N,/NRST*%
X119151400Y-114723600D03*
X110439200Y-118135400D03*
X115112800Y-115417600D03*
%TO.N,/SWDIO*%
X110998000Y-118922800D03*
%TO.N,/SWCLK*%
X113792000Y-118287800D03*
%TO.N,/TXD*%
X120243600Y-103733600D03*
%TO.N,/RXD*%
X118262400Y-103047800D03*
X117449600Y-111658400D03*
%TO.N,Net-(Q1-S2)*%
X87426800Y-103981250D03*
X85648800Y-103219250D03*
X86614000Y-112414050D03*
X84302600Y-113734850D03*
X87503000Y-112414050D03*
X88392000Y-113176050D03*
X85648800Y-103981250D03*
X88315800Y-102457250D03*
X85725000Y-113938050D03*
X86537800Y-103219250D03*
X85725000Y-112414050D03*
X86537800Y-102457250D03*
X88392000Y-112414050D03*
X86614000Y-113938050D03*
X85648800Y-102457250D03*
X88392000Y-113938050D03*
X87503000Y-113176050D03*
X86537800Y-103981250D03*
X87426800Y-102457250D03*
X87503000Y-113938050D03*
X86614000Y-113176050D03*
X88315800Y-103219250D03*
X84226400Y-103778050D03*
X88315800Y-103981250D03*
X85725000Y-113176050D03*
X87426800Y-103219250D03*
%TO.N,Net-(Q3-S2)*%
X85598000Y-82499200D03*
X87376000Y-82499200D03*
X87376000Y-83261200D03*
X85598000Y-94081600D03*
X88265000Y-92557600D03*
X85598000Y-83261200D03*
X88265000Y-84023200D03*
X84251800Y-83807000D03*
X85598000Y-93319600D03*
X87376000Y-84023200D03*
X85598000Y-92557600D03*
X86487000Y-82499200D03*
X84175600Y-93878400D03*
X85598000Y-84023200D03*
X86487000Y-83261200D03*
X88265000Y-94081600D03*
X86487000Y-84023200D03*
X87376000Y-93319600D03*
X87376000Y-92557600D03*
X88265000Y-93319600D03*
X88265000Y-82499200D03*
X88265000Y-83261200D03*
X87376000Y-94081600D03*
X86487000Y-92557600D03*
X86487000Y-93319600D03*
X86487000Y-94081600D03*
D26*
%TO.N,LB2*%
X95910400Y-103784400D03*
X92710000Y-101447600D03*
%TO.N,LA2*%
X96215200Y-91744800D03*
X96266000Y-94284800D03*
D25*
%TO.N,CSN*%
X111988600Y-107213400D03*
X118516400Y-110718600D03*
%TO.N,VCC_IO*%
X113027990Y-99248790D03*
%TO.N,5VOUT*%
X103280200Y-117348000D03*
D26*
X105943400Y-107812800D03*
D25*
X112686600Y-95123000D03*
%TO.N,SRBL*%
X102463600Y-115214400D03*
%TO.N,SRAH*%
X96723200Y-90424000D03*
X106312000Y-112344200D03*
X101295200Y-91795600D03*
%TO.N,SRAL*%
X95529400Y-89789000D03*
X101244400Y-90424000D03*
X104762000Y-112344200D03*
%TO.N,SRBH*%
X101549200Y-115163600D03*
D26*
%TO.N,VS*%
X104165400Y-107698200D03*
X110667800Y-90093800D03*
D25*
%TO.N,SPI2_NSS*%
X110312200Y-111150400D03*
%TO.N,SPI2_MISO*%
X114554000Y-110490000D03*
%TO.N,SPI2_MOSI*%
X115214400Y-111150400D03*
%TO.N,SPI2_SCK*%
X111097042Y-110498600D03*
%TO.N,12-36V*%
X82488900Y-85714800D03*
X80812500Y-86426000D03*
X80069550Y-115623300D03*
X82609550Y-116334500D03*
X81650700Y-86426000D03*
X80933150Y-114912100D03*
X114931100Y-82424900D03*
X80933150Y-116334500D03*
X79180550Y-104955300D03*
X80812500Y-85003600D03*
X80806150Y-95785900D03*
X82533350Y-104955300D03*
X80856950Y-104955300D03*
X80856950Y-106377700D03*
X79129750Y-96497100D03*
X79256750Y-115623300D03*
X81695150Y-106377700D03*
X79129750Y-95074700D03*
X81695150Y-104955300D03*
D26*
X90347800Y-77429400D03*
D25*
X79942550Y-95074700D03*
X79136100Y-85714800D03*
X79948900Y-85714800D03*
X79256750Y-114912100D03*
X80933150Y-115623300D03*
X79948900Y-85003600D03*
X79136100Y-86426000D03*
X81650700Y-85003600D03*
X79942550Y-95785900D03*
X79993350Y-105666500D03*
X80069550Y-116334500D03*
X79129750Y-95785900D03*
X79942550Y-96497100D03*
X82533350Y-106377700D03*
X79993350Y-104955300D03*
X79948900Y-86426000D03*
X80812500Y-85714800D03*
X81644350Y-95074700D03*
X82533350Y-105666500D03*
X81771350Y-114912100D03*
X81695150Y-105666500D03*
X82488900Y-85003600D03*
X82609550Y-114912100D03*
X80856950Y-105666500D03*
X79180550Y-106377700D03*
X81644350Y-96497100D03*
D26*
X106349800Y-88163400D03*
D25*
X80069550Y-114912100D03*
X79180550Y-105666500D03*
X79256750Y-116334500D03*
X81771350Y-115623300D03*
X81650700Y-85714800D03*
X82482550Y-95785900D03*
X81771350Y-116334500D03*
X80806150Y-96497100D03*
X82482550Y-96497100D03*
X82482550Y-95074700D03*
X80806150Y-95074700D03*
X82488900Y-86426000D03*
X79993350Y-106377700D03*
X82609550Y-115623300D03*
X79136100Y-85003600D03*
X81644350Y-95785900D03*
%TO.N,Out_2*%
X104292400Y-120624600D03*
X105130600Y-118846600D03*
%TO.N,Net-(J5-VBUS)*%
X124498600Y-92176600D03*
%TO.N,Net-(U7-~{RST})*%
X124612400Y-93980000D03*
%TO.N,/D-*%
X121964000Y-90043000D03*
%TO.N,/D+*%
X121114000Y-90043000D03*
%TO.N,GND*%
X90093800Y-108229400D03*
%TD*%
%TA.AperFunction,Conductor*%
%TO.N,GND*%
G36*
X117004050Y-70499556D02*
G01*
X117252423Y-70515806D01*
X117268474Y-70517915D01*
X117508643Y-70565599D01*
X117524284Y-70569782D01*
X117756201Y-70648354D01*
X117771141Y-70654531D01*
X117990841Y-70762650D01*
X118004865Y-70770729D01*
X118208611Y-70906554D01*
X118221451Y-70916382D01*
X118405768Y-71077603D01*
X118417224Y-71089028D01*
X118578947Y-71272867D01*
X118588818Y-71285686D01*
X118725221Y-71489050D01*
X118733338Y-71503048D01*
X118776622Y-71590377D01*
X118841437Y-71721148D01*
X118842075Y-71722434D01*
X118848302Y-71737377D01*
X118856248Y-71760614D01*
X118927527Y-71969063D01*
X118931754Y-71984691D01*
X118980117Y-72224718D01*
X118982272Y-72240766D01*
X118999212Y-72488911D01*
X118999500Y-72497356D01*
X118999500Y-76072881D01*
X118999509Y-76073016D01*
X118999509Y-76205623D01*
X119033665Y-76617833D01*
X119033666Y-76617843D01*
X119101747Y-77025838D01*
X119101749Y-77025846D01*
X119203292Y-77426833D01*
X119203294Y-77426840D01*
X119203296Y-77426846D01*
X119316752Y-77757330D01*
X119337602Y-77818065D01*
X119474384Y-78129900D01*
X119503759Y-78196867D01*
X119503768Y-78196886D01*
X119700624Y-78560644D01*
X119700637Y-78560666D01*
X119926871Y-78906945D01*
X119926889Y-78906970D01*
X120180930Y-79233362D01*
X120180938Y-79233371D01*
X120461091Y-79537700D01*
X120668045Y-79728214D01*
X120765420Y-79817854D01*
X121091843Y-80071920D01*
X121421103Y-80287036D01*
X121438135Y-80298164D01*
X121801911Y-80495030D01*
X121801914Y-80495031D01*
X121801921Y-80495035D01*
X122180725Y-80661195D01*
X122571957Y-80795505D01*
X122972944Y-80897049D01*
X123380947Y-80965132D01*
X123380954Y-80965132D01*
X123380957Y-80965133D01*
X123652784Y-80987657D01*
X123793178Y-80999291D01*
X123934108Y-80999291D01*
X127434108Y-80999291D01*
X127495954Y-80999291D01*
X127504050Y-80999556D01*
X127505808Y-80999671D01*
X127752423Y-81015806D01*
X127768474Y-81017915D01*
X128008643Y-81065599D01*
X128024284Y-81069782D01*
X128256201Y-81148354D01*
X128271141Y-81154531D01*
X128490841Y-81262650D01*
X128504865Y-81270729D01*
X128708611Y-81406554D01*
X128721451Y-81416382D01*
X128905768Y-81577603D01*
X128917224Y-81589028D01*
X129078947Y-81772867D01*
X129088818Y-81785686D01*
X129225221Y-81989050D01*
X129233338Y-82003048D01*
X129252172Y-82041047D01*
X129341437Y-82221148D01*
X129342075Y-82222434D01*
X129348303Y-82237380D01*
X129427527Y-82469063D01*
X129431754Y-82484691D01*
X129480117Y-82724718D01*
X129482272Y-82740766D01*
X129499212Y-82988911D01*
X129499500Y-82997356D01*
X129499500Y-86103934D01*
X129479815Y-86170973D01*
X129433953Y-86213292D01*
X129421400Y-86220001D01*
X129421400Y-88696397D01*
X129433953Y-88703107D01*
X129483797Y-88752069D01*
X129499500Y-88812465D01*
X129499500Y-95194550D01*
X129479815Y-95261589D01*
X129427011Y-95307344D01*
X129357853Y-95317288D01*
X129294297Y-95288263D01*
X129276697Y-95269476D01*
X129267567Y-95257437D01*
X129147095Y-95166079D01*
X129006443Y-95110613D01*
X128918054Y-95100000D01*
X128750000Y-95100000D01*
X128750000Y-96376000D01*
X128730315Y-96443039D01*
X128677511Y-96488794D01*
X128626000Y-96500000D01*
X127092932Y-96500000D01*
X127141079Y-96622095D01*
X127232435Y-96742564D01*
X127352904Y-96833920D01*
X127493556Y-96889386D01*
X127581946Y-96900000D01*
X127654127Y-96900000D01*
X127721166Y-96919685D01*
X127766921Y-96972489D01*
X127776865Y-97041647D01*
X127747840Y-97105203D01*
X127701579Y-97138561D01*
X127548458Y-97201983D01*
X127548446Y-97201990D01*
X127400965Y-97300535D01*
X127400961Y-97300538D01*
X127275538Y-97425961D01*
X127275535Y-97425965D01*
X127176990Y-97573446D01*
X127176983Y-97573459D01*
X127109106Y-97737332D01*
X127109103Y-97737341D01*
X127074500Y-97911304D01*
X127074500Y-98088695D01*
X127109103Y-98262658D01*
X127109106Y-98262667D01*
X127176983Y-98426540D01*
X127176990Y-98426553D01*
X127275535Y-98574034D01*
X127275538Y-98574038D01*
X127400961Y-98699461D01*
X127400965Y-98699464D01*
X127548446Y-98798009D01*
X127548459Y-98798016D01*
X127602761Y-98820508D01*
X127712334Y-98865894D01*
X127732594Y-98869924D01*
X127775118Y-98878383D01*
X127837028Y-98910768D01*
X127871603Y-98971484D01*
X127867863Y-99041253D01*
X127826996Y-99097925D01*
X127775118Y-99121617D01*
X127712340Y-99134104D01*
X127712332Y-99134106D01*
X127548459Y-99201983D01*
X127548446Y-99201990D01*
X127400965Y-99300535D01*
X127400961Y-99300538D01*
X127275538Y-99425961D01*
X127275535Y-99425965D01*
X127176990Y-99573446D01*
X127176983Y-99573459D01*
X127109106Y-99737332D01*
X127109103Y-99737341D01*
X127074500Y-99911304D01*
X127074500Y-100088695D01*
X127109103Y-100262658D01*
X127109106Y-100262667D01*
X127176983Y-100426540D01*
X127176990Y-100426553D01*
X127275535Y-100574034D01*
X127275538Y-100574038D01*
X127400961Y-100699461D01*
X127400965Y-100699464D01*
X127548446Y-100798009D01*
X127548459Y-100798016D01*
X127609767Y-100823410D01*
X127712334Y-100865894D01*
X127717221Y-100866866D01*
X127775118Y-100878383D01*
X127837028Y-100910768D01*
X127871603Y-100971484D01*
X127867863Y-101041253D01*
X127826996Y-101097925D01*
X127775118Y-101121617D01*
X127712340Y-101134104D01*
X127712332Y-101134106D01*
X127548459Y-101201983D01*
X127548446Y-101201990D01*
X127400965Y-101300535D01*
X127400961Y-101300538D01*
X127275538Y-101425961D01*
X127275535Y-101425965D01*
X127176990Y-101573446D01*
X127176983Y-101573459D01*
X127109106Y-101737332D01*
X127109103Y-101737341D01*
X127074500Y-101911304D01*
X127074500Y-102088695D01*
X127109103Y-102262658D01*
X127109106Y-102262667D01*
X127176983Y-102426540D01*
X127176990Y-102426553D01*
X127275535Y-102574034D01*
X127275538Y-102574038D01*
X127400961Y-102699461D01*
X127400965Y-102699464D01*
X127548446Y-102798009D01*
X127548459Y-102798016D01*
X127670502Y-102848567D01*
X127712334Y-102865894D01*
X127732594Y-102869924D01*
X127775118Y-102878383D01*
X127837028Y-102910768D01*
X127871603Y-102971484D01*
X127867863Y-103041253D01*
X127826996Y-103097925D01*
X127775118Y-103121617D01*
X127712340Y-103134104D01*
X127712332Y-103134106D01*
X127548459Y-103201983D01*
X127548446Y-103201990D01*
X127400965Y-103300535D01*
X127400961Y-103300538D01*
X127275538Y-103425961D01*
X127275535Y-103425965D01*
X127176990Y-103573446D01*
X127176983Y-103573459D01*
X127109106Y-103737332D01*
X127109103Y-103737341D01*
X127074500Y-103911304D01*
X127074500Y-104088695D01*
X127109103Y-104262658D01*
X127109106Y-104262667D01*
X127176983Y-104426540D01*
X127176990Y-104426553D01*
X127275535Y-104574034D01*
X127275538Y-104574038D01*
X127400961Y-104699461D01*
X127400965Y-104699464D01*
X127548446Y-104798009D01*
X127548459Y-104798016D01*
X127671363Y-104848923D01*
X127712334Y-104865894D01*
X127712336Y-104865894D01*
X127712341Y-104865896D01*
X127886304Y-104900499D01*
X127886307Y-104900500D01*
X127886309Y-104900500D01*
X128613693Y-104900500D01*
X128613694Y-104900499D01*
X128671682Y-104888964D01*
X128787658Y-104865896D01*
X128787661Y-104865894D01*
X128787666Y-104865894D01*
X128951547Y-104798013D01*
X129099035Y-104699464D01*
X129224464Y-104574035D01*
X129272398Y-104502296D01*
X129326010Y-104457492D01*
X129395335Y-104448785D01*
X129458362Y-104478939D01*
X129495082Y-104538382D01*
X129499500Y-104571188D01*
X129499500Y-117028569D01*
X129499235Y-117036667D01*
X129484654Y-117259474D01*
X129482544Y-117275529D01*
X129434841Y-117515739D01*
X129430656Y-117531383D01*
X129352058Y-117763323D01*
X129345870Y-117778288D01*
X129237717Y-117998006D01*
X129229632Y-118012037D01*
X129093767Y-118215790D01*
X129083922Y-118228648D01*
X128922668Y-118412951D01*
X128911232Y-118424417D01*
X128727324Y-118586143D01*
X128714491Y-118596020D01*
X128511080Y-118732399D01*
X128497069Y-118740519D01*
X128277631Y-118849221D01*
X128262682Y-118855447D01*
X128030932Y-118934632D01*
X128015298Y-118938856D01*
X127775218Y-118987161D01*
X127759168Y-118989312D01*
X127603225Y-118999911D01*
X127578634Y-118999136D01*
X127572217Y-118998291D01*
X127572216Y-118998291D01*
X123934108Y-118998291D01*
X123926145Y-118998291D01*
X123926006Y-118998300D01*
X123793167Y-118998300D01*
X123380956Y-119032457D01*
X123380950Y-119032458D01*
X122972946Y-119100541D01*
X122972942Y-119100542D01*
X122906866Y-119117275D01*
X122571956Y-119202086D01*
X122571950Y-119202087D01*
X122571942Y-119202090D01*
X122180720Y-119336397D01*
X121801924Y-119502553D01*
X121801910Y-119502559D01*
X121438134Y-119699425D01*
X121091833Y-119925675D01*
X121091832Y-119925676D01*
X120765417Y-120179736D01*
X120461089Y-120459889D01*
X120180936Y-120764217D01*
X119926876Y-121090632D01*
X119926875Y-121090633D01*
X119700625Y-121436934D01*
X119503759Y-121800710D01*
X119503753Y-121800724D01*
X119337597Y-122179520D01*
X119203290Y-122570742D01*
X119203287Y-122570750D01*
X119203286Y-122570756D01*
X119141464Y-122814886D01*
X119101742Y-122971742D01*
X119101741Y-122971746D01*
X119033658Y-123379750D01*
X119033657Y-123379756D01*
X119000075Y-123785023D01*
X118990259Y-123810461D01*
X118997711Y-123825666D01*
X118999500Y-123846656D01*
X118999500Y-127494752D01*
X118999235Y-127502849D01*
X118982979Y-127751269D01*
X118980869Y-127767325D01*
X118933167Y-128007537D01*
X118928982Y-128023181D01*
X118850386Y-128255117D01*
X118844199Y-128270082D01*
X118736043Y-128489809D01*
X118727957Y-128503840D01*
X118592091Y-128707595D01*
X118582247Y-128720453D01*
X118420986Y-128904767D01*
X118409550Y-128916232D01*
X118225654Y-129077951D01*
X118212821Y-129087828D01*
X118009409Y-129224209D01*
X117995398Y-129232330D01*
X117775945Y-129341042D01*
X117760995Y-129347267D01*
X117529263Y-129426447D01*
X117513630Y-129430672D01*
X117273530Y-129478983D01*
X117257481Y-129481133D01*
X117028973Y-129496668D01*
X117009308Y-129498005D01*
X117000899Y-129498291D01*
X107804407Y-129498291D01*
X107737368Y-129478606D01*
X107691613Y-129425802D01*
X107681669Y-129356644D01*
X107710694Y-129293088D01*
X107729481Y-129275488D01*
X107742562Y-129265567D01*
X107833920Y-129145095D01*
X107889386Y-129004443D01*
X107900000Y-128916053D01*
X107900000Y-128748000D01*
X106624000Y-128748000D01*
X106556961Y-128728315D01*
X106511206Y-128675511D01*
X106500000Y-128624000D01*
X106500000Y-128198630D01*
X106625000Y-128198630D01*
X106625000Y-128297370D01*
X106650556Y-128392745D01*
X106699925Y-128478255D01*
X106769745Y-128548075D01*
X106855255Y-128597444D01*
X106950630Y-128623000D01*
X107049370Y-128623000D01*
X107144745Y-128597444D01*
X107230255Y-128548075D01*
X107300075Y-128478255D01*
X107349444Y-128392745D01*
X107375000Y-128297370D01*
X107375000Y-128198630D01*
X107349444Y-128103255D01*
X107300075Y-128017745D01*
X107230255Y-127947925D01*
X107144745Y-127898556D01*
X107049370Y-127873000D01*
X106950630Y-127873000D01*
X106855255Y-127898556D01*
X106769745Y-127947925D01*
X106699925Y-128017745D01*
X106650556Y-128103255D01*
X106625000Y-128198630D01*
X106500000Y-128198630D01*
X106500000Y-127748000D01*
X107500000Y-127748000D01*
X107900000Y-127748000D01*
X107900000Y-127579946D01*
X107889386Y-127491556D01*
X107833920Y-127350904D01*
X107742564Y-127230435D01*
X107622095Y-127139079D01*
X107500000Y-127090931D01*
X107500000Y-127748000D01*
X106500000Y-127748000D01*
X106500000Y-127090931D01*
X106377904Y-127139079D01*
X106257435Y-127230435D01*
X106166079Y-127350904D01*
X106110613Y-127491556D01*
X106100000Y-127579946D01*
X106100000Y-127652126D01*
X106080315Y-127719165D01*
X106027511Y-127764920D01*
X105958353Y-127774864D01*
X105894797Y-127745839D01*
X105861439Y-127699578D01*
X105798016Y-127546459D01*
X105798009Y-127546446D01*
X105699464Y-127398965D01*
X105699461Y-127398961D01*
X105574038Y-127273538D01*
X105574034Y-127273535D01*
X105426553Y-127174990D01*
X105426540Y-127174983D01*
X105262667Y-127107106D01*
X105262658Y-127107103D01*
X105088694Y-127072500D01*
X105088691Y-127072500D01*
X104911309Y-127072500D01*
X104911306Y-127072500D01*
X104737341Y-127107103D01*
X104737332Y-127107106D01*
X104573459Y-127174983D01*
X104573446Y-127174990D01*
X104425965Y-127273535D01*
X104425961Y-127273538D01*
X104300538Y-127398961D01*
X104300535Y-127398965D01*
X104201990Y-127546446D01*
X104201983Y-127546459D01*
X104134106Y-127710332D01*
X104134104Y-127710340D01*
X104121617Y-127773118D01*
X104089232Y-127835028D01*
X104028516Y-127869603D01*
X103958747Y-127865863D01*
X103902075Y-127824996D01*
X103878383Y-127773118D01*
X103869924Y-127730594D01*
X103865894Y-127710334D01*
X103811886Y-127579946D01*
X103798016Y-127546459D01*
X103798009Y-127546446D01*
X103699464Y-127398965D01*
X103699461Y-127398961D01*
X103574038Y-127273538D01*
X103574034Y-127273535D01*
X103426553Y-127174990D01*
X103426540Y-127174983D01*
X103262667Y-127107106D01*
X103262658Y-127107103D01*
X103088694Y-127072500D01*
X103088691Y-127072500D01*
X102911309Y-127072500D01*
X102911306Y-127072500D01*
X102737341Y-127107103D01*
X102737332Y-127107106D01*
X102573459Y-127174983D01*
X102573446Y-127174990D01*
X102425965Y-127273535D01*
X102425961Y-127273538D01*
X102300538Y-127398961D01*
X102300535Y-127398965D01*
X102201990Y-127546446D01*
X102201983Y-127546459D01*
X102134106Y-127710332D01*
X102134104Y-127710340D01*
X102121617Y-127773118D01*
X102089232Y-127835028D01*
X102028516Y-127869603D01*
X101958747Y-127865863D01*
X101902075Y-127824996D01*
X101878383Y-127773118D01*
X101869924Y-127730594D01*
X101865894Y-127710334D01*
X101811886Y-127579946D01*
X101798016Y-127546459D01*
X101798009Y-127546446D01*
X101699464Y-127398965D01*
X101699461Y-127398961D01*
X101574038Y-127273538D01*
X101574034Y-127273535D01*
X101426553Y-127174990D01*
X101426540Y-127174983D01*
X101262667Y-127107106D01*
X101262658Y-127107103D01*
X101088694Y-127072500D01*
X101088691Y-127072500D01*
X100911309Y-127072500D01*
X100911306Y-127072500D01*
X100737341Y-127107103D01*
X100737332Y-127107106D01*
X100573459Y-127174983D01*
X100573446Y-127174990D01*
X100425965Y-127273535D01*
X100425961Y-127273538D01*
X100300538Y-127398961D01*
X100300535Y-127398965D01*
X100201990Y-127546446D01*
X100201983Y-127546459D01*
X100134106Y-127710332D01*
X100134104Y-127710340D01*
X100121617Y-127773118D01*
X100089232Y-127835028D01*
X100028516Y-127869603D01*
X99958747Y-127865863D01*
X99902075Y-127824996D01*
X99878383Y-127773118D01*
X99869924Y-127730594D01*
X99865894Y-127710334D01*
X99811886Y-127579946D01*
X99798016Y-127546459D01*
X99798009Y-127546446D01*
X99699464Y-127398965D01*
X99699461Y-127398961D01*
X99574038Y-127273538D01*
X99574034Y-127273535D01*
X99426553Y-127174990D01*
X99426540Y-127174983D01*
X99262667Y-127107106D01*
X99262658Y-127107103D01*
X99088694Y-127072500D01*
X99088691Y-127072500D01*
X98911309Y-127072500D01*
X98911306Y-127072500D01*
X98737341Y-127107103D01*
X98737332Y-127107106D01*
X98573459Y-127174983D01*
X98573446Y-127174990D01*
X98425965Y-127273535D01*
X98425961Y-127273538D01*
X98300538Y-127398961D01*
X98300535Y-127398965D01*
X98201990Y-127546446D01*
X98201983Y-127546459D01*
X98134106Y-127710332D01*
X98134104Y-127710340D01*
X98121362Y-127774398D01*
X98088977Y-127836309D01*
X98028261Y-127870883D01*
X97958491Y-127867142D01*
X97901819Y-127826276D01*
X97878127Y-127774397D01*
X97865413Y-127710478D01*
X97797571Y-127546692D01*
X97797566Y-127546683D01*
X97699076Y-127399283D01*
X97699073Y-127399279D01*
X97573724Y-127273930D01*
X97573716Y-127273924D01*
X97500000Y-127224666D01*
X97500000Y-128624000D01*
X97480315Y-128691039D01*
X97427511Y-128736794D01*
X97376000Y-128748000D01*
X96624000Y-128748000D01*
X96556961Y-128728315D01*
X96511206Y-128675511D01*
X96500000Y-128624000D01*
X96500000Y-128198630D01*
X96625000Y-128198630D01*
X96625000Y-128297370D01*
X96650556Y-128392745D01*
X96699925Y-128478255D01*
X96769745Y-128548075D01*
X96855255Y-128597444D01*
X96950630Y-128623000D01*
X97049370Y-128623000D01*
X97144745Y-128597444D01*
X97230255Y-128548075D01*
X97300075Y-128478255D01*
X97349444Y-128392745D01*
X97375000Y-128297370D01*
X97375000Y-128198630D01*
X97349444Y-128103255D01*
X97300075Y-128017745D01*
X97230255Y-127947925D01*
X97144745Y-127898556D01*
X97049370Y-127873000D01*
X96950630Y-127873000D01*
X96855255Y-127898556D01*
X96769745Y-127947925D01*
X96699925Y-128017745D01*
X96650556Y-128103255D01*
X96625000Y-128198630D01*
X96500000Y-128198630D01*
X96500000Y-127224666D01*
X96499999Y-127224666D01*
X96426283Y-127273924D01*
X96426276Y-127273930D01*
X96300926Y-127399279D01*
X96300923Y-127399283D01*
X96202433Y-127546683D01*
X96202428Y-127546692D01*
X96134586Y-127710479D01*
X96134584Y-127710485D01*
X96121871Y-127774398D01*
X96089486Y-127836309D01*
X96028770Y-127870883D01*
X95959000Y-127867142D01*
X95902328Y-127826276D01*
X95878637Y-127774398D01*
X95865894Y-127710334D01*
X95811886Y-127579946D01*
X95798016Y-127546459D01*
X95798009Y-127546446D01*
X95699464Y-127398965D01*
X95699461Y-127398961D01*
X95574038Y-127273538D01*
X95574034Y-127273535D01*
X95426553Y-127174990D01*
X95426540Y-127174983D01*
X95262667Y-127107106D01*
X95262658Y-127107103D01*
X95088694Y-127072500D01*
X95088691Y-127072500D01*
X94911309Y-127072500D01*
X94911306Y-127072500D01*
X94737341Y-127107103D01*
X94737332Y-127107106D01*
X94573459Y-127174983D01*
X94573446Y-127174990D01*
X94425965Y-127273535D01*
X94425961Y-127273538D01*
X94300538Y-127398961D01*
X94300535Y-127398965D01*
X94201990Y-127546446D01*
X94201983Y-127546459D01*
X94134106Y-127710332D01*
X94134104Y-127710340D01*
X94121617Y-127773118D01*
X94089232Y-127835028D01*
X94028516Y-127869603D01*
X93958747Y-127865863D01*
X93902075Y-127824996D01*
X93878383Y-127773118D01*
X93869924Y-127730594D01*
X93865894Y-127710334D01*
X93811886Y-127579946D01*
X93798016Y-127546459D01*
X93798009Y-127546446D01*
X93699464Y-127398965D01*
X93699461Y-127398961D01*
X93574038Y-127273538D01*
X93574034Y-127273535D01*
X93426553Y-127174990D01*
X93426540Y-127174983D01*
X93262667Y-127107106D01*
X93262658Y-127107103D01*
X93088694Y-127072500D01*
X93088691Y-127072500D01*
X92911309Y-127072500D01*
X92911306Y-127072500D01*
X92737341Y-127107103D01*
X92737332Y-127107106D01*
X92573459Y-127174983D01*
X92573446Y-127174990D01*
X92425965Y-127273535D01*
X92425961Y-127273538D01*
X92300538Y-127398961D01*
X92300535Y-127398965D01*
X92201990Y-127546446D01*
X92201983Y-127546459D01*
X92134106Y-127710332D01*
X92134103Y-127710341D01*
X92099500Y-127884304D01*
X92099500Y-128611695D01*
X92134103Y-128785658D01*
X92134106Y-128785667D01*
X92201983Y-128949540D01*
X92201990Y-128949553D01*
X92300535Y-129097034D01*
X92300538Y-129097038D01*
X92425961Y-129222461D01*
X92425965Y-129222464D01*
X92498886Y-129271189D01*
X92543691Y-129324801D01*
X92552398Y-129394126D01*
X92522243Y-129457154D01*
X92462800Y-129493873D01*
X92429995Y-129498291D01*
X83004067Y-129498291D01*
X82995957Y-129498026D01*
X82747116Y-129481716D01*
X82731035Y-129479598D01*
X82697885Y-129473004D01*
X82490464Y-129431745D01*
X82474798Y-129427547D01*
X82242522Y-129348700D01*
X82227536Y-129342493D01*
X82007541Y-129234003D01*
X81993494Y-129225893D01*
X81789542Y-129089616D01*
X81776674Y-129079742D01*
X81592254Y-128918009D01*
X81580785Y-128906540D01*
X81419051Y-128722117D01*
X81409177Y-128709248D01*
X81272905Y-128505301D01*
X81264795Y-128491255D01*
X81216215Y-128392745D01*
X81156299Y-128271247D01*
X81150098Y-128256275D01*
X81071253Y-128024004D01*
X81067055Y-128008337D01*
X81019200Y-127767749D01*
X81017082Y-127751667D01*
X81014373Y-127710340D01*
X81000764Y-127502696D01*
X81000500Y-127494593D01*
X81000500Y-125278511D01*
X82198100Y-125278511D01*
X82198100Y-125521088D01*
X82229761Y-125761585D01*
X82292547Y-125995904D01*
X82385373Y-126220005D01*
X82385376Y-126220012D01*
X82506664Y-126430089D01*
X82506666Y-126430092D01*
X82506667Y-126430093D01*
X82654333Y-126622536D01*
X82654339Y-126622543D01*
X82825856Y-126794060D01*
X82825862Y-126794065D01*
X83018311Y-126941736D01*
X83228388Y-127063024D01*
X83452500Y-127155854D01*
X83686811Y-127218638D01*
X83867186Y-127242384D01*
X83927311Y-127250300D01*
X83927312Y-127250300D01*
X84169889Y-127250300D01*
X84217988Y-127243967D01*
X84410389Y-127218638D01*
X84644700Y-127155854D01*
X84868812Y-127063024D01*
X85078889Y-126941736D01*
X85271338Y-126794065D01*
X85440692Y-126624711D01*
X114405300Y-126624711D01*
X114405300Y-126867288D01*
X114436961Y-127107785D01*
X114499747Y-127342104D01*
X114591943Y-127564683D01*
X114592576Y-127566212D01*
X114713864Y-127776289D01*
X114713866Y-127776292D01*
X114713867Y-127776293D01*
X114861533Y-127968736D01*
X114861539Y-127968743D01*
X115033056Y-128140260D01*
X115033062Y-128140265D01*
X115225511Y-128287936D01*
X115435588Y-128409224D01*
X115659700Y-128502054D01*
X115894011Y-128564838D01*
X116074386Y-128588584D01*
X116134511Y-128596500D01*
X116134512Y-128596500D01*
X116377089Y-128596500D01*
X116425188Y-128590167D01*
X116617589Y-128564838D01*
X116851900Y-128502054D01*
X117076012Y-128409224D01*
X117286089Y-128287936D01*
X117478538Y-128140265D01*
X117650065Y-127968738D01*
X117797736Y-127776289D01*
X117919024Y-127566212D01*
X118011854Y-127342100D01*
X118074638Y-127107789D01*
X118106300Y-126867288D01*
X118106300Y-126624712D01*
X118106014Y-126622543D01*
X118074638Y-126384214D01*
X118074638Y-126384211D01*
X118011854Y-126149900D01*
X117919024Y-125925788D01*
X117797736Y-125715711D01*
X117650065Y-125523262D01*
X117650060Y-125523256D01*
X117478543Y-125351739D01*
X117478536Y-125351733D01*
X117286093Y-125204067D01*
X117286092Y-125204066D01*
X117286089Y-125204064D01*
X117076012Y-125082776D01*
X117076005Y-125082773D01*
X116851904Y-124989947D01*
X116617585Y-124927161D01*
X116377089Y-124895500D01*
X116377088Y-124895500D01*
X116134512Y-124895500D01*
X116134511Y-124895500D01*
X115894014Y-124927161D01*
X115659695Y-124989947D01*
X115435594Y-125082773D01*
X115435585Y-125082777D01*
X115225506Y-125204067D01*
X115033063Y-125351733D01*
X115033056Y-125351739D01*
X114861539Y-125523256D01*
X114861533Y-125523263D01*
X114713867Y-125715706D01*
X114592577Y-125925785D01*
X114592573Y-125925794D01*
X114499747Y-126149895D01*
X114436961Y-126384214D01*
X114405300Y-126624711D01*
X85440692Y-126624711D01*
X85442865Y-126622538D01*
X85590536Y-126430089D01*
X85711824Y-126220012D01*
X85804654Y-125995900D01*
X85867438Y-125761589D01*
X85899100Y-125521088D01*
X85899100Y-125278512D01*
X85867438Y-125038011D01*
X85804654Y-124803700D01*
X85711824Y-124579588D01*
X85590536Y-124369511D01*
X85442865Y-124177062D01*
X85442860Y-124177056D01*
X85271343Y-124005539D01*
X85271336Y-124005533D01*
X85078893Y-123857867D01*
X85078892Y-123857866D01*
X85078889Y-123857864D01*
X84868812Y-123736576D01*
X84868805Y-123736573D01*
X84644704Y-123643747D01*
X84410385Y-123580961D01*
X84169889Y-123549300D01*
X84169888Y-123549300D01*
X83927312Y-123549300D01*
X83927311Y-123549300D01*
X83686814Y-123580961D01*
X83452495Y-123643747D01*
X83228394Y-123736573D01*
X83228385Y-123736577D01*
X83046451Y-123841617D01*
X83018677Y-123857653D01*
X83018306Y-123857867D01*
X82825863Y-124005533D01*
X82825856Y-124005539D01*
X82654339Y-124177056D01*
X82654333Y-124177063D01*
X82506667Y-124369506D01*
X82385377Y-124579585D01*
X82385373Y-124579594D01*
X82292547Y-124803695D01*
X82229761Y-125038014D01*
X82198100Y-125278511D01*
X81000500Y-125278511D01*
X81000500Y-124008287D01*
X81000902Y-123801716D01*
X80995629Y-123736577D01*
X80967482Y-123388895D01*
X80900043Y-122980251D01*
X80888916Y-122936000D01*
X106286571Y-122936000D01*
X106306244Y-123148310D01*
X106359675Y-123336099D01*
X106364596Y-123353392D01*
X106364596Y-123353394D01*
X106459632Y-123544253D01*
X106587874Y-123714071D01*
X106588128Y-123714407D01*
X106745698Y-123858052D01*
X106926981Y-123970298D01*
X107125802Y-124047321D01*
X107335390Y-124086500D01*
X107335392Y-124086500D01*
X107548608Y-124086500D01*
X107548610Y-124086500D01*
X107758198Y-124047321D01*
X107957019Y-123970298D01*
X108138302Y-123858052D01*
X108295872Y-123714407D01*
X108424366Y-123544255D01*
X108478270Y-123436000D01*
X108519403Y-123353394D01*
X108519403Y-123353393D01*
X108519405Y-123353389D01*
X108577756Y-123148310D01*
X108588529Y-123032047D01*
X108614315Y-122967111D01*
X108656622Y-122936804D01*
X108765130Y-122936804D01*
X108801503Y-122957668D01*
X108833693Y-123019681D01*
X108835470Y-123032047D01*
X108846244Y-123148310D01*
X108899675Y-123336099D01*
X108904596Y-123353392D01*
X108904596Y-123353394D01*
X108999632Y-123544253D01*
X109127874Y-123714071D01*
X109128128Y-123714407D01*
X109285698Y-123858052D01*
X109466981Y-123970298D01*
X109665802Y-124047321D01*
X109875390Y-124086500D01*
X109875392Y-124086500D01*
X110088608Y-124086500D01*
X110088610Y-124086500D01*
X110298198Y-124047321D01*
X110497019Y-123970298D01*
X110678302Y-123858052D01*
X110835872Y-123714407D01*
X110964366Y-123544255D01*
X111018270Y-123436000D01*
X111486288Y-123436000D01*
X111540059Y-123543989D01*
X111668500Y-123714071D01*
X111826000Y-123857651D01*
X111826002Y-123857653D01*
X112007202Y-123969847D01*
X112007204Y-123969848D01*
X112022000Y-123975579D01*
X112022000Y-123975578D01*
X113022000Y-123975578D01*
X113036795Y-123969848D01*
X113036797Y-123969847D01*
X113217997Y-123857653D01*
X113217999Y-123857651D01*
X113375499Y-123714071D01*
X113503940Y-123543989D01*
X113557712Y-123436000D01*
X113022000Y-123436000D01*
X113022000Y-123975578D01*
X112022000Y-123975578D01*
X112022000Y-123436000D01*
X111486288Y-123436000D01*
X111018270Y-123436000D01*
X111059403Y-123353394D01*
X111059403Y-123353393D01*
X111059405Y-123353389D01*
X111117756Y-123148310D01*
X111137429Y-122936000D01*
X111131329Y-122870174D01*
X112022000Y-122870174D01*
X112022000Y-123001826D01*
X112056075Y-123128993D01*
X112121901Y-123243007D01*
X112214993Y-123336099D01*
X112329007Y-123401925D01*
X112456174Y-123436000D01*
X112587826Y-123436000D01*
X112714993Y-123401925D01*
X112829007Y-123336099D01*
X112922099Y-123243007D01*
X112987925Y-123128993D01*
X113022000Y-123001826D01*
X113022000Y-122936000D01*
X113906571Y-122936000D01*
X113926244Y-123148310D01*
X113979675Y-123336099D01*
X113984596Y-123353392D01*
X113984596Y-123353394D01*
X114079632Y-123544253D01*
X114207874Y-123714071D01*
X114208128Y-123714407D01*
X114365698Y-123858052D01*
X114546981Y-123970298D01*
X114745802Y-124047321D01*
X114955390Y-124086500D01*
X114955392Y-124086500D01*
X115168608Y-124086500D01*
X115168610Y-124086500D01*
X115378198Y-124047321D01*
X115577019Y-123970298D01*
X115758302Y-123858052D01*
X115915872Y-123714407D01*
X116044366Y-123544255D01*
X116098270Y-123436000D01*
X116139403Y-123353394D01*
X116139403Y-123353393D01*
X116139405Y-123353389D01*
X116197756Y-123148310D01*
X116204029Y-123080605D01*
X116229814Y-123015669D01*
X116286614Y-122974981D01*
X116356395Y-122971461D01*
X116417002Y-123006225D01*
X116449193Y-123068238D01*
X116451500Y-123092047D01*
X116451500Y-123830856D01*
X116451502Y-123830882D01*
X116454413Y-123855987D01*
X116454415Y-123855991D01*
X116499793Y-123958764D01*
X116499794Y-123958765D01*
X116579235Y-124038206D01*
X116682009Y-124083585D01*
X116707135Y-124086500D01*
X118496864Y-124086499D01*
X118496879Y-124086497D01*
X118496882Y-124086497D01*
X118521987Y-124083586D01*
X118521988Y-124083585D01*
X118521991Y-124083585D01*
X118624765Y-124038206D01*
X118704206Y-123958765D01*
X118749585Y-123855991D01*
X118752326Y-123832365D01*
X118761219Y-123811394D01*
X118755043Y-123799773D01*
X118752499Y-123774792D01*
X118752499Y-122041136D01*
X118752497Y-122041117D01*
X118749586Y-122016012D01*
X118749585Y-122016010D01*
X118749585Y-122016009D01*
X118704206Y-121913235D01*
X118624765Y-121833794D01*
X118604124Y-121824680D01*
X118521992Y-121788415D01*
X118496865Y-121785500D01*
X116707143Y-121785500D01*
X116707117Y-121785502D01*
X116682012Y-121788413D01*
X116682008Y-121788415D01*
X116579235Y-121833793D01*
X116499794Y-121913234D01*
X116454415Y-122016006D01*
X116454415Y-122016008D01*
X116451500Y-122041131D01*
X116451500Y-122779951D01*
X116431815Y-122846990D01*
X116379011Y-122892745D01*
X116309853Y-122902689D01*
X116246297Y-122873664D01*
X116208523Y-122814886D01*
X116204029Y-122791391D01*
X116197756Y-122723689D01*
X116170812Y-122628993D01*
X116139405Y-122518611D01*
X116139403Y-122518606D01*
X116139403Y-122518605D01*
X116044367Y-122327746D01*
X115915872Y-122157593D01*
X115788133Y-122041143D01*
X115758302Y-122013948D01*
X115577019Y-121901702D01*
X115577017Y-121901701D01*
X115477608Y-121863190D01*
X115378198Y-121824679D01*
X115168610Y-121785500D01*
X114955390Y-121785500D01*
X114745802Y-121824679D01*
X114745799Y-121824679D01*
X114745799Y-121824680D01*
X114546982Y-121901701D01*
X114546980Y-121901702D01*
X114365699Y-122013947D01*
X114208127Y-122157593D01*
X114079632Y-122327746D01*
X113984596Y-122518605D01*
X113984596Y-122518607D01*
X113926244Y-122723689D01*
X113912671Y-122870174D01*
X113906571Y-122936000D01*
X113022000Y-122936000D01*
X113022000Y-122870174D01*
X112987925Y-122743007D01*
X112922099Y-122628993D01*
X112829007Y-122535901D01*
X112714993Y-122470075D01*
X112587826Y-122436000D01*
X113022000Y-122436000D01*
X113557712Y-122436000D01*
X113557712Y-122435999D01*
X113503940Y-122328010D01*
X113375499Y-122157928D01*
X113217999Y-122014348D01*
X113217997Y-122014346D01*
X113036801Y-121902155D01*
X113036793Y-121902151D01*
X113022000Y-121896419D01*
X113022000Y-122436000D01*
X112587826Y-122436000D01*
X112456174Y-122436000D01*
X112329007Y-122470075D01*
X112214993Y-122535901D01*
X112121901Y-122628993D01*
X112056075Y-122743007D01*
X112022000Y-122870174D01*
X111131329Y-122870174D01*
X111117756Y-122723690D01*
X111059405Y-122518611D01*
X111059403Y-122518606D01*
X111059403Y-122518605D01*
X111018270Y-122435999D01*
X111486287Y-122435999D01*
X111486288Y-122436000D01*
X112022000Y-122436000D01*
X112022000Y-121896420D01*
X112021999Y-121896419D01*
X112007206Y-121902151D01*
X112007198Y-121902155D01*
X111826002Y-122014346D01*
X111826000Y-122014348D01*
X111668500Y-122157928D01*
X111540059Y-122328010D01*
X111486287Y-122435999D01*
X111018270Y-122435999D01*
X110964367Y-122327746D01*
X110835872Y-122157593D01*
X110708133Y-122041143D01*
X110678302Y-122013948D01*
X110497019Y-121901702D01*
X110497017Y-121901701D01*
X110397608Y-121863190D01*
X110298198Y-121824679D01*
X110088610Y-121785500D01*
X109875390Y-121785500D01*
X109665802Y-121824679D01*
X109665799Y-121824679D01*
X109665799Y-121824680D01*
X109466982Y-121901701D01*
X109466980Y-121901702D01*
X109285699Y-122013947D01*
X109128127Y-122157593D01*
X108999632Y-122327746D01*
X108904596Y-122518605D01*
X108904596Y-122518607D01*
X108846244Y-122723689D01*
X108835471Y-122839951D01*
X108809685Y-122904888D01*
X108765130Y-122936804D01*
X108656622Y-122936804D01*
X108658869Y-122935194D01*
X108622497Y-122914331D01*
X108590307Y-122852318D01*
X108588529Y-122839951D01*
X108582969Y-122779951D01*
X108577756Y-122723690D01*
X108519405Y-122518611D01*
X108519403Y-122518606D01*
X108519403Y-122518605D01*
X108424367Y-122327746D01*
X108295872Y-122157593D01*
X108168133Y-122041143D01*
X108138302Y-122013948D01*
X107957019Y-121901702D01*
X107957017Y-121901701D01*
X107857608Y-121863190D01*
X107758198Y-121824679D01*
X107548610Y-121785500D01*
X107335390Y-121785500D01*
X107125802Y-121824679D01*
X107125799Y-121824679D01*
X107125799Y-121824680D01*
X106926982Y-121901701D01*
X106926980Y-121901702D01*
X106745699Y-122013947D01*
X106588127Y-122157593D01*
X106459632Y-122327746D01*
X106364596Y-122518605D01*
X106364596Y-122518607D01*
X106306244Y-122723689D01*
X106292671Y-122870174D01*
X106286571Y-122936000D01*
X80888916Y-122936000D01*
X80799046Y-122578582D01*
X80665184Y-122186640D01*
X80662075Y-122179524D01*
X80499372Y-121807108D01*
X80302755Y-121442599D01*
X80302752Y-121442594D01*
X80302747Y-121442585D01*
X80076654Y-121095569D01*
X79822644Y-120768435D01*
X79546509Y-120467838D01*
X79542462Y-120463432D01*
X79542442Y-120463413D01*
X79332791Y-120270049D01*
X79238004Y-120182625D01*
X79105351Y-120079197D01*
X78911381Y-119927961D01*
X78720292Y-119802916D01*
X78564815Y-119701174D01*
X78564812Y-119701172D01*
X78564810Y-119701171D01*
X78564803Y-119701167D01*
X78390784Y-119606851D01*
X78200687Y-119503821D01*
X77821487Y-119337250D01*
X77821486Y-119337249D01*
X77821480Y-119337247D01*
X77429831Y-119202609D01*
X77429811Y-119202603D01*
X77028347Y-119100804D01*
X77026773Y-119100541D01*
X76619839Y-119032548D01*
X76619834Y-119032547D01*
X76619825Y-119032546D01*
X76207086Y-118998302D01*
X76207079Y-118998301D01*
X76072952Y-118998294D01*
X76072894Y-118998291D01*
X76065892Y-118998291D01*
X72504595Y-118998291D01*
X72496363Y-118998017D01*
X72248026Y-118981494D01*
X72231941Y-118979360D01*
X71991817Y-118931339D01*
X71976149Y-118927123D01*
X71744346Y-118848158D01*
X71729362Y-118841932D01*
X71524299Y-118740519D01*
X71509856Y-118733376D01*
X71495819Y-118725251D01*
X71292364Y-118588961D01*
X71279504Y-118579069D01*
X71233165Y-118538331D01*
X92124500Y-118538331D01*
X92124500Y-120628056D01*
X92124502Y-120628082D01*
X92127413Y-120653187D01*
X92127415Y-120653191D01*
X92172793Y-120755964D01*
X92172794Y-120755965D01*
X92252235Y-120835406D01*
X92355009Y-120880785D01*
X92380135Y-120883700D01*
X94469864Y-120883699D01*
X94469879Y-120883697D01*
X94469882Y-120883697D01*
X94494987Y-120880786D01*
X94494988Y-120880785D01*
X94494991Y-120880785D01*
X94597765Y-120835406D01*
X94646868Y-120786303D01*
X97929002Y-120786303D01*
X97978673Y-120809465D01*
X97978682Y-120809469D01*
X98198389Y-120868339D01*
X98198400Y-120868341D01*
X98424998Y-120888166D01*
X98425002Y-120888166D01*
X98651599Y-120868341D01*
X98651606Y-120868340D01*
X98871328Y-120809465D01*
X98920997Y-120786303D01*
X98759292Y-120624598D01*
X103686718Y-120624598D01*
X103686718Y-120624601D01*
X103707355Y-120781360D01*
X103707356Y-120781362D01*
X103749744Y-120883697D01*
X103767864Y-120927441D01*
X103864118Y-121052882D01*
X103989559Y-121149136D01*
X104135638Y-121209644D01*
X104214019Y-121219963D01*
X104292399Y-121230282D01*
X104292400Y-121230282D01*
X104292401Y-121230282D01*
X104344654Y-121223402D01*
X104449162Y-121209644D01*
X104595241Y-121149136D01*
X104720682Y-121052882D01*
X104816936Y-120927441D01*
X104877444Y-120781362D01*
X104894318Y-120653191D01*
X104898082Y-120624601D01*
X104898082Y-120624598D01*
X104877444Y-120467839D01*
X104877444Y-120467838D01*
X104816936Y-120321759D01*
X104720682Y-120196318D01*
X104595241Y-120100064D01*
X104544861Y-120079196D01*
X104449162Y-120039556D01*
X104449160Y-120039555D01*
X104292401Y-120018918D01*
X104292399Y-120018918D01*
X104135639Y-120039555D01*
X104135637Y-120039556D01*
X103989560Y-120100063D01*
X103864118Y-120196318D01*
X103767863Y-120321760D01*
X103707356Y-120467837D01*
X103707355Y-120467839D01*
X103686718Y-120624598D01*
X98759292Y-120624598D01*
X98425001Y-120290307D01*
X98425000Y-120290307D01*
X97929002Y-120786303D01*
X94646868Y-120786303D01*
X94677206Y-120755965D01*
X94722585Y-120653191D01*
X94725500Y-120628065D01*
X94725499Y-119583197D01*
X97120034Y-119583197D01*
X97120034Y-119583202D01*
X97139858Y-119809799D01*
X97139860Y-119809810D01*
X97198731Y-120029520D01*
X97221895Y-120079196D01*
X97717893Y-119583200D01*
X97717893Y-119583199D01*
X97652068Y-119517374D01*
X97925000Y-119517374D01*
X97925000Y-119649026D01*
X97959075Y-119776193D01*
X98024901Y-119890207D01*
X98117993Y-119983299D01*
X98232007Y-120049125D01*
X98359174Y-120083200D01*
X98490826Y-120083200D01*
X98617993Y-120049125D01*
X98732007Y-119983299D01*
X98825099Y-119890207D01*
X98890925Y-119776193D01*
X98925000Y-119649026D01*
X98925000Y-119583199D01*
X99132107Y-119583199D01*
X99132107Y-119583201D01*
X99628103Y-120079197D01*
X99651265Y-120029528D01*
X99710140Y-119809806D01*
X99710141Y-119809799D01*
X99729966Y-119583202D01*
X99729966Y-119583197D01*
X99710141Y-119356600D01*
X99710139Y-119356589D01*
X99651269Y-119136882D01*
X99651265Y-119136873D01*
X99628103Y-119087202D01*
X99132107Y-119583199D01*
X98925000Y-119583199D01*
X98925000Y-119517374D01*
X98890925Y-119390207D01*
X98825099Y-119276193D01*
X98732007Y-119183101D01*
X98617993Y-119117275D01*
X98490826Y-119083200D01*
X98359174Y-119083200D01*
X98232007Y-119117275D01*
X98117993Y-119183101D01*
X98024901Y-119276193D01*
X97959075Y-119390207D01*
X97925000Y-119517374D01*
X97652068Y-119517374D01*
X97221895Y-119087202D01*
X97198731Y-119136877D01*
X97139860Y-119356589D01*
X97139858Y-119356600D01*
X97120034Y-119583197D01*
X94725499Y-119583197D01*
X94725499Y-118538336D01*
X94725497Y-118538317D01*
X94722586Y-118513212D01*
X94722585Y-118513210D01*
X94722585Y-118513209D01*
X94677206Y-118410435D01*
X94646866Y-118380095D01*
X97929002Y-118380095D01*
X98425000Y-118876093D01*
X98425001Y-118876093D01*
X98454496Y-118846598D01*
X104524918Y-118846598D01*
X104524918Y-118846601D01*
X104545555Y-119003360D01*
X104545556Y-119003362D01*
X104606064Y-119149441D01*
X104702318Y-119274882D01*
X104827759Y-119371136D01*
X104973838Y-119431644D01*
X105052219Y-119441963D01*
X105130599Y-119452282D01*
X105130600Y-119452282D01*
X105130601Y-119452282D01*
X105182854Y-119445402D01*
X105287362Y-119431644D01*
X105433441Y-119371136D01*
X105558882Y-119274882D01*
X105655136Y-119149441D01*
X105715644Y-119003362D01*
X105736282Y-118846600D01*
X105735667Y-118841932D01*
X105721247Y-118732399D01*
X105715644Y-118689838D01*
X105655136Y-118543759D01*
X105558882Y-118418318D01*
X105433441Y-118322064D01*
X105399504Y-118308007D01*
X105287362Y-118261556D01*
X105287360Y-118261555D01*
X105130601Y-118240918D01*
X105130599Y-118240918D01*
X104973839Y-118261555D01*
X104973837Y-118261556D01*
X104827760Y-118322063D01*
X104702318Y-118418318D01*
X104606063Y-118543760D01*
X104545556Y-118689837D01*
X104545555Y-118689839D01*
X104524918Y-118846598D01*
X98454496Y-118846598D01*
X98920996Y-118380095D01*
X98871320Y-118356931D01*
X98651610Y-118298060D01*
X98651599Y-118298058D01*
X98425002Y-118278234D01*
X98424998Y-118278234D01*
X98198400Y-118298058D01*
X98198389Y-118298060D01*
X97978677Y-118356931D01*
X97929002Y-118380095D01*
X94646866Y-118380095D01*
X94597765Y-118330994D01*
X94597763Y-118330993D01*
X94494992Y-118285615D01*
X94469865Y-118282700D01*
X92380143Y-118282700D01*
X92380117Y-118282702D01*
X92355012Y-118285613D01*
X92355008Y-118285615D01*
X92252235Y-118330993D01*
X92172794Y-118410434D01*
X92127415Y-118513206D01*
X92127415Y-118513208D01*
X92124500Y-118538331D01*
X71233165Y-118538331D01*
X71095586Y-118417381D01*
X71084129Y-118405896D01*
X71051890Y-118369040D01*
X70922889Y-118221566D01*
X70913043Y-118208699D01*
X70864204Y-118135398D01*
X109833518Y-118135398D01*
X109833518Y-118135401D01*
X109854155Y-118292160D01*
X109854156Y-118292162D01*
X109906411Y-118418318D01*
X109914664Y-118438241D01*
X110010918Y-118563682D01*
X110136359Y-118659936D01*
X110282438Y-118720444D01*
X110293692Y-118721925D01*
X110357587Y-118750189D01*
X110396060Y-118808512D01*
X110400447Y-118861048D01*
X110392318Y-118922797D01*
X110392318Y-118922801D01*
X110412955Y-119079560D01*
X110412956Y-119079562D01*
X110473464Y-119225641D01*
X110569718Y-119351082D01*
X110695159Y-119447336D01*
X110841238Y-119507844D01*
X110913626Y-119517374D01*
X110997999Y-119528482D01*
X110998000Y-119528482D01*
X110998001Y-119528482D01*
X111082351Y-119517377D01*
X111154762Y-119507844D01*
X111300841Y-119447336D01*
X111426282Y-119351082D01*
X111522536Y-119225641D01*
X111583044Y-119079562D01*
X111603682Y-118922800D01*
X111600062Y-118895306D01*
X111583044Y-118766039D01*
X111583044Y-118766038D01*
X111522536Y-118619959D01*
X111426282Y-118494518D01*
X111300841Y-118398264D01*
X111300839Y-118398263D01*
X111154761Y-118337755D01*
X111144353Y-118336385D01*
X111143504Y-118336273D01*
X111079609Y-118308007D01*
X111066279Y-118287798D01*
X113186318Y-118287798D01*
X113186318Y-118287801D01*
X113206955Y-118444560D01*
X113206956Y-118444562D01*
X113245798Y-118538336D01*
X113267464Y-118590641D01*
X113363718Y-118716082D01*
X113489159Y-118812336D01*
X113635238Y-118872844D01*
X113659917Y-118876093D01*
X113791999Y-118893482D01*
X113792000Y-118893482D01*
X113792001Y-118893482D01*
X113844254Y-118886602D01*
X113948762Y-118872844D01*
X114094841Y-118812336D01*
X114220282Y-118716082D01*
X114316536Y-118590641D01*
X114377044Y-118444562D01*
X114397682Y-118287800D01*
X114397394Y-118285615D01*
X114377044Y-118131039D01*
X114377044Y-118131038D01*
X114316536Y-117984959D01*
X114220282Y-117859518D01*
X114094841Y-117763264D01*
X114077451Y-117756061D01*
X113948762Y-117702756D01*
X113948760Y-117702755D01*
X113792001Y-117682118D01*
X113791999Y-117682118D01*
X113635239Y-117702755D01*
X113635237Y-117702756D01*
X113489160Y-117763263D01*
X113363718Y-117859518D01*
X113267463Y-117984960D01*
X113206956Y-118131037D01*
X113206955Y-118131039D01*
X113186318Y-118287798D01*
X111066279Y-118287798D01*
X111041138Y-118249682D01*
X111036752Y-118197151D01*
X111044882Y-118135400D01*
X111024244Y-117978638D01*
X110963736Y-117832559D01*
X110867482Y-117707118D01*
X110742041Y-117610864D01*
X110595962Y-117550356D01*
X110595960Y-117550355D01*
X110439201Y-117529718D01*
X110439199Y-117529718D01*
X110282439Y-117550355D01*
X110282437Y-117550356D01*
X110136360Y-117610863D01*
X110010918Y-117707118D01*
X109914663Y-117832560D01*
X109854156Y-117978637D01*
X109854155Y-117978639D01*
X109833518Y-118135398D01*
X70864204Y-118135398D01*
X70777254Y-118004899D01*
X70769164Y-117990844D01*
X70766272Y-117984960D01*
X70661150Y-117771060D01*
X70654962Y-117756061D01*
X70605902Y-117610863D01*
X70576574Y-117524065D01*
X70572399Y-117508393D01*
X70540736Y-117347998D01*
X102674518Y-117347998D01*
X102674518Y-117348001D01*
X102695155Y-117504760D01*
X102695156Y-117504762D01*
X102739104Y-117610863D01*
X102755664Y-117650841D01*
X102851918Y-117776282D01*
X102977359Y-117872536D01*
X103123438Y-117933044D01*
X103201819Y-117943363D01*
X103280199Y-117953682D01*
X103280200Y-117953682D01*
X103280201Y-117953682D01*
X103332454Y-117946802D01*
X103436962Y-117933044D01*
X103583041Y-117872536D01*
X103708482Y-117776282D01*
X103804736Y-117650841D01*
X103865244Y-117504762D01*
X103885882Y-117348000D01*
X103865244Y-117191238D01*
X103804736Y-117045159D01*
X103708482Y-116919718D01*
X103583041Y-116823464D01*
X103532562Y-116802555D01*
X103436962Y-116762956D01*
X103436960Y-116762955D01*
X103280201Y-116742318D01*
X103280199Y-116742318D01*
X103123439Y-116762955D01*
X103123437Y-116762956D01*
X102977360Y-116823463D01*
X102851918Y-116919718D01*
X102755663Y-117045160D01*
X102695156Y-117191237D01*
X102695155Y-117191239D01*
X102674518Y-117347998D01*
X70540736Y-117347998D01*
X70524972Y-117268142D01*
X70522880Y-117252074D01*
X70507009Y-117004235D01*
X70506758Y-116996181D01*
X70506854Y-116933671D01*
X70504674Y-116925488D01*
X70500500Y-116893582D01*
X70500500Y-114912098D01*
X78651068Y-114912098D01*
X78651068Y-114912101D01*
X78671705Y-115068860D01*
X78671707Y-115068865D01*
X78734411Y-115220248D01*
X78741880Y-115289717D01*
X78734411Y-115315152D01*
X78671707Y-115466534D01*
X78671705Y-115466539D01*
X78651068Y-115623298D01*
X78651068Y-115623301D01*
X78671705Y-115780060D01*
X78671707Y-115780065D01*
X78734411Y-115931448D01*
X78741880Y-116000917D01*
X78734411Y-116026352D01*
X78671707Y-116177734D01*
X78671705Y-116177739D01*
X78651068Y-116334498D01*
X78651068Y-116334501D01*
X78671705Y-116491260D01*
X78671706Y-116491262D01*
X78732214Y-116637341D01*
X78828468Y-116762782D01*
X78953909Y-116859036D01*
X79099988Y-116919544D01*
X79145145Y-116925489D01*
X79256749Y-116940182D01*
X79256750Y-116940182D01*
X79256751Y-116940182D01*
X79309004Y-116933302D01*
X79413512Y-116919544D01*
X79559591Y-116859036D01*
X79587665Y-116837493D01*
X79652831Y-116812300D01*
X79721276Y-116826337D01*
X79738627Y-116837488D01*
X79766709Y-116859036D01*
X79766712Y-116859037D01*
X79766713Y-116859038D01*
X79839748Y-116889290D01*
X79912788Y-116919544D01*
X79957945Y-116925489D01*
X80069549Y-116940182D01*
X80069550Y-116940182D01*
X80069551Y-116940182D01*
X80121804Y-116933302D01*
X80226312Y-116919544D01*
X80372391Y-116859036D01*
X80415005Y-116826337D01*
X80425864Y-116818005D01*
X80491033Y-116792811D01*
X80559478Y-116806849D01*
X80576836Y-116818005D01*
X80630307Y-116859035D01*
X80630308Y-116859035D01*
X80630309Y-116859036D01*
X80776388Y-116919544D01*
X80821545Y-116925489D01*
X80933149Y-116940182D01*
X80933150Y-116940182D01*
X80933151Y-116940182D01*
X80985404Y-116933302D01*
X81089912Y-116919544D01*
X81235991Y-116859036D01*
X81276764Y-116827749D01*
X81341931Y-116802555D01*
X81410376Y-116816593D01*
X81427733Y-116827747D01*
X81468509Y-116859036D01*
X81468511Y-116859036D01*
X81468513Y-116859038D01*
X81541548Y-116889290D01*
X81614588Y-116919544D01*
X81659745Y-116925489D01*
X81771349Y-116940182D01*
X81771350Y-116940182D01*
X81771351Y-116940182D01*
X81823604Y-116933302D01*
X81928112Y-116919544D01*
X82074191Y-116859036D01*
X82114964Y-116827749D01*
X82180131Y-116802555D01*
X82248576Y-116816593D01*
X82265933Y-116827747D01*
X82306709Y-116859036D01*
X82306711Y-116859036D01*
X82306713Y-116859038D01*
X82379748Y-116889290D01*
X82452788Y-116919544D01*
X82497945Y-116925489D01*
X82609549Y-116940182D01*
X82609550Y-116940182D01*
X82609551Y-116940182D01*
X82661804Y-116933302D01*
X82766312Y-116919544D01*
X82912391Y-116859036D01*
X83037832Y-116762782D01*
X83134086Y-116637341D01*
X83144832Y-116611398D01*
X111331018Y-116611398D01*
X111331018Y-116611401D01*
X111351655Y-116768160D01*
X111351656Y-116768162D01*
X111412164Y-116914241D01*
X111508418Y-117039682D01*
X111633859Y-117135936D01*
X111779938Y-117196444D01*
X111858319Y-117206763D01*
X111936699Y-117217082D01*
X111936700Y-117217082D01*
X111936701Y-117217082D01*
X111988954Y-117210202D01*
X112093462Y-117196444D01*
X112239541Y-117135936D01*
X112364982Y-117039682D01*
X112461236Y-116914241D01*
X112521744Y-116768162D01*
X112542382Y-116611400D01*
X112521744Y-116454638D01*
X112461236Y-116308559D01*
X112364982Y-116183118D01*
X112239541Y-116086864D01*
X112093462Y-116026356D01*
X112093460Y-116026355D01*
X111936701Y-116005718D01*
X111936699Y-116005718D01*
X111779939Y-116026355D01*
X111779937Y-116026356D01*
X111633860Y-116086863D01*
X111508418Y-116183118D01*
X111412163Y-116308560D01*
X111351656Y-116454637D01*
X111351655Y-116454639D01*
X111331018Y-116611398D01*
X83144832Y-116611398D01*
X83194594Y-116491262D01*
X83215232Y-116334500D01*
X83194594Y-116177738D01*
X83134086Y-116031659D01*
X83134085Y-116031658D01*
X83131888Y-116026353D01*
X83124419Y-115956883D01*
X83131888Y-115931447D01*
X83167330Y-115845882D01*
X83194594Y-115780062D01*
X83212680Y-115642682D01*
X83215232Y-115623301D01*
X83215232Y-115623298D01*
X83194594Y-115466539D01*
X83194594Y-115466538D01*
X83134086Y-115320459D01*
X83134085Y-115320458D01*
X83131888Y-115315153D01*
X83124419Y-115245683D01*
X83131888Y-115220247D01*
X83134086Y-115214941D01*
X83155353Y-115163598D01*
X100943518Y-115163598D01*
X100943518Y-115163601D01*
X100964155Y-115320360D01*
X100964156Y-115320362D01*
X101004432Y-115417598D01*
X101024664Y-115466441D01*
X101120918Y-115591882D01*
X101246359Y-115688136D01*
X101392438Y-115748644D01*
X101470819Y-115758963D01*
X101549199Y-115769282D01*
X101549200Y-115769282D01*
X101549201Y-115769282D01*
X101601454Y-115762402D01*
X101705962Y-115748644D01*
X101852041Y-115688136D01*
X101897813Y-115653013D01*
X101962979Y-115627820D01*
X102031424Y-115641858D01*
X102048780Y-115653012D01*
X102094555Y-115688136D01*
X102160757Y-115738935D01*
X102160758Y-115738935D01*
X102160759Y-115738936D01*
X102306838Y-115799444D01*
X102385219Y-115809763D01*
X102463599Y-115820082D01*
X102463600Y-115820082D01*
X102463601Y-115820082D01*
X102515854Y-115813202D01*
X102620362Y-115799444D01*
X102766441Y-115738936D01*
X102891882Y-115642682D01*
X102988136Y-115517241D01*
X103029410Y-115417598D01*
X114507118Y-115417598D01*
X114507118Y-115417601D01*
X114527755Y-115574360D01*
X114527756Y-115574362D01*
X114588264Y-115720441D01*
X114684518Y-115845882D01*
X114809959Y-115942136D01*
X114956038Y-116002644D01*
X115034419Y-116012963D01*
X115112799Y-116023282D01*
X115112800Y-116023282D01*
X115112801Y-116023282D01*
X115165054Y-116016402D01*
X115269562Y-116002644D01*
X115415641Y-115942136D01*
X115541082Y-115845882D01*
X115637336Y-115720441D01*
X115697844Y-115574362D01*
X115718482Y-115417600D01*
X115697844Y-115260838D01*
X115637336Y-115114759D01*
X115541082Y-114989318D01*
X115415641Y-114893064D01*
X115337652Y-114860760D01*
X115269562Y-114832556D01*
X115269560Y-114832555D01*
X115112801Y-114811918D01*
X115112799Y-114811918D01*
X114956039Y-114832555D01*
X114956037Y-114832556D01*
X114809960Y-114893063D01*
X114684518Y-114989318D01*
X114588263Y-115114760D01*
X114527756Y-115260837D01*
X114527755Y-115260839D01*
X114507118Y-115417598D01*
X103029410Y-115417598D01*
X103048644Y-115371162D01*
X103069282Y-115214400D01*
X103048644Y-115057638D01*
X102988136Y-114911559D01*
X102891882Y-114786118D01*
X102810404Y-114723598D01*
X118545718Y-114723598D01*
X118545718Y-114723601D01*
X118566355Y-114880360D01*
X118566356Y-114880362D01*
X118618744Y-115006839D01*
X118626864Y-115026441D01*
X118723118Y-115151882D01*
X118848559Y-115248136D01*
X118994638Y-115308644D01*
X119044079Y-115315153D01*
X119151399Y-115329282D01*
X119151400Y-115329282D01*
X119151401Y-115329282D01*
X119203654Y-115322402D01*
X119308162Y-115308644D01*
X119454241Y-115248136D01*
X119579682Y-115151882D01*
X119675936Y-115026441D01*
X119736444Y-114880362D01*
X119757082Y-114723600D01*
X119752640Y-114689863D01*
X119737987Y-114578556D01*
X119736444Y-114566838D01*
X119675936Y-114420759D01*
X119579682Y-114295318D01*
X119454241Y-114199064D01*
X119308162Y-114138556D01*
X119308160Y-114138555D01*
X119151401Y-114117918D01*
X119151399Y-114117918D01*
X118994639Y-114138555D01*
X118994637Y-114138556D01*
X118848560Y-114199063D01*
X118723118Y-114295318D01*
X118626863Y-114420760D01*
X118566356Y-114566837D01*
X118566355Y-114566839D01*
X118545718Y-114723598D01*
X102810404Y-114723598D01*
X102766441Y-114689864D01*
X102620362Y-114629356D01*
X102620360Y-114629355D01*
X102463601Y-114608718D01*
X102463599Y-114608718D01*
X102306839Y-114629355D01*
X102306837Y-114629356D01*
X102160758Y-114689864D01*
X102114986Y-114724986D01*
X102049817Y-114750179D01*
X101981372Y-114736140D01*
X101964024Y-114724991D01*
X101852041Y-114639064D01*
X101828601Y-114629355D01*
X101705962Y-114578556D01*
X101705960Y-114578555D01*
X101549201Y-114557918D01*
X101549199Y-114557918D01*
X101392439Y-114578555D01*
X101392437Y-114578556D01*
X101246360Y-114639063D01*
X101120918Y-114735318D01*
X101024663Y-114860760D01*
X100964156Y-115006837D01*
X100964155Y-115006839D01*
X100943518Y-115163598D01*
X83155353Y-115163598D01*
X83194594Y-115068862D01*
X83215232Y-114912100D01*
X83211053Y-114880360D01*
X83194594Y-114755339D01*
X83194594Y-114755338D01*
X83134086Y-114609259D01*
X83037832Y-114483818D01*
X82912391Y-114387564D01*
X82861132Y-114366332D01*
X82766312Y-114327056D01*
X82766310Y-114327055D01*
X82609551Y-114306418D01*
X82609549Y-114306418D01*
X82452789Y-114327055D01*
X82452787Y-114327056D01*
X82306708Y-114387564D01*
X82265935Y-114418850D01*
X82200766Y-114444043D01*
X82132321Y-114430004D01*
X82114965Y-114418850D01*
X82074191Y-114387564D01*
X81928112Y-114327056D01*
X81928110Y-114327055D01*
X81771351Y-114306418D01*
X81771349Y-114306418D01*
X81614589Y-114327055D01*
X81614587Y-114327056D01*
X81468508Y-114387564D01*
X81427735Y-114418850D01*
X81362566Y-114444043D01*
X81294121Y-114430004D01*
X81276765Y-114418850D01*
X81235991Y-114387564D01*
X81089912Y-114327056D01*
X81089910Y-114327055D01*
X80933151Y-114306418D01*
X80933149Y-114306418D01*
X80776389Y-114327055D01*
X80776387Y-114327056D01*
X80630308Y-114387564D01*
X80576835Y-114428595D01*
X80511666Y-114453788D01*
X80443221Y-114439749D01*
X80425865Y-114428595D01*
X80372391Y-114387564D01*
X80226312Y-114327056D01*
X80226310Y-114327055D01*
X80069551Y-114306418D01*
X80069549Y-114306418D01*
X79912789Y-114327055D01*
X79912787Y-114327056D01*
X79766708Y-114387564D01*
X79738635Y-114409105D01*
X79673465Y-114434298D01*
X79605021Y-114420259D01*
X79587665Y-114409105D01*
X79559591Y-114387564D01*
X79413512Y-114327056D01*
X79413510Y-114327055D01*
X79256751Y-114306418D01*
X79256749Y-114306418D01*
X79099989Y-114327055D01*
X79099987Y-114327056D01*
X78953910Y-114387563D01*
X78828468Y-114483818D01*
X78732213Y-114609260D01*
X78671706Y-114755337D01*
X78671705Y-114755339D01*
X78651068Y-114912098D01*
X70500500Y-114912098D01*
X70500500Y-113734848D01*
X83696918Y-113734848D01*
X83696918Y-113734851D01*
X83717555Y-113891610D01*
X83717556Y-113891612D01*
X83778064Y-114037691D01*
X83874318Y-114163132D01*
X83999759Y-114259386D01*
X84145838Y-114319894D01*
X84200239Y-114327056D01*
X84302599Y-114340532D01*
X84302600Y-114340532D01*
X84302601Y-114340532D01*
X84354854Y-114333652D01*
X84459362Y-114319894D01*
X84605441Y-114259386D01*
X84730882Y-114163132D01*
X84827136Y-114037691D01*
X84881707Y-113905942D01*
X84925548Y-113851540D01*
X84954594Y-113841872D01*
X85040416Y-113841872D01*
X85059541Y-113846754D01*
X85107152Y-113897891D01*
X85119207Y-113937210D01*
X85132436Y-114037689D01*
X85139956Y-114094812D01*
X85200464Y-114240891D01*
X85296718Y-114366332D01*
X85422159Y-114462586D01*
X85568238Y-114523094D01*
X85646619Y-114533413D01*
X85724999Y-114543732D01*
X85725000Y-114543732D01*
X85725001Y-114543732D01*
X85777254Y-114536852D01*
X85881762Y-114523094D01*
X86027841Y-114462586D01*
X86094014Y-114411809D01*
X86159182Y-114386615D01*
X86227627Y-114400653D01*
X86244982Y-114411807D01*
X86266861Y-114428595D01*
X86311157Y-114462585D01*
X86311158Y-114462585D01*
X86311159Y-114462586D01*
X86457238Y-114523094D01*
X86535619Y-114533413D01*
X86613999Y-114543732D01*
X86614000Y-114543732D01*
X86614001Y-114543732D01*
X86666254Y-114536852D01*
X86770762Y-114523094D01*
X86916841Y-114462586D01*
X86983014Y-114411809D01*
X87048182Y-114386615D01*
X87116627Y-114400653D01*
X87133982Y-114411807D01*
X87155861Y-114428595D01*
X87200157Y-114462585D01*
X87200158Y-114462585D01*
X87200159Y-114462586D01*
X87346238Y-114523094D01*
X87424619Y-114533413D01*
X87502999Y-114543732D01*
X87503000Y-114543732D01*
X87503001Y-114543732D01*
X87555254Y-114536852D01*
X87659762Y-114523094D01*
X87805841Y-114462586D01*
X87872014Y-114411809D01*
X87937182Y-114386615D01*
X88005627Y-114400653D01*
X88022982Y-114411807D01*
X88044861Y-114428595D01*
X88089157Y-114462585D01*
X88089158Y-114462585D01*
X88089159Y-114462586D01*
X88235238Y-114523094D01*
X88313619Y-114533413D01*
X88391999Y-114543732D01*
X88392000Y-114543732D01*
X88392001Y-114543732D01*
X88444254Y-114536852D01*
X88548762Y-114523094D01*
X88694841Y-114462586D01*
X88820282Y-114366332D01*
X88916536Y-114240891D01*
X88977044Y-114094812D01*
X88997682Y-113938050D01*
X88997571Y-113937210D01*
X88977044Y-113781289D01*
X88977042Y-113781284D01*
X88916538Y-113635213D01*
X88916535Y-113635208D01*
X88916533Y-113635206D01*
X88914485Y-113632536D01*
X88913456Y-113629875D01*
X88912474Y-113628174D01*
X88912739Y-113628020D01*
X88889291Y-113567367D01*
X88903329Y-113498922D01*
X88914485Y-113481564D01*
X88914640Y-113481361D01*
X88916536Y-113478891D01*
X88977044Y-113332812D01*
X88997682Y-113176050D01*
X88977044Y-113019288D01*
X88946790Y-112946248D01*
X88916538Y-112873213D01*
X88916535Y-112873208D01*
X88916533Y-112873206D01*
X88914485Y-112870536D01*
X88913456Y-112867875D01*
X88912474Y-112866174D01*
X88912739Y-112866020D01*
X88889291Y-112805367D01*
X88903329Y-112736922D01*
X88914485Y-112719564D01*
X88914640Y-112719361D01*
X88916536Y-112716891D01*
X88977044Y-112570812D01*
X88994244Y-112440162D01*
X88997682Y-112414051D01*
X88997682Y-112414048D01*
X88988486Y-112344198D01*
X104156318Y-112344198D01*
X104156318Y-112344201D01*
X104176955Y-112500960D01*
X104176956Y-112500962D01*
X104204905Y-112568438D01*
X104237464Y-112647041D01*
X104333718Y-112772482D01*
X104459159Y-112868736D01*
X104605238Y-112929244D01*
X104683619Y-112939563D01*
X104761999Y-112949882D01*
X104762000Y-112949882D01*
X104762001Y-112949882D01*
X104814254Y-112943002D01*
X104918762Y-112929244D01*
X105064841Y-112868736D01*
X105190282Y-112772482D01*
X105286536Y-112647041D01*
X105347044Y-112500962D01*
X105367682Y-112344200D01*
X105367682Y-112344198D01*
X105706318Y-112344198D01*
X105706318Y-112344201D01*
X105726955Y-112500960D01*
X105726956Y-112500962D01*
X105754905Y-112568438D01*
X105787464Y-112647041D01*
X105883718Y-112772482D01*
X106009159Y-112868736D01*
X106155238Y-112929244D01*
X106233619Y-112939563D01*
X106311999Y-112949882D01*
X106312000Y-112949882D01*
X106312001Y-112949882D01*
X106364254Y-112943002D01*
X106468762Y-112929244D01*
X106614841Y-112868736D01*
X106740282Y-112772482D01*
X106776564Y-112725198D01*
X110341518Y-112725198D01*
X110341518Y-112725201D01*
X110362155Y-112881960D01*
X110362156Y-112881962D01*
X110422664Y-113028041D01*
X110518918Y-113153482D01*
X110644359Y-113249736D01*
X110790438Y-113310244D01*
X110868819Y-113320563D01*
X110947199Y-113330882D01*
X110947200Y-113330882D01*
X110947201Y-113330882D01*
X110999454Y-113324002D01*
X111103962Y-113310244D01*
X111250041Y-113249736D01*
X111375482Y-113153482D01*
X111471736Y-113028041D01*
X111532244Y-112881962D01*
X111552882Y-112725200D01*
X111552882Y-112725198D01*
X113287918Y-112725198D01*
X113287918Y-112725201D01*
X113308555Y-112881960D01*
X113308556Y-112881962D01*
X113369064Y-113028041D01*
X113465318Y-113153482D01*
X113590759Y-113249736D01*
X113736838Y-113310244D01*
X113815219Y-113320563D01*
X113893599Y-113330882D01*
X113893600Y-113330882D01*
X113893601Y-113330882D01*
X113945854Y-113324002D01*
X114050362Y-113310244D01*
X114196441Y-113249736D01*
X114321882Y-113153482D01*
X114418136Y-113028041D01*
X114478644Y-112881962D01*
X114499282Y-112725200D01*
X114498891Y-112722233D01*
X114480988Y-112586241D01*
X114478644Y-112568438D01*
X114418136Y-112422359D01*
X114321882Y-112296918D01*
X114196441Y-112200664D01*
X114164508Y-112187437D01*
X114050362Y-112140156D01*
X114050360Y-112140155D01*
X113893601Y-112119518D01*
X113893599Y-112119518D01*
X113736839Y-112140155D01*
X113736837Y-112140156D01*
X113590760Y-112200663D01*
X113465318Y-112296918D01*
X113369063Y-112422360D01*
X113308556Y-112568437D01*
X113308555Y-112568439D01*
X113287918Y-112725198D01*
X111552882Y-112725198D01*
X111552491Y-112722233D01*
X111534588Y-112586241D01*
X111532244Y-112568438D01*
X111471736Y-112422359D01*
X111375482Y-112296918D01*
X111250041Y-112200664D01*
X111218108Y-112187437D01*
X111103962Y-112140156D01*
X111103960Y-112140155D01*
X110947201Y-112119518D01*
X110947199Y-112119518D01*
X110790439Y-112140155D01*
X110790437Y-112140156D01*
X110644360Y-112200663D01*
X110518918Y-112296918D01*
X110422663Y-112422360D01*
X110362156Y-112568437D01*
X110362155Y-112568439D01*
X110341518Y-112725198D01*
X106776564Y-112725198D01*
X106836536Y-112647041D01*
X106897044Y-112500962D01*
X106917682Y-112344200D01*
X106897044Y-112187438D01*
X106836536Y-112041359D01*
X106740282Y-111915918D01*
X106614841Y-111819664D01*
X106603972Y-111815162D01*
X106468762Y-111759156D01*
X106468760Y-111759155D01*
X106312001Y-111738518D01*
X106311999Y-111738518D01*
X106155239Y-111759155D01*
X106155237Y-111759156D01*
X106009160Y-111819663D01*
X105883718Y-111915918D01*
X105787463Y-112041360D01*
X105726956Y-112187437D01*
X105726955Y-112187439D01*
X105706318Y-112344198D01*
X105367682Y-112344198D01*
X105347044Y-112187438D01*
X105286536Y-112041359D01*
X105190282Y-111915918D01*
X105064841Y-111819664D01*
X105053972Y-111815162D01*
X104918762Y-111759156D01*
X104918760Y-111759155D01*
X104762001Y-111738518D01*
X104761999Y-111738518D01*
X104605239Y-111759155D01*
X104605237Y-111759156D01*
X104459160Y-111819663D01*
X104333718Y-111915918D01*
X104237463Y-112041360D01*
X104176956Y-112187437D01*
X104176955Y-112187439D01*
X104156318Y-112344198D01*
X88988486Y-112344198D01*
X88977044Y-112257289D01*
X88977044Y-112257288D01*
X88916536Y-112111209D01*
X88820282Y-111985768D01*
X88694841Y-111889514D01*
X88548762Y-111829006D01*
X88548760Y-111829005D01*
X88392001Y-111808368D01*
X88391999Y-111808368D01*
X88235239Y-111829005D01*
X88235237Y-111829006D01*
X88089160Y-111889513D01*
X88022986Y-111940290D01*
X87957816Y-111965483D01*
X87889371Y-111951444D01*
X87872014Y-111940290D01*
X87840251Y-111915918D01*
X87805841Y-111889514D01*
X87659762Y-111829006D01*
X87659760Y-111829005D01*
X87503001Y-111808368D01*
X87502999Y-111808368D01*
X87346239Y-111829005D01*
X87346237Y-111829006D01*
X87200160Y-111889513D01*
X87133986Y-111940290D01*
X87068816Y-111965483D01*
X87000371Y-111951444D01*
X86983014Y-111940290D01*
X86951251Y-111915918D01*
X86916841Y-111889514D01*
X86770762Y-111829006D01*
X86770760Y-111829005D01*
X86614001Y-111808368D01*
X86613999Y-111808368D01*
X86457239Y-111829005D01*
X86457237Y-111829006D01*
X86311160Y-111889513D01*
X86244986Y-111940290D01*
X86179816Y-111965483D01*
X86111371Y-111951444D01*
X86094014Y-111940290D01*
X86062251Y-111915918D01*
X86027841Y-111889514D01*
X85881762Y-111829006D01*
X85881760Y-111829005D01*
X85725001Y-111808368D01*
X85724999Y-111808368D01*
X85568239Y-111829005D01*
X85568237Y-111829006D01*
X85422160Y-111889513D01*
X85296718Y-111985768D01*
X85200463Y-112111210D01*
X85139956Y-112257287D01*
X85139955Y-112257289D01*
X85119318Y-112414048D01*
X85119318Y-112414051D01*
X85139955Y-112570810D01*
X85139956Y-112570812D01*
X85200464Y-112716893D01*
X85202518Y-112719569D01*
X85203547Y-112722233D01*
X85204528Y-112723931D01*
X85204263Y-112724083D01*
X85227709Y-112784739D01*
X85213666Y-112853184D01*
X85202518Y-112870531D01*
X85200464Y-112873206D01*
X85139956Y-113019287D01*
X85139955Y-113019289D01*
X85119318Y-113176048D01*
X85119318Y-113176051D01*
X85139955Y-113332810D01*
X85139956Y-113332812D01*
X85200464Y-113478893D01*
X85202518Y-113481569D01*
X85203547Y-113484233D01*
X85204528Y-113485931D01*
X85204263Y-113486083D01*
X85227709Y-113546739D01*
X85213666Y-113615184D01*
X85202518Y-113632531D01*
X85200464Y-113635206D01*
X85145892Y-113766956D01*
X85102051Y-113821359D01*
X85040416Y-113841872D01*
X84954594Y-113841872D01*
X84987182Y-113831025D01*
X84968057Y-113826144D01*
X84920447Y-113775007D01*
X84908392Y-113735688D01*
X84908281Y-113734848D01*
X84887644Y-113578088D01*
X84827136Y-113432009D01*
X84730882Y-113306568D01*
X84605441Y-113210314D01*
X84459362Y-113149806D01*
X84459360Y-113149805D01*
X84302601Y-113129168D01*
X84302599Y-113129168D01*
X84145839Y-113149805D01*
X84145837Y-113149806D01*
X83999760Y-113210313D01*
X83874318Y-113306568D01*
X83778063Y-113432010D01*
X83717556Y-113578087D01*
X83717555Y-113578089D01*
X83696918Y-113734848D01*
X70500500Y-113734848D01*
X70500500Y-111150398D01*
X109706518Y-111150398D01*
X109706518Y-111150401D01*
X109727155Y-111307160D01*
X109727156Y-111307162D01*
X109787664Y-111453241D01*
X109883918Y-111578682D01*
X110009359Y-111674936D01*
X110155438Y-111735444D01*
X110233819Y-111745763D01*
X110312199Y-111756082D01*
X110312200Y-111756082D01*
X110312201Y-111756082D01*
X110364454Y-111749202D01*
X110468962Y-111735444D01*
X110615041Y-111674936D01*
X110740482Y-111578682D01*
X110836736Y-111453241D01*
X110897244Y-111307162D01*
X110910717Y-111204819D01*
X110938983Y-111140924D01*
X110997308Y-111102453D01*
X111049837Y-111098067D01*
X111097042Y-111104282D01*
X111253804Y-111083644D01*
X111399883Y-111023136D01*
X111525324Y-110926882D01*
X111621578Y-110801441D01*
X111682086Y-110655362D01*
X111699577Y-110522504D01*
X111702724Y-110498601D01*
X111702724Y-110498598D01*
X111701592Y-110489998D01*
X113948318Y-110489998D01*
X113948318Y-110490001D01*
X113968955Y-110646760D01*
X113968956Y-110646762D01*
X114000169Y-110722118D01*
X114029464Y-110792841D01*
X114125718Y-110918282D01*
X114251159Y-111014536D01*
X114397238Y-111075044D01*
X114508017Y-111089628D01*
X114571914Y-111117894D01*
X114610385Y-111176219D01*
X114614771Y-111196381D01*
X114617491Y-111217040D01*
X114629356Y-111307162D01*
X114689864Y-111453241D01*
X114786118Y-111578682D01*
X114911559Y-111674936D01*
X115057638Y-111735444D01*
X115136019Y-111745763D01*
X115214399Y-111756082D01*
X115214400Y-111756082D01*
X115214401Y-111756082D01*
X115266654Y-111749202D01*
X115371162Y-111735444D01*
X115517241Y-111674936D01*
X115538794Y-111658398D01*
X116843918Y-111658398D01*
X116843918Y-111658401D01*
X116864555Y-111815160D01*
X116864556Y-111815162D01*
X116906290Y-111915918D01*
X116925064Y-111961241D01*
X117021318Y-112086682D01*
X117146759Y-112182936D01*
X117292838Y-112243444D01*
X117356665Y-112251846D01*
X117420560Y-112280112D01*
X117459032Y-112338436D01*
X117463418Y-112358599D01*
X117474156Y-112440162D01*
X117534664Y-112586241D01*
X117630918Y-112711682D01*
X117756359Y-112807936D01*
X117902438Y-112868444D01*
X117980819Y-112878763D01*
X118059199Y-112889082D01*
X118059200Y-112889082D01*
X118059201Y-112889082D01*
X118113297Y-112881960D01*
X118215962Y-112868444D01*
X118362041Y-112807936D01*
X118487482Y-112711682D01*
X118583736Y-112586241D01*
X118644244Y-112440162D01*
X118664882Y-112283400D01*
X118661444Y-112257289D01*
X118646024Y-112140156D01*
X118644244Y-112126638D01*
X118583736Y-111980559D01*
X118487482Y-111855118D01*
X118362041Y-111758864D01*
X118215962Y-111698356D01*
X118206912Y-111697164D01*
X118152133Y-111689952D01*
X118088237Y-111661684D01*
X118049766Y-111603359D01*
X118045382Y-111583204D01*
X118034644Y-111501638D01*
X117974136Y-111355559D01*
X117974134Y-111355557D01*
X117971414Y-111348989D01*
X117963945Y-111279520D01*
X117995220Y-111217040D01*
X118055309Y-111181388D01*
X118125134Y-111183882D01*
X118161461Y-111203160D01*
X118213557Y-111243135D01*
X118213558Y-111243135D01*
X118213559Y-111243136D01*
X118359638Y-111303644D01*
X118438019Y-111313963D01*
X118516399Y-111324282D01*
X118516400Y-111324282D01*
X118516401Y-111324282D01*
X118568654Y-111317402D01*
X118673162Y-111303644D01*
X118819241Y-111243136D01*
X118944682Y-111146882D01*
X119040936Y-111021441D01*
X119101444Y-110875362D01*
X119122082Y-110718600D01*
X119101444Y-110561838D01*
X119040936Y-110415759D01*
X118944682Y-110290318D01*
X118819241Y-110194064D01*
X118802573Y-110187160D01*
X118673162Y-110133556D01*
X118673160Y-110133555D01*
X118516401Y-110112918D01*
X118516399Y-110112918D01*
X118359639Y-110133555D01*
X118359637Y-110133556D01*
X118213560Y-110194063D01*
X118088118Y-110290318D01*
X117991863Y-110415760D01*
X117931356Y-110561837D01*
X117931355Y-110561839D01*
X117910718Y-110718598D01*
X117910718Y-110718601D01*
X117931355Y-110875360D01*
X117931356Y-110875362D01*
X117994585Y-111028010D01*
X118002054Y-111097480D01*
X117970779Y-111159959D01*
X117910690Y-111195611D01*
X117840865Y-111193117D01*
X117804538Y-111173839D01*
X117752442Y-111133864D01*
X117606362Y-111073356D01*
X117606360Y-111073355D01*
X117449601Y-111052718D01*
X117449599Y-111052718D01*
X117292839Y-111073355D01*
X117292837Y-111073356D01*
X117146760Y-111133863D01*
X117021318Y-111230118D01*
X116925063Y-111355560D01*
X116864556Y-111501637D01*
X116864555Y-111501639D01*
X116843918Y-111658398D01*
X115538794Y-111658398D01*
X115642682Y-111578682D01*
X115738936Y-111453241D01*
X115799444Y-111307162D01*
X115820082Y-111150400D01*
X115818834Y-111140924D01*
X115799444Y-110993639D01*
X115799444Y-110993638D01*
X115738936Y-110847559D01*
X115642682Y-110722118D01*
X115517241Y-110625864D01*
X115371162Y-110565356D01*
X115344440Y-110561838D01*
X115260381Y-110550771D01*
X115196485Y-110522504D01*
X115158014Y-110464179D01*
X115153628Y-110444017D01*
X115139044Y-110333239D01*
X115139044Y-110333238D01*
X115078536Y-110187159D01*
X114982282Y-110061718D01*
X114856841Y-109965464D01*
X114710762Y-109904956D01*
X114710760Y-109904955D01*
X114554001Y-109884318D01*
X114553999Y-109884318D01*
X114397239Y-109904955D01*
X114397237Y-109904956D01*
X114251160Y-109965463D01*
X114125718Y-110061718D01*
X114029463Y-110187160D01*
X113968956Y-110333237D01*
X113968955Y-110333239D01*
X113948318Y-110489998D01*
X111701592Y-110489998D01*
X111682086Y-110341839D01*
X111682086Y-110341838D01*
X111621578Y-110195759D01*
X111525324Y-110070318D01*
X111399883Y-109974064D01*
X111379118Y-109965463D01*
X111253804Y-109913556D01*
X111253802Y-109913555D01*
X111097043Y-109892918D01*
X111097041Y-109892918D01*
X110940281Y-109913555D01*
X110940279Y-109913556D01*
X110794202Y-109974063D01*
X110668760Y-110070318D01*
X110572505Y-110195760D01*
X110511998Y-110341837D01*
X110511998Y-110341839D01*
X110498524Y-110444179D01*
X110470257Y-110508076D01*
X110411932Y-110546546D01*
X110359399Y-110550931D01*
X110312200Y-110544718D01*
X110312199Y-110544718D01*
X110155439Y-110565355D01*
X110155437Y-110565356D01*
X110009360Y-110625863D01*
X109883918Y-110722118D01*
X109787663Y-110847560D01*
X109727156Y-110993637D01*
X109727155Y-110993639D01*
X109706518Y-111150398D01*
X70500500Y-111150398D01*
X70500500Y-109574998D01*
X74171918Y-109574998D01*
X74171918Y-109575001D01*
X74192555Y-109731760D01*
X74192556Y-109731762D01*
X74253064Y-109877841D01*
X74349318Y-110003282D01*
X74474759Y-110099536D01*
X74620838Y-110160044D01*
X74699219Y-110170363D01*
X74777599Y-110180682D01*
X74777600Y-110180682D01*
X74777601Y-110180682D01*
X74829854Y-110173802D01*
X74934362Y-110160044D01*
X75080441Y-110099536D01*
X75205882Y-110003282D01*
X75302136Y-109877841D01*
X75362644Y-109731762D01*
X75383282Y-109575000D01*
X75362644Y-109418238D01*
X75302136Y-109272159D01*
X75205882Y-109146718D01*
X75080441Y-109050464D01*
X74934362Y-108989956D01*
X74934360Y-108989955D01*
X74777601Y-108969318D01*
X74777599Y-108969318D01*
X74620839Y-108989955D01*
X74620837Y-108989956D01*
X74474760Y-109050463D01*
X74349318Y-109146718D01*
X74253063Y-109272160D01*
X74192556Y-109418237D01*
X74192555Y-109418239D01*
X74171918Y-109574998D01*
X70500500Y-109574998D01*
X70500500Y-107698200D01*
X103459755Y-107698200D01*
X103480259Y-107867069D01*
X103480260Y-107867074D01*
X103540582Y-108026131D01*
X103602875Y-108116377D01*
X103637217Y-108166129D01*
X103742905Y-108259760D01*
X103764550Y-108278936D01*
X103915173Y-108357989D01*
X103915175Y-108357990D01*
X104080344Y-108398700D01*
X104250456Y-108398700D01*
X104415625Y-108357990D01*
X104495092Y-108316281D01*
X104566249Y-108278936D01*
X104566250Y-108278934D01*
X104566252Y-108278934D01*
X104693583Y-108166129D01*
X104790218Y-108026130D01*
X104850540Y-107867072D01*
X104857130Y-107812800D01*
X105237755Y-107812800D01*
X105258259Y-107981669D01*
X105258260Y-107981674D01*
X105318582Y-108140731D01*
X105380875Y-108230977D01*
X105415217Y-108280729D01*
X105502426Y-108357989D01*
X105542550Y-108393536D01*
X105693173Y-108472589D01*
X105693175Y-108472590D01*
X105858344Y-108513300D01*
X106028456Y-108513300D01*
X106193625Y-108472590D01*
X106273092Y-108430881D01*
X106344249Y-108393536D01*
X106344250Y-108393534D01*
X106344252Y-108393534D01*
X106471583Y-108280729D01*
X106568218Y-108140730D01*
X106628540Y-107981672D01*
X106649045Y-107812800D01*
X106628540Y-107643928D01*
X106568218Y-107484870D01*
X106471583Y-107344871D01*
X106344252Y-107232066D01*
X106344249Y-107232063D01*
X106308686Y-107213398D01*
X111382918Y-107213398D01*
X111382918Y-107213401D01*
X111403555Y-107370160D01*
X111403556Y-107370162D01*
X111464064Y-107516241D01*
X111560318Y-107641682D01*
X111685759Y-107737936D01*
X111831838Y-107798444D01*
X111910219Y-107808763D01*
X111988599Y-107819082D01*
X111988600Y-107819082D01*
X111988601Y-107819082D01*
X112040854Y-107812202D01*
X112145362Y-107798444D01*
X112291441Y-107737936D01*
X112416882Y-107641682D01*
X112513136Y-107516241D01*
X112573644Y-107370162D01*
X112594282Y-107213400D01*
X112573644Y-107056638D01*
X112513136Y-106910559D01*
X112416882Y-106785118D01*
X112291441Y-106688864D01*
X112145362Y-106628356D01*
X112145360Y-106628355D01*
X111988601Y-106607718D01*
X111988599Y-106607718D01*
X111831839Y-106628355D01*
X111831837Y-106628356D01*
X111685760Y-106688863D01*
X111560318Y-106785118D01*
X111464063Y-106910560D01*
X111403556Y-107056637D01*
X111403555Y-107056639D01*
X111382918Y-107213398D01*
X106308686Y-107213398D01*
X106193626Y-107153010D01*
X106028456Y-107112300D01*
X105858344Y-107112300D01*
X105693173Y-107153010D01*
X105542550Y-107232063D01*
X105415216Y-107344872D01*
X105318582Y-107484868D01*
X105258260Y-107643925D01*
X105258259Y-107643930D01*
X105237755Y-107812800D01*
X104857130Y-107812800D01*
X104871045Y-107698200D01*
X104850540Y-107529328D01*
X104790218Y-107370270D01*
X104790143Y-107370162D01*
X104755876Y-107320518D01*
X104693583Y-107230271D01*
X104566252Y-107117466D01*
X104566249Y-107117463D01*
X104415626Y-107038410D01*
X104250456Y-106997700D01*
X104080344Y-106997700D01*
X103915173Y-107038410D01*
X103764550Y-107117463D01*
X103637216Y-107230272D01*
X103540582Y-107370268D01*
X103480260Y-107529325D01*
X103480259Y-107529330D01*
X103459755Y-107698200D01*
X70500500Y-107698200D01*
X70500500Y-104955298D01*
X78574868Y-104955298D01*
X78574868Y-104955301D01*
X78595505Y-105112060D01*
X78595507Y-105112065D01*
X78658211Y-105263448D01*
X78665680Y-105332917D01*
X78658211Y-105358352D01*
X78595507Y-105509734D01*
X78595505Y-105509739D01*
X78574868Y-105666498D01*
X78574868Y-105666501D01*
X78595505Y-105823260D01*
X78595507Y-105823265D01*
X78658211Y-105974648D01*
X78665680Y-106044117D01*
X78658211Y-106069552D01*
X78595507Y-106220934D01*
X78595505Y-106220939D01*
X78574868Y-106377698D01*
X78574868Y-106377701D01*
X78595505Y-106534460D01*
X78595506Y-106534462D01*
X78656014Y-106680541D01*
X78752268Y-106805982D01*
X78877709Y-106902236D01*
X79023788Y-106962744D01*
X79102169Y-106973063D01*
X79180549Y-106983382D01*
X79180550Y-106983382D01*
X79180551Y-106983382D01*
X79232804Y-106976502D01*
X79337312Y-106962744D01*
X79483391Y-106902236D01*
X79511465Y-106880693D01*
X79576631Y-106855500D01*
X79645076Y-106869537D01*
X79662427Y-106880688D01*
X79690509Y-106902236D01*
X79690512Y-106902237D01*
X79690513Y-106902238D01*
X79763548Y-106932490D01*
X79836588Y-106962744D01*
X79914969Y-106973063D01*
X79993349Y-106983382D01*
X79993350Y-106983382D01*
X79993351Y-106983382D01*
X80045604Y-106976502D01*
X80150112Y-106962744D01*
X80296191Y-106902236D01*
X80349664Y-106861205D01*
X80414833Y-106836011D01*
X80483278Y-106850049D01*
X80500636Y-106861205D01*
X80554107Y-106902235D01*
X80554108Y-106902235D01*
X80554109Y-106902236D01*
X80700188Y-106962744D01*
X80778569Y-106973063D01*
X80856949Y-106983382D01*
X80856950Y-106983382D01*
X80856951Y-106983382D01*
X80909204Y-106976502D01*
X81013712Y-106962744D01*
X81159791Y-106902236D01*
X81200564Y-106870949D01*
X81265731Y-106845755D01*
X81334176Y-106859793D01*
X81351533Y-106870947D01*
X81392309Y-106902236D01*
X81392311Y-106902236D01*
X81392313Y-106902238D01*
X81465348Y-106932490D01*
X81538388Y-106962744D01*
X81616769Y-106973063D01*
X81695149Y-106983382D01*
X81695150Y-106983382D01*
X81695151Y-106983382D01*
X81747404Y-106976502D01*
X81851912Y-106962744D01*
X81997991Y-106902236D01*
X82038764Y-106870949D01*
X82103931Y-106845755D01*
X82172376Y-106859793D01*
X82189733Y-106870947D01*
X82230509Y-106902236D01*
X82230511Y-106902236D01*
X82230513Y-106902238D01*
X82303548Y-106932490D01*
X82376588Y-106962744D01*
X82454969Y-106973063D01*
X82533349Y-106983382D01*
X82533350Y-106983382D01*
X82533351Y-106983382D01*
X82585604Y-106976502D01*
X82690112Y-106962744D01*
X82836191Y-106902236D01*
X82961632Y-106805982D01*
X83057886Y-106680541D01*
X83118394Y-106534462D01*
X83139032Y-106377700D01*
X83118394Y-106220938D01*
X83057886Y-106074859D01*
X83057885Y-106074858D01*
X83055688Y-106069553D01*
X83048219Y-106000083D01*
X83055688Y-105974647D01*
X83070254Y-105939482D01*
X83118394Y-105823262D01*
X83139032Y-105666500D01*
X83118394Y-105509738D01*
X83057886Y-105363659D01*
X83057885Y-105363658D01*
X83055688Y-105358353D01*
X83053048Y-105333798D01*
X114710318Y-105333798D01*
X114710318Y-105333801D01*
X114730955Y-105490560D01*
X114730956Y-105490562D01*
X114791464Y-105636641D01*
X114887718Y-105762082D01*
X115013159Y-105858336D01*
X115159238Y-105918844D01*
X115237619Y-105929163D01*
X115315999Y-105939482D01*
X115316000Y-105939482D01*
X115316001Y-105939482D01*
X115368254Y-105932602D01*
X115472762Y-105918844D01*
X115618841Y-105858336D01*
X115744282Y-105762082D01*
X115840536Y-105636641D01*
X115901044Y-105490562D01*
X115921682Y-105333800D01*
X115901044Y-105177038D01*
X115840536Y-105030959D01*
X115744282Y-104905518D01*
X115618841Y-104809264D01*
X115592946Y-104798538D01*
X115472762Y-104748756D01*
X115472760Y-104748755D01*
X115316001Y-104728118D01*
X115315999Y-104728118D01*
X115159239Y-104748755D01*
X115159237Y-104748756D01*
X115013160Y-104809263D01*
X114887718Y-104905518D01*
X114791463Y-105030960D01*
X114730956Y-105177037D01*
X114730955Y-105177039D01*
X114710318Y-105333798D01*
X83053048Y-105333798D01*
X83048219Y-105288883D01*
X83055688Y-105263447D01*
X83057886Y-105258141D01*
X83118394Y-105112062D01*
X83139032Y-104955300D01*
X83131817Y-104900500D01*
X83118394Y-104798539D01*
X83118394Y-104798538D01*
X83057886Y-104652459D01*
X82961632Y-104527018D01*
X82836191Y-104430764D01*
X82826010Y-104426547D01*
X82690112Y-104370256D01*
X82690110Y-104370255D01*
X82533351Y-104349618D01*
X82533349Y-104349618D01*
X82376589Y-104370255D01*
X82376587Y-104370256D01*
X82230508Y-104430764D01*
X82189735Y-104462050D01*
X82124566Y-104487243D01*
X82056121Y-104473204D01*
X82038765Y-104462050D01*
X81997991Y-104430764D01*
X81851912Y-104370256D01*
X81851910Y-104370255D01*
X81695151Y-104349618D01*
X81695149Y-104349618D01*
X81538389Y-104370255D01*
X81538387Y-104370256D01*
X81392308Y-104430764D01*
X81351535Y-104462050D01*
X81286366Y-104487243D01*
X81217921Y-104473204D01*
X81200565Y-104462050D01*
X81159791Y-104430764D01*
X81013712Y-104370256D01*
X81013710Y-104370255D01*
X80856951Y-104349618D01*
X80856949Y-104349618D01*
X80700189Y-104370255D01*
X80700187Y-104370256D01*
X80554108Y-104430764D01*
X80500635Y-104471795D01*
X80435466Y-104496988D01*
X80367021Y-104482949D01*
X80349665Y-104471795D01*
X80296191Y-104430764D01*
X80150112Y-104370256D01*
X80150110Y-104370255D01*
X79993351Y-104349618D01*
X79993349Y-104349618D01*
X79836589Y-104370255D01*
X79836587Y-104370256D01*
X79690508Y-104430764D01*
X79662435Y-104452305D01*
X79597265Y-104477498D01*
X79528821Y-104463459D01*
X79511465Y-104452305D01*
X79483391Y-104430764D01*
X79337312Y-104370256D01*
X79337310Y-104370255D01*
X79180551Y-104349618D01*
X79180549Y-104349618D01*
X79023789Y-104370255D01*
X79023787Y-104370256D01*
X78877710Y-104430763D01*
X78752268Y-104527018D01*
X78656013Y-104652460D01*
X78595506Y-104798537D01*
X78595505Y-104798539D01*
X78574868Y-104955298D01*
X70500500Y-104955298D01*
X70500500Y-104241917D01*
X70520185Y-104174878D01*
X70572989Y-104129123D01*
X70642147Y-104119179D01*
X70684299Y-104136813D01*
X70685766Y-104134205D01*
X70693154Y-104138359D01*
X70693156Y-104138360D01*
X70693158Y-104138361D01*
X70833936Y-104193877D01*
X70922398Y-104204500D01*
X70922403Y-104204500D01*
X72458597Y-104204500D01*
X72458602Y-104204500D01*
X72547064Y-104193877D01*
X72687842Y-104138361D01*
X72808422Y-104046922D01*
X72899861Y-103926342D01*
X72955377Y-103785564D01*
X72956280Y-103778048D01*
X83620718Y-103778048D01*
X83620718Y-103778051D01*
X83641355Y-103934810D01*
X83641356Y-103934812D01*
X83687793Y-104046922D01*
X83701864Y-104080891D01*
X83798118Y-104206332D01*
X83923559Y-104302586D01*
X84069638Y-104363094D01*
X84124039Y-104370256D01*
X84226399Y-104383732D01*
X84226400Y-104383732D01*
X84226401Y-104383732D01*
X84278654Y-104376852D01*
X84383162Y-104363094D01*
X84529241Y-104302586D01*
X84654682Y-104206332D01*
X84750936Y-104080891D01*
X84805507Y-103949142D01*
X84849348Y-103894740D01*
X84878394Y-103885072D01*
X84964216Y-103885072D01*
X84983341Y-103889954D01*
X85030952Y-103941091D01*
X85043007Y-103980410D01*
X85056236Y-104080889D01*
X85063756Y-104138012D01*
X85124264Y-104284091D01*
X85220518Y-104409532D01*
X85345959Y-104505786D01*
X85492038Y-104566294D01*
X85550837Y-104574035D01*
X85648799Y-104586932D01*
X85648800Y-104586932D01*
X85648801Y-104586932D01*
X85701054Y-104580052D01*
X85805562Y-104566294D01*
X85951641Y-104505786D01*
X86017814Y-104455009D01*
X86082982Y-104429815D01*
X86151427Y-104443853D01*
X86168782Y-104455007D01*
X86190661Y-104471795D01*
X86234957Y-104505785D01*
X86234958Y-104505785D01*
X86234959Y-104505786D01*
X86381038Y-104566294D01*
X86439837Y-104574035D01*
X86537799Y-104586932D01*
X86537800Y-104586932D01*
X86537801Y-104586932D01*
X86590054Y-104580052D01*
X86694562Y-104566294D01*
X86840641Y-104505786D01*
X86906814Y-104455009D01*
X86971982Y-104429815D01*
X87040427Y-104443853D01*
X87057782Y-104455007D01*
X87079661Y-104471795D01*
X87123957Y-104505785D01*
X87123958Y-104505785D01*
X87123959Y-104505786D01*
X87270038Y-104566294D01*
X87328837Y-104574035D01*
X87426799Y-104586932D01*
X87426800Y-104586932D01*
X87426801Y-104586932D01*
X87479054Y-104580052D01*
X87583562Y-104566294D01*
X87729641Y-104505786D01*
X87795814Y-104455009D01*
X87860982Y-104429815D01*
X87929427Y-104443853D01*
X87946782Y-104455007D01*
X87968661Y-104471795D01*
X88012957Y-104505785D01*
X88012958Y-104505785D01*
X88012959Y-104505786D01*
X88159038Y-104566294D01*
X88217837Y-104574035D01*
X88315799Y-104586932D01*
X88315800Y-104586932D01*
X88315801Y-104586932D01*
X88368054Y-104580052D01*
X88472562Y-104566294D01*
X88618641Y-104505786D01*
X88744082Y-104409532D01*
X88840336Y-104284091D01*
X88900844Y-104138012D01*
X88921482Y-103981250D01*
X88921371Y-103980410D01*
X88900844Y-103824489D01*
X88900842Y-103824484D01*
X88840338Y-103678413D01*
X88840335Y-103678408D01*
X88840333Y-103678406D01*
X88838285Y-103675736D01*
X88837256Y-103673075D01*
X88836274Y-103671374D01*
X88836539Y-103671220D01*
X88813091Y-103610567D01*
X88827129Y-103542122D01*
X88838285Y-103524764D01*
X88838440Y-103524561D01*
X88840336Y-103522091D01*
X88900844Y-103376012D01*
X88921482Y-103219250D01*
X88919548Y-103204562D01*
X88900844Y-103062489D01*
X88900843Y-103062487D01*
X88840336Y-102916409D01*
X88838285Y-102913736D01*
X88837256Y-102911075D01*
X88836274Y-102909374D01*
X88836539Y-102909220D01*
X88813091Y-102848567D01*
X88819115Y-102819198D01*
X94898318Y-102819198D01*
X94898318Y-102819201D01*
X94918955Y-102975960D01*
X94918956Y-102975962D01*
X94979464Y-103122041D01*
X95075718Y-103247482D01*
X95165628Y-103316472D01*
X95201163Y-103343739D01*
X95208196Y-103347799D01*
X95207371Y-103349227D01*
X95254322Y-103387065D01*
X95276386Y-103453359D01*
X95268408Y-103501752D01*
X95225260Y-103615526D01*
X95225259Y-103615530D01*
X95204755Y-103784400D01*
X95225259Y-103953269D01*
X95225260Y-103953274D01*
X95285582Y-104112331D01*
X95328756Y-104174878D01*
X95382217Y-104252329D01*
X95480367Y-104339282D01*
X95509550Y-104365136D01*
X95632786Y-104429815D01*
X95660175Y-104444190D01*
X95825344Y-104484900D01*
X95995456Y-104484900D01*
X96160625Y-104444190D01*
X96240092Y-104402481D01*
X96311249Y-104365136D01*
X96311250Y-104365134D01*
X96311252Y-104365134D01*
X96438583Y-104252329D01*
X96535218Y-104112330D01*
X96595540Y-103953272D01*
X96616045Y-103784400D01*
X96609876Y-103733598D01*
X119637918Y-103733598D01*
X119637918Y-103733601D01*
X119658555Y-103890360D01*
X119658556Y-103890362D01*
X119696203Y-103981251D01*
X119719064Y-104036441D01*
X119815318Y-104161882D01*
X119940759Y-104258136D01*
X120086838Y-104318644D01*
X120165219Y-104328963D01*
X120243599Y-104339282D01*
X120243600Y-104339282D01*
X120243601Y-104339282D01*
X120295854Y-104332402D01*
X120400362Y-104318644D01*
X120546441Y-104258136D01*
X120671882Y-104161882D01*
X120768136Y-104036441D01*
X120828644Y-103890362D01*
X120843430Y-103778048D01*
X120849282Y-103733601D01*
X120849282Y-103733598D01*
X120828644Y-103576839D01*
X120828644Y-103576838D01*
X120768136Y-103430759D01*
X120671882Y-103305318D01*
X120546441Y-103209064D01*
X120535572Y-103204562D01*
X120400362Y-103148556D01*
X120400360Y-103148555D01*
X120243601Y-103127918D01*
X120243599Y-103127918D01*
X120086839Y-103148555D01*
X120086837Y-103148556D01*
X119940760Y-103209063D01*
X119815318Y-103305318D01*
X119719063Y-103430760D01*
X119658556Y-103576837D01*
X119658555Y-103576839D01*
X119637918Y-103733598D01*
X96609876Y-103733598D01*
X96595540Y-103615528D01*
X96585835Y-103589939D01*
X96560104Y-103522091D01*
X96535218Y-103456470D01*
X96438583Y-103316471D01*
X96317344Y-103209063D01*
X96311249Y-103203663D01*
X96153984Y-103121124D01*
X96155085Y-103119024D01*
X96108604Y-103083827D01*
X96095392Y-103047798D01*
X117656718Y-103047798D01*
X117656718Y-103047801D01*
X117677355Y-103204560D01*
X117677356Y-103204562D01*
X117719090Y-103305318D01*
X117737864Y-103350641D01*
X117834118Y-103476082D01*
X117959559Y-103572336D01*
X118105638Y-103632844D01*
X118184019Y-103643163D01*
X118262399Y-103653482D01*
X118262400Y-103653482D01*
X118262401Y-103653482D01*
X118314654Y-103646602D01*
X118419162Y-103632844D01*
X118565241Y-103572336D01*
X118690682Y-103476082D01*
X118786936Y-103350641D01*
X118847444Y-103204562D01*
X118866148Y-103062488D01*
X118868082Y-103047801D01*
X118868082Y-103047798D01*
X118850432Y-102913736D01*
X118847444Y-102891038D01*
X118786936Y-102744959D01*
X118690682Y-102619518D01*
X118565241Y-102523264D01*
X118548573Y-102516360D01*
X118419162Y-102462756D01*
X118419160Y-102462755D01*
X118262401Y-102442118D01*
X118262399Y-102442118D01*
X118105639Y-102462755D01*
X118105637Y-102462756D01*
X117959560Y-102523263D01*
X117834118Y-102619518D01*
X117737863Y-102744960D01*
X117677356Y-102891037D01*
X117677355Y-102891039D01*
X117656718Y-103047798D01*
X96095392Y-103047798D01*
X96084549Y-103018228D01*
X96088505Y-102977971D01*
X96089040Y-102975971D01*
X96089044Y-102975962D01*
X96107174Y-102838250D01*
X96109682Y-102819201D01*
X96109682Y-102819198D01*
X96089044Y-102662439D01*
X96089044Y-102662438D01*
X96028536Y-102516359D01*
X95932282Y-102390918D01*
X95806841Y-102294664D01*
X95660762Y-102234156D01*
X95660760Y-102234155D01*
X95504001Y-102213518D01*
X95503999Y-102213518D01*
X95347239Y-102234155D01*
X95347237Y-102234156D01*
X95201160Y-102294663D01*
X95075718Y-102390918D01*
X94979463Y-102516360D01*
X94918956Y-102662437D01*
X94918955Y-102662439D01*
X94898318Y-102819198D01*
X88819115Y-102819198D01*
X88827129Y-102780122D01*
X88838285Y-102762764D01*
X88838440Y-102762561D01*
X88840336Y-102760091D01*
X88900844Y-102614012D01*
X88921482Y-102457250D01*
X88900844Y-102300488D01*
X88840336Y-102154409D01*
X88744082Y-102028968D01*
X88618641Y-101932714D01*
X88602760Y-101926136D01*
X88472562Y-101872206D01*
X88472560Y-101872205D01*
X88315801Y-101851568D01*
X88315799Y-101851568D01*
X88159039Y-101872205D01*
X88159037Y-101872206D01*
X88012960Y-101932713D01*
X87946786Y-101983490D01*
X87881616Y-102008683D01*
X87813171Y-101994644D01*
X87795814Y-101983490D01*
X87777763Y-101969639D01*
X87729641Y-101932714D01*
X87713760Y-101926136D01*
X87583562Y-101872206D01*
X87583560Y-101872205D01*
X87426801Y-101851568D01*
X87426799Y-101851568D01*
X87270039Y-101872205D01*
X87270037Y-101872206D01*
X87123960Y-101932713D01*
X87057786Y-101983490D01*
X86992616Y-102008683D01*
X86924171Y-101994644D01*
X86906814Y-101983490D01*
X86888763Y-101969639D01*
X86840641Y-101932714D01*
X86824760Y-101926136D01*
X86694562Y-101872206D01*
X86694560Y-101872205D01*
X86537801Y-101851568D01*
X86537799Y-101851568D01*
X86381039Y-101872205D01*
X86381037Y-101872206D01*
X86234960Y-101932713D01*
X86168786Y-101983490D01*
X86103616Y-102008683D01*
X86035171Y-101994644D01*
X86017814Y-101983490D01*
X85999763Y-101969639D01*
X85951641Y-101932714D01*
X85935760Y-101926136D01*
X85805562Y-101872206D01*
X85805560Y-101872205D01*
X85648801Y-101851568D01*
X85648799Y-101851568D01*
X85492039Y-101872205D01*
X85492037Y-101872206D01*
X85345960Y-101932713D01*
X85220518Y-102028968D01*
X85124263Y-102154410D01*
X85063756Y-102300487D01*
X85063755Y-102300489D01*
X85043118Y-102457248D01*
X85043118Y-102457251D01*
X85063755Y-102614010D01*
X85063756Y-102614012D01*
X85124264Y-102760093D01*
X85126318Y-102762769D01*
X85127347Y-102765433D01*
X85128328Y-102767131D01*
X85128063Y-102767283D01*
X85151509Y-102827939D01*
X85137466Y-102896384D01*
X85126318Y-102913731D01*
X85124264Y-102916406D01*
X85063756Y-103062487D01*
X85063755Y-103062489D01*
X85043118Y-103219248D01*
X85043118Y-103219251D01*
X85063755Y-103376010D01*
X85063756Y-103376012D01*
X85124264Y-103522093D01*
X85126318Y-103524769D01*
X85127347Y-103527433D01*
X85128328Y-103529131D01*
X85128063Y-103529283D01*
X85151509Y-103589939D01*
X85137466Y-103658384D01*
X85126318Y-103675731D01*
X85124264Y-103678406D01*
X85069692Y-103810156D01*
X85025851Y-103864559D01*
X84964216Y-103885072D01*
X84878394Y-103885072D01*
X84910982Y-103874225D01*
X84891857Y-103869344D01*
X84844247Y-103818207D01*
X84832192Y-103778888D01*
X84832081Y-103778048D01*
X84811444Y-103621288D01*
X84750936Y-103475209D01*
X84654682Y-103349768D01*
X84529241Y-103253514D01*
X84514678Y-103247482D01*
X84383162Y-103193006D01*
X84383160Y-103193005D01*
X84226401Y-103172368D01*
X84226399Y-103172368D01*
X84069639Y-103193005D01*
X84069637Y-103193006D01*
X83923560Y-103253513D01*
X83798118Y-103349768D01*
X83701863Y-103475210D01*
X83641356Y-103621287D01*
X83641355Y-103621289D01*
X83620718Y-103778048D01*
X72956280Y-103778048D01*
X72966000Y-103697102D01*
X72966000Y-102410898D01*
X72955377Y-102322436D01*
X72899861Y-102181658D01*
X72899860Y-102181657D01*
X72899860Y-102181656D01*
X72808422Y-102061077D01*
X72687843Y-101969639D01*
X72547061Y-101914122D01*
X72501426Y-101908642D01*
X72458602Y-101903500D01*
X72168169Y-101903500D01*
X72101130Y-101883815D01*
X72055375Y-101831011D01*
X72045431Y-101761853D01*
X72074456Y-101698297D01*
X72129851Y-101661569D01*
X72257136Y-101620212D01*
X72257139Y-101620211D01*
X72264483Y-101616469D01*
X72418494Y-101537996D01*
X72542914Y-101447600D01*
X92004355Y-101447600D01*
X92024859Y-101616469D01*
X92024860Y-101616474D01*
X92085182Y-101775531D01*
X92147475Y-101865777D01*
X92181817Y-101915529D01*
X92265554Y-101989713D01*
X92309150Y-102028336D01*
X92424147Y-102088691D01*
X92459775Y-102107390D01*
X92624944Y-102148100D01*
X92795056Y-102148100D01*
X92960225Y-102107390D01*
X93069375Y-102050103D01*
X93110849Y-102028336D01*
X93110850Y-102028334D01*
X93110852Y-102028334D01*
X93238183Y-101915529D01*
X93334818Y-101775530D01*
X93395140Y-101616472D01*
X93415645Y-101447600D01*
X93395140Y-101278728D01*
X93334818Y-101119670D01*
X93319808Y-101097925D01*
X93271899Y-101028517D01*
X93238183Y-100979671D01*
X93110852Y-100866866D01*
X93110849Y-100866863D01*
X92960226Y-100787810D01*
X92795056Y-100747100D01*
X92624944Y-100747100D01*
X92459773Y-100787810D01*
X92309150Y-100866863D01*
X92181816Y-100979672D01*
X92085182Y-101119668D01*
X92024860Y-101278725D01*
X92024859Y-101278730D01*
X92004355Y-101447600D01*
X72542914Y-101447600D01*
X72565001Y-101431553D01*
X72693053Y-101303501D01*
X72799496Y-101156994D01*
X72881711Y-100995639D01*
X72937671Y-100823409D01*
X72957302Y-100699464D01*
X72966000Y-100644551D01*
X72966000Y-100463448D01*
X72949519Y-100359397D01*
X72937671Y-100284591D01*
X72881711Y-100112361D01*
X72881711Y-100112360D01*
X72824358Y-99999801D01*
X72824356Y-99999798D01*
X93567318Y-99999798D01*
X93567318Y-99999801D01*
X93587955Y-100156560D01*
X93587956Y-100156562D01*
X93640986Y-100284589D01*
X93648464Y-100302641D01*
X93744718Y-100428082D01*
X93870159Y-100524336D01*
X94016238Y-100584844D01*
X94094619Y-100595163D01*
X94172999Y-100605482D01*
X94173000Y-100605482D01*
X94173001Y-100605482D01*
X94225254Y-100598602D01*
X94329762Y-100584844D01*
X94475841Y-100524336D01*
X94601282Y-100428082D01*
X94697536Y-100302641D01*
X94758044Y-100156562D01*
X94766781Y-100090198D01*
X117467718Y-100090198D01*
X117467718Y-100090201D01*
X117488355Y-100246960D01*
X117488356Y-100246962D01*
X117494857Y-100262658D01*
X117548864Y-100393041D01*
X117645118Y-100518482D01*
X117770559Y-100614736D01*
X117916638Y-100675244D01*
X117995019Y-100685563D01*
X118073399Y-100695882D01*
X118073400Y-100695882D01*
X118073401Y-100695882D01*
X118125654Y-100689002D01*
X118230162Y-100675244D01*
X118376241Y-100614736D01*
X118501682Y-100518482D01*
X118597936Y-100393041D01*
X118658444Y-100246962D01*
X118676164Y-100112363D01*
X118679082Y-100090201D01*
X118679082Y-100090198D01*
X118658444Y-99933439D01*
X118658444Y-99933438D01*
X118597936Y-99787359D01*
X118501682Y-99661918D01*
X118376241Y-99565664D01*
X118342362Y-99551631D01*
X118230162Y-99505156D01*
X118230160Y-99505155D01*
X118073401Y-99484518D01*
X118073399Y-99484518D01*
X117916639Y-99505155D01*
X117916637Y-99505156D01*
X117770560Y-99565663D01*
X117645118Y-99661918D01*
X117548863Y-99787360D01*
X117488356Y-99933437D01*
X117488355Y-99933439D01*
X117467718Y-100090198D01*
X94766781Y-100090198D01*
X94778682Y-99999800D01*
X94769945Y-99933439D01*
X94758044Y-99843039D01*
X94758044Y-99843038D01*
X94697536Y-99696959D01*
X94601282Y-99571518D01*
X94475841Y-99475264D01*
X94329762Y-99414756D01*
X94329760Y-99414755D01*
X94173001Y-99394118D01*
X94172999Y-99394118D01*
X94016239Y-99414755D01*
X94016237Y-99414756D01*
X93870160Y-99475263D01*
X93744718Y-99571518D01*
X93648463Y-99696960D01*
X93587956Y-99843037D01*
X93587955Y-99843039D01*
X93567318Y-99999798D01*
X72824356Y-99999798D01*
X72799496Y-99951006D01*
X72770651Y-99911304D01*
X72693058Y-99804505D01*
X72693054Y-99804500D01*
X72564999Y-99676445D01*
X72564994Y-99676441D01*
X72418497Y-99570006D01*
X72418496Y-99570005D01*
X72418494Y-99570004D01*
X72362758Y-99541605D01*
X72257139Y-99487788D01*
X72257136Y-99487787D01*
X72084910Y-99431829D01*
X72051094Y-99426473D01*
X71987959Y-99396544D01*
X71951028Y-99337232D01*
X71952026Y-99267370D01*
X71964346Y-99248788D01*
X112422308Y-99248788D01*
X112422308Y-99248791D01*
X112442945Y-99405550D01*
X112442946Y-99405552D01*
X112503454Y-99551631D01*
X112599708Y-99677072D01*
X112725149Y-99773326D01*
X112871228Y-99833834D01*
X112941132Y-99843037D01*
X113027989Y-99854472D01*
X113027990Y-99854472D01*
X113027991Y-99854472D01*
X113080244Y-99847592D01*
X113184752Y-99833834D01*
X113330831Y-99773326D01*
X113456272Y-99677072D01*
X113552526Y-99551631D01*
X113613034Y-99405552D01*
X113633672Y-99248790D01*
X113624111Y-99176170D01*
X113613034Y-99092029D01*
X113613034Y-99092028D01*
X113552526Y-98945949D01*
X113456272Y-98820508D01*
X113330831Y-98724254D01*
X113270975Y-98699461D01*
X113184752Y-98663746D01*
X113184750Y-98663745D01*
X113027991Y-98643108D01*
X113027989Y-98643108D01*
X112871229Y-98663745D01*
X112871227Y-98663746D01*
X112725150Y-98724253D01*
X112599708Y-98820508D01*
X112503453Y-98945950D01*
X112442946Y-99092027D01*
X112442945Y-99092029D01*
X112422308Y-99248788D01*
X71964346Y-99248788D01*
X71990636Y-99209137D01*
X72051094Y-99181527D01*
X72058888Y-99180292D01*
X72084909Y-99176171D01*
X72257139Y-99120211D01*
X72418494Y-99037996D01*
X72565001Y-98931553D01*
X72693053Y-98803501D01*
X72799496Y-98656994D01*
X72881711Y-98495639D01*
X72937671Y-98323409D01*
X72963224Y-98162074D01*
X72966000Y-98144551D01*
X72966000Y-97993200D01*
X93467355Y-97993200D01*
X93487859Y-98162069D01*
X93487860Y-98162074D01*
X93548182Y-98321131D01*
X93610475Y-98411377D01*
X93644817Y-98461129D01*
X93732018Y-98538382D01*
X93772150Y-98573936D01*
X93922773Y-98652989D01*
X93922775Y-98652990D01*
X94087944Y-98693700D01*
X94258056Y-98693700D01*
X94423225Y-98652990D01*
X94502692Y-98611281D01*
X94573849Y-98573936D01*
X94573850Y-98573934D01*
X94573852Y-98573934D01*
X94701183Y-98461129D01*
X94797818Y-98321130D01*
X94858140Y-98162072D01*
X94878645Y-97993200D01*
X94858140Y-97824328D01*
X94797818Y-97665270D01*
X94701183Y-97525271D01*
X94573852Y-97412466D01*
X94573849Y-97412463D01*
X94423226Y-97333410D01*
X94258056Y-97292700D01*
X94087944Y-97292700D01*
X93922773Y-97333410D01*
X93772150Y-97412463D01*
X93644816Y-97525272D01*
X93548182Y-97665268D01*
X93487860Y-97824325D01*
X93487859Y-97824330D01*
X93467355Y-97993200D01*
X72966000Y-97993200D01*
X72966000Y-97963448D01*
X72943965Y-97824330D01*
X72937671Y-97784591D01*
X72881711Y-97612361D01*
X72881711Y-97612360D01*
X72853240Y-97556484D01*
X72799496Y-97451006D01*
X72714058Y-97333410D01*
X72693058Y-97304505D01*
X72693054Y-97304500D01*
X72564999Y-97176445D01*
X72564994Y-97176441D01*
X72418497Y-97070006D01*
X72418496Y-97070005D01*
X72418494Y-97070004D01*
X72362841Y-97041647D01*
X72257139Y-96987788D01*
X72257136Y-96987787D01*
X72084910Y-96931829D01*
X72051094Y-96926473D01*
X71987959Y-96896544D01*
X71951028Y-96837232D01*
X71952026Y-96767370D01*
X71990636Y-96709137D01*
X72051094Y-96681527D01*
X72058888Y-96680292D01*
X72084909Y-96676171D01*
X72257139Y-96620211D01*
X72418494Y-96537996D01*
X72565001Y-96431553D01*
X72693053Y-96303501D01*
X72799496Y-96156994D01*
X72881711Y-95995639D01*
X72937671Y-95823409D01*
X72961678Y-95671836D01*
X72966000Y-95644551D01*
X72966000Y-95463448D01*
X72949519Y-95359397D01*
X72937671Y-95284591D01*
X72881711Y-95112361D01*
X72881711Y-95112360D01*
X72862521Y-95074698D01*
X78524068Y-95074698D01*
X78524068Y-95074701D01*
X78544705Y-95231460D01*
X78544707Y-95231465D01*
X78607411Y-95382848D01*
X78614880Y-95452317D01*
X78607411Y-95477752D01*
X78544707Y-95629134D01*
X78544705Y-95629139D01*
X78524068Y-95785898D01*
X78524068Y-95785901D01*
X78544705Y-95942660D01*
X78544707Y-95942665D01*
X78607411Y-96094048D01*
X78614880Y-96163517D01*
X78607411Y-96188952D01*
X78544707Y-96340334D01*
X78544705Y-96340339D01*
X78524068Y-96497098D01*
X78524068Y-96497101D01*
X78544705Y-96653860D01*
X78544706Y-96653862D01*
X78591722Y-96767370D01*
X78605214Y-96799941D01*
X78701468Y-96925382D01*
X78826909Y-97021636D01*
X78972988Y-97082144D01*
X79051369Y-97092463D01*
X79129749Y-97102782D01*
X79129750Y-97102782D01*
X79129751Y-97102782D01*
X79190980Y-97094721D01*
X79286512Y-97082144D01*
X79432591Y-97021636D01*
X79460665Y-97000093D01*
X79525831Y-96974900D01*
X79594276Y-96988937D01*
X79611627Y-97000088D01*
X79639709Y-97021636D01*
X79639712Y-97021637D01*
X79639713Y-97021638D01*
X79712748Y-97051890D01*
X79785788Y-97082144D01*
X79864169Y-97092463D01*
X79942549Y-97102782D01*
X79942550Y-97102782D01*
X79942551Y-97102782D01*
X80003780Y-97094721D01*
X80099312Y-97082144D01*
X80245391Y-97021636D01*
X80288005Y-96988937D01*
X80298864Y-96980605D01*
X80364033Y-96955411D01*
X80432478Y-96969449D01*
X80449836Y-96980605D01*
X80503307Y-97021635D01*
X80503308Y-97021635D01*
X80503309Y-97021636D01*
X80649388Y-97082144D01*
X80727769Y-97092463D01*
X80806149Y-97102782D01*
X80806150Y-97102782D01*
X80806151Y-97102782D01*
X80867380Y-97094721D01*
X80962912Y-97082144D01*
X81108991Y-97021636D01*
X81149764Y-96990349D01*
X81214931Y-96965155D01*
X81283376Y-96979193D01*
X81300733Y-96990347D01*
X81341509Y-97021636D01*
X81341511Y-97021636D01*
X81341513Y-97021638D01*
X81414548Y-97051890D01*
X81487588Y-97082144D01*
X81565969Y-97092463D01*
X81644349Y-97102782D01*
X81644350Y-97102782D01*
X81644351Y-97102782D01*
X81705580Y-97094721D01*
X81801112Y-97082144D01*
X81947191Y-97021636D01*
X81987964Y-96990349D01*
X82053131Y-96965155D01*
X82121576Y-96979193D01*
X82138933Y-96990347D01*
X82179709Y-97021636D01*
X82179711Y-97021636D01*
X82179713Y-97021638D01*
X82252748Y-97051890D01*
X82325788Y-97082144D01*
X82404169Y-97092463D01*
X82482549Y-97102782D01*
X82482550Y-97102782D01*
X82482551Y-97102782D01*
X82543780Y-97094721D01*
X82639312Y-97082144D01*
X82785391Y-97021636D01*
X82910832Y-96925382D01*
X83007086Y-96799941D01*
X83067594Y-96653862D01*
X83088232Y-96497100D01*
X83067594Y-96340338D01*
X83007086Y-96194259D01*
X83007085Y-96194258D01*
X83004888Y-96188953D01*
X82997419Y-96119483D01*
X83004888Y-96094047D01*
X83023394Y-96049370D01*
X83067594Y-95942662D01*
X83088232Y-95785900D01*
X83081215Y-95732600D01*
X93477555Y-95732600D01*
X93498059Y-95901469D01*
X93498060Y-95901474D01*
X93558382Y-96060531D01*
X93614272Y-96141500D01*
X93655017Y-96200529D01*
X93759032Y-96292678D01*
X93782350Y-96313336D01*
X93932973Y-96392389D01*
X93932975Y-96392390D01*
X94098144Y-96433100D01*
X94268256Y-96433100D01*
X94433425Y-96392390D01*
X94532603Y-96340337D01*
X94584049Y-96313336D01*
X94584050Y-96313334D01*
X94584052Y-96313334D01*
X94711383Y-96200529D01*
X94808018Y-96060530D01*
X94849697Y-95950630D01*
X127875000Y-95950630D01*
X127875000Y-96049370D01*
X127900556Y-96144745D01*
X127949925Y-96230255D01*
X128019745Y-96300075D01*
X128105255Y-96349444D01*
X128200630Y-96375000D01*
X128299370Y-96375000D01*
X128394745Y-96349444D01*
X128480255Y-96300075D01*
X128550075Y-96230255D01*
X128599444Y-96144745D01*
X128625000Y-96049370D01*
X128625000Y-95950630D01*
X128599444Y-95855255D01*
X128550075Y-95769745D01*
X128480255Y-95699925D01*
X128394745Y-95650556D01*
X128299370Y-95625000D01*
X128200630Y-95625000D01*
X128105255Y-95650556D01*
X128019745Y-95699925D01*
X127949925Y-95769745D01*
X127900556Y-95855255D01*
X127875000Y-95950630D01*
X94849697Y-95950630D01*
X94868340Y-95901472D01*
X94888845Y-95732600D01*
X94868340Y-95563728D01*
X94808018Y-95404670D01*
X94711383Y-95264671D01*
X94584052Y-95151866D01*
X94584049Y-95151863D01*
X94529051Y-95122998D01*
X112080918Y-95122998D01*
X112080918Y-95123001D01*
X112101555Y-95279760D01*
X112101556Y-95279762D01*
X112162064Y-95425841D01*
X112258318Y-95551282D01*
X112383759Y-95647536D01*
X112529838Y-95708044D01*
X112608219Y-95718363D01*
X112686599Y-95728682D01*
X112686600Y-95728682D01*
X112686601Y-95728682D01*
X112738854Y-95721802D01*
X112843362Y-95708044D01*
X112989441Y-95647536D01*
X113114882Y-95551282D01*
X113211136Y-95425841D01*
X113271644Y-95279762D01*
X113289083Y-95147298D01*
X115370718Y-95147298D01*
X115370718Y-95147301D01*
X115391355Y-95304060D01*
X115391356Y-95304062D01*
X115443645Y-95430300D01*
X115451864Y-95450141D01*
X115548118Y-95575582D01*
X115673559Y-95671836D01*
X115819638Y-95732344D01*
X115821583Y-95732600D01*
X115976399Y-95752982D01*
X115976400Y-95752982D01*
X115976401Y-95752982D01*
X116028654Y-95746102D01*
X116133162Y-95732344D01*
X116279241Y-95671836D01*
X116404682Y-95575582D01*
X116462678Y-95500000D01*
X127092932Y-95500000D01*
X127750000Y-95500000D01*
X127750000Y-95100000D01*
X127581946Y-95100000D01*
X127493556Y-95110613D01*
X127352904Y-95166079D01*
X127232435Y-95257435D01*
X127141079Y-95377904D01*
X127092932Y-95500000D01*
X116462678Y-95500000D01*
X116500936Y-95450141D01*
X116561444Y-95304062D01*
X116582082Y-95147300D01*
X116577482Y-95112363D01*
X116561444Y-94990539D01*
X116561444Y-94990538D01*
X116500936Y-94844459D01*
X116404682Y-94719018D01*
X116279241Y-94622764D01*
X116255019Y-94612731D01*
X116133162Y-94562256D01*
X116133160Y-94562255D01*
X115976401Y-94541618D01*
X115976399Y-94541618D01*
X115819639Y-94562255D01*
X115819637Y-94562256D01*
X115673560Y-94622763D01*
X115548118Y-94719018D01*
X115451863Y-94844460D01*
X115391356Y-94990537D01*
X115391355Y-94990539D01*
X115370718Y-95147298D01*
X113289083Y-95147298D01*
X113292282Y-95123000D01*
X113290881Y-95112361D01*
X113274843Y-94990537D01*
X113271644Y-94966238D01*
X113211136Y-94820159D01*
X113114882Y-94694718D01*
X112989441Y-94598464D01*
X112985660Y-94596898D01*
X112843362Y-94537956D01*
X112843360Y-94537955D01*
X112686601Y-94517318D01*
X112686599Y-94517318D01*
X112529839Y-94537955D01*
X112529837Y-94537956D01*
X112383760Y-94598463D01*
X112258318Y-94694718D01*
X112162063Y-94820160D01*
X112101556Y-94966237D01*
X112101555Y-94966239D01*
X112080918Y-95122998D01*
X94529051Y-95122998D01*
X94433426Y-95072810D01*
X94268256Y-95032100D01*
X94098144Y-95032100D01*
X93932973Y-95072810D01*
X93782350Y-95151863D01*
X93655016Y-95264672D01*
X93558382Y-95404668D01*
X93498060Y-95563725D01*
X93498059Y-95563730D01*
X93477555Y-95732600D01*
X83081215Y-95732600D01*
X83067594Y-95629138D01*
X83007086Y-95483059D01*
X83007085Y-95483058D01*
X83004888Y-95477753D01*
X82997419Y-95408283D01*
X83004888Y-95382847D01*
X83007086Y-95377541D01*
X83067594Y-95231462D01*
X83088232Y-95074700D01*
X83067594Y-94917938D01*
X83007086Y-94771859D01*
X82910832Y-94646418D01*
X82785391Y-94550164D01*
X82764759Y-94541618D01*
X82639312Y-94489656D01*
X82639310Y-94489655D01*
X82482551Y-94469018D01*
X82482549Y-94469018D01*
X82325789Y-94489655D01*
X82325787Y-94489656D01*
X82179708Y-94550164D01*
X82138935Y-94581450D01*
X82073766Y-94606643D01*
X82005321Y-94592604D01*
X81987965Y-94581450D01*
X81947191Y-94550164D01*
X81801112Y-94489656D01*
X81801110Y-94489655D01*
X81644351Y-94469018D01*
X81644349Y-94469018D01*
X81487589Y-94489655D01*
X81487587Y-94489656D01*
X81341508Y-94550164D01*
X81300735Y-94581450D01*
X81235566Y-94606643D01*
X81167121Y-94592604D01*
X81149765Y-94581450D01*
X81108991Y-94550164D01*
X80962912Y-94489656D01*
X80962910Y-94489655D01*
X80806151Y-94469018D01*
X80806149Y-94469018D01*
X80649389Y-94489655D01*
X80649387Y-94489656D01*
X80503308Y-94550164D01*
X80449835Y-94591195D01*
X80384666Y-94616388D01*
X80316221Y-94602349D01*
X80298865Y-94591195D01*
X80245391Y-94550164D01*
X80099312Y-94489656D01*
X80099310Y-94489655D01*
X79942551Y-94469018D01*
X79942549Y-94469018D01*
X79785789Y-94489655D01*
X79785787Y-94489656D01*
X79639708Y-94550164D01*
X79611635Y-94571705D01*
X79546465Y-94596898D01*
X79478021Y-94582859D01*
X79460665Y-94571705D01*
X79432591Y-94550164D01*
X79286512Y-94489656D01*
X79286510Y-94489655D01*
X79129751Y-94469018D01*
X79129749Y-94469018D01*
X78972989Y-94489655D01*
X78972987Y-94489656D01*
X78826910Y-94550163D01*
X78701468Y-94646418D01*
X78605213Y-94771860D01*
X78544706Y-94917937D01*
X78544705Y-94917939D01*
X78524068Y-95074698D01*
X72862521Y-95074698D01*
X72853240Y-95056484D01*
X72799496Y-94951006D01*
X72737399Y-94865536D01*
X72693058Y-94804505D01*
X72693054Y-94804500D01*
X72564999Y-94676445D01*
X72564994Y-94676441D01*
X72418497Y-94570006D01*
X72418496Y-94570005D01*
X72418494Y-94570004D01*
X72355595Y-94537955D01*
X72257139Y-94487788D01*
X72257136Y-94487787D01*
X72084910Y-94431829D01*
X71906051Y-94403500D01*
X71906046Y-94403500D01*
X71474954Y-94403500D01*
X71474949Y-94403500D01*
X71296089Y-94431829D01*
X71123863Y-94487787D01*
X71123860Y-94487788D01*
X70962502Y-94570006D01*
X70816005Y-94676441D01*
X70816000Y-94676445D01*
X70712181Y-94780265D01*
X70650858Y-94813750D01*
X70581166Y-94808766D01*
X70525233Y-94766894D01*
X70500816Y-94701430D01*
X70500500Y-94692584D01*
X70500500Y-93878398D01*
X83569918Y-93878398D01*
X83569918Y-93878401D01*
X83590555Y-94035160D01*
X83590556Y-94035162D01*
X83651064Y-94181241D01*
X83747318Y-94306682D01*
X83872759Y-94402936D01*
X84018838Y-94463444D01*
X84061177Y-94469018D01*
X84175599Y-94484082D01*
X84175600Y-94484082D01*
X84175601Y-94484082D01*
X84227854Y-94477202D01*
X84332362Y-94463444D01*
X84478441Y-94402936D01*
X84603882Y-94306682D01*
X84700136Y-94181241D01*
X84754707Y-94049492D01*
X84798548Y-93995090D01*
X84827594Y-93985422D01*
X84913416Y-93985422D01*
X84932541Y-93990304D01*
X84980152Y-94041441D01*
X84992207Y-94080760D01*
X85005436Y-94181239D01*
X85012956Y-94238362D01*
X85073464Y-94384441D01*
X85169718Y-94509882D01*
X85295159Y-94606136D01*
X85441238Y-94666644D01*
X85515654Y-94676441D01*
X85597999Y-94687282D01*
X85598000Y-94687282D01*
X85598001Y-94687282D01*
X85680300Y-94676447D01*
X85754762Y-94666644D01*
X85900841Y-94606136D01*
X85967014Y-94555359D01*
X86032182Y-94530165D01*
X86100627Y-94544203D01*
X86117982Y-94555357D01*
X86139288Y-94571705D01*
X86184157Y-94606135D01*
X86184158Y-94606135D01*
X86184159Y-94606136D01*
X86330238Y-94666644D01*
X86404654Y-94676441D01*
X86486999Y-94687282D01*
X86487000Y-94687282D01*
X86487001Y-94687282D01*
X86569300Y-94676447D01*
X86643762Y-94666644D01*
X86789841Y-94606136D01*
X86856014Y-94555359D01*
X86921182Y-94530165D01*
X86989627Y-94544203D01*
X87006982Y-94555357D01*
X87028288Y-94571705D01*
X87073157Y-94606135D01*
X87073158Y-94606135D01*
X87073159Y-94606136D01*
X87219238Y-94666644D01*
X87293654Y-94676441D01*
X87375999Y-94687282D01*
X87376000Y-94687282D01*
X87376001Y-94687282D01*
X87458300Y-94676447D01*
X87532762Y-94666644D01*
X87678841Y-94606136D01*
X87745014Y-94555359D01*
X87810182Y-94530165D01*
X87878627Y-94544203D01*
X87895982Y-94555357D01*
X87917288Y-94571705D01*
X87962157Y-94606135D01*
X87962158Y-94606135D01*
X87962159Y-94606136D01*
X88108238Y-94666644D01*
X88182654Y-94676441D01*
X88264999Y-94687282D01*
X88265000Y-94687282D01*
X88265001Y-94687282D01*
X88347300Y-94676447D01*
X88421762Y-94666644D01*
X88567841Y-94606136D01*
X88693282Y-94509882D01*
X88789536Y-94384441D01*
X88830809Y-94284800D01*
X95560355Y-94284800D01*
X95580859Y-94453669D01*
X95580860Y-94453674D01*
X95641182Y-94612731D01*
X95685163Y-94676447D01*
X95737817Y-94752729D01*
X95841359Y-94844459D01*
X95865150Y-94865536D01*
X95964992Y-94917937D01*
X96015775Y-94944590D01*
X96180944Y-94985300D01*
X96351056Y-94985300D01*
X96516225Y-94944590D01*
X96595692Y-94902881D01*
X96666849Y-94865536D01*
X96666850Y-94865534D01*
X96666852Y-94865534D01*
X96794183Y-94752729D01*
X96890818Y-94612730D01*
X96951140Y-94453672D01*
X96971645Y-94284800D01*
X96951140Y-94115928D01*
X96899589Y-93979998D01*
X124006718Y-93979998D01*
X124006718Y-93980001D01*
X124027355Y-94136760D01*
X124027356Y-94136762D01*
X124087864Y-94282841D01*
X124184118Y-94408282D01*
X124309559Y-94504536D01*
X124455638Y-94565044D01*
X124506234Y-94571705D01*
X124612399Y-94585682D01*
X124612400Y-94585682D01*
X124612401Y-94585682D01*
X124664654Y-94578802D01*
X124769162Y-94565044D01*
X124915241Y-94504536D01*
X125040682Y-94408282D01*
X125136936Y-94282841D01*
X125197444Y-94136762D01*
X125216095Y-93995090D01*
X125218082Y-93980001D01*
X125218082Y-93979998D01*
X125197444Y-93823239D01*
X125197444Y-93823238D01*
X125136936Y-93677159D01*
X125040682Y-93551718D01*
X124915241Y-93455464D01*
X124769162Y-93394956D01*
X124769160Y-93394955D01*
X124612401Y-93374318D01*
X124612399Y-93374318D01*
X124455639Y-93394955D01*
X124455637Y-93394956D01*
X124309560Y-93455463D01*
X124184118Y-93551718D01*
X124087863Y-93677160D01*
X124027356Y-93823237D01*
X124027355Y-93823239D01*
X124006718Y-93979998D01*
X96899589Y-93979998D01*
X96890818Y-93956870D01*
X96868708Y-93924839D01*
X96836654Y-93878401D01*
X96794183Y-93816871D01*
X96686686Y-93721637D01*
X96666849Y-93704063D01*
X96516226Y-93625010D01*
X96351056Y-93584300D01*
X96180944Y-93584300D01*
X96015773Y-93625010D01*
X95865150Y-93704063D01*
X95737816Y-93816872D01*
X95641182Y-93956868D01*
X95580860Y-94115925D01*
X95580859Y-94115930D01*
X95560355Y-94284800D01*
X88830809Y-94284800D01*
X88850044Y-94238362D01*
X88870682Y-94081600D01*
X88870571Y-94080760D01*
X88850044Y-93924839D01*
X88850042Y-93924834D01*
X88789538Y-93778763D01*
X88789535Y-93778758D01*
X88789533Y-93778756D01*
X88787485Y-93776086D01*
X88786456Y-93773425D01*
X88785474Y-93771724D01*
X88785739Y-93771570D01*
X88762291Y-93710917D01*
X88776329Y-93642472D01*
X88787485Y-93625114D01*
X88787640Y-93624911D01*
X88789536Y-93622441D01*
X88850044Y-93476362D01*
X88870682Y-93319600D01*
X88850044Y-93162838D01*
X88789536Y-93016759D01*
X88787485Y-93014086D01*
X88786456Y-93011425D01*
X88785474Y-93009724D01*
X88785739Y-93009570D01*
X88762291Y-92948917D01*
X88776329Y-92880472D01*
X88787485Y-92863114D01*
X88787640Y-92862911D01*
X88789536Y-92860441D01*
X88850044Y-92714362D01*
X88870682Y-92557600D01*
X88850044Y-92400838D01*
X88789536Y-92254759D01*
X88693282Y-92129318D01*
X88567841Y-92033064D01*
X88535915Y-92019840D01*
X88421762Y-91972556D01*
X88421760Y-91972555D01*
X88265001Y-91951918D01*
X88264999Y-91951918D01*
X88108239Y-91972555D01*
X88108237Y-91972556D01*
X87962160Y-92033063D01*
X87895986Y-92083840D01*
X87830816Y-92109033D01*
X87762371Y-92094994D01*
X87745014Y-92083840D01*
X87695285Y-92045682D01*
X87678841Y-92033064D01*
X87646915Y-92019840D01*
X87532762Y-91972556D01*
X87532760Y-91972555D01*
X87376001Y-91951918D01*
X87375999Y-91951918D01*
X87219239Y-91972555D01*
X87219237Y-91972556D01*
X87073160Y-92033063D01*
X87006986Y-92083840D01*
X86941816Y-92109033D01*
X86873371Y-92094994D01*
X86856014Y-92083840D01*
X86806285Y-92045682D01*
X86789841Y-92033064D01*
X86757915Y-92019840D01*
X86643762Y-91972556D01*
X86643760Y-91972555D01*
X86487001Y-91951918D01*
X86486999Y-91951918D01*
X86330239Y-91972555D01*
X86330237Y-91972556D01*
X86184160Y-92033063D01*
X86117986Y-92083840D01*
X86052816Y-92109033D01*
X85984371Y-92094994D01*
X85967014Y-92083840D01*
X85917285Y-92045682D01*
X85900841Y-92033064D01*
X85868915Y-92019840D01*
X85754762Y-91972556D01*
X85754760Y-91972555D01*
X85598001Y-91951918D01*
X85597999Y-91951918D01*
X85441239Y-91972555D01*
X85441237Y-91972556D01*
X85295160Y-92033063D01*
X85169718Y-92129318D01*
X85073463Y-92254760D01*
X85012956Y-92400837D01*
X85012955Y-92400839D01*
X84992318Y-92557598D01*
X84992318Y-92557601D01*
X85012955Y-92714360D01*
X85012956Y-92714362D01*
X85073464Y-92860443D01*
X85075518Y-92863119D01*
X85076547Y-92865783D01*
X85077528Y-92867481D01*
X85077263Y-92867633D01*
X85100709Y-92928289D01*
X85086666Y-92996734D01*
X85075518Y-93014081D01*
X85073464Y-93016756D01*
X85012956Y-93162837D01*
X85012955Y-93162839D01*
X84992318Y-93319598D01*
X84992318Y-93319601D01*
X85012955Y-93476360D01*
X85012956Y-93476362D01*
X85073464Y-93622443D01*
X85075518Y-93625119D01*
X85076547Y-93627783D01*
X85077528Y-93629481D01*
X85077263Y-93629633D01*
X85100709Y-93690289D01*
X85086666Y-93758734D01*
X85075518Y-93776081D01*
X85073464Y-93778756D01*
X85018892Y-93910506D01*
X84975051Y-93964909D01*
X84913416Y-93985422D01*
X84827594Y-93985422D01*
X84860182Y-93974575D01*
X84841057Y-93969694D01*
X84793447Y-93918557D01*
X84781392Y-93879238D01*
X84781281Y-93878398D01*
X84760644Y-93721638D01*
X84700136Y-93575559D01*
X84603882Y-93450118D01*
X84478441Y-93353864D01*
X84332362Y-93293356D01*
X84332360Y-93293355D01*
X84175601Y-93272718D01*
X84175599Y-93272718D01*
X84018839Y-93293355D01*
X84018837Y-93293356D01*
X83872760Y-93353863D01*
X83747318Y-93450118D01*
X83651063Y-93575560D01*
X83590556Y-93721637D01*
X83590555Y-93721639D01*
X83569918Y-93878398D01*
X70500500Y-93878398D01*
X70500500Y-89788998D01*
X94923718Y-89788998D01*
X94923718Y-89789001D01*
X94944355Y-89945760D01*
X94944356Y-89945762D01*
X94984632Y-90042998D01*
X95004864Y-90091841D01*
X95101118Y-90217282D01*
X95226559Y-90313536D01*
X95372638Y-90374044D01*
X95451019Y-90384363D01*
X95529399Y-90394682D01*
X95529400Y-90394682D01*
X95529401Y-90394682D01*
X95581654Y-90387802D01*
X95686162Y-90374044D01*
X95832241Y-90313536D01*
X95928253Y-90239862D01*
X95993420Y-90214669D01*
X96061865Y-90228707D01*
X96111855Y-90277520D01*
X96127519Y-90345612D01*
X96126677Y-90354423D01*
X96117518Y-90423997D01*
X96117518Y-90424001D01*
X96138155Y-90580760D01*
X96138156Y-90580762D01*
X96176998Y-90674536D01*
X96198664Y-90726841D01*
X96289189Y-90844816D01*
X96314382Y-90909983D01*
X96300344Y-90978427D01*
X96251530Y-91028417D01*
X96190812Y-91044300D01*
X96130144Y-91044300D01*
X95964973Y-91085010D01*
X95814350Y-91164063D01*
X95687016Y-91276872D01*
X95590382Y-91416868D01*
X95530060Y-91575925D01*
X95530059Y-91575930D01*
X95509555Y-91744800D01*
X95530059Y-91913669D01*
X95530060Y-91913674D01*
X95590382Y-92072731D01*
X95608129Y-92098441D01*
X95687017Y-92212729D01*
X95792705Y-92306360D01*
X95814350Y-92325536D01*
X95919348Y-92380643D01*
X95964975Y-92404590D01*
X96130144Y-92445300D01*
X96300256Y-92445300D01*
X96465425Y-92404590D01*
X96544892Y-92362881D01*
X96616049Y-92325536D01*
X96616050Y-92325534D01*
X96616052Y-92325534D01*
X96743383Y-92212729D01*
X96840018Y-92072730D01*
X96900340Y-91913672D01*
X96920845Y-91744800D01*
X96900340Y-91575928D01*
X96840018Y-91416870D01*
X96805814Y-91367318D01*
X96756860Y-91296396D01*
X96743383Y-91276871D01*
X96743381Y-91276869D01*
X96701335Y-91239619D01*
X96664208Y-91180430D01*
X96664976Y-91110564D01*
X96703394Y-91052205D01*
X96767261Y-91023881D01*
X96879962Y-91009044D01*
X97026041Y-90948536D01*
X97151482Y-90852282D01*
X97247736Y-90726841D01*
X97308244Y-90580762D01*
X97328882Y-90424000D01*
X97328882Y-90423998D01*
X100638718Y-90423998D01*
X100638718Y-90424001D01*
X100659355Y-90580760D01*
X100659356Y-90580762D01*
X100698198Y-90674536D01*
X100719864Y-90726841D01*
X100816118Y-90852282D01*
X100941559Y-90948536D01*
X101037785Y-90988394D01*
X101079710Y-91005760D01*
X101134113Y-91049601D01*
X101156178Y-91115895D01*
X101138899Y-91183595D01*
X101087761Y-91231205D01*
X101079710Y-91234882D01*
X100992360Y-91271063D01*
X100866918Y-91367318D01*
X100770663Y-91492760D01*
X100710156Y-91638837D01*
X100710155Y-91638839D01*
X100689518Y-91795598D01*
X100689518Y-91795601D01*
X100710155Y-91952360D01*
X100710156Y-91952362D01*
X100760014Y-92072731D01*
X100770664Y-92098441D01*
X100866918Y-92223882D01*
X100992359Y-92320136D01*
X101138438Y-92380644D01*
X101216819Y-92390963D01*
X101295199Y-92401282D01*
X101295200Y-92401282D01*
X101295201Y-92401282D01*
X101347454Y-92394402D01*
X101451962Y-92380644D01*
X101598041Y-92320136D01*
X101723482Y-92223882D01*
X101759764Y-92176598D01*
X123892918Y-92176598D01*
X123892918Y-92176601D01*
X123913555Y-92333360D01*
X123913556Y-92333362D01*
X123941505Y-92400838D01*
X123974064Y-92479441D01*
X124070318Y-92604882D01*
X124195759Y-92701136D01*
X124341838Y-92761644D01*
X124420219Y-92771963D01*
X124498599Y-92782282D01*
X124498600Y-92782282D01*
X124498601Y-92782282D01*
X124550854Y-92775402D01*
X124655362Y-92761644D01*
X124801441Y-92701136D01*
X124926882Y-92604882D01*
X125023136Y-92479441D01*
X125083644Y-92333362D01*
X125104282Y-92176600D01*
X125083644Y-92019838D01*
X125023136Y-91873759D01*
X124926882Y-91748318D01*
X124801441Y-91652064D01*
X124769508Y-91638837D01*
X124655362Y-91591556D01*
X124655360Y-91591555D01*
X124498601Y-91570918D01*
X124498599Y-91570918D01*
X124341839Y-91591555D01*
X124341837Y-91591556D01*
X124195760Y-91652063D01*
X124070315Y-91748320D01*
X124031222Y-91799268D01*
X123974794Y-91840471D01*
X123939965Y-91842545D01*
X123953423Y-91867902D01*
X123947610Y-91937530D01*
X123946514Y-91940270D01*
X123913555Y-92019840D01*
X123892918Y-92176598D01*
X101759764Y-92176598D01*
X101819736Y-92098441D01*
X101880244Y-91952362D01*
X101900882Y-91795600D01*
X101898045Y-91774054D01*
X101880244Y-91638839D01*
X101880244Y-91638838D01*
X101819736Y-91492759D01*
X101779251Y-91439998D01*
X122660518Y-91439998D01*
X122660518Y-91440001D01*
X122681155Y-91596760D01*
X122681156Y-91596762D01*
X122741664Y-91742841D01*
X122837918Y-91868282D01*
X122963359Y-91964536D01*
X123109438Y-92025044D01*
X123170349Y-92033063D01*
X123266199Y-92045682D01*
X123266200Y-92045682D01*
X123266201Y-92045682D01*
X123318454Y-92038802D01*
X123422962Y-92025044D01*
X123569041Y-91964536D01*
X123694482Y-91868282D01*
X123733578Y-91817330D01*
X123790003Y-91776129D01*
X123824833Y-91774054D01*
X123811376Y-91748694D01*
X123817189Y-91679067D01*
X123818267Y-91676374D01*
X123851244Y-91596762D01*
X123871882Y-91440000D01*
X123851244Y-91283238D01*
X123790736Y-91137159D01*
X123694482Y-91011718D01*
X123569041Y-90915464D01*
X123422962Y-90854956D01*
X123422960Y-90854955D01*
X123266201Y-90834318D01*
X123266199Y-90834318D01*
X123109439Y-90854955D01*
X123109437Y-90854956D01*
X122963360Y-90915463D01*
X122837918Y-91011718D01*
X122741663Y-91137160D01*
X122681156Y-91283237D01*
X122681155Y-91283239D01*
X122660518Y-91439998D01*
X101779251Y-91439998D01*
X101723482Y-91367318D01*
X101598041Y-91271064D01*
X101598039Y-91271063D01*
X101459889Y-91213839D01*
X101405486Y-91169998D01*
X101383421Y-91103703D01*
X101400700Y-91036004D01*
X101451838Y-90988394D01*
X101459853Y-90984733D01*
X101547241Y-90948536D01*
X101672682Y-90852282D01*
X101768936Y-90726841D01*
X101829444Y-90580762D01*
X101850082Y-90424000D01*
X101849783Y-90421731D01*
X101829444Y-90267239D01*
X101829444Y-90267238D01*
X101768936Y-90121159D01*
X101747943Y-90093800D01*
X109962155Y-90093800D01*
X109982659Y-90262669D01*
X109982660Y-90262674D01*
X110042982Y-90421731D01*
X110091813Y-90492473D01*
X110139617Y-90561729D01*
X110237767Y-90648682D01*
X110266950Y-90674536D01*
X110412032Y-90750681D01*
X110417575Y-90753590D01*
X110582744Y-90794300D01*
X110752856Y-90794300D01*
X110918025Y-90753590D01*
X110997492Y-90711881D01*
X111068649Y-90674536D01*
X111068650Y-90674534D01*
X111068652Y-90674534D01*
X111195983Y-90561729D01*
X111292618Y-90421730D01*
X111330289Y-90322398D01*
X119282318Y-90322398D01*
X119282318Y-90322401D01*
X119302955Y-90479160D01*
X119302956Y-90479162D01*
X119339562Y-90567538D01*
X119363464Y-90625241D01*
X119459718Y-90750682D01*
X119585159Y-90846936D01*
X119731238Y-90907444D01*
X119750524Y-90909983D01*
X119887999Y-90928082D01*
X119888000Y-90928082D01*
X119888001Y-90928082D01*
X119940254Y-90921202D01*
X120044762Y-90907444D01*
X120190841Y-90846936D01*
X120306484Y-90758200D01*
X125934584Y-90758200D01*
X125954063Y-90856128D01*
X125954065Y-90856136D01*
X126018140Y-91010827D01*
X126018140Y-91010828D01*
X126111158Y-91150039D01*
X126111164Y-91150047D01*
X126229553Y-91268436D01*
X126271400Y-91296396D01*
X127271400Y-91296396D01*
X127313246Y-91268436D01*
X127431635Y-91150047D01*
X127431641Y-91150039D01*
X127524659Y-91010828D01*
X127524659Y-91010827D01*
X127588734Y-90856136D01*
X127588736Y-90856128D01*
X127608216Y-90758200D01*
X127271400Y-90758200D01*
X127271400Y-91296396D01*
X126271400Y-91296396D01*
X126271400Y-90758200D01*
X125934584Y-90758200D01*
X120306484Y-90758200D01*
X120316282Y-90750682D01*
X120412536Y-90625241D01*
X120467530Y-90492471D01*
X120511371Y-90438069D01*
X120577665Y-90416004D01*
X120645364Y-90433283D01*
X120680464Y-90464435D01*
X120685718Y-90471282D01*
X120811159Y-90567536D01*
X120957238Y-90628044D01*
X121035619Y-90638363D01*
X121113999Y-90648682D01*
X121114000Y-90648682D01*
X121114001Y-90648682D01*
X121166254Y-90641802D01*
X121270762Y-90628044D01*
X121416841Y-90567536D01*
X121463513Y-90531722D01*
X121528682Y-90506528D01*
X121597127Y-90520566D01*
X121614487Y-90531723D01*
X121661157Y-90567535D01*
X121661163Y-90567538D01*
X121693089Y-90580762D01*
X121807238Y-90628044D01*
X121885619Y-90638363D01*
X121963999Y-90648682D01*
X121964000Y-90648682D01*
X121964001Y-90648682D01*
X122016254Y-90641802D01*
X122120762Y-90628044D01*
X122266841Y-90567536D01*
X122392282Y-90471282D01*
X122488536Y-90345841D01*
X122549044Y-90199762D01*
X122569682Y-90043000D01*
X122549044Y-89886238D01*
X122537543Y-89858472D01*
X126521400Y-89858472D01*
X126521400Y-90657928D01*
X126559460Y-90749814D01*
X126629786Y-90820140D01*
X126721672Y-90858200D01*
X126821128Y-90858200D01*
X126913014Y-90820140D01*
X126983340Y-90749814D01*
X127021400Y-90657928D01*
X127021400Y-89858472D01*
X126983340Y-89766586D01*
X126974954Y-89758200D01*
X127271400Y-89758200D01*
X127608216Y-89758200D01*
X127608216Y-89758199D01*
X127588736Y-89660271D01*
X127588734Y-89660263D01*
X127524659Y-89505572D01*
X127524659Y-89505571D01*
X127431641Y-89366360D01*
X127431639Y-89366357D01*
X127313240Y-89247959D01*
X127313238Y-89247958D01*
X127271400Y-89220001D01*
X127271400Y-89758200D01*
X126974954Y-89758200D01*
X126913014Y-89696260D01*
X126821128Y-89658200D01*
X126721672Y-89658200D01*
X126629786Y-89696260D01*
X126559460Y-89766586D01*
X126521400Y-89858472D01*
X122537543Y-89858472D01*
X122496008Y-89758199D01*
X125934583Y-89758199D01*
X125934584Y-89758200D01*
X126271400Y-89758200D01*
X126271400Y-89220001D01*
X126271399Y-89220001D01*
X126229561Y-89247958D01*
X126229559Y-89247959D01*
X126111160Y-89366357D01*
X126111158Y-89366360D01*
X126018140Y-89505571D01*
X126018140Y-89505572D01*
X125954065Y-89660263D01*
X125954063Y-89660271D01*
X125934583Y-89758199D01*
X122496008Y-89758199D01*
X122488536Y-89740159D01*
X122392282Y-89614718D01*
X122266841Y-89518464D01*
X122188852Y-89486160D01*
X122120762Y-89457956D01*
X122120760Y-89457955D01*
X121964001Y-89437318D01*
X121963999Y-89437318D01*
X121807239Y-89457955D01*
X121807237Y-89457956D01*
X121661158Y-89518464D01*
X121614485Y-89554277D01*
X121549316Y-89579470D01*
X121480871Y-89565431D01*
X121463515Y-89554277D01*
X121416841Y-89518464D01*
X121270762Y-89457956D01*
X121270760Y-89457955D01*
X121114001Y-89437318D01*
X121113999Y-89437318D01*
X120957239Y-89457955D01*
X120957237Y-89457956D01*
X120811160Y-89518463D01*
X120685718Y-89614718D01*
X120589463Y-89740160D01*
X120534469Y-89872927D01*
X120490628Y-89927331D01*
X120424333Y-89949395D01*
X120356634Y-89932115D01*
X120321533Y-89900961D01*
X120316284Y-89894120D01*
X120316282Y-89894119D01*
X120316282Y-89894118D01*
X120190841Y-89797864D01*
X120169441Y-89789000D01*
X120044762Y-89737356D01*
X120044760Y-89737355D01*
X119888001Y-89716718D01*
X119887999Y-89716718D01*
X119731239Y-89737355D01*
X119731237Y-89737356D01*
X119585160Y-89797863D01*
X119459718Y-89894118D01*
X119363463Y-90019560D01*
X119302956Y-90165637D01*
X119302955Y-90165639D01*
X119282318Y-90322398D01*
X111330289Y-90322398D01*
X111352940Y-90262672D01*
X111373445Y-90093800D01*
X111352940Y-89924928D01*
X111341255Y-89894118D01*
X111327737Y-89858472D01*
X111292618Y-89765870D01*
X111272935Y-89737355D01*
X111244569Y-89696260D01*
X111195983Y-89625871D01*
X111068652Y-89513066D01*
X111068649Y-89513063D01*
X110918026Y-89434010D01*
X110752856Y-89393300D01*
X110582744Y-89393300D01*
X110417573Y-89434010D01*
X110266950Y-89513063D01*
X110139616Y-89625872D01*
X110042982Y-89765868D01*
X109982660Y-89924925D01*
X109982659Y-89924930D01*
X109962155Y-90093800D01*
X101747943Y-90093800D01*
X101672682Y-89995718D01*
X101547241Y-89899464D01*
X101534339Y-89894120D01*
X101401162Y-89838956D01*
X101401160Y-89838955D01*
X101244401Y-89818318D01*
X101244399Y-89818318D01*
X101087639Y-89838955D01*
X101087637Y-89838956D01*
X100941560Y-89899463D01*
X100816118Y-89995718D01*
X100719863Y-90121160D01*
X100659356Y-90267237D01*
X100659355Y-90267239D01*
X100638718Y-90423998D01*
X97328882Y-90423998D01*
X97328583Y-90421731D01*
X97308244Y-90267239D01*
X97308244Y-90267238D01*
X97247736Y-90121159D01*
X97151482Y-89995718D01*
X97026041Y-89899464D01*
X97013139Y-89894120D01*
X96879962Y-89838956D01*
X96879960Y-89838955D01*
X96723201Y-89818318D01*
X96723199Y-89818318D01*
X96566439Y-89838955D01*
X96566437Y-89838956D01*
X96420357Y-89899464D01*
X96324347Y-89973136D01*
X96259178Y-89998330D01*
X96190733Y-89984292D01*
X96140744Y-89935478D01*
X96125080Y-89867386D01*
X96125922Y-89858574D01*
X96125936Y-89858472D01*
X96135082Y-89789000D01*
X96114444Y-89632238D01*
X96053936Y-89486159D01*
X95957682Y-89360718D01*
X95832241Y-89264464D01*
X95792394Y-89247959D01*
X95686162Y-89203956D01*
X95686160Y-89203955D01*
X95529401Y-89183318D01*
X95529399Y-89183318D01*
X95372639Y-89203955D01*
X95372637Y-89203956D01*
X95226560Y-89264463D01*
X95101118Y-89360718D01*
X95004863Y-89486160D01*
X94944356Y-89632237D01*
X94944355Y-89632239D01*
X94923718Y-89788998D01*
X70500500Y-89788998D01*
X70500500Y-88163400D01*
X105644155Y-88163400D01*
X105664659Y-88332269D01*
X105664660Y-88332274D01*
X105724982Y-88491331D01*
X105787275Y-88581577D01*
X105821617Y-88631329D01*
X105895063Y-88696396D01*
X105948950Y-88744136D01*
X106079140Y-88812465D01*
X106099575Y-88823190D01*
X106264744Y-88863900D01*
X106434856Y-88863900D01*
X106600025Y-88823190D01*
X106679492Y-88781481D01*
X106750649Y-88744136D01*
X106750650Y-88744134D01*
X106750652Y-88744134D01*
X106877983Y-88631329D01*
X106974618Y-88491330D01*
X107034940Y-88332272D01*
X107055445Y-88163400D01*
X107046766Y-88091922D01*
X128071400Y-88091922D01*
X128104063Y-88256128D01*
X128104065Y-88256136D01*
X128168140Y-88410827D01*
X128168140Y-88410828D01*
X128261158Y-88550039D01*
X128261164Y-88550047D01*
X128379553Y-88668436D01*
X128421400Y-88696396D01*
X128421400Y-87958200D01*
X128071400Y-87958200D01*
X128071400Y-88091922D01*
X107046766Y-88091922D01*
X107034940Y-87994528D01*
X106974618Y-87835470D01*
X106877983Y-87695471D01*
X106750652Y-87582666D01*
X106750649Y-87582663D01*
X106600026Y-87503610D01*
X106434856Y-87462900D01*
X106264744Y-87462900D01*
X106099573Y-87503610D01*
X105948950Y-87582663D01*
X105821616Y-87695472D01*
X105724982Y-87835468D01*
X105664663Y-87994519D01*
X105664659Y-87994530D01*
X105644155Y-88163400D01*
X70500500Y-88163400D01*
X70500500Y-85003598D01*
X78530418Y-85003598D01*
X78530418Y-85003601D01*
X78551055Y-85160360D01*
X78551057Y-85160365D01*
X78613761Y-85311748D01*
X78621230Y-85381217D01*
X78613761Y-85406652D01*
X78551057Y-85558034D01*
X78551055Y-85558039D01*
X78530418Y-85714798D01*
X78530418Y-85714801D01*
X78551055Y-85871560D01*
X78551057Y-85871565D01*
X78613761Y-86022948D01*
X78621230Y-86092417D01*
X78613761Y-86117852D01*
X78551057Y-86269234D01*
X78551055Y-86269239D01*
X78530418Y-86425998D01*
X78530418Y-86426001D01*
X78551055Y-86582760D01*
X78551056Y-86582762D01*
X78611564Y-86728841D01*
X78707818Y-86854282D01*
X78833259Y-86950536D01*
X78979338Y-87011044D01*
X79057719Y-87021363D01*
X79136099Y-87031682D01*
X79136100Y-87031682D01*
X79136101Y-87031682D01*
X79188354Y-87024802D01*
X79292862Y-87011044D01*
X79438941Y-86950536D01*
X79467015Y-86928993D01*
X79532181Y-86903800D01*
X79600626Y-86917837D01*
X79617977Y-86928988D01*
X79646059Y-86950536D01*
X79646062Y-86950537D01*
X79646063Y-86950538D01*
X79719098Y-86980790D01*
X79792138Y-87011044D01*
X79870519Y-87021363D01*
X79948899Y-87031682D01*
X79948900Y-87031682D01*
X79948901Y-87031682D01*
X80001154Y-87024802D01*
X80105662Y-87011044D01*
X80251741Y-86950536D01*
X80305214Y-86909505D01*
X80370383Y-86884311D01*
X80438828Y-86898349D01*
X80456186Y-86909505D01*
X80509657Y-86950535D01*
X80509658Y-86950535D01*
X80509659Y-86950536D01*
X80655738Y-87011044D01*
X80734119Y-87021363D01*
X80812499Y-87031682D01*
X80812500Y-87031682D01*
X80812501Y-87031682D01*
X80864754Y-87024802D01*
X80969262Y-87011044D01*
X81115341Y-86950536D01*
X81156114Y-86919249D01*
X81221281Y-86894055D01*
X81289726Y-86908093D01*
X81307083Y-86919247D01*
X81347859Y-86950536D01*
X81347861Y-86950536D01*
X81347863Y-86950538D01*
X81420898Y-86980790D01*
X81493938Y-87011044D01*
X81572319Y-87021363D01*
X81650699Y-87031682D01*
X81650700Y-87031682D01*
X81650701Y-87031682D01*
X81702954Y-87024802D01*
X81807462Y-87011044D01*
X81953541Y-86950536D01*
X81994314Y-86919249D01*
X82059481Y-86894055D01*
X82127926Y-86908093D01*
X82145283Y-86919247D01*
X82186059Y-86950536D01*
X82186061Y-86950536D01*
X82186063Y-86950538D01*
X82259098Y-86980790D01*
X82332138Y-87011044D01*
X82410519Y-87021363D01*
X82488899Y-87031682D01*
X82488900Y-87031682D01*
X82488901Y-87031682D01*
X82541154Y-87024802D01*
X82645662Y-87011044D01*
X82791741Y-86950536D01*
X82917182Y-86854282D01*
X82940052Y-86824477D01*
X128071400Y-86824477D01*
X128071400Y-86958200D01*
X128421400Y-86958200D01*
X128421400Y-86858472D01*
X128671400Y-86858472D01*
X128671400Y-88057928D01*
X128709460Y-88149814D01*
X128779786Y-88220140D01*
X128871672Y-88258200D01*
X128971128Y-88258200D01*
X129063014Y-88220140D01*
X129133340Y-88149814D01*
X129171400Y-88057928D01*
X129171400Y-86858472D01*
X129133340Y-86766586D01*
X129063014Y-86696260D01*
X128971128Y-86658200D01*
X128871672Y-86658200D01*
X128779786Y-86696260D01*
X128709460Y-86766586D01*
X128671400Y-86858472D01*
X128421400Y-86858472D01*
X128421400Y-86220001D01*
X128421399Y-86220001D01*
X128379561Y-86247958D01*
X128379559Y-86247959D01*
X128261160Y-86366357D01*
X128261158Y-86366360D01*
X128168140Y-86505571D01*
X128168140Y-86505572D01*
X128104065Y-86660263D01*
X128104063Y-86660271D01*
X128071400Y-86824477D01*
X82940052Y-86824477D01*
X83013436Y-86728841D01*
X83073944Y-86582762D01*
X83094582Y-86426000D01*
X83073944Y-86269238D01*
X83013436Y-86123159D01*
X83013435Y-86123158D01*
X83011238Y-86117853D01*
X83003769Y-86048383D01*
X83011238Y-86022947D01*
X83013436Y-86017641D01*
X83073944Y-85871562D01*
X83094582Y-85714800D01*
X83073944Y-85558038D01*
X83013436Y-85411959D01*
X83013435Y-85411958D01*
X83011238Y-85406653D01*
X83003769Y-85337183D01*
X83011238Y-85311747D01*
X83016808Y-85298300D01*
X83057151Y-85200903D01*
X94636279Y-85200903D01*
X94685950Y-85224065D01*
X94685959Y-85224069D01*
X94905666Y-85282939D01*
X94905677Y-85282941D01*
X95132275Y-85302766D01*
X95132279Y-85302766D01*
X95358876Y-85282941D01*
X95358883Y-85282940D01*
X95578605Y-85224065D01*
X95628274Y-85200903D01*
X95132278Y-84704907D01*
X95132277Y-84704907D01*
X94636279Y-85200903D01*
X83057151Y-85200903D01*
X83073944Y-85160362D01*
X83094582Y-85003600D01*
X83073944Y-84846838D01*
X83013436Y-84700759D01*
X82917182Y-84575318D01*
X82791741Y-84479064D01*
X82754709Y-84463725D01*
X82645662Y-84418556D01*
X82645660Y-84418555D01*
X82488901Y-84397918D01*
X82488899Y-84397918D01*
X82332139Y-84418555D01*
X82332137Y-84418556D01*
X82186058Y-84479064D01*
X82145285Y-84510350D01*
X82080116Y-84535543D01*
X82011671Y-84521504D01*
X81994315Y-84510350D01*
X81953541Y-84479064D01*
X81807462Y-84418556D01*
X81807460Y-84418555D01*
X81650701Y-84397918D01*
X81650699Y-84397918D01*
X81493939Y-84418555D01*
X81493937Y-84418556D01*
X81347858Y-84479064D01*
X81307085Y-84510350D01*
X81241916Y-84535543D01*
X81173471Y-84521504D01*
X81156115Y-84510350D01*
X81115341Y-84479064D01*
X80969262Y-84418556D01*
X80969260Y-84418555D01*
X80812501Y-84397918D01*
X80812499Y-84397918D01*
X80655739Y-84418555D01*
X80655737Y-84418556D01*
X80509658Y-84479064D01*
X80456185Y-84520095D01*
X80391016Y-84545288D01*
X80322571Y-84531249D01*
X80305215Y-84520095D01*
X80251741Y-84479064D01*
X80105662Y-84418556D01*
X80105660Y-84418555D01*
X79948901Y-84397918D01*
X79948899Y-84397918D01*
X79792139Y-84418555D01*
X79792137Y-84418556D01*
X79646058Y-84479064D01*
X79617985Y-84500605D01*
X79552815Y-84525798D01*
X79484371Y-84511759D01*
X79467015Y-84500605D01*
X79438941Y-84479064D01*
X79292862Y-84418556D01*
X79292860Y-84418555D01*
X79136101Y-84397918D01*
X79136099Y-84397918D01*
X78979339Y-84418555D01*
X78979337Y-84418556D01*
X78833260Y-84479063D01*
X78707818Y-84575318D01*
X78611563Y-84700760D01*
X78551056Y-84846837D01*
X78551055Y-84846839D01*
X78530418Y-85003598D01*
X70500500Y-85003598D01*
X70500500Y-83806998D01*
X83646118Y-83806998D01*
X83646118Y-83807001D01*
X83666755Y-83963760D01*
X83666756Y-83963762D01*
X83721638Y-84096260D01*
X83727264Y-84109841D01*
X83823518Y-84235282D01*
X83948959Y-84331536D01*
X84095038Y-84392044D01*
X84139656Y-84397918D01*
X84251799Y-84412682D01*
X84251800Y-84412682D01*
X84251801Y-84412682D01*
X84304054Y-84405802D01*
X84408562Y-84392044D01*
X84554641Y-84331536D01*
X84680082Y-84235282D01*
X84776336Y-84109841D01*
X84776338Y-84109833D01*
X84778851Y-84105484D01*
X84829415Y-84057265D01*
X84898021Y-84044038D01*
X84962888Y-84070002D01*
X85003420Y-84126913D01*
X85009181Y-84151290D01*
X85012956Y-84179961D01*
X85012956Y-84179962D01*
X85064668Y-84304807D01*
X85073464Y-84326041D01*
X85169718Y-84451482D01*
X85295159Y-84547736D01*
X85441238Y-84608244D01*
X85519619Y-84618563D01*
X85597999Y-84628882D01*
X85598000Y-84628882D01*
X85598001Y-84628882D01*
X85650254Y-84622002D01*
X85754762Y-84608244D01*
X85900841Y-84547736D01*
X85967014Y-84496959D01*
X86032182Y-84471765D01*
X86100627Y-84485803D01*
X86117982Y-84496957D01*
X86149973Y-84521504D01*
X86184157Y-84547735D01*
X86184158Y-84547735D01*
X86184159Y-84547736D01*
X86330238Y-84608244D01*
X86408619Y-84618563D01*
X86486999Y-84628882D01*
X86487000Y-84628882D01*
X86487001Y-84628882D01*
X86539254Y-84622002D01*
X86643762Y-84608244D01*
X86789841Y-84547736D01*
X86856014Y-84496959D01*
X86921182Y-84471765D01*
X86989627Y-84485803D01*
X87006982Y-84496957D01*
X87038973Y-84521504D01*
X87073157Y-84547735D01*
X87073158Y-84547735D01*
X87073159Y-84547736D01*
X87219238Y-84608244D01*
X87297619Y-84618563D01*
X87375999Y-84628882D01*
X87376000Y-84628882D01*
X87376001Y-84628882D01*
X87428254Y-84622002D01*
X87532762Y-84608244D01*
X87678841Y-84547736D01*
X87745014Y-84496959D01*
X87810182Y-84471765D01*
X87878627Y-84485803D01*
X87895982Y-84496957D01*
X87927973Y-84521504D01*
X87962157Y-84547735D01*
X87962158Y-84547735D01*
X87962159Y-84547736D01*
X88108238Y-84608244D01*
X88186619Y-84618563D01*
X88264999Y-84628882D01*
X88265000Y-84628882D01*
X88265001Y-84628882D01*
X88317254Y-84622002D01*
X88421762Y-84608244D01*
X88567841Y-84547736D01*
X88693282Y-84451482D01*
X88789536Y-84326041D01*
X88850044Y-84179962D01*
X88870682Y-84023200D01*
X88867338Y-83997802D01*
X88867337Y-83997797D01*
X93827311Y-83997797D01*
X93827311Y-83997802D01*
X93847135Y-84224399D01*
X93847137Y-84224410D01*
X93906008Y-84444120D01*
X93929172Y-84493796D01*
X94425170Y-83997800D01*
X94425170Y-83997799D01*
X94359345Y-83931974D01*
X94632277Y-83931974D01*
X94632277Y-84063626D01*
X94666352Y-84190793D01*
X94732178Y-84304807D01*
X94825270Y-84397899D01*
X94939284Y-84463725D01*
X95066451Y-84497800D01*
X95198103Y-84497800D01*
X95325270Y-84463725D01*
X95439284Y-84397899D01*
X95532376Y-84304807D01*
X95598202Y-84190793D01*
X95632277Y-84063626D01*
X95632277Y-83997799D01*
X95839384Y-83997799D01*
X95839384Y-83997801D01*
X96335380Y-84493797D01*
X96358542Y-84444128D01*
X96417417Y-84224406D01*
X96417418Y-84224399D01*
X96437243Y-83997802D01*
X96437243Y-83997797D01*
X96417418Y-83771200D01*
X96417416Y-83771189D01*
X96358546Y-83551482D01*
X96358542Y-83551473D01*
X96335380Y-83501802D01*
X95839384Y-83997799D01*
X95632277Y-83997799D01*
X95632277Y-83931974D01*
X95598202Y-83804807D01*
X95532376Y-83690793D01*
X95439284Y-83597701D01*
X95325270Y-83531875D01*
X95198103Y-83497800D01*
X95066451Y-83497800D01*
X94939284Y-83531875D01*
X94825270Y-83597701D01*
X94732178Y-83690793D01*
X94666352Y-83804807D01*
X94632277Y-83931974D01*
X94359345Y-83931974D01*
X93929172Y-83501802D01*
X93906008Y-83551477D01*
X93847137Y-83771189D01*
X93847135Y-83771200D01*
X93827311Y-83997797D01*
X88867337Y-83997797D01*
X88850044Y-83866439D01*
X88850042Y-83866434D01*
X88789538Y-83720363D01*
X88789535Y-83720358D01*
X88787485Y-83717686D01*
X88786456Y-83715025D01*
X88785474Y-83713324D01*
X88785739Y-83713170D01*
X88762291Y-83652517D01*
X88776329Y-83584072D01*
X88787485Y-83566714D01*
X88787640Y-83566511D01*
X88789536Y-83564041D01*
X88850044Y-83417962D01*
X88870682Y-83261200D01*
X88868154Y-83242001D01*
X88850044Y-83104439D01*
X88850043Y-83104437D01*
X88810903Y-83009943D01*
X88789538Y-82958363D01*
X88789535Y-82958358D01*
X88789533Y-82958356D01*
X88787485Y-82955686D01*
X88786456Y-82953025D01*
X88785474Y-82951324D01*
X88785739Y-82951170D01*
X88762291Y-82890517D01*
X88776329Y-82822072D01*
X88787485Y-82804714D01*
X88787640Y-82804511D01*
X88789536Y-82802041D01*
X88792579Y-82794695D01*
X94636279Y-82794695D01*
X95132277Y-83290693D01*
X95132278Y-83290693D01*
X95470038Y-82952931D01*
X98831777Y-82952931D01*
X98831777Y-85042656D01*
X98831779Y-85042682D01*
X98834690Y-85067787D01*
X98834692Y-85067791D01*
X98880070Y-85170564D01*
X98880071Y-85170565D01*
X98959512Y-85250006D01*
X99062286Y-85295385D01*
X99087412Y-85298300D01*
X101177141Y-85298299D01*
X101177156Y-85298297D01*
X101177159Y-85298297D01*
X101202264Y-85295386D01*
X101202265Y-85295385D01*
X101202268Y-85295385D01*
X101305042Y-85250006D01*
X101384483Y-85170565D01*
X101429862Y-85067791D01*
X101432777Y-85042665D01*
X101432776Y-82952936D01*
X101432775Y-82952931D01*
X104465100Y-82952931D01*
X104465100Y-85042656D01*
X104465102Y-85042682D01*
X104468013Y-85067787D01*
X104468015Y-85067791D01*
X104513393Y-85170564D01*
X104513394Y-85170565D01*
X104592835Y-85250006D01*
X104695609Y-85295385D01*
X104720735Y-85298300D01*
X106810464Y-85298299D01*
X106810479Y-85298297D01*
X106810482Y-85298297D01*
X106835587Y-85295386D01*
X106835588Y-85295385D01*
X106835591Y-85295385D01*
X106938365Y-85250006D01*
X106987468Y-85200903D01*
X110269602Y-85200903D01*
X110319273Y-85224065D01*
X110319282Y-85224069D01*
X110538989Y-85282939D01*
X110539000Y-85282941D01*
X110765598Y-85302766D01*
X110765602Y-85302766D01*
X110992199Y-85282941D01*
X110992206Y-85282940D01*
X111211928Y-85224065D01*
X111261597Y-85200903D01*
X111218894Y-85158200D01*
X125934584Y-85158200D01*
X125954063Y-85256128D01*
X125954065Y-85256136D01*
X126018140Y-85410827D01*
X126018140Y-85410828D01*
X126111158Y-85550039D01*
X126111164Y-85550047D01*
X126229553Y-85668436D01*
X126271400Y-85696396D01*
X127271400Y-85696396D01*
X127313246Y-85668436D01*
X127431635Y-85550047D01*
X127431641Y-85550039D01*
X127524659Y-85410828D01*
X127524659Y-85410827D01*
X127588734Y-85256136D01*
X127588736Y-85256128D01*
X127608216Y-85158200D01*
X127271400Y-85158200D01*
X127271400Y-85696396D01*
X126271400Y-85696396D01*
X126271400Y-85158200D01*
X125934584Y-85158200D01*
X111218894Y-85158200D01*
X110857197Y-84796503D01*
X120578545Y-84796503D01*
X120605919Y-84807842D01*
X120749497Y-84826745D01*
X120749499Y-84826745D01*
X120893077Y-84807842D01*
X120920449Y-84796504D01*
X120920449Y-84796503D01*
X120749499Y-84625552D01*
X120578545Y-84796503D01*
X110857197Y-84796503D01*
X110765601Y-84704907D01*
X110765600Y-84704907D01*
X110269602Y-85200903D01*
X106987468Y-85200903D01*
X107017806Y-85170565D01*
X107063185Y-85067791D01*
X107066100Y-85042665D01*
X107066099Y-83997797D01*
X109460634Y-83997797D01*
X109460634Y-83997802D01*
X109480458Y-84224399D01*
X109480460Y-84224410D01*
X109539331Y-84444120D01*
X109562495Y-84493796D01*
X110058493Y-83997800D01*
X110058493Y-83997799D01*
X109992668Y-83931974D01*
X110265600Y-83931974D01*
X110265600Y-84063626D01*
X110299675Y-84190793D01*
X110365501Y-84304807D01*
X110458593Y-84397899D01*
X110572607Y-84463725D01*
X110699774Y-84497800D01*
X110831426Y-84497800D01*
X110958593Y-84463725D01*
X111072607Y-84397899D01*
X111165699Y-84304807D01*
X111231525Y-84190793D01*
X111265600Y-84063626D01*
X111265600Y-83997799D01*
X111472707Y-83997799D01*
X111472707Y-83997801D01*
X111968703Y-84493797D01*
X111991865Y-84444128D01*
X112037988Y-84271998D01*
X120194753Y-84271998D01*
X120194753Y-84272001D01*
X120213655Y-84415582D01*
X120224992Y-84442951D01*
X120395945Y-84271999D01*
X120375737Y-84251791D01*
X120647898Y-84251791D01*
X120647898Y-84292209D01*
X120663366Y-84329552D01*
X120691946Y-84358132D01*
X120729289Y-84373600D01*
X120769707Y-84373600D01*
X120807050Y-84358132D01*
X120835630Y-84329552D01*
X120851098Y-84292209D01*
X120851098Y-84272000D01*
X121103050Y-84272000D01*
X121274001Y-84442951D01*
X121274002Y-84442951D01*
X121285340Y-84415579D01*
X121304243Y-84272001D01*
X121304243Y-84271998D01*
X121302462Y-84258472D01*
X126521400Y-84258472D01*
X126521400Y-85057928D01*
X126559460Y-85149814D01*
X126629786Y-85220140D01*
X126721672Y-85258200D01*
X126821128Y-85258200D01*
X126913014Y-85220140D01*
X126983340Y-85149814D01*
X127021400Y-85057928D01*
X127021400Y-84258472D01*
X126983340Y-84166586D01*
X126974954Y-84158200D01*
X127271400Y-84158200D01*
X127608216Y-84158200D01*
X127608216Y-84158199D01*
X127588736Y-84060271D01*
X127588734Y-84060263D01*
X127524659Y-83905572D01*
X127524659Y-83905571D01*
X127431641Y-83766360D01*
X127431639Y-83766357D01*
X127313240Y-83647959D01*
X127313238Y-83647958D01*
X127271400Y-83620001D01*
X127271400Y-84158200D01*
X126974954Y-84158200D01*
X126913014Y-84096260D01*
X126821128Y-84058200D01*
X126721672Y-84058200D01*
X126629786Y-84096260D01*
X126559460Y-84166586D01*
X126521400Y-84258472D01*
X121302462Y-84258472D01*
X121289260Y-84158199D01*
X125934583Y-84158199D01*
X125934584Y-84158200D01*
X126271400Y-84158200D01*
X126271400Y-83620001D01*
X126271399Y-83620001D01*
X126229561Y-83647958D01*
X126229559Y-83647959D01*
X126111160Y-83766357D01*
X126111158Y-83766360D01*
X126018140Y-83905571D01*
X126018140Y-83905572D01*
X125954065Y-84060263D01*
X125954063Y-84060271D01*
X125934583Y-84158199D01*
X121289260Y-84158199D01*
X121285340Y-84128421D01*
X121274001Y-84101047D01*
X121103050Y-84272000D01*
X120851098Y-84272000D01*
X120851098Y-84251791D01*
X120835630Y-84214448D01*
X120807050Y-84185868D01*
X120769707Y-84170400D01*
X120729289Y-84170400D01*
X120691946Y-84185868D01*
X120663366Y-84214448D01*
X120647898Y-84251791D01*
X120375737Y-84251791D01*
X120224992Y-84101046D01*
X120213655Y-84128419D01*
X120194753Y-84271998D01*
X112037988Y-84271998D01*
X112050740Y-84224406D01*
X112050741Y-84224399D01*
X112070566Y-83997802D01*
X112070566Y-83997797D01*
X112050741Y-83771200D01*
X112050739Y-83771189D01*
X112046937Y-83757000D01*
X120588050Y-83757000D01*
X120749498Y-83918448D01*
X120910946Y-83757000D01*
X120749498Y-83595552D01*
X120588050Y-83757000D01*
X112046937Y-83757000D01*
X111991869Y-83551482D01*
X111991865Y-83551473D01*
X111968703Y-83501802D01*
X111472707Y-83997799D01*
X111265600Y-83997799D01*
X111265600Y-83931974D01*
X111231525Y-83804807D01*
X111165699Y-83690793D01*
X111072607Y-83597701D01*
X110958593Y-83531875D01*
X110831426Y-83497800D01*
X110699774Y-83497800D01*
X110572607Y-83531875D01*
X110458593Y-83597701D01*
X110365501Y-83690793D01*
X110299675Y-83804807D01*
X110265600Y-83931974D01*
X109992668Y-83931974D01*
X109562495Y-83501802D01*
X109539331Y-83551477D01*
X109480460Y-83771189D01*
X109480458Y-83771200D01*
X109460634Y-83997797D01*
X107066099Y-83997797D01*
X107066099Y-82952936D01*
X107064406Y-82938334D01*
X107063186Y-82927812D01*
X107063185Y-82927810D01*
X107063185Y-82927809D01*
X107017806Y-82825035D01*
X106987466Y-82794695D01*
X110269602Y-82794695D01*
X110765600Y-83290693D01*
X110765601Y-83290693D01*
X110814296Y-83241998D01*
X120194753Y-83241998D01*
X120194753Y-83242001D01*
X120213655Y-83385582D01*
X120224992Y-83412951D01*
X120395945Y-83241999D01*
X120375737Y-83221791D01*
X120647898Y-83221791D01*
X120647898Y-83262209D01*
X120663366Y-83299552D01*
X120691946Y-83328132D01*
X120729289Y-83343600D01*
X120769707Y-83343600D01*
X120807050Y-83328132D01*
X120835630Y-83299552D01*
X120851098Y-83262209D01*
X120851098Y-83242000D01*
X121103050Y-83242000D01*
X121274001Y-83412951D01*
X121274002Y-83412951D01*
X121285340Y-83385579D01*
X121304243Y-83242001D01*
X121304243Y-83241998D01*
X121285340Y-83098421D01*
X121274001Y-83071047D01*
X121103050Y-83242000D01*
X120851098Y-83242000D01*
X120851098Y-83221791D01*
X120835630Y-83184448D01*
X120807050Y-83155868D01*
X120769707Y-83140400D01*
X120729289Y-83140400D01*
X120691946Y-83155868D01*
X120663366Y-83184448D01*
X120647898Y-83221791D01*
X120375737Y-83221791D01*
X120224992Y-83071046D01*
X120213655Y-83098419D01*
X120194753Y-83241998D01*
X110814296Y-83241998D01*
X111261596Y-82794695D01*
X111211920Y-82771531D01*
X110992210Y-82712660D01*
X110992199Y-82712658D01*
X110765602Y-82692834D01*
X110765598Y-82692834D01*
X110539000Y-82712658D01*
X110538989Y-82712660D01*
X110319277Y-82771531D01*
X110269602Y-82794695D01*
X106987466Y-82794695D01*
X106938365Y-82745594D01*
X106897932Y-82727741D01*
X106835592Y-82700215D01*
X106810465Y-82697300D01*
X104720743Y-82697300D01*
X104720717Y-82697302D01*
X104695612Y-82700213D01*
X104695608Y-82700215D01*
X104592835Y-82745593D01*
X104513394Y-82825034D01*
X104468015Y-82927806D01*
X104468015Y-82927808D01*
X104465100Y-82952931D01*
X101432775Y-82952931D01*
X101431083Y-82938334D01*
X101429863Y-82927812D01*
X101429862Y-82927810D01*
X101429862Y-82927809D01*
X101384483Y-82825035D01*
X101305042Y-82745594D01*
X101264609Y-82727741D01*
X101202269Y-82700215D01*
X101177142Y-82697300D01*
X99087420Y-82697300D01*
X99087394Y-82697302D01*
X99062289Y-82700213D01*
X99062285Y-82700215D01*
X98959512Y-82745593D01*
X98880071Y-82825034D01*
X98834692Y-82927806D01*
X98834692Y-82927808D01*
X98831777Y-82952931D01*
X95470038Y-82952931D01*
X95628273Y-82794695D01*
X95578597Y-82771531D01*
X95358887Y-82712660D01*
X95358876Y-82712658D01*
X95132279Y-82692834D01*
X95132275Y-82692834D01*
X94905677Y-82712658D01*
X94905666Y-82712660D01*
X94685954Y-82771531D01*
X94636279Y-82794695D01*
X88792579Y-82794695D01*
X88850044Y-82655962D01*
X88870682Y-82499200D01*
X88867311Y-82473597D01*
X88860900Y-82424898D01*
X114325418Y-82424898D01*
X114325418Y-82424901D01*
X114346055Y-82581660D01*
X114346056Y-82581662D01*
X114395161Y-82700213D01*
X114406564Y-82727741D01*
X114502818Y-82853182D01*
X114628259Y-82949436D01*
X114774338Y-83009944D01*
X114852719Y-83020263D01*
X114931099Y-83030582D01*
X114931100Y-83030582D01*
X114931101Y-83030582D01*
X114983354Y-83023702D01*
X115087862Y-83009944D01*
X115233941Y-82949436D01*
X115359382Y-82853182D01*
X115455636Y-82727741D01*
X115455943Y-82727000D01*
X120588050Y-82727000D01*
X120749498Y-82888448D01*
X120910946Y-82727000D01*
X120749498Y-82565552D01*
X120588050Y-82727000D01*
X115455943Y-82727000D01*
X115516144Y-82581662D01*
X115536782Y-82424900D01*
X115516144Y-82268138D01*
X115492890Y-82211998D01*
X120194753Y-82211998D01*
X120194753Y-82212001D01*
X120213655Y-82355582D01*
X120224992Y-82382951D01*
X120395945Y-82211999D01*
X120375737Y-82191791D01*
X120647898Y-82191791D01*
X120647898Y-82232209D01*
X120663366Y-82269552D01*
X120691946Y-82298132D01*
X120729289Y-82313600D01*
X120769707Y-82313600D01*
X120807050Y-82298132D01*
X120835630Y-82269552D01*
X120851098Y-82232209D01*
X120851098Y-82212000D01*
X121103050Y-82212000D01*
X121274001Y-82382951D01*
X121274002Y-82382951D01*
X121285340Y-82355579D01*
X121304243Y-82212001D01*
X121304243Y-82211998D01*
X121285340Y-82068421D01*
X121274001Y-82041047D01*
X121103050Y-82212000D01*
X120851098Y-82212000D01*
X120851098Y-82191791D01*
X120835630Y-82154448D01*
X120807050Y-82125868D01*
X120769707Y-82110400D01*
X120729289Y-82110400D01*
X120691946Y-82125868D01*
X120663366Y-82154448D01*
X120647898Y-82191791D01*
X120375737Y-82191791D01*
X120224992Y-82041046D01*
X120213655Y-82068419D01*
X120194753Y-82211998D01*
X115492890Y-82211998D01*
X115455636Y-82122059D01*
X115359382Y-81996618D01*
X115233941Y-81900364D01*
X115217413Y-81893518D01*
X115087862Y-81839856D01*
X115087860Y-81839855D01*
X114931101Y-81819218D01*
X114931099Y-81819218D01*
X114774339Y-81839855D01*
X114774337Y-81839856D01*
X114628260Y-81900363D01*
X114502818Y-81996618D01*
X114406563Y-82122060D01*
X114346056Y-82268137D01*
X114346055Y-82268139D01*
X114325418Y-82424898D01*
X88860900Y-82424898D01*
X88850044Y-82342439D01*
X88850044Y-82342438D01*
X88789536Y-82196359D01*
X88693282Y-82070918D01*
X88567841Y-81974664D01*
X88421762Y-81914156D01*
X88421760Y-81914155D01*
X88265001Y-81893518D01*
X88264999Y-81893518D01*
X88108239Y-81914155D01*
X88108237Y-81914156D01*
X87962160Y-81974663D01*
X87895986Y-82025440D01*
X87830816Y-82050633D01*
X87762371Y-82036594D01*
X87745014Y-82025440D01*
X87715832Y-82003048D01*
X87678841Y-81974664D01*
X87532762Y-81914156D01*
X87532760Y-81914155D01*
X87376001Y-81893518D01*
X87375999Y-81893518D01*
X87219239Y-81914155D01*
X87219237Y-81914156D01*
X87073160Y-81974663D01*
X87006986Y-82025440D01*
X86941816Y-82050633D01*
X86873371Y-82036594D01*
X86856014Y-82025440D01*
X86826832Y-82003048D01*
X86789841Y-81974664D01*
X86643762Y-81914156D01*
X86643760Y-81914155D01*
X86487001Y-81893518D01*
X86486999Y-81893518D01*
X86330239Y-81914155D01*
X86330237Y-81914156D01*
X86184160Y-81974663D01*
X86117986Y-82025440D01*
X86052816Y-82050633D01*
X85984371Y-82036594D01*
X85967014Y-82025440D01*
X85937832Y-82003048D01*
X85900841Y-81974664D01*
X85754762Y-81914156D01*
X85754760Y-81914155D01*
X85598001Y-81893518D01*
X85597999Y-81893518D01*
X85441239Y-81914155D01*
X85441237Y-81914156D01*
X85295160Y-81974663D01*
X85169718Y-82070918D01*
X85073463Y-82196360D01*
X85012956Y-82342437D01*
X85012955Y-82342439D01*
X84992318Y-82499198D01*
X84992318Y-82499201D01*
X85012955Y-82655960D01*
X85012956Y-82655962D01*
X85073464Y-82802043D01*
X85075518Y-82804719D01*
X85076547Y-82807383D01*
X85077528Y-82809081D01*
X85077263Y-82809233D01*
X85100709Y-82869889D01*
X85086666Y-82938334D01*
X85075518Y-82955681D01*
X85073464Y-82958356D01*
X85012956Y-83104437D01*
X85012955Y-83104439D01*
X84992318Y-83261198D01*
X84992318Y-83261201D01*
X85012955Y-83417960D01*
X85012956Y-83417962D01*
X85073464Y-83564043D01*
X85075518Y-83566719D01*
X85076547Y-83569383D01*
X85077528Y-83571081D01*
X85077263Y-83571233D01*
X85100709Y-83631889D01*
X85086666Y-83700334D01*
X85075518Y-83717681D01*
X85073464Y-83720357D01*
X85070942Y-83724726D01*
X85020373Y-83772940D01*
X84951765Y-83786160D01*
X84886901Y-83760189D01*
X84846375Y-83703274D01*
X84840618Y-83678907D01*
X84836844Y-83650238D01*
X84776336Y-83504159D01*
X84680082Y-83378718D01*
X84554641Y-83282464D01*
X84503305Y-83261200D01*
X84408562Y-83221956D01*
X84408560Y-83221955D01*
X84251801Y-83201318D01*
X84251799Y-83201318D01*
X84095039Y-83221955D01*
X84095037Y-83221956D01*
X83948960Y-83282463D01*
X83823518Y-83378718D01*
X83727263Y-83504160D01*
X83666756Y-83650237D01*
X83666755Y-83650239D01*
X83646118Y-83806998D01*
X70500500Y-83806998D01*
X70500500Y-83002866D01*
X70500765Y-82994756D01*
X70503150Y-82958363D01*
X70517075Y-82745902D01*
X70519190Y-82729848D01*
X70567045Y-82489262D01*
X70571243Y-82473597D01*
X70602013Y-82382951D01*
X70650093Y-82241312D01*
X70656291Y-82226347D01*
X70764790Y-82006333D01*
X70772893Y-81992298D01*
X70909182Y-81788327D01*
X70919039Y-81775481D01*
X70996202Y-81687494D01*
X120578544Y-81687494D01*
X120749497Y-81858447D01*
X120920449Y-81687494D01*
X120893079Y-81676157D01*
X120893080Y-81676157D01*
X120749499Y-81657255D01*
X120749497Y-81657255D01*
X120605917Y-81676157D01*
X120578544Y-81687494D01*
X70996202Y-81687494D01*
X71080786Y-81591044D01*
X71092244Y-81579586D01*
X71276681Y-81417839D01*
X71289527Y-81407982D01*
X71493498Y-81271693D01*
X71507533Y-81263590D01*
X71727547Y-81155091D01*
X71742512Y-81148893D01*
X71906762Y-81093137D01*
X71974797Y-81070043D01*
X71990464Y-81065845D01*
X71991701Y-81065599D01*
X72231048Y-81017990D01*
X72247102Y-81015875D01*
X72495957Y-80999565D01*
X72504067Y-80999300D01*
X72573855Y-80999300D01*
X72573994Y-80999291D01*
X75990570Y-80999291D01*
X75990945Y-80999291D01*
X76197641Y-80999671D01*
X76610428Y-80966209D01*
X77019035Y-80898733D01*
X77420664Y-80797705D01*
X77812565Y-80663817D01*
X78192054Y-80497986D01*
X78556534Y-80301346D01*
X78903508Y-80075246D01*
X79230601Y-79821232D01*
X79535572Y-79541045D01*
X79816334Y-79236603D01*
X80070964Y-78909990D01*
X80297718Y-78563442D01*
X80495044Y-78199334D01*
X80661591Y-77820158D01*
X80795912Y-77429400D01*
X89642155Y-77429400D01*
X89662659Y-77598269D01*
X89662660Y-77598274D01*
X89722982Y-77757331D01*
X89766346Y-77820153D01*
X89819617Y-77897329D01*
X89925305Y-77990960D01*
X89946950Y-78010136D01*
X90097573Y-78089189D01*
X90097575Y-78089190D01*
X90262744Y-78129900D01*
X90432856Y-78129900D01*
X90598025Y-78089190D01*
X90677492Y-78047481D01*
X90748649Y-78010136D01*
X90748650Y-78010134D01*
X90748652Y-78010134D01*
X90875983Y-77897329D01*
X90972618Y-77757330D01*
X91032940Y-77598272D01*
X91053445Y-77429400D01*
X91032940Y-77260528D01*
X90972618Y-77101470D01*
X90967872Y-77094595D01*
X90920418Y-77025846D01*
X90875983Y-76961471D01*
X90748652Y-76848666D01*
X90748649Y-76848663D01*
X90598026Y-76769610D01*
X90432856Y-76728900D01*
X90262744Y-76728900D01*
X90097573Y-76769610D01*
X89946950Y-76848663D01*
X89819616Y-76961472D01*
X89722982Y-77101468D01*
X89662660Y-77260525D01*
X89662659Y-77260530D01*
X89642155Y-77429400D01*
X80795912Y-77429400D01*
X80796218Y-77428510D01*
X80898003Y-77027072D01*
X80966249Y-76618593D01*
X80990154Y-76330452D01*
X81000488Y-76205884D01*
X81000489Y-76205875D01*
X81000493Y-76116332D01*
X81000495Y-76073979D01*
X81000500Y-76073927D01*
X81000500Y-73132311D01*
X81893300Y-73132311D01*
X81893300Y-73374888D01*
X81924961Y-73615385D01*
X81987747Y-73849704D01*
X82074953Y-74060238D01*
X82080576Y-74073812D01*
X82201864Y-74283889D01*
X82201866Y-74283892D01*
X82201867Y-74283893D01*
X82349533Y-74476336D01*
X82349539Y-74476343D01*
X82521056Y-74647860D01*
X82521062Y-74647865D01*
X82713511Y-74795536D01*
X82923588Y-74916824D01*
X83147700Y-75009654D01*
X83382011Y-75072438D01*
X83562386Y-75096184D01*
X83622511Y-75104100D01*
X83622512Y-75104100D01*
X83865089Y-75104100D01*
X83913188Y-75097767D01*
X84105589Y-75072438D01*
X84339900Y-75009654D01*
X84564012Y-74916824D01*
X84774089Y-74795536D01*
X84966538Y-74647865D01*
X85138065Y-74476338D01*
X85285736Y-74283889D01*
X85407024Y-74073812D01*
X85499854Y-73849700D01*
X85562638Y-73615389D01*
X85594300Y-73374888D01*
X85594300Y-73132312D01*
X85562638Y-72891811D01*
X85499854Y-72657500D01*
X85407024Y-72433388D01*
X85305156Y-72256947D01*
X92410000Y-72256947D01*
X92410000Y-72900000D01*
X93371803Y-72900000D01*
X93306740Y-72997374D01*
X93242665Y-73152064D01*
X93210000Y-73316282D01*
X93210000Y-73483718D01*
X93242665Y-73647936D01*
X93306740Y-73802626D01*
X93371803Y-73900000D01*
X92410001Y-73900000D01*
X92410001Y-74543052D01*
X92420613Y-74631443D01*
X92420615Y-74631447D01*
X92476078Y-74772091D01*
X92476079Y-74772093D01*
X92567435Y-74892564D01*
X92687906Y-74983920D01*
X92687908Y-74983921D01*
X92828554Y-75039385D01*
X92916947Y-75049999D01*
X93559999Y-75049999D01*
X93560000Y-75049998D01*
X93560000Y-74088197D01*
X93657374Y-74153260D01*
X93812064Y-74217335D01*
X93976282Y-74250000D01*
X94143718Y-74250000D01*
X94307936Y-74217335D01*
X94462626Y-74153260D01*
X94560000Y-74088197D01*
X94560000Y-75049999D01*
X95203053Y-75049999D01*
X95291443Y-75039386D01*
X95291447Y-75039384D01*
X95432091Y-74983921D01*
X95432093Y-74983920D01*
X95552564Y-74892564D01*
X95643920Y-74772093D01*
X95643921Y-74772091D01*
X95699385Y-74631445D01*
X95710000Y-74543052D01*
X95710000Y-73900000D01*
X94748197Y-73900000D01*
X94813260Y-73802626D01*
X94877335Y-73647936D01*
X94910000Y-73483718D01*
X94910000Y-73400000D01*
X96364396Y-73400000D01*
X96384778Y-73658990D01*
X96445427Y-73911610D01*
X96544843Y-74151623D01*
X96544845Y-74151627D01*
X96544846Y-74151628D01*
X96680588Y-74373140D01*
X96849311Y-74570689D01*
X97046860Y-74739412D01*
X97268372Y-74875154D01*
X97268374Y-74875154D01*
X97268376Y-74875156D01*
X97310403Y-74892564D01*
X97508390Y-74974573D01*
X97761006Y-75035221D01*
X98020000Y-75055604D01*
X98278994Y-75035221D01*
X98531610Y-74974573D01*
X98771628Y-74875154D01*
X98993140Y-74739412D01*
X99190689Y-74570689D01*
X99359412Y-74373140D01*
X99495154Y-74151628D01*
X99594573Y-73911610D01*
X99655221Y-73658994D01*
X99675604Y-73400000D01*
X100324396Y-73400000D01*
X100344778Y-73658990D01*
X100405427Y-73911610D01*
X100504843Y-74151623D01*
X100504845Y-74151627D01*
X100504846Y-74151628D01*
X100640588Y-74373140D01*
X100809311Y-74570689D01*
X101006860Y-74739412D01*
X101228372Y-74875154D01*
X101228374Y-74875154D01*
X101228376Y-74875156D01*
X101270403Y-74892564D01*
X101468390Y-74974573D01*
X101721006Y-75035221D01*
X101980000Y-75055604D01*
X102238994Y-75035221D01*
X102491610Y-74974573D01*
X102731628Y-74875154D01*
X102953140Y-74739412D01*
X103150689Y-74570689D01*
X103319412Y-74373140D01*
X103455154Y-74151628D01*
X103554573Y-73911610D01*
X103615221Y-73658994D01*
X103635604Y-73400000D01*
X104284396Y-73400000D01*
X104304778Y-73658990D01*
X104365427Y-73911610D01*
X104464843Y-74151623D01*
X104464845Y-74151627D01*
X104464846Y-74151628D01*
X104600588Y-74373140D01*
X104769311Y-74570689D01*
X104966860Y-74739412D01*
X105188372Y-74875154D01*
X105188374Y-74875154D01*
X105188376Y-74875156D01*
X105230403Y-74892564D01*
X105428390Y-74974573D01*
X105681006Y-75035221D01*
X105940000Y-75055604D01*
X106198994Y-75035221D01*
X106451610Y-74974573D01*
X106691628Y-74875154D01*
X106913140Y-74739412D01*
X107110689Y-74570689D01*
X107211110Y-74453111D01*
X114100500Y-74453111D01*
X114100500Y-74695688D01*
X114132161Y-74936185D01*
X114194947Y-75170504D01*
X114287773Y-75394605D01*
X114287776Y-75394612D01*
X114409064Y-75604689D01*
X114409066Y-75604692D01*
X114409067Y-75604693D01*
X114556733Y-75797136D01*
X114556739Y-75797143D01*
X114728256Y-75968660D01*
X114728262Y-75968665D01*
X114920711Y-76116336D01*
X115130788Y-76237624D01*
X115354900Y-76330454D01*
X115589211Y-76393238D01*
X115769586Y-76416984D01*
X115829711Y-76424900D01*
X115829712Y-76424900D01*
X116072289Y-76424900D01*
X116120388Y-76418567D01*
X116312789Y-76393238D01*
X116547100Y-76330454D01*
X116771212Y-76237624D01*
X116981289Y-76116336D01*
X117173738Y-75968665D01*
X117345265Y-75797138D01*
X117492936Y-75604689D01*
X117614224Y-75394612D01*
X117707054Y-75170500D01*
X117769838Y-74936189D01*
X117801500Y-74695688D01*
X117801500Y-74453112D01*
X117769838Y-74212611D01*
X117707054Y-73978300D01*
X117614224Y-73754188D01*
X117492936Y-73544111D01*
X117345265Y-73351662D01*
X117345260Y-73351656D01*
X117173743Y-73180139D01*
X117173736Y-73180133D01*
X116981293Y-73032467D01*
X116981292Y-73032466D01*
X116981289Y-73032464D01*
X116771212Y-72911176D01*
X116716202Y-72888390D01*
X116547104Y-72818347D01*
X116312785Y-72755561D01*
X116072289Y-72723900D01*
X116072288Y-72723900D01*
X115829712Y-72723900D01*
X115829711Y-72723900D01*
X115589214Y-72755561D01*
X115354895Y-72818347D01*
X115130794Y-72911173D01*
X115130785Y-72911177D01*
X114920706Y-73032467D01*
X114728263Y-73180133D01*
X114728256Y-73180139D01*
X114556739Y-73351656D01*
X114556733Y-73351663D01*
X114409067Y-73544106D01*
X114287777Y-73754185D01*
X114287773Y-73754194D01*
X114194947Y-73978295D01*
X114132161Y-74212614D01*
X114100500Y-74453111D01*
X107211110Y-74453111D01*
X107279412Y-74373140D01*
X107415154Y-74151628D01*
X107514573Y-73911610D01*
X107575221Y-73658994D01*
X107595604Y-73400000D01*
X107575221Y-73141006D01*
X107514573Y-72888390D01*
X107415154Y-72648372D01*
X107279412Y-72426860D01*
X107110689Y-72229311D01*
X106913140Y-72060588D01*
X106691628Y-71924846D01*
X106691627Y-71924845D01*
X106691623Y-71924843D01*
X106525627Y-71856086D01*
X106451610Y-71825427D01*
X106451611Y-71825427D01*
X106313921Y-71792370D01*
X106198994Y-71764779D01*
X106198992Y-71764778D01*
X106198991Y-71764778D01*
X105940000Y-71744396D01*
X105681009Y-71764778D01*
X105428389Y-71825427D01*
X105188376Y-71924843D01*
X104966859Y-72060588D01*
X104769311Y-72229311D01*
X104600588Y-72426859D01*
X104464843Y-72648376D01*
X104365427Y-72888389D01*
X104304778Y-73141009D01*
X104284396Y-73400000D01*
X103635604Y-73400000D01*
X103615221Y-73141006D01*
X103554573Y-72888390D01*
X103455154Y-72648372D01*
X103319412Y-72426860D01*
X103150689Y-72229311D01*
X102953140Y-72060588D01*
X102731628Y-71924846D01*
X102731627Y-71924845D01*
X102731623Y-71924843D01*
X102565627Y-71856086D01*
X102491610Y-71825427D01*
X102491611Y-71825427D01*
X102353921Y-71792370D01*
X102238994Y-71764779D01*
X102238992Y-71764778D01*
X102238991Y-71764778D01*
X101980000Y-71744396D01*
X101721009Y-71764778D01*
X101468389Y-71825427D01*
X101228376Y-71924843D01*
X101006859Y-72060588D01*
X100809311Y-72229311D01*
X100640588Y-72426859D01*
X100504843Y-72648376D01*
X100405427Y-72888389D01*
X100344778Y-73141009D01*
X100324396Y-73400000D01*
X99675604Y-73400000D01*
X99655221Y-73141006D01*
X99594573Y-72888390D01*
X99495154Y-72648372D01*
X99359412Y-72426860D01*
X99190689Y-72229311D01*
X98993140Y-72060588D01*
X98771628Y-71924846D01*
X98771627Y-71924845D01*
X98771623Y-71924843D01*
X98605627Y-71856086D01*
X98531610Y-71825427D01*
X98531611Y-71825427D01*
X98393921Y-71792370D01*
X98278994Y-71764779D01*
X98278992Y-71764778D01*
X98278991Y-71764778D01*
X98020000Y-71744396D01*
X97761009Y-71764778D01*
X97508389Y-71825427D01*
X97268376Y-71924843D01*
X97046859Y-72060588D01*
X96849311Y-72229311D01*
X96680588Y-72426859D01*
X96544843Y-72648376D01*
X96445427Y-72888389D01*
X96384778Y-73141009D01*
X96364396Y-73400000D01*
X94910000Y-73400000D01*
X94910000Y-73316282D01*
X94877335Y-73152064D01*
X94813260Y-72997374D01*
X94748197Y-72900000D01*
X95709999Y-72900000D01*
X95709999Y-72256947D01*
X95699386Y-72168556D01*
X95699384Y-72168552D01*
X95643921Y-72027908D01*
X95643920Y-72027906D01*
X95552564Y-71907435D01*
X95432093Y-71816079D01*
X95432091Y-71816078D01*
X95291445Y-71760614D01*
X95203053Y-71750000D01*
X94560000Y-71750000D01*
X94560000Y-72711802D01*
X94462626Y-72646740D01*
X94307936Y-72582665D01*
X94143718Y-72550000D01*
X93976282Y-72550000D01*
X93812064Y-72582665D01*
X93657374Y-72646740D01*
X93560000Y-72711802D01*
X93560000Y-71750000D01*
X92916947Y-71750000D01*
X92828556Y-71760613D01*
X92828552Y-71760615D01*
X92687908Y-71816078D01*
X92687906Y-71816079D01*
X92567435Y-71907435D01*
X92476079Y-72027906D01*
X92476078Y-72027908D01*
X92420614Y-72168554D01*
X92410000Y-72256947D01*
X85305156Y-72256947D01*
X85285736Y-72223311D01*
X85138065Y-72030862D01*
X85138060Y-72030856D01*
X84966543Y-71859339D01*
X84966536Y-71859333D01*
X84774093Y-71711667D01*
X84774092Y-71711666D01*
X84774089Y-71711664D01*
X84564012Y-71590376D01*
X84564005Y-71590373D01*
X84339904Y-71497547D01*
X84105585Y-71434761D01*
X83865089Y-71403100D01*
X83865088Y-71403100D01*
X83622512Y-71403100D01*
X83622511Y-71403100D01*
X83382014Y-71434761D01*
X83147695Y-71497547D01*
X82923594Y-71590373D01*
X82923585Y-71590377D01*
X82713506Y-71711667D01*
X82521063Y-71859333D01*
X82521056Y-71859339D01*
X82349539Y-72030856D01*
X82349533Y-72030863D01*
X82201867Y-72223306D01*
X82080577Y-72433385D01*
X82080573Y-72433394D01*
X81987747Y-72657495D01*
X81924961Y-72891814D01*
X81893300Y-73132311D01*
X81000500Y-73132311D01*
X81000500Y-72502866D01*
X81000765Y-72494756D01*
X81004787Y-72433388D01*
X81017075Y-72245902D01*
X81019190Y-72229848D01*
X81067045Y-71989262D01*
X81071243Y-71973597D01*
X81124713Y-71816079D01*
X81150093Y-71741312D01*
X81156291Y-71726347D01*
X81264790Y-71506333D01*
X81272893Y-71492298D01*
X81409182Y-71288327D01*
X81419039Y-71275481D01*
X81580786Y-71091044D01*
X81592244Y-71079586D01*
X81776681Y-70917839D01*
X81789527Y-70907982D01*
X81993498Y-70771693D01*
X82007533Y-70763590D01*
X82227547Y-70655091D01*
X82242512Y-70648893D01*
X82406762Y-70593137D01*
X82474797Y-70570043D01*
X82490464Y-70565845D01*
X82491701Y-70565599D01*
X82731048Y-70517990D01*
X82747102Y-70515875D01*
X82995957Y-70499565D01*
X83004067Y-70499300D01*
X83073855Y-70499300D01*
X83073994Y-70499291D01*
X93344108Y-70499291D01*
X106524108Y-70499291D01*
X116934108Y-70499291D01*
X116995954Y-70499291D01*
X117004050Y-70499556D01*
G37*
%TD.AperFunction*%
%TD*%
M02*
