%TF.GenerationSoftware,KiCad,Pcbnew,8.0.6*%
%TF.CreationDate,2025-12-29T11:58:40+02:00*%
%TF.ProjectId,TMCM_1260_alternative,544d434d-5f31-4323-9630-5f616c746572,rev?*%
%TF.SameCoordinates,Original*%
%TF.FileFunction,Copper,L4,Bot*%
%TF.FilePolarity,Positive*%
%FSLAX46Y46*%
G04 Gerber Fmt 4.6, Leading zero omitted, Abs format (unit mm)*
G04 Created by KiCad (PCBNEW 8.0.6) date 2025-12-29 11:58:40*
%MOMM*%
%LPD*%
G01*
G04 APERTURE LIST*
G04 Aperture macros list*
%AMRoundRect*
0 Rectangle with rounded corners*
0 $1 Rounding radius*
0 $2 $3 $4 $5 $6 $7 $8 $9 X,Y pos of 4 corners*
0 Add a 4 corners polygon primitive as box body*
4,1,4,$2,$3,$4,$5,$6,$7,$8,$9,$2,$3,0*
0 Add four circle primitives for the rounded corners*
1,1,$1+$1,$2,$3*
1,1,$1+$1,$4,$5*
1,1,$1+$1,$6,$7*
1,1,$1+$1,$8,$9*
0 Add four rect primitives between the rounded corners*
20,1,$1+$1,$2,$3,$4,$5,0*
20,1,$1+$1,$4,$5,$6,$7,0*
20,1,$1+$1,$6,$7,$8,$9,0*
20,1,$1+$1,$8,$9,$2,$3,0*%
G04 Aperture macros list end*
%TA.AperFunction,Conductor*%
%ADD10C,0.200000*%
%TD*%
%TA.AperFunction,ComponentPad*%
%ADD11R,2.000000X2.000000*%
%TD*%
%TA.AperFunction,ComponentPad*%
%ADD12C,2.000000*%
%TD*%
%TA.AperFunction,HeatsinkPad*%
%ADD13O,1.100000X1.800000*%
%TD*%
%TA.AperFunction,HeatsinkPad*%
%ADD14O,1.100000X2.200000*%
%TD*%
%TA.AperFunction,ComponentPad*%
%ADD15RoundRect,0.250001X-1.099999X-1.099999X1.099999X-1.099999X1.099999X1.099999X-1.099999X1.099999X0*%
%TD*%
%TA.AperFunction,ComponentPad*%
%ADD16C,2.700000*%
%TD*%
%TA.AperFunction,ComponentPad*%
%ADD17RoundRect,0.250000X0.350000X0.625000X-0.350000X0.625000X-0.350000X-0.625000X0.350000X-0.625000X0*%
%TD*%
%TA.AperFunction,ComponentPad*%
%ADD18O,1.200000X1.750000*%
%TD*%
%TA.AperFunction,ComponentPad*%
%ADD19O,1.950000X1.700000*%
%TD*%
%TA.AperFunction,ComponentPad*%
%ADD20RoundRect,0.250000X0.725000X-0.600000X0.725000X0.600000X-0.725000X0.600000X-0.725000X-0.600000X0*%
%TD*%
%TA.AperFunction,ComponentPad*%
%ADD21C,0.499999*%
%TD*%
%TA.AperFunction,ComponentPad*%
%ADD22RoundRect,0.250000X-0.625000X0.350000X-0.625000X-0.350000X0.625000X-0.350000X0.625000X0.350000X0*%
%TD*%
%TA.AperFunction,ComponentPad*%
%ADD23O,1.750000X1.200000*%
%TD*%
%TA.AperFunction,ComponentPad*%
%ADD24R,1.700000X1.700000*%
%TD*%
%TA.AperFunction,ComponentPad*%
%ADD25O,1.700000X1.700000*%
%TD*%
%TA.AperFunction,SMDPad,CuDef*%
%ADD26RoundRect,0.200000X-0.200000X-0.275000X0.200000X-0.275000X0.200000X0.275000X-0.200000X0.275000X0*%
%TD*%
%TA.AperFunction,SMDPad,CuDef*%
%ADD27RoundRect,0.200000X0.200000X0.275000X-0.200000X0.275000X-0.200000X-0.275000X0.200000X-0.275000X0*%
%TD*%
%TA.AperFunction,SMDPad,CuDef*%
%ADD28R,1.308100X0.355600*%
%TD*%
%TA.AperFunction,SMDPad,CuDef*%
%ADD29RoundRect,0.237500X-0.237500X0.300000X-0.237500X-0.300000X0.237500X-0.300000X0.237500X0.300000X0*%
%TD*%
%TA.AperFunction,SMDPad,CuDef*%
%ADD30RoundRect,0.250000X-0.312500X-0.625000X0.312500X-0.625000X0.312500X0.625000X-0.312500X0.625000X0*%
%TD*%
%TA.AperFunction,SMDPad,CuDef*%
%ADD31RoundRect,0.225000X-0.225000X-0.250000X0.225000X-0.250000X0.225000X0.250000X-0.225000X0.250000X0*%
%TD*%
%TA.AperFunction,SMDPad,CuDef*%
%ADD32RoundRect,0.175000X0.325000X-0.175000X0.325000X0.175000X-0.325000X0.175000X-0.325000X-0.175000X0*%
%TD*%
%TA.AperFunction,SMDPad,CuDef*%
%ADD33RoundRect,0.150000X0.150000X-0.200000X0.150000X0.200000X-0.150000X0.200000X-0.150000X-0.200000X0*%
%TD*%
%TA.AperFunction,HeatsinkPad*%
%ADD34R,2.600000X2.600000*%
%TD*%
%TA.AperFunction,SMDPad,CuDef*%
%ADD35RoundRect,0.062500X-0.350000X0.062500X-0.350000X-0.062500X0.350000X-0.062500X0.350000X0.062500X0*%
%TD*%
%TA.AperFunction,SMDPad,CuDef*%
%ADD36RoundRect,0.062500X-0.062500X0.350000X-0.062500X-0.350000X0.062500X-0.350000X0.062500X0.350000X0*%
%TD*%
%TA.AperFunction,SMDPad,CuDef*%
%ADD37RoundRect,0.225000X-0.250000X0.225000X-0.250000X-0.225000X0.250000X-0.225000X0.250000X0.225000X0*%
%TD*%
%TA.AperFunction,SMDPad,CuDef*%
%ADD38RoundRect,0.237500X0.300000X0.237500X-0.300000X0.237500X-0.300000X-0.237500X0.300000X-0.237500X0*%
%TD*%
%TA.AperFunction,ViaPad*%
%ADD39C,0.600000*%
%TD*%
%TA.AperFunction,ViaPad*%
%ADD40C,0.800000*%
%TD*%
%TA.AperFunction,Conductor*%
%ADD41C,0.250000*%
%TD*%
%TA.AperFunction,Conductor*%
%ADD42C,0.500000*%
%TD*%
%TA.AperFunction,Conductor*%
%ADD43C,0.300000*%
%TD*%
%TA.AperFunction,Conductor*%
%ADD44C,0.400000*%
%TD*%
G04 APERTURE END LIST*
%TO.N,Net-(Q3-S2)*%
D10*
X85140800Y-80695800D02*
X90303350Y-80695800D01*
X90303350Y-95453200D01*
X85140800Y-95453200D01*
X85140800Y-80695800D01*
%TA.AperFunction,Conductor*%
G36*
X85140800Y-80695800D02*
G01*
X90303350Y-80695800D01*
X90303350Y-95453200D01*
X85140800Y-95453200D01*
X85140800Y-80695800D01*
G37*
%TD.AperFunction*%
X86245700Y-91643200D02*
X92557600Y-91643200D01*
X92557600Y-91694000D01*
X86245700Y-91694000D01*
X86245700Y-91643200D01*
%TA.AperFunction,Conductor*%
G36*
X86245700Y-91643200D02*
G01*
X92557600Y-91643200D01*
X92557600Y-91694000D01*
X86245700Y-91694000D01*
X86245700Y-91643200D01*
G37*
%TD.AperFunction*%
X83185000Y-80695800D02*
X85140800Y-80695800D01*
X85140800Y-95453200D01*
X83185000Y-95453200D01*
X83185000Y-80695800D01*
%TA.AperFunction,Conductor*%
G36*
X83185000Y-80695800D02*
G01*
X85140800Y-80695800D01*
X85140800Y-95453200D01*
X83185000Y-95453200D01*
X83185000Y-80695800D01*
G37*
%TD.AperFunction*%
%TO.N,Net-(Q1-S2)*%
X83321525Y-101854000D02*
X85277325Y-101854000D01*
X85277325Y-115519200D01*
X83321525Y-115519200D01*
X83321525Y-101854000D01*
%TA.AperFunction,Conductor*%
G36*
X83321525Y-101854000D02*
G01*
X85277325Y-101854000D01*
X85277325Y-115519200D01*
X83321525Y-115519200D01*
X83321525Y-101854000D01*
G37*
%TD.AperFunction*%
X89157175Y-114376200D02*
X98498025Y-114376200D01*
X98498025Y-114477800D01*
X89157175Y-114477800D01*
X89157175Y-114376200D01*
%TA.AperFunction,Conductor*%
G36*
X89157175Y-114376200D02*
G01*
X98498025Y-114376200D01*
X98498025Y-114477800D01*
X89157175Y-114477800D01*
X89157175Y-114376200D01*
G37*
%TD.AperFunction*%
X85277325Y-101854000D02*
X89119075Y-101854000D01*
X89119075Y-115519200D01*
X85277325Y-115519200D01*
X85277325Y-101854000D01*
%TA.AperFunction,Conductor*%
G36*
X85277325Y-101854000D02*
G01*
X89119075Y-101854000D01*
X89119075Y-115519200D01*
X85277325Y-115519200D01*
X85277325Y-101854000D01*
G37*
%TD.AperFunction*%
%TD*%
D11*
%TO.P,C24,1*%
%TO.N,12-36V*%
X93425000Y-119583200D03*
D12*
%TO.P,C24,2*%
%TO.N,GND*%
X98425000Y-119583200D03*
%TD*%
D13*
%TO.P,J5,6,Shield*%
%TO.N,GND*%
X126771400Y-90258200D03*
D14*
X128921400Y-87458200D03*
D13*
X126771400Y-84658200D03*
%TD*%
D15*
%TO.P,J4,1,Pin_1*%
%TO.N,GND*%
X94060000Y-73400000D03*
D16*
%TO.P,J4,2,Pin_2*%
%TO.N,12-36V*%
X98020000Y-73400000D03*
%TO.P,J4,3,Pin_3*%
X101980000Y-73400000D03*
%TO.P,J4,4,Pin_4*%
%TO.N,/Vlogic*%
X105940000Y-73400000D03*
%TD*%
D17*
%TO.P,J3,1,Pin_1*%
%TO.N,GND*%
X107000000Y-128248000D03*
D18*
%TO.P,J3,2,Pin_2*%
%TO.N,Out_1*%
X105000000Y-128248000D03*
%TO.P,J3,3,Pin_3*%
%TO.N,Out_2*%
X103000000Y-128248000D03*
%TO.P,J3,4,Pin_4*%
%TO.N,/IN2{slash}ENC_B*%
X101000000Y-128248000D03*
%TO.P,J3,5,Pin_5*%
%TO.N,/STOP_L{slash}STEP*%
X99000000Y-128248000D03*
%TO.P,J3,6,Pin_6*%
%TO.N,GND*%
X97000000Y-128248000D03*
%TO.P,J3,7,Pin_7*%
%TO.N,5VOUT*%
X95000000Y-128248000D03*
%TO.P,J3,8,Pin_8*%
X93000000Y-128248000D03*
%TD*%
D19*
%TO.P,J1,4,Pin_4*%
%TO.N,BMA2*%
X71690500Y-95554000D03*
%TO.P,J1,3,Pin_3*%
%TO.N,BMA1*%
X71690500Y-98054000D03*
%TO.P,J1,2,Pin_2*%
%TO.N,BMB2*%
X71690500Y-100554000D03*
D20*
%TO.P,J1,1,Pin_1*%
%TO.N,BMB1*%
X71690500Y-103054000D03*
%TD*%
D21*
%TO.P,U1,PAD*%
%TO.N,GND*%
X120749498Y-84272000D03*
X120749498Y-83242000D03*
X120749498Y-82212000D03*
%TD*%
D22*
%TO.P,J2,1,Pin_1*%
%TO.N,GND*%
X128250000Y-96000000D03*
D23*
%TO.P,J2,2,Pin_2*%
%TO.N,unconnected-(J2-Pin_2-Pad2)*%
X128250000Y-98000000D03*
%TO.P,J2,3,Pin_3*%
%TO.N,unconnected-(J2-Pin_3-Pad3)*%
X128250000Y-100000000D03*
%TO.P,J2,4,Pin_4*%
%TO.N,/CANH*%
X128250000Y-102000000D03*
%TO.P,J2,5,Pin_5*%
%TO.N,/CANL*%
X128250000Y-104000000D03*
%TD*%
D11*
%TO.P,C22,1*%
%TO.N,12-36V*%
X100132277Y-83997800D03*
D12*
%TO.P,C22,2*%
%TO.N,GND*%
X95132277Y-83997800D03*
%TD*%
D24*
%TO.P,J7,1,Pin_1*%
%TO.N,+3V3*%
X117602000Y-122936000D03*
D25*
%TO.P,J7,2,Pin_2*%
%TO.N,/SWCLK*%
X115062000Y-122936000D03*
%TO.P,J7,3,Pin_3*%
%TO.N,GND*%
X112522000Y-122936000D03*
%TO.P,J7,4,Pin_4*%
%TO.N,/SWDIO*%
X109982000Y-122936000D03*
%TO.P,J7,5,Pin_5*%
%TO.N,/NRST*%
X107442000Y-122936000D03*
%TD*%
D11*
%TO.P,C23,1*%
%TO.N,12-36V*%
X105765600Y-83997800D03*
D12*
%TO.P,C23,2*%
%TO.N,GND*%
X110765600Y-83997800D03*
%TD*%
D26*
%TO.P,R22,1*%
%TO.N,Net-(Q3-S2)*%
X92520000Y-91694000D03*
%TO.P,R22,2*%
%TO.N,SRAH*%
X94170000Y-91694000D03*
%TD*%
D27*
%TO.P,R40,1*%
%TO.N,Net-(U7-VBUS)*%
X126148600Y-92176600D03*
%TO.P,R40,2*%
%TO.N,Net-(J5-VBUS)*%
X124498600Y-92176600D03*
%TD*%
D28*
%TO.P,U5,1,CSn*%
%TO.N,SPI2_NSS*%
X102901750Y-98048790D03*
%TO.P,U5,2,CLK*%
%TO.N,SPI2_SCK*%
X102901750Y-98698791D03*
%TO.P,U5,3,MISO*%
%TO.N,SPI2_MISO*%
X102901750Y-99348792D03*
%TO.P,U5,4,MOSI*%
%TO.N,SPI2_MOSI*%
X102901750Y-99998791D03*
%TO.P,U5,5,TEST*%
%TO.N,GND*%
X102901750Y-100648790D03*
%TO.P,U5,6,B*%
%TO.N,unconnected-(U5-B-Pad6)*%
X102901750Y-101298791D03*
%TO.P,U5,7,A*%
%TO.N,unconnected-(U5-A-Pad7)*%
X102901750Y-101948790D03*
%TO.P,U5,8,W/PWM*%
%TO.N,unconnected-(U5-W{slash}PWM-Pad8)*%
X97097850Y-101948792D03*
%TO.P,U5,9,V*%
%TO.N,unconnected-(U5-V-Pad9)*%
X97097850Y-101298791D03*
%TO.P,U5,10,U*%
%TO.N,unconnected-(U5-U-Pad10)*%
X97097850Y-100648792D03*
%TO.P,U5,11,VDD*%
%TO.N,+3V3*%
X97097850Y-99998791D03*
%TO.P,U5,12,VDD3V*%
X97097850Y-99348792D03*
%TO.P,U5,13,GND*%
%TO.N,GND*%
X97097850Y-98698791D03*
%TO.P,U5,14,I/PWM*%
%TO.N,unconnected-(U5-I{slash}PWM-Pad14)*%
X97097850Y-98048792D03*
%TD*%
D29*
%TO.P,C40,1*%
%TO.N,GND*%
X123266200Y-88545500D03*
%TO.P,C40,2*%
%TO.N,Net-(J5-VBUS)*%
X123266200Y-90270500D03*
%TD*%
D30*
%TO.P,R7,1*%
%TO.N,Net-(Q1-S2)*%
X88631300Y-108229400D03*
%TO.P,R7,2*%
%TO.N,GND*%
X91556300Y-108229400D03*
%TD*%
D26*
%TO.P,R16,1*%
%TO.N,Net-(Q1-S2)*%
X98641400Y-114452400D03*
%TO.P,R16,2*%
%TO.N,SRBH*%
X100291400Y-114452400D03*
%TD*%
D29*
%TO.P,C41,1*%
%TO.N,GND*%
X124739400Y-88544400D03*
%TO.P,C41,2*%
%TO.N,Net-(J5-VBUS)*%
X124739400Y-90269400D03*
%TD*%
D27*
%TO.P,R41,1*%
%TO.N,GND*%
X129171200Y-92176600D03*
%TO.P,R41,2*%
%TO.N,Net-(U7-VBUS)*%
X127521200Y-92176600D03*
%TD*%
D31*
%TO.P,C36,1*%
%TO.N,GND*%
X97421400Y-96316800D03*
%TO.P,C36,2*%
%TO.N,+3V3*%
X98971400Y-96316800D03*
%TD*%
D32*
%TO.P,D8,1,A*%
%TO.N,GND*%
X123930600Y-86410000D03*
D33*
%TO.P,D8,2,K*%
%TO.N,/D+*%
X122230600Y-86410000D03*
%TO.P,D8,3,K*%
%TO.N,/D-*%
X122230600Y-84410000D03*
%TO.P,D8,4,K*%
%TO.N,Net-(J5-VBUS)*%
X124130600Y-84410000D03*
%TD*%
D34*
%TO.P,U7,25,GND*%
%TO.N,GND*%
X121060400Y-93707700D03*
D35*
%TO.P,U7,24,~{DCD}*%
%TO.N,unconnected-(U7-~{DCD}-Pad24)*%
X119122900Y-92457700D03*
%TO.P,U7,23,~{DTR}*%
%TO.N,unconnected-(U7-~{DTR}-Pad23)*%
X119122900Y-92957700D03*
%TO.P,U7,22,~{DSR}*%
%TO.N,unconnected-(U7-~{DSR}-Pad22)*%
X119122900Y-93457700D03*
%TO.P,U7,21,TXD*%
%TO.N,UART_RX*%
X119122900Y-93957700D03*
%TO.P,U7,20,RXD*%
%TO.N,UART_TX*%
X119122900Y-94457700D03*
%TO.P,U7,19,~{RTS}*%
%TO.N,unconnected-(U7-~{RTS}-Pad19)*%
X119122900Y-94957700D03*
D36*
%TO.P,U7,18,~{CTS}*%
%TO.N,unconnected-(U7-~{CTS}-Pad18)*%
X119810400Y-95645200D03*
%TO.P,U7,17,SUSPEND*%
%TO.N,unconnected-(U7-SUSPEND-Pad17)*%
X120310400Y-95645200D03*
%TO.P,U7,16,NC*%
%TO.N,unconnected-(U7-NC-Pad16)*%
X120810400Y-95645200D03*
%TO.P,U7,15,~{SUSPEND}*%
%TO.N,unconnected-(U7-~{SUSPEND}-Pad15)*%
X121310400Y-95645200D03*
%TO.P,U7,14,~{TXT}/GPIO.0*%
%TO.N,unconnected-(U7-~{TXT}{slash}GPIO.0-Pad14)*%
X121810400Y-95645200D03*
%TO.P,U7,13,~{RXT}/GPIO.1*%
%TO.N,unconnected-(U7-~{RXT}{slash}GPIO.1-Pad13)*%
X122310400Y-95645200D03*
D35*
%TO.P,U7,12,RS485/GPIO.2*%
%TO.N,unconnected-(U7-RS485{slash}GPIO.2-Pad12)*%
X122997900Y-94957700D03*
%TO.P,U7,11,~{WAKEUP}/GPIO.3*%
%TO.N,unconnected-(U7-~{WAKEUP}{slash}GPIO.3-Pad11)*%
X122997900Y-94457700D03*
%TO.P,U7,10,NC*%
%TO.N,unconnected-(U7-NC-Pad10)*%
X122997900Y-93957700D03*
%TO.P,U7,9,~{RST}*%
%TO.N,Net-(U7-~{RST})*%
X122997900Y-93457700D03*
%TO.P,U7,8,VBUS*%
%TO.N,Net-(U7-VBUS)*%
X122997900Y-92957700D03*
%TO.P,U7,7,VREGIN*%
%TO.N,Net-(J5-VBUS)*%
X122997900Y-92457700D03*
D36*
%TO.P,U7,6,VDD*%
%TO.N,+3V3*%
X122310400Y-91770200D03*
%TO.P,U7,5,VIO*%
X121810400Y-91770200D03*
%TO.P,U7,4,D-*%
%TO.N,/D-*%
X121310400Y-91770200D03*
%TO.P,U7,3,D+*%
%TO.N,/D+*%
X120810400Y-91770200D03*
%TO.P,U7,2,GND*%
%TO.N,GND*%
X120310400Y-91770200D03*
%TO.P,U7,1,~{RI}/CLK*%
%TO.N,unconnected-(U7-~{RI}{slash}CLK-Pad1)*%
X119810400Y-91770200D03*
%TD*%
D26*
%TO.P,R23,1*%
%TO.N,GND*%
X92570800Y-90220800D03*
%TO.P,R23,2*%
%TO.N,SRAL*%
X94220800Y-90220800D03*
%TD*%
D37*
%TO.P,C39,1*%
%TO.N,GND*%
X95453200Y-98361200D03*
%TO.P,C39,2*%
%TO.N,+3V3*%
X95453200Y-99911200D03*
%TD*%
%TO.P,C18,1*%
%TO.N,BMB2*%
X74777600Y-109575000D03*
%TO.P,C18,2*%
%TO.N,GND*%
X74777600Y-111125000D03*
%TD*%
D27*
%TO.P,R26,1*%
%TO.N,5VOUT*%
X114667800Y-99263200D03*
%TO.P,R26,2*%
%TO.N,VCC_IO*%
X113017800Y-99263200D03*
%TD*%
D38*
%TO.P,C42,1*%
%TO.N,+3V3*%
X119888000Y-90322400D03*
%TO.P,C42,2*%
%TO.N,GND*%
X118163000Y-90322400D03*
%TD*%
%TO.P,C43,1*%
%TO.N,+3V3*%
X119937700Y-88823800D03*
%TO.P,C43,2*%
%TO.N,GND*%
X118212700Y-88823800D03*
%TD*%
D30*
%TO.P,R6,1*%
%TO.N,Net-(Q3-S2)*%
X89621900Y-88112600D03*
%TO.P,R6,2*%
%TO.N,GND*%
X92546900Y-88112600D03*
%TD*%
D26*
%TO.P,R17,1*%
%TO.N,GND*%
X98641400Y-112903000D03*
%TO.P,R17,2*%
%TO.N,SRBL*%
X100291400Y-112903000D03*
%TD*%
D39*
%TO.N,GND*%
X110845600Y-80467200D03*
X112166400Y-80492600D03*
X109448600Y-80467200D03*
X110794800Y-81838800D03*
X109474000Y-81813400D03*
X112191800Y-81838800D03*
X110794800Y-87680800D03*
X112115600Y-87706200D03*
X109397800Y-87680800D03*
X110794800Y-86258400D03*
X112115600Y-86283800D03*
X109397800Y-86258400D03*
X96570800Y-121361200D03*
X96570800Y-116332000D03*
X97840800Y-116306600D03*
X99060000Y-116332000D03*
X100482400Y-116332000D03*
X97840800Y-117576600D03*
X99060000Y-117602000D03*
X100482400Y-117602000D03*
X96545400Y-120243600D03*
X96570800Y-119024400D03*
X96570800Y-117602000D03*
X113792000Y-110236000D03*
X116027200Y-111201200D03*
%TO.N,UART_TX*%
X110947200Y-112725200D03*
%TO.N,UART_RX*%
X113893600Y-112725200D03*
%TO.N,/TXD*%
X118059200Y-112283400D03*
%TO.N,BMB2*%
X95504000Y-102819200D03*
X94173000Y-99999800D03*
X74777600Y-109575000D03*
D40*
%TO.N,BMA1*%
X94173000Y-97993200D03*
X94183200Y-95732600D03*
D39*
%TO.N,GND*%
X117602000Y-112979200D03*
X74777600Y-111125000D03*
X108864400Y-97917000D03*
X104800400Y-97917000D03*
X117500400Y-110744000D03*
X94030800Y-81965800D03*
X105714800Y-99974400D03*
X95910400Y-87604600D03*
D40*
X91897200Y-102209600D03*
D39*
X93218000Y-110921800D03*
X113919000Y-104115700D03*
X94894400Y-101447600D03*
X104165400Y-109248200D03*
X118073400Y-98820200D03*
X110820200Y-114884200D03*
X107848400Y-101041200D03*
X96748600Y-81991200D03*
X94437200Y-110871000D03*
X94437200Y-112014000D03*
X91795600Y-111988600D03*
X106832400Y-101041200D03*
X105714800Y-98958400D03*
X107848400Y-102057200D03*
X96951800Y-80289400D03*
X102666800Y-95631000D03*
X106832400Y-97917000D03*
D40*
X90170000Y-98653600D03*
D39*
X106653500Y-115798600D03*
X121183400Y-103733600D03*
X128829400Y-113842800D03*
X120310400Y-92957700D03*
X128829400Y-112293400D03*
X104800400Y-101041200D03*
X93243400Y-83388200D03*
X109524800Y-105892600D03*
X106832400Y-98958400D03*
X106832400Y-102057200D03*
X122732800Y-111455200D03*
X90576400Y-102692200D03*
X94462600Y-108204000D03*
X94462600Y-106680000D03*
X118163000Y-90322400D03*
X107848400Y-98958400D03*
X105714800Y-102057200D03*
X97688400Y-89611200D03*
X107848400Y-97917000D03*
X105714800Y-101041200D03*
X108864400Y-102057200D03*
X95885000Y-106680000D03*
X108864400Y-99974400D03*
X95859600Y-112014000D03*
X111772600Y-93192200D03*
D40*
X100558600Y-109804200D03*
D39*
X104800400Y-98958400D03*
X95859600Y-110871000D03*
X123930600Y-86410000D03*
X95427800Y-80289400D03*
X105714800Y-97917000D03*
X120192800Y-86182200D03*
X110211700Y-116611400D03*
X108864400Y-98958400D03*
X113030000Y-97700800D03*
X93497400Y-104038400D03*
X112037200Y-125704600D03*
X119202200Y-103022400D03*
X121793000Y-94488000D03*
X121031000Y-93726000D03*
X96774000Y-83312000D03*
X104800400Y-102057200D03*
X118212700Y-88823800D03*
D40*
X95910400Y-104851200D03*
D39*
X96774000Y-86309200D03*
X121793000Y-92964000D03*
X93929200Y-86309200D03*
X118410900Y-82042000D03*
X117525800Y-93586000D03*
X120269000Y-94488000D03*
X104800400Y-99974400D03*
D40*
X97510600Y-94284800D03*
D39*
X95427800Y-81965800D03*
X115341400Y-106629200D03*
X93980000Y-80340200D03*
X120904000Y-118972500D03*
X95885000Y-109677200D03*
X108864400Y-101041200D03*
X107848400Y-99974400D03*
D40*
X116886900Y-79298800D03*
D39*
X94462600Y-109677200D03*
X91744800Y-104902000D03*
D40*
X97485200Y-91719400D03*
D39*
X125577600Y-108762800D03*
X93218000Y-111988600D03*
X117526900Y-118643400D03*
X95885000Y-108204000D03*
X96774000Y-84836000D03*
X95351600Y-86309200D03*
X93243400Y-84861400D03*
X94411800Y-87604600D03*
X106832400Y-99974400D03*
%TO.N,+3V3*%
X118073400Y-100090200D03*
X111936700Y-116611400D03*
X115316000Y-105333800D03*
X119888000Y-90322400D03*
X123266200Y-91440000D03*
X115976400Y-95147300D03*
%TO.N,/NRST*%
X119151400Y-114723600D03*
X110439200Y-118135400D03*
X115112800Y-115417600D03*
%TO.N,/SWDIO*%
X110998000Y-118922800D03*
%TO.N,/SWCLK*%
X113792000Y-118287800D03*
%TO.N,/TXD*%
X120243600Y-103733600D03*
%TO.N,/RXD*%
X118262400Y-103047800D03*
X117449600Y-111658400D03*
%TO.N,Net-(Q1-S2)*%
X87426800Y-103981250D03*
X85648800Y-103219250D03*
X86614000Y-112414050D03*
X84302600Y-113734850D03*
X87503000Y-112414050D03*
X88392000Y-113176050D03*
X85648800Y-103981250D03*
X88315800Y-102457250D03*
X85725000Y-113938050D03*
X86537800Y-103219250D03*
X85725000Y-112414050D03*
X86537800Y-102457250D03*
X88392000Y-112414050D03*
X86614000Y-113938050D03*
X85648800Y-102457250D03*
X88392000Y-113938050D03*
X87503000Y-113176050D03*
X86537800Y-103981250D03*
X87426800Y-102457250D03*
X87503000Y-113938050D03*
X86614000Y-113176050D03*
X88315800Y-103219250D03*
X84226400Y-103778050D03*
X88315800Y-103981250D03*
X85725000Y-113176050D03*
X87426800Y-103219250D03*
%TO.N,Net-(Q3-S2)*%
X85598000Y-82499200D03*
X87376000Y-82499200D03*
X87376000Y-83261200D03*
X85598000Y-94081600D03*
X88265000Y-92557600D03*
X85598000Y-83261200D03*
X88265000Y-84023200D03*
X84251800Y-83807000D03*
X85598000Y-93319600D03*
X87376000Y-84023200D03*
X85598000Y-92557600D03*
X86487000Y-82499200D03*
X84175600Y-93878400D03*
X85598000Y-84023200D03*
X86487000Y-83261200D03*
X88265000Y-94081600D03*
X86487000Y-84023200D03*
X87376000Y-93319600D03*
X87376000Y-92557600D03*
X88265000Y-93319600D03*
X88265000Y-82499200D03*
X88265000Y-83261200D03*
X87376000Y-94081600D03*
X86487000Y-92557600D03*
X86487000Y-93319600D03*
X86487000Y-94081600D03*
D40*
%TO.N,LB2*%
X95910400Y-103784400D03*
X92710000Y-101447600D03*
%TO.N,LA2*%
X96215200Y-91744800D03*
X96266000Y-94284800D03*
D39*
%TO.N,CSN*%
X111988600Y-107213400D03*
X118516400Y-110718600D03*
%TO.N,VCC_IO*%
X113027990Y-99248790D03*
%TO.N,5VOUT*%
X103280200Y-117348000D03*
D40*
X105943400Y-107812800D03*
D39*
X112686600Y-95123000D03*
%TO.N,SRBL*%
X102463600Y-115214400D03*
%TO.N,SRAH*%
X96723200Y-90424000D03*
X106312000Y-112344200D03*
X101295200Y-91795600D03*
%TO.N,SRAL*%
X95529400Y-89789000D03*
X101244400Y-90424000D03*
X104762000Y-112344200D03*
%TO.N,SRBH*%
X101549200Y-115163600D03*
D40*
%TO.N,VS*%
X104165400Y-107698200D03*
X110667800Y-90093800D03*
D39*
%TO.N,SPI2_NSS*%
X110312200Y-111150400D03*
%TO.N,SPI2_MISO*%
X114554000Y-110490000D03*
%TO.N,SPI2_MOSI*%
X115214400Y-111150400D03*
%TO.N,SPI2_SCK*%
X111097042Y-110498600D03*
%TO.N,12-36V*%
X82488900Y-85714800D03*
X80812500Y-86426000D03*
X80069550Y-115623300D03*
X82609550Y-116334500D03*
X81650700Y-86426000D03*
X80933150Y-114912100D03*
X114931100Y-82424900D03*
X80933150Y-116334500D03*
X79180550Y-104955300D03*
X80812500Y-85003600D03*
X80806150Y-95785900D03*
X82533350Y-104955300D03*
X80856950Y-104955300D03*
X80856950Y-106377700D03*
X79129750Y-96497100D03*
X79256750Y-115623300D03*
X81695150Y-106377700D03*
X79129750Y-95074700D03*
X81695150Y-104955300D03*
D40*
X90347800Y-77429400D03*
D39*
X79942550Y-95074700D03*
X79136100Y-85714800D03*
X79948900Y-85714800D03*
X79256750Y-114912100D03*
X80933150Y-115623300D03*
X79948900Y-85003600D03*
X79136100Y-86426000D03*
X81650700Y-85003600D03*
X79942550Y-95785900D03*
X79993350Y-105666500D03*
X80069550Y-116334500D03*
X79129750Y-95785900D03*
X79942550Y-96497100D03*
X82533350Y-106377700D03*
X79993350Y-104955300D03*
X79948900Y-86426000D03*
X80812500Y-85714800D03*
X81644350Y-95074700D03*
X82533350Y-105666500D03*
X81771350Y-114912100D03*
X81695150Y-105666500D03*
X82488900Y-85003600D03*
X82609550Y-114912100D03*
X80856950Y-105666500D03*
X79180550Y-106377700D03*
X81644350Y-96497100D03*
D40*
X106349800Y-88163400D03*
D39*
X80069550Y-114912100D03*
X79180550Y-105666500D03*
X79256750Y-116334500D03*
X81771350Y-115623300D03*
X81650700Y-85714800D03*
X82482550Y-95785900D03*
X81771350Y-116334500D03*
X80806150Y-96497100D03*
X82482550Y-96497100D03*
X82482550Y-95074700D03*
X80806150Y-95074700D03*
X82488900Y-86426000D03*
X79993350Y-106377700D03*
X82609550Y-115623300D03*
X79136100Y-85003600D03*
X81644350Y-95785900D03*
%TO.N,Out_2*%
X104292400Y-120624600D03*
X105130600Y-118846600D03*
%TO.N,Net-(J5-VBUS)*%
X124498600Y-92176600D03*
%TO.N,Net-(U7-~{RST})*%
X124612400Y-93980000D03*
%TO.N,/D-*%
X121964000Y-90043000D03*
%TO.N,/D+*%
X121114000Y-90043000D03*
%TO.N,GND*%
X90093800Y-108229400D03*
%TD*%
D41*
%TO.N,+3V3*%
X95707200Y-101930200D02*
X95707200Y-101193600D01*
X95719900Y-101942900D02*
X95707200Y-101930200D01*
X95402400Y-100888800D02*
X95402400Y-99962000D01*
X95707200Y-101193600D02*
X95402400Y-100888800D01*
X97637600Y-103860600D02*
X95719900Y-101942900D01*
%TO.N,SPI2_MISO*%
X114554000Y-110035592D02*
X114554000Y-110490000D01*
X113705808Y-109187400D02*
X114554000Y-110035592D01*
X108610400Y-109474000D02*
X108839000Y-109245400D01*
X107859400Y-110225000D02*
X108610400Y-109474000D01*
X108610400Y-109474000D02*
X108897000Y-109187400D01*
X108897000Y-109187400D02*
X113705808Y-109187400D01*
%TO.N,SPI2_MOSI*%
X115214400Y-110059596D02*
X115214400Y-110210600D01*
X113892204Y-108737400D02*
X115214400Y-110059596D01*
X112217200Y-108737400D02*
X113892204Y-108737400D01*
X112217200Y-108737400D02*
X113741200Y-108737400D01*
X105283000Y-108737400D02*
X112217200Y-108737400D01*
%TO.N,5VOUT*%
X116687600Y-111658400D02*
X116687600Y-110896400D01*
X115366800Y-112229900D02*
X116116100Y-112229900D01*
X116687600Y-110896400D02*
X116154200Y-110363000D01*
X114706400Y-112229900D02*
X115366800Y-112229900D01*
X116116100Y-112229900D02*
X116687600Y-111658400D01*
%TO.N,SPI2_MOSI*%
X115214400Y-110210600D02*
X115214400Y-111150400D01*
X105029000Y-108483400D02*
X105283000Y-108737400D01*
X101930200Y-104038400D02*
X101930200Y-107746800D01*
X101498400Y-100431600D02*
X101498400Y-103606600D01*
X101930200Y-107746800D02*
X102666800Y-108483400D01*
X101498400Y-103606600D02*
X101930200Y-104038400D01*
X101931209Y-99998791D02*
X101498400Y-100431600D01*
X102901750Y-99998791D02*
X101931209Y-99998791D01*
X102666800Y-108483400D02*
X105029000Y-108483400D01*
%TO.N,5VOUT*%
X113334800Y-111353600D02*
X113830100Y-111353600D01*
X113830100Y-111353600D02*
X114706400Y-112229900D01*
X113334800Y-111353600D02*
X111150400Y-111353600D01*
X113588800Y-111353600D02*
X113334800Y-111353600D01*
D10*
%TO.N,UART_TX*%
X110947200Y-113487200D02*
X110947200Y-112725200D01*
X111455200Y-113995200D02*
X110947200Y-113487200D01*
X111810800Y-113995200D02*
X111455200Y-113995200D01*
X117754400Y-113995200D02*
X111810800Y-113995200D01*
%TO.N,UART_RX*%
X114858800Y-112725200D02*
X113893600Y-112725200D01*
X115214400Y-113080800D02*
X114858800Y-112725200D01*
%TO.N,UART_TX*%
X120954800Y-111963200D02*
X118922800Y-113995200D01*
X118922800Y-113995200D02*
X117754400Y-113995200D01*
%TO.N,UART_RX*%
X115722400Y-113588800D02*
X115214400Y-113080800D01*
X116890800Y-113588800D02*
X115722400Y-113588800D01*
X118719600Y-113588800D02*
X116890800Y-113588800D01*
X121716800Y-110591600D02*
X118719600Y-113588800D01*
D41*
%TO.N,5VOUT*%
X111150400Y-111353600D02*
X110185200Y-112318800D01*
X108204000Y-112318800D02*
X110185200Y-112318800D01*
X107975400Y-112547400D02*
X108204000Y-112318800D01*
%TO.N,/TXD*%
X118983600Y-112283400D02*
X119214900Y-112052100D01*
X118059200Y-112283400D02*
X118983600Y-112283400D01*
X120573800Y-110693200D02*
X119214900Y-112052100D01*
%TO.N,/RXD*%
X118668800Y-111658400D02*
X117449600Y-111658400D01*
X119100600Y-111226600D02*
X118668800Y-111658400D01*
X119100600Y-111226600D02*
X120040400Y-110286800D01*
%TO.N,CSN*%
X117868700Y-110070900D02*
X118516400Y-110718600D01*
X116801900Y-110070900D02*
X117868700Y-110070900D01*
X116801900Y-110070900D02*
X114808000Y-108077000D01*
D10*
%TO.N,UART_RX*%
X122783600Y-103428800D02*
X122783600Y-109524800D01*
X122783600Y-101200486D02*
X122783600Y-103428800D01*
X118284357Y-96701243D02*
X122783600Y-101200486D01*
X117602000Y-96018886D02*
X118284357Y-96701243D01*
X122783600Y-109524800D02*
X121716800Y-110591600D01*
X117602000Y-95148400D02*
X117602000Y-96018886D01*
%TO.N,UART_TX*%
X123240800Y-109677200D02*
X120954800Y-111963200D01*
X123240800Y-106984800D02*
X123240800Y-109677200D01*
X118059200Y-95910400D02*
X119634000Y-97485200D01*
X119634000Y-97485200D02*
X123240800Y-101092000D01*
X123240800Y-101092000D02*
X123240800Y-106984800D01*
X118059200Y-94901286D02*
X118059200Y-95910400D01*
X118265843Y-94694643D02*
X118059200Y-94901286D01*
X118502786Y-94457700D02*
X118265843Y-94694643D01*
X119122900Y-94457700D02*
X118502786Y-94457700D01*
D41*
%TO.N,BMB2*%
X94173000Y-101767600D02*
X94173000Y-99999800D01*
X95224600Y-102819200D02*
X94173000Y-101767600D01*
X95504000Y-102819200D02*
X95224600Y-102819200D01*
D42*
%TO.N,BMA1*%
X94173000Y-95742800D02*
X94183200Y-95732600D01*
X94173000Y-97993200D02*
X94173000Y-95742800D01*
D41*
%TO.N,GND*%
X102901750Y-100648790D02*
X103592610Y-100648790D01*
D43*
X123266200Y-88545500D02*
X124738300Y-88545500D01*
D10*
X120310400Y-92957700D02*
X121060400Y-93707700D01*
D43*
X124738300Y-88545500D02*
X124739400Y-88544400D01*
D41*
X103886000Y-97205800D02*
X103886000Y-96850200D01*
D10*
X120310400Y-91770200D02*
X120310400Y-92957700D01*
D41*
X103886000Y-96850200D02*
X102666800Y-95631000D01*
X103592610Y-100648790D02*
X103835200Y-100406200D01*
X103835200Y-100406200D02*
X103886000Y-100355400D01*
D43*
X124739400Y-87218800D02*
X123930600Y-86410000D01*
X124739400Y-88544400D02*
X124739400Y-87218800D01*
D44*
X95790791Y-98698791D02*
X95453200Y-98361200D01*
D41*
X103886000Y-100355400D02*
X103886000Y-97205800D01*
D44*
X97097850Y-98698791D02*
X95790791Y-98698791D01*
D41*
%TO.N,+3V3*%
X115938300Y-97790000D02*
X115938300Y-95185400D01*
X97637600Y-105853152D02*
X97637600Y-103860600D01*
X98526600Y-99720400D02*
X98526600Y-98196400D01*
X98323400Y-110896400D02*
X98323400Y-106538952D01*
D10*
X119937700Y-90272700D02*
X119888000Y-90322400D01*
D41*
X101904800Y-117602000D02*
X101904800Y-116840000D01*
X98526600Y-98196400D02*
X98971400Y-97751600D01*
X98248209Y-99998791D02*
X98526600Y-99720400D01*
X98971400Y-97751600D02*
X98971400Y-96316800D01*
X118073400Y-100090200D02*
X115952500Y-100090200D01*
X111353600Y-117475000D02*
X104775000Y-117475000D01*
X115938300Y-100076000D02*
X115938300Y-97790000D01*
X104775000Y-117475000D02*
X103911400Y-118338600D01*
X115316000Y-101396800D02*
X115938300Y-100774500D01*
X115938300Y-100774500D02*
X115938300Y-100076000D01*
X103911400Y-118338600D02*
X102641400Y-118338600D01*
X103403400Y-114249200D02*
X100888800Y-111734600D01*
D10*
X119937700Y-88823800D02*
X119937700Y-90272700D01*
D41*
X102641400Y-118338600D02*
X101904800Y-117602000D01*
X111936700Y-116891900D02*
X111353600Y-117475000D01*
X111936700Y-116611400D02*
X111936700Y-116891900D01*
X95540791Y-99998791D02*
X95453200Y-99911200D01*
X103403400Y-115341400D02*
X103403400Y-114249200D01*
X115316000Y-105333800D02*
X115316000Y-101396800D01*
X97097850Y-99998791D02*
X95540791Y-99998791D01*
X99161600Y-111734600D02*
X98323400Y-110896400D01*
X101904800Y-116840000D02*
X103403400Y-115341400D01*
X95402400Y-99962000D02*
X95453200Y-99911200D01*
X97097850Y-99348792D02*
X97097850Y-99998791D01*
X121810400Y-91770200D02*
X122310400Y-91770200D01*
X115938300Y-95185400D02*
X115976400Y-95147300D01*
X115952500Y-100090200D02*
X115938300Y-100076000D01*
X97097850Y-99998791D02*
X98248209Y-99998791D01*
X122936000Y-91770200D02*
X123266200Y-91440000D01*
X100888800Y-111734600D02*
X99161600Y-111734600D01*
X122310400Y-91770200D02*
X122936000Y-91770200D01*
X98323400Y-106538952D02*
X97637600Y-105853152D01*
%TO.N,/NRST*%
X108978700Y-119900700D02*
X110439200Y-118440200D01*
X108978700Y-119900700D02*
X107442000Y-121437400D01*
X118457400Y-115417600D02*
X115112800Y-115417600D01*
X107442000Y-121437400D02*
X107442000Y-122936000D01*
X119151400Y-114723600D02*
X118457400Y-115417600D01*
X110439200Y-118440200D02*
X110439200Y-118135400D01*
%TO.N,/SWDIO*%
X110998000Y-120269000D02*
X110998000Y-121920000D01*
X110998000Y-118922800D02*
X110998000Y-120269000D01*
X110998000Y-121920000D02*
X109982000Y-122936000D01*
%TO.N,/SWCLK*%
X115062000Y-119557800D02*
X115062000Y-122936000D01*
X114719100Y-119214900D02*
X115062000Y-119557800D01*
X114719100Y-119214900D02*
X113792000Y-118287800D01*
%TO.N,/TXD*%
X120243600Y-103733600D02*
X120573800Y-104063800D01*
X120573800Y-104063800D02*
X120573800Y-110693200D01*
%TO.N,/RXD*%
X120040400Y-110286800D02*
X120040400Y-109931200D01*
X120040400Y-104825800D02*
X118262400Y-103047800D01*
X120040400Y-109931200D02*
X120040400Y-104825800D01*
D42*
%TO.N,LB2*%
X92786200Y-101447600D02*
X95123000Y-103784400D01*
X95123000Y-103784400D02*
X95910400Y-103784400D01*
X92710000Y-101447600D02*
X92786200Y-101447600D01*
%TO.N,LA2*%
X96266000Y-91795600D02*
X96266000Y-94284800D01*
X96215200Y-91744800D02*
X96266000Y-91795600D01*
D41*
%TO.N,CSN*%
X113944400Y-107213400D02*
X111988600Y-107213400D01*
X114808000Y-108077000D02*
X113944400Y-107213400D01*
%TO.N,5VOUT*%
X111455200Y-108077000D02*
X110782100Y-107403900D01*
D44*
X114667800Y-97104200D02*
X114667800Y-99263200D01*
X114667800Y-99911400D02*
X114667800Y-99263200D01*
D41*
X113868200Y-108077000D02*
X111455200Y-108077000D01*
D44*
X110782100Y-107403900D02*
X113030000Y-105156000D01*
D41*
X103280200Y-117348000D02*
X103280200Y-117242600D01*
D44*
X113030000Y-105156000D02*
X113030000Y-101549200D01*
D41*
X116154200Y-110363000D02*
X113868200Y-108077000D01*
D44*
X113030000Y-101549200D02*
X114667800Y-99911400D01*
D41*
X103280200Y-117242600D02*
X107975400Y-112547400D01*
D44*
X105943400Y-107812800D02*
X110373200Y-107812800D01*
X110373200Y-107812800D02*
X110782100Y-107403900D01*
X112686600Y-95123000D02*
X114667800Y-97104200D01*
D43*
%TO.N,SRBL*%
X102463600Y-115214400D02*
X102463600Y-114604800D01*
X102463600Y-114604800D02*
X100761800Y-112903000D01*
X102463600Y-114655600D02*
X102463600Y-115214400D01*
X100761800Y-112903000D02*
X100291400Y-112903000D01*
%TO.N,SRAH*%
X105867200Y-111607600D02*
X106312000Y-112052400D01*
X98848800Y-105503600D02*
X99390200Y-106045000D01*
X99390200Y-106045000D02*
X99390200Y-110261400D01*
X100499800Y-97747200D02*
X99580700Y-98666300D01*
X99580700Y-100114100D02*
X98848800Y-100846000D01*
X94970600Y-91694000D02*
X96240600Y-90424000D01*
X106312000Y-112052400D02*
X106312000Y-112344200D01*
X102336600Y-111607600D02*
X105867200Y-111607600D01*
X101295200Y-92532200D02*
X100499800Y-93327600D01*
X100499800Y-93327600D02*
X100499800Y-97747200D01*
X99695000Y-110566200D02*
X101295200Y-110566200D01*
X101295200Y-110566200D02*
X102336600Y-111607600D01*
X99580700Y-98666300D02*
X99580700Y-100114100D01*
X94170000Y-91694000D02*
X94970600Y-91694000D01*
X101295200Y-91795600D02*
X101295200Y-92532200D01*
X98848800Y-100846000D02*
X98848800Y-105503600D01*
X96240600Y-90424000D02*
X96723200Y-90424000D01*
X99390200Y-110261400D02*
X99695000Y-110566200D01*
%TO.N,SRAL*%
X99080700Y-99902900D02*
X98348800Y-100634800D01*
X101244400Y-90424000D02*
X99999800Y-91668600D01*
X98831400Y-110642400D02*
X99364800Y-111175800D01*
X95529400Y-89839800D02*
X95529400Y-89789000D01*
X95148400Y-90220800D02*
X95529400Y-89839800D01*
X99364800Y-111175800D02*
X101117400Y-111175800D01*
X101117400Y-111175800D02*
X102285800Y-112344200D01*
X98348800Y-105892600D02*
X98831400Y-106375200D01*
X95148400Y-90220800D02*
X94220800Y-90220800D01*
X102285800Y-112344200D02*
X104762000Y-112344200D01*
X98831400Y-106375200D02*
X98831400Y-110642400D01*
X98348800Y-100634800D02*
X98348800Y-105892600D01*
X99999800Y-97510600D02*
X99080700Y-98429700D01*
X99999800Y-91668600D02*
X99999800Y-97510600D01*
X99080700Y-98429700D02*
X99080700Y-99902900D01*
%TO.N,SRBH*%
X100838000Y-114452400D02*
X100291400Y-114452400D01*
X101549200Y-115163600D02*
X100838000Y-114452400D01*
D44*
%TO.N,VS*%
X110642400Y-90119200D02*
X110667800Y-90093800D01*
X111937800Y-105156000D02*
X111937800Y-95885000D01*
X104165400Y-107061000D02*
X104648000Y-106578400D01*
X104165400Y-107698200D02*
X104165400Y-107061000D01*
X111937800Y-95885000D02*
X110642400Y-94589600D01*
X110642400Y-94589600D02*
X110642400Y-90119200D01*
X106476800Y-106578400D02*
X107061000Y-107162600D01*
X109931200Y-107162600D02*
X111937800Y-105156000D01*
X107061000Y-107162600D02*
X109931200Y-107162600D01*
X104648000Y-106578400D02*
X106476800Y-106578400D01*
D41*
%TO.N,SPI2_NSS*%
X100076000Y-99060000D02*
X100076000Y-104216200D01*
X101087210Y-98048790D02*
X100076000Y-99060000D01*
X110294400Y-111132600D02*
X110312200Y-111150400D01*
X100431600Y-104571800D02*
X100431600Y-108585000D01*
X102979200Y-111132600D02*
X110294400Y-111132600D01*
X102901750Y-98048790D02*
X101087210Y-98048790D01*
X100076000Y-104216200D02*
X100431600Y-104571800D01*
X100431600Y-108585000D02*
X102979200Y-111132600D01*
%TO.N,SPI2_MISO*%
X101489008Y-99348792D02*
X101015800Y-99822000D01*
X101015800Y-99822000D02*
X101015800Y-103809800D01*
X102901750Y-99348792D02*
X101489008Y-99348792D01*
X103344392Y-110225000D02*
X107859400Y-110225000D01*
X101015800Y-103809800D02*
X101422200Y-104216200D01*
X101422200Y-108302808D02*
X103344392Y-110225000D01*
X101422200Y-104216200D02*
X101422200Y-108302808D01*
%TO.N,SPI2_SCK*%
X100526000Y-99441000D02*
X100526000Y-104029804D01*
X103157996Y-110675000D02*
X106484000Y-110675000D01*
X100888800Y-106273600D02*
X100888800Y-108405804D01*
X102901750Y-98698791D02*
X101268209Y-98698791D01*
X100526000Y-104029804D02*
X100762498Y-104266302D01*
X100762498Y-104266302D02*
X100888800Y-104392604D01*
X101397498Y-108914502D02*
X103157996Y-110675000D01*
X100888800Y-104392604D02*
X100888800Y-106273600D01*
X101268209Y-98698791D02*
X100526000Y-99441000D01*
X111063042Y-110464600D02*
X111097042Y-110498600D01*
X106484000Y-110675000D02*
X108247600Y-110675000D01*
X108458000Y-110464600D02*
X111063042Y-110464600D01*
X100888800Y-108405804D02*
X101397498Y-108914502D01*
X108247600Y-110675000D02*
X108458000Y-110464600D01*
%TO.N,Out_2*%
X105130600Y-118846600D02*
X105130600Y-119786400D01*
X105130600Y-119786400D02*
X104292400Y-120624600D01*
D10*
%TO.N,Net-(J5-VBUS)*%
X123445100Y-90142400D02*
X123444000Y-90143500D01*
D41*
X124217500Y-92457700D02*
X124498600Y-92176600D01*
D10*
X125730000Y-89278800D02*
X124739400Y-90269400D01*
D41*
X124739400Y-91935800D02*
X124739400Y-90269400D01*
D10*
X125730000Y-85953600D02*
X125730000Y-89278800D01*
X123267300Y-90269400D02*
X123266200Y-90270500D01*
D41*
X124498600Y-92176600D02*
X124739400Y-91935800D01*
D10*
X123241900Y-90142400D02*
X123240800Y-90143500D01*
X124739400Y-90269400D02*
X123267300Y-90269400D01*
D41*
X122997900Y-92457700D02*
X124217500Y-92457700D01*
D10*
X124186400Y-84410000D02*
X125730000Y-85953600D01*
X124130600Y-84410000D02*
X124186400Y-84410000D01*
D41*
%TO.N,Net-(U7-~{RST})*%
X123606104Y-93457700D02*
X122997900Y-93457700D01*
X124128404Y-93980000D02*
X123606104Y-93457700D01*
X124612400Y-93980000D02*
X124128404Y-93980000D01*
%TO.N,Net-(U7-VBUS)*%
X127521200Y-92176600D02*
X126148600Y-92176600D01*
X125132600Y-93192600D02*
X126148600Y-92176600D01*
X123742500Y-92957700D02*
X123977400Y-93192600D01*
X122997900Y-92957700D02*
X123742500Y-92957700D01*
X123977400Y-93192600D02*
X125132600Y-93192600D01*
D10*
%TO.N,/D-*%
X121285400Y-91126449D02*
X121310400Y-91151449D01*
X121285400Y-90721600D02*
X121285400Y-91126449D01*
X122230600Y-84410000D02*
X122230600Y-85121200D01*
X122961400Y-85852000D02*
X122961400Y-87071200D01*
X122961400Y-87071200D02*
X121964000Y-88068600D01*
X121964000Y-88068600D02*
X121964000Y-90043000D01*
X121964000Y-90043000D02*
X121285400Y-90721600D01*
X122230600Y-85121200D02*
X122961400Y-85852000D01*
X121310400Y-91151449D02*
X121310400Y-91770200D01*
%TO.N,/D+*%
X120810400Y-91151449D02*
X120810400Y-91770200D01*
X122230600Y-86735200D02*
X121114000Y-87851800D01*
X120835400Y-90535203D02*
X120835400Y-91126449D01*
X120835400Y-91126449D02*
X120810400Y-91151449D01*
X121114000Y-87851800D02*
X121114000Y-90043000D01*
X121114000Y-90043000D02*
X121114000Y-90256603D01*
X121114000Y-90256603D02*
X120835400Y-90535203D01*
X122230600Y-86410000D02*
X122230600Y-86735200D01*
%TO.N,UART_RX*%
X117602000Y-94792800D02*
X117602000Y-95148400D01*
X119122900Y-93957700D02*
X118437100Y-93957700D01*
X118437100Y-93957700D02*
X117957600Y-94437200D01*
X117957600Y-94437200D02*
X117602000Y-94792800D01*
%TD*%
%TA.AperFunction,Conductor*%
%TO.N,GND*%
G36*
X116984762Y-112065497D02*
G01*
X117016916Y-112083303D01*
X117021315Y-112086679D01*
X117021318Y-112086682D01*
X117146759Y-112182936D01*
X117292838Y-112243444D01*
X117356665Y-112251846D01*
X117420560Y-112280112D01*
X117459032Y-112338436D01*
X117463418Y-112358599D01*
X117474156Y-112440161D01*
X117474156Y-112440162D01*
X117528096Y-112570386D01*
X117534664Y-112586241D01*
X117630918Y-112711682D01*
X117756359Y-112807936D01*
X117902438Y-112868444D01*
X117955016Y-112875366D01*
X118059199Y-112889082D01*
X118059200Y-112889082D01*
X118059201Y-112889082D01*
X118113305Y-112881959D01*
X118215962Y-112868444D01*
X118362041Y-112807936D01*
X118396638Y-112781389D01*
X118457715Y-112734524D01*
X118522885Y-112709330D01*
X118533201Y-112708900D01*
X118733745Y-112708900D01*
X118800784Y-112728585D01*
X118846539Y-112781389D01*
X118856483Y-112850547D01*
X118827458Y-112914103D01*
X118821426Y-112920581D01*
X118590026Y-113151981D01*
X118528703Y-113185466D01*
X118502345Y-113188300D01*
X115939655Y-113188300D01*
X115872616Y-113168615D01*
X115851974Y-113151981D01*
X115567074Y-112867081D01*
X115533589Y-112805758D01*
X115538573Y-112736066D01*
X115580445Y-112680133D01*
X115645909Y-112655716D01*
X115654755Y-112655400D01*
X116172116Y-112655400D01*
X116172118Y-112655400D01*
X116280337Y-112626403D01*
X116377363Y-112570385D01*
X116853750Y-112093996D01*
X116915071Y-112060513D01*
X116984762Y-112065497D01*
G37*
%TD.AperFunction*%
%TA.AperFunction,Conductor*%
G36*
X115920446Y-110749543D02*
G01*
X115968968Y-110779516D01*
X116225781Y-111036329D01*
X116259266Y-111097652D01*
X116262100Y-111124010D01*
X116262100Y-111430790D01*
X116242415Y-111497829D01*
X116225781Y-111518471D01*
X115976171Y-111768081D01*
X115914848Y-111801566D01*
X115888490Y-111804400D01*
X115713812Y-111804400D01*
X115646773Y-111784715D01*
X115601018Y-111731911D01*
X115591074Y-111662753D01*
X115620099Y-111599197D01*
X115638322Y-111582026D01*
X115642682Y-111578682D01*
X115738936Y-111453241D01*
X115799444Y-111307162D01*
X115820082Y-111150400D01*
X115799444Y-110993638D01*
X115771793Y-110926882D01*
X115766726Y-110914649D01*
X115759257Y-110845180D01*
X115790532Y-110782701D01*
X115850621Y-110747049D01*
X115920446Y-110749543D01*
G37*
%TD.AperFunction*%
%TA.AperFunction,Conductor*%
G36*
X117708129Y-110516085D02*
G01*
X117728771Y-110532719D01*
X117880357Y-110684305D01*
X117913842Y-110745628D01*
X117915615Y-110755800D01*
X117931356Y-110875361D01*
X117931357Y-110875365D01*
X117994584Y-111028010D01*
X118002053Y-111097479D01*
X117970778Y-111159958D01*
X117910689Y-111195610D01*
X117840863Y-111193116D01*
X117804537Y-111173838D01*
X117752442Y-111133864D01*
X117606362Y-111073356D01*
X117606360Y-111073355D01*
X117449601Y-111052718D01*
X117449599Y-111052718D01*
X117292839Y-111073355D01*
X117292834Y-111073357D01*
X117284552Y-111076788D01*
X117215083Y-111084257D01*
X117152604Y-111052982D01*
X117116952Y-110992892D01*
X117113100Y-110962227D01*
X117113100Y-110840384D01*
X117113100Y-110840382D01*
X117084103Y-110732163D01*
X117055371Y-110682399D01*
X117038899Y-110614500D01*
X117061751Y-110548473D01*
X117116672Y-110505283D01*
X117162759Y-110496400D01*
X117641090Y-110496400D01*
X117708129Y-110516085D01*
G37*
%TD.AperFunction*%
%TA.AperFunction,Conductor*%
G36*
X113545237Y-109632585D02*
G01*
X113565879Y-109649219D01*
X113992655Y-110075995D01*
X114026140Y-110137318D01*
X114021156Y-110207010D01*
X114019535Y-110211128D01*
X113968957Y-110333234D01*
X113968955Y-110333239D01*
X113948318Y-110489998D01*
X113948318Y-110490001D01*
X113968955Y-110646760D01*
X113968957Y-110646765D01*
X114014798Y-110757437D01*
X114022267Y-110826906D01*
X113990991Y-110889385D01*
X113930902Y-110925037D01*
X113894245Y-110927220D01*
X113894245Y-110928100D01*
X111754693Y-110928100D01*
X111687654Y-110908415D01*
X111641899Y-110855611D01*
X111631955Y-110786453D01*
X111640132Y-110756647D01*
X111644108Y-110747049D01*
X111682086Y-110655362D01*
X111702724Y-110498600D01*
X111702434Y-110496400D01*
X111682086Y-110341839D01*
X111682086Y-110341838D01*
X111621578Y-110195759D01*
X111525324Y-110070318D01*
X111399883Y-109974064D01*
X111378826Y-109965342D01*
X111253804Y-109913556D01*
X111253802Y-109913555D01*
X111097043Y-109892918D01*
X111097041Y-109892918D01*
X110940281Y-109913555D01*
X110940279Y-109913556D01*
X110794199Y-109974064D01*
X110742838Y-110013476D01*
X110677669Y-110038670D01*
X110667352Y-110039100D01*
X108946410Y-110039100D01*
X108879371Y-110019415D01*
X108833616Y-109966611D01*
X108823672Y-109897453D01*
X108852697Y-109833897D01*
X108858729Y-109827419D01*
X109036929Y-109649219D01*
X109098252Y-109615734D01*
X109124610Y-109612900D01*
X113478198Y-109612900D01*
X113545237Y-109632585D01*
G37*
%TD.AperFunction*%
%TA.AperFunction,Conductor*%
G36*
X100045903Y-108781592D02*
G01*
X100072087Y-108813306D01*
X100091115Y-108846263D01*
X100091117Y-108846265D01*
X101148871Y-109904019D01*
X101182356Y-109965342D01*
X101177372Y-110035034D01*
X101135500Y-110090967D01*
X101070036Y-110115384D01*
X101061190Y-110115700D01*
X99964700Y-110115700D01*
X99897661Y-110096015D01*
X99851906Y-110043211D01*
X99840700Y-109991700D01*
X99840700Y-108875305D01*
X99860385Y-108808266D01*
X99913189Y-108762511D01*
X99982347Y-108752567D01*
X100045903Y-108781592D01*
G37*
%TD.AperFunction*%
%TA.AperFunction,Conductor*%
G36*
X104868429Y-108928585D02*
G01*
X104889071Y-108945219D01*
X104942513Y-108998661D01*
X104942515Y-108998663D01*
X105021737Y-109077885D01*
X105102130Y-109124300D01*
X105118763Y-109133903D01*
X105226981Y-109162900D01*
X105226982Y-109162900D01*
X108020390Y-109162900D01*
X108087429Y-109182585D01*
X108133184Y-109235389D01*
X108143128Y-109304547D01*
X108114103Y-109368103D01*
X108108071Y-109374581D01*
X107719471Y-109763181D01*
X107658148Y-109796666D01*
X107631790Y-109799500D01*
X103572002Y-109799500D01*
X103504963Y-109779815D01*
X103484321Y-109763181D01*
X102841721Y-109120581D01*
X102808236Y-109059258D01*
X102813220Y-108989566D01*
X102855092Y-108933633D01*
X102920556Y-108909216D01*
X102929402Y-108908900D01*
X104801390Y-108908900D01*
X104868429Y-108928585D01*
G37*
%TD.AperFunction*%
%TA.AperFunction,Conductor*%
G36*
X94803703Y-100483499D02*
G01*
X94821302Y-100502285D01*
X94827284Y-100510173D01*
X94828123Y-100511279D01*
X94837622Y-100518482D01*
X94927826Y-100586886D01*
X94969348Y-100643077D01*
X94976900Y-100685689D01*
X94976900Y-100832782D01*
X94976900Y-100944818D01*
X95001269Y-101035763D01*
X95005897Y-101053036D01*
X95005898Y-101053039D01*
X95019217Y-101076108D01*
X95061915Y-101150063D01*
X95166742Y-101254890D01*
X95245381Y-101333528D01*
X95278866Y-101394851D01*
X95281700Y-101421209D01*
X95281700Y-101975190D01*
X95262015Y-102042229D01*
X95209211Y-102087984D01*
X95140053Y-102097928D01*
X95076497Y-102068903D01*
X95070019Y-102062871D01*
X94634819Y-101627671D01*
X94601334Y-101566348D01*
X94598500Y-101539990D01*
X94598500Y-100577212D01*
X94618185Y-100510173D01*
X94670989Y-100464418D01*
X94740147Y-100454474D01*
X94803703Y-100483499D01*
G37*
%TD.AperFunction*%
%TA.AperFunction,Conductor*%
G36*
X112643503Y-95788163D02*
G01*
X112649981Y-95794195D01*
X114130981Y-97275195D01*
X114164466Y-97336518D01*
X114167300Y-97362876D01*
X114167300Y-98525879D01*
X114147615Y-98592918D01*
X114117613Y-98625144D01*
X114110259Y-98630649D01*
X114110251Y-98630657D01*
X114024006Y-98745864D01*
X114024002Y-98745871D01*
X113973710Y-98880713D01*
X113973709Y-98880717D01*
X113967300Y-98940327D01*
X113967300Y-98940334D01*
X113967300Y-98940335D01*
X113967300Y-99586070D01*
X113967301Y-99586076D01*
X113973709Y-99645684D01*
X114014315Y-99754557D01*
X114019299Y-99824248D01*
X113985814Y-99885570D01*
X112722686Y-101148700D01*
X112649981Y-101221405D01*
X112588658Y-101254890D01*
X112518966Y-101249906D01*
X112463033Y-101208034D01*
X112438616Y-101142570D01*
X112438300Y-101133724D01*
X112438300Y-100109428D01*
X112457985Y-100042389D01*
X112510789Y-99996634D01*
X112579947Y-99986690D01*
X112605627Y-99993244D01*
X112710317Y-100032291D01*
X112769927Y-100038700D01*
X113265672Y-100038699D01*
X113325283Y-100032291D01*
X113460131Y-99981996D01*
X113575346Y-99895746D01*
X113661596Y-99780531D01*
X113711891Y-99645683D01*
X113718300Y-99586073D01*
X113718299Y-98940328D01*
X113711891Y-98880717D01*
X113711020Y-98878383D01*
X113661597Y-98745871D01*
X113661593Y-98745864D01*
X113575347Y-98630655D01*
X113575344Y-98630652D01*
X113460135Y-98544406D01*
X113460128Y-98544402D01*
X113325286Y-98494110D01*
X113325285Y-98494109D01*
X113325283Y-98494109D01*
X113265673Y-98487700D01*
X113265663Y-98487700D01*
X112769929Y-98487700D01*
X112769923Y-98487701D01*
X112710316Y-98494108D01*
X112605633Y-98533153D01*
X112535941Y-98538137D01*
X112474618Y-98504652D01*
X112441134Y-98443328D01*
X112438300Y-98416971D01*
X112438300Y-95881876D01*
X112457985Y-95814837D01*
X112510789Y-95769082D01*
X112579947Y-95759138D01*
X112643503Y-95788163D01*
G37*
%TD.AperFunction*%
%TA.AperFunction,Conductor*%
G36*
X120380171Y-92231612D02*
G01*
X120421793Y-92279647D01*
X120422795Y-92281697D01*
X120435400Y-92336166D01*
X120435400Y-92478605D01*
X120477761Y-92472434D01*
X120477765Y-92472433D01*
X120505367Y-92458939D01*
X120574240Y-92447178D01*
X120614288Y-92458936D01*
X120642891Y-92472920D01*
X120713451Y-92483200D01*
X120907348Y-92483199D01*
X120907350Y-92483199D01*
X120938884Y-92478605D01*
X120977909Y-92472920D01*
X121005939Y-92459216D01*
X121074809Y-92447456D01*
X121114859Y-92459215D01*
X121142891Y-92472920D01*
X121213451Y-92483200D01*
X121407348Y-92483199D01*
X121407350Y-92483199D01*
X121438884Y-92478605D01*
X121477909Y-92472920D01*
X121505939Y-92459216D01*
X121574809Y-92447456D01*
X121614859Y-92459215D01*
X121642891Y-92472920D01*
X121713451Y-92483200D01*
X121907348Y-92483199D01*
X121907350Y-92483199D01*
X121938884Y-92478605D01*
X121977909Y-92472920D01*
X122005939Y-92459216D01*
X122074809Y-92447456D01*
X122114859Y-92459215D01*
X122142891Y-92472920D01*
X122184318Y-92478955D01*
X122247818Y-92508100D01*
X122285482Y-92566949D01*
X122289145Y-92583784D01*
X122295179Y-92625208D01*
X122308884Y-92653243D01*
X122320641Y-92722116D01*
X122308884Y-92762157D01*
X122295181Y-92790188D01*
X122295180Y-92790191D01*
X122284900Y-92860751D01*
X122284900Y-92860755D01*
X122284900Y-92860756D01*
X122284900Y-93054650D01*
X122295179Y-93125207D01*
X122295179Y-93125208D01*
X122308884Y-93153243D01*
X122320641Y-93222116D01*
X122308884Y-93262157D01*
X122295181Y-93290188D01*
X122295180Y-93290191D01*
X122284900Y-93360751D01*
X122284900Y-93360755D01*
X122284900Y-93360756D01*
X122284900Y-93554650D01*
X122295179Y-93625207D01*
X122295179Y-93625208D01*
X122308884Y-93653243D01*
X122320641Y-93722116D01*
X122308884Y-93762157D01*
X122306470Y-93767096D01*
X122295180Y-93790191D01*
X122284900Y-93860751D01*
X122284900Y-93860755D01*
X122284900Y-93860756D01*
X122284900Y-94054650D01*
X122295179Y-94125207D01*
X122295179Y-94125208D01*
X122308884Y-94153243D01*
X122320641Y-94222116D01*
X122308884Y-94262157D01*
X122298774Y-94282839D01*
X122295180Y-94290191D01*
X122284900Y-94360751D01*
X122284900Y-94360755D01*
X122284900Y-94360756D01*
X122284900Y-94554650D01*
X122295179Y-94625207D01*
X122295179Y-94625208D01*
X122308884Y-94653243D01*
X122320641Y-94722116D01*
X122308884Y-94762157D01*
X122295181Y-94790188D01*
X122295180Y-94790190D01*
X122293627Y-94800847D01*
X122289146Y-94831613D01*
X122289145Y-94831617D01*
X122260000Y-94895118D01*
X122201151Y-94932782D01*
X122184316Y-94936445D01*
X122142891Y-94942479D01*
X122114857Y-94956184D01*
X122045984Y-94967941D01*
X122005943Y-94956184D01*
X121977911Y-94942481D01*
X121977909Y-94942480D01*
X121977902Y-94942479D01*
X121907349Y-94932200D01*
X121907343Y-94932200D01*
X121713449Y-94932200D01*
X121642892Y-94942479D01*
X121642891Y-94942479D01*
X121614857Y-94956184D01*
X121545984Y-94967941D01*
X121505943Y-94956184D01*
X121477911Y-94942481D01*
X121477909Y-94942480D01*
X121477902Y-94942479D01*
X121407349Y-94932200D01*
X121407343Y-94932200D01*
X121213449Y-94932200D01*
X121142892Y-94942479D01*
X121142891Y-94942479D01*
X121114857Y-94956184D01*
X121045984Y-94967941D01*
X121005943Y-94956184D01*
X120977911Y-94942481D01*
X120977909Y-94942480D01*
X120977902Y-94942479D01*
X120907349Y-94932200D01*
X120907343Y-94932200D01*
X120713449Y-94932200D01*
X120642892Y-94942479D01*
X120642891Y-94942479D01*
X120614857Y-94956184D01*
X120545984Y-94967941D01*
X120505943Y-94956184D01*
X120477911Y-94942481D01*
X120477909Y-94942480D01*
X120477902Y-94942479D01*
X120407349Y-94932200D01*
X120407343Y-94932200D01*
X120213449Y-94932200D01*
X120142892Y-94942479D01*
X120142891Y-94942479D01*
X120114857Y-94956184D01*
X120045984Y-94967941D01*
X120005943Y-94956184D01*
X119977911Y-94942481D01*
X119977909Y-94942480D01*
X119977902Y-94942479D01*
X119936480Y-94936444D01*
X119872981Y-94907301D01*
X119835317Y-94848452D01*
X119831654Y-94831613D01*
X119829986Y-94820160D01*
X119825620Y-94790191D01*
X119811916Y-94762160D01*
X119800156Y-94693291D01*
X119811915Y-94653240D01*
X119825620Y-94625209D01*
X119835900Y-94554649D01*
X119835899Y-94360752D01*
X119825620Y-94290191D01*
X119811916Y-94262160D01*
X119800156Y-94193291D01*
X119811915Y-94153240D01*
X119825620Y-94125209D01*
X119835900Y-94054649D01*
X119835899Y-93860752D01*
X119834216Y-93849202D01*
X119825620Y-93790193D01*
X119825620Y-93790191D01*
X119811916Y-93762160D01*
X119800156Y-93693291D01*
X119811915Y-93653240D01*
X119825620Y-93625209D01*
X119835900Y-93554649D01*
X119835899Y-93360752D01*
X119825620Y-93290191D01*
X119811916Y-93262160D01*
X119800156Y-93193291D01*
X119811915Y-93153240D01*
X119825620Y-93125209D01*
X119835900Y-93054649D01*
X119835899Y-92860752D01*
X119825620Y-92790191D01*
X119811916Y-92762160D01*
X119800156Y-92693291D01*
X119811915Y-92653240D01*
X119825620Y-92625209D01*
X119831655Y-92583780D01*
X119860799Y-92520281D01*
X119919648Y-92482617D01*
X119936478Y-92478955D01*
X119977909Y-92472920D01*
X120006508Y-92458938D01*
X120075379Y-92447178D01*
X120115431Y-92458938D01*
X120143035Y-92472433D01*
X120185400Y-92478605D01*
X120185400Y-92336166D01*
X120198004Y-92281697D01*
X120199006Y-92279647D01*
X120246138Y-92228072D01*
X120313674Y-92210164D01*
X120380171Y-92231612D01*
G37*
%TD.AperFunction*%
%TA.AperFunction,Conductor*%
G36*
X117004050Y-70499556D02*
G01*
X117252423Y-70515806D01*
X117268474Y-70517915D01*
X117508643Y-70565599D01*
X117524284Y-70569782D01*
X117756201Y-70648354D01*
X117771141Y-70654531D01*
X117990841Y-70762650D01*
X118004865Y-70770729D01*
X118208611Y-70906554D01*
X118221451Y-70916382D01*
X118405768Y-71077603D01*
X118417224Y-71089028D01*
X118578947Y-71272867D01*
X118588818Y-71285686D01*
X118725221Y-71489050D01*
X118733338Y-71503048D01*
X118776622Y-71590377D01*
X118841437Y-71721148D01*
X118842075Y-71722434D01*
X118848302Y-71737377D01*
X118856248Y-71760614D01*
X118927527Y-71969063D01*
X118931754Y-71984691D01*
X118980117Y-72224718D01*
X118982272Y-72240766D01*
X118999212Y-72488911D01*
X118999500Y-72497356D01*
X118999500Y-76072881D01*
X118999509Y-76073016D01*
X118999509Y-76205623D01*
X119033665Y-76617833D01*
X119033666Y-76617843D01*
X119101747Y-77025838D01*
X119101749Y-77025846D01*
X119203292Y-77426833D01*
X119203294Y-77426840D01*
X119203296Y-77426846D01*
X119316752Y-77757330D01*
X119337602Y-77818065D01*
X119474384Y-78129900D01*
X119503759Y-78196867D01*
X119503768Y-78196886D01*
X119700624Y-78560644D01*
X119700637Y-78560666D01*
X119926871Y-78906945D01*
X119926889Y-78906970D01*
X120180930Y-79233362D01*
X120180938Y-79233371D01*
X120461091Y-79537700D01*
X120668045Y-79728214D01*
X120765420Y-79817854D01*
X121091843Y-80071920D01*
X121421103Y-80287036D01*
X121438135Y-80298164D01*
X121801911Y-80495030D01*
X121801914Y-80495031D01*
X121801921Y-80495035D01*
X122180725Y-80661195D01*
X122571957Y-80795505D01*
X122972944Y-80897049D01*
X123380947Y-80965132D01*
X123380954Y-80965132D01*
X123380957Y-80965133D01*
X123652784Y-80987657D01*
X123793178Y-80999291D01*
X123934108Y-80999291D01*
X127434108Y-80999291D01*
X127495954Y-80999291D01*
X127504050Y-80999556D01*
X127505808Y-80999671D01*
X127752423Y-81015806D01*
X127768474Y-81017915D01*
X128008643Y-81065599D01*
X128024284Y-81069782D01*
X128256201Y-81148354D01*
X128271141Y-81154531D01*
X128490841Y-81262650D01*
X128504865Y-81270729D01*
X128708611Y-81406554D01*
X128721451Y-81416382D01*
X128905768Y-81577603D01*
X128917224Y-81589028D01*
X129078947Y-81772867D01*
X129088818Y-81785686D01*
X129225221Y-81989050D01*
X129233338Y-82003048D01*
X129252172Y-82041047D01*
X129341437Y-82221148D01*
X129342075Y-82222434D01*
X129348303Y-82237380D01*
X129427527Y-82469063D01*
X129431754Y-82484691D01*
X129480117Y-82724718D01*
X129482272Y-82740766D01*
X129499212Y-82988911D01*
X129499500Y-82997356D01*
X129499500Y-86103934D01*
X129479815Y-86170973D01*
X129433953Y-86213292D01*
X129421400Y-86220001D01*
X129421400Y-88696397D01*
X129433953Y-88703107D01*
X129483797Y-88752069D01*
X129499500Y-88812465D01*
X129499500Y-95194550D01*
X129479815Y-95261589D01*
X129427011Y-95307344D01*
X129357853Y-95317288D01*
X129294297Y-95288263D01*
X129276697Y-95269476D01*
X129267567Y-95257437D01*
X129147095Y-95166079D01*
X129006443Y-95110613D01*
X128918054Y-95100000D01*
X128750000Y-95100000D01*
X128750000Y-96376000D01*
X128730315Y-96443039D01*
X128677511Y-96488794D01*
X128626000Y-96500000D01*
X127092932Y-96500000D01*
X127141079Y-96622095D01*
X127232435Y-96742564D01*
X127352904Y-96833920D01*
X127493556Y-96889386D01*
X127581946Y-96900000D01*
X127654127Y-96900000D01*
X127721166Y-96919685D01*
X127766921Y-96972489D01*
X127776865Y-97041647D01*
X127747840Y-97105203D01*
X127701579Y-97138561D01*
X127548458Y-97201983D01*
X127548446Y-97201990D01*
X127400965Y-97300535D01*
X127400961Y-97300538D01*
X127275538Y-97425961D01*
X127275535Y-97425965D01*
X127176990Y-97573446D01*
X127176983Y-97573459D01*
X127109106Y-97737332D01*
X127109103Y-97737341D01*
X127074500Y-97911304D01*
X127074500Y-98088695D01*
X127109103Y-98262658D01*
X127109106Y-98262667D01*
X127176983Y-98426540D01*
X127176990Y-98426553D01*
X127275535Y-98574034D01*
X127275538Y-98574038D01*
X127400961Y-98699461D01*
X127400965Y-98699464D01*
X127548446Y-98798009D01*
X127548459Y-98798016D01*
X127605646Y-98821703D01*
X127712334Y-98865894D01*
X127732594Y-98869924D01*
X127775118Y-98878383D01*
X127837028Y-98910768D01*
X127871603Y-98971484D01*
X127867863Y-99041253D01*
X127826996Y-99097925D01*
X127775118Y-99121617D01*
X127712340Y-99134104D01*
X127712332Y-99134106D01*
X127548459Y-99201983D01*
X127548446Y-99201990D01*
X127400965Y-99300535D01*
X127400961Y-99300538D01*
X127275538Y-99425961D01*
X127275535Y-99425965D01*
X127176990Y-99573446D01*
X127176983Y-99573459D01*
X127109106Y-99737332D01*
X127109103Y-99737341D01*
X127074500Y-99911304D01*
X127074500Y-100088695D01*
X127109103Y-100262658D01*
X127109106Y-100262667D01*
X127176983Y-100426540D01*
X127176990Y-100426553D01*
X127275535Y-100574034D01*
X127275538Y-100574038D01*
X127400961Y-100699461D01*
X127400965Y-100699464D01*
X127548446Y-100798009D01*
X127548459Y-100798016D01*
X127664510Y-100846085D01*
X127712334Y-100865894D01*
X127717221Y-100866866D01*
X127775118Y-100878383D01*
X127837028Y-100910768D01*
X127871603Y-100971484D01*
X127867863Y-101041253D01*
X127826996Y-101097925D01*
X127775118Y-101121617D01*
X127712340Y-101134104D01*
X127712332Y-101134106D01*
X127548459Y-101201983D01*
X127548446Y-101201990D01*
X127400965Y-101300535D01*
X127400961Y-101300538D01*
X127275538Y-101425961D01*
X127275535Y-101425965D01*
X127176990Y-101573446D01*
X127176983Y-101573459D01*
X127109106Y-101737332D01*
X127109103Y-101737341D01*
X127074500Y-101911304D01*
X127074500Y-102088695D01*
X127109103Y-102262658D01*
X127109106Y-102262667D01*
X127176983Y-102426540D01*
X127176990Y-102426553D01*
X127275535Y-102574034D01*
X127275538Y-102574038D01*
X127400961Y-102699461D01*
X127400965Y-102699464D01*
X127548446Y-102798009D01*
X127548459Y-102798016D01*
X127671363Y-102848923D01*
X127712334Y-102865894D01*
X127732594Y-102869924D01*
X127775118Y-102878383D01*
X127837028Y-102910768D01*
X127871603Y-102971484D01*
X127867863Y-103041253D01*
X127826996Y-103097925D01*
X127775118Y-103121617D01*
X127712340Y-103134104D01*
X127712332Y-103134106D01*
X127548459Y-103201983D01*
X127548446Y-103201990D01*
X127400965Y-103300535D01*
X127400961Y-103300538D01*
X127275538Y-103425961D01*
X127275535Y-103425965D01*
X127176990Y-103573446D01*
X127176983Y-103573459D01*
X127109106Y-103737332D01*
X127109103Y-103737341D01*
X127074500Y-103911304D01*
X127074500Y-104088695D01*
X127109103Y-104262658D01*
X127109106Y-104262667D01*
X127176983Y-104426540D01*
X127176990Y-104426553D01*
X127275535Y-104574034D01*
X127275538Y-104574038D01*
X127400961Y-104699461D01*
X127400965Y-104699464D01*
X127548446Y-104798009D01*
X127548459Y-104798016D01*
X127671363Y-104848923D01*
X127712334Y-104865894D01*
X127712336Y-104865894D01*
X127712341Y-104865896D01*
X127886304Y-104900499D01*
X127886307Y-104900500D01*
X127886309Y-104900500D01*
X128613693Y-104900500D01*
X128613694Y-104900499D01*
X128671682Y-104888964D01*
X128787658Y-104865896D01*
X128787661Y-104865894D01*
X128787666Y-104865894D01*
X128951547Y-104798013D01*
X129099035Y-104699464D01*
X129224464Y-104574035D01*
X129272398Y-104502296D01*
X129326010Y-104457492D01*
X129395335Y-104448785D01*
X129458362Y-104478939D01*
X129495082Y-104538382D01*
X129499500Y-104571188D01*
X129499500Y-117028569D01*
X129499235Y-117036667D01*
X129484654Y-117259474D01*
X129482544Y-117275529D01*
X129434841Y-117515739D01*
X129430656Y-117531383D01*
X129352058Y-117763323D01*
X129345870Y-117778288D01*
X129237717Y-117998006D01*
X129229632Y-118012037D01*
X129093767Y-118215790D01*
X129083922Y-118228648D01*
X128922668Y-118412951D01*
X128911232Y-118424417D01*
X128727324Y-118586143D01*
X128714491Y-118596020D01*
X128511080Y-118732399D01*
X128497069Y-118740519D01*
X128277631Y-118849221D01*
X128262682Y-118855447D01*
X128030932Y-118934632D01*
X128015298Y-118938856D01*
X127775218Y-118987161D01*
X127759168Y-118989312D01*
X127603225Y-118999911D01*
X127578634Y-118999136D01*
X127572217Y-118998291D01*
X127572216Y-118998291D01*
X123934108Y-118998291D01*
X123926145Y-118998291D01*
X123926006Y-118998300D01*
X123793167Y-118998300D01*
X123380956Y-119032457D01*
X123380950Y-119032458D01*
X122972946Y-119100541D01*
X122972942Y-119100542D01*
X122906866Y-119117275D01*
X122571956Y-119202086D01*
X122571950Y-119202087D01*
X122571942Y-119202090D01*
X122180720Y-119336397D01*
X121801924Y-119502553D01*
X121801910Y-119502559D01*
X121438134Y-119699425D01*
X121091833Y-119925675D01*
X121091832Y-119925676D01*
X120765417Y-120179736D01*
X120461089Y-120459889D01*
X120180936Y-120764217D01*
X119926876Y-121090632D01*
X119926875Y-121090633D01*
X119700625Y-121436934D01*
X119503759Y-121800710D01*
X119503753Y-121800724D01*
X119337597Y-122179520D01*
X119203290Y-122570742D01*
X119203287Y-122570750D01*
X119203286Y-122570756D01*
X119141464Y-122814886D01*
X119101742Y-122971742D01*
X119101741Y-122971746D01*
X119033658Y-123379750D01*
X119033657Y-123379756D01*
X119000075Y-123785023D01*
X118990259Y-123810461D01*
X118997711Y-123825666D01*
X118999500Y-123846656D01*
X118999500Y-127494752D01*
X118999235Y-127502849D01*
X118982979Y-127751269D01*
X118980869Y-127767325D01*
X118933167Y-128007537D01*
X118928982Y-128023181D01*
X118850386Y-128255117D01*
X118844199Y-128270082D01*
X118736043Y-128489809D01*
X118727957Y-128503840D01*
X118592091Y-128707595D01*
X118582247Y-128720453D01*
X118420986Y-128904767D01*
X118409550Y-128916232D01*
X118225654Y-129077951D01*
X118212821Y-129087828D01*
X118009409Y-129224209D01*
X117995398Y-129232330D01*
X117775945Y-129341042D01*
X117760995Y-129347267D01*
X117529263Y-129426447D01*
X117513630Y-129430672D01*
X117273530Y-129478983D01*
X117257481Y-129481133D01*
X117028973Y-129496668D01*
X117009308Y-129498005D01*
X117000899Y-129498291D01*
X107804407Y-129498291D01*
X107737368Y-129478606D01*
X107691613Y-129425802D01*
X107681669Y-129356644D01*
X107710694Y-129293088D01*
X107729481Y-129275488D01*
X107742562Y-129265567D01*
X107833920Y-129145095D01*
X107889386Y-129004443D01*
X107900000Y-128916053D01*
X107900000Y-128748000D01*
X106624000Y-128748000D01*
X106556961Y-128728315D01*
X106511206Y-128675511D01*
X106500000Y-128624000D01*
X106500000Y-128198630D01*
X106625000Y-128198630D01*
X106625000Y-128297370D01*
X106650556Y-128392745D01*
X106699925Y-128478255D01*
X106769745Y-128548075D01*
X106855255Y-128597444D01*
X106950630Y-128623000D01*
X107049370Y-128623000D01*
X107144745Y-128597444D01*
X107230255Y-128548075D01*
X107300075Y-128478255D01*
X107349444Y-128392745D01*
X107375000Y-128297370D01*
X107375000Y-128198630D01*
X107349444Y-128103255D01*
X107300075Y-128017745D01*
X107230255Y-127947925D01*
X107144745Y-127898556D01*
X107049370Y-127873000D01*
X106950630Y-127873000D01*
X106855255Y-127898556D01*
X106769745Y-127947925D01*
X106699925Y-128017745D01*
X106650556Y-128103255D01*
X106625000Y-128198630D01*
X106500000Y-128198630D01*
X106500000Y-127748000D01*
X107500000Y-127748000D01*
X107900000Y-127748000D01*
X107900000Y-127579946D01*
X107889386Y-127491556D01*
X107833920Y-127350904D01*
X107742564Y-127230435D01*
X107622095Y-127139079D01*
X107500000Y-127090931D01*
X107500000Y-127748000D01*
X106500000Y-127748000D01*
X106500000Y-127090931D01*
X106377904Y-127139079D01*
X106257435Y-127230435D01*
X106166079Y-127350904D01*
X106110613Y-127491556D01*
X106100000Y-127579946D01*
X106100000Y-127652126D01*
X106080315Y-127719165D01*
X106027511Y-127764920D01*
X105958353Y-127774864D01*
X105894797Y-127745839D01*
X105861439Y-127699578D01*
X105798016Y-127546459D01*
X105798009Y-127546446D01*
X105699464Y-127398965D01*
X105699461Y-127398961D01*
X105574038Y-127273538D01*
X105574034Y-127273535D01*
X105426553Y-127174990D01*
X105426540Y-127174983D01*
X105262667Y-127107106D01*
X105262658Y-127107103D01*
X105088694Y-127072500D01*
X105088691Y-127072500D01*
X104911309Y-127072500D01*
X104911306Y-127072500D01*
X104737341Y-127107103D01*
X104737332Y-127107106D01*
X104573459Y-127174983D01*
X104573446Y-127174990D01*
X104425965Y-127273535D01*
X104425961Y-127273538D01*
X104300538Y-127398961D01*
X104300535Y-127398965D01*
X104201990Y-127546446D01*
X104201983Y-127546459D01*
X104134106Y-127710332D01*
X104134104Y-127710340D01*
X104121617Y-127773118D01*
X104089232Y-127835028D01*
X104028516Y-127869603D01*
X103958747Y-127865863D01*
X103902075Y-127824996D01*
X103878383Y-127773118D01*
X103869924Y-127730594D01*
X103865894Y-127710334D01*
X103811886Y-127579946D01*
X103798016Y-127546459D01*
X103798009Y-127546446D01*
X103699464Y-127398965D01*
X103699461Y-127398961D01*
X103574038Y-127273538D01*
X103574034Y-127273535D01*
X103426553Y-127174990D01*
X103426540Y-127174983D01*
X103262667Y-127107106D01*
X103262658Y-127107103D01*
X103088694Y-127072500D01*
X103088691Y-127072500D01*
X102911309Y-127072500D01*
X102911306Y-127072500D01*
X102737341Y-127107103D01*
X102737332Y-127107106D01*
X102573459Y-127174983D01*
X102573446Y-127174990D01*
X102425965Y-127273535D01*
X102425961Y-127273538D01*
X102300538Y-127398961D01*
X102300535Y-127398965D01*
X102201990Y-127546446D01*
X102201983Y-127546459D01*
X102134106Y-127710332D01*
X102134104Y-127710340D01*
X102121617Y-127773118D01*
X102089232Y-127835028D01*
X102028516Y-127869603D01*
X101958747Y-127865863D01*
X101902075Y-127824996D01*
X101878383Y-127773118D01*
X101869924Y-127730594D01*
X101865894Y-127710334D01*
X101811886Y-127579946D01*
X101798016Y-127546459D01*
X101798009Y-127546446D01*
X101699464Y-127398965D01*
X101699461Y-127398961D01*
X101574038Y-127273538D01*
X101574034Y-127273535D01*
X101426553Y-127174990D01*
X101426540Y-127174983D01*
X101262667Y-127107106D01*
X101262658Y-127107103D01*
X101088694Y-127072500D01*
X101088691Y-127072500D01*
X100911309Y-127072500D01*
X100911306Y-127072500D01*
X100737341Y-127107103D01*
X100737332Y-127107106D01*
X100573459Y-127174983D01*
X100573446Y-127174990D01*
X100425965Y-127273535D01*
X100425961Y-127273538D01*
X100300538Y-127398961D01*
X100300535Y-127398965D01*
X100201990Y-127546446D01*
X100201983Y-127546459D01*
X100134106Y-127710332D01*
X100134104Y-127710340D01*
X100121617Y-127773118D01*
X100089232Y-127835028D01*
X100028516Y-127869603D01*
X99958747Y-127865863D01*
X99902075Y-127824996D01*
X99878383Y-127773118D01*
X99869924Y-127730594D01*
X99865894Y-127710334D01*
X99811886Y-127579946D01*
X99798016Y-127546459D01*
X99798009Y-127546446D01*
X99699464Y-127398965D01*
X99699461Y-127398961D01*
X99574038Y-127273538D01*
X99574034Y-127273535D01*
X99426553Y-127174990D01*
X99426540Y-127174983D01*
X99262667Y-127107106D01*
X99262658Y-127107103D01*
X99088694Y-127072500D01*
X99088691Y-127072500D01*
X98911309Y-127072500D01*
X98911306Y-127072500D01*
X98737341Y-127107103D01*
X98737332Y-127107106D01*
X98573459Y-127174983D01*
X98573446Y-127174990D01*
X98425965Y-127273535D01*
X98425961Y-127273538D01*
X98300538Y-127398961D01*
X98300535Y-127398965D01*
X98201990Y-127546446D01*
X98201983Y-127546459D01*
X98134106Y-127710332D01*
X98134104Y-127710340D01*
X98121362Y-127774398D01*
X98088977Y-127836309D01*
X98028261Y-127870883D01*
X97958491Y-127867142D01*
X97901819Y-127826276D01*
X97878127Y-127774397D01*
X97865413Y-127710478D01*
X97797571Y-127546692D01*
X97797566Y-127546683D01*
X97699076Y-127399283D01*
X97699073Y-127399279D01*
X97573724Y-127273930D01*
X97573716Y-127273924D01*
X97500000Y-127224666D01*
X97500000Y-128624000D01*
X97480315Y-128691039D01*
X97427511Y-128736794D01*
X97376000Y-128748000D01*
X96624000Y-128748000D01*
X96556961Y-128728315D01*
X96511206Y-128675511D01*
X96500000Y-128624000D01*
X96500000Y-128198630D01*
X96625000Y-128198630D01*
X96625000Y-128297370D01*
X96650556Y-128392745D01*
X96699925Y-128478255D01*
X96769745Y-128548075D01*
X96855255Y-128597444D01*
X96950630Y-128623000D01*
X97049370Y-128623000D01*
X97144745Y-128597444D01*
X97230255Y-128548075D01*
X97300075Y-128478255D01*
X97349444Y-128392745D01*
X97375000Y-128297370D01*
X97375000Y-128198630D01*
X97349444Y-128103255D01*
X97300075Y-128017745D01*
X97230255Y-127947925D01*
X97144745Y-127898556D01*
X97049370Y-127873000D01*
X96950630Y-127873000D01*
X96855255Y-127898556D01*
X96769745Y-127947925D01*
X96699925Y-128017745D01*
X96650556Y-128103255D01*
X96625000Y-128198630D01*
X96500000Y-128198630D01*
X96500000Y-127224666D01*
X96499999Y-127224666D01*
X96426283Y-127273924D01*
X96426276Y-127273930D01*
X96300926Y-127399279D01*
X96300923Y-127399283D01*
X96202433Y-127546683D01*
X96202428Y-127546692D01*
X96134586Y-127710479D01*
X96134584Y-127710485D01*
X96121871Y-127774398D01*
X96089486Y-127836309D01*
X96028770Y-127870883D01*
X95959000Y-127867142D01*
X95902328Y-127826276D01*
X95878637Y-127774398D01*
X95865894Y-127710334D01*
X95811886Y-127579946D01*
X95798016Y-127546459D01*
X95798009Y-127546446D01*
X95699464Y-127398965D01*
X95699461Y-127398961D01*
X95574038Y-127273538D01*
X95574034Y-127273535D01*
X95426553Y-127174990D01*
X95426540Y-127174983D01*
X95262667Y-127107106D01*
X95262658Y-127107103D01*
X95088694Y-127072500D01*
X95088691Y-127072500D01*
X94911309Y-127072500D01*
X94911306Y-127072500D01*
X94737341Y-127107103D01*
X94737332Y-127107106D01*
X94573459Y-127174983D01*
X94573446Y-127174990D01*
X94425965Y-127273535D01*
X94425961Y-127273538D01*
X94300538Y-127398961D01*
X94300535Y-127398965D01*
X94201990Y-127546446D01*
X94201983Y-127546459D01*
X94134106Y-127710332D01*
X94134104Y-127710340D01*
X94121617Y-127773118D01*
X94089232Y-127835028D01*
X94028516Y-127869603D01*
X93958747Y-127865863D01*
X93902075Y-127824996D01*
X93878383Y-127773118D01*
X93869924Y-127730594D01*
X93865894Y-127710334D01*
X93811886Y-127579946D01*
X93798016Y-127546459D01*
X93798009Y-127546446D01*
X93699464Y-127398965D01*
X93699461Y-127398961D01*
X93574038Y-127273538D01*
X93574034Y-127273535D01*
X93426553Y-127174990D01*
X93426540Y-127174983D01*
X93262667Y-127107106D01*
X93262658Y-127107103D01*
X93088694Y-127072500D01*
X93088691Y-127072500D01*
X92911309Y-127072500D01*
X92911306Y-127072500D01*
X92737341Y-127107103D01*
X92737332Y-127107106D01*
X92573459Y-127174983D01*
X92573446Y-127174990D01*
X92425965Y-127273535D01*
X92425961Y-127273538D01*
X92300538Y-127398961D01*
X92300535Y-127398965D01*
X92201990Y-127546446D01*
X92201983Y-127546459D01*
X92134106Y-127710332D01*
X92134103Y-127710341D01*
X92099500Y-127884304D01*
X92099500Y-128611695D01*
X92134103Y-128785658D01*
X92134106Y-128785667D01*
X92201983Y-128949540D01*
X92201990Y-128949553D01*
X92300535Y-129097034D01*
X92300538Y-129097038D01*
X92425961Y-129222461D01*
X92425965Y-129222464D01*
X92498886Y-129271189D01*
X92543691Y-129324801D01*
X92552398Y-129394126D01*
X92522243Y-129457154D01*
X92462800Y-129493873D01*
X92429995Y-129498291D01*
X83004067Y-129498291D01*
X82995957Y-129498026D01*
X82747116Y-129481716D01*
X82731035Y-129479598D01*
X82697885Y-129473004D01*
X82490464Y-129431745D01*
X82474798Y-129427547D01*
X82242522Y-129348700D01*
X82227536Y-129342493D01*
X82007541Y-129234003D01*
X81993494Y-129225893D01*
X81789542Y-129089616D01*
X81776674Y-129079742D01*
X81592254Y-128918009D01*
X81580785Y-128906540D01*
X81419051Y-128722117D01*
X81409177Y-128709248D01*
X81272905Y-128505301D01*
X81264795Y-128491255D01*
X81216215Y-128392745D01*
X81156299Y-128271247D01*
X81150098Y-128256275D01*
X81071253Y-128024004D01*
X81067055Y-128008337D01*
X81019200Y-127767749D01*
X81017082Y-127751667D01*
X81014373Y-127710340D01*
X81000764Y-127502696D01*
X81000500Y-127494593D01*
X81000500Y-125278511D01*
X82198100Y-125278511D01*
X82198100Y-125521088D01*
X82229761Y-125761585D01*
X82292547Y-125995904D01*
X82385373Y-126220005D01*
X82385376Y-126220012D01*
X82506664Y-126430089D01*
X82506666Y-126430092D01*
X82506667Y-126430093D01*
X82654333Y-126622536D01*
X82654339Y-126622543D01*
X82825856Y-126794060D01*
X82825862Y-126794065D01*
X83018311Y-126941736D01*
X83228388Y-127063024D01*
X83452500Y-127155854D01*
X83686811Y-127218638D01*
X83867186Y-127242384D01*
X83927311Y-127250300D01*
X83927312Y-127250300D01*
X84169889Y-127250300D01*
X84217988Y-127243967D01*
X84410389Y-127218638D01*
X84644700Y-127155854D01*
X84868812Y-127063024D01*
X85078889Y-126941736D01*
X85271338Y-126794065D01*
X85440692Y-126624711D01*
X114405300Y-126624711D01*
X114405300Y-126867288D01*
X114436961Y-127107785D01*
X114499747Y-127342104D01*
X114591943Y-127564683D01*
X114592576Y-127566212D01*
X114713864Y-127776289D01*
X114713866Y-127776292D01*
X114713867Y-127776293D01*
X114861533Y-127968736D01*
X114861539Y-127968743D01*
X115033056Y-128140260D01*
X115033062Y-128140265D01*
X115225511Y-128287936D01*
X115435588Y-128409224D01*
X115659700Y-128502054D01*
X115894011Y-128564838D01*
X116074386Y-128588584D01*
X116134511Y-128596500D01*
X116134512Y-128596500D01*
X116377089Y-128596500D01*
X116425188Y-128590167D01*
X116617589Y-128564838D01*
X116851900Y-128502054D01*
X117076012Y-128409224D01*
X117286089Y-128287936D01*
X117478538Y-128140265D01*
X117650065Y-127968738D01*
X117797736Y-127776289D01*
X117919024Y-127566212D01*
X118011854Y-127342100D01*
X118074638Y-127107789D01*
X118106300Y-126867288D01*
X118106300Y-126624712D01*
X118106014Y-126622543D01*
X118074638Y-126384214D01*
X118074638Y-126384211D01*
X118011854Y-126149900D01*
X117919024Y-125925788D01*
X117797736Y-125715711D01*
X117650065Y-125523262D01*
X117650060Y-125523256D01*
X117478543Y-125351739D01*
X117478536Y-125351733D01*
X117286093Y-125204067D01*
X117286092Y-125204066D01*
X117286089Y-125204064D01*
X117076012Y-125082776D01*
X117076005Y-125082773D01*
X116851904Y-124989947D01*
X116617585Y-124927161D01*
X116377089Y-124895500D01*
X116377088Y-124895500D01*
X116134512Y-124895500D01*
X116134511Y-124895500D01*
X115894014Y-124927161D01*
X115659695Y-124989947D01*
X115435594Y-125082773D01*
X115435585Y-125082777D01*
X115225506Y-125204067D01*
X115033063Y-125351733D01*
X115033056Y-125351739D01*
X114861539Y-125523256D01*
X114861533Y-125523263D01*
X114713867Y-125715706D01*
X114592577Y-125925785D01*
X114592573Y-125925794D01*
X114499747Y-126149895D01*
X114436961Y-126384214D01*
X114405300Y-126624711D01*
X85440692Y-126624711D01*
X85442865Y-126622538D01*
X85590536Y-126430089D01*
X85711824Y-126220012D01*
X85804654Y-125995900D01*
X85867438Y-125761589D01*
X85899100Y-125521088D01*
X85899100Y-125278512D01*
X85867438Y-125038011D01*
X85804654Y-124803700D01*
X85711824Y-124579588D01*
X85590536Y-124369511D01*
X85442865Y-124177062D01*
X85442860Y-124177056D01*
X85271343Y-124005539D01*
X85271336Y-124005533D01*
X85078893Y-123857867D01*
X85078892Y-123857866D01*
X85078889Y-123857864D01*
X84868812Y-123736576D01*
X84868805Y-123736573D01*
X84644704Y-123643747D01*
X84410385Y-123580961D01*
X84169889Y-123549300D01*
X84169888Y-123549300D01*
X83927312Y-123549300D01*
X83927311Y-123549300D01*
X83686814Y-123580961D01*
X83452495Y-123643747D01*
X83228394Y-123736573D01*
X83228385Y-123736577D01*
X83046451Y-123841617D01*
X83018677Y-123857653D01*
X83018306Y-123857867D01*
X82825863Y-124005533D01*
X82825856Y-124005539D01*
X82654339Y-124177056D01*
X82654333Y-124177063D01*
X82506667Y-124369506D01*
X82385377Y-124579585D01*
X82385373Y-124579594D01*
X82292547Y-124803695D01*
X82229761Y-125038014D01*
X82198100Y-125278511D01*
X81000500Y-125278511D01*
X81000500Y-124008287D01*
X81000902Y-123801716D01*
X80995629Y-123736577D01*
X80967482Y-123388895D01*
X80900043Y-122980251D01*
X80799046Y-122578582D01*
X80665184Y-122186640D01*
X80662833Y-122181259D01*
X80499372Y-121807108D01*
X80302755Y-121442599D01*
X80302752Y-121442594D01*
X80302747Y-121442585D01*
X80076654Y-121095569D01*
X79822644Y-120768435D01*
X79546509Y-120467838D01*
X79542462Y-120463432D01*
X79542442Y-120463413D01*
X79332791Y-120270049D01*
X79238004Y-120182625D01*
X79105351Y-120079197D01*
X78911381Y-119927961D01*
X78693541Y-119785410D01*
X78564815Y-119701174D01*
X78564812Y-119701172D01*
X78564810Y-119701171D01*
X78564803Y-119701167D01*
X78390784Y-119606851D01*
X78200687Y-119503821D01*
X77821487Y-119337250D01*
X77821486Y-119337249D01*
X77821480Y-119337247D01*
X77429831Y-119202609D01*
X77429811Y-119202603D01*
X77028347Y-119100804D01*
X77026773Y-119100541D01*
X76619839Y-119032548D01*
X76619834Y-119032547D01*
X76619825Y-119032546D01*
X76207086Y-118998302D01*
X76207079Y-118998301D01*
X76072952Y-118998294D01*
X76072894Y-118998291D01*
X76065892Y-118998291D01*
X72504595Y-118998291D01*
X72496363Y-118998017D01*
X72248026Y-118981494D01*
X72231941Y-118979360D01*
X71991817Y-118931339D01*
X71976149Y-118927123D01*
X71744346Y-118848158D01*
X71729362Y-118841932D01*
X71524299Y-118740519D01*
X71509856Y-118733376D01*
X71495819Y-118725251D01*
X71292364Y-118588961D01*
X71279504Y-118579069D01*
X71251614Y-118554550D01*
X71233165Y-118538331D01*
X92124500Y-118538331D01*
X92124500Y-120628056D01*
X92124502Y-120628082D01*
X92127413Y-120653187D01*
X92127415Y-120653191D01*
X92172793Y-120755964D01*
X92172794Y-120755965D01*
X92252235Y-120835406D01*
X92355009Y-120880785D01*
X92380135Y-120883700D01*
X94469864Y-120883699D01*
X94469879Y-120883697D01*
X94469882Y-120883697D01*
X94494987Y-120880786D01*
X94494988Y-120880785D01*
X94494991Y-120880785D01*
X94597765Y-120835406D01*
X94646868Y-120786303D01*
X97929002Y-120786303D01*
X97978673Y-120809465D01*
X97978682Y-120809469D01*
X98198389Y-120868339D01*
X98198400Y-120868341D01*
X98424998Y-120888166D01*
X98425002Y-120888166D01*
X98651599Y-120868341D01*
X98651606Y-120868340D01*
X98871328Y-120809465D01*
X98920997Y-120786303D01*
X98425001Y-120290307D01*
X98425000Y-120290307D01*
X97929002Y-120786303D01*
X94646868Y-120786303D01*
X94677206Y-120755965D01*
X94722585Y-120653191D01*
X94725500Y-120628065D01*
X94725499Y-119583197D01*
X97120034Y-119583197D01*
X97120034Y-119583202D01*
X97139858Y-119809799D01*
X97139860Y-119809810D01*
X97198731Y-120029520D01*
X97221895Y-120079196D01*
X97717893Y-119583200D01*
X97717893Y-119583199D01*
X97652068Y-119517374D01*
X97925000Y-119517374D01*
X97925000Y-119649026D01*
X97959075Y-119776193D01*
X98024901Y-119890207D01*
X98117993Y-119983299D01*
X98232007Y-120049125D01*
X98359174Y-120083200D01*
X98490826Y-120083200D01*
X98617993Y-120049125D01*
X98732007Y-119983299D01*
X98825099Y-119890207D01*
X98890925Y-119776193D01*
X98925000Y-119649026D01*
X98925000Y-119583199D01*
X99132107Y-119583199D01*
X99132107Y-119583201D01*
X99628103Y-120079197D01*
X99651265Y-120029528D01*
X99710140Y-119809806D01*
X99710141Y-119809799D01*
X99729966Y-119583202D01*
X99729966Y-119583197D01*
X99710141Y-119356600D01*
X99710139Y-119356589D01*
X99651269Y-119136882D01*
X99651265Y-119136873D01*
X99628103Y-119087202D01*
X99132107Y-119583199D01*
X98925000Y-119583199D01*
X98925000Y-119517374D01*
X98890925Y-119390207D01*
X98825099Y-119276193D01*
X98732007Y-119183101D01*
X98617993Y-119117275D01*
X98490826Y-119083200D01*
X98359174Y-119083200D01*
X98232007Y-119117275D01*
X98117993Y-119183101D01*
X98024901Y-119276193D01*
X97959075Y-119390207D01*
X97925000Y-119517374D01*
X97652068Y-119517374D01*
X97221895Y-119087202D01*
X97198731Y-119136877D01*
X97139860Y-119356589D01*
X97139858Y-119356600D01*
X97120034Y-119583197D01*
X94725499Y-119583197D01*
X94725499Y-118538336D01*
X94725497Y-118538317D01*
X94722586Y-118513212D01*
X94722585Y-118513210D01*
X94722585Y-118513209D01*
X94677206Y-118410435D01*
X94646866Y-118380095D01*
X97929002Y-118380095D01*
X98425000Y-118876093D01*
X98425001Y-118876093D01*
X98920996Y-118380095D01*
X98871320Y-118356931D01*
X98651610Y-118298060D01*
X98651599Y-118298058D01*
X98425002Y-118278234D01*
X98424998Y-118278234D01*
X98198400Y-118298058D01*
X98198389Y-118298060D01*
X97978677Y-118356931D01*
X97929002Y-118380095D01*
X94646866Y-118380095D01*
X94597765Y-118330994D01*
X94597763Y-118330993D01*
X94494992Y-118285615D01*
X94469865Y-118282700D01*
X92380143Y-118282700D01*
X92380117Y-118282702D01*
X92355012Y-118285613D01*
X92355008Y-118285615D01*
X92252235Y-118330993D01*
X92172794Y-118410434D01*
X92127415Y-118513206D01*
X92127415Y-118513208D01*
X92124500Y-118538331D01*
X71233165Y-118538331D01*
X71095586Y-118417381D01*
X71084129Y-118405896D01*
X71061560Y-118380095D01*
X70922889Y-118221566D01*
X70913043Y-118208699D01*
X70777254Y-118004899D01*
X70769164Y-117990844D01*
X70766272Y-117984960D01*
X70661150Y-117771060D01*
X70654962Y-117756061D01*
X70621835Y-117658018D01*
X70576574Y-117524065D01*
X70572399Y-117508393D01*
X70524972Y-117268142D01*
X70522880Y-117252074D01*
X70507009Y-117004235D01*
X70506758Y-116996181D01*
X70506854Y-116933671D01*
X70504674Y-116925488D01*
X70500500Y-116893582D01*
X70500500Y-111575000D01*
X74051982Y-111575000D01*
X74065677Y-111609729D01*
X74152878Y-111724721D01*
X74267870Y-111811922D01*
X74267872Y-111811923D01*
X74327599Y-111835476D01*
X74327600Y-111835476D01*
X75227600Y-111835476D01*
X75287327Y-111811923D01*
X75287329Y-111811922D01*
X75402321Y-111724721D01*
X75489522Y-111609729D01*
X75503218Y-111575000D01*
X75227600Y-111575000D01*
X75227600Y-111835476D01*
X74327600Y-111835476D01*
X74327600Y-111575000D01*
X74051982Y-111575000D01*
X70500500Y-111575000D01*
X70500500Y-109308856D01*
X74002100Y-109308856D01*
X74002100Y-109841144D01*
X74006188Y-109875182D01*
X74012240Y-109925588D01*
X74065236Y-110059976D01*
X74152522Y-110175078D01*
X74253312Y-110251511D01*
X74294835Y-110307703D01*
X74299386Y-110377424D01*
X74265521Y-110438538D01*
X74253312Y-110449118D01*
X74152877Y-110525280D01*
X74065677Y-110640270D01*
X74051982Y-110675000D01*
X75503218Y-110675000D01*
X75489522Y-110640270D01*
X75402321Y-110525278D01*
X75301888Y-110449118D01*
X75260364Y-110392926D01*
X75255813Y-110323204D01*
X75289678Y-110262090D01*
X75301888Y-110251510D01*
X75402678Y-110175078D01*
X75425422Y-110145086D01*
X75489964Y-110059975D01*
X75542959Y-109925590D01*
X75553100Y-109841144D01*
X75553100Y-109308856D01*
X75542959Y-109224410D01*
X75489964Y-109090025D01*
X75489963Y-109090024D01*
X75489963Y-109090023D01*
X75402678Y-108974921D01*
X75287576Y-108887636D01*
X75153188Y-108834640D01*
X75109842Y-108829435D01*
X75068744Y-108824500D01*
X74486456Y-108824500D01*
X74448441Y-108829065D01*
X74402011Y-108834640D01*
X74267623Y-108887636D01*
X74152521Y-108974921D01*
X74065236Y-109090023D01*
X74012240Y-109224411D01*
X74006665Y-109270841D01*
X74002100Y-109308856D01*
X70500500Y-109308856D01*
X70500500Y-104955298D01*
X78574868Y-104955298D01*
X78574868Y-104955301D01*
X78595505Y-105112060D01*
X78595507Y-105112065D01*
X78658211Y-105263448D01*
X78665680Y-105332917D01*
X78658211Y-105358352D01*
X78595507Y-105509734D01*
X78595505Y-105509739D01*
X78574868Y-105666498D01*
X78574868Y-105666501D01*
X78595505Y-105823260D01*
X78595507Y-105823265D01*
X78658211Y-105974648D01*
X78665680Y-106044117D01*
X78658211Y-106069552D01*
X78595507Y-106220934D01*
X78595505Y-106220939D01*
X78574868Y-106377698D01*
X78574868Y-106377701D01*
X78595505Y-106534460D01*
X78595506Y-106534462D01*
X78647201Y-106659266D01*
X78656014Y-106680541D01*
X78752268Y-106805982D01*
X78877709Y-106902236D01*
X79023788Y-106962744D01*
X79102169Y-106973063D01*
X79180549Y-106983382D01*
X79180550Y-106983382D01*
X79180551Y-106983382D01*
X79232804Y-106976502D01*
X79337312Y-106962744D01*
X79483391Y-106902236D01*
X79511465Y-106880693D01*
X79576631Y-106855500D01*
X79645076Y-106869537D01*
X79662427Y-106880688D01*
X79690509Y-106902236D01*
X79690512Y-106902237D01*
X79690513Y-106902238D01*
X79759094Y-106930645D01*
X79836588Y-106962744D01*
X79914969Y-106973063D01*
X79993349Y-106983382D01*
X79993350Y-106983382D01*
X79993351Y-106983382D01*
X80045604Y-106976502D01*
X80150112Y-106962744D01*
X80296191Y-106902236D01*
X80349664Y-106861205D01*
X80414833Y-106836011D01*
X80483278Y-106850049D01*
X80500636Y-106861205D01*
X80554107Y-106902235D01*
X80554108Y-106902235D01*
X80554109Y-106902236D01*
X80700188Y-106962744D01*
X80778569Y-106973063D01*
X80856949Y-106983382D01*
X80856950Y-106983382D01*
X80856951Y-106983382D01*
X80909204Y-106976502D01*
X81013712Y-106962744D01*
X81159791Y-106902236D01*
X81200564Y-106870949D01*
X81265731Y-106845755D01*
X81334176Y-106859793D01*
X81351533Y-106870947D01*
X81392309Y-106902236D01*
X81392311Y-106902236D01*
X81392313Y-106902238D01*
X81460894Y-106930645D01*
X81538388Y-106962744D01*
X81616769Y-106973063D01*
X81695149Y-106983382D01*
X81695150Y-106983382D01*
X81695151Y-106983382D01*
X81747404Y-106976502D01*
X81851912Y-106962744D01*
X81997991Y-106902236D01*
X82038764Y-106870949D01*
X82103931Y-106845755D01*
X82172376Y-106859793D01*
X82189733Y-106870947D01*
X82230509Y-106902236D01*
X82230511Y-106902236D01*
X82230513Y-106902238D01*
X82299094Y-106930645D01*
X82376588Y-106962744D01*
X82454969Y-106973063D01*
X82533349Y-106983382D01*
X82533350Y-106983382D01*
X82533351Y-106983382D01*
X82572540Y-106978222D01*
X82690112Y-106962744D01*
X82749575Y-106938113D01*
X82819041Y-106930645D01*
X82881520Y-106961920D01*
X82917173Y-107022008D01*
X82921025Y-107052675D01*
X82921025Y-114206911D01*
X82901340Y-114273950D01*
X82848536Y-114319705D01*
X82779378Y-114329649D01*
X82767486Y-114327210D01*
X82609551Y-114306418D01*
X82609549Y-114306418D01*
X82452789Y-114327055D01*
X82452787Y-114327056D01*
X82306708Y-114387564D01*
X82265935Y-114418850D01*
X82200766Y-114444043D01*
X82132321Y-114430004D01*
X82114965Y-114418850D01*
X82074191Y-114387564D01*
X81928112Y-114327056D01*
X81928110Y-114327055D01*
X81771351Y-114306418D01*
X81771349Y-114306418D01*
X81614589Y-114327055D01*
X81614587Y-114327056D01*
X81468508Y-114387564D01*
X81427735Y-114418850D01*
X81362566Y-114444043D01*
X81294121Y-114430004D01*
X81276765Y-114418850D01*
X81235991Y-114387564D01*
X81089912Y-114327056D01*
X81089910Y-114327055D01*
X80933151Y-114306418D01*
X80933149Y-114306418D01*
X80776389Y-114327055D01*
X80776387Y-114327056D01*
X80630308Y-114387564D01*
X80576835Y-114428595D01*
X80511666Y-114453788D01*
X80443221Y-114439749D01*
X80425865Y-114428595D01*
X80372391Y-114387564D01*
X80226312Y-114327056D01*
X80226310Y-114327055D01*
X80069551Y-114306418D01*
X80069549Y-114306418D01*
X79912789Y-114327055D01*
X79912787Y-114327056D01*
X79766708Y-114387564D01*
X79738635Y-114409105D01*
X79673465Y-114434298D01*
X79605021Y-114420259D01*
X79587665Y-114409105D01*
X79559591Y-114387564D01*
X79413512Y-114327056D01*
X79413510Y-114327055D01*
X79256751Y-114306418D01*
X79256749Y-114306418D01*
X79099989Y-114327055D01*
X79099987Y-114327056D01*
X78953910Y-114387563D01*
X78828468Y-114483818D01*
X78732213Y-114609260D01*
X78671706Y-114755337D01*
X78671705Y-114755339D01*
X78651068Y-114912098D01*
X78651068Y-114912101D01*
X78671705Y-115068860D01*
X78671707Y-115068865D01*
X78734411Y-115220248D01*
X78741880Y-115289717D01*
X78734411Y-115315152D01*
X78671707Y-115466534D01*
X78671705Y-115466539D01*
X78651068Y-115623298D01*
X78651068Y-115623301D01*
X78671705Y-115780060D01*
X78671707Y-115780065D01*
X78734411Y-115931448D01*
X78741880Y-116000917D01*
X78734411Y-116026352D01*
X78671707Y-116177734D01*
X78671705Y-116177739D01*
X78651068Y-116334498D01*
X78651068Y-116334501D01*
X78671705Y-116491260D01*
X78671706Y-116491262D01*
X78732214Y-116637341D01*
X78828468Y-116762782D01*
X78953909Y-116859036D01*
X79099988Y-116919544D01*
X79145145Y-116925489D01*
X79256749Y-116940182D01*
X79256750Y-116940182D01*
X79256751Y-116940182D01*
X79309004Y-116933302D01*
X79413512Y-116919544D01*
X79559591Y-116859036D01*
X79587665Y-116837493D01*
X79652831Y-116812300D01*
X79721276Y-116826337D01*
X79738627Y-116837488D01*
X79766709Y-116859036D01*
X79766712Y-116859037D01*
X79766713Y-116859038D01*
X79839748Y-116889290D01*
X79912788Y-116919544D01*
X79957945Y-116925489D01*
X80069549Y-116940182D01*
X80069550Y-116940182D01*
X80069551Y-116940182D01*
X80121804Y-116933302D01*
X80226312Y-116919544D01*
X80372391Y-116859036D01*
X80415005Y-116826337D01*
X80425864Y-116818005D01*
X80491033Y-116792811D01*
X80559478Y-116806849D01*
X80576836Y-116818005D01*
X80630307Y-116859035D01*
X80630308Y-116859035D01*
X80630309Y-116859036D01*
X80776388Y-116919544D01*
X80821545Y-116925489D01*
X80933149Y-116940182D01*
X80933150Y-116940182D01*
X80933151Y-116940182D01*
X80985404Y-116933302D01*
X81089912Y-116919544D01*
X81235991Y-116859036D01*
X81276764Y-116827749D01*
X81341931Y-116802555D01*
X81410376Y-116816593D01*
X81427733Y-116827747D01*
X81468509Y-116859036D01*
X81468511Y-116859036D01*
X81468513Y-116859038D01*
X81541548Y-116889290D01*
X81614588Y-116919544D01*
X81659745Y-116925489D01*
X81771349Y-116940182D01*
X81771350Y-116940182D01*
X81771351Y-116940182D01*
X81823604Y-116933302D01*
X81928112Y-116919544D01*
X82074191Y-116859036D01*
X82114964Y-116827749D01*
X82180131Y-116802555D01*
X82248576Y-116816593D01*
X82265933Y-116827747D01*
X82306709Y-116859036D01*
X82306711Y-116859036D01*
X82306713Y-116859038D01*
X82379748Y-116889290D01*
X82452788Y-116919544D01*
X82497945Y-116925489D01*
X82609549Y-116940182D01*
X82609550Y-116940182D01*
X82609551Y-116940182D01*
X82661804Y-116933302D01*
X82766312Y-116919544D01*
X82912391Y-116859036D01*
X83037832Y-116762782D01*
X83134086Y-116637341D01*
X83194594Y-116491262D01*
X83215232Y-116334500D01*
X83194594Y-116177738D01*
X83158728Y-116091152D01*
X83151260Y-116021683D01*
X83182535Y-115959204D01*
X83242624Y-115923552D01*
X83273290Y-115919700D01*
X89171800Y-115919700D01*
X89171802Y-115919700D01*
X89273662Y-115892407D01*
X89364988Y-115839680D01*
X89439555Y-115765113D01*
X89492282Y-115673787D01*
X89519575Y-115571927D01*
X89519575Y-115002300D01*
X89539260Y-114935261D01*
X89592064Y-114889506D01*
X89643575Y-114878300D01*
X97877408Y-114878300D01*
X97944447Y-114897985D01*
X97990202Y-114950789D01*
X97993590Y-114958968D01*
X97997605Y-114969733D01*
X97997605Y-114969734D01*
X98083852Y-115084944D01*
X98083855Y-115084947D01*
X98199064Y-115171193D01*
X98199071Y-115171197D01*
X98244018Y-115187961D01*
X98333917Y-115221491D01*
X98393527Y-115227900D01*
X98889272Y-115227899D01*
X98948883Y-115221491D01*
X99083731Y-115171196D01*
X99198946Y-115084946D01*
X99285196Y-114969731D01*
X99335491Y-114834883D01*
X99341900Y-114775273D01*
X99341899Y-114129528D01*
X99335491Y-114069917D01*
X99334133Y-114066277D01*
X99285197Y-113935071D01*
X99285193Y-113935064D01*
X99198947Y-113819855D01*
X99198944Y-113819853D01*
X99184682Y-113809176D01*
X99141238Y-113776653D01*
X99099367Y-113720718D01*
X99094384Y-113651027D01*
X99127870Y-113589704D01*
X99141239Y-113578120D01*
X99198591Y-113535186D01*
X99284750Y-113420093D01*
X99328424Y-113303000D01*
X97954376Y-113303000D01*
X97998049Y-113420093D01*
X98084209Y-113535187D01*
X98084212Y-113535190D01*
X98141560Y-113578121D01*
X98183431Y-113634054D01*
X98188415Y-113703746D01*
X98154930Y-113765069D01*
X98141562Y-113776652D01*
X98083854Y-113819853D01*
X98083852Y-113819855D01*
X98004384Y-113926011D01*
X97948450Y-113967882D01*
X97905118Y-113975700D01*
X89643575Y-113975700D01*
X89576536Y-113956015D01*
X89530781Y-113903211D01*
X89519575Y-113851700D01*
X89519575Y-112503000D01*
X97954376Y-112503000D01*
X98241400Y-112503000D01*
X98241400Y-112168947D01*
X98199315Y-112184645D01*
X98199305Y-112184650D01*
X98084212Y-112270809D01*
X98084209Y-112270812D01*
X97998049Y-112385906D01*
X97954376Y-112503000D01*
X89519575Y-112503000D01*
X89519575Y-108897453D01*
X90693800Y-108897453D01*
X90704413Y-108985843D01*
X90759879Y-109126495D01*
X90851235Y-109246964D01*
X90971705Y-109338320D01*
X91056300Y-109371679D01*
X92056300Y-109371679D01*
X92140894Y-109338320D01*
X92261364Y-109246964D01*
X92352720Y-109126495D01*
X92408186Y-108985843D01*
X92418800Y-108897453D01*
X92418800Y-108729400D01*
X92056300Y-108729400D01*
X92056300Y-109371679D01*
X91056300Y-109371679D01*
X91056300Y-108729400D01*
X90693800Y-108729400D01*
X90693800Y-108897453D01*
X89519575Y-108897453D01*
X89519575Y-107561346D01*
X90693800Y-107561346D01*
X90693800Y-107729400D01*
X91056300Y-107729400D01*
X92056300Y-107729400D01*
X92418800Y-107729400D01*
X92418800Y-107561346D01*
X92408186Y-107472956D01*
X92352720Y-107332304D01*
X92261364Y-107211835D01*
X92140893Y-107120478D01*
X92056300Y-107087119D01*
X92056300Y-107729400D01*
X91056300Y-107729400D01*
X91056300Y-107087119D01*
X91056299Y-107087119D01*
X90971706Y-107120478D01*
X90851235Y-107211835D01*
X90759879Y-107332304D01*
X90704413Y-107472956D01*
X90693800Y-107561346D01*
X89519575Y-107561346D01*
X89519575Y-101801275D01*
X89519575Y-101801273D01*
X89492282Y-101699413D01*
X89439555Y-101608087D01*
X89364988Y-101533520D01*
X89273662Y-101480793D01*
X89171802Y-101453500D01*
X85330052Y-101453500D01*
X83374252Y-101453500D01*
X83268798Y-101453500D01*
X83166938Y-101480793D01*
X83166935Y-101480794D01*
X83075610Y-101533521D01*
X83001046Y-101608085D01*
X82948319Y-101699410D01*
X82948318Y-101699413D01*
X82921025Y-101801273D01*
X82921025Y-104280324D01*
X82901340Y-104347363D01*
X82848536Y-104393118D01*
X82779378Y-104403062D01*
X82749573Y-104394885D01*
X82690115Y-104370257D01*
X82690110Y-104370255D01*
X82533351Y-104349618D01*
X82533349Y-104349618D01*
X82376589Y-104370255D01*
X82376587Y-104370256D01*
X82230508Y-104430764D01*
X82189735Y-104462050D01*
X82124566Y-104487243D01*
X82056121Y-104473204D01*
X82038765Y-104462050D01*
X81997991Y-104430764D01*
X81851912Y-104370256D01*
X81851910Y-104370255D01*
X81695151Y-104349618D01*
X81695149Y-104349618D01*
X81538389Y-104370255D01*
X81538387Y-104370256D01*
X81392308Y-104430764D01*
X81351535Y-104462050D01*
X81286366Y-104487243D01*
X81217921Y-104473204D01*
X81200565Y-104462050D01*
X81159791Y-104430764D01*
X81013712Y-104370256D01*
X81013710Y-104370255D01*
X80856951Y-104349618D01*
X80856949Y-104349618D01*
X80700189Y-104370255D01*
X80700187Y-104370256D01*
X80554108Y-104430764D01*
X80500635Y-104471795D01*
X80435466Y-104496988D01*
X80367021Y-104482949D01*
X80349665Y-104471795D01*
X80296191Y-104430764D01*
X80150112Y-104370256D01*
X80150110Y-104370255D01*
X79993351Y-104349618D01*
X79993349Y-104349618D01*
X79836589Y-104370255D01*
X79836587Y-104370256D01*
X79690508Y-104430764D01*
X79662435Y-104452305D01*
X79597265Y-104477498D01*
X79528821Y-104463459D01*
X79511465Y-104452305D01*
X79483391Y-104430764D01*
X79337312Y-104370256D01*
X79337310Y-104370255D01*
X79180551Y-104349618D01*
X79180549Y-104349618D01*
X79023789Y-104370255D01*
X79023787Y-104370256D01*
X78877710Y-104430763D01*
X78752268Y-104527018D01*
X78656013Y-104652460D01*
X78595506Y-104798537D01*
X78595505Y-104798539D01*
X78574868Y-104955298D01*
X70500500Y-104955298D01*
X70500500Y-104241917D01*
X70520185Y-104174878D01*
X70572989Y-104129123D01*
X70642147Y-104119179D01*
X70684299Y-104136813D01*
X70685766Y-104134205D01*
X70693154Y-104138359D01*
X70693156Y-104138360D01*
X70693158Y-104138361D01*
X70833936Y-104193877D01*
X70922398Y-104204500D01*
X70922403Y-104204500D01*
X72458597Y-104204500D01*
X72458602Y-104204500D01*
X72547064Y-104193877D01*
X72687842Y-104138361D01*
X72808422Y-104046922D01*
X72899861Y-103926342D01*
X72955377Y-103785564D01*
X72966000Y-103697102D01*
X72966000Y-102410898D01*
X72955377Y-102322436D01*
X72899861Y-102181658D01*
X72899860Y-102181657D01*
X72899860Y-102181656D01*
X72808422Y-102061077D01*
X72687843Y-101969639D01*
X72547061Y-101914122D01*
X72501426Y-101908642D01*
X72458602Y-101903500D01*
X72168169Y-101903500D01*
X72101130Y-101883815D01*
X72055375Y-101831011D01*
X72045431Y-101761853D01*
X72074456Y-101698297D01*
X72129851Y-101661569D01*
X72257136Y-101620212D01*
X72257139Y-101620211D01*
X72264483Y-101616469D01*
X72418494Y-101537996D01*
X72542914Y-101447600D01*
X92004355Y-101447600D01*
X92024859Y-101616469D01*
X92024860Y-101616474D01*
X92085182Y-101775531D01*
X92107509Y-101807876D01*
X92181817Y-101915529D01*
X92247586Y-101973795D01*
X92309150Y-102028336D01*
X92422800Y-102087984D01*
X92459775Y-102107390D01*
X92624944Y-102148100D01*
X92656813Y-102148100D01*
X92723852Y-102167785D01*
X92744494Y-102184419D01*
X94784985Y-104224910D01*
X94866926Y-104272218D01*
X94899574Y-104291067D01*
X94899575Y-104291068D01*
X94910513Y-104297383D01*
X94910515Y-104297384D01*
X95050525Y-104334900D01*
X95428394Y-104334900D01*
X95495433Y-104354585D01*
X95507474Y-104363702D01*
X95509554Y-104365138D01*
X95634592Y-104430763D01*
X95660175Y-104444190D01*
X95825344Y-104484900D01*
X95995456Y-104484900D01*
X96160625Y-104444190D01*
X96257934Y-104393118D01*
X96311249Y-104365136D01*
X96311250Y-104365134D01*
X96311252Y-104365134D01*
X96438583Y-104252329D01*
X96535218Y-104112330D01*
X96595540Y-103953272D01*
X96616045Y-103784400D01*
X96611870Y-103750021D01*
X96623329Y-103681101D01*
X96670232Y-103629314D01*
X96737688Y-103611106D01*
X96804279Y-103632257D01*
X96822647Y-103647395D01*
X97175781Y-104000528D01*
X97209266Y-104061851D01*
X97212100Y-104088209D01*
X97212100Y-105797134D01*
X97212100Y-105909170D01*
X97241097Y-106017389D01*
X97297115Y-106114415D01*
X97297117Y-106114417D01*
X97861581Y-106678881D01*
X97895066Y-106740204D01*
X97897900Y-106766562D01*
X97897900Y-110840382D01*
X97897900Y-110952418D01*
X97914545Y-111014536D01*
X97926897Y-111060636D01*
X97926898Y-111060639D01*
X97934240Y-111073355D01*
X97982915Y-111157663D01*
X98821115Y-111995863D01*
X98900337Y-112075085D01*
X98972856Y-112116954D01*
X98979400Y-112120732D01*
X99027616Y-112171299D01*
X99041400Y-112228119D01*
X99041400Y-112503000D01*
X99328424Y-112503000D01*
X99284751Y-112385908D01*
X99264167Y-112358412D01*
X99239749Y-112292948D01*
X99254600Y-112224675D01*
X99304005Y-112175269D01*
X99363433Y-112160100D01*
X99568743Y-112160100D01*
X99635782Y-112179785D01*
X99681537Y-112232589D01*
X99691481Y-112301747D01*
X99668009Y-112358412D01*
X99647604Y-112385668D01*
X99647602Y-112385671D01*
X99597310Y-112520513D01*
X99597309Y-112520517D01*
X99590900Y-112580127D01*
X99590900Y-112580134D01*
X99590900Y-112580135D01*
X99590900Y-113225870D01*
X99590901Y-113225876D01*
X99597308Y-113285483D01*
X99647602Y-113420328D01*
X99647606Y-113420335D01*
X99733852Y-113535544D01*
X99733855Y-113535547D01*
X99791144Y-113578434D01*
X99833015Y-113634368D01*
X99837999Y-113704059D01*
X99804513Y-113765382D01*
X99791144Y-113776966D01*
X99733855Y-113819852D01*
X99733852Y-113819855D01*
X99647606Y-113935064D01*
X99647602Y-113935071D01*
X99598666Y-114066278D01*
X99597309Y-114069917D01*
X99590900Y-114129527D01*
X99590900Y-114129534D01*
X99590900Y-114129535D01*
X99590900Y-114775270D01*
X99590901Y-114775276D01*
X99597308Y-114834883D01*
X99647602Y-114969728D01*
X99647606Y-114969735D01*
X99733852Y-115084944D01*
X99733855Y-115084947D01*
X99849064Y-115171193D01*
X99849071Y-115171197D01*
X99894018Y-115187961D01*
X99983917Y-115221491D01*
X100043527Y-115227900D01*
X100539272Y-115227899D01*
X100598883Y-115221491D01*
X100733731Y-115171196D01*
X100754064Y-115155974D01*
X100819523Y-115131556D01*
X100887797Y-115146405D01*
X100916055Y-115167559D01*
X100918517Y-115170021D01*
X100952002Y-115231344D01*
X100953775Y-115241516D01*
X100964155Y-115320361D01*
X101024663Y-115466439D01*
X101024664Y-115466441D01*
X101120918Y-115591882D01*
X101246359Y-115688136D01*
X101392438Y-115748644D01*
X101470819Y-115758963D01*
X101549199Y-115769282D01*
X101549200Y-115769282D01*
X101549201Y-115769282D01*
X101601454Y-115762402D01*
X101705962Y-115748644D01*
X101852041Y-115688136D01*
X101897813Y-115653013D01*
X101962979Y-115627820D01*
X102031424Y-115641858D01*
X102048780Y-115653012D01*
X102075854Y-115673786D01*
X102160757Y-115738935D01*
X102161382Y-115739194D01*
X102161828Y-115739553D01*
X102167796Y-115742999D01*
X102167258Y-115743929D01*
X102215787Y-115783034D01*
X102237853Y-115849327D01*
X102220575Y-115917027D01*
X102201613Y-115941437D01*
X101643537Y-116499515D01*
X101564317Y-116578734D01*
X101564313Y-116578740D01*
X101508298Y-116675760D01*
X101508297Y-116675763D01*
X101479300Y-116783982D01*
X101479300Y-117545982D01*
X101479300Y-117658018D01*
X101507501Y-117763264D01*
X101508297Y-117766236D01*
X101508298Y-117766239D01*
X101513428Y-117775124D01*
X101564315Y-117863263D01*
X102380137Y-118679085D01*
X102477163Y-118735103D01*
X102585382Y-118764100D01*
X102585384Y-118764100D01*
X103967416Y-118764100D01*
X103967418Y-118764100D01*
X104075637Y-118735103D01*
X104172663Y-118679085D01*
X104376034Y-118475713D01*
X104437355Y-118442230D01*
X104507046Y-118447214D01*
X104562980Y-118489085D01*
X104587397Y-118554550D01*
X104578274Y-118610848D01*
X104545557Y-118689834D01*
X104545555Y-118689839D01*
X104524918Y-118846598D01*
X104524918Y-118846601D01*
X104545555Y-119003360D01*
X104545556Y-119003362D01*
X104606064Y-119149441D01*
X104679477Y-119245115D01*
X104704670Y-119310281D01*
X104705100Y-119320599D01*
X104705100Y-119558789D01*
X104685415Y-119625828D01*
X104668781Y-119646470D01*
X104326693Y-119988557D01*
X104265370Y-120022042D01*
X104255198Y-120023815D01*
X104154331Y-120037094D01*
X104135638Y-120039556D01*
X104135637Y-120039556D01*
X103989560Y-120100063D01*
X103864118Y-120196318D01*
X103767863Y-120321760D01*
X103707356Y-120467837D01*
X103707355Y-120467839D01*
X103686718Y-120624598D01*
X103686718Y-120624601D01*
X103707355Y-120781360D01*
X103707356Y-120781362D01*
X103749744Y-120883697D01*
X103767864Y-120927441D01*
X103864118Y-121052882D01*
X103989559Y-121149136D01*
X104135638Y-121209644D01*
X104214019Y-121219963D01*
X104292399Y-121230282D01*
X104292400Y-121230282D01*
X104292401Y-121230282D01*
X104344654Y-121223402D01*
X104449162Y-121209644D01*
X104595241Y-121149136D01*
X104720682Y-121052882D01*
X104816936Y-120927441D01*
X104877444Y-120781362D01*
X104893184Y-120661798D01*
X104921450Y-120597904D01*
X104928429Y-120590317D01*
X105471085Y-120047663D01*
X105527103Y-119950637D01*
X105556100Y-119842418D01*
X105556100Y-119730381D01*
X105556100Y-119320599D01*
X105575785Y-119253560D01*
X105581710Y-119245131D01*
X105655136Y-119149441D01*
X105715644Y-119003362D01*
X105736282Y-118846600D01*
X105735667Y-118841932D01*
X105721247Y-118732399D01*
X105715644Y-118689838D01*
X105655136Y-118543759D01*
X105558882Y-118418318D01*
X105433441Y-118322064D01*
X105400651Y-118308482D01*
X105287362Y-118261556D01*
X105287360Y-118261555D01*
X105130601Y-118240918D01*
X105130599Y-118240918D01*
X104973839Y-118261555D01*
X104973834Y-118261557D01*
X104894848Y-118294274D01*
X104825379Y-118301743D01*
X104762900Y-118270467D01*
X104727248Y-118210378D01*
X104729742Y-118140553D01*
X104759711Y-118092036D01*
X104914931Y-117936816D01*
X104976252Y-117903334D01*
X105002610Y-117900500D01*
X109723048Y-117900500D01*
X109790087Y-117920185D01*
X109835842Y-117972989D01*
X109845987Y-118040685D01*
X109833518Y-118135398D01*
X109833518Y-118135401D01*
X109853581Y-118287801D01*
X109854156Y-118292162D01*
X109860917Y-118308485D01*
X109868385Y-118377952D01*
X109837109Y-118440431D01*
X109834036Y-118443615D01*
X108717437Y-119560215D01*
X107101517Y-121176134D01*
X107101513Y-121176140D01*
X107045498Y-121273160D01*
X107045497Y-121273163D01*
X107016500Y-121381382D01*
X107016500Y-121782079D01*
X106996815Y-121849118D01*
X106944011Y-121894873D01*
X106937298Y-121897704D01*
X106926987Y-121901698D01*
X106926979Y-121901702D01*
X106745699Y-122013947D01*
X106588127Y-122157593D01*
X106459632Y-122327746D01*
X106364596Y-122518605D01*
X106364596Y-122518607D01*
X106306244Y-122723689D01*
X106292671Y-122870174D01*
X106286571Y-122936000D01*
X106306244Y-123148310D01*
X106359675Y-123336099D01*
X106364596Y-123353392D01*
X106364596Y-123353394D01*
X106459632Y-123544253D01*
X106587874Y-123714071D01*
X106588128Y-123714407D01*
X106745698Y-123858052D01*
X106926981Y-123970298D01*
X107125802Y-124047321D01*
X107335390Y-124086500D01*
X107335392Y-124086500D01*
X107548608Y-124086500D01*
X107548610Y-124086500D01*
X107758198Y-124047321D01*
X107957019Y-123970298D01*
X108138302Y-123858052D01*
X108295872Y-123714407D01*
X108424366Y-123544255D01*
X108478270Y-123436000D01*
X108519403Y-123353394D01*
X108519403Y-123353393D01*
X108519405Y-123353389D01*
X108577756Y-123148310D01*
X108588529Y-123032047D01*
X108614315Y-122967111D01*
X108658869Y-122935194D01*
X108622497Y-122914331D01*
X108590307Y-122852318D01*
X108588529Y-122839951D01*
X108582969Y-122779951D01*
X108577756Y-122723690D01*
X108519405Y-122518611D01*
X108519403Y-122518606D01*
X108519403Y-122518605D01*
X108424367Y-122327746D01*
X108295872Y-122157593D01*
X108215407Y-122084239D01*
X108138302Y-122013948D01*
X108077040Y-121976016D01*
X107957020Y-121901702D01*
X107957012Y-121901698D01*
X107946702Y-121897704D01*
X107891302Y-121855129D01*
X107867714Y-121789361D01*
X107867500Y-121782079D01*
X107867500Y-121665010D01*
X107887185Y-121597971D01*
X107903819Y-121577329D01*
X109319185Y-120161963D01*
X109555478Y-119925670D01*
X110279419Y-119201727D01*
X110340740Y-119168244D01*
X110410431Y-119173228D01*
X110466365Y-119215099D01*
X110472424Y-119224285D01*
X110473463Y-119225639D01*
X110473464Y-119225641D01*
X110546877Y-119321315D01*
X110572070Y-119386481D01*
X110572500Y-119396799D01*
X110572500Y-121692388D01*
X110552815Y-121759427D01*
X110536180Y-121780070D01*
X110494708Y-121821541D01*
X110433385Y-121855026D01*
X110363693Y-121850040D01*
X110362235Y-121849486D01*
X110298203Y-121824680D01*
X110281411Y-121821541D01*
X110088610Y-121785500D01*
X109875390Y-121785500D01*
X109665802Y-121824679D01*
X109665799Y-121824679D01*
X109665799Y-121824680D01*
X109466982Y-121901701D01*
X109466980Y-121901702D01*
X109285699Y-122013947D01*
X109128127Y-122157593D01*
X108999632Y-122327746D01*
X108904596Y-122518605D01*
X108904596Y-122518607D01*
X108846244Y-122723689D01*
X108835471Y-122839951D01*
X108809685Y-122904888D01*
X108765130Y-122936804D01*
X108801503Y-122957668D01*
X108833693Y-123019681D01*
X108835470Y-123032047D01*
X108846244Y-123148310D01*
X108899675Y-123336099D01*
X108904596Y-123353392D01*
X108904596Y-123353394D01*
X108999632Y-123544253D01*
X109127874Y-123714071D01*
X109128128Y-123714407D01*
X109285698Y-123858052D01*
X109466981Y-123970298D01*
X109665802Y-124047321D01*
X109875390Y-124086500D01*
X109875392Y-124086500D01*
X110088608Y-124086500D01*
X110088610Y-124086500D01*
X110298198Y-124047321D01*
X110497019Y-123970298D01*
X110678302Y-123858052D01*
X110835872Y-123714407D01*
X110964366Y-123544255D01*
X111018270Y-123436000D01*
X111486288Y-123436000D01*
X111540059Y-123543989D01*
X111668500Y-123714071D01*
X111826000Y-123857651D01*
X111826002Y-123857653D01*
X112007202Y-123969847D01*
X112007204Y-123969848D01*
X112022000Y-123975579D01*
X112022000Y-123975578D01*
X113022000Y-123975578D01*
X113036795Y-123969848D01*
X113036797Y-123969847D01*
X113217997Y-123857653D01*
X113217999Y-123857651D01*
X113375499Y-123714071D01*
X113503940Y-123543989D01*
X113557712Y-123436000D01*
X113022000Y-123436000D01*
X113022000Y-123975578D01*
X112022000Y-123975578D01*
X112022000Y-123436000D01*
X111486288Y-123436000D01*
X111018270Y-123436000D01*
X111059403Y-123353394D01*
X111059403Y-123353393D01*
X111059405Y-123353389D01*
X111117756Y-123148310D01*
X111137429Y-122936000D01*
X111131329Y-122870174D01*
X112022000Y-122870174D01*
X112022000Y-123001826D01*
X112056075Y-123128993D01*
X112121901Y-123243007D01*
X112214993Y-123336099D01*
X112329007Y-123401925D01*
X112456174Y-123436000D01*
X112587826Y-123436000D01*
X112714993Y-123401925D01*
X112829007Y-123336099D01*
X112922099Y-123243007D01*
X112987925Y-123128993D01*
X113022000Y-123001826D01*
X113022000Y-122870174D01*
X112987925Y-122743007D01*
X112922099Y-122628993D01*
X112829007Y-122535901D01*
X112714993Y-122470075D01*
X112587826Y-122436000D01*
X113022000Y-122436000D01*
X113557712Y-122436000D01*
X113557712Y-122435999D01*
X113503940Y-122328010D01*
X113375499Y-122157928D01*
X113217999Y-122014348D01*
X113217997Y-122014346D01*
X113036801Y-121902155D01*
X113036793Y-121902151D01*
X113022000Y-121896419D01*
X113022000Y-122436000D01*
X112587826Y-122436000D01*
X112456174Y-122436000D01*
X112329007Y-122470075D01*
X112214993Y-122535901D01*
X112121901Y-122628993D01*
X112056075Y-122743007D01*
X112022000Y-122870174D01*
X111131329Y-122870174D01*
X111117756Y-122723690D01*
X111066440Y-122543336D01*
X111067026Y-122473470D01*
X111089471Y-122435999D01*
X111486287Y-122435999D01*
X111486288Y-122436000D01*
X112022000Y-122436000D01*
X112022000Y-121896420D01*
X112021999Y-121896419D01*
X112007206Y-121902151D01*
X112007198Y-121902155D01*
X111826002Y-122014346D01*
X111826000Y-122014348D01*
X111668500Y-122157928D01*
X111540059Y-122328010D01*
X111486287Y-122435999D01*
X111089471Y-122435999D01*
X111098021Y-122421725D01*
X111338485Y-122181263D01*
X111394503Y-122084237D01*
X111423500Y-121976018D01*
X111423500Y-121863982D01*
X111423500Y-120212982D01*
X111423500Y-119396799D01*
X111443185Y-119329760D01*
X111449110Y-119321331D01*
X111522536Y-119225641D01*
X111583044Y-119079562D01*
X111603682Y-118922800D01*
X111600062Y-118895306D01*
X111583044Y-118766039D01*
X111583044Y-118766038D01*
X111522536Y-118619959D01*
X111426282Y-118494518D01*
X111300841Y-118398264D01*
X111300839Y-118398263D01*
X111154761Y-118337755D01*
X111144353Y-118336385D01*
X111143504Y-118336273D01*
X111079609Y-118308007D01*
X111066279Y-118287798D01*
X113186318Y-118287798D01*
X113186318Y-118287801D01*
X113206955Y-118444560D01*
X113206956Y-118444562D01*
X113252514Y-118554550D01*
X113267464Y-118590641D01*
X113363718Y-118716082D01*
X113489159Y-118812336D01*
X113635238Y-118872844D01*
X113754798Y-118888584D01*
X113818695Y-118916850D01*
X113826294Y-118923842D01*
X114600181Y-119697729D01*
X114633666Y-119759052D01*
X114636500Y-119785410D01*
X114636500Y-121782079D01*
X114616815Y-121849118D01*
X114564011Y-121894873D01*
X114557298Y-121897704D01*
X114546987Y-121901698D01*
X114546979Y-121901702D01*
X114365699Y-122013947D01*
X114208127Y-122157593D01*
X114079632Y-122327746D01*
X113984596Y-122518605D01*
X113984596Y-122518607D01*
X113926244Y-122723689D01*
X113912671Y-122870174D01*
X113906571Y-122936000D01*
X113926244Y-123148310D01*
X113979675Y-123336099D01*
X113984596Y-123353392D01*
X113984596Y-123353394D01*
X114079632Y-123544253D01*
X114207874Y-123714071D01*
X114208128Y-123714407D01*
X114365698Y-123858052D01*
X114546981Y-123970298D01*
X114745802Y-124047321D01*
X114955390Y-124086500D01*
X114955392Y-124086500D01*
X115168608Y-124086500D01*
X115168610Y-124086500D01*
X115378198Y-124047321D01*
X115577019Y-123970298D01*
X115758302Y-123858052D01*
X115915872Y-123714407D01*
X116044366Y-123544255D01*
X116098270Y-123436000D01*
X116139403Y-123353394D01*
X116139403Y-123353393D01*
X116139405Y-123353389D01*
X116197756Y-123148310D01*
X116204029Y-123080605D01*
X116229814Y-123015669D01*
X116286614Y-122974981D01*
X116356395Y-122971461D01*
X116417002Y-123006225D01*
X116449193Y-123068238D01*
X116451500Y-123092047D01*
X116451500Y-123830856D01*
X116451502Y-123830882D01*
X116454413Y-123855987D01*
X116454415Y-123855991D01*
X116499793Y-123958764D01*
X116499794Y-123958765D01*
X116579235Y-124038206D01*
X116682009Y-124083585D01*
X116707135Y-124086500D01*
X118496864Y-124086499D01*
X118496879Y-124086497D01*
X118496882Y-124086497D01*
X118521987Y-124083586D01*
X118521988Y-124083585D01*
X118521991Y-124083585D01*
X118624765Y-124038206D01*
X118704206Y-123958765D01*
X118749585Y-123855991D01*
X118752326Y-123832365D01*
X118761219Y-123811394D01*
X118755043Y-123799773D01*
X118752499Y-123774792D01*
X118752499Y-122041136D01*
X118752497Y-122041117D01*
X118749586Y-122016012D01*
X118749585Y-122016010D01*
X118749585Y-122016009D01*
X118704206Y-121913235D01*
X118624765Y-121833794D01*
X118604124Y-121824680D01*
X118521992Y-121788415D01*
X118496865Y-121785500D01*
X116707143Y-121785500D01*
X116707117Y-121785502D01*
X116682012Y-121788413D01*
X116682008Y-121788415D01*
X116579235Y-121833793D01*
X116499794Y-121913234D01*
X116454415Y-122016006D01*
X116454415Y-122016008D01*
X116451500Y-122041131D01*
X116451500Y-122779951D01*
X116431815Y-122846990D01*
X116379011Y-122892745D01*
X116309853Y-122902689D01*
X116246297Y-122873664D01*
X116208523Y-122814886D01*
X116204029Y-122791391D01*
X116197756Y-122723689D01*
X116170812Y-122628993D01*
X116139405Y-122518611D01*
X116139403Y-122518606D01*
X116139403Y-122518605D01*
X116044367Y-122327746D01*
X115915872Y-122157593D01*
X115835407Y-122084239D01*
X115758302Y-122013948D01*
X115697040Y-121976016D01*
X115577020Y-121901702D01*
X115577012Y-121901698D01*
X115566702Y-121897704D01*
X115511302Y-121855129D01*
X115487714Y-121789361D01*
X115487500Y-121782079D01*
X115487500Y-119501784D01*
X115487500Y-119501782D01*
X115458503Y-119393563D01*
X115402485Y-119296537D01*
X115323263Y-119217315D01*
X114980363Y-118874415D01*
X114428042Y-118322094D01*
X114394557Y-118260771D01*
X114392784Y-118250598D01*
X114392663Y-118249682D01*
X114377044Y-118131038D01*
X114316536Y-117984959D01*
X114220282Y-117859518D01*
X114094841Y-117763264D01*
X114077451Y-117756061D01*
X113948762Y-117702756D01*
X113948760Y-117702755D01*
X113792001Y-117682118D01*
X113791999Y-117682118D01*
X113635239Y-117702755D01*
X113635237Y-117702756D01*
X113489160Y-117763263D01*
X113363718Y-117859518D01*
X113267463Y-117984960D01*
X113206956Y-118131037D01*
X113206955Y-118131039D01*
X113186318Y-118287798D01*
X111066279Y-118287798D01*
X111041138Y-118249682D01*
X111036752Y-118197151D01*
X111044882Y-118135400D01*
X111044308Y-118131037D01*
X111032413Y-118040685D01*
X111043179Y-117971650D01*
X111089559Y-117919394D01*
X111155352Y-117900500D01*
X111409616Y-117900500D01*
X111409618Y-117900500D01*
X111517837Y-117871503D01*
X111614863Y-117815485D01*
X112277185Y-117153163D01*
X112312651Y-117091733D01*
X112344548Y-117055360D01*
X112364982Y-117039682D01*
X112461236Y-116914241D01*
X112521744Y-116768162D01*
X112542382Y-116611400D01*
X112538081Y-116578734D01*
X112521744Y-116454639D01*
X112521744Y-116454638D01*
X112461236Y-116308559D01*
X112364982Y-116183118D01*
X112239541Y-116086864D01*
X112093462Y-116026356D01*
X112093460Y-116026355D01*
X111936701Y-116005718D01*
X111936699Y-116005718D01*
X111779939Y-116026355D01*
X111779937Y-116026356D01*
X111633860Y-116086863D01*
X111508418Y-116183118D01*
X111412163Y-116308560D01*
X111351656Y-116454637D01*
X111351655Y-116454639D01*
X111331018Y-116611398D01*
X111331018Y-116611401D01*
X111351655Y-116768160D01*
X111353760Y-116776013D01*
X111352279Y-116776409D01*
X111358766Y-116836775D01*
X111327487Y-116899252D01*
X111324419Y-116902431D01*
X111213672Y-117013180D01*
X111152349Y-117046666D01*
X111125990Y-117049500D01*
X104718982Y-117049500D01*
X104610763Y-117078497D01*
X104610760Y-117078498D01*
X104513740Y-117134513D01*
X104513734Y-117134517D01*
X104081358Y-117566893D01*
X104020035Y-117600378D01*
X103950343Y-117595394D01*
X103894410Y-117553522D01*
X103869993Y-117488058D01*
X103870737Y-117463032D01*
X103885882Y-117348000D01*
X103881144Y-117312012D01*
X103891909Y-117242977D01*
X103916402Y-117208145D01*
X106098107Y-115026441D01*
X108315885Y-112808663D01*
X108343929Y-112780619D01*
X108405252Y-112747134D01*
X108431610Y-112744300D01*
X110235288Y-112744300D01*
X110302327Y-112763985D01*
X110348082Y-112816789D01*
X110358227Y-112852116D01*
X110362155Y-112881959D01*
X110362156Y-112881962D01*
X110378152Y-112920581D01*
X110422664Y-113028041D01*
X110518918Y-113153482D01*
X110518920Y-113153483D01*
X110521076Y-113156293D01*
X110546270Y-113221463D01*
X110546700Y-113231780D01*
X110546700Y-113539926D01*
X110573993Y-113641789D01*
X110594265Y-113676900D01*
X110626720Y-113733113D01*
X111134719Y-114241112D01*
X111134720Y-114241113D01*
X111209287Y-114315680D01*
X111300613Y-114368407D01*
X111402473Y-114395700D01*
X111758073Y-114395700D01*
X117701673Y-114395700D01*
X118451665Y-114395700D01*
X118518704Y-114415385D01*
X118564459Y-114468189D01*
X118574403Y-114537347D01*
X118568211Y-114559913D01*
X118566356Y-114566836D01*
X118566357Y-114566837D01*
X118566356Y-114566839D01*
X118550615Y-114686398D01*
X118522348Y-114750294D01*
X118515358Y-114757893D01*
X118317469Y-114955782D01*
X118256149Y-114989266D01*
X118229790Y-114992100D01*
X115586801Y-114992100D01*
X115519762Y-114972415D01*
X115511315Y-114966476D01*
X115415642Y-114893064D01*
X115269562Y-114832556D01*
X115269560Y-114832555D01*
X115112801Y-114811918D01*
X115112799Y-114811918D01*
X114956039Y-114832555D01*
X114956037Y-114832556D01*
X114809960Y-114893063D01*
X114684518Y-114989318D01*
X114588263Y-115114760D01*
X114527756Y-115260837D01*
X114527755Y-115260839D01*
X114518745Y-115329282D01*
X114507118Y-115417600D01*
X114527756Y-115574362D01*
X114588264Y-115720441D01*
X114684518Y-115845882D01*
X114809959Y-115942136D01*
X114956038Y-116002644D01*
X115034419Y-116012963D01*
X115112799Y-116023282D01*
X115112800Y-116023282D01*
X115112801Y-116023282D01*
X115165054Y-116016402D01*
X115269562Y-116002644D01*
X115415641Y-115942136D01*
X115448364Y-115917027D01*
X115511315Y-115868724D01*
X115576485Y-115843530D01*
X115586801Y-115843100D01*
X118513416Y-115843100D01*
X118513418Y-115843100D01*
X118621637Y-115814103D01*
X118718663Y-115758085D01*
X119117106Y-115359640D01*
X119178427Y-115326157D01*
X119188587Y-115324386D01*
X119308162Y-115308644D01*
X119454241Y-115248136D01*
X119579682Y-115151882D01*
X119675936Y-115026441D01*
X119736444Y-114880362D01*
X119753568Y-114750294D01*
X119757082Y-114723601D01*
X119757082Y-114723598D01*
X119742029Y-114609259D01*
X119736444Y-114566838D01*
X119675936Y-114420759D01*
X119579682Y-114295318D01*
X119579680Y-114295317D01*
X119579680Y-114295316D01*
X119509039Y-114241112D01*
X119470840Y-114211801D01*
X119429638Y-114155374D01*
X119425483Y-114085628D01*
X119458644Y-114025747D01*
X121275280Y-112209113D01*
X123561280Y-109923113D01*
X123614007Y-109831788D01*
X123641300Y-109729927D01*
X123641300Y-109624473D01*
X123641300Y-106932073D01*
X123641300Y-101039273D01*
X123614007Y-100937413D01*
X123561280Y-100846087D01*
X123486713Y-100771520D01*
X121686677Y-98971484D01*
X119875594Y-97160400D01*
X119875571Y-97160379D01*
X118496019Y-95780826D01*
X118462534Y-95719503D01*
X118459700Y-95693145D01*
X118459700Y-95469786D01*
X118479385Y-95402747D01*
X118532189Y-95356992D01*
X118601347Y-95347048D01*
X118638161Y-95358386D01*
X118667888Y-95372919D01*
X118667889Y-95372919D01*
X118667891Y-95372920D01*
X118738451Y-95383200D01*
X119260900Y-95383199D01*
X119327939Y-95402883D01*
X119373694Y-95455687D01*
X119384900Y-95507199D01*
X119384900Y-96029650D01*
X119395179Y-96100206D01*
X119395179Y-96100207D01*
X119395180Y-96100209D01*
X119421759Y-96154576D01*
X119448389Y-96209049D01*
X119534051Y-96294711D01*
X119642888Y-96347919D01*
X119642889Y-96347919D01*
X119642891Y-96347920D01*
X119713451Y-96358200D01*
X119907348Y-96358199D01*
X119907350Y-96358199D01*
X119935572Y-96354087D01*
X119977909Y-96347920D01*
X120005939Y-96334216D01*
X120074809Y-96322456D01*
X120114859Y-96334215D01*
X120142891Y-96347920D01*
X120213451Y-96358200D01*
X120407348Y-96358199D01*
X120407350Y-96358199D01*
X120435572Y-96354087D01*
X120477909Y-96347920D01*
X120505939Y-96334216D01*
X120574809Y-96322456D01*
X120614859Y-96334215D01*
X120642891Y-96347920D01*
X120713451Y-96358200D01*
X120907348Y-96358199D01*
X120907350Y-96358199D01*
X120935572Y-96354087D01*
X120977909Y-96347920D01*
X121005939Y-96334216D01*
X121074809Y-96322456D01*
X121114859Y-96334215D01*
X121142891Y-96347920D01*
X121213451Y-96358200D01*
X121407348Y-96358199D01*
X121407350Y-96358199D01*
X121435572Y-96354087D01*
X121477909Y-96347920D01*
X121505939Y-96334216D01*
X121574809Y-96322456D01*
X121614859Y-96334215D01*
X121642891Y-96347920D01*
X121713451Y-96358200D01*
X121907348Y-96358199D01*
X121907350Y-96358199D01*
X121935572Y-96354087D01*
X121977909Y-96347920D01*
X122005939Y-96334216D01*
X122074809Y-96322456D01*
X122114859Y-96334215D01*
X122142891Y-96347920D01*
X122213451Y-96358200D01*
X122407348Y-96358199D01*
X122407350Y-96358199D01*
X122435572Y-96354087D01*
X122477909Y-96347920D01*
X122586747Y-96294712D01*
X122672412Y-96209047D01*
X122725620Y-96100209D01*
X122735900Y-96029649D01*
X122735900Y-95950630D01*
X127875000Y-95950630D01*
X127875000Y-96049370D01*
X127900556Y-96144745D01*
X127949925Y-96230255D01*
X128019745Y-96300075D01*
X128105255Y-96349444D01*
X128200630Y-96375000D01*
X128299370Y-96375000D01*
X128394745Y-96349444D01*
X128480255Y-96300075D01*
X128550075Y-96230255D01*
X128599444Y-96144745D01*
X128625000Y-96049370D01*
X128625000Y-95950630D01*
X128599444Y-95855255D01*
X128550075Y-95769745D01*
X128480255Y-95699925D01*
X128394745Y-95650556D01*
X128299370Y-95625000D01*
X128200630Y-95625000D01*
X128105255Y-95650556D01*
X128019745Y-95699925D01*
X127949925Y-95769745D01*
X127900556Y-95855255D01*
X127875000Y-95950630D01*
X122735900Y-95950630D01*
X122735899Y-95507198D01*
X122738013Y-95500000D01*
X127092932Y-95500000D01*
X127750000Y-95500000D01*
X127750000Y-95100000D01*
X127581946Y-95100000D01*
X127493556Y-95110613D01*
X127352904Y-95166079D01*
X127232435Y-95257435D01*
X127141079Y-95377904D01*
X127092932Y-95500000D01*
X122738013Y-95500000D01*
X122755583Y-95440160D01*
X122808387Y-95394405D01*
X122859899Y-95383199D01*
X123382350Y-95383199D01*
X123410572Y-95379087D01*
X123452909Y-95372920D01*
X123561747Y-95319712D01*
X123647412Y-95234047D01*
X123700620Y-95125209D01*
X123710900Y-95054649D01*
X123710899Y-94860752D01*
X123709107Y-94848452D01*
X123700620Y-94790193D01*
X123700620Y-94790191D01*
X123686916Y-94762160D01*
X123675156Y-94693291D01*
X123686915Y-94653240D01*
X123700620Y-94625209D01*
X123710900Y-94554649D01*
X123710899Y-94445052D01*
X123730583Y-94378014D01*
X123783387Y-94332259D01*
X123852545Y-94322315D01*
X123896899Y-94337666D01*
X123964167Y-94376503D01*
X124072386Y-94405500D01*
X124138399Y-94405500D01*
X124205438Y-94425185D01*
X124213885Y-94431124D01*
X124309557Y-94504535D01*
X124309558Y-94504535D01*
X124309559Y-94504536D01*
X124455638Y-94565044D01*
X124506234Y-94571705D01*
X124612399Y-94585682D01*
X124612400Y-94585682D01*
X124612401Y-94585682D01*
X124664654Y-94578802D01*
X124769162Y-94565044D01*
X124915241Y-94504536D01*
X125040682Y-94408282D01*
X125136936Y-94282841D01*
X125197444Y-94136762D01*
X125218082Y-93980000D01*
X125197444Y-93823238D01*
X125174188Y-93767095D01*
X125166720Y-93697626D01*
X125197995Y-93635147D01*
X125256655Y-93599869D01*
X125296837Y-93589103D01*
X125393863Y-93533085D01*
X125938529Y-92988417D01*
X125999852Y-92954933D01*
X126026210Y-92952099D01*
X126396471Y-92952099D01*
X126396472Y-92952099D01*
X126456083Y-92945691D01*
X126590931Y-92895396D01*
X126706146Y-92809146D01*
X126735633Y-92769755D01*
X126791566Y-92727884D01*
X126861258Y-92722900D01*
X126922581Y-92756385D01*
X126934164Y-92769752D01*
X126963402Y-92808810D01*
X126963654Y-92809146D01*
X126963655Y-92809147D01*
X127078864Y-92895393D01*
X127078871Y-92895397D01*
X127119770Y-92910651D01*
X127213717Y-92945691D01*
X127273327Y-92952100D01*
X127769072Y-92952099D01*
X127828683Y-92945691D01*
X127963531Y-92895396D01*
X128078746Y-92809146D01*
X128164996Y-92693931D01*
X128208758Y-92576600D01*
X128484176Y-92576600D01*
X128527849Y-92693693D01*
X128614009Y-92808787D01*
X128614012Y-92808790D01*
X128729106Y-92894950D01*
X128729115Y-92894955D01*
X128771199Y-92910651D01*
X128771200Y-92910651D01*
X128771200Y-92576600D01*
X128484176Y-92576600D01*
X128208758Y-92576600D01*
X128215291Y-92559083D01*
X128221700Y-92499473D01*
X128221699Y-91853728D01*
X128215451Y-91795601D01*
X128215291Y-91794116D01*
X128208758Y-91776600D01*
X128484176Y-91776600D01*
X128771200Y-91776600D01*
X128771200Y-91442547D01*
X128729115Y-91458245D01*
X128729105Y-91458250D01*
X128614012Y-91544409D01*
X128614009Y-91544412D01*
X128527849Y-91659506D01*
X128484176Y-91776600D01*
X128208758Y-91776600D01*
X128164997Y-91659271D01*
X128164993Y-91659264D01*
X128078747Y-91544055D01*
X128078744Y-91544052D01*
X127963535Y-91457806D01*
X127963528Y-91457802D01*
X127828686Y-91407510D01*
X127828685Y-91407509D01*
X127828683Y-91407509D01*
X127769073Y-91401100D01*
X127769064Y-91401100D01*
X127479944Y-91401100D01*
X127412905Y-91381415D01*
X127367150Y-91328611D01*
X127357206Y-91259453D01*
X127386231Y-91195897D01*
X127392264Y-91189418D01*
X127431635Y-91150047D01*
X127431641Y-91150039D01*
X127524659Y-91010828D01*
X127524659Y-91010827D01*
X127588734Y-90856136D01*
X127588736Y-90856128D01*
X127608216Y-90758200D01*
X126974954Y-90758200D01*
X126983340Y-90749814D01*
X127021400Y-90657928D01*
X127021400Y-89858472D01*
X126983340Y-89766586D01*
X126974954Y-89758200D01*
X127271400Y-89758200D01*
X127608216Y-89758200D01*
X127608216Y-89758199D01*
X127588736Y-89660271D01*
X127588734Y-89660263D01*
X127524659Y-89505572D01*
X127524659Y-89505571D01*
X127431641Y-89366360D01*
X127431639Y-89366357D01*
X127313240Y-89247959D01*
X127313238Y-89247958D01*
X127271400Y-89220001D01*
X127271400Y-89758200D01*
X126974954Y-89758200D01*
X126913014Y-89696260D01*
X126821128Y-89658200D01*
X126721672Y-89658200D01*
X126629786Y-89696260D01*
X126559460Y-89766586D01*
X126521400Y-89858472D01*
X126521400Y-90657928D01*
X126559460Y-90749814D01*
X126567846Y-90758200D01*
X125934584Y-90758200D01*
X125954063Y-90856128D01*
X125954065Y-90856136D01*
X126018140Y-91010827D01*
X126018140Y-91010828D01*
X126111158Y-91150039D01*
X126111164Y-91150047D01*
X126150536Y-91189419D01*
X126184021Y-91250742D01*
X126179037Y-91320434D01*
X126137165Y-91376367D01*
X126071701Y-91400784D01*
X126062856Y-91401100D01*
X125900730Y-91401100D01*
X125900723Y-91401101D01*
X125841116Y-91407508D01*
X125706271Y-91457802D01*
X125706264Y-91457806D01*
X125591055Y-91544052D01*
X125591052Y-91544055D01*
X125504806Y-91659264D01*
X125504802Y-91659271D01*
X125454508Y-91794117D01*
X125449627Y-91839525D01*
X125448101Y-91853723D01*
X125448100Y-91853735D01*
X125448100Y-92223989D01*
X125428415Y-92291028D01*
X125411737Y-92311714D01*
X125410736Y-92312714D01*
X125349397Y-92346168D01*
X125279707Y-92341149D01*
X125223795Y-92299250D01*
X125199411Y-92233773D01*
X125199099Y-92225005D01*
X125199099Y-91853728D01*
X125192851Y-91795601D01*
X125192691Y-91794116D01*
X125172718Y-91740566D01*
X125164900Y-91697233D01*
X125164900Y-91157977D01*
X125184585Y-91090938D01*
X125237389Y-91045183D01*
X125242983Y-91042803D01*
X125243052Y-91042764D01*
X125243058Y-91042762D01*
X125360900Y-90953400D01*
X125450262Y-90835558D01*
X125504517Y-90697977D01*
X125514900Y-90611518D01*
X125514900Y-90111654D01*
X125534585Y-90044615D01*
X125551214Y-90023978D01*
X125784841Y-89790351D01*
X125846160Y-89756869D01*
X125875936Y-89758998D01*
X125875936Y-89758200D01*
X126271400Y-89758200D01*
X126271400Y-89220001D01*
X126233604Y-89199799D01*
X126189329Y-89187652D01*
X126142641Y-89135672D01*
X126130500Y-89082159D01*
X126130500Y-88091922D01*
X128071400Y-88091922D01*
X128104063Y-88256128D01*
X128104065Y-88256136D01*
X128168140Y-88410827D01*
X128168140Y-88410828D01*
X128261158Y-88550039D01*
X128261164Y-88550047D01*
X128379553Y-88668436D01*
X128421400Y-88696396D01*
X128421400Y-87958200D01*
X128071400Y-87958200D01*
X128071400Y-88091922D01*
X126130500Y-88091922D01*
X126130500Y-86824477D01*
X128071400Y-86824477D01*
X128071400Y-86958200D01*
X128421400Y-86958200D01*
X128421400Y-86858472D01*
X128671400Y-86858472D01*
X128671400Y-88057928D01*
X128709460Y-88149814D01*
X128779786Y-88220140D01*
X128871672Y-88258200D01*
X128971128Y-88258200D01*
X129063014Y-88220140D01*
X129133340Y-88149814D01*
X129171400Y-88057928D01*
X129171400Y-86858472D01*
X129133340Y-86766586D01*
X129063014Y-86696260D01*
X128971128Y-86658200D01*
X128871672Y-86658200D01*
X128779786Y-86696260D01*
X128709460Y-86766586D01*
X128671400Y-86858472D01*
X128421400Y-86858472D01*
X128421400Y-86220001D01*
X128421399Y-86220001D01*
X128379561Y-86247958D01*
X128379559Y-86247959D01*
X128261160Y-86366357D01*
X128261158Y-86366360D01*
X128168140Y-86505571D01*
X128168140Y-86505572D01*
X128104065Y-86660263D01*
X128104063Y-86660271D01*
X128071400Y-86824477D01*
X126130500Y-86824477D01*
X126130500Y-85900875D01*
X126130500Y-85900873D01*
X126118304Y-85855357D01*
X126119967Y-85785510D01*
X126159129Y-85727647D01*
X126223357Y-85700143D01*
X126254573Y-85705391D01*
X126271400Y-85696397D01*
X126271400Y-85696396D01*
X127271400Y-85696396D01*
X127313246Y-85668436D01*
X127431635Y-85550047D01*
X127431641Y-85550039D01*
X127524659Y-85410828D01*
X127524659Y-85410827D01*
X127588734Y-85256136D01*
X127588736Y-85256128D01*
X127608216Y-85158200D01*
X127271400Y-85158200D01*
X127271400Y-85696396D01*
X126271400Y-85696396D01*
X126271400Y-85158200D01*
X125934584Y-85158200D01*
X125954063Y-85256128D01*
X125954066Y-85256140D01*
X125966623Y-85286455D01*
X125974092Y-85355925D01*
X125942816Y-85418404D01*
X125882727Y-85454055D01*
X125812902Y-85451561D01*
X125764381Y-85421588D01*
X124767419Y-84424626D01*
X124733934Y-84363303D01*
X124731100Y-84336945D01*
X124731100Y-84258472D01*
X126521400Y-84258472D01*
X126521400Y-85057928D01*
X126559460Y-85149814D01*
X126629786Y-85220140D01*
X126721672Y-85258200D01*
X126821128Y-85258200D01*
X126913014Y-85220140D01*
X126983340Y-85149814D01*
X127021400Y-85057928D01*
X127021400Y-84258472D01*
X126983340Y-84166586D01*
X126974954Y-84158200D01*
X127271400Y-84158200D01*
X127608216Y-84158200D01*
X127608216Y-84158199D01*
X127588736Y-84060271D01*
X127588734Y-84060263D01*
X127524659Y-83905572D01*
X127524659Y-83905571D01*
X127431641Y-83766360D01*
X127431639Y-83766357D01*
X127313240Y-83647959D01*
X127313238Y-83647958D01*
X127271400Y-83620001D01*
X127271400Y-84158200D01*
X126974954Y-84158200D01*
X126913014Y-84096260D01*
X126821128Y-84058200D01*
X126721672Y-84058200D01*
X126629786Y-84096260D01*
X126559460Y-84166586D01*
X126521400Y-84258472D01*
X124731100Y-84258472D01*
X124731100Y-84158199D01*
X125934583Y-84158199D01*
X125934584Y-84158200D01*
X126271400Y-84158200D01*
X126271400Y-83620001D01*
X126271399Y-83620001D01*
X126229561Y-83647958D01*
X126229559Y-83647959D01*
X126111160Y-83766357D01*
X126111158Y-83766360D01*
X126018140Y-83905571D01*
X126018140Y-83905572D01*
X125954065Y-84060263D01*
X125954063Y-84060271D01*
X125934583Y-84158199D01*
X124731100Y-84158199D01*
X124731100Y-84155730D01*
X124728246Y-84125300D01*
X124728246Y-84125298D01*
X124683632Y-83997801D01*
X124683393Y-83997118D01*
X124602750Y-83887850D01*
X124493482Y-83807207D01*
X124493480Y-83807206D01*
X124365300Y-83762353D01*
X124334870Y-83759500D01*
X124334866Y-83759500D01*
X123926334Y-83759500D01*
X123926330Y-83759500D01*
X123895900Y-83762353D01*
X123895898Y-83762353D01*
X123767719Y-83807206D01*
X123767717Y-83807207D01*
X123658450Y-83887850D01*
X123577807Y-83997117D01*
X123577806Y-83997119D01*
X123532953Y-84125298D01*
X123532953Y-84125300D01*
X123530100Y-84155730D01*
X123530100Y-84664269D01*
X123532953Y-84694699D01*
X123532953Y-84694701D01*
X123572544Y-84807842D01*
X123577807Y-84822882D01*
X123658450Y-84932150D01*
X123767718Y-85012793D01*
X123810445Y-85027744D01*
X123895899Y-85057646D01*
X123926330Y-85060500D01*
X123926334Y-85060500D01*
X124219145Y-85060500D01*
X124286184Y-85080185D01*
X124306826Y-85096819D01*
X125293181Y-86083174D01*
X125326666Y-86144497D01*
X125329500Y-86170855D01*
X125329500Y-87623470D01*
X125309815Y-87690509D01*
X125257011Y-87736264D01*
X125247714Y-87737600D01*
X125214400Y-87760273D01*
X125214400Y-88895400D01*
X125194715Y-88962439D01*
X125141911Y-89008194D01*
X125090400Y-89019400D01*
X124041969Y-89019400D01*
X124031738Y-89020500D01*
X122915200Y-89020500D01*
X122848161Y-89000815D01*
X122802406Y-88948011D01*
X122791200Y-88896500D01*
X122791200Y-87859153D01*
X122810885Y-87792114D01*
X122827519Y-87771472D01*
X122837617Y-87761374D01*
X123741200Y-87761374D01*
X123741200Y-88070500D01*
X123963631Y-88070500D01*
X123973862Y-88069400D01*
X124264400Y-88069400D01*
X124264400Y-87760274D01*
X124235987Y-87771478D01*
X124118256Y-87860756D01*
X124101184Y-87883269D01*
X124044990Y-87924791D01*
X123975269Y-87929340D01*
X123914155Y-87895474D01*
X123903577Y-87883265D01*
X123887342Y-87861856D01*
X123769612Y-87772578D01*
X123741200Y-87761374D01*
X122837617Y-87761374D01*
X122993107Y-87605884D01*
X123197103Y-87401887D01*
X123197108Y-87401884D01*
X123207311Y-87391680D01*
X123207313Y-87391680D01*
X123281880Y-87317113D01*
X123334607Y-87225787D01*
X123337428Y-87215258D01*
X123356828Y-87142856D01*
X123393191Y-87083201D01*
X123456038Y-87052672D01*
X123495786Y-87053971D01*
X123495881Y-87053089D01*
X123560154Y-87059999D01*
X124280600Y-87059999D01*
X124301033Y-87059999D01*
X124301039Y-87059998D01*
X124357607Y-87053918D01*
X124485581Y-87006186D01*
X124485584Y-87006184D01*
X124594929Y-86924329D01*
X124676783Y-86814986D01*
X124697292Y-86760000D01*
X124280600Y-86760000D01*
X124280600Y-87059999D01*
X123560154Y-87059999D01*
X123580600Y-87059998D01*
X123580600Y-86060000D01*
X124280600Y-86060000D01*
X124697292Y-86060000D01*
X124676783Y-86005013D01*
X124594929Y-85895670D01*
X124485584Y-85813815D01*
X124485583Y-85813814D01*
X124357610Y-85766083D01*
X124301028Y-85760000D01*
X124280600Y-85760000D01*
X124280600Y-86060000D01*
X123580600Y-86060000D01*
X123580600Y-85759999D01*
X123560179Y-85760000D01*
X123560160Y-85760001D01*
X123503594Y-85766081D01*
X123494491Y-85769477D01*
X123424799Y-85774460D01*
X123363476Y-85740974D01*
X123345559Y-85709937D01*
X123342769Y-85711549D01*
X123324741Y-85680324D01*
X123281880Y-85606087D01*
X122737947Y-85062154D01*
X122704462Y-85000831D01*
X122709446Y-84931139D01*
X122725858Y-84900839D01*
X122783393Y-84822882D01*
X122805819Y-84758790D01*
X122828246Y-84694701D01*
X122828246Y-84694699D01*
X122831100Y-84664269D01*
X122831100Y-84155730D01*
X122828246Y-84125300D01*
X122828246Y-84125298D01*
X122783632Y-83997801D01*
X122783393Y-83997118D01*
X122702750Y-83887850D01*
X122593482Y-83807207D01*
X122593480Y-83807206D01*
X122465300Y-83762353D01*
X122434870Y-83759500D01*
X122434866Y-83759500D01*
X122026334Y-83759500D01*
X122026330Y-83759500D01*
X121995900Y-83762353D01*
X121995898Y-83762353D01*
X121867719Y-83807206D01*
X121867717Y-83807207D01*
X121758450Y-83887850D01*
X121677807Y-83997117D01*
X121677806Y-83997119D01*
X121632953Y-84125298D01*
X121632953Y-84125300D01*
X121630100Y-84155730D01*
X121630100Y-84664269D01*
X121632953Y-84694699D01*
X121632953Y-84694701D01*
X121672544Y-84807842D01*
X121677807Y-84822882D01*
X121758450Y-84932150D01*
X121779732Y-84947857D01*
X121821984Y-85003503D01*
X121830100Y-85047628D01*
X121830100Y-85068473D01*
X121830100Y-85173927D01*
X121843534Y-85224065D01*
X121857393Y-85275789D01*
X121878155Y-85311748D01*
X121910120Y-85367113D01*
X121910122Y-85367115D01*
X122092316Y-85549309D01*
X122125801Y-85610632D01*
X122120817Y-85680324D01*
X122078945Y-85736257D01*
X122016216Y-85760448D01*
X121995899Y-85762353D01*
X121995898Y-85762353D01*
X121867719Y-85807206D01*
X121867717Y-85807207D01*
X121758450Y-85887850D01*
X121677807Y-85997117D01*
X121677806Y-85997119D01*
X121632953Y-86125298D01*
X121632953Y-86125300D01*
X121630100Y-86155730D01*
X121630100Y-86664269D01*
X121633658Y-86702212D01*
X121630653Y-86702493D01*
X121625646Y-86759114D01*
X121597890Y-86801515D01*
X120793522Y-87605884D01*
X120793518Y-87605890D01*
X120740792Y-87697213D01*
X120740791Y-87697214D01*
X120727153Y-87748118D01*
X120727153Y-87748119D01*
X120713500Y-87799073D01*
X120713500Y-88022260D01*
X120693815Y-88089299D01*
X120641011Y-88135054D01*
X120571853Y-88144998D01*
X120514577Y-88121066D01*
X120503859Y-88112939D01*
X120503858Y-88112938D01*
X120366277Y-88058683D01*
X120366276Y-88058682D01*
X120366274Y-88058682D01*
X120279819Y-88048300D01*
X120279818Y-88048300D01*
X119595582Y-88048300D01*
X119595581Y-88048300D01*
X119509125Y-88058682D01*
X119509124Y-88058682D01*
X119371539Y-88112939D01*
X119253699Y-88202299D01*
X119173690Y-88307808D01*
X119117497Y-88349332D01*
X119047776Y-88353883D01*
X118986662Y-88320018D01*
X118976082Y-88307808D01*
X118896343Y-88202656D01*
X118778612Y-88113378D01*
X118687700Y-88077527D01*
X118687700Y-89540738D01*
X118668015Y-89607777D01*
X118651381Y-89628419D01*
X118638000Y-89641800D01*
X118638000Y-91068671D01*
X118728911Y-91032821D01*
X118728913Y-91032820D01*
X118846643Y-90943543D01*
X118926382Y-90838391D01*
X118982574Y-90796868D01*
X119052295Y-90792316D01*
X119113410Y-90826180D01*
X119123990Y-90838391D01*
X119203999Y-90943900D01*
X119317121Y-91029682D01*
X119321842Y-91033262D01*
X119374019Y-91053838D01*
X119429163Y-91096743D01*
X119452356Y-91162650D01*
X119439930Y-91223652D01*
X119395180Y-91315189D01*
X119395180Y-91315191D01*
X119384900Y-91385751D01*
X119384900Y-91385756D01*
X119384900Y-91908200D01*
X119365215Y-91975239D01*
X119312411Y-92020994D01*
X119260900Y-92032200D01*
X118738449Y-92032200D01*
X118667893Y-92042479D01*
X118559050Y-92095689D01*
X118473388Y-92181351D01*
X118420180Y-92290188D01*
X118418860Y-92299250D01*
X118409900Y-92360751D01*
X118409900Y-92360755D01*
X118409900Y-92360756D01*
X118409900Y-92554650D01*
X118420179Y-92625207D01*
X118420179Y-92625208D01*
X118433884Y-92653243D01*
X118445641Y-92722116D01*
X118433884Y-92762157D01*
X118420181Y-92790188D01*
X118420180Y-92790191D01*
X118409900Y-92860751D01*
X118409900Y-92860755D01*
X118409900Y-92860756D01*
X118409900Y-93054650D01*
X118420179Y-93125207D01*
X118420179Y-93125208D01*
X118433884Y-93153243D01*
X118445641Y-93222116D01*
X118433884Y-93262157D01*
X118420181Y-93290188D01*
X118420180Y-93290191D01*
X118409900Y-93360751D01*
X118409900Y-93360755D01*
X118409900Y-93360756D01*
X118409900Y-93455211D01*
X118390215Y-93522250D01*
X118337411Y-93568005D01*
X118317995Y-93574985D01*
X118282517Y-93584491D01*
X118282510Y-93584494D01*
X118211992Y-93625208D01*
X118191190Y-93637217D01*
X118191185Y-93637221D01*
X117281522Y-94546884D01*
X117281518Y-94546890D01*
X117228793Y-94638211D01*
X117228793Y-94638212D01*
X117224195Y-94655373D01*
X117201500Y-94740073D01*
X117201500Y-95095673D01*
X117201500Y-95966159D01*
X117201500Y-96071613D01*
X117207511Y-96094047D01*
X117228793Y-96173475D01*
X117240793Y-96194259D01*
X117281520Y-96264799D01*
X117281521Y-96264800D01*
X117281522Y-96264801D01*
X117959536Y-96942814D01*
X117959557Y-96942837D01*
X122346781Y-101330060D01*
X122380266Y-101391383D01*
X122383100Y-101417741D01*
X122383100Y-109307545D01*
X122363415Y-109374584D01*
X122346781Y-109395226D01*
X121210981Y-110531026D01*
X121149658Y-110564511D01*
X121079966Y-110559527D01*
X121024033Y-110517655D01*
X120999616Y-110452191D01*
X120999300Y-110443345D01*
X120999300Y-104007782D01*
X120998045Y-104003099D01*
X120998044Y-104003096D01*
X120991760Y-103979644D01*
X120970303Y-103899563D01*
X120955638Y-103874163D01*
X120914285Y-103802537D01*
X120879642Y-103767894D01*
X120846157Y-103706571D01*
X120844384Y-103696398D01*
X120841810Y-103676850D01*
X120828644Y-103576838D01*
X120768136Y-103430759D01*
X120671882Y-103305318D01*
X120546441Y-103209064D01*
X120535572Y-103204562D01*
X120400362Y-103148556D01*
X120400360Y-103148555D01*
X120243601Y-103127918D01*
X120243599Y-103127918D01*
X120086839Y-103148555D01*
X120086837Y-103148556D01*
X119940760Y-103209063D01*
X119815318Y-103305318D01*
X119719063Y-103430760D01*
X119658554Y-103576843D01*
X119658061Y-103578683D01*
X119657222Y-103580058D01*
X119655446Y-103584347D01*
X119654776Y-103584069D01*
X119621691Y-103638340D01*
X119558841Y-103668864D01*
X119489466Y-103660563D01*
X119450608Y-103634260D01*
X118898442Y-103082094D01*
X118864957Y-103020771D01*
X118863184Y-103010598D01*
X118847444Y-102891039D01*
X118847444Y-102891038D01*
X118786936Y-102744959D01*
X118690682Y-102619518D01*
X118565241Y-102523264D01*
X118514890Y-102502408D01*
X118419162Y-102462756D01*
X118419160Y-102462755D01*
X118262401Y-102442118D01*
X118262399Y-102442118D01*
X118105639Y-102462755D01*
X118105637Y-102462756D01*
X117959560Y-102523263D01*
X117834118Y-102619518D01*
X117737863Y-102744960D01*
X117677356Y-102891037D01*
X117677355Y-102891039D01*
X117656718Y-103047798D01*
X117656718Y-103047801D01*
X117677355Y-103204560D01*
X117677356Y-103204562D01*
X117722646Y-103313903D01*
X117737864Y-103350641D01*
X117834118Y-103476082D01*
X117959559Y-103572336D01*
X118105638Y-103632844D01*
X118225198Y-103648584D01*
X118289095Y-103676850D01*
X118296694Y-103683842D01*
X119578581Y-104965729D01*
X119612066Y-105027052D01*
X119614900Y-105053410D01*
X119614900Y-110059189D01*
X119595215Y-110126228D01*
X119578581Y-110146870D01*
X119250876Y-110474574D01*
X119189553Y-110508059D01*
X119119861Y-110503075D01*
X119063928Y-110461203D01*
X119048633Y-110434342D01*
X119040937Y-110415761D01*
X119040936Y-110415760D01*
X119040936Y-110415759D01*
X118944682Y-110290318D01*
X118819241Y-110194064D01*
X118673162Y-110133556D01*
X118645963Y-110129975D01*
X118553600Y-110117815D01*
X118489704Y-110089548D01*
X118482105Y-110082557D01*
X118129965Y-109730417D01*
X118129963Y-109730415D01*
X118032937Y-109674397D01*
X117924718Y-109645400D01*
X117924717Y-109645400D01*
X117029510Y-109645400D01*
X116962471Y-109625715D01*
X116941829Y-109609081D01*
X114205665Y-106872917D01*
X114205663Y-106872915D01*
X114108637Y-106816897D01*
X114000418Y-106787900D01*
X114000417Y-106787900D01*
X112462600Y-106787900D01*
X112395561Y-106768215D01*
X112387115Y-106762277D01*
X112375915Y-106753683D01*
X112354676Y-106737386D01*
X112313474Y-106680961D01*
X112309319Y-106611215D01*
X112342480Y-106551332D01*
X113430500Y-105463314D01*
X113496392Y-105349186D01*
X113530500Y-105221892D01*
X113530500Y-105090107D01*
X113530500Y-101807876D01*
X113550185Y-101740837D01*
X113566819Y-101720195D01*
X114315530Y-100971484D01*
X115068300Y-100218714D01*
X115134192Y-100104586D01*
X115168300Y-99977292D01*
X115168300Y-99977287D01*
X115170210Y-99970159D01*
X115206574Y-99910499D01*
X115215666Y-99902991D01*
X115225346Y-99895746D01*
X115289533Y-99810002D01*
X115345467Y-99768132D01*
X115415159Y-99763148D01*
X115476482Y-99796633D01*
X115509966Y-99857956D01*
X115512800Y-99884314D01*
X115512800Y-100546890D01*
X115493115Y-100613929D01*
X115476481Y-100634571D01*
X114975517Y-101135534D01*
X114975513Y-101135540D01*
X114919498Y-101232560D01*
X114919497Y-101232563D01*
X114890500Y-101340782D01*
X114890500Y-104859799D01*
X114870815Y-104926838D01*
X114864876Y-104935285D01*
X114791464Y-105030957D01*
X114730956Y-105177037D01*
X114730955Y-105177039D01*
X114710318Y-105333798D01*
X114710318Y-105333801D01*
X114730955Y-105490560D01*
X114730956Y-105490562D01*
X114791464Y-105636641D01*
X114887718Y-105762082D01*
X115013159Y-105858336D01*
X115159238Y-105918844D01*
X115237619Y-105929163D01*
X115315999Y-105939482D01*
X115316000Y-105939482D01*
X115316001Y-105939482D01*
X115368254Y-105932602D01*
X115472762Y-105918844D01*
X115618841Y-105858336D01*
X115744282Y-105762082D01*
X115840536Y-105636641D01*
X115901044Y-105490562D01*
X115921682Y-105333800D01*
X115901044Y-105177038D01*
X115840536Y-105030959D01*
X115840535Y-105030958D01*
X115840535Y-105030957D01*
X115767124Y-104935285D01*
X115741930Y-104870115D01*
X115741500Y-104859799D01*
X115741500Y-101624410D01*
X115761185Y-101557371D01*
X115777819Y-101536729D01*
X116021870Y-101292678D01*
X116278785Y-101035763D01*
X116334803Y-100938737D01*
X116363800Y-100830518D01*
X116363800Y-100718482D01*
X116363800Y-100639700D01*
X116383485Y-100572661D01*
X116436289Y-100526906D01*
X116487800Y-100515700D01*
X117599399Y-100515700D01*
X117666438Y-100535385D01*
X117674885Y-100541324D01*
X117770557Y-100614735D01*
X117770558Y-100614735D01*
X117770559Y-100614736D01*
X117916638Y-100675244D01*
X117995019Y-100685563D01*
X118073399Y-100695882D01*
X118073400Y-100695882D01*
X118073401Y-100695882D01*
X118125654Y-100689002D01*
X118230162Y-100675244D01*
X118376241Y-100614736D01*
X118501682Y-100518482D01*
X118597936Y-100393041D01*
X118658444Y-100246962D01*
X118676164Y-100112363D01*
X118679082Y-100090201D01*
X118679082Y-100090198D01*
X118658444Y-99933439D01*
X118658444Y-99933438D01*
X118597936Y-99787359D01*
X118501682Y-99661918D01*
X118376241Y-99565664D01*
X118342164Y-99551549D01*
X118230162Y-99505156D01*
X118230160Y-99505155D01*
X118073401Y-99484518D01*
X118073399Y-99484518D01*
X117916639Y-99505155D01*
X117916637Y-99505156D01*
X117770557Y-99565664D01*
X117674885Y-99639076D01*
X117609715Y-99664270D01*
X117599399Y-99664700D01*
X116487800Y-99664700D01*
X116420761Y-99645015D01*
X116375006Y-99592211D01*
X116363800Y-99540700D01*
X116363800Y-95667826D01*
X116383485Y-95600787D01*
X116400123Y-95580141D01*
X116404677Y-95575585D01*
X116404682Y-95575582D01*
X116500936Y-95450141D01*
X116561444Y-95304062D01*
X116581481Y-95151863D01*
X116582082Y-95147301D01*
X116582082Y-95147298D01*
X116561444Y-94990539D01*
X116561444Y-94990538D01*
X116500936Y-94844459D01*
X116404682Y-94719018D01*
X116279241Y-94622764D01*
X116255019Y-94612731D01*
X116133162Y-94562256D01*
X116133160Y-94562255D01*
X115976401Y-94541618D01*
X115976399Y-94541618D01*
X115819639Y-94562255D01*
X115819637Y-94562256D01*
X115673560Y-94622763D01*
X115548118Y-94719018D01*
X115451863Y-94844460D01*
X115391356Y-94990537D01*
X115391355Y-94990539D01*
X115370718Y-95147298D01*
X115370718Y-95147301D01*
X115391355Y-95304060D01*
X115391357Y-95304065D01*
X115451861Y-95450136D01*
X115451864Y-95450142D01*
X115487175Y-95496159D01*
X115512370Y-95561328D01*
X115512800Y-95571646D01*
X115512800Y-98642085D01*
X115493115Y-98709124D01*
X115440311Y-98754879D01*
X115371153Y-98764823D01*
X115307597Y-98735798D01*
X115289534Y-98716397D01*
X115225346Y-98630654D01*
X115225340Y-98630649D01*
X115217987Y-98625144D01*
X115176117Y-98569209D01*
X115168300Y-98525879D01*
X115168300Y-97038310D01*
X115168300Y-97038308D01*
X115134192Y-96911014D01*
X115068300Y-96796886D01*
X114975114Y-96703700D01*
X113306562Y-95035148D01*
X113273077Y-94973825D01*
X113271961Y-94967423D01*
X113271644Y-94966239D01*
X113271644Y-94966238D01*
X113211136Y-94820159D01*
X113114882Y-94694718D01*
X112989441Y-94598464D01*
X112985660Y-94596898D01*
X112843362Y-94537956D01*
X112843360Y-94537955D01*
X112686601Y-94517318D01*
X112686599Y-94517318D01*
X112529839Y-94537955D01*
X112529837Y-94537956D01*
X112383760Y-94598463D01*
X112258318Y-94694718D01*
X112162063Y-94820160D01*
X112101556Y-94966237D01*
X112101556Y-94966239D01*
X112090784Y-95048056D01*
X112062517Y-95111953D01*
X112004192Y-95150423D01*
X111934327Y-95151254D01*
X111880164Y-95119551D01*
X111626149Y-94865536D01*
X111179219Y-94418605D01*
X111145734Y-94357282D01*
X111142900Y-94330924D01*
X111142900Y-90797400D01*
X117378874Y-90797400D01*
X117390078Y-90825812D01*
X117479356Y-90943543D01*
X117597086Y-91032820D01*
X117597088Y-91032821D01*
X117687999Y-91068671D01*
X117688000Y-91068671D01*
X117688000Y-90797400D01*
X117378874Y-90797400D01*
X111142900Y-90797400D01*
X111142900Y-90664564D01*
X111162585Y-90597525D01*
X111184674Y-90571748D01*
X111189429Y-90567535D01*
X111195983Y-90561729D01*
X111292618Y-90421730D01*
X111352940Y-90262672D01*
X111373445Y-90093800D01*
X111352940Y-89924928D01*
X111323538Y-89847400D01*
X117378874Y-89847400D01*
X117688000Y-89847400D01*
X117688000Y-89605462D01*
X117707685Y-89538423D01*
X117724319Y-89517781D01*
X117737700Y-89504400D01*
X117737700Y-89298800D01*
X117428574Y-89298800D01*
X117439778Y-89327212D01*
X117529057Y-89444944D01*
X117542912Y-89455450D01*
X117584437Y-89511641D01*
X117588990Y-89581363D01*
X117555126Y-89642477D01*
X117542915Y-89653058D01*
X117479357Y-89701255D01*
X117390078Y-89818987D01*
X117378874Y-89847400D01*
X111323538Y-89847400D01*
X111292618Y-89765870D01*
X111195983Y-89625871D01*
X111068652Y-89513066D01*
X111068649Y-89513063D01*
X110918026Y-89434010D01*
X110752856Y-89393300D01*
X110582744Y-89393300D01*
X110417573Y-89434010D01*
X110266950Y-89513063D01*
X110139616Y-89625872D01*
X110042982Y-89765868D01*
X109982660Y-89924925D01*
X109982659Y-89924930D01*
X109962155Y-90093800D01*
X109982659Y-90262669D01*
X109982660Y-90262674D01*
X110042982Y-90421731D01*
X110119950Y-90533237D01*
X110141833Y-90599591D01*
X110141900Y-90603677D01*
X110141900Y-94523708D01*
X110141900Y-94655492D01*
X110154209Y-94701430D01*
X110176008Y-94782787D01*
X110193885Y-94813750D01*
X110241900Y-94896914D01*
X110828045Y-95483059D01*
X111400981Y-96055994D01*
X111434466Y-96117317D01*
X111437300Y-96143675D01*
X111437300Y-104897324D01*
X111417615Y-104964363D01*
X111400981Y-104985005D01*
X109760205Y-106625781D01*
X109698882Y-106659266D01*
X109672524Y-106662100D01*
X107319676Y-106662100D01*
X107252637Y-106642415D01*
X107231995Y-106625781D01*
X106784116Y-106177902D01*
X106784114Y-106177900D01*
X106727050Y-106144954D01*
X106669987Y-106112008D01*
X106606339Y-106094954D01*
X106542692Y-106077900D01*
X104713892Y-106077900D01*
X104582107Y-106077900D01*
X104504906Y-106098585D01*
X104504906Y-106098586D01*
X104454814Y-106112008D01*
X104454813Y-106112008D01*
X104454811Y-106112009D01*
X104340686Y-106177900D01*
X104340683Y-106177902D01*
X103764902Y-106753683D01*
X103764900Y-106753686D01*
X103699008Y-106867812D01*
X103664900Y-106995108D01*
X103664900Y-107151996D01*
X103645215Y-107219035D01*
X103641415Y-107224054D01*
X103641478Y-107224098D01*
X103540582Y-107370268D01*
X103480260Y-107529325D01*
X103480259Y-107529330D01*
X103459755Y-107698200D01*
X103480259Y-107867069D01*
X103480260Y-107867073D01*
X103488929Y-107889931D01*
X103494295Y-107959594D01*
X103461146Y-108021100D01*
X103400007Y-108054920D01*
X103372986Y-108057900D01*
X102894410Y-108057900D01*
X102827371Y-108038215D01*
X102806729Y-108021581D01*
X102392019Y-107606871D01*
X102358534Y-107545548D01*
X102355700Y-107519190D01*
X102355700Y-103982382D01*
X102354971Y-103979663D01*
X102354966Y-103979644D01*
X102336656Y-103911309D01*
X102326703Y-103874163D01*
X102285596Y-103802964D01*
X102285595Y-103802962D01*
X102270687Y-103777140D01*
X102270683Y-103777135D01*
X101960219Y-103466671D01*
X101926734Y-103405348D01*
X101923900Y-103378990D01*
X101923900Y-102502408D01*
X101943585Y-102435369D01*
X101996389Y-102389614D01*
X102065547Y-102379670D01*
X102097984Y-102388973D01*
X102177709Y-102424175D01*
X102202835Y-102427090D01*
X103600664Y-102427089D01*
X103600679Y-102427087D01*
X103600682Y-102427087D01*
X103625787Y-102424176D01*
X103625788Y-102424175D01*
X103625791Y-102424175D01*
X103728565Y-102378796D01*
X103808006Y-102299355D01*
X103853385Y-102196581D01*
X103856300Y-102171455D01*
X103856299Y-101726126D01*
X103855611Y-101720195D01*
X103853386Y-101701002D01*
X103853385Y-101701001D01*
X103853385Y-101700999D01*
X103841408Y-101673875D01*
X103832337Y-101604599D01*
X103841408Y-101573705D01*
X103853385Y-101546582D01*
X103856300Y-101521456D01*
X103856299Y-101076127D01*
X103856297Y-101076108D01*
X103853386Y-101051003D01*
X103853385Y-101051001D01*
X103853385Y-101051000D01*
X103841136Y-101023258D01*
X103832064Y-100953980D01*
X103841137Y-100923083D01*
X103852889Y-100896467D01*
X103855799Y-100871384D01*
X103855800Y-100871381D01*
X103855800Y-100826590D01*
X103654062Y-100826590D01*
X103635104Y-100824057D01*
X103635055Y-100824481D01*
X103625791Y-100823406D01*
X103621215Y-100822875D01*
X103600668Y-100820491D01*
X102847950Y-100820491D01*
X102780911Y-100800806D01*
X102735156Y-100748002D01*
X102723950Y-100696491D01*
X102723950Y-100601090D01*
X102743635Y-100534051D01*
X102796439Y-100488296D01*
X102847947Y-100477090D01*
X103600664Y-100477090D01*
X103608760Y-100476150D01*
X103635056Y-100473102D01*
X103635104Y-100473523D01*
X103654068Y-100470990D01*
X103855799Y-100470990D01*
X103855799Y-100426204D01*
X103855797Y-100426181D01*
X103852890Y-100401117D01*
X103852889Y-100401114D01*
X103841136Y-100374494D01*
X103832064Y-100305216D01*
X103841136Y-100274322D01*
X103853385Y-100246582D01*
X103856300Y-100221456D01*
X103856299Y-99776127D01*
X103855372Y-99768132D01*
X103853386Y-99751003D01*
X103853385Y-99751002D01*
X103853385Y-99751000D01*
X103841408Y-99723876D01*
X103832337Y-99654600D01*
X103841408Y-99623706D01*
X103853385Y-99596583D01*
X103856300Y-99571457D01*
X103856299Y-99126128D01*
X103855613Y-99120211D01*
X103853386Y-99101004D01*
X103853385Y-99101003D01*
X103853385Y-99101001D01*
X103841408Y-99073877D01*
X103832336Y-99004601D01*
X103841406Y-98973708D01*
X103853385Y-98946582D01*
X103856300Y-98921456D01*
X103856299Y-98476127D01*
X103854560Y-98461129D01*
X103853386Y-98451003D01*
X103853385Y-98451002D01*
X103853385Y-98451000D01*
X103841408Y-98423876D01*
X103832336Y-98354600D01*
X103841406Y-98323707D01*
X103853385Y-98296581D01*
X103856300Y-98271455D01*
X103856299Y-97826126D01*
X103856091Y-97824330D01*
X103853386Y-97801002D01*
X103853385Y-97801000D01*
X103853385Y-97800999D01*
X103808006Y-97698225D01*
X103728565Y-97618784D01*
X103662019Y-97589401D01*
X103625792Y-97573405D01*
X103600665Y-97570490D01*
X102202843Y-97570490D01*
X102202817Y-97570492D01*
X102177712Y-97573403D01*
X102177708Y-97573405D01*
X102088659Y-97612724D01*
X102038573Y-97623290D01*
X101074300Y-97623290D01*
X101007261Y-97603605D01*
X100961506Y-97550801D01*
X100950300Y-97499290D01*
X100950300Y-93565565D01*
X100969985Y-93498526D01*
X100986619Y-93477884D01*
X101311266Y-93153237D01*
X101655689Y-92808814D01*
X101698562Y-92734556D01*
X101714999Y-92706086D01*
X101745700Y-92591509D01*
X101745700Y-92237019D01*
X101765385Y-92169980D01*
X101771324Y-92161533D01*
X101803884Y-92119099D01*
X101819736Y-92098441D01*
X101880244Y-91952362D01*
X101900882Y-91795600D01*
X101895023Y-91751100D01*
X101880244Y-91638839D01*
X101880244Y-91638838D01*
X101819736Y-91492759D01*
X101723482Y-91367318D01*
X101598041Y-91271064D01*
X101570010Y-91259453D01*
X101459889Y-91213839D01*
X101405486Y-91169998D01*
X101383421Y-91103703D01*
X101400700Y-91036004D01*
X101451838Y-90988394D01*
X101459853Y-90984733D01*
X101547241Y-90948536D01*
X101672682Y-90852282D01*
X101768936Y-90726841D01*
X101829444Y-90580762D01*
X101850082Y-90424000D01*
X101849783Y-90421731D01*
X101829444Y-90267239D01*
X101829444Y-90267238D01*
X101768936Y-90121159D01*
X101672682Y-89995718D01*
X101547241Y-89899464D01*
X101543530Y-89897927D01*
X101401162Y-89838956D01*
X101401160Y-89838955D01*
X101244401Y-89818318D01*
X101244399Y-89818318D01*
X101087639Y-89838955D01*
X101087637Y-89838956D01*
X100941560Y-89899463D01*
X100816118Y-89995718D01*
X100719863Y-90121160D01*
X100659356Y-90267238D01*
X100648975Y-90346084D01*
X100620708Y-90409980D01*
X100613717Y-90417578D01*
X99639313Y-91391983D01*
X99639309Y-91391989D01*
X99580001Y-91494712D01*
X99580000Y-91494717D01*
X99549300Y-91609291D01*
X99549300Y-95458887D01*
X99529615Y-95525926D01*
X99476811Y-95571681D01*
X99407653Y-95581625D01*
X99379811Y-95574242D01*
X99340616Y-95558786D01*
X99321990Y-95551441D01*
X99237544Y-95541300D01*
X98705256Y-95541300D01*
X98667241Y-95545865D01*
X98620811Y-95551440D01*
X98486423Y-95604436D01*
X98371320Y-95691722D01*
X98294888Y-95792512D01*
X98238695Y-95834035D01*
X98168974Y-95838586D01*
X98107860Y-95804720D01*
X98097281Y-95792511D01*
X98021121Y-95692078D01*
X97906129Y-95604877D01*
X97871400Y-95591181D01*
X97871400Y-97042417D01*
X97906126Y-97028723D01*
X97906132Y-97028720D01*
X98021121Y-96941521D01*
X98097281Y-96841088D01*
X98153473Y-96799565D01*
X98223194Y-96795013D01*
X98284308Y-96828877D01*
X98294888Y-96841087D01*
X98364155Y-96932427D01*
X98371322Y-96941878D01*
X98372587Y-96942837D01*
X98493183Y-97034289D01*
X98491671Y-97036282D01*
X98531452Y-97077051D01*
X98545900Y-97135140D01*
X98545900Y-97523990D01*
X98526215Y-97591029D01*
X98509581Y-97611671D01*
X98265337Y-97855915D01*
X98258587Y-97862665D01*
X98197261Y-97896145D01*
X98127570Y-97891156D01*
X98071639Y-97849280D01*
X98051261Y-97807531D01*
X98049486Y-97801009D01*
X98049485Y-97801001D01*
X98004106Y-97698227D01*
X97924665Y-97618786D01*
X97910114Y-97612361D01*
X97821892Y-97573407D01*
X97796765Y-97570492D01*
X96398943Y-97570492D01*
X96398917Y-97570494D01*
X96373812Y-97573405D01*
X96373808Y-97573407D01*
X96271035Y-97618785D01*
X96271034Y-97618786D01*
X96183469Y-97706352D01*
X96180478Y-97703361D01*
X96143447Y-97733491D01*
X96074013Y-97741286D01*
X96020531Y-97717958D01*
X95962930Y-97674278D01*
X95903200Y-97650722D01*
X95903200Y-98687200D01*
X95883515Y-98754239D01*
X95830711Y-98799994D01*
X95779200Y-98811200D01*
X95127200Y-98811200D01*
X95060161Y-98791515D01*
X95014406Y-98738711D01*
X95003200Y-98687200D01*
X95003200Y-97650722D01*
X95003199Y-97650721D01*
X94943475Y-97674274D01*
X94941600Y-97675329D01*
X94939677Y-97675772D01*
X94935583Y-97677387D01*
X94935340Y-97676772D01*
X94873516Y-97691027D01*
X94807754Y-97667425D01*
X94778775Y-97637682D01*
X94745449Y-97589400D01*
X94723567Y-97523045D01*
X94723500Y-97518961D01*
X94723500Y-96766800D01*
X96710923Y-96766800D01*
X96734476Y-96826527D01*
X96734477Y-96826529D01*
X96821678Y-96941521D01*
X96936667Y-97028720D01*
X96936673Y-97028723D01*
X96971400Y-97042417D01*
X96971400Y-96766800D01*
X96710923Y-96766800D01*
X94723500Y-96766800D01*
X94723500Y-96221615D01*
X94743185Y-96154576D01*
X94745450Y-96151175D01*
X94784883Y-96094047D01*
X94808018Y-96060530D01*
X94868340Y-95901472D01*
X94872550Y-95866799D01*
X96710923Y-95866799D01*
X96710923Y-95866800D01*
X96971400Y-95866800D01*
X96971400Y-95591181D01*
X96936670Y-95604877D01*
X96821678Y-95692078D01*
X96734477Y-95807070D01*
X96734476Y-95807072D01*
X96710923Y-95866799D01*
X94872550Y-95866799D01*
X94888845Y-95732600D01*
X94868340Y-95563728D01*
X94808018Y-95404670D01*
X94786102Y-95372920D01*
X94738575Y-95304065D01*
X94711383Y-95264671D01*
X94584052Y-95151866D01*
X94584049Y-95151863D01*
X94433426Y-95072810D01*
X94268256Y-95032100D01*
X94098144Y-95032100D01*
X93932973Y-95072810D01*
X93782350Y-95151863D01*
X93655016Y-95264672D01*
X93558382Y-95404668D01*
X93498060Y-95563725D01*
X93498059Y-95563730D01*
X93477555Y-95732600D01*
X93498059Y-95901469D01*
X93498060Y-95901474D01*
X93558381Y-96060528D01*
X93558382Y-96060530D01*
X93600550Y-96121621D01*
X93622433Y-96187974D01*
X93622500Y-96192060D01*
X93622500Y-97518961D01*
X93602815Y-97586000D01*
X93600550Y-97589401D01*
X93548183Y-97665268D01*
X93548182Y-97665268D01*
X93487860Y-97824325D01*
X93487859Y-97824330D01*
X93467355Y-97993200D01*
X93487859Y-98162069D01*
X93487860Y-98162074D01*
X93548182Y-98321131D01*
X93610475Y-98411377D01*
X93644817Y-98461129D01*
X93738818Y-98544406D01*
X93772150Y-98573936D01*
X93880223Y-98630657D01*
X93922775Y-98652990D01*
X94087944Y-98693700D01*
X94258056Y-98693700D01*
X94423225Y-98652990D01*
X94506694Y-98609181D01*
X94575200Y-98595456D01*
X94640254Y-98620948D01*
X94681199Y-98677563D01*
X94687434Y-98704192D01*
X94688331Y-98711667D01*
X94688331Y-98711668D01*
X94741277Y-98845929D01*
X94828478Y-98960921D01*
X94928911Y-99037081D01*
X94970434Y-99093273D01*
X94974986Y-99162995D01*
X94941121Y-99224109D01*
X94928912Y-99234688D01*
X94828122Y-99311120D01*
X94740835Y-99426224D01*
X94724773Y-99466955D01*
X94681866Y-99522098D01*
X94615957Y-99545290D01*
X94547973Y-99529168D01*
X94533933Y-99519839D01*
X94475842Y-99475264D01*
X94329762Y-99414756D01*
X94329760Y-99414755D01*
X94173001Y-99394118D01*
X94172999Y-99394118D01*
X94016239Y-99414755D01*
X94016237Y-99414756D01*
X93870160Y-99475263D01*
X93744718Y-99571518D01*
X93648463Y-99696960D01*
X93587956Y-99843037D01*
X93587955Y-99843039D01*
X93567318Y-99999798D01*
X93567318Y-99999801D01*
X93587955Y-100156560D01*
X93587956Y-100156562D01*
X93645177Y-100294707D01*
X93648464Y-100302641D01*
X93721877Y-100398315D01*
X93747070Y-100463481D01*
X93747500Y-100473799D01*
X93747500Y-101331013D01*
X93727815Y-101398052D01*
X93675011Y-101443807D01*
X93605853Y-101453751D01*
X93542297Y-101424726D01*
X93535819Y-101418694D01*
X93413526Y-101296401D01*
X93385265Y-101252690D01*
X93345827Y-101148700D01*
X93334818Y-101119670D01*
X93319808Y-101097925D01*
X93291087Y-101056315D01*
X93238183Y-100979671D01*
X93115952Y-100871384D01*
X93110849Y-100866863D01*
X92960226Y-100787810D01*
X92795056Y-100747100D01*
X92624944Y-100747100D01*
X92459773Y-100787810D01*
X92309150Y-100866863D01*
X92181816Y-100979672D01*
X92085182Y-101119668D01*
X92024860Y-101278725D01*
X92024859Y-101278730D01*
X92004355Y-101447600D01*
X72542914Y-101447600D01*
X72565001Y-101431553D01*
X72693053Y-101303501D01*
X72799496Y-101156994D01*
X72881711Y-100995639D01*
X72937671Y-100823409D01*
X72957302Y-100699464D01*
X72966000Y-100644551D01*
X72966000Y-100463448D01*
X72947929Y-100349356D01*
X72937671Y-100284591D01*
X72881711Y-100112361D01*
X72881711Y-100112360D01*
X72846058Y-100042389D01*
X72799496Y-99951006D01*
X72759348Y-99895747D01*
X72693058Y-99804505D01*
X72693054Y-99804500D01*
X72564999Y-99676445D01*
X72564994Y-99676441D01*
X72418497Y-99570006D01*
X72418496Y-99570005D01*
X72418494Y-99570004D01*
X72360982Y-99540700D01*
X72257139Y-99487788D01*
X72257136Y-99487787D01*
X72084910Y-99431829D01*
X72051094Y-99426473D01*
X71987959Y-99396544D01*
X71951028Y-99337232D01*
X71952026Y-99267370D01*
X71990636Y-99209137D01*
X72051094Y-99181527D01*
X72058888Y-99180292D01*
X72084909Y-99176171D01*
X72257139Y-99120211D01*
X72418494Y-99037996D01*
X72565001Y-98931553D01*
X72693053Y-98803501D01*
X72799496Y-98656994D01*
X72881711Y-98495639D01*
X72937671Y-98323409D01*
X72963224Y-98162074D01*
X72966000Y-98144551D01*
X72966000Y-97963448D01*
X72947917Y-97849280D01*
X72937671Y-97784591D01*
X72901829Y-97674278D01*
X72881712Y-97612363D01*
X72881711Y-97612360D01*
X72853240Y-97556484D01*
X72799496Y-97451006D01*
X72735466Y-97362876D01*
X72693058Y-97304505D01*
X72693054Y-97304500D01*
X72564999Y-97176445D01*
X72564994Y-97176441D01*
X72418497Y-97070006D01*
X72418496Y-97070005D01*
X72418494Y-97070004D01*
X72362841Y-97041647D01*
X72257139Y-96987788D01*
X72257136Y-96987787D01*
X72084910Y-96931829D01*
X72051094Y-96926473D01*
X71987959Y-96896544D01*
X71951028Y-96837232D01*
X71952026Y-96767370D01*
X71990636Y-96709137D01*
X72051094Y-96681527D01*
X72058888Y-96680292D01*
X72084909Y-96676171D01*
X72257139Y-96620211D01*
X72418494Y-96537996D01*
X72565001Y-96431553D01*
X72693053Y-96303501D01*
X72799496Y-96156994D01*
X72881711Y-95995639D01*
X72937671Y-95823409D01*
X72957229Y-95699925D01*
X72966000Y-95644551D01*
X72966000Y-95463448D01*
X72947563Y-95347048D01*
X72937671Y-95284591D01*
X72885886Y-95125211D01*
X72881712Y-95112363D01*
X72881711Y-95112360D01*
X72862521Y-95074698D01*
X78524068Y-95074698D01*
X78524068Y-95074701D01*
X78544705Y-95231460D01*
X78544707Y-95231465D01*
X78607411Y-95382848D01*
X78614880Y-95452317D01*
X78607411Y-95477752D01*
X78544707Y-95629134D01*
X78544705Y-95629139D01*
X78524068Y-95785898D01*
X78524068Y-95785901D01*
X78544705Y-95942660D01*
X78544707Y-95942665D01*
X78607411Y-96094048D01*
X78614880Y-96163517D01*
X78607411Y-96188952D01*
X78544707Y-96340334D01*
X78544705Y-96340339D01*
X78524068Y-96497098D01*
X78524068Y-96497101D01*
X78544705Y-96653860D01*
X78544706Y-96653862D01*
X78603948Y-96796886D01*
X78605214Y-96799941D01*
X78701468Y-96925382D01*
X78826909Y-97021636D01*
X78972988Y-97082144D01*
X79051369Y-97092463D01*
X79129749Y-97102782D01*
X79129750Y-97102782D01*
X79129751Y-97102782D01*
X79190980Y-97094721D01*
X79286512Y-97082144D01*
X79432591Y-97021636D01*
X79460665Y-97000093D01*
X79525831Y-96974900D01*
X79594276Y-96988937D01*
X79611627Y-97000088D01*
X79639709Y-97021636D01*
X79639712Y-97021637D01*
X79639713Y-97021638D01*
X79712748Y-97051890D01*
X79785788Y-97082144D01*
X79864169Y-97092463D01*
X79942549Y-97102782D01*
X79942550Y-97102782D01*
X79942551Y-97102782D01*
X80003780Y-97094721D01*
X80099312Y-97082144D01*
X80245391Y-97021636D01*
X80288005Y-96988937D01*
X80298864Y-96980605D01*
X80364033Y-96955411D01*
X80432478Y-96969449D01*
X80449836Y-96980605D01*
X80503307Y-97021635D01*
X80503308Y-97021635D01*
X80503309Y-97021636D01*
X80649388Y-97082144D01*
X80727769Y-97092463D01*
X80806149Y-97102782D01*
X80806150Y-97102782D01*
X80806151Y-97102782D01*
X80867380Y-97094721D01*
X80962912Y-97082144D01*
X81108991Y-97021636D01*
X81149764Y-96990349D01*
X81214931Y-96965155D01*
X81283376Y-96979193D01*
X81300733Y-96990347D01*
X81341509Y-97021636D01*
X81341511Y-97021636D01*
X81341513Y-97021638D01*
X81414548Y-97051890D01*
X81487588Y-97082144D01*
X81565969Y-97092463D01*
X81644349Y-97102782D01*
X81644350Y-97102782D01*
X81644351Y-97102782D01*
X81705580Y-97094721D01*
X81801112Y-97082144D01*
X81947191Y-97021636D01*
X81987964Y-96990349D01*
X82053131Y-96965155D01*
X82121576Y-96979193D01*
X82138933Y-96990347D01*
X82179709Y-97021636D01*
X82179711Y-97021636D01*
X82179713Y-97021638D01*
X82252748Y-97051890D01*
X82325788Y-97082144D01*
X82404169Y-97092463D01*
X82482549Y-97102782D01*
X82482550Y-97102782D01*
X82482551Y-97102782D01*
X82543780Y-97094721D01*
X82639312Y-97082144D01*
X82785391Y-97021636D01*
X82910832Y-96925382D01*
X83007086Y-96799941D01*
X83067594Y-96653862D01*
X83088232Y-96497100D01*
X83067594Y-96340338D01*
X83007086Y-96194259D01*
X83007085Y-96194258D01*
X83004888Y-96188953D01*
X82997419Y-96119483D01*
X83004888Y-96094047D01*
X83007086Y-96088741D01*
X83067594Y-95942662D01*
X83067594Y-95942660D01*
X83070704Y-95935153D01*
X83072679Y-95935971D01*
X83103159Y-95885955D01*
X83166003Y-95855419D01*
X83186579Y-95853700D01*
X90356075Y-95853700D01*
X90356077Y-95853700D01*
X90457937Y-95826407D01*
X90549263Y-95773680D01*
X90623830Y-95699113D01*
X90676557Y-95607787D01*
X90703850Y-95505927D01*
X90703850Y-92218500D01*
X90723535Y-92151461D01*
X90776339Y-92105706D01*
X90827850Y-92094500D01*
X91746533Y-92094500D01*
X91813572Y-92114185D01*
X91859327Y-92166989D01*
X91862715Y-92175166D01*
X91876203Y-92211330D01*
X91876206Y-92211335D01*
X91962452Y-92326544D01*
X91962455Y-92326547D01*
X92077664Y-92412793D01*
X92077671Y-92412797D01*
X92122618Y-92429561D01*
X92212517Y-92463091D01*
X92272127Y-92469500D01*
X92767872Y-92469499D01*
X92827483Y-92463091D01*
X92962331Y-92412796D01*
X93077546Y-92326546D01*
X93163796Y-92211331D01*
X93214091Y-92076483D01*
X93220500Y-92016873D01*
X93220499Y-91371128D01*
X93220499Y-91371127D01*
X93469500Y-91371127D01*
X93469500Y-91371134D01*
X93469500Y-91371135D01*
X93469500Y-92016870D01*
X93469501Y-92016876D01*
X93475908Y-92076483D01*
X93526202Y-92211328D01*
X93526206Y-92211335D01*
X93612452Y-92326544D01*
X93612455Y-92326547D01*
X93727664Y-92412793D01*
X93727671Y-92412797D01*
X93772618Y-92429561D01*
X93862517Y-92463091D01*
X93922127Y-92469500D01*
X94417872Y-92469499D01*
X94477483Y-92463091D01*
X94612331Y-92412796D01*
X94727546Y-92326546D01*
X94813796Y-92211331D01*
X94813798Y-92211323D01*
X94815027Y-92209076D01*
X94816849Y-92207253D01*
X94819112Y-92204231D01*
X94819546Y-92204556D01*
X94864431Y-92159669D01*
X94923861Y-92144500D01*
X95029907Y-92144500D01*
X95029909Y-92144500D01*
X95124706Y-92119099D01*
X95144487Y-92113799D01*
X95247214Y-92054489D01*
X95355392Y-91946310D01*
X95416714Y-91912826D01*
X95486406Y-91917810D01*
X95542340Y-91959681D01*
X95559015Y-91990021D01*
X95590382Y-92072730D01*
X95590383Y-92072731D01*
X95691278Y-92218903D01*
X95689291Y-92220274D01*
X95714035Y-92272900D01*
X95715500Y-92291907D01*
X95715500Y-93810561D01*
X95695815Y-93877600D01*
X95693550Y-93881001D01*
X95641183Y-93956868D01*
X95641182Y-93956868D01*
X95580860Y-94115925D01*
X95580859Y-94115930D01*
X95560355Y-94284800D01*
X95580859Y-94453669D01*
X95580860Y-94453674D01*
X95641182Y-94612731D01*
X95685163Y-94676447D01*
X95737817Y-94752729D01*
X95841359Y-94844459D01*
X95865150Y-94865536D01*
X95964992Y-94917937D01*
X96015775Y-94944590D01*
X96180944Y-94985300D01*
X96351056Y-94985300D01*
X96516225Y-94944590D01*
X96610485Y-94895118D01*
X96666849Y-94865536D01*
X96666850Y-94865534D01*
X96666852Y-94865534D01*
X96794183Y-94752729D01*
X96890818Y-94612730D01*
X96951140Y-94453672D01*
X96971645Y-94284800D01*
X96951140Y-94115928D01*
X96890818Y-93956870D01*
X96890817Y-93956868D01*
X96838450Y-93881001D01*
X96816567Y-93814646D01*
X96816500Y-93810561D01*
X96816500Y-92145441D01*
X96836185Y-92078402D01*
X96838429Y-92075031D01*
X96840018Y-92072730D01*
X96900340Y-91913672D01*
X96920845Y-91744800D01*
X96900340Y-91575928D01*
X96840018Y-91416870D01*
X96833557Y-91407510D01*
X96779097Y-91328611D01*
X96743383Y-91276871D01*
X96743381Y-91276869D01*
X96701335Y-91239619D01*
X96664208Y-91180430D01*
X96664976Y-91110564D01*
X96703394Y-91052205D01*
X96767261Y-91023881D01*
X96879962Y-91009044D01*
X97026041Y-90948536D01*
X97151482Y-90852282D01*
X97247736Y-90726841D01*
X97308244Y-90580762D01*
X97328882Y-90424000D01*
X97328583Y-90421731D01*
X97308244Y-90267239D01*
X97308244Y-90267238D01*
X97247736Y-90121159D01*
X97151482Y-89995718D01*
X97026041Y-89899464D01*
X97022330Y-89897927D01*
X96879962Y-89838956D01*
X96879960Y-89838955D01*
X96723201Y-89818318D01*
X96723199Y-89818318D01*
X96566439Y-89838955D01*
X96566437Y-89838956D01*
X96420357Y-89899464D01*
X96357267Y-89947876D01*
X96292098Y-89973070D01*
X96281781Y-89973500D01*
X96252187Y-89973500D01*
X96185148Y-89953815D01*
X96139393Y-89901011D01*
X96129248Y-89833315D01*
X96135082Y-89789001D01*
X96135082Y-89788998D01*
X96118135Y-89660271D01*
X96114444Y-89632238D01*
X96053936Y-89486159D01*
X95957682Y-89360718D01*
X95832241Y-89264464D01*
X95792394Y-89247959D01*
X95686162Y-89203956D01*
X95686160Y-89203955D01*
X95529401Y-89183318D01*
X95529399Y-89183318D01*
X95372639Y-89203955D01*
X95372637Y-89203956D01*
X95226560Y-89264463D01*
X95101118Y-89360718D01*
X95004863Y-89486160D01*
X94979633Y-89547071D01*
X94935791Y-89601475D01*
X94869497Y-89623539D01*
X94801798Y-89606259D01*
X94785450Y-89593560D01*
X94785445Y-89593568D01*
X94663135Y-89502006D01*
X94663128Y-89502002D01*
X94528286Y-89451710D01*
X94528285Y-89451709D01*
X94528283Y-89451709D01*
X94468673Y-89445300D01*
X94468663Y-89445300D01*
X93972929Y-89445300D01*
X93972923Y-89445301D01*
X93913316Y-89451708D01*
X93778471Y-89502002D01*
X93778464Y-89502006D01*
X93663255Y-89588252D01*
X93663252Y-89588255D01*
X93577006Y-89703464D01*
X93577002Y-89703471D01*
X93526710Y-89838313D01*
X93526709Y-89838317D01*
X93520300Y-89897927D01*
X93520300Y-89897934D01*
X93520300Y-89897935D01*
X93520300Y-90543670D01*
X93520301Y-90543676D01*
X93526708Y-90603283D01*
X93577002Y-90738128D01*
X93577006Y-90738135D01*
X93668568Y-90860445D01*
X93666283Y-90862155D01*
X93692816Y-90910746D01*
X93687832Y-90980438D01*
X93645962Y-91036370D01*
X93612452Y-91061455D01*
X93526206Y-91176664D01*
X93526202Y-91176671D01*
X93485769Y-91285080D01*
X93475909Y-91311517D01*
X93469500Y-91371127D01*
X93220499Y-91371127D01*
X93214091Y-91311517D01*
X93203543Y-91283237D01*
X93163797Y-91176671D01*
X93163793Y-91176664D01*
X93072232Y-91054355D01*
X93074401Y-91052731D01*
X93047626Y-91003696D01*
X93052610Y-90934004D01*
X93094482Y-90878071D01*
X93094483Y-90878070D01*
X93127990Y-90852987D01*
X93214150Y-90737893D01*
X93257824Y-90620800D01*
X91883776Y-90620800D01*
X91927449Y-90737893D01*
X92018925Y-90860088D01*
X92016656Y-90861785D01*
X92043224Y-90910440D01*
X92038240Y-90980132D01*
X91996370Y-91036064D01*
X91962452Y-91061455D01*
X91876204Y-91176667D01*
X91875405Y-91178131D01*
X91874226Y-91179309D01*
X91870888Y-91183769D01*
X91870246Y-91183288D01*
X91825997Y-91227535D01*
X91766575Y-91242700D01*
X90827850Y-91242700D01*
X90760811Y-91223015D01*
X90715056Y-91170211D01*
X90703850Y-91118700D01*
X90703850Y-88780653D01*
X91684400Y-88780653D01*
X91695013Y-88869043D01*
X91750479Y-89009695D01*
X91841835Y-89130164D01*
X91962304Y-89221520D01*
X92110351Y-89279902D01*
X92109157Y-89282929D01*
X92156352Y-89310758D01*
X92187797Y-89373151D01*
X92180518Y-89442641D01*
X92136826Y-89497164D01*
X92130679Y-89500972D01*
X92013612Y-89588609D01*
X92013609Y-89588612D01*
X91927449Y-89703706D01*
X91883776Y-89820800D01*
X93257824Y-89820800D01*
X93214150Y-89703706D01*
X93127990Y-89588612D01*
X93127987Y-89588609D01*
X93012893Y-89502449D01*
X93012884Y-89502444D01*
X93010580Y-89501585D01*
X93008611Y-89500111D01*
X93005104Y-89498196D01*
X93005379Y-89497691D01*
X92954648Y-89459711D01*
X92930235Y-89394245D01*
X92945090Y-89325973D01*
X92994497Y-89276570D01*
X93008430Y-89270050D01*
X93131494Y-89221521D01*
X93251964Y-89130164D01*
X93343320Y-89009695D01*
X93398786Y-88869043D01*
X93409400Y-88780653D01*
X93409400Y-88612600D01*
X91684400Y-88612600D01*
X91684400Y-88780653D01*
X90703850Y-88780653D01*
X90703850Y-88163400D01*
X105644155Y-88163400D01*
X105664659Y-88332269D01*
X105664660Y-88332274D01*
X105724982Y-88491331D01*
X105787275Y-88581577D01*
X105821617Y-88631329D01*
X105895063Y-88696396D01*
X105948950Y-88744136D01*
X106079140Y-88812465D01*
X106099575Y-88823190D01*
X106264744Y-88863900D01*
X106434856Y-88863900D01*
X106600025Y-88823190D01*
X106681072Y-88780653D01*
X106750649Y-88744136D01*
X106750650Y-88744134D01*
X106750652Y-88744134D01*
X106877983Y-88631329D01*
X106974618Y-88491330D01*
X107028672Y-88348800D01*
X117428574Y-88348800D01*
X117737700Y-88348800D01*
X117737700Y-88077527D01*
X117646787Y-88113378D01*
X117529056Y-88202656D01*
X117439778Y-88320387D01*
X117428574Y-88348800D01*
X107028672Y-88348800D01*
X107034940Y-88332272D01*
X107055445Y-88163400D01*
X107034940Y-87994528D01*
X106974618Y-87835470D01*
X106877983Y-87695471D01*
X106750652Y-87582666D01*
X106750649Y-87582663D01*
X106600026Y-87503610D01*
X106434856Y-87462900D01*
X106264744Y-87462900D01*
X106099573Y-87503610D01*
X105948950Y-87582663D01*
X105821616Y-87695472D01*
X105724982Y-87835468D01*
X105664663Y-87994519D01*
X105664659Y-87994530D01*
X105644155Y-88163400D01*
X90703850Y-88163400D01*
X90703850Y-87444546D01*
X91684400Y-87444546D01*
X91684400Y-87612600D01*
X92046900Y-87612600D01*
X93046900Y-87612600D01*
X93409400Y-87612600D01*
X93409400Y-87444546D01*
X93398786Y-87356156D01*
X93343320Y-87215504D01*
X93251964Y-87095035D01*
X93131493Y-87003678D01*
X93046900Y-86970319D01*
X93046900Y-87612600D01*
X92046900Y-87612600D01*
X92046900Y-86970319D01*
X92046899Y-86970319D01*
X91962306Y-87003678D01*
X91841835Y-87095035D01*
X91750479Y-87215504D01*
X91695013Y-87356156D01*
X91684400Y-87444546D01*
X90703850Y-87444546D01*
X90703850Y-85200903D01*
X94636279Y-85200903D01*
X94685950Y-85224065D01*
X94685959Y-85224069D01*
X94905666Y-85282939D01*
X94905677Y-85282941D01*
X95132275Y-85302766D01*
X95132279Y-85302766D01*
X95358876Y-85282941D01*
X95358883Y-85282940D01*
X95578605Y-85224065D01*
X95628274Y-85200903D01*
X95132278Y-84704907D01*
X95132277Y-84704907D01*
X94636279Y-85200903D01*
X90703850Y-85200903D01*
X90703850Y-83997797D01*
X93827311Y-83997797D01*
X93827311Y-83997802D01*
X93847135Y-84224399D01*
X93847137Y-84224410D01*
X93906008Y-84444120D01*
X93929172Y-84493796D01*
X94425170Y-83997800D01*
X94425170Y-83997799D01*
X94359345Y-83931974D01*
X94632277Y-83931974D01*
X94632277Y-84063626D01*
X94666352Y-84190793D01*
X94732178Y-84304807D01*
X94825270Y-84397899D01*
X94939284Y-84463725D01*
X95066451Y-84497800D01*
X95198103Y-84497800D01*
X95325270Y-84463725D01*
X95439284Y-84397899D01*
X95532376Y-84304807D01*
X95598202Y-84190793D01*
X95632277Y-84063626D01*
X95632277Y-83997799D01*
X95839384Y-83997799D01*
X95839384Y-83997801D01*
X96335380Y-84493797D01*
X96358542Y-84444128D01*
X96417417Y-84224406D01*
X96417418Y-84224399D01*
X96437243Y-83997802D01*
X96437243Y-83997797D01*
X96417418Y-83771200D01*
X96417416Y-83771189D01*
X96358546Y-83551482D01*
X96358542Y-83551473D01*
X96335380Y-83501802D01*
X95839384Y-83997799D01*
X95632277Y-83997799D01*
X95632277Y-83931974D01*
X95598202Y-83804807D01*
X95532376Y-83690793D01*
X95439284Y-83597701D01*
X95325270Y-83531875D01*
X95198103Y-83497800D01*
X95066451Y-83497800D01*
X94939284Y-83531875D01*
X94825270Y-83597701D01*
X94732178Y-83690793D01*
X94666352Y-83804807D01*
X94632277Y-83931974D01*
X94359345Y-83931974D01*
X93929172Y-83501802D01*
X93906008Y-83551477D01*
X93847137Y-83771189D01*
X93847135Y-83771200D01*
X93827311Y-83997797D01*
X90703850Y-83997797D01*
X90703850Y-82794695D01*
X94636279Y-82794695D01*
X95132277Y-83290693D01*
X95132278Y-83290693D01*
X95470038Y-82952931D01*
X98831777Y-82952931D01*
X98831777Y-85042656D01*
X98831779Y-85042682D01*
X98834690Y-85067787D01*
X98834692Y-85067791D01*
X98880070Y-85170564D01*
X98880071Y-85170565D01*
X98959512Y-85250006D01*
X99062286Y-85295385D01*
X99087412Y-85298300D01*
X101177141Y-85298299D01*
X101177156Y-85298297D01*
X101177159Y-85298297D01*
X101202264Y-85295386D01*
X101202265Y-85295385D01*
X101202268Y-85295385D01*
X101305042Y-85250006D01*
X101384483Y-85170565D01*
X101429862Y-85067791D01*
X101432777Y-85042665D01*
X101432776Y-82952936D01*
X101432775Y-82952931D01*
X104465100Y-82952931D01*
X104465100Y-85042656D01*
X104465102Y-85042682D01*
X104468013Y-85067787D01*
X104468015Y-85067791D01*
X104513393Y-85170564D01*
X104513394Y-85170565D01*
X104592835Y-85250006D01*
X104695609Y-85295385D01*
X104720735Y-85298300D01*
X106810464Y-85298299D01*
X106810479Y-85298297D01*
X106810482Y-85298297D01*
X106835587Y-85295386D01*
X106835588Y-85295385D01*
X106835591Y-85295385D01*
X106938365Y-85250006D01*
X106987468Y-85200903D01*
X110269602Y-85200903D01*
X110319273Y-85224065D01*
X110319282Y-85224069D01*
X110538989Y-85282939D01*
X110539000Y-85282941D01*
X110765598Y-85302766D01*
X110765602Y-85302766D01*
X110992199Y-85282941D01*
X110992206Y-85282940D01*
X111211928Y-85224065D01*
X111261597Y-85200903D01*
X110857197Y-84796503D01*
X120578545Y-84796503D01*
X120605919Y-84807842D01*
X120749497Y-84826745D01*
X120749499Y-84826745D01*
X120893077Y-84807842D01*
X120920449Y-84796504D01*
X120920449Y-84796503D01*
X120749499Y-84625552D01*
X120578545Y-84796503D01*
X110857197Y-84796503D01*
X110765601Y-84704907D01*
X110765600Y-84704907D01*
X110269602Y-85200903D01*
X106987468Y-85200903D01*
X107017806Y-85170565D01*
X107063185Y-85067791D01*
X107066100Y-85042665D01*
X107066099Y-83997797D01*
X109460634Y-83997797D01*
X109460634Y-83997802D01*
X109480458Y-84224399D01*
X109480460Y-84224410D01*
X109539331Y-84444120D01*
X109562495Y-84493796D01*
X110058493Y-83997800D01*
X110058493Y-83997799D01*
X109992668Y-83931974D01*
X110265600Y-83931974D01*
X110265600Y-84063626D01*
X110299675Y-84190793D01*
X110365501Y-84304807D01*
X110458593Y-84397899D01*
X110572607Y-84463725D01*
X110699774Y-84497800D01*
X110831426Y-84497800D01*
X110958593Y-84463725D01*
X111072607Y-84397899D01*
X111165699Y-84304807D01*
X111231525Y-84190793D01*
X111265600Y-84063626D01*
X111265600Y-83997799D01*
X111472707Y-83997799D01*
X111472707Y-83997801D01*
X111968703Y-84493797D01*
X111991865Y-84444128D01*
X112037988Y-84271998D01*
X120194753Y-84271998D01*
X120194753Y-84272001D01*
X120213655Y-84415582D01*
X120224992Y-84442951D01*
X120395945Y-84271999D01*
X120375737Y-84251791D01*
X120647898Y-84251791D01*
X120647898Y-84292209D01*
X120663366Y-84329552D01*
X120691946Y-84358132D01*
X120729289Y-84373600D01*
X120769707Y-84373600D01*
X120807050Y-84358132D01*
X120835630Y-84329552D01*
X120851098Y-84292209D01*
X120851098Y-84272000D01*
X121103050Y-84272000D01*
X121274001Y-84442951D01*
X121274002Y-84442951D01*
X121285340Y-84415579D01*
X121304243Y-84272001D01*
X121304243Y-84271998D01*
X121285340Y-84128421D01*
X121274001Y-84101047D01*
X121103050Y-84272000D01*
X120851098Y-84272000D01*
X120851098Y-84251791D01*
X120835630Y-84214448D01*
X120807050Y-84185868D01*
X120769707Y-84170400D01*
X120729289Y-84170400D01*
X120691946Y-84185868D01*
X120663366Y-84214448D01*
X120647898Y-84251791D01*
X120375737Y-84251791D01*
X120224992Y-84101046D01*
X120213655Y-84128419D01*
X120194753Y-84271998D01*
X112037988Y-84271998D01*
X112050740Y-84224406D01*
X112050741Y-84224399D01*
X112070566Y-83997802D01*
X112070566Y-83997797D01*
X112050741Y-83771200D01*
X112050739Y-83771189D01*
X112046937Y-83757000D01*
X120588050Y-83757000D01*
X120749498Y-83918448D01*
X120910946Y-83757000D01*
X120749498Y-83595552D01*
X120588050Y-83757000D01*
X112046937Y-83757000D01*
X111991869Y-83551482D01*
X111991865Y-83551473D01*
X111968703Y-83501802D01*
X111472707Y-83997799D01*
X111265600Y-83997799D01*
X111265600Y-83931974D01*
X111231525Y-83804807D01*
X111165699Y-83690793D01*
X111072607Y-83597701D01*
X110958593Y-83531875D01*
X110831426Y-83497800D01*
X110699774Y-83497800D01*
X110572607Y-83531875D01*
X110458593Y-83597701D01*
X110365501Y-83690793D01*
X110299675Y-83804807D01*
X110265600Y-83931974D01*
X109992668Y-83931974D01*
X109562495Y-83501802D01*
X109539331Y-83551477D01*
X109480460Y-83771189D01*
X109480458Y-83771200D01*
X109460634Y-83997797D01*
X107066099Y-83997797D01*
X107066099Y-82952936D01*
X107065693Y-82949436D01*
X107063186Y-82927812D01*
X107063185Y-82927810D01*
X107063185Y-82927809D01*
X107017806Y-82825035D01*
X106987466Y-82794695D01*
X110269602Y-82794695D01*
X110765600Y-83290693D01*
X110765601Y-83290693D01*
X110814296Y-83241998D01*
X120194753Y-83241998D01*
X120194753Y-83242001D01*
X120213655Y-83385582D01*
X120224992Y-83412951D01*
X120395945Y-83241999D01*
X120375737Y-83221791D01*
X120647898Y-83221791D01*
X120647898Y-83262209D01*
X120663366Y-83299552D01*
X120691946Y-83328132D01*
X120729289Y-83343600D01*
X120769707Y-83343600D01*
X120807050Y-83328132D01*
X120835630Y-83299552D01*
X120851098Y-83262209D01*
X120851098Y-83242000D01*
X121103050Y-83242000D01*
X121274001Y-83412951D01*
X121274002Y-83412951D01*
X121285340Y-83385579D01*
X121304243Y-83242001D01*
X121304243Y-83241998D01*
X121285340Y-83098421D01*
X121274001Y-83071047D01*
X121103050Y-83242000D01*
X120851098Y-83242000D01*
X120851098Y-83221791D01*
X120835630Y-83184448D01*
X120807050Y-83155868D01*
X120769707Y-83140400D01*
X120729289Y-83140400D01*
X120691946Y-83155868D01*
X120663366Y-83184448D01*
X120647898Y-83221791D01*
X120375737Y-83221791D01*
X120224992Y-83071046D01*
X120213655Y-83098419D01*
X120194753Y-83241998D01*
X110814296Y-83241998D01*
X111261596Y-82794695D01*
X111211920Y-82771531D01*
X110992210Y-82712660D01*
X110992199Y-82712658D01*
X110765602Y-82692834D01*
X110765598Y-82692834D01*
X110539000Y-82712658D01*
X110538989Y-82712660D01*
X110319277Y-82771531D01*
X110269602Y-82794695D01*
X106987466Y-82794695D01*
X106938365Y-82745594D01*
X106897932Y-82727741D01*
X106835592Y-82700215D01*
X106810465Y-82697300D01*
X104720743Y-82697300D01*
X104720717Y-82697302D01*
X104695612Y-82700213D01*
X104695608Y-82700215D01*
X104592835Y-82745593D01*
X104513394Y-82825034D01*
X104468015Y-82927806D01*
X104468015Y-82927808D01*
X104465100Y-82952931D01*
X101432775Y-82952931D01*
X101432370Y-82949436D01*
X101429863Y-82927812D01*
X101429862Y-82927810D01*
X101429862Y-82927809D01*
X101384483Y-82825035D01*
X101305042Y-82745594D01*
X101264609Y-82727741D01*
X101202269Y-82700215D01*
X101177142Y-82697300D01*
X99087420Y-82697300D01*
X99087394Y-82697302D01*
X99062289Y-82700213D01*
X99062285Y-82700215D01*
X98959512Y-82745593D01*
X98880071Y-82825034D01*
X98834692Y-82927806D01*
X98834692Y-82927808D01*
X98831777Y-82952931D01*
X95470038Y-82952931D01*
X95628273Y-82794695D01*
X95578597Y-82771531D01*
X95358887Y-82712660D01*
X95358876Y-82712658D01*
X95132279Y-82692834D01*
X95132275Y-82692834D01*
X94905677Y-82712658D01*
X94905666Y-82712660D01*
X94685954Y-82771531D01*
X94636279Y-82794695D01*
X90703850Y-82794695D01*
X90703850Y-82424898D01*
X114325418Y-82424898D01*
X114325418Y-82424901D01*
X114346055Y-82581660D01*
X114346056Y-82581662D01*
X114395161Y-82700213D01*
X114406564Y-82727741D01*
X114502818Y-82853182D01*
X114628259Y-82949436D01*
X114774338Y-83009944D01*
X114852719Y-83020263D01*
X114931099Y-83030582D01*
X114931100Y-83030582D01*
X114931101Y-83030582D01*
X114983354Y-83023702D01*
X115087862Y-83009944D01*
X115233941Y-82949436D01*
X115359382Y-82853182D01*
X115455636Y-82727741D01*
X115455943Y-82727000D01*
X120588050Y-82727000D01*
X120749498Y-82888448D01*
X120910946Y-82727000D01*
X120749498Y-82565552D01*
X120588050Y-82727000D01*
X115455943Y-82727000D01*
X115516144Y-82581662D01*
X115536782Y-82424900D01*
X115516144Y-82268138D01*
X115492890Y-82211998D01*
X120194753Y-82211998D01*
X120194753Y-82212001D01*
X120213655Y-82355582D01*
X120224992Y-82382951D01*
X120395945Y-82211999D01*
X120375737Y-82191791D01*
X120647898Y-82191791D01*
X120647898Y-82232209D01*
X120663366Y-82269552D01*
X120691946Y-82298132D01*
X120729289Y-82313600D01*
X120769707Y-82313600D01*
X120807050Y-82298132D01*
X120835630Y-82269552D01*
X120851098Y-82232209D01*
X120851098Y-82212000D01*
X121103050Y-82212000D01*
X121274001Y-82382951D01*
X121274002Y-82382951D01*
X121285340Y-82355579D01*
X121304243Y-82212001D01*
X121304243Y-82211998D01*
X121285340Y-82068421D01*
X121274001Y-82041047D01*
X121103050Y-82212000D01*
X120851098Y-82212000D01*
X120851098Y-82191791D01*
X120835630Y-82154448D01*
X120807050Y-82125868D01*
X120769707Y-82110400D01*
X120729289Y-82110400D01*
X120691946Y-82125868D01*
X120663366Y-82154448D01*
X120647898Y-82191791D01*
X120375737Y-82191791D01*
X120224992Y-82041046D01*
X120213655Y-82068419D01*
X120194753Y-82211998D01*
X115492890Y-82211998D01*
X115455636Y-82122059D01*
X115359382Y-81996618D01*
X115233941Y-81900364D01*
X115087862Y-81839856D01*
X115087860Y-81839855D01*
X114931101Y-81819218D01*
X114931099Y-81819218D01*
X114774339Y-81839855D01*
X114774337Y-81839856D01*
X114628260Y-81900363D01*
X114502818Y-81996618D01*
X114406563Y-82122060D01*
X114346056Y-82268137D01*
X114346055Y-82268139D01*
X114325418Y-82424898D01*
X90703850Y-82424898D01*
X90703850Y-81687494D01*
X120578544Y-81687494D01*
X120749497Y-81858447D01*
X120920449Y-81687494D01*
X120893079Y-81676157D01*
X120893080Y-81676157D01*
X120749499Y-81657255D01*
X120749497Y-81657255D01*
X120605917Y-81676157D01*
X120578544Y-81687494D01*
X90703850Y-81687494D01*
X90703850Y-80643075D01*
X90703850Y-80643073D01*
X90676557Y-80541213D01*
X90623830Y-80449887D01*
X90549263Y-80375320D01*
X90457937Y-80322593D01*
X90356077Y-80295300D01*
X85193527Y-80295300D01*
X83237727Y-80295300D01*
X83132273Y-80295300D01*
X83030413Y-80322593D01*
X83030410Y-80322594D01*
X82939085Y-80375321D01*
X82864521Y-80449885D01*
X82811794Y-80541210D01*
X82811793Y-80541213D01*
X82784500Y-80643073D01*
X82784500Y-84295439D01*
X82764815Y-84362478D01*
X82712011Y-84408233D01*
X82644315Y-84418378D01*
X82488901Y-84397918D01*
X82488899Y-84397918D01*
X82332139Y-84418555D01*
X82332137Y-84418556D01*
X82186058Y-84479064D01*
X82145285Y-84510350D01*
X82080116Y-84535543D01*
X82011671Y-84521504D01*
X81994315Y-84510350D01*
X81953541Y-84479064D01*
X81807462Y-84418556D01*
X81807460Y-84418555D01*
X81650701Y-84397918D01*
X81650699Y-84397918D01*
X81493939Y-84418555D01*
X81493937Y-84418556D01*
X81347858Y-84479064D01*
X81307085Y-84510350D01*
X81241916Y-84535543D01*
X81173471Y-84521504D01*
X81156115Y-84510350D01*
X81115341Y-84479064D01*
X80969262Y-84418556D01*
X80969260Y-84418555D01*
X80812501Y-84397918D01*
X80812499Y-84397918D01*
X80655739Y-84418555D01*
X80655737Y-84418556D01*
X80509658Y-84479064D01*
X80456185Y-84520095D01*
X80391016Y-84545288D01*
X80322571Y-84531249D01*
X80305215Y-84520095D01*
X80251741Y-84479064D01*
X80105662Y-84418556D01*
X80105660Y-84418555D01*
X79948901Y-84397918D01*
X79948899Y-84397918D01*
X79792139Y-84418555D01*
X79792137Y-84418556D01*
X79646058Y-84479064D01*
X79617985Y-84500605D01*
X79552815Y-84525798D01*
X79484371Y-84511759D01*
X79467015Y-84500605D01*
X79438941Y-84479064D01*
X79292862Y-84418556D01*
X79292860Y-84418555D01*
X79136101Y-84397918D01*
X79136099Y-84397918D01*
X78979339Y-84418555D01*
X78979337Y-84418556D01*
X78833260Y-84479063D01*
X78707818Y-84575318D01*
X78611563Y-84700760D01*
X78551056Y-84846837D01*
X78551055Y-84846839D01*
X78530418Y-85003598D01*
X78530418Y-85003601D01*
X78551055Y-85160360D01*
X78551057Y-85160365D01*
X78613761Y-85311748D01*
X78621230Y-85381217D01*
X78613761Y-85406652D01*
X78551057Y-85558034D01*
X78551055Y-85558039D01*
X78530418Y-85714798D01*
X78530418Y-85714801D01*
X78551055Y-85871560D01*
X78551057Y-85871565D01*
X78613761Y-86022948D01*
X78621230Y-86092417D01*
X78613761Y-86117852D01*
X78551057Y-86269234D01*
X78551055Y-86269239D01*
X78530418Y-86425998D01*
X78530418Y-86426001D01*
X78551055Y-86582760D01*
X78551056Y-86582762D01*
X78611564Y-86728841D01*
X78707818Y-86854282D01*
X78833259Y-86950536D01*
X78979338Y-87011044D01*
X79035737Y-87018469D01*
X79136099Y-87031682D01*
X79136100Y-87031682D01*
X79136101Y-87031682D01*
X79188354Y-87024802D01*
X79292862Y-87011044D01*
X79438941Y-86950536D01*
X79467015Y-86928993D01*
X79532181Y-86903800D01*
X79600626Y-86917837D01*
X79617977Y-86928988D01*
X79646059Y-86950536D01*
X79646062Y-86950537D01*
X79646063Y-86950538D01*
X79693819Y-86970319D01*
X79792138Y-87011044D01*
X79848537Y-87018469D01*
X79948899Y-87031682D01*
X79948900Y-87031682D01*
X79948901Y-87031682D01*
X80001154Y-87024802D01*
X80105662Y-87011044D01*
X80251741Y-86950536D01*
X80305214Y-86909505D01*
X80370383Y-86884311D01*
X80438828Y-86898349D01*
X80456186Y-86909505D01*
X80509657Y-86950535D01*
X80509658Y-86950535D01*
X80509659Y-86950536D01*
X80655738Y-87011044D01*
X80712137Y-87018469D01*
X80812499Y-87031682D01*
X80812500Y-87031682D01*
X80812501Y-87031682D01*
X80864754Y-87024802D01*
X80969262Y-87011044D01*
X81115341Y-86950536D01*
X81156114Y-86919249D01*
X81221281Y-86894055D01*
X81289726Y-86908093D01*
X81307083Y-86919247D01*
X81347859Y-86950536D01*
X81347861Y-86950536D01*
X81347863Y-86950538D01*
X81395619Y-86970319D01*
X81493938Y-87011044D01*
X81550337Y-87018469D01*
X81650699Y-87031682D01*
X81650700Y-87031682D01*
X81650701Y-87031682D01*
X81702954Y-87024802D01*
X81807462Y-87011044D01*
X81953541Y-86950536D01*
X81994314Y-86919249D01*
X82059481Y-86894055D01*
X82127926Y-86908093D01*
X82145283Y-86919247D01*
X82186059Y-86950536D01*
X82186061Y-86950536D01*
X82186063Y-86950538D01*
X82233819Y-86970319D01*
X82332138Y-87011044D01*
X82388537Y-87018469D01*
X82488899Y-87031682D01*
X82488900Y-87031682D01*
X82644315Y-87011221D01*
X82713350Y-87021986D01*
X82765606Y-87068366D01*
X82784500Y-87134160D01*
X82784500Y-94367375D01*
X82764815Y-94434414D01*
X82712011Y-94480169D01*
X82644315Y-94490314D01*
X82482551Y-94469018D01*
X82482549Y-94469018D01*
X82325789Y-94489655D01*
X82325787Y-94489656D01*
X82179708Y-94550164D01*
X82138935Y-94581450D01*
X82073766Y-94606643D01*
X82005321Y-94592604D01*
X81987965Y-94581450D01*
X81947191Y-94550164D01*
X81801112Y-94489656D01*
X81801110Y-94489655D01*
X81644351Y-94469018D01*
X81644349Y-94469018D01*
X81487589Y-94489655D01*
X81487587Y-94489656D01*
X81341508Y-94550164D01*
X81300735Y-94581450D01*
X81235566Y-94606643D01*
X81167121Y-94592604D01*
X81149765Y-94581450D01*
X81108991Y-94550164D01*
X80962912Y-94489656D01*
X80962910Y-94489655D01*
X80806151Y-94469018D01*
X80806149Y-94469018D01*
X80649389Y-94489655D01*
X80649387Y-94489656D01*
X80503308Y-94550164D01*
X80449835Y-94591195D01*
X80384666Y-94616388D01*
X80316221Y-94602349D01*
X80298865Y-94591195D01*
X80245391Y-94550164D01*
X80099312Y-94489656D01*
X80099310Y-94489655D01*
X79942551Y-94469018D01*
X79942549Y-94469018D01*
X79785789Y-94489655D01*
X79785787Y-94489656D01*
X79639708Y-94550164D01*
X79611635Y-94571705D01*
X79546465Y-94596898D01*
X79478021Y-94582859D01*
X79460665Y-94571705D01*
X79432591Y-94550164D01*
X79286512Y-94489656D01*
X79286510Y-94489655D01*
X79129751Y-94469018D01*
X79129749Y-94469018D01*
X78972989Y-94489655D01*
X78972987Y-94489656D01*
X78826910Y-94550163D01*
X78701468Y-94646418D01*
X78605213Y-94771860D01*
X78544706Y-94917937D01*
X78544705Y-94917939D01*
X78524068Y-95074698D01*
X72862521Y-95074698D01*
X72842369Y-95035148D01*
X72799496Y-94951006D01*
X72760196Y-94896914D01*
X72693058Y-94804505D01*
X72693054Y-94804500D01*
X72564999Y-94676445D01*
X72564994Y-94676441D01*
X72418497Y-94570006D01*
X72418496Y-94570005D01*
X72418494Y-94570004D01*
X72315093Y-94517318D01*
X72257139Y-94487788D01*
X72257136Y-94487787D01*
X72084910Y-94431829D01*
X71906051Y-94403500D01*
X71906046Y-94403500D01*
X71474954Y-94403500D01*
X71474949Y-94403500D01*
X71296089Y-94431829D01*
X71123863Y-94487787D01*
X71123860Y-94487788D01*
X70962502Y-94570006D01*
X70816005Y-94676441D01*
X70816000Y-94676445D01*
X70712181Y-94780265D01*
X70650858Y-94813750D01*
X70581166Y-94808766D01*
X70525233Y-94766894D01*
X70500816Y-94701430D01*
X70500500Y-94692584D01*
X70500500Y-83002866D01*
X70500765Y-82994756D01*
X70501148Y-82988911D01*
X70517075Y-82745902D01*
X70519190Y-82729848D01*
X70567045Y-82489262D01*
X70571243Y-82473597D01*
X70602013Y-82382951D01*
X70650093Y-82241312D01*
X70656291Y-82226347D01*
X70764790Y-82006333D01*
X70772893Y-81992298D01*
X70909182Y-81788327D01*
X70919039Y-81775481D01*
X71080786Y-81591044D01*
X71092244Y-81579586D01*
X71276681Y-81417839D01*
X71289527Y-81407982D01*
X71493498Y-81271693D01*
X71507533Y-81263590D01*
X71727547Y-81155091D01*
X71742512Y-81148893D01*
X71906762Y-81093137D01*
X71974797Y-81070043D01*
X71990464Y-81065845D01*
X71991701Y-81065599D01*
X72231048Y-81017990D01*
X72247102Y-81015875D01*
X72495957Y-80999565D01*
X72504067Y-80999300D01*
X72573855Y-80999300D01*
X72573994Y-80999291D01*
X75990570Y-80999291D01*
X75990945Y-80999291D01*
X76197641Y-80999671D01*
X76610428Y-80966209D01*
X77019035Y-80898733D01*
X77420664Y-80797705D01*
X77812565Y-80663817D01*
X78192054Y-80497986D01*
X78556534Y-80301346D01*
X78903508Y-80075246D01*
X79230601Y-79821232D01*
X79535572Y-79541045D01*
X79816334Y-79236603D01*
X80070964Y-78909990D01*
X80297718Y-78563442D01*
X80495044Y-78199334D01*
X80661591Y-77820158D01*
X80795912Y-77429400D01*
X89642155Y-77429400D01*
X89662659Y-77598269D01*
X89662660Y-77598274D01*
X89722982Y-77757331D01*
X89766346Y-77820153D01*
X89819617Y-77897329D01*
X89925305Y-77990960D01*
X89946950Y-78010136D01*
X90097573Y-78089189D01*
X90097575Y-78089190D01*
X90262744Y-78129900D01*
X90432856Y-78129900D01*
X90598025Y-78089190D01*
X90677492Y-78047481D01*
X90748649Y-78010136D01*
X90748650Y-78010134D01*
X90748652Y-78010134D01*
X90875983Y-77897329D01*
X90972618Y-77757330D01*
X91032940Y-77598272D01*
X91053445Y-77429400D01*
X91032940Y-77260528D01*
X90972618Y-77101470D01*
X90967872Y-77094595D01*
X90920418Y-77025846D01*
X90875983Y-76961471D01*
X90748652Y-76848666D01*
X90748649Y-76848663D01*
X90598026Y-76769610D01*
X90432856Y-76728900D01*
X90262744Y-76728900D01*
X90097573Y-76769610D01*
X89946950Y-76848663D01*
X89819616Y-76961472D01*
X89722982Y-77101468D01*
X89662660Y-77260525D01*
X89662659Y-77260530D01*
X89642155Y-77429400D01*
X80795912Y-77429400D01*
X80796218Y-77428510D01*
X80898003Y-77027072D01*
X80966249Y-76618593D01*
X80990154Y-76330452D01*
X81000488Y-76205884D01*
X81000489Y-76205875D01*
X81000493Y-76116332D01*
X81000495Y-76073979D01*
X81000500Y-76073927D01*
X81000500Y-73132311D01*
X81893300Y-73132311D01*
X81893300Y-73374888D01*
X81924961Y-73615385D01*
X81987747Y-73849704D01*
X82074953Y-74060238D01*
X82080576Y-74073812D01*
X82201864Y-74283889D01*
X82201866Y-74283892D01*
X82201867Y-74283893D01*
X82349533Y-74476336D01*
X82349539Y-74476343D01*
X82521056Y-74647860D01*
X82521062Y-74647865D01*
X82713511Y-74795536D01*
X82923588Y-74916824D01*
X83147700Y-75009654D01*
X83382011Y-75072438D01*
X83562386Y-75096184D01*
X83622511Y-75104100D01*
X83622512Y-75104100D01*
X83865089Y-75104100D01*
X83913188Y-75097767D01*
X84105589Y-75072438D01*
X84339900Y-75009654D01*
X84564012Y-74916824D01*
X84774089Y-74795536D01*
X84966538Y-74647865D01*
X85138065Y-74476338D01*
X85285736Y-74283889D01*
X85407024Y-74073812D01*
X85499854Y-73849700D01*
X85562638Y-73615389D01*
X85594300Y-73374888D01*
X85594300Y-73132312D01*
X85562638Y-72891811D01*
X85499854Y-72657500D01*
X85407024Y-72433388D01*
X85305156Y-72256947D01*
X92410000Y-72256947D01*
X92410000Y-72900000D01*
X93371803Y-72900000D01*
X93306740Y-72997374D01*
X93242665Y-73152064D01*
X93210000Y-73316282D01*
X93210000Y-73483718D01*
X93242665Y-73647936D01*
X93306740Y-73802626D01*
X93371803Y-73900000D01*
X92410001Y-73900000D01*
X92410001Y-74543052D01*
X92420613Y-74631443D01*
X92420615Y-74631447D01*
X92476078Y-74772091D01*
X92476079Y-74772093D01*
X92567435Y-74892564D01*
X92687906Y-74983920D01*
X92687908Y-74983921D01*
X92828554Y-75039385D01*
X92916947Y-75049999D01*
X93559999Y-75049999D01*
X93560000Y-75049998D01*
X93560000Y-74088197D01*
X93657374Y-74153260D01*
X93812064Y-74217335D01*
X93976282Y-74250000D01*
X94143718Y-74250000D01*
X94307936Y-74217335D01*
X94462626Y-74153260D01*
X94560000Y-74088197D01*
X94560000Y-75049999D01*
X95203053Y-75049999D01*
X95291443Y-75039386D01*
X95291447Y-75039384D01*
X95432091Y-74983921D01*
X95432093Y-74983920D01*
X95552564Y-74892564D01*
X95643920Y-74772093D01*
X95643921Y-74772091D01*
X95699385Y-74631445D01*
X95710000Y-74543052D01*
X95710000Y-73900000D01*
X94748197Y-73900000D01*
X94813260Y-73802626D01*
X94877335Y-73647936D01*
X94910000Y-73483718D01*
X94910000Y-73400000D01*
X96364396Y-73400000D01*
X96384778Y-73658990D01*
X96445427Y-73911610D01*
X96544843Y-74151623D01*
X96544845Y-74151627D01*
X96544846Y-74151628D01*
X96680588Y-74373140D01*
X96849311Y-74570689D01*
X97046860Y-74739412D01*
X97268372Y-74875154D01*
X97268374Y-74875154D01*
X97268376Y-74875156D01*
X97310403Y-74892564D01*
X97508390Y-74974573D01*
X97761006Y-75035221D01*
X98020000Y-75055604D01*
X98278994Y-75035221D01*
X98531610Y-74974573D01*
X98771628Y-74875154D01*
X98993140Y-74739412D01*
X99190689Y-74570689D01*
X99359412Y-74373140D01*
X99495154Y-74151628D01*
X99594573Y-73911610D01*
X99655221Y-73658994D01*
X99675604Y-73400000D01*
X100324396Y-73400000D01*
X100344778Y-73658990D01*
X100405427Y-73911610D01*
X100504843Y-74151623D01*
X100504845Y-74151627D01*
X100504846Y-74151628D01*
X100640588Y-74373140D01*
X100809311Y-74570689D01*
X101006860Y-74739412D01*
X101228372Y-74875154D01*
X101228374Y-74875154D01*
X101228376Y-74875156D01*
X101270403Y-74892564D01*
X101468390Y-74974573D01*
X101721006Y-75035221D01*
X101980000Y-75055604D01*
X102238994Y-75035221D01*
X102491610Y-74974573D01*
X102731628Y-74875154D01*
X102953140Y-74739412D01*
X103150689Y-74570689D01*
X103319412Y-74373140D01*
X103455154Y-74151628D01*
X103554573Y-73911610D01*
X103615221Y-73658994D01*
X103635604Y-73400000D01*
X104284396Y-73400000D01*
X104304778Y-73658990D01*
X104365427Y-73911610D01*
X104464843Y-74151623D01*
X104464845Y-74151627D01*
X104464846Y-74151628D01*
X104600588Y-74373140D01*
X104769311Y-74570689D01*
X104966860Y-74739412D01*
X105188372Y-74875154D01*
X105188374Y-74875154D01*
X105188376Y-74875156D01*
X105230403Y-74892564D01*
X105428390Y-74974573D01*
X105681006Y-75035221D01*
X105940000Y-75055604D01*
X106198994Y-75035221D01*
X106451610Y-74974573D01*
X106691628Y-74875154D01*
X106913140Y-74739412D01*
X107110689Y-74570689D01*
X107211110Y-74453111D01*
X114100500Y-74453111D01*
X114100500Y-74695688D01*
X114132161Y-74936185D01*
X114194947Y-75170504D01*
X114287773Y-75394605D01*
X114287776Y-75394612D01*
X114409064Y-75604689D01*
X114409066Y-75604692D01*
X114409067Y-75604693D01*
X114556733Y-75797136D01*
X114556739Y-75797143D01*
X114728256Y-75968660D01*
X114728262Y-75968665D01*
X114920711Y-76116336D01*
X115130788Y-76237624D01*
X115354900Y-76330454D01*
X115589211Y-76393238D01*
X115769586Y-76416984D01*
X115829711Y-76424900D01*
X115829712Y-76424900D01*
X116072289Y-76424900D01*
X116120388Y-76418567D01*
X116312789Y-76393238D01*
X116547100Y-76330454D01*
X116771212Y-76237624D01*
X116981289Y-76116336D01*
X117173738Y-75968665D01*
X117345265Y-75797138D01*
X117492936Y-75604689D01*
X117614224Y-75394612D01*
X117707054Y-75170500D01*
X117769838Y-74936189D01*
X117801500Y-74695688D01*
X117801500Y-74453112D01*
X117769838Y-74212611D01*
X117707054Y-73978300D01*
X117614224Y-73754188D01*
X117492936Y-73544111D01*
X117345265Y-73351662D01*
X117345260Y-73351656D01*
X117173743Y-73180139D01*
X117173736Y-73180133D01*
X116981293Y-73032467D01*
X116981292Y-73032466D01*
X116981289Y-73032464D01*
X116771212Y-72911176D01*
X116716202Y-72888390D01*
X116547104Y-72818347D01*
X116312785Y-72755561D01*
X116072289Y-72723900D01*
X116072288Y-72723900D01*
X115829712Y-72723900D01*
X115829711Y-72723900D01*
X115589214Y-72755561D01*
X115354895Y-72818347D01*
X115130794Y-72911173D01*
X115130785Y-72911177D01*
X114920706Y-73032467D01*
X114728263Y-73180133D01*
X114728256Y-73180139D01*
X114556739Y-73351656D01*
X114556733Y-73351663D01*
X114409067Y-73544106D01*
X114287777Y-73754185D01*
X114287773Y-73754194D01*
X114194947Y-73978295D01*
X114132161Y-74212614D01*
X114100500Y-74453111D01*
X107211110Y-74453111D01*
X107279412Y-74373140D01*
X107415154Y-74151628D01*
X107514573Y-73911610D01*
X107575221Y-73658994D01*
X107595604Y-73400000D01*
X107575221Y-73141006D01*
X107514573Y-72888390D01*
X107415154Y-72648372D01*
X107279412Y-72426860D01*
X107110689Y-72229311D01*
X106913140Y-72060588D01*
X106691628Y-71924846D01*
X106691627Y-71924845D01*
X106691623Y-71924843D01*
X106525627Y-71856086D01*
X106451610Y-71825427D01*
X106451611Y-71825427D01*
X106313921Y-71792370D01*
X106198994Y-71764779D01*
X106198992Y-71764778D01*
X106198991Y-71764778D01*
X105940000Y-71744396D01*
X105681009Y-71764778D01*
X105428389Y-71825427D01*
X105188376Y-71924843D01*
X104966859Y-72060588D01*
X104769311Y-72229311D01*
X104600588Y-72426859D01*
X104464843Y-72648376D01*
X104365427Y-72888389D01*
X104304778Y-73141009D01*
X104284396Y-73400000D01*
X103635604Y-73400000D01*
X103615221Y-73141006D01*
X103554573Y-72888390D01*
X103455154Y-72648372D01*
X103319412Y-72426860D01*
X103150689Y-72229311D01*
X102953140Y-72060588D01*
X102731628Y-71924846D01*
X102731627Y-71924845D01*
X102731623Y-71924843D01*
X102565627Y-71856086D01*
X102491610Y-71825427D01*
X102491611Y-71825427D01*
X102353921Y-71792370D01*
X102238994Y-71764779D01*
X102238992Y-71764778D01*
X102238991Y-71764778D01*
X101980000Y-71744396D01*
X101721009Y-71764778D01*
X101468389Y-71825427D01*
X101228376Y-71924843D01*
X101006859Y-72060588D01*
X100809311Y-72229311D01*
X100640588Y-72426859D01*
X100504843Y-72648376D01*
X100405427Y-72888389D01*
X100344778Y-73141009D01*
X100324396Y-73400000D01*
X99675604Y-73400000D01*
X99655221Y-73141006D01*
X99594573Y-72888390D01*
X99495154Y-72648372D01*
X99359412Y-72426860D01*
X99190689Y-72229311D01*
X98993140Y-72060588D01*
X98771628Y-71924846D01*
X98771627Y-71924845D01*
X98771623Y-71924843D01*
X98605627Y-71856086D01*
X98531610Y-71825427D01*
X98531611Y-71825427D01*
X98393921Y-71792370D01*
X98278994Y-71764779D01*
X98278992Y-71764778D01*
X98278991Y-71764778D01*
X98020000Y-71744396D01*
X97761009Y-71764778D01*
X97508389Y-71825427D01*
X97268376Y-71924843D01*
X97046859Y-72060588D01*
X96849311Y-72229311D01*
X96680588Y-72426859D01*
X96544843Y-72648376D01*
X96445427Y-72888389D01*
X96384778Y-73141009D01*
X96364396Y-73400000D01*
X94910000Y-73400000D01*
X94910000Y-73316282D01*
X94877335Y-73152064D01*
X94813260Y-72997374D01*
X94748197Y-72900000D01*
X95709999Y-72900000D01*
X95709999Y-72256947D01*
X95699386Y-72168556D01*
X95699384Y-72168552D01*
X95643921Y-72027908D01*
X95643920Y-72027906D01*
X95552564Y-71907435D01*
X95432093Y-71816079D01*
X95432091Y-71816078D01*
X95291445Y-71760614D01*
X95203053Y-71750000D01*
X94560000Y-71750000D01*
X94560000Y-72711802D01*
X94462626Y-72646740D01*
X94307936Y-72582665D01*
X94143718Y-72550000D01*
X93976282Y-72550000D01*
X93812064Y-72582665D01*
X93657374Y-72646740D01*
X93560000Y-72711802D01*
X93560000Y-71750000D01*
X92916947Y-71750000D01*
X92828556Y-71760613D01*
X92828552Y-71760615D01*
X92687908Y-71816078D01*
X92687906Y-71816079D01*
X92567435Y-71907435D01*
X92476079Y-72027906D01*
X92476078Y-72027908D01*
X92420614Y-72168554D01*
X92410000Y-72256947D01*
X85305156Y-72256947D01*
X85285736Y-72223311D01*
X85138065Y-72030862D01*
X85138060Y-72030856D01*
X84966543Y-71859339D01*
X84966536Y-71859333D01*
X84774093Y-71711667D01*
X84774092Y-71711666D01*
X84774089Y-71711664D01*
X84564012Y-71590376D01*
X84564005Y-71590373D01*
X84339904Y-71497547D01*
X84105585Y-71434761D01*
X83865089Y-71403100D01*
X83865088Y-71403100D01*
X83622512Y-71403100D01*
X83622511Y-71403100D01*
X83382014Y-71434761D01*
X83147695Y-71497547D01*
X82923594Y-71590373D01*
X82923585Y-71590377D01*
X82713506Y-71711667D01*
X82521063Y-71859333D01*
X82521056Y-71859339D01*
X82349539Y-72030856D01*
X82349533Y-72030863D01*
X82201867Y-72223306D01*
X82080577Y-72433385D01*
X82080573Y-72433394D01*
X81987747Y-72657495D01*
X81924961Y-72891814D01*
X81893300Y-73132311D01*
X81000500Y-73132311D01*
X81000500Y-72502866D01*
X81000765Y-72494756D01*
X81004787Y-72433388D01*
X81017075Y-72245902D01*
X81019190Y-72229848D01*
X81067045Y-71989262D01*
X81071243Y-71973597D01*
X81124713Y-71816079D01*
X81150093Y-71741312D01*
X81156291Y-71726347D01*
X81264790Y-71506333D01*
X81272893Y-71492298D01*
X81409182Y-71288327D01*
X81419039Y-71275481D01*
X81580786Y-71091044D01*
X81592244Y-71079586D01*
X81776681Y-70917839D01*
X81789527Y-70907982D01*
X81993498Y-70771693D01*
X82007533Y-70763590D01*
X82227547Y-70655091D01*
X82242512Y-70648893D01*
X82406762Y-70593137D01*
X82474797Y-70570043D01*
X82490464Y-70565845D01*
X82491701Y-70565599D01*
X82731048Y-70517990D01*
X82747102Y-70515875D01*
X82995957Y-70499565D01*
X83004067Y-70499300D01*
X83073855Y-70499300D01*
X83073994Y-70499291D01*
X93344108Y-70499291D01*
X106524108Y-70499291D01*
X116934108Y-70499291D01*
X116995954Y-70499291D01*
X117004050Y-70499556D01*
G37*
%TD.AperFunction*%
%TD*%
M02*
