%TF.GenerationSoftware,KiCad,Pcbnew,8.0.6*%
%TF.CreationDate,2026-02-17T15:09:13+02:00*%
%TF.ProjectId,TMCM_1260_alternative_ver_2,544d434d-5f31-4323-9630-5f616c746572,rev?*%
%TF.SameCoordinates,Original*%
%TF.FileFunction,Paste,Bot*%
%TF.FilePolarity,Positive*%
%FSLAX46Y46*%
G04 Gerber Fmt 4.6, Leading zero omitted, Abs format (unit mm)*
G04 Created by KiCad (PCBNEW 8.0.6) date 2026-02-17 15:09:13*
%MOMM*%
%LPD*%
G01*
G04 APERTURE LIST*
G04 Aperture macros list*
%AMRoundRect*
0 Rectangle with rounded corners*
0 $1 Rounding radius*
0 $2 $3 $4 $5 $6 $7 $8 $9 X,Y pos of 4 corners*
0 Add a 4 corners polygon primitive as box body*
4,1,4,$2,$3,$4,$5,$6,$7,$8,$9,$2,$3,0*
0 Add four circle primitives for the rounded corners*
1,1,$1+$1,$2,$3*
1,1,$1+$1,$4,$5*
1,1,$1+$1,$6,$7*
1,1,$1+$1,$8,$9*
0 Add four rect primitives between the rounded corners*
20,1,$1+$1,$2,$3,$4,$5,0*
20,1,$1+$1,$4,$5,$6,$7,0*
20,1,$1+$1,$6,$7,$8,$9,0*
20,1,$1+$1,$8,$9,$2,$3,0*%
G04 Aperture macros list end*
%ADD10RoundRect,0.135000X-0.185000X0.135000X-0.185000X-0.135000X0.185000X-0.135000X0.185000X0.135000X0*%
%ADD11RoundRect,0.135000X0.135000X0.185000X-0.135000X0.185000X-0.135000X-0.185000X0.135000X-0.185000X0*%
%ADD12C,0.499999*%
%ADD13RoundRect,0.200000X-0.200000X-0.275000X0.200000X-0.275000X0.200000X0.275000X-0.200000X0.275000X0*%
%ADD14R,1.308100X0.355600*%
%ADD15RoundRect,0.237500X0.300000X0.237500X-0.300000X0.237500X-0.300000X-0.237500X0.300000X-0.237500X0*%
%ADD16RoundRect,0.250000X-0.312500X-0.625000X0.312500X-0.625000X0.312500X0.625000X-0.312500X0.625000X0*%
%ADD17R,1.219200X0.457200*%
%ADD18RoundRect,0.225000X-0.225000X-0.250000X0.225000X-0.250000X0.225000X0.250000X-0.225000X0.250000X0*%
%ADD19R,2.000000X1.100000*%
%ADD20R,0.800000X0.800000*%
%ADD21RoundRect,0.225000X-0.250000X0.225000X-0.250000X-0.225000X0.250000X-0.225000X0.250000X0.225000X0*%
%ADD22RoundRect,0.237500X-0.300000X-0.237500X0.300000X-0.237500X0.300000X0.237500X-0.300000X0.237500X0*%
%ADD23RoundRect,0.200000X0.275000X-0.200000X0.275000X0.200000X-0.275000X0.200000X-0.275000X-0.200000X0*%
%ADD24RoundRect,0.237500X-0.237500X0.300000X-0.237500X-0.300000X0.237500X-0.300000X0.237500X0.300000X0*%
G04 APERTURE END LIST*
D10*
%TO.C,R38*%
X128727200Y-84427600D03*
X128727200Y-85447600D03*
%TD*%
%TO.C,R37*%
X127711200Y-84427600D03*
X127711200Y-85447600D03*
%TD*%
D11*
%TO.C,R36*%
X130147600Y-77546200D03*
X131167600Y-77546200D03*
%TD*%
D12*
%TO.C,U1*%
X139128210Y-57694800D03*
%TD*%
D13*
%TO.C,R22*%
X121158210Y-72694800D03*
X122808210Y-72694800D03*
%TD*%
D14*
%TO.C,U5*%
X131539960Y-79049590D03*
X131539960Y-79699591D03*
X131539960Y-80349592D03*
X131539960Y-80999591D03*
X131539960Y-81649590D03*
X131539960Y-82299591D03*
X131539960Y-82949590D03*
X125736060Y-82949592D03*
X125736060Y-82299591D03*
X125736060Y-81649592D03*
X125736060Y-80999591D03*
X125736060Y-80349592D03*
X125736060Y-79699591D03*
X125736060Y-79049592D03*
%TD*%
D15*
%TO.C,C38*%
X119607500Y-109220000D03*
X117882500Y-109220000D03*
%TD*%
D16*
%TO.C,R7*%
X117269510Y-89230200D03*
X120194510Y-89230200D03*
%TD*%
D13*
%TO.C,R16*%
X127279610Y-95453200D03*
X128929610Y-95453200D03*
%TD*%
D17*
%TO.C,Q5*%
X132295900Y-104673400D03*
X132295900Y-107213400D03*
X125412500Y-107213400D03*
X125412500Y-104673400D03*
%TD*%
%TO.C,Q6*%
X140944600Y-104673400D03*
X140944600Y-107213400D03*
X134061200Y-107213400D03*
X134061200Y-104673400D03*
%TD*%
D18*
%TO.C,C36*%
X126059610Y-77317600D03*
X127609610Y-77317600D03*
%TD*%
D19*
%TO.C,D10*%
X138938000Y-55803800D03*
D20*
X137038000Y-55803800D03*
%TD*%
D13*
%TO.C,R23*%
X121209010Y-71221600D03*
X122859010Y-71221600D03*
%TD*%
D21*
%TO.C,C39*%
X124091410Y-79362000D03*
X124091410Y-80912000D03*
%TD*%
D22*
%TO.C,C2*%
X152338410Y-98501200D03*
X154063410Y-98501200D03*
%TD*%
D21*
%TO.C,C18*%
X103415810Y-90575800D03*
X103415810Y-92125800D03*
%TD*%
D23*
%TO.C,TH1*%
X103124000Y-96418400D03*
X103124000Y-94768400D03*
%TD*%
D17*
%TO.C,Q7*%
X123596400Y-104673400D03*
X123596400Y-107213400D03*
X116713000Y-107213400D03*
X116713000Y-104673400D03*
%TD*%
D16*
%TO.C,R6*%
X118260110Y-69113400D03*
X121185110Y-69113400D03*
%TD*%
D13*
%TO.C,R17*%
X127279610Y-93903800D03*
X128929610Y-93903800D03*
%TD*%
D24*
%TO.C,C60*%
X147281610Y-92533300D03*
X147281610Y-94258300D03*
%TD*%
M02*
