%TF.GenerationSoftware,KiCad,Pcbnew,8.0.6*%
%TF.CreationDate,2026-02-17T15:09:13+02:00*%
%TF.ProjectId,TMCM_1260_alternative_ver_2,544d434d-5f31-4323-9630-5f616c746572,rev?*%
%TF.SameCoordinates,Original*%
%TF.FileFunction,Paste,Top*%
%TF.FilePolarity,Positive*%
%FSLAX46Y46*%
G04 Gerber Fmt 4.6, Leading zero omitted, Abs format (unit mm)*
G04 Created by KiCad (PCBNEW 8.0.6) date 2026-02-17 15:09:13*
%MOMM*%
%LPD*%
G01*
G04 APERTURE LIST*
G04 Aperture macros list*
%AMRoundRect*
0 Rectangle with rounded corners*
0 $1 Rounding radius*
0 $2 $3 $4 $5 $6 $7 $8 $9 X,Y pos of 4 corners*
0 Add a 4 corners polygon primitive as box body*
4,1,4,$2,$3,$4,$5,$6,$7,$8,$9,$2,$3,0*
0 Add four circle primitives for the rounded corners*
1,1,$1+$1,$2,$3*
1,1,$1+$1,$4,$5*
1,1,$1+$1,$6,$7*
1,1,$1+$1,$8,$9*
0 Add four rect primitives between the rounded corners*
20,1,$1+$1,$2,$3,$4,$5,0*
20,1,$1+$1,$4,$5,$6,$7,0*
20,1,$1+$1,$6,$7,$8,$9,0*
20,1,$1+$1,$8,$9,$2,$3,0*%
G04 Aperture macros list end*
%ADD10C,0.000000*%
%ADD11RoundRect,0.250000X0.250000X0.475000X-0.250000X0.475000X-0.250000X-0.475000X0.250000X-0.475000X0*%
%ADD12RoundRect,0.237500X0.237500X-0.300000X0.237500X0.300000X-0.237500X0.300000X-0.237500X-0.300000X0*%
%ADD13RoundRect,0.135000X-0.135000X-0.185000X0.135000X-0.185000X0.135000X0.185000X-0.135000X0.185000X0*%
%ADD14RoundRect,0.140000X-0.140000X-0.170000X0.140000X-0.170000X0.140000X0.170000X-0.140000X0.170000X0*%
%ADD15RoundRect,0.250000X0.312500X0.625000X-0.312500X0.625000X-0.312500X-0.625000X0.312500X-0.625000X0*%
%ADD16RoundRect,0.225000X-0.225000X-0.250000X0.225000X-0.250000X0.225000X0.250000X-0.225000X0.250000X0*%
%ADD17RoundRect,0.225000X0.250000X-0.225000X0.250000X0.225000X-0.250000X0.225000X-0.250000X-0.225000X0*%
%ADD18R,1.000000X0.750000*%
%ADD19R,0.560000X0.750000*%
%ADD20R,1.400000X0.495000*%
%ADD21R,4.280000X2.080000*%
%ADD22RoundRect,0.225000X-0.250000X0.225000X-0.250000X-0.225000X0.250000X-0.225000X0.250000X0.225000X0*%
%ADD23RoundRect,0.250000X0.475000X-0.250000X0.475000X0.250000X-0.475000X0.250000X-0.475000X-0.250000X0*%
%ADD24RoundRect,0.250000X0.650000X-0.325000X0.650000X0.325000X-0.650000X0.325000X-0.650000X-0.325000X0*%
%ADD25RoundRect,0.150000X-0.825000X-0.150000X0.825000X-0.150000X0.825000X0.150000X-0.825000X0.150000X0*%
%ADD26RoundRect,0.237500X-0.237500X0.250000X-0.237500X-0.250000X0.237500X-0.250000X0.237500X0.250000X0*%
%ADD27RoundRect,0.237500X0.250000X0.237500X-0.250000X0.237500X-0.250000X-0.237500X0.250000X-0.237500X0*%
%ADD28RoundRect,0.237500X0.237500X-0.250000X0.237500X0.250000X-0.237500X0.250000X-0.237500X-0.250000X0*%
%ADD29R,0.750001X0.399999*%
%ADD30R,0.254000X0.762000*%
%ADD31R,0.762000X0.254000*%
%ADD32R,4.622800X4.622800*%
%ADD33RoundRect,0.225000X0.225000X0.250000X-0.225000X0.250000X-0.225000X-0.250000X0.225000X-0.250000X0*%
%ADD34RoundRect,0.250000X-0.337500X-0.475000X0.337500X-0.475000X0.337500X0.475000X-0.337500X0.475000X0*%
%ADD35RoundRect,0.237500X0.287500X0.237500X-0.287500X0.237500X-0.287500X-0.237500X0.287500X-0.237500X0*%
%ADD36RoundRect,0.237500X-0.300000X-0.237500X0.300000X-0.237500X0.300000X0.237500X-0.300000X0.237500X0*%
%ADD37RoundRect,0.135000X0.135000X0.185000X-0.135000X0.185000X-0.135000X-0.185000X0.135000X-0.185000X0*%
%ADD38RoundRect,0.200000X0.200000X0.275000X-0.200000X0.275000X-0.200000X-0.275000X0.200000X-0.275000X0*%
%ADD39RoundRect,0.250000X0.325000X0.650000X-0.325000X0.650000X-0.325000X-0.650000X0.325000X-0.650000X0*%
%ADD40RoundRect,0.237500X-0.237500X0.300000X-0.237500X-0.300000X0.237500X-0.300000X0.237500X0.300000X0*%
%ADD41RoundRect,0.250000X-0.475000X0.250000X-0.475000X-0.250000X0.475000X-0.250000X0.475000X0.250000X0*%
%ADD42RoundRect,0.250000X-0.262500X-0.450000X0.262500X-0.450000X0.262500X0.450000X-0.262500X0.450000X0*%
%ADD43R,0.279400X1.346200*%
%ADD44R,1.346200X0.279400*%
G04 APERTURE END LIST*
D10*
%TO.C,U1*%
G36*
X139438771Y-57279240D02*
G01*
X139447963Y-57282029D01*
X139456434Y-57286558D01*
X139463858Y-57292651D01*
X139469952Y-57300076D01*
X139474481Y-57308547D01*
X139477270Y-57317739D01*
X139478212Y-57327300D01*
X139478212Y-58062299D01*
X139477270Y-58071860D01*
X139474481Y-58081052D01*
X139469952Y-58089523D01*
X139463858Y-58096948D01*
X139456434Y-58103041D01*
X139447963Y-58107570D01*
X139438771Y-58110359D01*
X139429210Y-58111301D01*
X138827210Y-58111301D01*
X138817649Y-58110359D01*
X138808457Y-58107570D01*
X138799986Y-58103041D01*
X138792562Y-58096948D01*
X138786468Y-58089523D01*
X138781939Y-58081052D01*
X138779151Y-58071860D01*
X138778211Y-58062299D01*
X138778211Y-57327300D01*
X138779151Y-57317739D01*
X138781939Y-57308547D01*
X138786468Y-57300076D01*
X138792562Y-57292651D01*
X138799986Y-57286558D01*
X138808457Y-57282029D01*
X138817649Y-57279240D01*
X138827210Y-57278300D01*
X139429210Y-57278300D01*
X139438771Y-57279240D01*
G37*
G36*
X139438771Y-58309241D02*
G01*
X139447963Y-58312030D01*
X139456434Y-58316558D01*
X139463858Y-58322652D01*
X139469952Y-58330076D01*
X139474481Y-58338547D01*
X139477270Y-58347740D01*
X139478212Y-58357300D01*
X139478212Y-59092300D01*
X139477270Y-59101860D01*
X139474481Y-59111053D01*
X139469952Y-59119524D01*
X139463858Y-59126948D01*
X139456434Y-59133042D01*
X139447963Y-59137570D01*
X139438771Y-59140359D01*
X139429210Y-59141299D01*
X138827210Y-59141299D01*
X138817649Y-59140359D01*
X138808457Y-59137570D01*
X138799986Y-59133042D01*
X138792562Y-59126948D01*
X138786468Y-59119524D01*
X138781939Y-59111053D01*
X138779151Y-59101860D01*
X138778211Y-59092300D01*
X138778211Y-58357300D01*
X138779151Y-58347740D01*
X138781939Y-58338547D01*
X138786468Y-58330076D01*
X138792562Y-58322652D01*
X138799986Y-58316558D01*
X138808457Y-58312030D01*
X138817649Y-58309241D01*
X138827210Y-58308301D01*
X139429210Y-58308301D01*
X139438771Y-58309241D01*
G37*
G36*
X139438771Y-59339241D02*
G01*
X139447963Y-59342030D01*
X139456434Y-59346559D01*
X139463858Y-59352652D01*
X139469952Y-59360077D01*
X139474481Y-59368548D01*
X139477270Y-59377740D01*
X139478212Y-59387301D01*
X139478212Y-60122300D01*
X139477270Y-60131861D01*
X139474481Y-60141053D01*
X139469952Y-60149524D01*
X139463858Y-60156949D01*
X139456434Y-60163042D01*
X139447963Y-60167571D01*
X139438771Y-60170360D01*
X139429210Y-60171300D01*
X138827210Y-60171300D01*
X138817649Y-60170360D01*
X138808457Y-60167571D01*
X138799986Y-60163042D01*
X138792562Y-60156949D01*
X138786468Y-60149524D01*
X138781939Y-60141053D01*
X138779151Y-60131861D01*
X138778211Y-60122300D01*
X138778211Y-59387301D01*
X138779151Y-59377740D01*
X138781939Y-59368548D01*
X138786468Y-59360077D01*
X138792562Y-59352652D01*
X138799986Y-59346559D01*
X138808457Y-59342030D01*
X138817649Y-59339241D01*
X138827210Y-59338299D01*
X139429210Y-59338299D01*
X139438771Y-59339241D01*
G37*
%TO.C,U4*%
G36*
X134112360Y-79623241D02*
G01*
X133036010Y-79623241D01*
X133036010Y-78546891D01*
X134112360Y-78546891D01*
X134112360Y-79623241D01*
G37*
G36*
X134112360Y-80899591D02*
G01*
X133036010Y-80899591D01*
X133036010Y-79823241D01*
X134112360Y-79823241D01*
X134112360Y-80899591D01*
G37*
G36*
X134112360Y-82175941D02*
G01*
X133036010Y-82175941D01*
X133036010Y-81099591D01*
X134112360Y-81099591D01*
X134112360Y-82175941D01*
G37*
G36*
X134112360Y-83452291D02*
G01*
X133036010Y-83452291D01*
X133036010Y-82375941D01*
X134112360Y-82375941D01*
X134112360Y-83452291D01*
G37*
G36*
X135388710Y-79623241D02*
G01*
X134312360Y-79623241D01*
X134312360Y-78546891D01*
X135388710Y-78546891D01*
X135388710Y-79623241D01*
G37*
G36*
X135388710Y-80899591D02*
G01*
X134312360Y-80899591D01*
X134312360Y-79823241D01*
X135388710Y-79823241D01*
X135388710Y-80899591D01*
G37*
G36*
X135388710Y-82175941D02*
G01*
X134312360Y-82175941D01*
X134312360Y-81099591D01*
X135388710Y-81099591D01*
X135388710Y-82175941D01*
G37*
G36*
X135388710Y-83452291D02*
G01*
X134312360Y-83452291D01*
X134312360Y-82375941D01*
X135388710Y-82375941D01*
X135388710Y-83452291D01*
G37*
G36*
X136665060Y-79623241D02*
G01*
X135588710Y-79623241D01*
X135588710Y-78546891D01*
X136665060Y-78546891D01*
X136665060Y-79623241D01*
G37*
G36*
X136665060Y-80899591D02*
G01*
X135588710Y-80899591D01*
X135588710Y-79823241D01*
X136665060Y-79823241D01*
X136665060Y-80899591D01*
G37*
G36*
X136665060Y-82175941D02*
G01*
X135588710Y-82175941D01*
X135588710Y-81099591D01*
X136665060Y-81099591D01*
X136665060Y-82175941D01*
G37*
G36*
X136665060Y-83452291D02*
G01*
X135588710Y-83452291D01*
X135588710Y-82375941D01*
X136665060Y-82375941D01*
X136665060Y-83452291D01*
G37*
G36*
X137941410Y-79623241D02*
G01*
X136865060Y-79623241D01*
X136865060Y-78546891D01*
X137941410Y-78546891D01*
X137941410Y-79623241D01*
G37*
G36*
X137941410Y-80899591D02*
G01*
X136865060Y-80899591D01*
X136865060Y-79823241D01*
X137941410Y-79823241D01*
X137941410Y-80899591D01*
G37*
G36*
X137941410Y-82175941D02*
G01*
X136865060Y-82175941D01*
X136865060Y-81099591D01*
X137941410Y-81099591D01*
X137941410Y-82175941D01*
G37*
G36*
X137941410Y-83452291D02*
G01*
X136865060Y-83452291D01*
X136865060Y-82375941D01*
X137941410Y-82375941D01*
X137941410Y-83452291D01*
G37*
%TD*%
D11*
%TO.C,C15*%
X132331210Y-74777600D03*
X130431210Y-74777600D03*
%TD*%
D12*
%TO.C,C8*%
X144614610Y-76148100D03*
X144614610Y-74423100D03*
%TD*%
D13*
%TO.C,R3*%
X125448600Y-104673400D03*
X126468600Y-104673400D03*
%TD*%
D14*
%TO.C,C5*%
X136019600Y-104673400D03*
X136979600Y-104673400D03*
%TD*%
D15*
%TO.C,R10*%
X118975310Y-86715600D03*
X116050310Y-86715600D03*
%TD*%
D16*
%TO.C,C29*%
X137502210Y-74193000D03*
X139052210Y-74193000D03*
%TD*%
%TO.C,C19*%
X115747210Y-79629000D03*
X117297210Y-79629000D03*
%TD*%
D17*
%TO.C,C20*%
X110883410Y-60744400D03*
X110883410Y-59194400D03*
%TD*%
D18*
%TO.C,Q1*%
X112938810Y-97261400D03*
X112938810Y-95991400D03*
X112938810Y-94721400D03*
X112938810Y-93451400D03*
D19*
X107129810Y-93451400D03*
X107129810Y-94781400D03*
X107129810Y-95931400D03*
X107129810Y-97261400D03*
D20*
X108689810Y-97883400D03*
X110989810Y-97883400D03*
X110989810Y-92829400D03*
X108689810Y-92829400D03*
D21*
X109549810Y-94116400D03*
X109549810Y-96596400D03*
%TD*%
D22*
%TO.C,C17*%
X114261610Y-100520200D03*
X114261610Y-102070200D03*
%TD*%
D16*
%TO.C,C16*%
X133400210Y-95072200D03*
X134950210Y-95072200D03*
%TD*%
D13*
%TO.C,R34*%
X134059200Y-104673400D03*
X135079200Y-104673400D03*
%TD*%
D11*
%TO.C,C13*%
X124711210Y-78994000D03*
X122811210Y-78994000D03*
%TD*%
D23*
%TO.C,C21*%
X118986010Y-58430200D03*
X118986010Y-56530200D03*
%TD*%
D24*
%TO.C,C1*%
X138912600Y-55805600D03*
X138912600Y-52855600D03*
%TD*%
D16*
%TO.C,C32*%
X134517810Y-74218800D03*
X136067810Y-74218800D03*
%TD*%
D25*
%TO.C,U3*%
X146711610Y-78551000D03*
X146711610Y-79821000D03*
X146711610Y-81091000D03*
X146711610Y-82361000D03*
X151661610Y-82361000D03*
X151661610Y-81091000D03*
X151661610Y-79821000D03*
X151661610Y-78551000D03*
%TD*%
D12*
%TO.C,C11*%
X142557210Y-86841500D03*
X142557210Y-85116500D03*
%TD*%
D15*
%TO.C,R9*%
X118975310Y-91719400D03*
X116050310Y-91719400D03*
%TD*%
D26*
%TO.C,R2*%
X118541800Y-100943400D03*
X118541800Y-102768400D03*
%TD*%
D15*
%TO.C,R11*%
X118975310Y-81762600D03*
X116050310Y-81762600D03*
%TD*%
D18*
%TO.C,Q3*%
X112821010Y-77431600D03*
X112821010Y-76161600D03*
X112821010Y-74891600D03*
X112821010Y-73621600D03*
D19*
X107012010Y-73621600D03*
X107012010Y-74951600D03*
X107012010Y-76101600D03*
X107012010Y-77431600D03*
D20*
X108572010Y-78053600D03*
X110872010Y-78053600D03*
X110872010Y-72999600D03*
X108572010Y-72999600D03*
D21*
X109432010Y-74286600D03*
X109432010Y-76766600D03*
%TD*%
D16*
%TO.C,C30*%
X131698410Y-70815200D03*
X133248410Y-70815200D03*
%TD*%
D15*
%TO.C,R19*%
X118899110Y-71907400D03*
X115974110Y-71907400D03*
%TD*%
D18*
%TO.C,Q2*%
X112871810Y-87312200D03*
X112871810Y-86042200D03*
X112871810Y-84772200D03*
X112871810Y-83502200D03*
D19*
X107062810Y-83502200D03*
X107062810Y-84832200D03*
X107062810Y-85982200D03*
X107062810Y-87312200D03*
D20*
X108622810Y-87934200D03*
X110922810Y-87934200D03*
X110922810Y-82880200D03*
X108622810Y-82880200D03*
D21*
X109482810Y-84167200D03*
X109482810Y-86647200D03*
%TD*%
D27*
%TO.C,R1*%
X137125410Y-61569600D03*
X135300410Y-61569600D03*
%TD*%
D28*
%TO.C,R5*%
X143141410Y-76223500D03*
X143141410Y-74398500D03*
%TD*%
D29*
%TO.C,U1*%
X137778210Y-57524800D03*
X137778210Y-58124801D03*
X137778210Y-58724803D03*
X137778210Y-59324801D03*
X137778210Y-59924803D03*
X140828212Y-59924803D03*
X140828212Y-59324801D03*
X140828212Y-58724803D03*
X140828212Y-58124801D03*
X140828212Y-57524800D03*
%TD*%
D30*
%TO.C,U8*%
X150340209Y-97282000D03*
X150840211Y-97282000D03*
X151340210Y-97282000D03*
X151840209Y-97282000D03*
X152340210Y-97282000D03*
X152840210Y-97282000D03*
X153340211Y-97282000D03*
X153840210Y-97282000D03*
X154340209Y-97282000D03*
X154840211Y-97282000D03*
D31*
X155511210Y-96611001D03*
X155511210Y-96110999D03*
X155511210Y-95611000D03*
X155511210Y-95111001D03*
X155511210Y-94611000D03*
X155511210Y-94111000D03*
X155511210Y-93610999D03*
X155511210Y-93111000D03*
X155511210Y-92611001D03*
X155511210Y-92110999D03*
D30*
X154840211Y-91440000D03*
X154340209Y-91440000D03*
X153840210Y-91440000D03*
X153340211Y-91440000D03*
X152840210Y-91440000D03*
X152340210Y-91440000D03*
X151840209Y-91440000D03*
X151340210Y-91440000D03*
X150840211Y-91440000D03*
X150340209Y-91440000D03*
D31*
X149669210Y-92110999D03*
X149669210Y-92611001D03*
X149669210Y-93111000D03*
X149669210Y-93610999D03*
X149669210Y-94111000D03*
X149669210Y-94611000D03*
X149669210Y-95111001D03*
X149669210Y-95611000D03*
X149669210Y-96110999D03*
X149669210Y-96611001D03*
D32*
X152590210Y-94361000D03*
%TD*%
D17*
%TO.C,C9*%
X146164010Y-76136800D03*
X146164010Y-74586800D03*
%TD*%
D33*
%TO.C,C31*%
X133248410Y-72339200D03*
X131698410Y-72339200D03*
%TD*%
D34*
%TO.C,C3*%
X142408710Y-60553600D03*
X144483710Y-60553600D03*
%TD*%
D35*
%TO.C,D1*%
X140442610Y-61569600D03*
X138692610Y-61569600D03*
%TD*%
D36*
%TO.C,C61*%
X145961910Y-93827600D03*
X147686910Y-93827600D03*
%TD*%
D37*
%TO.C,R33*%
X123573000Y-104673400D03*
X122553000Y-104673400D03*
%TD*%
D11*
%TO.C,C12*%
X124711210Y-81000600D03*
X122811210Y-81000600D03*
%TD*%
D38*
%TO.C,R24*%
X140118210Y-72669000D03*
X138468210Y-72669000D03*
%TD*%
D18*
%TO.C,Q4*%
X112821010Y-67347800D03*
X112821010Y-66077800D03*
X112821010Y-64807800D03*
X112821010Y-63537800D03*
D19*
X107012010Y-63537800D03*
X107012010Y-64867800D03*
X107012010Y-66017800D03*
X107012010Y-67347800D03*
D20*
X108572010Y-67969800D03*
X110872010Y-67969800D03*
X110872010Y-62915800D03*
X108572010Y-62915800D03*
D21*
X109432010Y-64202800D03*
X109432010Y-66682800D03*
%TD*%
D15*
%TO.C,R8*%
X118975310Y-96621600D03*
X116050310Y-96621600D03*
%TD*%
D13*
%TO.C,R35*%
X116711000Y-104673400D03*
X117731000Y-104673400D03*
%TD*%
D11*
%TO.C,C14*%
X130578610Y-85267800D03*
X128678610Y-85267800D03*
%TD*%
D39*
%TO.C,C40*%
X116932210Y-59334400D03*
X113982210Y-59334400D03*
%TD*%
D38*
%TO.C,R27*%
X141324810Y-76123800D03*
X139674810Y-76123800D03*
%TD*%
D40*
%TO.C,C62*%
X157390810Y-92380900D03*
X157390810Y-94105900D03*
%TD*%
D22*
%TO.C,C26*%
X132803610Y-88699000D03*
X132803610Y-90249000D03*
%TD*%
D17*
%TO.C,C33*%
X141668210Y-80251600D03*
X141668210Y-78701600D03*
%TD*%
D41*
%TO.C,C27*%
X134581610Y-88813600D03*
X134581610Y-90713600D03*
%TD*%
D37*
%TO.C,R26*%
X132283200Y-104673400D03*
X131263200Y-104673400D03*
%TD*%
D40*
%TO.C,C41*%
X152844210Y-88064000D03*
X152844210Y-89789000D03*
%TD*%
D15*
%TO.C,R18*%
X118924510Y-76784200D03*
X115999510Y-76784200D03*
%TD*%
D42*
%TO.C,R25*%
X135015310Y-71247000D03*
X136840310Y-71247000D03*
%TD*%
D15*
%TO.C,R21*%
X118873710Y-61899800D03*
X115948710Y-61899800D03*
%TD*%
D14*
%TO.C,C7*%
X118696800Y-104648000D03*
X119656800Y-104648000D03*
%TD*%
%TO.C,C4*%
X127409000Y-104673400D03*
X128369000Y-104673400D03*
%TD*%
D37*
%TO.C,R32*%
X140944600Y-104673400D03*
X139924600Y-104673400D03*
%TD*%
D15*
%TO.C,R20*%
X118899110Y-66725800D03*
X115974110Y-66725800D03*
%TD*%
D43*
%TO.C,U4*%
X132738710Y-85177891D03*
X133238709Y-85177891D03*
X133738711Y-85177891D03*
X134238710Y-85177891D03*
X134738709Y-85177891D03*
X135238710Y-85177891D03*
X135738710Y-85177891D03*
X136238711Y-85177891D03*
X136738710Y-85177891D03*
X137238709Y-85177891D03*
X137738711Y-85177891D03*
X138238710Y-85177891D03*
D44*
X139667010Y-83749591D03*
X139667010Y-83249592D03*
X139667010Y-82749590D03*
X139667010Y-82249591D03*
X139667010Y-81749592D03*
X139667010Y-81249591D03*
X139667010Y-80749591D03*
X139667010Y-80249590D03*
X139667010Y-79749591D03*
X139667010Y-79249592D03*
X139667010Y-78749590D03*
X139667010Y-78249591D03*
D43*
X138238710Y-76821291D03*
X137738711Y-76821291D03*
X137238709Y-76821291D03*
X136738710Y-76821291D03*
X136238711Y-76821291D03*
X135738710Y-76821291D03*
X135238710Y-76821291D03*
X134738709Y-76821291D03*
X134238710Y-76821291D03*
X133738711Y-76821291D03*
X133238709Y-76821291D03*
X132738710Y-76821291D03*
D44*
X131310410Y-78249591D03*
X131310410Y-78749590D03*
X131310410Y-79249592D03*
X131310410Y-79749591D03*
X131310410Y-80249590D03*
X131310410Y-80749591D03*
X131310410Y-81249591D03*
X131310410Y-81749592D03*
X131310410Y-82249591D03*
X131310410Y-82749590D03*
X131310410Y-83249592D03*
X131310410Y-83749591D03*
%TD*%
D33*
%TO.C,C25*%
X134950210Y-93345000D03*
X133400210Y-93345000D03*
%TD*%
D41*
%TO.C,C28*%
X131000210Y-88295400D03*
X131000210Y-90195400D03*
%TD*%
M02*
