%TF.GenerationSoftware,KiCad,Pcbnew,8.0.6*%
%TF.CreationDate,2026-02-16T14:48:56+02:00*%
%TF.ProjectId,TMCM_1260_alternative_ver_2,544d434d-5f31-4323-9630-5f616c746572,rev?*%
%TF.SameCoordinates,Original*%
%TF.FileFunction,Legend,Bot*%
%TF.FilePolarity,Positive*%
%FSLAX46Y46*%
G04 Gerber Fmt 4.6, Leading zero omitted, Abs format (unit mm)*
G04 Created by KiCad (PCBNEW 8.0.6) date 2026-02-16 14:48:56*
%MOMM*%
%LPD*%
G01*
G04 APERTURE LIST*
%ADD10C,0.150000*%
%ADD11C,0.125000*%
%ADD12C,0.120000*%
%ADD13C,0.152400*%
%ADD14C,0.000000*%
G04 APERTURE END LIST*
D10*
X125584667Y-73175019D02*
X125918000Y-72698828D01*
X126156095Y-73175019D02*
X126156095Y-72175019D01*
X126156095Y-72175019D02*
X125775143Y-72175019D01*
X125775143Y-72175019D02*
X125679905Y-72222638D01*
X125679905Y-72222638D02*
X125632286Y-72270257D01*
X125632286Y-72270257D02*
X125584667Y-72365495D01*
X125584667Y-72365495D02*
X125584667Y-72508352D01*
X125584667Y-72508352D02*
X125632286Y-72603590D01*
X125632286Y-72603590D02*
X125679905Y-72651209D01*
X125679905Y-72651209D02*
X125775143Y-72698828D01*
X125775143Y-72698828D02*
X126156095Y-72698828D01*
X125203714Y-72270257D02*
X125156095Y-72222638D01*
X125156095Y-72222638D02*
X125060857Y-72175019D01*
X125060857Y-72175019D02*
X124822762Y-72175019D01*
X124822762Y-72175019D02*
X124727524Y-72222638D01*
X124727524Y-72222638D02*
X124679905Y-72270257D01*
X124679905Y-72270257D02*
X124632286Y-72365495D01*
X124632286Y-72365495D02*
X124632286Y-72460733D01*
X124632286Y-72460733D02*
X124679905Y-72603590D01*
X124679905Y-72603590D02*
X125251333Y-73175019D01*
X125251333Y-73175019D02*
X124632286Y-73175019D01*
X124251333Y-72270257D02*
X124203714Y-72222638D01*
X124203714Y-72222638D02*
X124108476Y-72175019D01*
X124108476Y-72175019D02*
X123870381Y-72175019D01*
X123870381Y-72175019D02*
X123775143Y-72222638D01*
X123775143Y-72222638D02*
X123727524Y-72270257D01*
X123727524Y-72270257D02*
X123679905Y-72365495D01*
X123679905Y-72365495D02*
X123679905Y-72460733D01*
X123679905Y-72460733D02*
X123727524Y-72603590D01*
X123727524Y-72603590D02*
X124298952Y-73175019D01*
X124298952Y-73175019D02*
X123679905Y-73175019D01*
X131279514Y-76746010D02*
X131279514Y-77555533D01*
X131279514Y-77555533D02*
X131231895Y-77650771D01*
X131231895Y-77650771D02*
X131184276Y-77698391D01*
X131184276Y-77698391D02*
X131089038Y-77746010D01*
X131089038Y-77746010D02*
X130898562Y-77746010D01*
X130898562Y-77746010D02*
X130803324Y-77698391D01*
X130803324Y-77698391D02*
X130755705Y-77650771D01*
X130755705Y-77650771D02*
X130708086Y-77555533D01*
X130708086Y-77555533D02*
X130708086Y-76746010D01*
X129755705Y-76746010D02*
X130231895Y-76746010D01*
X130231895Y-76746010D02*
X130279514Y-77222200D01*
X130279514Y-77222200D02*
X130231895Y-77174581D01*
X130231895Y-77174581D02*
X130136657Y-77126962D01*
X130136657Y-77126962D02*
X129898562Y-77126962D01*
X129898562Y-77126962D02*
X129803324Y-77174581D01*
X129803324Y-77174581D02*
X129755705Y-77222200D01*
X129755705Y-77222200D02*
X129708086Y-77317438D01*
X129708086Y-77317438D02*
X129708086Y-77555533D01*
X129708086Y-77555533D02*
X129755705Y-77650771D01*
X129755705Y-77650771D02*
X129803324Y-77698391D01*
X129803324Y-77698391D02*
X129898562Y-77746010D01*
X129898562Y-77746010D02*
X130136657Y-77746010D01*
X130136657Y-77746010D02*
X130231895Y-77698391D01*
X130231895Y-77698391D02*
X130279514Y-77650771D01*
X131793959Y-77005810D02*
X131793959Y-77243905D01*
X132032054Y-77148667D02*
X131793959Y-77243905D01*
X131793959Y-77243905D02*
X131555864Y-77148667D01*
X131936816Y-77434381D02*
X131793959Y-77243905D01*
X131793959Y-77243905D02*
X131651102Y-77434381D01*
X131793959Y-77005810D02*
X131793959Y-77243905D01*
X132032054Y-77148667D02*
X131793959Y-77243905D01*
X131793959Y-77243905D02*
X131555864Y-77148667D01*
X131936816Y-77434381D02*
X131793959Y-77243905D01*
X131793959Y-77243905D02*
X131651102Y-77434381D01*
D11*
X116628028Y-110057590D02*
X116651837Y-110081400D01*
X116651837Y-110081400D02*
X116723266Y-110105209D01*
X116723266Y-110105209D02*
X116770885Y-110105209D01*
X116770885Y-110105209D02*
X116842313Y-110081400D01*
X116842313Y-110081400D02*
X116889932Y-110033780D01*
X116889932Y-110033780D02*
X116913742Y-109986161D01*
X116913742Y-109986161D02*
X116937551Y-109890923D01*
X116937551Y-109890923D02*
X116937551Y-109819495D01*
X116937551Y-109819495D02*
X116913742Y-109724257D01*
X116913742Y-109724257D02*
X116889932Y-109676638D01*
X116889932Y-109676638D02*
X116842313Y-109629019D01*
X116842313Y-109629019D02*
X116770885Y-109605209D01*
X116770885Y-109605209D02*
X116723266Y-109605209D01*
X116723266Y-109605209D02*
X116651837Y-109629019D01*
X116651837Y-109629019D02*
X116628028Y-109652828D01*
X116461361Y-109605209D02*
X116151837Y-109605209D01*
X116151837Y-109605209D02*
X116318504Y-109795685D01*
X116318504Y-109795685D02*
X116247075Y-109795685D01*
X116247075Y-109795685D02*
X116199456Y-109819495D01*
X116199456Y-109819495D02*
X116175647Y-109843304D01*
X116175647Y-109843304D02*
X116151837Y-109890923D01*
X116151837Y-109890923D02*
X116151837Y-110009971D01*
X116151837Y-110009971D02*
X116175647Y-110057590D01*
X116175647Y-110057590D02*
X116199456Y-110081400D01*
X116199456Y-110081400D02*
X116247075Y-110105209D01*
X116247075Y-110105209D02*
X116389932Y-110105209D01*
X116389932Y-110105209D02*
X116437551Y-110081400D01*
X116437551Y-110081400D02*
X116461361Y-110057590D01*
X115866123Y-109819495D02*
X115913742Y-109795685D01*
X115913742Y-109795685D02*
X115937552Y-109771876D01*
X115937552Y-109771876D02*
X115961361Y-109724257D01*
X115961361Y-109724257D02*
X115961361Y-109700447D01*
X115961361Y-109700447D02*
X115937552Y-109652828D01*
X115937552Y-109652828D02*
X115913742Y-109629019D01*
X115913742Y-109629019D02*
X115866123Y-109605209D01*
X115866123Y-109605209D02*
X115770885Y-109605209D01*
X115770885Y-109605209D02*
X115723266Y-109629019D01*
X115723266Y-109629019D02*
X115699457Y-109652828D01*
X115699457Y-109652828D02*
X115675647Y-109700447D01*
X115675647Y-109700447D02*
X115675647Y-109724257D01*
X115675647Y-109724257D02*
X115699457Y-109771876D01*
X115699457Y-109771876D02*
X115723266Y-109795685D01*
X115723266Y-109795685D02*
X115770885Y-109819495D01*
X115770885Y-109819495D02*
X115866123Y-109819495D01*
X115866123Y-109819495D02*
X115913742Y-109843304D01*
X115913742Y-109843304D02*
X115937552Y-109867114D01*
X115937552Y-109867114D02*
X115961361Y-109914733D01*
X115961361Y-109914733D02*
X115961361Y-110009971D01*
X115961361Y-110009971D02*
X115937552Y-110057590D01*
X115937552Y-110057590D02*
X115913742Y-110081400D01*
X115913742Y-110081400D02*
X115866123Y-110105209D01*
X115866123Y-110105209D02*
X115770885Y-110105209D01*
X115770885Y-110105209D02*
X115723266Y-110081400D01*
X115723266Y-110081400D02*
X115699457Y-110057590D01*
X115699457Y-110057590D02*
X115675647Y-110009971D01*
X115675647Y-110009971D02*
X115675647Y-109914733D01*
X115675647Y-109914733D02*
X115699457Y-109867114D01*
X115699457Y-109867114D02*
X115723266Y-109843304D01*
X115723266Y-109843304D02*
X115770885Y-109819495D01*
D10*
X115596676Y-89608819D02*
X115930009Y-89132628D01*
X116168104Y-89608819D02*
X116168104Y-88608819D01*
X116168104Y-88608819D02*
X115787152Y-88608819D01*
X115787152Y-88608819D02*
X115691914Y-88656438D01*
X115691914Y-88656438D02*
X115644295Y-88704057D01*
X115644295Y-88704057D02*
X115596676Y-88799295D01*
X115596676Y-88799295D02*
X115596676Y-88942152D01*
X115596676Y-88942152D02*
X115644295Y-89037390D01*
X115644295Y-89037390D02*
X115691914Y-89085009D01*
X115691914Y-89085009D02*
X115787152Y-89132628D01*
X115787152Y-89132628D02*
X116168104Y-89132628D01*
X115263342Y-88608819D02*
X114596676Y-88608819D01*
X114596676Y-88608819D02*
X115025247Y-89608819D01*
X125851867Y-95933419D02*
X126185200Y-95457228D01*
X126423295Y-95933419D02*
X126423295Y-94933419D01*
X126423295Y-94933419D02*
X126042343Y-94933419D01*
X126042343Y-94933419D02*
X125947105Y-94981038D01*
X125947105Y-94981038D02*
X125899486Y-95028657D01*
X125899486Y-95028657D02*
X125851867Y-95123895D01*
X125851867Y-95123895D02*
X125851867Y-95266752D01*
X125851867Y-95266752D02*
X125899486Y-95361990D01*
X125899486Y-95361990D02*
X125947105Y-95409609D01*
X125947105Y-95409609D02*
X126042343Y-95457228D01*
X126042343Y-95457228D02*
X126423295Y-95457228D01*
X124899486Y-95933419D02*
X125470914Y-95933419D01*
X125185200Y-95933419D02*
X125185200Y-94933419D01*
X125185200Y-94933419D02*
X125280438Y-95076276D01*
X125280438Y-95076276D02*
X125375676Y-95171514D01*
X125375676Y-95171514D02*
X125470914Y-95219133D01*
X124042343Y-94933419D02*
X124232819Y-94933419D01*
X124232819Y-94933419D02*
X124328057Y-94981038D01*
X124328057Y-94981038D02*
X124375676Y-95028657D01*
X124375676Y-95028657D02*
X124470914Y-95171514D01*
X124470914Y-95171514D02*
X124518533Y-95361990D01*
X124518533Y-95361990D02*
X124518533Y-95742942D01*
X124518533Y-95742942D02*
X124470914Y-95838180D01*
X124470914Y-95838180D02*
X124423295Y-95885800D01*
X124423295Y-95885800D02*
X124328057Y-95933419D01*
X124328057Y-95933419D02*
X124137581Y-95933419D01*
X124137581Y-95933419D02*
X124042343Y-95885800D01*
X124042343Y-95885800D02*
X123994724Y-95838180D01*
X123994724Y-95838180D02*
X123947105Y-95742942D01*
X123947105Y-95742942D02*
X123947105Y-95504847D01*
X123947105Y-95504847D02*
X123994724Y-95409609D01*
X123994724Y-95409609D02*
X124042343Y-95361990D01*
X124042343Y-95361990D02*
X124137581Y-95314371D01*
X124137581Y-95314371D02*
X124328057Y-95314371D01*
X124328057Y-95314371D02*
X124423295Y-95361990D01*
X124423295Y-95361990D02*
X124470914Y-95409609D01*
X124470914Y-95409609D02*
X124518533Y-95504847D01*
D11*
X132178419Y-104031428D02*
X132226038Y-104007619D01*
X132226038Y-104007619D02*
X132273657Y-103960000D01*
X132273657Y-103960000D02*
X132345085Y-103888571D01*
X132345085Y-103888571D02*
X132392704Y-103864761D01*
X132392704Y-103864761D02*
X132440323Y-103864761D01*
X132416514Y-103983809D02*
X132464133Y-103960000D01*
X132464133Y-103960000D02*
X132511752Y-103912380D01*
X132511752Y-103912380D02*
X132535561Y-103817142D01*
X132535561Y-103817142D02*
X132535561Y-103650476D01*
X132535561Y-103650476D02*
X132511752Y-103555238D01*
X132511752Y-103555238D02*
X132464133Y-103507619D01*
X132464133Y-103507619D02*
X132416514Y-103483809D01*
X132416514Y-103483809D02*
X132321276Y-103483809D01*
X132321276Y-103483809D02*
X132273657Y-103507619D01*
X132273657Y-103507619D02*
X132226038Y-103555238D01*
X132226038Y-103555238D02*
X132202228Y-103650476D01*
X132202228Y-103650476D02*
X132202228Y-103817142D01*
X132202228Y-103817142D02*
X132226038Y-103912380D01*
X132226038Y-103912380D02*
X132273657Y-103960000D01*
X132273657Y-103960000D02*
X132321276Y-103983809D01*
X132321276Y-103983809D02*
X132416514Y-103983809D01*
X131749847Y-103483809D02*
X131987942Y-103483809D01*
X131987942Y-103483809D02*
X132011751Y-103721904D01*
X132011751Y-103721904D02*
X131987942Y-103698095D01*
X131987942Y-103698095D02*
X131940323Y-103674285D01*
X131940323Y-103674285D02*
X131821275Y-103674285D01*
X131821275Y-103674285D02*
X131773656Y-103698095D01*
X131773656Y-103698095D02*
X131749847Y-103721904D01*
X131749847Y-103721904D02*
X131726037Y-103769523D01*
X131726037Y-103769523D02*
X131726037Y-103888571D01*
X131726037Y-103888571D02*
X131749847Y-103936190D01*
X131749847Y-103936190D02*
X131773656Y-103960000D01*
X131773656Y-103960000D02*
X131821275Y-103983809D01*
X131821275Y-103983809D02*
X131940323Y-103983809D01*
X131940323Y-103983809D02*
X131987942Y-103960000D01*
X131987942Y-103960000D02*
X132011751Y-103936190D01*
D10*
X131216399Y-103163019D02*
X131216399Y-103401114D01*
X131454494Y-103305876D02*
X131216399Y-103401114D01*
X131216399Y-103401114D02*
X130978304Y-103305876D01*
X131359256Y-103591590D02*
X131216399Y-103401114D01*
X131216399Y-103401114D02*
X131073542Y-103591590D01*
X132549899Y-102528019D02*
X132549899Y-102766114D01*
X132787994Y-102670876D02*
X132549899Y-102766114D01*
X132549899Y-102766114D02*
X132311804Y-102670876D01*
X132692756Y-102956590D02*
X132549899Y-102766114D01*
X132549899Y-102766114D02*
X132407042Y-102956590D01*
D11*
X140814419Y-104056828D02*
X140862038Y-104033019D01*
X140862038Y-104033019D02*
X140909657Y-103985400D01*
X140909657Y-103985400D02*
X140981085Y-103913971D01*
X140981085Y-103913971D02*
X141028704Y-103890161D01*
X141028704Y-103890161D02*
X141076323Y-103890161D01*
X141052514Y-104009209D02*
X141100133Y-103985400D01*
X141100133Y-103985400D02*
X141147752Y-103937780D01*
X141147752Y-103937780D02*
X141171561Y-103842542D01*
X141171561Y-103842542D02*
X141171561Y-103675876D01*
X141171561Y-103675876D02*
X141147752Y-103580638D01*
X141147752Y-103580638D02*
X141100133Y-103533019D01*
X141100133Y-103533019D02*
X141052514Y-103509209D01*
X141052514Y-103509209D02*
X140957276Y-103509209D01*
X140957276Y-103509209D02*
X140909657Y-103533019D01*
X140909657Y-103533019D02*
X140862038Y-103580638D01*
X140862038Y-103580638D02*
X140838228Y-103675876D01*
X140838228Y-103675876D02*
X140838228Y-103842542D01*
X140838228Y-103842542D02*
X140862038Y-103937780D01*
X140862038Y-103937780D02*
X140909657Y-103985400D01*
X140909657Y-103985400D02*
X140957276Y-104009209D01*
X140957276Y-104009209D02*
X141052514Y-104009209D01*
X140409656Y-103509209D02*
X140504894Y-103509209D01*
X140504894Y-103509209D02*
X140552513Y-103533019D01*
X140552513Y-103533019D02*
X140576323Y-103556828D01*
X140576323Y-103556828D02*
X140623942Y-103628257D01*
X140623942Y-103628257D02*
X140647751Y-103723495D01*
X140647751Y-103723495D02*
X140647751Y-103913971D01*
X140647751Y-103913971D02*
X140623942Y-103961590D01*
X140623942Y-103961590D02*
X140600132Y-103985400D01*
X140600132Y-103985400D02*
X140552513Y-104009209D01*
X140552513Y-104009209D02*
X140457275Y-104009209D01*
X140457275Y-104009209D02*
X140409656Y-103985400D01*
X140409656Y-103985400D02*
X140385847Y-103961590D01*
X140385847Y-103961590D02*
X140362037Y-103913971D01*
X140362037Y-103913971D02*
X140362037Y-103794923D01*
X140362037Y-103794923D02*
X140385847Y-103747304D01*
X140385847Y-103747304D02*
X140409656Y-103723495D01*
X140409656Y-103723495D02*
X140457275Y-103699685D01*
X140457275Y-103699685D02*
X140552513Y-103699685D01*
X140552513Y-103699685D02*
X140600132Y-103723495D01*
X140600132Y-103723495D02*
X140623942Y-103747304D01*
X140623942Y-103747304D02*
X140647751Y-103794923D01*
D10*
X139852399Y-103137619D02*
X139852399Y-103375714D01*
X140090494Y-103280476D02*
X139852399Y-103375714D01*
X139852399Y-103375714D02*
X139614304Y-103280476D01*
X139995256Y-103566190D02*
X139852399Y-103375714D01*
X139852399Y-103375714D02*
X139709542Y-103566190D01*
X141198599Y-102528019D02*
X141198599Y-102766114D01*
X141436694Y-102670876D02*
X141198599Y-102766114D01*
X141198599Y-102766114D02*
X140960504Y-102670876D01*
X141341456Y-102956590D02*
X141198599Y-102766114D01*
X141198599Y-102766114D02*
X141055742Y-102956590D01*
X128595067Y-76356380D02*
X128642686Y-76404000D01*
X128642686Y-76404000D02*
X128785543Y-76451619D01*
X128785543Y-76451619D02*
X128880781Y-76451619D01*
X128880781Y-76451619D02*
X129023638Y-76404000D01*
X129023638Y-76404000D02*
X129118876Y-76308761D01*
X129118876Y-76308761D02*
X129166495Y-76213523D01*
X129166495Y-76213523D02*
X129214114Y-76023047D01*
X129214114Y-76023047D02*
X129214114Y-75880190D01*
X129214114Y-75880190D02*
X129166495Y-75689714D01*
X129166495Y-75689714D02*
X129118876Y-75594476D01*
X129118876Y-75594476D02*
X129023638Y-75499238D01*
X129023638Y-75499238D02*
X128880781Y-75451619D01*
X128880781Y-75451619D02*
X128785543Y-75451619D01*
X128785543Y-75451619D02*
X128642686Y-75499238D01*
X128642686Y-75499238D02*
X128595067Y-75546857D01*
X128261733Y-75451619D02*
X127642686Y-75451619D01*
X127642686Y-75451619D02*
X127976019Y-75832571D01*
X127976019Y-75832571D02*
X127833162Y-75832571D01*
X127833162Y-75832571D02*
X127737924Y-75880190D01*
X127737924Y-75880190D02*
X127690305Y-75927809D01*
X127690305Y-75927809D02*
X127642686Y-76023047D01*
X127642686Y-76023047D02*
X127642686Y-76261142D01*
X127642686Y-76261142D02*
X127690305Y-76356380D01*
X127690305Y-76356380D02*
X127737924Y-76404000D01*
X127737924Y-76404000D02*
X127833162Y-76451619D01*
X127833162Y-76451619D02*
X128118876Y-76451619D01*
X128118876Y-76451619D02*
X128214114Y-76404000D01*
X128214114Y-76404000D02*
X128261733Y-76356380D01*
X126785543Y-75451619D02*
X126976019Y-75451619D01*
X126976019Y-75451619D02*
X127071257Y-75499238D01*
X127071257Y-75499238D02*
X127118876Y-75546857D01*
X127118876Y-75546857D02*
X127214114Y-75689714D01*
X127214114Y-75689714D02*
X127261733Y-75880190D01*
X127261733Y-75880190D02*
X127261733Y-76261142D01*
X127261733Y-76261142D02*
X127214114Y-76356380D01*
X127214114Y-76356380D02*
X127166495Y-76404000D01*
X127166495Y-76404000D02*
X127071257Y-76451619D01*
X127071257Y-76451619D02*
X126880781Y-76451619D01*
X126880781Y-76451619D02*
X126785543Y-76404000D01*
X126785543Y-76404000D02*
X126737924Y-76356380D01*
X126737924Y-76356380D02*
X126690305Y-76261142D01*
X126690305Y-76261142D02*
X126690305Y-76023047D01*
X126690305Y-76023047D02*
X126737924Y-75927809D01*
X126737924Y-75927809D02*
X126785543Y-75880190D01*
X126785543Y-75880190D02*
X126880781Y-75832571D01*
X126880781Y-75832571D02*
X127071257Y-75832571D01*
X127071257Y-75832571D02*
X127166495Y-75880190D01*
X127166495Y-75880190D02*
X127214114Y-75927809D01*
X127214114Y-75927809D02*
X127261733Y-76023047D01*
X139272285Y-54708619D02*
X139272285Y-53708619D01*
X139272285Y-53708619D02*
X139034190Y-53708619D01*
X139034190Y-53708619D02*
X138891333Y-53756238D01*
X138891333Y-53756238D02*
X138796095Y-53851476D01*
X138796095Y-53851476D02*
X138748476Y-53946714D01*
X138748476Y-53946714D02*
X138700857Y-54137190D01*
X138700857Y-54137190D02*
X138700857Y-54280047D01*
X138700857Y-54280047D02*
X138748476Y-54470523D01*
X138748476Y-54470523D02*
X138796095Y-54565761D01*
X138796095Y-54565761D02*
X138891333Y-54661000D01*
X138891333Y-54661000D02*
X139034190Y-54708619D01*
X139034190Y-54708619D02*
X139272285Y-54708619D01*
X137748476Y-54708619D02*
X138319904Y-54708619D01*
X138034190Y-54708619D02*
X138034190Y-53708619D01*
X138034190Y-53708619D02*
X138129428Y-53851476D01*
X138129428Y-53851476D02*
X138224666Y-53946714D01*
X138224666Y-53946714D02*
X138319904Y-53994333D01*
X137129428Y-53708619D02*
X137034190Y-53708619D01*
X137034190Y-53708619D02*
X136938952Y-53756238D01*
X136938952Y-53756238D02*
X136891333Y-53803857D01*
X136891333Y-53803857D02*
X136843714Y-53899095D01*
X136843714Y-53899095D02*
X136796095Y-54089571D01*
X136796095Y-54089571D02*
X136796095Y-54327666D01*
X136796095Y-54327666D02*
X136843714Y-54518142D01*
X136843714Y-54518142D02*
X136891333Y-54613380D01*
X136891333Y-54613380D02*
X136938952Y-54661000D01*
X136938952Y-54661000D02*
X137034190Y-54708619D01*
X137034190Y-54708619D02*
X137129428Y-54708619D01*
X137129428Y-54708619D02*
X137224666Y-54661000D01*
X137224666Y-54661000D02*
X137272285Y-54613380D01*
X137272285Y-54613380D02*
X137319904Y-54518142D01*
X137319904Y-54518142D02*
X137367523Y-54327666D01*
X137367523Y-54327666D02*
X137367523Y-54089571D01*
X137367523Y-54089571D02*
X137319904Y-53899095D01*
X137319904Y-53899095D02*
X137272285Y-53803857D01*
X137272285Y-53803857D02*
X137224666Y-53756238D01*
X137224666Y-53756238D02*
X137129428Y-53708619D01*
X125648667Y-71752619D02*
X125982000Y-71276428D01*
X126220095Y-71752619D02*
X126220095Y-70752619D01*
X126220095Y-70752619D02*
X125839143Y-70752619D01*
X125839143Y-70752619D02*
X125743905Y-70800238D01*
X125743905Y-70800238D02*
X125696286Y-70847857D01*
X125696286Y-70847857D02*
X125648667Y-70943095D01*
X125648667Y-70943095D02*
X125648667Y-71085952D01*
X125648667Y-71085952D02*
X125696286Y-71181190D01*
X125696286Y-71181190D02*
X125743905Y-71228809D01*
X125743905Y-71228809D02*
X125839143Y-71276428D01*
X125839143Y-71276428D02*
X126220095Y-71276428D01*
X125267714Y-70847857D02*
X125220095Y-70800238D01*
X125220095Y-70800238D02*
X125124857Y-70752619D01*
X125124857Y-70752619D02*
X124886762Y-70752619D01*
X124886762Y-70752619D02*
X124791524Y-70800238D01*
X124791524Y-70800238D02*
X124743905Y-70847857D01*
X124743905Y-70847857D02*
X124696286Y-70943095D01*
X124696286Y-70943095D02*
X124696286Y-71038333D01*
X124696286Y-71038333D02*
X124743905Y-71181190D01*
X124743905Y-71181190D02*
X125315333Y-71752619D01*
X125315333Y-71752619D02*
X124696286Y-71752619D01*
X124362952Y-70752619D02*
X123743905Y-70752619D01*
X123743905Y-70752619D02*
X124077238Y-71133571D01*
X124077238Y-71133571D02*
X123934381Y-71133571D01*
X123934381Y-71133571D02*
X123839143Y-71181190D01*
X123839143Y-71181190D02*
X123791524Y-71228809D01*
X123791524Y-71228809D02*
X123743905Y-71324047D01*
X123743905Y-71324047D02*
X123743905Y-71562142D01*
X123743905Y-71562142D02*
X123791524Y-71657380D01*
X123791524Y-71657380D02*
X123839143Y-71705000D01*
X123839143Y-71705000D02*
X123934381Y-71752619D01*
X123934381Y-71752619D02*
X124220095Y-71752619D01*
X124220095Y-71752619D02*
X124315333Y-71705000D01*
X124315333Y-71705000D02*
X124362952Y-71657380D01*
D11*
X124421000Y-82050771D02*
X124444810Y-82026962D01*
X124444810Y-82026962D02*
X124468619Y-81955533D01*
X124468619Y-81955533D02*
X124468619Y-81907914D01*
X124468619Y-81907914D02*
X124444810Y-81836486D01*
X124444810Y-81836486D02*
X124397190Y-81788867D01*
X124397190Y-81788867D02*
X124349571Y-81765057D01*
X124349571Y-81765057D02*
X124254333Y-81741248D01*
X124254333Y-81741248D02*
X124182905Y-81741248D01*
X124182905Y-81741248D02*
X124087667Y-81765057D01*
X124087667Y-81765057D02*
X124040048Y-81788867D01*
X124040048Y-81788867D02*
X123992429Y-81836486D01*
X123992429Y-81836486D02*
X123968619Y-81907914D01*
X123968619Y-81907914D02*
X123968619Y-81955533D01*
X123968619Y-81955533D02*
X123992429Y-82026962D01*
X123992429Y-82026962D02*
X124016238Y-82050771D01*
X123968619Y-82217438D02*
X123968619Y-82526962D01*
X123968619Y-82526962D02*
X124159095Y-82360295D01*
X124159095Y-82360295D02*
X124159095Y-82431724D01*
X124159095Y-82431724D02*
X124182905Y-82479343D01*
X124182905Y-82479343D02*
X124206714Y-82503152D01*
X124206714Y-82503152D02*
X124254333Y-82526962D01*
X124254333Y-82526962D02*
X124373381Y-82526962D01*
X124373381Y-82526962D02*
X124421000Y-82503152D01*
X124421000Y-82503152D02*
X124444810Y-82479343D01*
X124444810Y-82479343D02*
X124468619Y-82431724D01*
X124468619Y-82431724D02*
X124468619Y-82288867D01*
X124468619Y-82288867D02*
X124444810Y-82241248D01*
X124444810Y-82241248D02*
X124421000Y-82217438D01*
X124468619Y-82765057D02*
X124468619Y-82860295D01*
X124468619Y-82860295D02*
X124444810Y-82907914D01*
X124444810Y-82907914D02*
X124421000Y-82931723D01*
X124421000Y-82931723D02*
X124349571Y-82979342D01*
X124349571Y-82979342D02*
X124254333Y-83003152D01*
X124254333Y-83003152D02*
X124063857Y-83003152D01*
X124063857Y-83003152D02*
X124016238Y-82979342D01*
X124016238Y-82979342D02*
X123992429Y-82955533D01*
X123992429Y-82955533D02*
X123968619Y-82907914D01*
X123968619Y-82907914D02*
X123968619Y-82812676D01*
X123968619Y-82812676D02*
X123992429Y-82765057D01*
X123992429Y-82765057D02*
X124016238Y-82741247D01*
X124016238Y-82741247D02*
X124063857Y-82717438D01*
X124063857Y-82717438D02*
X124182905Y-82717438D01*
X124182905Y-82717438D02*
X124230524Y-82741247D01*
X124230524Y-82741247D02*
X124254333Y-82765057D01*
X124254333Y-82765057D02*
X124278143Y-82812676D01*
X124278143Y-82812676D02*
X124278143Y-82907914D01*
X124278143Y-82907914D02*
X124254333Y-82955533D01*
X124254333Y-82955533D02*
X124230524Y-82979342D01*
X124230524Y-82979342D02*
X124182905Y-83003152D01*
X153284243Y-99872190D02*
X153308052Y-99896000D01*
X153308052Y-99896000D02*
X153379481Y-99919809D01*
X153379481Y-99919809D02*
X153427100Y-99919809D01*
X153427100Y-99919809D02*
X153498528Y-99896000D01*
X153498528Y-99896000D02*
X153546147Y-99848380D01*
X153546147Y-99848380D02*
X153569957Y-99800761D01*
X153569957Y-99800761D02*
X153593766Y-99705523D01*
X153593766Y-99705523D02*
X153593766Y-99634095D01*
X153593766Y-99634095D02*
X153569957Y-99538857D01*
X153569957Y-99538857D02*
X153546147Y-99491238D01*
X153546147Y-99491238D02*
X153498528Y-99443619D01*
X153498528Y-99443619D02*
X153427100Y-99419809D01*
X153427100Y-99419809D02*
X153379481Y-99419809D01*
X153379481Y-99419809D02*
X153308052Y-99443619D01*
X153308052Y-99443619D02*
X153284243Y-99467428D01*
X153093766Y-99467428D02*
X153069957Y-99443619D01*
X153069957Y-99443619D02*
X153022338Y-99419809D01*
X153022338Y-99419809D02*
X152903290Y-99419809D01*
X152903290Y-99419809D02*
X152855671Y-99443619D01*
X152855671Y-99443619D02*
X152831862Y-99467428D01*
X152831862Y-99467428D02*
X152808052Y-99515047D01*
X152808052Y-99515047D02*
X152808052Y-99562666D01*
X152808052Y-99562666D02*
X152831862Y-99634095D01*
X152831862Y-99634095D02*
X153117576Y-99919809D01*
X153117576Y-99919809D02*
X152808052Y-99919809D01*
D10*
X102345390Y-90707942D02*
X102393010Y-90660323D01*
X102393010Y-90660323D02*
X102440629Y-90517466D01*
X102440629Y-90517466D02*
X102440629Y-90422228D01*
X102440629Y-90422228D02*
X102393010Y-90279371D01*
X102393010Y-90279371D02*
X102297771Y-90184133D01*
X102297771Y-90184133D02*
X102202533Y-90136514D01*
X102202533Y-90136514D02*
X102012057Y-90088895D01*
X102012057Y-90088895D02*
X101869200Y-90088895D01*
X101869200Y-90088895D02*
X101678724Y-90136514D01*
X101678724Y-90136514D02*
X101583486Y-90184133D01*
X101583486Y-90184133D02*
X101488248Y-90279371D01*
X101488248Y-90279371D02*
X101440629Y-90422228D01*
X101440629Y-90422228D02*
X101440629Y-90517466D01*
X101440629Y-90517466D02*
X101488248Y-90660323D01*
X101488248Y-90660323D02*
X101535867Y-90707942D01*
X102440629Y-91660323D02*
X102440629Y-91088895D01*
X102440629Y-91374609D02*
X101440629Y-91374609D01*
X101440629Y-91374609D02*
X101583486Y-91279371D01*
X101583486Y-91279371D02*
X101678724Y-91184133D01*
X101678724Y-91184133D02*
X101726343Y-91088895D01*
X101869200Y-92231752D02*
X101821581Y-92136514D01*
X101821581Y-92136514D02*
X101773962Y-92088895D01*
X101773962Y-92088895D02*
X101678724Y-92041276D01*
X101678724Y-92041276D02*
X101631105Y-92041276D01*
X101631105Y-92041276D02*
X101535867Y-92088895D01*
X101535867Y-92088895D02*
X101488248Y-92136514D01*
X101488248Y-92136514D02*
X101440629Y-92231752D01*
X101440629Y-92231752D02*
X101440629Y-92422228D01*
X101440629Y-92422228D02*
X101488248Y-92517466D01*
X101488248Y-92517466D02*
X101535867Y-92565085D01*
X101535867Y-92565085D02*
X101631105Y-92612704D01*
X101631105Y-92612704D02*
X101678724Y-92612704D01*
X101678724Y-92612704D02*
X101773962Y-92565085D01*
X101773962Y-92565085D02*
X101821581Y-92517466D01*
X101821581Y-92517466D02*
X101869200Y-92422228D01*
X101869200Y-92422228D02*
X101869200Y-92231752D01*
X101869200Y-92231752D02*
X101916819Y-92136514D01*
X101916819Y-92136514D02*
X101964438Y-92088895D01*
X101964438Y-92088895D02*
X102059676Y-92041276D01*
X102059676Y-92041276D02*
X102250152Y-92041276D01*
X102250152Y-92041276D02*
X102345390Y-92088895D01*
X102345390Y-92088895D02*
X102393010Y-92136514D01*
X102393010Y-92136514D02*
X102440629Y-92231752D01*
X102440629Y-92231752D02*
X102440629Y-92422228D01*
X102440629Y-92422228D02*
X102393010Y-92517466D01*
X102393010Y-92517466D02*
X102345390Y-92565085D01*
X102345390Y-92565085D02*
X102250152Y-92612704D01*
X102250152Y-92612704D02*
X102059676Y-92612704D01*
X102059676Y-92612704D02*
X101964438Y-92565085D01*
X101964438Y-92565085D02*
X101916819Y-92517466D01*
X101916819Y-92517466D02*
X101869200Y-92422228D01*
X104008819Y-94307686D02*
X104008819Y-94879114D01*
X105008819Y-94593400D02*
X104008819Y-94593400D01*
X105008819Y-95212448D02*
X104008819Y-95212448D01*
X104485009Y-95212448D02*
X104485009Y-95783876D01*
X105008819Y-95783876D02*
X104008819Y-95783876D01*
X105008819Y-96783876D02*
X105008819Y-96212448D01*
X105008819Y-96498162D02*
X104008819Y-96498162D01*
X104008819Y-96498162D02*
X104151676Y-96402924D01*
X104151676Y-96402924D02*
X104246914Y-96307686D01*
X104246914Y-96307686D02*
X104294533Y-96212448D01*
D11*
X123390019Y-104031428D02*
X123437638Y-104007619D01*
X123437638Y-104007619D02*
X123485257Y-103960000D01*
X123485257Y-103960000D02*
X123556685Y-103888571D01*
X123556685Y-103888571D02*
X123604304Y-103864761D01*
X123604304Y-103864761D02*
X123651923Y-103864761D01*
X123628114Y-103983809D02*
X123675733Y-103960000D01*
X123675733Y-103960000D02*
X123723352Y-103912380D01*
X123723352Y-103912380D02*
X123747161Y-103817142D01*
X123747161Y-103817142D02*
X123747161Y-103650476D01*
X123747161Y-103650476D02*
X123723352Y-103555238D01*
X123723352Y-103555238D02*
X123675733Y-103507619D01*
X123675733Y-103507619D02*
X123628114Y-103483809D01*
X123628114Y-103483809D02*
X123532876Y-103483809D01*
X123532876Y-103483809D02*
X123485257Y-103507619D01*
X123485257Y-103507619D02*
X123437638Y-103555238D01*
X123437638Y-103555238D02*
X123413828Y-103650476D01*
X123413828Y-103650476D02*
X123413828Y-103817142D01*
X123413828Y-103817142D02*
X123437638Y-103912380D01*
X123437638Y-103912380D02*
X123485257Y-103960000D01*
X123485257Y-103960000D02*
X123532876Y-103983809D01*
X123532876Y-103983809D02*
X123628114Y-103983809D01*
X123247161Y-103483809D02*
X122913828Y-103483809D01*
X122913828Y-103483809D02*
X123128113Y-103983809D01*
D10*
X122478799Y-103163019D02*
X122478799Y-103401114D01*
X122716894Y-103305876D02*
X122478799Y-103401114D01*
X122478799Y-103401114D02*
X122240704Y-103305876D01*
X122621656Y-103591590D02*
X122478799Y-103401114D01*
X122478799Y-103401114D02*
X122335942Y-103591590D01*
X122478799Y-103163019D02*
X122478799Y-103401114D01*
X122716894Y-103305876D02*
X122478799Y-103401114D01*
X122478799Y-103401114D02*
X122240704Y-103305876D01*
X122621656Y-103591590D02*
X122478799Y-103401114D01*
X122478799Y-103401114D02*
X122335942Y-103591590D01*
X119889276Y-71388219D02*
X120222609Y-70912028D01*
X120460704Y-71388219D02*
X120460704Y-70388219D01*
X120460704Y-70388219D02*
X120079752Y-70388219D01*
X120079752Y-70388219D02*
X119984514Y-70435838D01*
X119984514Y-70435838D02*
X119936895Y-70483457D01*
X119936895Y-70483457D02*
X119889276Y-70578695D01*
X119889276Y-70578695D02*
X119889276Y-70721552D01*
X119889276Y-70721552D02*
X119936895Y-70816790D01*
X119936895Y-70816790D02*
X119984514Y-70864409D01*
X119984514Y-70864409D02*
X120079752Y-70912028D01*
X120079752Y-70912028D02*
X120460704Y-70912028D01*
X119032133Y-70388219D02*
X119222609Y-70388219D01*
X119222609Y-70388219D02*
X119317847Y-70435838D01*
X119317847Y-70435838D02*
X119365466Y-70483457D01*
X119365466Y-70483457D02*
X119460704Y-70626314D01*
X119460704Y-70626314D02*
X119508323Y-70816790D01*
X119508323Y-70816790D02*
X119508323Y-71197742D01*
X119508323Y-71197742D02*
X119460704Y-71292980D01*
X119460704Y-71292980D02*
X119413085Y-71340600D01*
X119413085Y-71340600D02*
X119317847Y-71388219D01*
X119317847Y-71388219D02*
X119127371Y-71388219D01*
X119127371Y-71388219D02*
X119032133Y-71340600D01*
X119032133Y-71340600D02*
X118984514Y-71292980D01*
X118984514Y-71292980D02*
X118936895Y-71197742D01*
X118936895Y-71197742D02*
X118936895Y-70959647D01*
X118936895Y-70959647D02*
X118984514Y-70864409D01*
X118984514Y-70864409D02*
X119032133Y-70816790D01*
X119032133Y-70816790D02*
X119127371Y-70769171D01*
X119127371Y-70769171D02*
X119317847Y-70769171D01*
X119317847Y-70769171D02*
X119413085Y-70816790D01*
X119413085Y-70816790D02*
X119460704Y-70864409D01*
X119460704Y-70864409D02*
X119508323Y-70959647D01*
X125851867Y-94384019D02*
X126185200Y-93907828D01*
X126423295Y-94384019D02*
X126423295Y-93384019D01*
X126423295Y-93384019D02*
X126042343Y-93384019D01*
X126042343Y-93384019D02*
X125947105Y-93431638D01*
X125947105Y-93431638D02*
X125899486Y-93479257D01*
X125899486Y-93479257D02*
X125851867Y-93574495D01*
X125851867Y-93574495D02*
X125851867Y-93717352D01*
X125851867Y-93717352D02*
X125899486Y-93812590D01*
X125899486Y-93812590D02*
X125947105Y-93860209D01*
X125947105Y-93860209D02*
X126042343Y-93907828D01*
X126042343Y-93907828D02*
X126423295Y-93907828D01*
X124899486Y-94384019D02*
X125470914Y-94384019D01*
X125185200Y-94384019D02*
X125185200Y-93384019D01*
X125185200Y-93384019D02*
X125280438Y-93526876D01*
X125280438Y-93526876D02*
X125375676Y-93622114D01*
X125375676Y-93622114D02*
X125470914Y-93669733D01*
X124566152Y-93384019D02*
X123899486Y-93384019D01*
X123899486Y-93384019D02*
X124328057Y-94384019D01*
D11*
X147484200Y-90635971D02*
X147508010Y-90612162D01*
X147508010Y-90612162D02*
X147531819Y-90540733D01*
X147531819Y-90540733D02*
X147531819Y-90493114D01*
X147531819Y-90493114D02*
X147508010Y-90421686D01*
X147508010Y-90421686D02*
X147460390Y-90374067D01*
X147460390Y-90374067D02*
X147412771Y-90350257D01*
X147412771Y-90350257D02*
X147317533Y-90326448D01*
X147317533Y-90326448D02*
X147246105Y-90326448D01*
X147246105Y-90326448D02*
X147150867Y-90350257D01*
X147150867Y-90350257D02*
X147103248Y-90374067D01*
X147103248Y-90374067D02*
X147055629Y-90421686D01*
X147055629Y-90421686D02*
X147031819Y-90493114D01*
X147031819Y-90493114D02*
X147031819Y-90540733D01*
X147031819Y-90540733D02*
X147055629Y-90612162D01*
X147055629Y-90612162D02*
X147079438Y-90635971D01*
X147031819Y-91064543D02*
X147031819Y-90969305D01*
X147031819Y-90969305D02*
X147055629Y-90921686D01*
X147055629Y-90921686D02*
X147079438Y-90897876D01*
X147079438Y-90897876D02*
X147150867Y-90850257D01*
X147150867Y-90850257D02*
X147246105Y-90826448D01*
X147246105Y-90826448D02*
X147436581Y-90826448D01*
X147436581Y-90826448D02*
X147484200Y-90850257D01*
X147484200Y-90850257D02*
X147508010Y-90874067D01*
X147508010Y-90874067D02*
X147531819Y-90921686D01*
X147531819Y-90921686D02*
X147531819Y-91016924D01*
X147531819Y-91016924D02*
X147508010Y-91064543D01*
X147508010Y-91064543D02*
X147484200Y-91088352D01*
X147484200Y-91088352D02*
X147436581Y-91112162D01*
X147436581Y-91112162D02*
X147317533Y-91112162D01*
X147317533Y-91112162D02*
X147269914Y-91088352D01*
X147269914Y-91088352D02*
X147246105Y-91064543D01*
X147246105Y-91064543D02*
X147222295Y-91016924D01*
X147222295Y-91016924D02*
X147222295Y-90921686D01*
X147222295Y-90921686D02*
X147246105Y-90874067D01*
X147246105Y-90874067D02*
X147269914Y-90850257D01*
X147269914Y-90850257D02*
X147317533Y-90826448D01*
X147031819Y-91421685D02*
X147031819Y-91469304D01*
X147031819Y-91469304D02*
X147055629Y-91516923D01*
X147055629Y-91516923D02*
X147079438Y-91540733D01*
X147079438Y-91540733D02*
X147127057Y-91564542D01*
X147127057Y-91564542D02*
X147222295Y-91588352D01*
X147222295Y-91588352D02*
X147341343Y-91588352D01*
X147341343Y-91588352D02*
X147436581Y-91564542D01*
X147436581Y-91564542D02*
X147484200Y-91540733D01*
X147484200Y-91540733D02*
X147508010Y-91516923D01*
X147508010Y-91516923D02*
X147531819Y-91469304D01*
X147531819Y-91469304D02*
X147531819Y-91421685D01*
X147531819Y-91421685D02*
X147508010Y-91374066D01*
X147508010Y-91374066D02*
X147484200Y-91350257D01*
X147484200Y-91350257D02*
X147436581Y-91326447D01*
X147436581Y-91326447D02*
X147341343Y-91302638D01*
X147341343Y-91302638D02*
X147222295Y-91302638D01*
X147222295Y-91302638D02*
X147127057Y-91326447D01*
X147127057Y-91326447D02*
X147079438Y-91350257D01*
X147079438Y-91350257D02*
X147055629Y-91374066D01*
X147055629Y-91374066D02*
X147031819Y-91421685D01*
D12*
%TO.C,R22*%
X122220468Y-72172300D02*
X121745952Y-72172300D01*
X122220468Y-73217300D02*
X121745952Y-73217300D01*
D13*
%TO.C,U5*%
X126263110Y-83679291D02*
X131012910Y-83679291D01*
X131012910Y-78319891D02*
X126263110Y-78319891D01*
D14*
G36*
X124828010Y-81840090D02*
G01*
X124574010Y-81840090D01*
X124574010Y-81459090D01*
X124828010Y-81459090D01*
X124828010Y-81840090D01*
G37*
D12*
%TO.C,C38*%
X118598733Y-108710000D02*
X118891267Y-108710000D01*
X118598733Y-109730000D02*
X118891267Y-109730000D01*
%TO.C,R7*%
X119459074Y-88320200D02*
X118004946Y-88320200D01*
X119459074Y-90140200D02*
X118004946Y-90140200D01*
%TO.C,R16*%
X128341868Y-94930700D02*
X127867352Y-94930700D01*
X128341868Y-95975700D02*
X127867352Y-95975700D01*
D13*
%TO.C,Q5*%
X126326900Y-103962200D02*
X126326900Y-104311335D01*
X126326900Y-105035465D02*
X126326900Y-106851335D01*
X126326900Y-107575465D02*
X126326900Y-107924600D01*
X126326900Y-107924600D02*
X131381500Y-107924600D01*
X131381500Y-103962200D02*
X126326900Y-103962200D01*
X131381500Y-104311335D02*
X131381500Y-103962200D01*
X131381500Y-106851335D02*
X131381500Y-105035465D01*
X131381500Y-107924600D02*
X131381500Y-107575465D01*
%TO.C,Q6*%
X134975600Y-103962200D02*
X134975600Y-104311335D01*
X134975600Y-105035465D02*
X134975600Y-106851335D01*
X134975600Y-107575465D02*
X134975600Y-107924600D01*
X134975600Y-107924600D02*
X140030200Y-107924600D01*
X140030200Y-103962200D02*
X134975600Y-103962200D01*
X140030200Y-104311335D02*
X140030200Y-103962200D01*
X140030200Y-106851335D02*
X140030200Y-105035465D01*
X140030200Y-107924600D02*
X140030200Y-107575465D01*
D12*
%TO.C,C36*%
X126975190Y-76807600D02*
X126694030Y-76807600D01*
X126975190Y-77827600D02*
X126694030Y-77827600D01*
%TO.C,D10*%
X136958000Y-54993800D02*
X140198000Y-54993800D01*
X136958000Y-56613800D02*
X140198000Y-56613800D01*
X140198000Y-56613800D02*
X140198000Y-54993800D01*
%TO.C,R23*%
X122271268Y-70699100D02*
X121796752Y-70699100D01*
X122271268Y-71744100D02*
X121796752Y-71744100D01*
%TO.C,C39*%
X123581410Y-80277580D02*
X123581410Y-79996420D01*
X124601410Y-80277580D02*
X124601410Y-79996420D01*
%TO.C,C2*%
X153347177Y-97991200D02*
X153054643Y-97991200D01*
X153347177Y-99011200D02*
X153054643Y-99011200D01*
%TO.C,C18*%
X102905810Y-91491380D02*
X102905810Y-91210220D01*
X103925810Y-91491380D02*
X103925810Y-91210220D01*
%TO.C,TH1*%
X102601500Y-95356142D02*
X102601500Y-95830658D01*
X103646500Y-95356142D02*
X103646500Y-95830658D01*
D13*
%TO.C,Q7*%
X117627400Y-103962200D02*
X117627400Y-104311335D01*
X117627400Y-105035465D02*
X117627400Y-106851335D01*
X117627400Y-107575465D02*
X117627400Y-107924600D01*
X117627400Y-107924600D02*
X122682000Y-107924600D01*
X122682000Y-103962200D02*
X117627400Y-103962200D01*
X122682000Y-104311335D02*
X122682000Y-103962200D01*
X122682000Y-106851335D02*
X122682000Y-105035465D01*
X122682000Y-107924600D02*
X122682000Y-107575465D01*
D12*
%TO.C,R6*%
X120449674Y-68203400D02*
X118995546Y-68203400D01*
X120449674Y-70023400D02*
X118995546Y-70023400D01*
%TO.C,R17*%
X128341868Y-93381300D02*
X127867352Y-93381300D01*
X128341868Y-94426300D02*
X127867352Y-94426300D01*
%TO.C,C60*%
X146771610Y-93542067D02*
X146771610Y-93249533D01*
X147791610Y-93542067D02*
X147791610Y-93249533D01*
%TD*%
M02*
