M48
; DRILL file {KiCad 8.0.6} date 2026-02-17T15:09:17+0200
; FORMAT={-:-/ absolute / inch / decimal}
; #@! TF.CreationDate,2026-02-17T15:09:17+02:00
; #@! TF.GenerationSoftware,Kicad,Pcbnew,8.0.6
; #@! TF.FileFunction,Plated,1,4,PTH
FMAT,2
INCH
; #@! TA.AperFunction,Plated,PTH,ViaDrill
T1C0.0079
; #@! TA.AperFunction,Plated,PTH,ComponentDrill
T2C0.0080
; #@! TA.AperFunction,Plated,PTH,ViaDrill
T3C0.0118
; #@! TA.AperFunction,Plated,PTH,ViaDrill
T4C0.0157
; #@! TA.AperFunction,Plated,PTH,ComponentDrill
T5C0.0295
; #@! TA.AperFunction,Plated,PTH,ComponentDrill
T6C0.0374
; #@! TA.AperFunction,Plated,PTH,ComponentDrill
T7C0.0394
; #@! TA.AperFunction,Plated,PTH,ComponentDrill
T8C0.0669
%
G90
G05
T1
X4.595Y-4.121
X4.6731Y-4.12
X4.7109Y-4.12
X4.8249Y-4.121
X4.8651Y-4.121
X4.866Y-4.221
X4.9389Y-4.121
X5.036Y-4.193
X5.052Y-3.046
X5.0539Y-4.121
X5.1239Y-3.053
X5.1678Y-4.121
X5.2085Y-4.121
X5.278Y-4.121
X5.3929Y-4.121
X5.402Y-4.152
X5.446Y-4.144
X5.448Y-4.175
X5.5088Y-4.121
X5.549Y-4.121
X5.549Y-4.221
X6.0655Y-3.878
X6.169Y-3.793
X6.194Y-3.774
X6.218Y-3.757
T2
X5.4775Y-2.2714
X5.4775Y-2.312
X5.4775Y-2.3526
T3
X4.0715Y-3.566
X4.0715Y-3.627
X4.2428Y-2.9951
X4.2428Y-3.0231
X4.2428Y-3.0511
X4.2431Y-2.5986
X4.2431Y-2.6266
X4.2431Y-2.6546
X4.2448Y-3.3841
X4.2448Y-3.4121
X4.2448Y-3.4401
X4.2478Y-3.7761
X4.2478Y-3.8041
X4.2478Y-3.8321
X4.2748Y-2.9951
X4.2748Y-3.0231
X4.2748Y-3.0511
X4.2751Y-2.5986
X4.2751Y-2.6266
X4.2751Y-2.6546
X4.2768Y-3.3841
X4.2768Y-3.4121
X4.2768Y-3.4401
X4.2798Y-3.7761
X4.2798Y-3.8041
X4.2798Y-3.8321
X4.3088Y-2.9951
X4.3088Y-3.0231
X4.3088Y-3.0511
X4.3091Y-2.5986
X4.3091Y-2.6266
X4.3091Y-2.6546
X4.3108Y-3.3841
X4.3108Y-3.4121
X4.3108Y-3.4401
X4.3138Y-3.7761
X4.3138Y-3.8041
X4.3138Y-3.8321
X4.3418Y-2.9951
X4.3418Y-3.0231
X4.3418Y-3.0511
X4.3421Y-2.5986
X4.3421Y-2.6266
X4.3421Y-2.6546
X4.3438Y-3.3841
X4.3438Y-3.4121
X4.3438Y-3.4401
X4.3468Y-3.7761
X4.3468Y-3.8041
X4.3468Y-3.8321
X4.3748Y-2.9951
X4.3748Y-3.0231
X4.3748Y-3.0511
X4.3751Y-2.5986
X4.3751Y-2.6266
X4.3751Y-2.6546
X4.3768Y-3.3841
X4.3768Y-3.4121
X4.3768Y-3.4401
X4.3798Y-3.7761
X4.3798Y-3.8041
X4.3798Y-3.8321
X4.4415Y-2.948
X4.4435Y-3.3377
X4.4445Y-2.5515
X4.4465Y-3.7298
X4.4875Y-2.336
X4.4975Y-2.5
X4.4975Y-2.53
X4.4975Y-2.56
X4.4975Y-2.896
X4.4975Y-2.926
X4.4975Y-2.956
X4.4975Y-4.02
X4.4995Y-3.2857
X4.4995Y-3.3157
X4.4995Y-3.3457
X4.5025Y-3.6778
X4.5025Y-3.7077
X4.5025Y-3.7378
X4.5325Y-2.5
X4.5325Y-2.53
X4.5325Y-2.56
X4.5325Y-2.896
X4.5325Y-2.926
X4.5325Y-2.956
X4.5345Y-3.2857
X4.5345Y-3.3157
X4.5345Y-3.3457
X4.5375Y-3.6778
X4.5375Y-3.7077
X4.5375Y-3.7378
X4.5675Y-2.5
X4.5675Y-2.53
X4.5675Y-2.56
X4.5675Y-2.896
X4.5675Y-2.926
X4.5675Y-2.956
X4.5695Y-3.2857
X4.5695Y-3.3157
X4.5695Y-3.3457
X4.5725Y-3.6778
X4.5725Y-3.7077
X4.5725Y-3.7378
X4.6025Y-2.5
X4.6025Y-2.53
X4.6025Y-2.56
X4.6025Y-2.896
X4.6025Y-2.926
X4.6025Y-2.956
X4.6045Y-3.2857
X4.6045Y-3.3157
X4.6045Y-3.3457
X4.6075Y-3.6778
X4.6075Y-3.7077
X4.6075Y-3.7378
X4.609Y-3.944
X4.666Y-4.046
X4.6745Y-3.513
X4.6935Y-3.295
X4.7395Y-3.382
X4.7415Y-3.661
X4.7935Y-2.535
X4.7935Y-2.593
X4.7975Y-3.619
X4.7975Y-3.661
X4.8085Y-3.348
X4.8205Y-2.65
X4.8225Y-2.415
X4.8245Y-2.479
X4.8351Y-3.189
X4.8395Y-2.701
X4.8455Y-3.617
X4.8455Y-3.662
X4.8465Y-3.452
X4.8465Y-3.512
X4.8465Y-3.57
X4.8635Y-3.246
X4.8765Y-2.65
X4.8795Y-2.413
X4.8795Y-2.479
X4.8875Y-3.3
X4.8885Y-2.787
X4.8985Y-2.701
X4.9015Y-3.617
X4.9015Y-3.662
X4.902Y-4.146
X4.9025Y-3.452
X4.9025Y-3.512
X4.9025Y-3.57
X4.9315Y-2.48
X4.9325Y-2.532
X4.9325Y-2.592
X4.9325Y-2.65
X4.9355Y-2.812
X4.9395Y-2.413
X4.9735Y-2.78
X5.016Y-2.993
X5.068Y-3.42
X5.1135Y-2.812
X5.115Y-2.999
X5.1155Y-2.866
X5.1255Y-3.772
X5.1455Y-2.376
X5.1455Y-2.646
X5.1455Y-2.701
X5.1465Y-2.429
X5.1465Y-2.594
X5.1695Y-3.017
X5.17Y-3.772
X5.1855Y-2.788
X5.1985Y-2.43
X5.2005Y-2.376
X5.2285Y-3.5531
X5.252Y-3.675
X5.2525Y-2.377
X5.2535Y-2.43
X5.2535Y-3.107
X5.2535Y-3.148
X5.2535Y-3.188
X5.2535Y-3.23
X5.2535Y-3.27
X5.2895Y-3.107
X5.2895Y-3.148
X5.2895Y-3.188
X5.2895Y-3.23
X5.2895Y-3.27
X5.313Y-3.675
X5.3335Y-3.107
X5.3335Y-3.148
X5.3335Y-3.188
X5.3335Y-3.23
X5.3335Y-3.27
X5.36Y-3.796
X5.3735Y-3.107
X5.3735Y-3.148
X5.3735Y-3.188
X5.3735Y-3.23
X5.3735Y-3.27
X5.3854Y-2.2648
X5.3952Y-2.197
X5.4135Y-3.107
X5.4135Y-3.148
X5.4135Y-3.188
X5.4135Y-3.23
X5.4135Y-3.27
X5.42Y-2.754
X5.4265Y-3.563
X5.438Y-2.963
X5.469Y-3.862
X5.47Y-2.197
X5.476Y-2.921
X5.486Y-3.798
X5.488Y-3.36
X5.5361Y-3.4774
X5.564Y-2.997
X5.564Y-3.21
X5.572Y-3.478
X5.5775Y-3.0985
X5.604Y-3.832
X5.6125Y-3.351
X5.644Y-3.733
X5.6675Y-3.399
X5.6745Y-3.507
X5.681Y-3.543
X5.6835Y-3.597
X5.6883Y-2.384
X5.6925Y-3.192
X5.6935Y-2.998
X5.7145Y-3.48
X5.7255Y-3.803
X5.7275Y-3.835
X5.7465Y-3.695
X5.7545Y-2.9365
X5.762Y-3.541
X5.776Y-3.1426
X5.779Y-3.48
X5.7985Y-3.643
X5.8395Y-3.738
X5.844Y-3.546
X5.91Y-3.389
X5.911Y-3.488
X5.9155Y-3.425
X5.9405Y-3.648
X5.9405Y-3.6933
X5.9405Y-3.7386
X5.9405Y-3.7838
X5.9455Y-3.488
X5.9858Y-3.648
X5.9858Y-3.6933
X5.9858Y-3.7386
X5.9858Y-3.7838
X5.9976Y-3.878
X6.0175Y-3.416
X6.0175Y-3.535
X6.031Y-3.648
X6.031Y-3.6933
X6.031Y-3.7386
X6.031Y-3.7838
X6.0763Y-3.648
X6.0763Y-3.6933
X6.0763Y-3.7386
X6.0763Y-3.7838
X6.096Y-3.56
X6.113Y-3.876
X6.1965Y-3.637
T4
X4.6035Y-2.336
X4.6775Y-3.136
X4.6845Y-2.3004
X4.7455Y-3.276
X4.7775Y-3.246
X4.8351Y-3.11
X4.8355Y-3.021
X4.9035Y-3.338
X4.9035Y-3.38
X4.9155Y-2.864
X4.9175Y-2.964
X4.9655Y-2.863
X4.9665Y-2.964
X5.0865Y-3.575
X5.2285Y-3.4921
X5.2985Y-3.4966
X5.3145Y-2.723
X5.448Y-2.799
X5.469Y-2.081
T5
X4.7889Y-4.3011
X4.8676Y-4.3011
X4.9464Y-4.3011
X5.0251Y-4.3011
X5.1039Y-4.3011
X5.1826Y-4.3011
X5.2613Y-4.3011
X5.3401Y-4.3011
X6.1767Y-3.0315
X6.1767Y-3.1103
X6.1767Y-3.189
X6.1767Y-3.2677
X6.1767Y-3.3465
T6
X3.9499Y-3.014
X3.9499Y-3.1124
X3.9499Y-3.2108
X3.9499Y-3.3092
T7
X4.7813Y-3.909
X4.7813Y-4.009
X4.8679Y-2.559
X4.8813Y-3.909
X4.8813Y-4.009
X4.9813Y-3.909
X4.9813Y-4.009
X5.0647Y-2.559
X5.0813Y-3.909
X5.0813Y-4.009
X5.1813Y-3.909
X5.1813Y-4.009
X5.2813Y-3.909
X5.2813Y-4.009
X5.2925Y-2.532
X5.2925Y-2.632
X5.3925Y-2.532
X5.3925Y-2.632
X5.4925Y-2.532
X5.4925Y-2.632
X5.5925Y-2.532
X5.5925Y-2.632
X5.6925Y-2.532
X5.6925Y-2.632
X5.7925Y-2.532
X5.7925Y-2.632
T8
X4.8306Y-2.1418
X4.9865Y-2.1418
X5.1424Y-2.1418
X5.2984Y-2.1418
M30
