%TF.GenerationSoftware,KiCad,Pcbnew,8.0.6*%
%TF.CreationDate,2026-02-17T15:09:13+02:00*%
%TF.ProjectId,TMCM_1260_alternative_ver_2,544d434d-5f31-4323-9630-5f616c746572,rev?*%
%TF.SameCoordinates,Original*%
%TF.FileFunction,Legend,Top*%
%TF.FilePolarity,Positive*%
%FSLAX46Y46*%
G04 Gerber Fmt 4.6, Leading zero omitted, Abs format (unit mm)*
G04 Created by KiCad (PCBNEW 8.0.6) date 2026-02-17 15:09:13*
%MOMM*%
%LPD*%
G01*
G04 APERTURE LIST*
%ADD10C,0.150000*%
%ADD11C,0.125000*%
%ADD12C,0.254000*%
%ADD13C,0.120000*%
%ADD14C,0.100000*%
%ADD15C,0.200000*%
%ADD16C,0.177800*%
%ADD17C,0.152400*%
%ADD18C,0.000000*%
G04 APERTURE END LIST*
D10*
X127487152Y-75137180D02*
X127439533Y-75184800D01*
X127439533Y-75184800D02*
X127296676Y-75232419D01*
X127296676Y-75232419D02*
X127201438Y-75232419D01*
X127201438Y-75232419D02*
X127058581Y-75184800D01*
X127058581Y-75184800D02*
X126963343Y-75089561D01*
X126963343Y-75089561D02*
X126915724Y-74994323D01*
X126915724Y-74994323D02*
X126868105Y-74803847D01*
X126868105Y-74803847D02*
X126868105Y-74660990D01*
X126868105Y-74660990D02*
X126915724Y-74470514D01*
X126915724Y-74470514D02*
X126963343Y-74375276D01*
X126963343Y-74375276D02*
X127058581Y-74280038D01*
X127058581Y-74280038D02*
X127201438Y-74232419D01*
X127201438Y-74232419D02*
X127296676Y-74232419D01*
X127296676Y-74232419D02*
X127439533Y-74280038D01*
X127439533Y-74280038D02*
X127487152Y-74327657D01*
X128439533Y-75232419D02*
X127868105Y-75232419D01*
X128153819Y-75232419D02*
X128153819Y-74232419D01*
X128153819Y-74232419D02*
X128058581Y-74375276D01*
X128058581Y-74375276D02*
X127963343Y-74470514D01*
X127963343Y-74470514D02*
X127868105Y-74518133D01*
X129344295Y-74232419D02*
X128868105Y-74232419D01*
X128868105Y-74232419D02*
X128820486Y-74708609D01*
X128820486Y-74708609D02*
X128868105Y-74660990D01*
X128868105Y-74660990D02*
X128963343Y-74613371D01*
X128963343Y-74613371D02*
X129201438Y-74613371D01*
X129201438Y-74613371D02*
X129296676Y-74660990D01*
X129296676Y-74660990D02*
X129344295Y-74708609D01*
X129344295Y-74708609D02*
X129391914Y-74803847D01*
X129391914Y-74803847D02*
X129391914Y-75041942D01*
X129391914Y-75041942D02*
X129344295Y-75137180D01*
X129344295Y-75137180D02*
X129296676Y-75184800D01*
X129296676Y-75184800D02*
X129201438Y-75232419D01*
X129201438Y-75232419D02*
X128963343Y-75232419D01*
X128963343Y-75232419D02*
X128868105Y-75184800D01*
X128868105Y-75184800D02*
X128820486Y-75137180D01*
X144974190Y-72836066D02*
X145021810Y-72883685D01*
X145021810Y-72883685D02*
X145069429Y-73026542D01*
X145069429Y-73026542D02*
X145069429Y-73121780D01*
X145069429Y-73121780D02*
X145021810Y-73264637D01*
X145021810Y-73264637D02*
X144926571Y-73359875D01*
X144926571Y-73359875D02*
X144831333Y-73407494D01*
X144831333Y-73407494D02*
X144640857Y-73455113D01*
X144640857Y-73455113D02*
X144498000Y-73455113D01*
X144498000Y-73455113D02*
X144307524Y-73407494D01*
X144307524Y-73407494D02*
X144212286Y-73359875D01*
X144212286Y-73359875D02*
X144117048Y-73264637D01*
X144117048Y-73264637D02*
X144069429Y-73121780D01*
X144069429Y-73121780D02*
X144069429Y-73026542D01*
X144069429Y-73026542D02*
X144117048Y-72883685D01*
X144117048Y-72883685D02*
X144164667Y-72836066D01*
X144498000Y-72264637D02*
X144450381Y-72359875D01*
X144450381Y-72359875D02*
X144402762Y-72407494D01*
X144402762Y-72407494D02*
X144307524Y-72455113D01*
X144307524Y-72455113D02*
X144259905Y-72455113D01*
X144259905Y-72455113D02*
X144164667Y-72407494D01*
X144164667Y-72407494D02*
X144117048Y-72359875D01*
X144117048Y-72359875D02*
X144069429Y-72264637D01*
X144069429Y-72264637D02*
X144069429Y-72074161D01*
X144069429Y-72074161D02*
X144117048Y-71978923D01*
X144117048Y-71978923D02*
X144164667Y-71931304D01*
X144164667Y-71931304D02*
X144259905Y-71883685D01*
X144259905Y-71883685D02*
X144307524Y-71883685D01*
X144307524Y-71883685D02*
X144402762Y-71931304D01*
X144402762Y-71931304D02*
X144450381Y-71978923D01*
X144450381Y-71978923D02*
X144498000Y-72074161D01*
X144498000Y-72074161D02*
X144498000Y-72264637D01*
X144498000Y-72264637D02*
X144545619Y-72359875D01*
X144545619Y-72359875D02*
X144593238Y-72407494D01*
X144593238Y-72407494D02*
X144688476Y-72455113D01*
X144688476Y-72455113D02*
X144878952Y-72455113D01*
X144878952Y-72455113D02*
X144974190Y-72407494D01*
X144974190Y-72407494D02*
X145021810Y-72359875D01*
X145021810Y-72359875D02*
X145069429Y-72264637D01*
X145069429Y-72264637D02*
X145069429Y-72074161D01*
X145069429Y-72074161D02*
X145021810Y-71978923D01*
X145021810Y-71978923D02*
X144974190Y-71931304D01*
X144974190Y-71931304D02*
X144878952Y-71883685D01*
X144878952Y-71883685D02*
X144688476Y-71883685D01*
X144688476Y-71883685D02*
X144593238Y-71931304D01*
X144593238Y-71931304D02*
X144545619Y-71978923D01*
X144545619Y-71978923D02*
X144498000Y-72074161D01*
D11*
X126180066Y-105787209D02*
X126013400Y-105549114D01*
X125894352Y-105787209D02*
X125894352Y-105287209D01*
X125894352Y-105287209D02*
X126084828Y-105287209D01*
X126084828Y-105287209D02*
X126132447Y-105311019D01*
X126132447Y-105311019D02*
X126156257Y-105334828D01*
X126156257Y-105334828D02*
X126180066Y-105382447D01*
X126180066Y-105382447D02*
X126180066Y-105453876D01*
X126180066Y-105453876D02*
X126156257Y-105501495D01*
X126156257Y-105501495D02*
X126132447Y-105525304D01*
X126132447Y-105525304D02*
X126084828Y-105549114D01*
X126084828Y-105549114D02*
X125894352Y-105549114D01*
X126346733Y-105287209D02*
X126656257Y-105287209D01*
X126656257Y-105287209D02*
X126489590Y-105477685D01*
X126489590Y-105477685D02*
X126561019Y-105477685D01*
X126561019Y-105477685D02*
X126608638Y-105501495D01*
X126608638Y-105501495D02*
X126632447Y-105525304D01*
X126632447Y-105525304D02*
X126656257Y-105572923D01*
X126656257Y-105572923D02*
X126656257Y-105691971D01*
X126656257Y-105691971D02*
X126632447Y-105739590D01*
X126632447Y-105739590D02*
X126608638Y-105763400D01*
X126608638Y-105763400D02*
X126561019Y-105787209D01*
X126561019Y-105787209D02*
X126418162Y-105787209D01*
X126418162Y-105787209D02*
X126370543Y-105763400D01*
X126370543Y-105763400D02*
X126346733Y-105739590D01*
X136441666Y-105714190D02*
X136417857Y-105738000D01*
X136417857Y-105738000D02*
X136346428Y-105761809D01*
X136346428Y-105761809D02*
X136298809Y-105761809D01*
X136298809Y-105761809D02*
X136227381Y-105738000D01*
X136227381Y-105738000D02*
X136179762Y-105690380D01*
X136179762Y-105690380D02*
X136155952Y-105642761D01*
X136155952Y-105642761D02*
X136132143Y-105547523D01*
X136132143Y-105547523D02*
X136132143Y-105476095D01*
X136132143Y-105476095D02*
X136155952Y-105380857D01*
X136155952Y-105380857D02*
X136179762Y-105333238D01*
X136179762Y-105333238D02*
X136227381Y-105285619D01*
X136227381Y-105285619D02*
X136298809Y-105261809D01*
X136298809Y-105261809D02*
X136346428Y-105261809D01*
X136346428Y-105261809D02*
X136417857Y-105285619D01*
X136417857Y-105285619D02*
X136441666Y-105309428D01*
X136894047Y-105261809D02*
X136655952Y-105261809D01*
X136655952Y-105261809D02*
X136632143Y-105499904D01*
X136632143Y-105499904D02*
X136655952Y-105476095D01*
X136655952Y-105476095D02*
X136703571Y-105452285D01*
X136703571Y-105452285D02*
X136822619Y-105452285D01*
X136822619Y-105452285D02*
X136870238Y-105476095D01*
X136870238Y-105476095D02*
X136894047Y-105499904D01*
X136894047Y-105499904D02*
X136917857Y-105547523D01*
X136917857Y-105547523D02*
X136917857Y-105666571D01*
X136917857Y-105666571D02*
X136894047Y-105714190D01*
X136894047Y-105714190D02*
X136870238Y-105738000D01*
X136870238Y-105738000D02*
X136822619Y-105761809D01*
X136822619Y-105761809D02*
X136703571Y-105761809D01*
X136703571Y-105761809D02*
X136655952Y-105738000D01*
X136655952Y-105738000D02*
X136632143Y-105714190D01*
D10*
X116869952Y-88990419D02*
X116536619Y-88514228D01*
X116298524Y-88990419D02*
X116298524Y-87990419D01*
X116298524Y-87990419D02*
X116679476Y-87990419D01*
X116679476Y-87990419D02*
X116774714Y-88038038D01*
X116774714Y-88038038D02*
X116822333Y-88085657D01*
X116822333Y-88085657D02*
X116869952Y-88180895D01*
X116869952Y-88180895D02*
X116869952Y-88323752D01*
X116869952Y-88323752D02*
X116822333Y-88418990D01*
X116822333Y-88418990D02*
X116774714Y-88466609D01*
X116774714Y-88466609D02*
X116679476Y-88514228D01*
X116679476Y-88514228D02*
X116298524Y-88514228D01*
X117822333Y-88990419D02*
X117250905Y-88990419D01*
X117536619Y-88990419D02*
X117536619Y-87990419D01*
X117536619Y-87990419D02*
X117441381Y-88133276D01*
X117441381Y-88133276D02*
X117346143Y-88228514D01*
X117346143Y-88228514D02*
X117250905Y-88276133D01*
X118441381Y-87990419D02*
X118536619Y-87990419D01*
X118536619Y-87990419D02*
X118631857Y-88038038D01*
X118631857Y-88038038D02*
X118679476Y-88085657D01*
X118679476Y-88085657D02*
X118727095Y-88180895D01*
X118727095Y-88180895D02*
X118774714Y-88371371D01*
X118774714Y-88371371D02*
X118774714Y-88609466D01*
X118774714Y-88609466D02*
X118727095Y-88799942D01*
X118727095Y-88799942D02*
X118679476Y-88895180D01*
X118679476Y-88895180D02*
X118631857Y-88942800D01*
X118631857Y-88942800D02*
X118536619Y-88990419D01*
X118536619Y-88990419D02*
X118441381Y-88990419D01*
X118441381Y-88990419D02*
X118346143Y-88942800D01*
X118346143Y-88942800D02*
X118298524Y-88895180D01*
X118298524Y-88895180D02*
X118250905Y-88799942D01*
X118250905Y-88799942D02*
X118203286Y-88609466D01*
X118203286Y-88609466D02*
X118203286Y-88371371D01*
X118203286Y-88371371D02*
X118250905Y-88180895D01*
X118250905Y-88180895D02*
X118298524Y-88085657D01*
X118298524Y-88085657D02*
X118346143Y-88038038D01*
X118346143Y-88038038D02*
X118441381Y-87990419D01*
D11*
X136723981Y-72973590D02*
X136700172Y-72997400D01*
X136700172Y-72997400D02*
X136628743Y-73021209D01*
X136628743Y-73021209D02*
X136581124Y-73021209D01*
X136581124Y-73021209D02*
X136509696Y-72997400D01*
X136509696Y-72997400D02*
X136462077Y-72949780D01*
X136462077Y-72949780D02*
X136438267Y-72902161D01*
X136438267Y-72902161D02*
X136414458Y-72806923D01*
X136414458Y-72806923D02*
X136414458Y-72735495D01*
X136414458Y-72735495D02*
X136438267Y-72640257D01*
X136438267Y-72640257D02*
X136462077Y-72592638D01*
X136462077Y-72592638D02*
X136509696Y-72545019D01*
X136509696Y-72545019D02*
X136581124Y-72521209D01*
X136581124Y-72521209D02*
X136628743Y-72521209D01*
X136628743Y-72521209D02*
X136700172Y-72545019D01*
X136700172Y-72545019D02*
X136723981Y-72568828D01*
X136914458Y-72568828D02*
X136938267Y-72545019D01*
X136938267Y-72545019D02*
X136985886Y-72521209D01*
X136985886Y-72521209D02*
X137104934Y-72521209D01*
X137104934Y-72521209D02*
X137152553Y-72545019D01*
X137152553Y-72545019D02*
X137176362Y-72568828D01*
X137176362Y-72568828D02*
X137200172Y-72616447D01*
X137200172Y-72616447D02*
X137200172Y-72664066D01*
X137200172Y-72664066D02*
X137176362Y-72735495D01*
X137176362Y-72735495D02*
X136890648Y-73021209D01*
X136890648Y-73021209D02*
X137200172Y-73021209D01*
X137438267Y-73021209D02*
X137533505Y-73021209D01*
X137533505Y-73021209D02*
X137581124Y-72997400D01*
X137581124Y-72997400D02*
X137604933Y-72973590D01*
X137604933Y-72973590D02*
X137652552Y-72902161D01*
X137652552Y-72902161D02*
X137676362Y-72806923D01*
X137676362Y-72806923D02*
X137676362Y-72616447D01*
X137676362Y-72616447D02*
X137652552Y-72568828D01*
X137652552Y-72568828D02*
X137628743Y-72545019D01*
X137628743Y-72545019D02*
X137581124Y-72521209D01*
X137581124Y-72521209D02*
X137485886Y-72521209D01*
X137485886Y-72521209D02*
X137438267Y-72545019D01*
X137438267Y-72545019D02*
X137414457Y-72568828D01*
X137414457Y-72568828D02*
X137390648Y-72616447D01*
X137390648Y-72616447D02*
X137390648Y-72735495D01*
X137390648Y-72735495D02*
X137414457Y-72783114D01*
X137414457Y-72783114D02*
X137438267Y-72806923D01*
X137438267Y-72806923D02*
X137485886Y-72830733D01*
X137485886Y-72830733D02*
X137581124Y-72830733D01*
X137581124Y-72830733D02*
X137628743Y-72806923D01*
X137628743Y-72806923D02*
X137652552Y-72783114D01*
X137652552Y-72783114D02*
X137676362Y-72735495D01*
D10*
X118774952Y-79912380D02*
X118727333Y-79960000D01*
X118727333Y-79960000D02*
X118584476Y-80007619D01*
X118584476Y-80007619D02*
X118489238Y-80007619D01*
X118489238Y-80007619D02*
X118346381Y-79960000D01*
X118346381Y-79960000D02*
X118251143Y-79864761D01*
X118251143Y-79864761D02*
X118203524Y-79769523D01*
X118203524Y-79769523D02*
X118155905Y-79579047D01*
X118155905Y-79579047D02*
X118155905Y-79436190D01*
X118155905Y-79436190D02*
X118203524Y-79245714D01*
X118203524Y-79245714D02*
X118251143Y-79150476D01*
X118251143Y-79150476D02*
X118346381Y-79055238D01*
X118346381Y-79055238D02*
X118489238Y-79007619D01*
X118489238Y-79007619D02*
X118584476Y-79007619D01*
X118584476Y-79007619D02*
X118727333Y-79055238D01*
X118727333Y-79055238D02*
X118774952Y-79102857D01*
X119727333Y-80007619D02*
X119155905Y-80007619D01*
X119441619Y-80007619D02*
X119441619Y-79007619D01*
X119441619Y-79007619D02*
X119346381Y-79150476D01*
X119346381Y-79150476D02*
X119251143Y-79245714D01*
X119251143Y-79245714D02*
X119155905Y-79293333D01*
X120203524Y-80007619D02*
X120394000Y-80007619D01*
X120394000Y-80007619D02*
X120489238Y-79960000D01*
X120489238Y-79960000D02*
X120536857Y-79912380D01*
X120536857Y-79912380D02*
X120632095Y-79769523D01*
X120632095Y-79769523D02*
X120679714Y-79579047D01*
X120679714Y-79579047D02*
X120679714Y-79198095D01*
X120679714Y-79198095D02*
X120632095Y-79102857D01*
X120632095Y-79102857D02*
X120584476Y-79055238D01*
X120584476Y-79055238D02*
X120489238Y-79007619D01*
X120489238Y-79007619D02*
X120298762Y-79007619D01*
X120298762Y-79007619D02*
X120203524Y-79055238D01*
X120203524Y-79055238D02*
X120155905Y-79102857D01*
X120155905Y-79102857D02*
X120108286Y-79198095D01*
X120108286Y-79198095D02*
X120108286Y-79436190D01*
X120108286Y-79436190D02*
X120155905Y-79531428D01*
X120155905Y-79531428D02*
X120203524Y-79579047D01*
X120203524Y-79579047D02*
X120298762Y-79626666D01*
X120298762Y-79626666D02*
X120489238Y-79626666D01*
X120489238Y-79626666D02*
X120584476Y-79579047D01*
X120584476Y-79579047D02*
X120632095Y-79531428D01*
X120632095Y-79531428D02*
X120679714Y-79436190D01*
X109812990Y-60612257D02*
X109860610Y-60659876D01*
X109860610Y-60659876D02*
X109908229Y-60802733D01*
X109908229Y-60802733D02*
X109908229Y-60897971D01*
X109908229Y-60897971D02*
X109860610Y-61040828D01*
X109860610Y-61040828D02*
X109765371Y-61136066D01*
X109765371Y-61136066D02*
X109670133Y-61183685D01*
X109670133Y-61183685D02*
X109479657Y-61231304D01*
X109479657Y-61231304D02*
X109336800Y-61231304D01*
X109336800Y-61231304D02*
X109146324Y-61183685D01*
X109146324Y-61183685D02*
X109051086Y-61136066D01*
X109051086Y-61136066D02*
X108955848Y-61040828D01*
X108955848Y-61040828D02*
X108908229Y-60897971D01*
X108908229Y-60897971D02*
X108908229Y-60802733D01*
X108908229Y-60802733D02*
X108955848Y-60659876D01*
X108955848Y-60659876D02*
X109003467Y-60612257D01*
X109003467Y-60231304D02*
X108955848Y-60183685D01*
X108955848Y-60183685D02*
X108908229Y-60088447D01*
X108908229Y-60088447D02*
X108908229Y-59850352D01*
X108908229Y-59850352D02*
X108955848Y-59755114D01*
X108955848Y-59755114D02*
X109003467Y-59707495D01*
X109003467Y-59707495D02*
X109098705Y-59659876D01*
X109098705Y-59659876D02*
X109193943Y-59659876D01*
X109193943Y-59659876D02*
X109336800Y-59707495D01*
X109336800Y-59707495D02*
X109908229Y-60278923D01*
X109908229Y-60278923D02*
X109908229Y-59659876D01*
X108908229Y-59040828D02*
X108908229Y-58945590D01*
X108908229Y-58945590D02*
X108955848Y-58850352D01*
X108955848Y-58850352D02*
X109003467Y-58802733D01*
X109003467Y-58802733D02*
X109098705Y-58755114D01*
X109098705Y-58755114D02*
X109289181Y-58707495D01*
X109289181Y-58707495D02*
X109527276Y-58707495D01*
X109527276Y-58707495D02*
X109717752Y-58755114D01*
X109717752Y-58755114D02*
X109812990Y-58802733D01*
X109812990Y-58802733D02*
X109860610Y-58850352D01*
X109860610Y-58850352D02*
X109908229Y-58945590D01*
X109908229Y-58945590D02*
X109908229Y-59040828D01*
X109908229Y-59040828D02*
X109860610Y-59136066D01*
X109860610Y-59136066D02*
X109812990Y-59183685D01*
X109812990Y-59183685D02*
X109717752Y-59231304D01*
X109717752Y-59231304D02*
X109527276Y-59278923D01*
X109527276Y-59278923D02*
X109289181Y-59278923D01*
X109289181Y-59278923D02*
X109098705Y-59231304D01*
X109098705Y-59231304D02*
X109003467Y-59183685D01*
X109003467Y-59183685D02*
X108955848Y-59136066D01*
X108955848Y-59136066D02*
X108908229Y-59040828D01*
D12*
X107194680Y-90457352D02*
X107134204Y-90578304D01*
X107134204Y-90578304D02*
X107013252Y-90699257D01*
X107013252Y-90699257D02*
X106831823Y-90880685D01*
X106831823Y-90880685D02*
X106771347Y-91001638D01*
X106771347Y-91001638D02*
X106771347Y-91122590D01*
X107073728Y-91062114D02*
X107013252Y-91183066D01*
X107013252Y-91183066D02*
X106892299Y-91304019D01*
X106892299Y-91304019D02*
X106650394Y-91364495D01*
X106650394Y-91364495D02*
X106227061Y-91364495D01*
X106227061Y-91364495D02*
X105985156Y-91304019D01*
X105985156Y-91304019D02*
X105864204Y-91183066D01*
X105864204Y-91183066D02*
X105803728Y-91062114D01*
X105803728Y-91062114D02*
X105803728Y-90820209D01*
X105803728Y-90820209D02*
X105864204Y-90699257D01*
X105864204Y-90699257D02*
X105985156Y-90578304D01*
X105985156Y-90578304D02*
X106227061Y-90517828D01*
X106227061Y-90517828D02*
X106650394Y-90517828D01*
X106650394Y-90517828D02*
X106892299Y-90578304D01*
X106892299Y-90578304D02*
X107013252Y-90699257D01*
X107013252Y-90699257D02*
X107073728Y-90820209D01*
X107073728Y-90820209D02*
X107073728Y-91062114D01*
X107073728Y-89308304D02*
X107073728Y-90034019D01*
X107073728Y-89671162D02*
X105803728Y-89671162D01*
X105803728Y-89671162D02*
X105985156Y-89792114D01*
X105985156Y-89792114D02*
X106106109Y-89913066D01*
X106106109Y-89913066D02*
X106166585Y-90034019D01*
D11*
X115569390Y-101616628D02*
X115593200Y-101640437D01*
X115593200Y-101640437D02*
X115617009Y-101711866D01*
X115617009Y-101711866D02*
X115617009Y-101759485D01*
X115617009Y-101759485D02*
X115593200Y-101830913D01*
X115593200Y-101830913D02*
X115545580Y-101878532D01*
X115545580Y-101878532D02*
X115497961Y-101902342D01*
X115497961Y-101902342D02*
X115402723Y-101926151D01*
X115402723Y-101926151D02*
X115331295Y-101926151D01*
X115331295Y-101926151D02*
X115236057Y-101902342D01*
X115236057Y-101902342D02*
X115188438Y-101878532D01*
X115188438Y-101878532D02*
X115140819Y-101830913D01*
X115140819Y-101830913D02*
X115117009Y-101759485D01*
X115117009Y-101759485D02*
X115117009Y-101711866D01*
X115117009Y-101711866D02*
X115140819Y-101640437D01*
X115140819Y-101640437D02*
X115164628Y-101616628D01*
X115617009Y-101140437D02*
X115617009Y-101426151D01*
X115617009Y-101283294D02*
X115117009Y-101283294D01*
X115117009Y-101283294D02*
X115188438Y-101330913D01*
X115188438Y-101330913D02*
X115236057Y-101378532D01*
X115236057Y-101378532D02*
X115259866Y-101426151D01*
X115117009Y-100973771D02*
X115117009Y-100640438D01*
X115117009Y-100640438D02*
X115617009Y-100854723D01*
X131618581Y-94893790D02*
X131594772Y-94917600D01*
X131594772Y-94917600D02*
X131523343Y-94941409D01*
X131523343Y-94941409D02*
X131475724Y-94941409D01*
X131475724Y-94941409D02*
X131404296Y-94917600D01*
X131404296Y-94917600D02*
X131356677Y-94869980D01*
X131356677Y-94869980D02*
X131332867Y-94822361D01*
X131332867Y-94822361D02*
X131309058Y-94727123D01*
X131309058Y-94727123D02*
X131309058Y-94655695D01*
X131309058Y-94655695D02*
X131332867Y-94560457D01*
X131332867Y-94560457D02*
X131356677Y-94512838D01*
X131356677Y-94512838D02*
X131404296Y-94465219D01*
X131404296Y-94465219D02*
X131475724Y-94441409D01*
X131475724Y-94441409D02*
X131523343Y-94441409D01*
X131523343Y-94441409D02*
X131594772Y-94465219D01*
X131594772Y-94465219D02*
X131618581Y-94489028D01*
X132094772Y-94941409D02*
X131809058Y-94941409D01*
X131951915Y-94941409D02*
X131951915Y-94441409D01*
X131951915Y-94441409D02*
X131904296Y-94512838D01*
X131904296Y-94512838D02*
X131856677Y-94560457D01*
X131856677Y-94560457D02*
X131809058Y-94584266D01*
X132523343Y-94441409D02*
X132428105Y-94441409D01*
X132428105Y-94441409D02*
X132380486Y-94465219D01*
X132380486Y-94465219D02*
X132356676Y-94489028D01*
X132356676Y-94489028D02*
X132309057Y-94560457D01*
X132309057Y-94560457D02*
X132285248Y-94655695D01*
X132285248Y-94655695D02*
X132285248Y-94846171D01*
X132285248Y-94846171D02*
X132309057Y-94893790D01*
X132309057Y-94893790D02*
X132332867Y-94917600D01*
X132332867Y-94917600D02*
X132380486Y-94941409D01*
X132380486Y-94941409D02*
X132475724Y-94941409D01*
X132475724Y-94941409D02*
X132523343Y-94917600D01*
X132523343Y-94917600D02*
X132547152Y-94893790D01*
X132547152Y-94893790D02*
X132570962Y-94846171D01*
X132570962Y-94846171D02*
X132570962Y-94727123D01*
X132570962Y-94727123D02*
X132547152Y-94679504D01*
X132547152Y-94679504D02*
X132523343Y-94655695D01*
X132523343Y-94655695D02*
X132475724Y-94631885D01*
X132475724Y-94631885D02*
X132380486Y-94631885D01*
X132380486Y-94631885D02*
X132332867Y-94655695D01*
X132332867Y-94655695D02*
X132309057Y-94679504D01*
X132309057Y-94679504D02*
X132285248Y-94727123D01*
X134247771Y-105787209D02*
X134081105Y-105549114D01*
X133962057Y-105787209D02*
X133962057Y-105287209D01*
X133962057Y-105287209D02*
X134152533Y-105287209D01*
X134152533Y-105287209D02*
X134200152Y-105311019D01*
X134200152Y-105311019D02*
X134223962Y-105334828D01*
X134223962Y-105334828D02*
X134247771Y-105382447D01*
X134247771Y-105382447D02*
X134247771Y-105453876D01*
X134247771Y-105453876D02*
X134223962Y-105501495D01*
X134223962Y-105501495D02*
X134200152Y-105525304D01*
X134200152Y-105525304D02*
X134152533Y-105549114D01*
X134152533Y-105549114D02*
X133962057Y-105549114D01*
X134414438Y-105287209D02*
X134723962Y-105287209D01*
X134723962Y-105287209D02*
X134557295Y-105477685D01*
X134557295Y-105477685D02*
X134628724Y-105477685D01*
X134628724Y-105477685D02*
X134676343Y-105501495D01*
X134676343Y-105501495D02*
X134700152Y-105525304D01*
X134700152Y-105525304D02*
X134723962Y-105572923D01*
X134723962Y-105572923D02*
X134723962Y-105691971D01*
X134723962Y-105691971D02*
X134700152Y-105739590D01*
X134700152Y-105739590D02*
X134676343Y-105763400D01*
X134676343Y-105763400D02*
X134628724Y-105787209D01*
X134628724Y-105787209D02*
X134485867Y-105787209D01*
X134485867Y-105787209D02*
X134438248Y-105763400D01*
X134438248Y-105763400D02*
X134414438Y-105739590D01*
X135152533Y-105453876D02*
X135152533Y-105787209D01*
X135033485Y-105263400D02*
X134914438Y-105620542D01*
X134914438Y-105620542D02*
X135223961Y-105620542D01*
D10*
X122127180Y-77249257D02*
X122174800Y-77296876D01*
X122174800Y-77296876D02*
X122222419Y-77439733D01*
X122222419Y-77439733D02*
X122222419Y-77534971D01*
X122222419Y-77534971D02*
X122174800Y-77677828D01*
X122174800Y-77677828D02*
X122079561Y-77773066D01*
X122079561Y-77773066D02*
X121984323Y-77820685D01*
X121984323Y-77820685D02*
X121793847Y-77868304D01*
X121793847Y-77868304D02*
X121650990Y-77868304D01*
X121650990Y-77868304D02*
X121460514Y-77820685D01*
X121460514Y-77820685D02*
X121365276Y-77773066D01*
X121365276Y-77773066D02*
X121270038Y-77677828D01*
X121270038Y-77677828D02*
X121222419Y-77534971D01*
X121222419Y-77534971D02*
X121222419Y-77439733D01*
X121222419Y-77439733D02*
X121270038Y-77296876D01*
X121270038Y-77296876D02*
X121317657Y-77249257D01*
X122222419Y-76296876D02*
X122222419Y-76868304D01*
X122222419Y-76582590D02*
X121222419Y-76582590D01*
X121222419Y-76582590D02*
X121365276Y-76677828D01*
X121365276Y-76677828D02*
X121460514Y-76773066D01*
X121460514Y-76773066D02*
X121508133Y-76868304D01*
X121222419Y-75963542D02*
X121222419Y-75344495D01*
X121222419Y-75344495D02*
X121603371Y-75677828D01*
X121603371Y-75677828D02*
X121603371Y-75534971D01*
X121603371Y-75534971D02*
X121650990Y-75439733D01*
X121650990Y-75439733D02*
X121698609Y-75392114D01*
X121698609Y-75392114D02*
X121793847Y-75344495D01*
X121793847Y-75344495D02*
X122031942Y-75344495D01*
X122031942Y-75344495D02*
X122127180Y-75392114D01*
X122127180Y-75392114D02*
X122174800Y-75439733D01*
X122174800Y-75439733D02*
X122222419Y-75534971D01*
X122222419Y-75534971D02*
X122222419Y-75820685D01*
X122222419Y-75820685D02*
X122174800Y-75915923D01*
X122174800Y-75915923D02*
X122127180Y-75963542D01*
D11*
X118385181Y-55523790D02*
X118361372Y-55547600D01*
X118361372Y-55547600D02*
X118289943Y-55571409D01*
X118289943Y-55571409D02*
X118242324Y-55571409D01*
X118242324Y-55571409D02*
X118170896Y-55547600D01*
X118170896Y-55547600D02*
X118123277Y-55499980D01*
X118123277Y-55499980D02*
X118099467Y-55452361D01*
X118099467Y-55452361D02*
X118075658Y-55357123D01*
X118075658Y-55357123D02*
X118075658Y-55285695D01*
X118075658Y-55285695D02*
X118099467Y-55190457D01*
X118099467Y-55190457D02*
X118123277Y-55142838D01*
X118123277Y-55142838D02*
X118170896Y-55095219D01*
X118170896Y-55095219D02*
X118242324Y-55071409D01*
X118242324Y-55071409D02*
X118289943Y-55071409D01*
X118289943Y-55071409D02*
X118361372Y-55095219D01*
X118361372Y-55095219D02*
X118385181Y-55119028D01*
X118575658Y-55119028D02*
X118599467Y-55095219D01*
X118599467Y-55095219D02*
X118647086Y-55071409D01*
X118647086Y-55071409D02*
X118766134Y-55071409D01*
X118766134Y-55071409D02*
X118813753Y-55095219D01*
X118813753Y-55095219D02*
X118837562Y-55119028D01*
X118837562Y-55119028D02*
X118861372Y-55166647D01*
X118861372Y-55166647D02*
X118861372Y-55214266D01*
X118861372Y-55214266D02*
X118837562Y-55285695D01*
X118837562Y-55285695D02*
X118551848Y-55571409D01*
X118551848Y-55571409D02*
X118861372Y-55571409D01*
X119337562Y-55571409D02*
X119051848Y-55571409D01*
X119194705Y-55571409D02*
X119194705Y-55071409D01*
X119194705Y-55071409D02*
X119147086Y-55142838D01*
X119147086Y-55142838D02*
X119099467Y-55190457D01*
X119099467Y-55190457D02*
X119051848Y-55214266D01*
D10*
X141202580Y-52311066D02*
X141250200Y-52358685D01*
X141250200Y-52358685D02*
X141297819Y-52501542D01*
X141297819Y-52501542D02*
X141297819Y-52596780D01*
X141297819Y-52596780D02*
X141250200Y-52739637D01*
X141250200Y-52739637D02*
X141154961Y-52834875D01*
X141154961Y-52834875D02*
X141059723Y-52882494D01*
X141059723Y-52882494D02*
X140869247Y-52930113D01*
X140869247Y-52930113D02*
X140726390Y-52930113D01*
X140726390Y-52930113D02*
X140535914Y-52882494D01*
X140535914Y-52882494D02*
X140440676Y-52834875D01*
X140440676Y-52834875D02*
X140345438Y-52739637D01*
X140345438Y-52739637D02*
X140297819Y-52596780D01*
X140297819Y-52596780D02*
X140297819Y-52501542D01*
X140297819Y-52501542D02*
X140345438Y-52358685D01*
X140345438Y-52358685D02*
X140393057Y-52311066D01*
X141297819Y-51358685D02*
X141297819Y-51930113D01*
X141297819Y-51644399D02*
X140297819Y-51644399D01*
X140297819Y-51644399D02*
X140440676Y-51739637D01*
X140440676Y-51739637D02*
X140535914Y-51834875D01*
X140535914Y-51834875D02*
X140583533Y-51930113D01*
X119109876Y-51296219D02*
X119109876Y-52010504D01*
X119109876Y-52010504D02*
X119062257Y-52153361D01*
X119062257Y-52153361D02*
X118967019Y-52248600D01*
X118967019Y-52248600D02*
X118824162Y-52296219D01*
X118824162Y-52296219D02*
X118728924Y-52296219D01*
X120014638Y-51629552D02*
X120014638Y-52296219D01*
X119776543Y-51248600D02*
X119538448Y-51962885D01*
X119538448Y-51962885D02*
X120157495Y-51962885D01*
D11*
X134133181Y-75564390D02*
X134109372Y-75588200D01*
X134109372Y-75588200D02*
X134037943Y-75612009D01*
X134037943Y-75612009D02*
X133990324Y-75612009D01*
X133990324Y-75612009D02*
X133918896Y-75588200D01*
X133918896Y-75588200D02*
X133871277Y-75540580D01*
X133871277Y-75540580D02*
X133847467Y-75492961D01*
X133847467Y-75492961D02*
X133823658Y-75397723D01*
X133823658Y-75397723D02*
X133823658Y-75326295D01*
X133823658Y-75326295D02*
X133847467Y-75231057D01*
X133847467Y-75231057D02*
X133871277Y-75183438D01*
X133871277Y-75183438D02*
X133918896Y-75135819D01*
X133918896Y-75135819D02*
X133990324Y-75112009D01*
X133990324Y-75112009D02*
X134037943Y-75112009D01*
X134037943Y-75112009D02*
X134109372Y-75135819D01*
X134109372Y-75135819D02*
X134133181Y-75159628D01*
X134299848Y-75112009D02*
X134609372Y-75112009D01*
X134609372Y-75112009D02*
X134442705Y-75302485D01*
X134442705Y-75302485D02*
X134514134Y-75302485D01*
X134514134Y-75302485D02*
X134561753Y-75326295D01*
X134561753Y-75326295D02*
X134585562Y-75350104D01*
X134585562Y-75350104D02*
X134609372Y-75397723D01*
X134609372Y-75397723D02*
X134609372Y-75516771D01*
X134609372Y-75516771D02*
X134585562Y-75564390D01*
X134585562Y-75564390D02*
X134561753Y-75588200D01*
X134561753Y-75588200D02*
X134514134Y-75612009D01*
X134514134Y-75612009D02*
X134371277Y-75612009D01*
X134371277Y-75612009D02*
X134323658Y-75588200D01*
X134323658Y-75588200D02*
X134299848Y-75564390D01*
X134799848Y-75159628D02*
X134823657Y-75135819D01*
X134823657Y-75135819D02*
X134871276Y-75112009D01*
X134871276Y-75112009D02*
X134990324Y-75112009D01*
X134990324Y-75112009D02*
X135037943Y-75135819D01*
X135037943Y-75135819D02*
X135061752Y-75159628D01*
X135061752Y-75159628D02*
X135085562Y-75207247D01*
X135085562Y-75207247D02*
X135085562Y-75254866D01*
X135085562Y-75254866D02*
X135061752Y-75326295D01*
X135061752Y-75326295D02*
X134776038Y-75612009D01*
X134776038Y-75612009D02*
X135085562Y-75612009D01*
D10*
X138744076Y-109640019D02*
X138744076Y-110354304D01*
X138744076Y-110354304D02*
X138696457Y-110497161D01*
X138696457Y-110497161D02*
X138601219Y-110592400D01*
X138601219Y-110592400D02*
X138458362Y-110640019D01*
X138458362Y-110640019D02*
X138363124Y-110640019D01*
X139125029Y-109640019D02*
X139744076Y-109640019D01*
X139744076Y-109640019D02*
X139410743Y-110020971D01*
X139410743Y-110020971D02*
X139553600Y-110020971D01*
X139553600Y-110020971D02*
X139648838Y-110068590D01*
X139648838Y-110068590D02*
X139696457Y-110116209D01*
X139696457Y-110116209D02*
X139744076Y-110211447D01*
X139744076Y-110211447D02*
X139744076Y-110449542D01*
X139744076Y-110449542D02*
X139696457Y-110544780D01*
X139696457Y-110544780D02*
X139648838Y-110592400D01*
X139648838Y-110592400D02*
X139553600Y-110640019D01*
X139553600Y-110640019D02*
X139267886Y-110640019D01*
X139267886Y-110640019D02*
X139172648Y-110592400D01*
X139172648Y-110592400D02*
X139125029Y-110544780D01*
X143674905Y-77839219D02*
X143674905Y-78648742D01*
X143674905Y-78648742D02*
X143722524Y-78743980D01*
X143722524Y-78743980D02*
X143770143Y-78791600D01*
X143770143Y-78791600D02*
X143865381Y-78839219D01*
X143865381Y-78839219D02*
X144055857Y-78839219D01*
X144055857Y-78839219D02*
X144151095Y-78791600D01*
X144151095Y-78791600D02*
X144198714Y-78743980D01*
X144198714Y-78743980D02*
X144246333Y-78648742D01*
X144246333Y-78648742D02*
X144246333Y-77839219D01*
X144627286Y-77839219D02*
X145246333Y-77839219D01*
X145246333Y-77839219D02*
X144913000Y-78220171D01*
X144913000Y-78220171D02*
X145055857Y-78220171D01*
X145055857Y-78220171D02*
X145151095Y-78267790D01*
X145151095Y-78267790D02*
X145198714Y-78315409D01*
X145198714Y-78315409D02*
X145246333Y-78410647D01*
X145246333Y-78410647D02*
X145246333Y-78648742D01*
X145246333Y-78648742D02*
X145198714Y-78743980D01*
X145198714Y-78743980D02*
X145151095Y-78791600D01*
X145151095Y-78791600D02*
X145055857Y-78839219D01*
X145055857Y-78839219D02*
X144770143Y-78839219D01*
X144770143Y-78839219D02*
X144674905Y-78791600D01*
X144674905Y-78791600D02*
X144627286Y-78743980D01*
X98999529Y-88283333D02*
X99713814Y-88283333D01*
X99713814Y-88283333D02*
X99856671Y-88330952D01*
X99856671Y-88330952D02*
X99951910Y-88426190D01*
X99951910Y-88426190D02*
X99999529Y-88569047D01*
X99999529Y-88569047D02*
X99999529Y-88664285D01*
X99999529Y-87283333D02*
X99999529Y-87854761D01*
X99999529Y-87569047D02*
X98999529Y-87569047D01*
X98999529Y-87569047D02*
X99142386Y-87664285D01*
X99142386Y-87664285D02*
X99237624Y-87759523D01*
X99237624Y-87759523D02*
X99285243Y-87854761D01*
D11*
X141591400Y-86275028D02*
X141615210Y-86298837D01*
X141615210Y-86298837D02*
X141639019Y-86370266D01*
X141639019Y-86370266D02*
X141639019Y-86417885D01*
X141639019Y-86417885D02*
X141615210Y-86489313D01*
X141615210Y-86489313D02*
X141567590Y-86536932D01*
X141567590Y-86536932D02*
X141519971Y-86560742D01*
X141519971Y-86560742D02*
X141424733Y-86584551D01*
X141424733Y-86584551D02*
X141353305Y-86584551D01*
X141353305Y-86584551D02*
X141258067Y-86560742D01*
X141258067Y-86560742D02*
X141210448Y-86536932D01*
X141210448Y-86536932D02*
X141162829Y-86489313D01*
X141162829Y-86489313D02*
X141139019Y-86417885D01*
X141139019Y-86417885D02*
X141139019Y-86370266D01*
X141139019Y-86370266D02*
X141162829Y-86298837D01*
X141162829Y-86298837D02*
X141186638Y-86275028D01*
X141639019Y-85798837D02*
X141639019Y-86084551D01*
X141639019Y-85941694D02*
X141139019Y-85941694D01*
X141139019Y-85941694D02*
X141210448Y-85989313D01*
X141210448Y-85989313D02*
X141258067Y-86036932D01*
X141258067Y-86036932D02*
X141281876Y-86084551D01*
X141639019Y-85322647D02*
X141639019Y-85608361D01*
X141639019Y-85465504D02*
X141139019Y-85465504D01*
X141139019Y-85465504D02*
X141210448Y-85513123D01*
X141210448Y-85513123D02*
X141258067Y-85560742D01*
X141258067Y-85560742D02*
X141281876Y-85608361D01*
D10*
X117443343Y-90457219D02*
X117110010Y-89981028D01*
X116871915Y-90457219D02*
X116871915Y-89457219D01*
X116871915Y-89457219D02*
X117252867Y-89457219D01*
X117252867Y-89457219D02*
X117348105Y-89504838D01*
X117348105Y-89504838D02*
X117395724Y-89552457D01*
X117395724Y-89552457D02*
X117443343Y-89647695D01*
X117443343Y-89647695D02*
X117443343Y-89790552D01*
X117443343Y-89790552D02*
X117395724Y-89885790D01*
X117395724Y-89885790D02*
X117348105Y-89933409D01*
X117348105Y-89933409D02*
X117252867Y-89981028D01*
X117252867Y-89981028D02*
X116871915Y-89981028D01*
X117919534Y-90457219D02*
X118110010Y-90457219D01*
X118110010Y-90457219D02*
X118205248Y-90409600D01*
X118205248Y-90409600D02*
X118252867Y-90361980D01*
X118252867Y-90361980D02*
X118348105Y-90219123D01*
X118348105Y-90219123D02*
X118395724Y-90028647D01*
X118395724Y-90028647D02*
X118395724Y-89647695D01*
X118395724Y-89647695D02*
X118348105Y-89552457D01*
X118348105Y-89552457D02*
X118300486Y-89504838D01*
X118300486Y-89504838D02*
X118205248Y-89457219D01*
X118205248Y-89457219D02*
X118014772Y-89457219D01*
X118014772Y-89457219D02*
X117919534Y-89504838D01*
X117919534Y-89504838D02*
X117871915Y-89552457D01*
X117871915Y-89552457D02*
X117824296Y-89647695D01*
X117824296Y-89647695D02*
X117824296Y-89885790D01*
X117824296Y-89885790D02*
X117871915Y-89981028D01*
X117871915Y-89981028D02*
X117919534Y-90028647D01*
X117919534Y-90028647D02*
X118014772Y-90076266D01*
X118014772Y-90076266D02*
X118205248Y-90076266D01*
X118205248Y-90076266D02*
X118300486Y-90028647D01*
X118300486Y-90028647D02*
X118348105Y-89981028D01*
X118348105Y-89981028D02*
X118395724Y-89885790D01*
D11*
X117623609Y-101939233D02*
X117385514Y-102105899D01*
X117623609Y-102224947D02*
X117123609Y-102224947D01*
X117123609Y-102224947D02*
X117123609Y-102034471D01*
X117123609Y-102034471D02*
X117147419Y-101986852D01*
X117147419Y-101986852D02*
X117171228Y-101963042D01*
X117171228Y-101963042D02*
X117218847Y-101939233D01*
X117218847Y-101939233D02*
X117290276Y-101939233D01*
X117290276Y-101939233D02*
X117337895Y-101963042D01*
X117337895Y-101963042D02*
X117361704Y-101986852D01*
X117361704Y-101986852D02*
X117385514Y-102034471D01*
X117385514Y-102034471D02*
X117385514Y-102224947D01*
X117171228Y-101748756D02*
X117147419Y-101724947D01*
X117147419Y-101724947D02*
X117123609Y-101677328D01*
X117123609Y-101677328D02*
X117123609Y-101558280D01*
X117123609Y-101558280D02*
X117147419Y-101510661D01*
X117147419Y-101510661D02*
X117171228Y-101486852D01*
X117171228Y-101486852D02*
X117218847Y-101463042D01*
X117218847Y-101463042D02*
X117266466Y-101463042D01*
X117266466Y-101463042D02*
X117337895Y-101486852D01*
X117337895Y-101486852D02*
X117623609Y-101772566D01*
X117623609Y-101772566D02*
X117623609Y-101463042D01*
D10*
X118139952Y-84173219D02*
X117806619Y-83697028D01*
X117568524Y-84173219D02*
X117568524Y-83173219D01*
X117568524Y-83173219D02*
X117949476Y-83173219D01*
X117949476Y-83173219D02*
X118044714Y-83220838D01*
X118044714Y-83220838D02*
X118092333Y-83268457D01*
X118092333Y-83268457D02*
X118139952Y-83363695D01*
X118139952Y-83363695D02*
X118139952Y-83506552D01*
X118139952Y-83506552D02*
X118092333Y-83601790D01*
X118092333Y-83601790D02*
X118044714Y-83649409D01*
X118044714Y-83649409D02*
X117949476Y-83697028D01*
X117949476Y-83697028D02*
X117568524Y-83697028D01*
X119092333Y-84173219D02*
X118520905Y-84173219D01*
X118806619Y-84173219D02*
X118806619Y-83173219D01*
X118806619Y-83173219D02*
X118711381Y-83316076D01*
X118711381Y-83316076D02*
X118616143Y-83411314D01*
X118616143Y-83411314D02*
X118520905Y-83458933D01*
X120044714Y-84173219D02*
X119473286Y-84173219D01*
X119759000Y-84173219D02*
X119759000Y-83173219D01*
X119759000Y-83173219D02*
X119663762Y-83316076D01*
X119663762Y-83316076D02*
X119568524Y-83411314D01*
X119568524Y-83411314D02*
X119473286Y-83458933D01*
D12*
X107059080Y-70618352D02*
X106998604Y-70739304D01*
X106998604Y-70739304D02*
X106877652Y-70860257D01*
X106877652Y-70860257D02*
X106696223Y-71041685D01*
X106696223Y-71041685D02*
X106635747Y-71162638D01*
X106635747Y-71162638D02*
X106635747Y-71283590D01*
X106938128Y-71223114D02*
X106877652Y-71344066D01*
X106877652Y-71344066D02*
X106756699Y-71465019D01*
X106756699Y-71465019D02*
X106514794Y-71525495D01*
X106514794Y-71525495D02*
X106091461Y-71525495D01*
X106091461Y-71525495D02*
X105849556Y-71465019D01*
X105849556Y-71465019D02*
X105728604Y-71344066D01*
X105728604Y-71344066D02*
X105668128Y-71223114D01*
X105668128Y-71223114D02*
X105668128Y-70981209D01*
X105668128Y-70981209D02*
X105728604Y-70860257D01*
X105728604Y-70860257D02*
X105849556Y-70739304D01*
X105849556Y-70739304D02*
X106091461Y-70678828D01*
X106091461Y-70678828D02*
X106514794Y-70678828D01*
X106514794Y-70678828D02*
X106756699Y-70739304D01*
X106756699Y-70739304D02*
X106877652Y-70860257D01*
X106877652Y-70860257D02*
X106938128Y-70981209D01*
X106938128Y-70981209D02*
X106938128Y-71223114D01*
X105668128Y-70255495D02*
X105668128Y-69469304D01*
X105668128Y-69469304D02*
X106151937Y-69892638D01*
X106151937Y-69892638D02*
X106151937Y-69711209D01*
X106151937Y-69711209D02*
X106212413Y-69590257D01*
X106212413Y-69590257D02*
X106272890Y-69529781D01*
X106272890Y-69529781D02*
X106393842Y-69469304D01*
X106393842Y-69469304D02*
X106696223Y-69469304D01*
X106696223Y-69469304D02*
X106817175Y-69529781D01*
X106817175Y-69529781D02*
X106877652Y-69590257D01*
X106877652Y-69590257D02*
X106938128Y-69711209D01*
X106938128Y-69711209D02*
X106938128Y-70074066D01*
X106938128Y-70074066D02*
X106877652Y-70195019D01*
X106877652Y-70195019D02*
X106817175Y-70255495D01*
D11*
X130821800Y-71136628D02*
X130845610Y-71160437D01*
X130845610Y-71160437D02*
X130869419Y-71231866D01*
X130869419Y-71231866D02*
X130869419Y-71279485D01*
X130869419Y-71279485D02*
X130845610Y-71350913D01*
X130845610Y-71350913D02*
X130797990Y-71398532D01*
X130797990Y-71398532D02*
X130750371Y-71422342D01*
X130750371Y-71422342D02*
X130655133Y-71446151D01*
X130655133Y-71446151D02*
X130583705Y-71446151D01*
X130583705Y-71446151D02*
X130488467Y-71422342D01*
X130488467Y-71422342D02*
X130440848Y-71398532D01*
X130440848Y-71398532D02*
X130393229Y-71350913D01*
X130393229Y-71350913D02*
X130369419Y-71279485D01*
X130369419Y-71279485D02*
X130369419Y-71231866D01*
X130369419Y-71231866D02*
X130393229Y-71160437D01*
X130393229Y-71160437D02*
X130417038Y-71136628D01*
X130369419Y-70969961D02*
X130369419Y-70660437D01*
X130369419Y-70660437D02*
X130559895Y-70827104D01*
X130559895Y-70827104D02*
X130559895Y-70755675D01*
X130559895Y-70755675D02*
X130583705Y-70708056D01*
X130583705Y-70708056D02*
X130607514Y-70684247D01*
X130607514Y-70684247D02*
X130655133Y-70660437D01*
X130655133Y-70660437D02*
X130774181Y-70660437D01*
X130774181Y-70660437D02*
X130821800Y-70684247D01*
X130821800Y-70684247D02*
X130845610Y-70708056D01*
X130845610Y-70708056D02*
X130869419Y-70755675D01*
X130869419Y-70755675D02*
X130869419Y-70898532D01*
X130869419Y-70898532D02*
X130845610Y-70946151D01*
X130845610Y-70946151D02*
X130821800Y-70969961D01*
X130369419Y-70350914D02*
X130369419Y-70303295D01*
X130369419Y-70303295D02*
X130393229Y-70255676D01*
X130393229Y-70255676D02*
X130417038Y-70231866D01*
X130417038Y-70231866D02*
X130464657Y-70208057D01*
X130464657Y-70208057D02*
X130559895Y-70184247D01*
X130559895Y-70184247D02*
X130678943Y-70184247D01*
X130678943Y-70184247D02*
X130774181Y-70208057D01*
X130774181Y-70208057D02*
X130821800Y-70231866D01*
X130821800Y-70231866D02*
X130845610Y-70255676D01*
X130845610Y-70255676D02*
X130869419Y-70303295D01*
X130869419Y-70303295D02*
X130869419Y-70350914D01*
X130869419Y-70350914D02*
X130845610Y-70398533D01*
X130845610Y-70398533D02*
X130821800Y-70422342D01*
X130821800Y-70422342D02*
X130774181Y-70446152D01*
X130774181Y-70446152D02*
X130678943Y-70469961D01*
X130678943Y-70469961D02*
X130559895Y-70469961D01*
X130559895Y-70469961D02*
X130464657Y-70446152D01*
X130464657Y-70446152D02*
X130417038Y-70422342D01*
X130417038Y-70422342D02*
X130393229Y-70398533D01*
X130393229Y-70398533D02*
X130369419Y-70350914D01*
D10*
X116793752Y-70609619D02*
X116460419Y-70133428D01*
X116222324Y-70609619D02*
X116222324Y-69609619D01*
X116222324Y-69609619D02*
X116603276Y-69609619D01*
X116603276Y-69609619D02*
X116698514Y-69657238D01*
X116698514Y-69657238D02*
X116746133Y-69704857D01*
X116746133Y-69704857D02*
X116793752Y-69800095D01*
X116793752Y-69800095D02*
X116793752Y-69942952D01*
X116793752Y-69942952D02*
X116746133Y-70038190D01*
X116746133Y-70038190D02*
X116698514Y-70085809D01*
X116698514Y-70085809D02*
X116603276Y-70133428D01*
X116603276Y-70133428D02*
X116222324Y-70133428D01*
X117746133Y-70609619D02*
X117174705Y-70609619D01*
X117460419Y-70609619D02*
X117460419Y-69609619D01*
X117460419Y-69609619D02*
X117365181Y-69752476D01*
X117365181Y-69752476D02*
X117269943Y-69847714D01*
X117269943Y-69847714D02*
X117174705Y-69895333D01*
X118222324Y-70609619D02*
X118412800Y-70609619D01*
X118412800Y-70609619D02*
X118508038Y-70562000D01*
X118508038Y-70562000D02*
X118555657Y-70514380D01*
X118555657Y-70514380D02*
X118650895Y-70371523D01*
X118650895Y-70371523D02*
X118698514Y-70181047D01*
X118698514Y-70181047D02*
X118698514Y-69800095D01*
X118698514Y-69800095D02*
X118650895Y-69704857D01*
X118650895Y-69704857D02*
X118603276Y-69657238D01*
X118603276Y-69657238D02*
X118508038Y-69609619D01*
X118508038Y-69609619D02*
X118317562Y-69609619D01*
X118317562Y-69609619D02*
X118222324Y-69657238D01*
X118222324Y-69657238D02*
X118174705Y-69704857D01*
X118174705Y-69704857D02*
X118127086Y-69800095D01*
X118127086Y-69800095D02*
X118127086Y-70038190D01*
X118127086Y-70038190D02*
X118174705Y-70133428D01*
X118174705Y-70133428D02*
X118222324Y-70181047D01*
X118222324Y-70181047D02*
X118317562Y-70228666D01*
X118317562Y-70228666D02*
X118508038Y-70228666D01*
X118508038Y-70228666D02*
X118603276Y-70181047D01*
X118603276Y-70181047D02*
X118650895Y-70133428D01*
X118650895Y-70133428D02*
X118698514Y-70038190D01*
D12*
X107109880Y-80498952D02*
X107049404Y-80619904D01*
X107049404Y-80619904D02*
X106928452Y-80740857D01*
X106928452Y-80740857D02*
X106747023Y-80922285D01*
X106747023Y-80922285D02*
X106686547Y-81043238D01*
X106686547Y-81043238D02*
X106686547Y-81164190D01*
X106988928Y-81103714D02*
X106928452Y-81224666D01*
X106928452Y-81224666D02*
X106807499Y-81345619D01*
X106807499Y-81345619D02*
X106565594Y-81406095D01*
X106565594Y-81406095D02*
X106142261Y-81406095D01*
X106142261Y-81406095D02*
X105900356Y-81345619D01*
X105900356Y-81345619D02*
X105779404Y-81224666D01*
X105779404Y-81224666D02*
X105718928Y-81103714D01*
X105718928Y-81103714D02*
X105718928Y-80861809D01*
X105718928Y-80861809D02*
X105779404Y-80740857D01*
X105779404Y-80740857D02*
X105900356Y-80619904D01*
X105900356Y-80619904D02*
X106142261Y-80559428D01*
X106142261Y-80559428D02*
X106565594Y-80559428D01*
X106565594Y-80559428D02*
X106807499Y-80619904D01*
X106807499Y-80619904D02*
X106928452Y-80740857D01*
X106928452Y-80740857D02*
X106988928Y-80861809D01*
X106988928Y-80861809D02*
X106988928Y-81103714D01*
X105839880Y-80075619D02*
X105779404Y-80015143D01*
X105779404Y-80015143D02*
X105718928Y-79894190D01*
X105718928Y-79894190D02*
X105718928Y-79591809D01*
X105718928Y-79591809D02*
X105779404Y-79470857D01*
X105779404Y-79470857D02*
X105839880Y-79410381D01*
X105839880Y-79410381D02*
X105960832Y-79349904D01*
X105960832Y-79349904D02*
X106081785Y-79349904D01*
X106081785Y-79349904D02*
X106263213Y-79410381D01*
X106263213Y-79410381D02*
X106988928Y-80136095D01*
X106988928Y-80136095D02*
X106988928Y-79349904D01*
D11*
X135217076Y-60626009D02*
X135050410Y-60387914D01*
X134931362Y-60626009D02*
X134931362Y-60126009D01*
X134931362Y-60126009D02*
X135121838Y-60126009D01*
X135121838Y-60126009D02*
X135169457Y-60149819D01*
X135169457Y-60149819D02*
X135193267Y-60173628D01*
X135193267Y-60173628D02*
X135217076Y-60221247D01*
X135217076Y-60221247D02*
X135217076Y-60292676D01*
X135217076Y-60292676D02*
X135193267Y-60340295D01*
X135193267Y-60340295D02*
X135169457Y-60364104D01*
X135169457Y-60364104D02*
X135121838Y-60387914D01*
X135121838Y-60387914D02*
X134931362Y-60387914D01*
X135693267Y-60626009D02*
X135407553Y-60626009D01*
X135550410Y-60626009D02*
X135550410Y-60126009D01*
X135550410Y-60126009D02*
X135502791Y-60197438D01*
X135502791Y-60197438D02*
X135455172Y-60245057D01*
X135455172Y-60245057D02*
X135407553Y-60268866D01*
D10*
X143596229Y-72863366D02*
X143120038Y-73196699D01*
X143596229Y-73434794D02*
X142596229Y-73434794D01*
X142596229Y-73434794D02*
X142596229Y-73053842D01*
X142596229Y-73053842D02*
X142643848Y-72958604D01*
X142643848Y-72958604D02*
X142691467Y-72910985D01*
X142691467Y-72910985D02*
X142786705Y-72863366D01*
X142786705Y-72863366D02*
X142929562Y-72863366D01*
X142929562Y-72863366D02*
X143024800Y-72910985D01*
X143024800Y-72910985D02*
X143072419Y-72958604D01*
X143072419Y-72958604D02*
X143120038Y-73053842D01*
X143120038Y-73053842D02*
X143120038Y-73434794D01*
X142596229Y-71958604D02*
X142596229Y-72434794D01*
X142596229Y-72434794D02*
X143072419Y-72482413D01*
X143072419Y-72482413D02*
X143024800Y-72434794D01*
X143024800Y-72434794D02*
X142977181Y-72339556D01*
X142977181Y-72339556D02*
X142977181Y-72101461D01*
X142977181Y-72101461D02*
X143024800Y-72006223D01*
X143024800Y-72006223D02*
X143072419Y-71958604D01*
X143072419Y-71958604D02*
X143167657Y-71910985D01*
X143167657Y-71910985D02*
X143405752Y-71910985D01*
X143405752Y-71910985D02*
X143500990Y-71958604D01*
X143500990Y-71958604D02*
X143548610Y-72006223D01*
X143548610Y-72006223D02*
X143596229Y-72101461D01*
X143596229Y-72101461D02*
X143596229Y-72339556D01*
X143596229Y-72339556D02*
X143548610Y-72434794D01*
X143548610Y-72434794D02*
X143500990Y-72482413D01*
D11*
X137041657Y-56366812D02*
X137041657Y-56771574D01*
X137041657Y-56771574D02*
X137065467Y-56819193D01*
X137065467Y-56819193D02*
X137089276Y-56843003D01*
X137089276Y-56843003D02*
X137136895Y-56866812D01*
X137136895Y-56866812D02*
X137232133Y-56866812D01*
X137232133Y-56866812D02*
X137279752Y-56843003D01*
X137279752Y-56843003D02*
X137303562Y-56819193D01*
X137303562Y-56819193D02*
X137327371Y-56771574D01*
X137327371Y-56771574D02*
X137327371Y-56366812D01*
X137827372Y-56866812D02*
X137541658Y-56866812D01*
X137684515Y-56866812D02*
X137684515Y-56366812D01*
X137684515Y-56366812D02*
X137636896Y-56438241D01*
X137636896Y-56438241D02*
X137589277Y-56485860D01*
X137589277Y-56485860D02*
X137541658Y-56509669D01*
D10*
X157252029Y-88649133D02*
X157966314Y-88649133D01*
X157966314Y-88649133D02*
X158109171Y-88696752D01*
X158109171Y-88696752D02*
X158204410Y-88791990D01*
X158204410Y-88791990D02*
X158252029Y-88934847D01*
X158252029Y-88934847D02*
X158252029Y-89030085D01*
X157347267Y-88220561D02*
X157299648Y-88172942D01*
X157299648Y-88172942D02*
X157252029Y-88077704D01*
X157252029Y-88077704D02*
X157252029Y-87839609D01*
X157252029Y-87839609D02*
X157299648Y-87744371D01*
X157299648Y-87744371D02*
X157347267Y-87696752D01*
X157347267Y-87696752D02*
X157442505Y-87649133D01*
X157442505Y-87649133D02*
X157537743Y-87649133D01*
X157537743Y-87649133D02*
X157680600Y-87696752D01*
X157680600Y-87696752D02*
X158252029Y-88268180D01*
X158252029Y-88268180D02*
X158252029Y-87649133D01*
X148094628Y-98780504D02*
X148904151Y-98780504D01*
X148904151Y-98780504D02*
X148999389Y-98732885D01*
X148999389Y-98732885D02*
X149047009Y-98685266D01*
X149047009Y-98685266D02*
X149094628Y-98590028D01*
X149094628Y-98590028D02*
X149094628Y-98399552D01*
X149094628Y-98399552D02*
X149047009Y-98304314D01*
X149047009Y-98304314D02*
X148999389Y-98256695D01*
X148999389Y-98256695D02*
X148904151Y-98209076D01*
X148904151Y-98209076D02*
X148094628Y-98209076D01*
X148523199Y-97590028D02*
X148475580Y-97685266D01*
X148475580Y-97685266D02*
X148427961Y-97732885D01*
X148427961Y-97732885D02*
X148332723Y-97780504D01*
X148332723Y-97780504D02*
X148285104Y-97780504D01*
X148285104Y-97780504D02*
X148189866Y-97732885D01*
X148189866Y-97732885D02*
X148142247Y-97685266D01*
X148142247Y-97685266D02*
X148094628Y-97590028D01*
X148094628Y-97590028D02*
X148094628Y-97399552D01*
X148094628Y-97399552D02*
X148142247Y-97304314D01*
X148142247Y-97304314D02*
X148189866Y-97256695D01*
X148189866Y-97256695D02*
X148285104Y-97209076D01*
X148285104Y-97209076D02*
X148332723Y-97209076D01*
X148332723Y-97209076D02*
X148427961Y-97256695D01*
X148427961Y-97256695D02*
X148475580Y-97304314D01*
X148475580Y-97304314D02*
X148523199Y-97399552D01*
X148523199Y-97399552D02*
X148523199Y-97590028D01*
X148523199Y-97590028D02*
X148570818Y-97685266D01*
X148570818Y-97685266D02*
X148618437Y-97732885D01*
X148618437Y-97732885D02*
X148713675Y-97780504D01*
X148713675Y-97780504D02*
X148904151Y-97780504D01*
X148904151Y-97780504D02*
X148999389Y-97732885D01*
X148999389Y-97732885D02*
X149047009Y-97685266D01*
X149047009Y-97685266D02*
X149094628Y-97590028D01*
X149094628Y-97590028D02*
X149094628Y-97399552D01*
X149094628Y-97399552D02*
X149047009Y-97304314D01*
X149047009Y-97304314D02*
X148999389Y-97256695D01*
X148999389Y-97256695D02*
X148904151Y-97209076D01*
X148904151Y-97209076D02*
X148713675Y-97209076D01*
X148713675Y-97209076D02*
X148618437Y-97256695D01*
X148618437Y-97256695D02*
X148570818Y-97304314D01*
X148570818Y-97304314D02*
X148523199Y-97399552D01*
X149795029Y-98297999D02*
X150033124Y-98297999D01*
X149937886Y-98536094D02*
X150033124Y-98297999D01*
X150033124Y-98297999D02*
X149937886Y-98059904D01*
X150223600Y-98440856D02*
X150033124Y-98297999D01*
X150033124Y-98297999D02*
X150223600Y-98155142D01*
X149795029Y-98297999D02*
X150033124Y-98297999D01*
X149937886Y-98536094D02*
X150033124Y-98297999D01*
X150033124Y-98297999D02*
X149937886Y-98059904D01*
X150223600Y-98440856D02*
X150033124Y-98297999D01*
X150033124Y-98297999D02*
X150223600Y-98155142D01*
X146498190Y-73013866D02*
X146545810Y-73061485D01*
X146545810Y-73061485D02*
X146593429Y-73204342D01*
X146593429Y-73204342D02*
X146593429Y-73299580D01*
X146593429Y-73299580D02*
X146545810Y-73442437D01*
X146545810Y-73442437D02*
X146450571Y-73537675D01*
X146450571Y-73537675D02*
X146355333Y-73585294D01*
X146355333Y-73585294D02*
X146164857Y-73632913D01*
X146164857Y-73632913D02*
X146022000Y-73632913D01*
X146022000Y-73632913D02*
X145831524Y-73585294D01*
X145831524Y-73585294D02*
X145736286Y-73537675D01*
X145736286Y-73537675D02*
X145641048Y-73442437D01*
X145641048Y-73442437D02*
X145593429Y-73299580D01*
X145593429Y-73299580D02*
X145593429Y-73204342D01*
X145593429Y-73204342D02*
X145641048Y-73061485D01*
X145641048Y-73061485D02*
X145688667Y-73013866D01*
X146593429Y-72537675D02*
X146593429Y-72347199D01*
X146593429Y-72347199D02*
X146545810Y-72251961D01*
X146545810Y-72251961D02*
X146498190Y-72204342D01*
X146498190Y-72204342D02*
X146355333Y-72109104D01*
X146355333Y-72109104D02*
X146164857Y-72061485D01*
X146164857Y-72061485D02*
X145783905Y-72061485D01*
X145783905Y-72061485D02*
X145688667Y-72109104D01*
X145688667Y-72109104D02*
X145641048Y-72156723D01*
X145641048Y-72156723D02*
X145593429Y-72251961D01*
X145593429Y-72251961D02*
X145593429Y-72442437D01*
X145593429Y-72442437D02*
X145641048Y-72537675D01*
X145641048Y-72537675D02*
X145688667Y-72585294D01*
X145688667Y-72585294D02*
X145783905Y-72632913D01*
X145783905Y-72632913D02*
X146022000Y-72632913D01*
X146022000Y-72632913D02*
X146117238Y-72585294D01*
X146117238Y-72585294D02*
X146164857Y-72537675D01*
X146164857Y-72537675D02*
X146212476Y-72442437D01*
X146212476Y-72442437D02*
X146212476Y-72251961D01*
X146212476Y-72251961D02*
X146164857Y-72156723D01*
X146164857Y-72156723D02*
X146117238Y-72109104D01*
X146117238Y-72109104D02*
X146022000Y-72061485D01*
D11*
X130821800Y-72660628D02*
X130845610Y-72684437D01*
X130845610Y-72684437D02*
X130869419Y-72755866D01*
X130869419Y-72755866D02*
X130869419Y-72803485D01*
X130869419Y-72803485D02*
X130845610Y-72874913D01*
X130845610Y-72874913D02*
X130797990Y-72922532D01*
X130797990Y-72922532D02*
X130750371Y-72946342D01*
X130750371Y-72946342D02*
X130655133Y-72970151D01*
X130655133Y-72970151D02*
X130583705Y-72970151D01*
X130583705Y-72970151D02*
X130488467Y-72946342D01*
X130488467Y-72946342D02*
X130440848Y-72922532D01*
X130440848Y-72922532D02*
X130393229Y-72874913D01*
X130393229Y-72874913D02*
X130369419Y-72803485D01*
X130369419Y-72803485D02*
X130369419Y-72755866D01*
X130369419Y-72755866D02*
X130393229Y-72684437D01*
X130393229Y-72684437D02*
X130417038Y-72660628D01*
X130369419Y-72493961D02*
X130369419Y-72184437D01*
X130369419Y-72184437D02*
X130559895Y-72351104D01*
X130559895Y-72351104D02*
X130559895Y-72279675D01*
X130559895Y-72279675D02*
X130583705Y-72232056D01*
X130583705Y-72232056D02*
X130607514Y-72208247D01*
X130607514Y-72208247D02*
X130655133Y-72184437D01*
X130655133Y-72184437D02*
X130774181Y-72184437D01*
X130774181Y-72184437D02*
X130821800Y-72208247D01*
X130821800Y-72208247D02*
X130845610Y-72232056D01*
X130845610Y-72232056D02*
X130869419Y-72279675D01*
X130869419Y-72279675D02*
X130869419Y-72422532D01*
X130869419Y-72422532D02*
X130845610Y-72470151D01*
X130845610Y-72470151D02*
X130821800Y-72493961D01*
X130869419Y-71708247D02*
X130869419Y-71993961D01*
X130869419Y-71851104D02*
X130369419Y-71851104D01*
X130369419Y-71851104D02*
X130440848Y-71898723D01*
X130440848Y-71898723D02*
X130488467Y-71946342D01*
X130488467Y-71946342D02*
X130512276Y-71993961D01*
X145771976Y-60679990D02*
X145748167Y-60703800D01*
X145748167Y-60703800D02*
X145676738Y-60727609D01*
X145676738Y-60727609D02*
X145629119Y-60727609D01*
X145629119Y-60727609D02*
X145557691Y-60703800D01*
X145557691Y-60703800D02*
X145510072Y-60656180D01*
X145510072Y-60656180D02*
X145486262Y-60608561D01*
X145486262Y-60608561D02*
X145462453Y-60513323D01*
X145462453Y-60513323D02*
X145462453Y-60441895D01*
X145462453Y-60441895D02*
X145486262Y-60346657D01*
X145486262Y-60346657D02*
X145510072Y-60299038D01*
X145510072Y-60299038D02*
X145557691Y-60251419D01*
X145557691Y-60251419D02*
X145629119Y-60227609D01*
X145629119Y-60227609D02*
X145676738Y-60227609D01*
X145676738Y-60227609D02*
X145748167Y-60251419D01*
X145748167Y-60251419D02*
X145771976Y-60275228D01*
X145938643Y-60227609D02*
X146248167Y-60227609D01*
X146248167Y-60227609D02*
X146081500Y-60418085D01*
X146081500Y-60418085D02*
X146152929Y-60418085D01*
X146152929Y-60418085D02*
X146200548Y-60441895D01*
X146200548Y-60441895D02*
X146224357Y-60465704D01*
X146224357Y-60465704D02*
X146248167Y-60513323D01*
X146248167Y-60513323D02*
X146248167Y-60632371D01*
X146248167Y-60632371D02*
X146224357Y-60679990D01*
X146224357Y-60679990D02*
X146200548Y-60703800D01*
X146200548Y-60703800D02*
X146152929Y-60727609D01*
X146152929Y-60727609D02*
X146010072Y-60727609D01*
X146010072Y-60727609D02*
X145962453Y-60703800D01*
X145962453Y-60703800D02*
X145938643Y-60679990D01*
X141484562Y-62251609D02*
X141484562Y-61751609D01*
X141484562Y-61751609D02*
X141603610Y-61751609D01*
X141603610Y-61751609D02*
X141675038Y-61775419D01*
X141675038Y-61775419D02*
X141722657Y-61823038D01*
X141722657Y-61823038D02*
X141746467Y-61870657D01*
X141746467Y-61870657D02*
X141770276Y-61965895D01*
X141770276Y-61965895D02*
X141770276Y-62037323D01*
X141770276Y-62037323D02*
X141746467Y-62132561D01*
X141746467Y-62132561D02*
X141722657Y-62180180D01*
X141722657Y-62180180D02*
X141675038Y-62227800D01*
X141675038Y-62227800D02*
X141603610Y-62251609D01*
X141603610Y-62251609D02*
X141484562Y-62251609D01*
X142246467Y-62251609D02*
X141960753Y-62251609D01*
X142103610Y-62251609D02*
X142103610Y-61751609D01*
X142103610Y-61751609D02*
X142055991Y-61823038D01*
X142055991Y-61823038D02*
X142008372Y-61870657D01*
X142008372Y-61870657D02*
X141960753Y-61894466D01*
X146553781Y-95122390D02*
X146529972Y-95146200D01*
X146529972Y-95146200D02*
X146458543Y-95170009D01*
X146458543Y-95170009D02*
X146410924Y-95170009D01*
X146410924Y-95170009D02*
X146339496Y-95146200D01*
X146339496Y-95146200D02*
X146291877Y-95098580D01*
X146291877Y-95098580D02*
X146268067Y-95050961D01*
X146268067Y-95050961D02*
X146244258Y-94955723D01*
X146244258Y-94955723D02*
X146244258Y-94884295D01*
X146244258Y-94884295D02*
X146268067Y-94789057D01*
X146268067Y-94789057D02*
X146291877Y-94741438D01*
X146291877Y-94741438D02*
X146339496Y-94693819D01*
X146339496Y-94693819D02*
X146410924Y-94670009D01*
X146410924Y-94670009D02*
X146458543Y-94670009D01*
X146458543Y-94670009D02*
X146529972Y-94693819D01*
X146529972Y-94693819D02*
X146553781Y-94717628D01*
X146982353Y-94670009D02*
X146887115Y-94670009D01*
X146887115Y-94670009D02*
X146839496Y-94693819D01*
X146839496Y-94693819D02*
X146815686Y-94717628D01*
X146815686Y-94717628D02*
X146768067Y-94789057D01*
X146768067Y-94789057D02*
X146744258Y-94884295D01*
X146744258Y-94884295D02*
X146744258Y-95074771D01*
X146744258Y-95074771D02*
X146768067Y-95122390D01*
X146768067Y-95122390D02*
X146791877Y-95146200D01*
X146791877Y-95146200D02*
X146839496Y-95170009D01*
X146839496Y-95170009D02*
X146934734Y-95170009D01*
X146934734Y-95170009D02*
X146982353Y-95146200D01*
X146982353Y-95146200D02*
X147006162Y-95122390D01*
X147006162Y-95122390D02*
X147029972Y-95074771D01*
X147029972Y-95074771D02*
X147029972Y-94955723D01*
X147029972Y-94955723D02*
X147006162Y-94908104D01*
X147006162Y-94908104D02*
X146982353Y-94884295D01*
X146982353Y-94884295D02*
X146934734Y-94860485D01*
X146934734Y-94860485D02*
X146839496Y-94860485D01*
X146839496Y-94860485D02*
X146791877Y-94884295D01*
X146791877Y-94884295D02*
X146768067Y-94908104D01*
X146768067Y-94908104D02*
X146744258Y-94955723D01*
X147506162Y-95170009D02*
X147220448Y-95170009D01*
X147363305Y-95170009D02*
X147363305Y-94670009D01*
X147363305Y-94670009D02*
X147315686Y-94741438D01*
X147315686Y-94741438D02*
X147268067Y-94789057D01*
X147268067Y-94789057D02*
X147220448Y-94812866D01*
X122741571Y-105761809D02*
X122574905Y-105523714D01*
X122455857Y-105761809D02*
X122455857Y-105261809D01*
X122455857Y-105261809D02*
X122646333Y-105261809D01*
X122646333Y-105261809D02*
X122693952Y-105285619D01*
X122693952Y-105285619D02*
X122717762Y-105309428D01*
X122717762Y-105309428D02*
X122741571Y-105357047D01*
X122741571Y-105357047D02*
X122741571Y-105428476D01*
X122741571Y-105428476D02*
X122717762Y-105476095D01*
X122717762Y-105476095D02*
X122693952Y-105499904D01*
X122693952Y-105499904D02*
X122646333Y-105523714D01*
X122646333Y-105523714D02*
X122455857Y-105523714D01*
X122908238Y-105261809D02*
X123217762Y-105261809D01*
X123217762Y-105261809D02*
X123051095Y-105452285D01*
X123051095Y-105452285D02*
X123122524Y-105452285D01*
X123122524Y-105452285D02*
X123170143Y-105476095D01*
X123170143Y-105476095D02*
X123193952Y-105499904D01*
X123193952Y-105499904D02*
X123217762Y-105547523D01*
X123217762Y-105547523D02*
X123217762Y-105666571D01*
X123217762Y-105666571D02*
X123193952Y-105714190D01*
X123193952Y-105714190D02*
X123170143Y-105738000D01*
X123170143Y-105738000D02*
X123122524Y-105761809D01*
X123122524Y-105761809D02*
X122979667Y-105761809D01*
X122979667Y-105761809D02*
X122932048Y-105738000D01*
X122932048Y-105738000D02*
X122908238Y-105714190D01*
X123384428Y-105261809D02*
X123693952Y-105261809D01*
X123693952Y-105261809D02*
X123527285Y-105452285D01*
X123527285Y-105452285D02*
X123598714Y-105452285D01*
X123598714Y-105452285D02*
X123646333Y-105476095D01*
X123646333Y-105476095D02*
X123670142Y-105499904D01*
X123670142Y-105499904D02*
X123693952Y-105547523D01*
X123693952Y-105547523D02*
X123693952Y-105666571D01*
X123693952Y-105666571D02*
X123670142Y-105714190D01*
X123670142Y-105714190D02*
X123646333Y-105738000D01*
X123646333Y-105738000D02*
X123598714Y-105761809D01*
X123598714Y-105761809D02*
X123455857Y-105761809D01*
X123455857Y-105761809D02*
X123408238Y-105738000D01*
X123408238Y-105738000D02*
X123384428Y-105714190D01*
D10*
X122914580Y-84056457D02*
X122962200Y-84104076D01*
X122962200Y-84104076D02*
X123009819Y-84246933D01*
X123009819Y-84246933D02*
X123009819Y-84342171D01*
X123009819Y-84342171D02*
X122962200Y-84485028D01*
X122962200Y-84485028D02*
X122866961Y-84580266D01*
X122866961Y-84580266D02*
X122771723Y-84627885D01*
X122771723Y-84627885D02*
X122581247Y-84675504D01*
X122581247Y-84675504D02*
X122438390Y-84675504D01*
X122438390Y-84675504D02*
X122247914Y-84627885D01*
X122247914Y-84627885D02*
X122152676Y-84580266D01*
X122152676Y-84580266D02*
X122057438Y-84485028D01*
X122057438Y-84485028D02*
X122009819Y-84342171D01*
X122009819Y-84342171D02*
X122009819Y-84246933D01*
X122009819Y-84246933D02*
X122057438Y-84104076D01*
X122057438Y-84104076D02*
X122105057Y-84056457D01*
X123009819Y-83104076D02*
X123009819Y-83675504D01*
X123009819Y-83389790D02*
X122009819Y-83389790D01*
X122009819Y-83389790D02*
X122152676Y-83485028D01*
X122152676Y-83485028D02*
X122247914Y-83580266D01*
X122247914Y-83580266D02*
X122295533Y-83675504D01*
X122105057Y-82723123D02*
X122057438Y-82675504D01*
X122057438Y-82675504D02*
X122009819Y-82580266D01*
X122009819Y-82580266D02*
X122009819Y-82342171D01*
X122009819Y-82342171D02*
X122057438Y-82246933D01*
X122057438Y-82246933D02*
X122105057Y-82199314D01*
X122105057Y-82199314D02*
X122200295Y-82151695D01*
X122200295Y-82151695D02*
X122295533Y-82151695D01*
X122295533Y-82151695D02*
X122438390Y-82199314D01*
X122438390Y-82199314D02*
X123009819Y-82770742D01*
X123009819Y-82770742D02*
X123009819Y-82151695D01*
D11*
X140191371Y-71802009D02*
X140024705Y-71563914D01*
X139905657Y-71802009D02*
X139905657Y-71302009D01*
X139905657Y-71302009D02*
X140096133Y-71302009D01*
X140096133Y-71302009D02*
X140143752Y-71325819D01*
X140143752Y-71325819D02*
X140167562Y-71349628D01*
X140167562Y-71349628D02*
X140191371Y-71397247D01*
X140191371Y-71397247D02*
X140191371Y-71468676D01*
X140191371Y-71468676D02*
X140167562Y-71516295D01*
X140167562Y-71516295D02*
X140143752Y-71540104D01*
X140143752Y-71540104D02*
X140096133Y-71563914D01*
X140096133Y-71563914D02*
X139905657Y-71563914D01*
X140381848Y-71349628D02*
X140405657Y-71325819D01*
X140405657Y-71325819D02*
X140453276Y-71302009D01*
X140453276Y-71302009D02*
X140572324Y-71302009D01*
X140572324Y-71302009D02*
X140619943Y-71325819D01*
X140619943Y-71325819D02*
X140643752Y-71349628D01*
X140643752Y-71349628D02*
X140667562Y-71397247D01*
X140667562Y-71397247D02*
X140667562Y-71444866D01*
X140667562Y-71444866D02*
X140643752Y-71516295D01*
X140643752Y-71516295D02*
X140358038Y-71802009D01*
X140358038Y-71802009D02*
X140667562Y-71802009D01*
X141096133Y-71468676D02*
X141096133Y-71802009D01*
X140977085Y-71278200D02*
X140858038Y-71635342D01*
X140858038Y-71635342D02*
X141167561Y-71635342D01*
D12*
X104771480Y-63620952D02*
X104711004Y-63741904D01*
X104711004Y-63741904D02*
X104590052Y-63862857D01*
X104590052Y-63862857D02*
X104408623Y-64044285D01*
X104408623Y-64044285D02*
X104348147Y-64165238D01*
X104348147Y-64165238D02*
X104348147Y-64286190D01*
X104650528Y-64225714D02*
X104590052Y-64346666D01*
X104590052Y-64346666D02*
X104469099Y-64467619D01*
X104469099Y-64467619D02*
X104227194Y-64528095D01*
X104227194Y-64528095D02*
X103803861Y-64528095D01*
X103803861Y-64528095D02*
X103561956Y-64467619D01*
X103561956Y-64467619D02*
X103441004Y-64346666D01*
X103441004Y-64346666D02*
X103380528Y-64225714D01*
X103380528Y-64225714D02*
X103380528Y-63983809D01*
X103380528Y-63983809D02*
X103441004Y-63862857D01*
X103441004Y-63862857D02*
X103561956Y-63741904D01*
X103561956Y-63741904D02*
X103803861Y-63681428D01*
X103803861Y-63681428D02*
X104227194Y-63681428D01*
X104227194Y-63681428D02*
X104469099Y-63741904D01*
X104469099Y-63741904D02*
X104590052Y-63862857D01*
X104590052Y-63862857D02*
X104650528Y-63983809D01*
X104650528Y-63983809D02*
X104650528Y-64225714D01*
X103803861Y-62592857D02*
X104650528Y-62592857D01*
X103320052Y-62895238D02*
X104227194Y-63197619D01*
X104227194Y-63197619D02*
X104227194Y-62411428D01*
D11*
X117315466Y-98370409D02*
X117148800Y-98132314D01*
X117029752Y-98370409D02*
X117029752Y-97870409D01*
X117029752Y-97870409D02*
X117220228Y-97870409D01*
X117220228Y-97870409D02*
X117267847Y-97894219D01*
X117267847Y-97894219D02*
X117291657Y-97918028D01*
X117291657Y-97918028D02*
X117315466Y-97965647D01*
X117315466Y-97965647D02*
X117315466Y-98037076D01*
X117315466Y-98037076D02*
X117291657Y-98084695D01*
X117291657Y-98084695D02*
X117267847Y-98108504D01*
X117267847Y-98108504D02*
X117220228Y-98132314D01*
X117220228Y-98132314D02*
X117029752Y-98132314D01*
X117601181Y-98084695D02*
X117553562Y-98060885D01*
X117553562Y-98060885D02*
X117529752Y-98037076D01*
X117529752Y-98037076D02*
X117505943Y-97989457D01*
X117505943Y-97989457D02*
X117505943Y-97965647D01*
X117505943Y-97965647D02*
X117529752Y-97918028D01*
X117529752Y-97918028D02*
X117553562Y-97894219D01*
X117553562Y-97894219D02*
X117601181Y-97870409D01*
X117601181Y-97870409D02*
X117696419Y-97870409D01*
X117696419Y-97870409D02*
X117744038Y-97894219D01*
X117744038Y-97894219D02*
X117767847Y-97918028D01*
X117767847Y-97918028D02*
X117791657Y-97965647D01*
X117791657Y-97965647D02*
X117791657Y-97989457D01*
X117791657Y-97989457D02*
X117767847Y-98037076D01*
X117767847Y-98037076D02*
X117744038Y-98060885D01*
X117744038Y-98060885D02*
X117696419Y-98084695D01*
X117696419Y-98084695D02*
X117601181Y-98084695D01*
X117601181Y-98084695D02*
X117553562Y-98108504D01*
X117553562Y-98108504D02*
X117529752Y-98132314D01*
X117529752Y-98132314D02*
X117505943Y-98179933D01*
X117505943Y-98179933D02*
X117505943Y-98275171D01*
X117505943Y-98275171D02*
X117529752Y-98322790D01*
X117529752Y-98322790D02*
X117553562Y-98346600D01*
X117553562Y-98346600D02*
X117601181Y-98370409D01*
X117601181Y-98370409D02*
X117696419Y-98370409D01*
X117696419Y-98370409D02*
X117744038Y-98346600D01*
X117744038Y-98346600D02*
X117767847Y-98322790D01*
X117767847Y-98322790D02*
X117791657Y-98275171D01*
X117791657Y-98275171D02*
X117791657Y-98179933D01*
X117791657Y-98179933D02*
X117767847Y-98132314D01*
X117767847Y-98132314D02*
X117744038Y-98108504D01*
X117744038Y-98108504D02*
X117696419Y-98084695D01*
X120747381Y-61746790D02*
X120723572Y-61770600D01*
X120723572Y-61770600D02*
X120652143Y-61794409D01*
X120652143Y-61794409D02*
X120604524Y-61794409D01*
X120604524Y-61794409D02*
X120533096Y-61770600D01*
X120533096Y-61770600D02*
X120485477Y-61722980D01*
X120485477Y-61722980D02*
X120461667Y-61675361D01*
X120461667Y-61675361D02*
X120437858Y-61580123D01*
X120437858Y-61580123D02*
X120437858Y-61508695D01*
X120437858Y-61508695D02*
X120461667Y-61413457D01*
X120461667Y-61413457D02*
X120485477Y-61365838D01*
X120485477Y-61365838D02*
X120533096Y-61318219D01*
X120533096Y-61318219D02*
X120604524Y-61294409D01*
X120604524Y-61294409D02*
X120652143Y-61294409D01*
X120652143Y-61294409D02*
X120723572Y-61318219D01*
X120723572Y-61318219D02*
X120747381Y-61342028D01*
X120937858Y-61342028D02*
X120961667Y-61318219D01*
X120961667Y-61318219D02*
X121009286Y-61294409D01*
X121009286Y-61294409D02*
X121128334Y-61294409D01*
X121128334Y-61294409D02*
X121175953Y-61318219D01*
X121175953Y-61318219D02*
X121199762Y-61342028D01*
X121199762Y-61342028D02*
X121223572Y-61389647D01*
X121223572Y-61389647D02*
X121223572Y-61437266D01*
X121223572Y-61437266D02*
X121199762Y-61508695D01*
X121199762Y-61508695D02*
X120914048Y-61794409D01*
X120914048Y-61794409D02*
X121223572Y-61794409D01*
X121414048Y-61342028D02*
X121437857Y-61318219D01*
X121437857Y-61318219D02*
X121485476Y-61294409D01*
X121485476Y-61294409D02*
X121604524Y-61294409D01*
X121604524Y-61294409D02*
X121652143Y-61318219D01*
X121652143Y-61318219D02*
X121675952Y-61342028D01*
X121675952Y-61342028D02*
X121699762Y-61389647D01*
X121699762Y-61389647D02*
X121699762Y-61437266D01*
X121699762Y-61437266D02*
X121675952Y-61508695D01*
X121675952Y-61508695D02*
X121390238Y-61794409D01*
X121390238Y-61794409D02*
X121699762Y-61794409D01*
X116899571Y-105812609D02*
X116732905Y-105574514D01*
X116613857Y-105812609D02*
X116613857Y-105312609D01*
X116613857Y-105312609D02*
X116804333Y-105312609D01*
X116804333Y-105312609D02*
X116851952Y-105336419D01*
X116851952Y-105336419D02*
X116875762Y-105360228D01*
X116875762Y-105360228D02*
X116899571Y-105407847D01*
X116899571Y-105407847D02*
X116899571Y-105479276D01*
X116899571Y-105479276D02*
X116875762Y-105526895D01*
X116875762Y-105526895D02*
X116851952Y-105550704D01*
X116851952Y-105550704D02*
X116804333Y-105574514D01*
X116804333Y-105574514D02*
X116613857Y-105574514D01*
X117066238Y-105312609D02*
X117375762Y-105312609D01*
X117375762Y-105312609D02*
X117209095Y-105503085D01*
X117209095Y-105503085D02*
X117280524Y-105503085D01*
X117280524Y-105503085D02*
X117328143Y-105526895D01*
X117328143Y-105526895D02*
X117351952Y-105550704D01*
X117351952Y-105550704D02*
X117375762Y-105598323D01*
X117375762Y-105598323D02*
X117375762Y-105717371D01*
X117375762Y-105717371D02*
X117351952Y-105764990D01*
X117351952Y-105764990D02*
X117328143Y-105788800D01*
X117328143Y-105788800D02*
X117280524Y-105812609D01*
X117280524Y-105812609D02*
X117137667Y-105812609D01*
X117137667Y-105812609D02*
X117090048Y-105788800D01*
X117090048Y-105788800D02*
X117066238Y-105764990D01*
X117828142Y-105312609D02*
X117590047Y-105312609D01*
X117590047Y-105312609D02*
X117566238Y-105550704D01*
X117566238Y-105550704D02*
X117590047Y-105526895D01*
X117590047Y-105526895D02*
X117637666Y-105503085D01*
X117637666Y-105503085D02*
X117756714Y-105503085D01*
X117756714Y-105503085D02*
X117804333Y-105526895D01*
X117804333Y-105526895D02*
X117828142Y-105550704D01*
X117828142Y-105550704D02*
X117851952Y-105598323D01*
X117851952Y-105598323D02*
X117851952Y-105717371D01*
X117851952Y-105717371D02*
X117828142Y-105764990D01*
X117828142Y-105764990D02*
X117804333Y-105788800D01*
X117804333Y-105788800D02*
X117756714Y-105812609D01*
X117756714Y-105812609D02*
X117637666Y-105812609D01*
X117637666Y-105812609D02*
X117590047Y-105788800D01*
X117590047Y-105788800D02*
X117566238Y-105764990D01*
X130386971Y-86841990D02*
X130363162Y-86865800D01*
X130363162Y-86865800D02*
X130291733Y-86889609D01*
X130291733Y-86889609D02*
X130244114Y-86889609D01*
X130244114Y-86889609D02*
X130172686Y-86865800D01*
X130172686Y-86865800D02*
X130125067Y-86818180D01*
X130125067Y-86818180D02*
X130101257Y-86770561D01*
X130101257Y-86770561D02*
X130077448Y-86675323D01*
X130077448Y-86675323D02*
X130077448Y-86603895D01*
X130077448Y-86603895D02*
X130101257Y-86508657D01*
X130101257Y-86508657D02*
X130125067Y-86461038D01*
X130125067Y-86461038D02*
X130172686Y-86413419D01*
X130172686Y-86413419D02*
X130244114Y-86389609D01*
X130244114Y-86389609D02*
X130291733Y-86389609D01*
X130291733Y-86389609D02*
X130363162Y-86413419D01*
X130363162Y-86413419D02*
X130386971Y-86437228D01*
X130863162Y-86889609D02*
X130577448Y-86889609D01*
X130720305Y-86889609D02*
X130720305Y-86389609D01*
X130720305Y-86389609D02*
X130672686Y-86461038D01*
X130672686Y-86461038D02*
X130625067Y-86508657D01*
X130625067Y-86508657D02*
X130577448Y-86532466D01*
X131291733Y-86556276D02*
X131291733Y-86889609D01*
X131172685Y-86365800D02*
X131053638Y-86722942D01*
X131053638Y-86722942D02*
X131363161Y-86722942D01*
X116710581Y-57885990D02*
X116686772Y-57909800D01*
X116686772Y-57909800D02*
X116615343Y-57933609D01*
X116615343Y-57933609D02*
X116567724Y-57933609D01*
X116567724Y-57933609D02*
X116496296Y-57909800D01*
X116496296Y-57909800D02*
X116448677Y-57862180D01*
X116448677Y-57862180D02*
X116424867Y-57814561D01*
X116424867Y-57814561D02*
X116401058Y-57719323D01*
X116401058Y-57719323D02*
X116401058Y-57647895D01*
X116401058Y-57647895D02*
X116424867Y-57552657D01*
X116424867Y-57552657D02*
X116448677Y-57505038D01*
X116448677Y-57505038D02*
X116496296Y-57457419D01*
X116496296Y-57457419D02*
X116567724Y-57433609D01*
X116567724Y-57433609D02*
X116615343Y-57433609D01*
X116615343Y-57433609D02*
X116686772Y-57457419D01*
X116686772Y-57457419D02*
X116710581Y-57481228D01*
X117139153Y-57600276D02*
X117139153Y-57933609D01*
X117020105Y-57409800D02*
X116901058Y-57766942D01*
X116901058Y-57766942D02*
X117210581Y-57766942D01*
X117496295Y-57433609D02*
X117543914Y-57433609D01*
X117543914Y-57433609D02*
X117591533Y-57457419D01*
X117591533Y-57457419D02*
X117615343Y-57481228D01*
X117615343Y-57481228D02*
X117639152Y-57528847D01*
X117639152Y-57528847D02*
X117662962Y-57624085D01*
X117662962Y-57624085D02*
X117662962Y-57743133D01*
X117662962Y-57743133D02*
X117639152Y-57838371D01*
X117639152Y-57838371D02*
X117615343Y-57885990D01*
X117615343Y-57885990D02*
X117591533Y-57909800D01*
X117591533Y-57909800D02*
X117543914Y-57933609D01*
X117543914Y-57933609D02*
X117496295Y-57933609D01*
X117496295Y-57933609D02*
X117448676Y-57909800D01*
X117448676Y-57909800D02*
X117424867Y-57885990D01*
X117424867Y-57885990D02*
X117401057Y-57838371D01*
X117401057Y-57838371D02*
X117377248Y-57743133D01*
X117377248Y-57743133D02*
X117377248Y-57624085D01*
X117377248Y-57624085D02*
X117401057Y-57528847D01*
X117401057Y-57528847D02*
X117424867Y-57481228D01*
X117424867Y-57481228D02*
X117448676Y-57457419D01*
X117448676Y-57457419D02*
X117496295Y-57433609D01*
X140940381Y-75256409D02*
X140773715Y-75018314D01*
X140654667Y-75256409D02*
X140654667Y-74756409D01*
X140654667Y-74756409D02*
X140845143Y-74756409D01*
X140845143Y-74756409D02*
X140892762Y-74780219D01*
X140892762Y-74780219D02*
X140916572Y-74804028D01*
X140916572Y-74804028D02*
X140940381Y-74851647D01*
X140940381Y-74851647D02*
X140940381Y-74923076D01*
X140940381Y-74923076D02*
X140916572Y-74970695D01*
X140916572Y-74970695D02*
X140892762Y-74994504D01*
X140892762Y-74994504D02*
X140845143Y-75018314D01*
X140845143Y-75018314D02*
X140654667Y-75018314D01*
X141130858Y-74804028D02*
X141154667Y-74780219D01*
X141154667Y-74780219D02*
X141202286Y-74756409D01*
X141202286Y-74756409D02*
X141321334Y-74756409D01*
X141321334Y-74756409D02*
X141368953Y-74780219D01*
X141368953Y-74780219D02*
X141392762Y-74804028D01*
X141392762Y-74804028D02*
X141416572Y-74851647D01*
X141416572Y-74851647D02*
X141416572Y-74899266D01*
X141416572Y-74899266D02*
X141392762Y-74970695D01*
X141392762Y-74970695D02*
X141107048Y-75256409D01*
X141107048Y-75256409D02*
X141416572Y-75256409D01*
X141583238Y-74756409D02*
X141916571Y-74756409D01*
X141916571Y-74756409D02*
X141702286Y-75256409D01*
X157568000Y-91151828D02*
X157591810Y-91175637D01*
X157591810Y-91175637D02*
X157615619Y-91247066D01*
X157615619Y-91247066D02*
X157615619Y-91294685D01*
X157615619Y-91294685D02*
X157591810Y-91366113D01*
X157591810Y-91366113D02*
X157544190Y-91413732D01*
X157544190Y-91413732D02*
X157496571Y-91437542D01*
X157496571Y-91437542D02*
X157401333Y-91461351D01*
X157401333Y-91461351D02*
X157329905Y-91461351D01*
X157329905Y-91461351D02*
X157234667Y-91437542D01*
X157234667Y-91437542D02*
X157187048Y-91413732D01*
X157187048Y-91413732D02*
X157139429Y-91366113D01*
X157139429Y-91366113D02*
X157115619Y-91294685D01*
X157115619Y-91294685D02*
X157115619Y-91247066D01*
X157115619Y-91247066D02*
X157139429Y-91175637D01*
X157139429Y-91175637D02*
X157163238Y-91151828D01*
X157115619Y-90723256D02*
X157115619Y-90818494D01*
X157115619Y-90818494D02*
X157139429Y-90866113D01*
X157139429Y-90866113D02*
X157163238Y-90889923D01*
X157163238Y-90889923D02*
X157234667Y-90937542D01*
X157234667Y-90937542D02*
X157329905Y-90961351D01*
X157329905Y-90961351D02*
X157520381Y-90961351D01*
X157520381Y-90961351D02*
X157568000Y-90937542D01*
X157568000Y-90937542D02*
X157591810Y-90913732D01*
X157591810Y-90913732D02*
X157615619Y-90866113D01*
X157615619Y-90866113D02*
X157615619Y-90770875D01*
X157615619Y-90770875D02*
X157591810Y-90723256D01*
X157591810Y-90723256D02*
X157568000Y-90699447D01*
X157568000Y-90699447D02*
X157520381Y-90675637D01*
X157520381Y-90675637D02*
X157401333Y-90675637D01*
X157401333Y-90675637D02*
X157353714Y-90699447D01*
X157353714Y-90699447D02*
X157329905Y-90723256D01*
X157329905Y-90723256D02*
X157306095Y-90770875D01*
X157306095Y-90770875D02*
X157306095Y-90866113D01*
X157306095Y-90866113D02*
X157329905Y-90913732D01*
X157329905Y-90913732D02*
X157353714Y-90937542D01*
X157353714Y-90937542D02*
X157401333Y-90961351D01*
X157163238Y-90485161D02*
X157139429Y-90461352D01*
X157139429Y-90461352D02*
X157115619Y-90413733D01*
X157115619Y-90413733D02*
X157115619Y-90294685D01*
X157115619Y-90294685D02*
X157139429Y-90247066D01*
X157139429Y-90247066D02*
X157163238Y-90223257D01*
X157163238Y-90223257D02*
X157210857Y-90199447D01*
X157210857Y-90199447D02*
X157258476Y-90199447D01*
X157258476Y-90199447D02*
X157329905Y-90223257D01*
X157329905Y-90223257D02*
X157615619Y-90508971D01*
X157615619Y-90508971D02*
X157615619Y-90199447D01*
X132955400Y-92066228D02*
X132979210Y-92090037D01*
X132979210Y-92090037D02*
X133003019Y-92161466D01*
X133003019Y-92161466D02*
X133003019Y-92209085D01*
X133003019Y-92209085D02*
X132979210Y-92280513D01*
X132979210Y-92280513D02*
X132931590Y-92328132D01*
X132931590Y-92328132D02*
X132883971Y-92351942D01*
X132883971Y-92351942D02*
X132788733Y-92375751D01*
X132788733Y-92375751D02*
X132717305Y-92375751D01*
X132717305Y-92375751D02*
X132622067Y-92351942D01*
X132622067Y-92351942D02*
X132574448Y-92328132D01*
X132574448Y-92328132D02*
X132526829Y-92280513D01*
X132526829Y-92280513D02*
X132503019Y-92209085D01*
X132503019Y-92209085D02*
X132503019Y-92161466D01*
X132503019Y-92161466D02*
X132526829Y-92090037D01*
X132526829Y-92090037D02*
X132550638Y-92066228D01*
X132550638Y-91875751D02*
X132526829Y-91851942D01*
X132526829Y-91851942D02*
X132503019Y-91804323D01*
X132503019Y-91804323D02*
X132503019Y-91685275D01*
X132503019Y-91685275D02*
X132526829Y-91637656D01*
X132526829Y-91637656D02*
X132550638Y-91613847D01*
X132550638Y-91613847D02*
X132598257Y-91590037D01*
X132598257Y-91590037D02*
X132645876Y-91590037D01*
X132645876Y-91590037D02*
X132717305Y-91613847D01*
X132717305Y-91613847D02*
X133003019Y-91899561D01*
X133003019Y-91899561D02*
X133003019Y-91590037D01*
X132503019Y-91161466D02*
X132503019Y-91256704D01*
X132503019Y-91256704D02*
X132526829Y-91304323D01*
X132526829Y-91304323D02*
X132550638Y-91328133D01*
X132550638Y-91328133D02*
X132622067Y-91375752D01*
X132622067Y-91375752D02*
X132717305Y-91399561D01*
X132717305Y-91399561D02*
X132907781Y-91399561D01*
X132907781Y-91399561D02*
X132955400Y-91375752D01*
X132955400Y-91375752D02*
X132979210Y-91351942D01*
X132979210Y-91351942D02*
X133003019Y-91304323D01*
X133003019Y-91304323D02*
X133003019Y-91209085D01*
X133003019Y-91209085D02*
X132979210Y-91161466D01*
X132979210Y-91161466D02*
X132955400Y-91137657D01*
X132955400Y-91137657D02*
X132907781Y-91113847D01*
X132907781Y-91113847D02*
X132788733Y-91113847D01*
X132788733Y-91113847D02*
X132741114Y-91137657D01*
X132741114Y-91137657D02*
X132717305Y-91161466D01*
X132717305Y-91161466D02*
X132693495Y-91209085D01*
X132693495Y-91209085D02*
X132693495Y-91304323D01*
X132693495Y-91304323D02*
X132717305Y-91351942D01*
X132717305Y-91351942D02*
X132741114Y-91375752D01*
X132741114Y-91375752D02*
X132788733Y-91399561D01*
X142988400Y-78858228D02*
X143012210Y-78882037D01*
X143012210Y-78882037D02*
X143036019Y-78953466D01*
X143036019Y-78953466D02*
X143036019Y-79001085D01*
X143036019Y-79001085D02*
X143012210Y-79072513D01*
X143012210Y-79072513D02*
X142964590Y-79120132D01*
X142964590Y-79120132D02*
X142916971Y-79143942D01*
X142916971Y-79143942D02*
X142821733Y-79167751D01*
X142821733Y-79167751D02*
X142750305Y-79167751D01*
X142750305Y-79167751D02*
X142655067Y-79143942D01*
X142655067Y-79143942D02*
X142607448Y-79120132D01*
X142607448Y-79120132D02*
X142559829Y-79072513D01*
X142559829Y-79072513D02*
X142536019Y-79001085D01*
X142536019Y-79001085D02*
X142536019Y-78953466D01*
X142536019Y-78953466D02*
X142559829Y-78882037D01*
X142559829Y-78882037D02*
X142583638Y-78858228D01*
X142536019Y-78691561D02*
X142536019Y-78382037D01*
X142536019Y-78382037D02*
X142726495Y-78548704D01*
X142726495Y-78548704D02*
X142726495Y-78477275D01*
X142726495Y-78477275D02*
X142750305Y-78429656D01*
X142750305Y-78429656D02*
X142774114Y-78405847D01*
X142774114Y-78405847D02*
X142821733Y-78382037D01*
X142821733Y-78382037D02*
X142940781Y-78382037D01*
X142940781Y-78382037D02*
X142988400Y-78405847D01*
X142988400Y-78405847D02*
X143012210Y-78429656D01*
X143012210Y-78429656D02*
X143036019Y-78477275D01*
X143036019Y-78477275D02*
X143036019Y-78620132D01*
X143036019Y-78620132D02*
X143012210Y-78667751D01*
X143012210Y-78667751D02*
X142988400Y-78691561D01*
X142536019Y-78215371D02*
X142536019Y-77905847D01*
X142536019Y-77905847D02*
X142726495Y-78072514D01*
X142726495Y-78072514D02*
X142726495Y-78001085D01*
X142726495Y-78001085D02*
X142750305Y-77953466D01*
X142750305Y-77953466D02*
X142774114Y-77929657D01*
X142774114Y-77929657D02*
X142821733Y-77905847D01*
X142821733Y-77905847D02*
X142940781Y-77905847D01*
X142940781Y-77905847D02*
X142988400Y-77929657D01*
X142988400Y-77929657D02*
X143012210Y-77953466D01*
X143012210Y-77953466D02*
X143036019Y-78001085D01*
X143036019Y-78001085D02*
X143036019Y-78143942D01*
X143036019Y-78143942D02*
X143012210Y-78191561D01*
X143012210Y-78191561D02*
X142988400Y-78215371D01*
D10*
X136621190Y-90406457D02*
X136668810Y-90454076D01*
X136668810Y-90454076D02*
X136716429Y-90596933D01*
X136716429Y-90596933D02*
X136716429Y-90692171D01*
X136716429Y-90692171D02*
X136668810Y-90835028D01*
X136668810Y-90835028D02*
X136573571Y-90930266D01*
X136573571Y-90930266D02*
X136478333Y-90977885D01*
X136478333Y-90977885D02*
X136287857Y-91025504D01*
X136287857Y-91025504D02*
X136145000Y-91025504D01*
X136145000Y-91025504D02*
X135954524Y-90977885D01*
X135954524Y-90977885D02*
X135859286Y-90930266D01*
X135859286Y-90930266D02*
X135764048Y-90835028D01*
X135764048Y-90835028D02*
X135716429Y-90692171D01*
X135716429Y-90692171D02*
X135716429Y-90596933D01*
X135716429Y-90596933D02*
X135764048Y-90454076D01*
X135764048Y-90454076D02*
X135811667Y-90406457D01*
X135811667Y-90025504D02*
X135764048Y-89977885D01*
X135764048Y-89977885D02*
X135716429Y-89882647D01*
X135716429Y-89882647D02*
X135716429Y-89644552D01*
X135716429Y-89644552D02*
X135764048Y-89549314D01*
X135764048Y-89549314D02*
X135811667Y-89501695D01*
X135811667Y-89501695D02*
X135906905Y-89454076D01*
X135906905Y-89454076D02*
X136002143Y-89454076D01*
X136002143Y-89454076D02*
X136145000Y-89501695D01*
X136145000Y-89501695D02*
X136716429Y-90073123D01*
X136716429Y-90073123D02*
X136716429Y-89454076D01*
X135716429Y-89120742D02*
X135716429Y-88454076D01*
X135716429Y-88454076D02*
X136716429Y-88882647D01*
X148914029Y-65916133D02*
X149628314Y-65916133D01*
X149628314Y-65916133D02*
X149771171Y-65963752D01*
X149771171Y-65963752D02*
X149866410Y-66058990D01*
X149866410Y-66058990D02*
X149914029Y-66201847D01*
X149914029Y-66201847D02*
X149914029Y-66297085D01*
X149342600Y-65297085D02*
X149294981Y-65392323D01*
X149294981Y-65392323D02*
X149247362Y-65439942D01*
X149247362Y-65439942D02*
X149152124Y-65487561D01*
X149152124Y-65487561D02*
X149104505Y-65487561D01*
X149104505Y-65487561D02*
X149009267Y-65439942D01*
X149009267Y-65439942D02*
X148961648Y-65392323D01*
X148961648Y-65392323D02*
X148914029Y-65297085D01*
X148914029Y-65297085D02*
X148914029Y-65106609D01*
X148914029Y-65106609D02*
X148961648Y-65011371D01*
X148961648Y-65011371D02*
X149009267Y-64963752D01*
X149009267Y-64963752D02*
X149104505Y-64916133D01*
X149104505Y-64916133D02*
X149152124Y-64916133D01*
X149152124Y-64916133D02*
X149247362Y-64963752D01*
X149247362Y-64963752D02*
X149294981Y-65011371D01*
X149294981Y-65011371D02*
X149342600Y-65106609D01*
X149342600Y-65106609D02*
X149342600Y-65297085D01*
X149342600Y-65297085D02*
X149390219Y-65392323D01*
X149390219Y-65392323D02*
X149437838Y-65439942D01*
X149437838Y-65439942D02*
X149533076Y-65487561D01*
X149533076Y-65487561D02*
X149723552Y-65487561D01*
X149723552Y-65487561D02*
X149818790Y-65439942D01*
X149818790Y-65439942D02*
X149866410Y-65392323D01*
X149866410Y-65392323D02*
X149914029Y-65297085D01*
X149914029Y-65297085D02*
X149914029Y-65106609D01*
X149914029Y-65106609D02*
X149866410Y-65011371D01*
X149866410Y-65011371D02*
X149818790Y-64963752D01*
X149818790Y-64963752D02*
X149723552Y-64916133D01*
X149723552Y-64916133D02*
X149533076Y-64916133D01*
X149533076Y-64916133D02*
X149437838Y-64963752D01*
X149437838Y-64963752D02*
X149390219Y-65011371D01*
X149390219Y-65011371D02*
X149342600Y-65106609D01*
D11*
X131453771Y-105761809D02*
X131287105Y-105523714D01*
X131168057Y-105761809D02*
X131168057Y-105261809D01*
X131168057Y-105261809D02*
X131358533Y-105261809D01*
X131358533Y-105261809D02*
X131406152Y-105285619D01*
X131406152Y-105285619D02*
X131429962Y-105309428D01*
X131429962Y-105309428D02*
X131453771Y-105357047D01*
X131453771Y-105357047D02*
X131453771Y-105428476D01*
X131453771Y-105428476D02*
X131429962Y-105476095D01*
X131429962Y-105476095D02*
X131406152Y-105499904D01*
X131406152Y-105499904D02*
X131358533Y-105523714D01*
X131358533Y-105523714D02*
X131168057Y-105523714D01*
X131644248Y-105309428D02*
X131668057Y-105285619D01*
X131668057Y-105285619D02*
X131715676Y-105261809D01*
X131715676Y-105261809D02*
X131834724Y-105261809D01*
X131834724Y-105261809D02*
X131882343Y-105285619D01*
X131882343Y-105285619D02*
X131906152Y-105309428D01*
X131906152Y-105309428D02*
X131929962Y-105357047D01*
X131929962Y-105357047D02*
X131929962Y-105404666D01*
X131929962Y-105404666D02*
X131906152Y-105476095D01*
X131906152Y-105476095D02*
X131620438Y-105761809D01*
X131620438Y-105761809D02*
X131929962Y-105761809D01*
X132358533Y-105261809D02*
X132263295Y-105261809D01*
X132263295Y-105261809D02*
X132215676Y-105285619D01*
X132215676Y-105285619D02*
X132191866Y-105309428D01*
X132191866Y-105309428D02*
X132144247Y-105380857D01*
X132144247Y-105380857D02*
X132120438Y-105476095D01*
X132120438Y-105476095D02*
X132120438Y-105666571D01*
X132120438Y-105666571D02*
X132144247Y-105714190D01*
X132144247Y-105714190D02*
X132168057Y-105738000D01*
X132168057Y-105738000D02*
X132215676Y-105761809D01*
X132215676Y-105761809D02*
X132310914Y-105761809D01*
X132310914Y-105761809D02*
X132358533Y-105738000D01*
X132358533Y-105738000D02*
X132382342Y-105714190D01*
X132382342Y-105714190D02*
X132406152Y-105666571D01*
X132406152Y-105666571D02*
X132406152Y-105547523D01*
X132406152Y-105547523D02*
X132382342Y-105499904D01*
X132382342Y-105499904D02*
X132358533Y-105476095D01*
X132358533Y-105476095D02*
X132310914Y-105452285D01*
X132310914Y-105452285D02*
X132215676Y-105452285D01*
X132215676Y-105452285D02*
X132168057Y-105476095D01*
X132168057Y-105476095D02*
X132144247Y-105499904D01*
X132144247Y-105499904D02*
X132120438Y-105547523D01*
X154189800Y-89272228D02*
X154213610Y-89296037D01*
X154213610Y-89296037D02*
X154237419Y-89367466D01*
X154237419Y-89367466D02*
X154237419Y-89415085D01*
X154237419Y-89415085D02*
X154213610Y-89486513D01*
X154213610Y-89486513D02*
X154165990Y-89534132D01*
X154165990Y-89534132D02*
X154118371Y-89557942D01*
X154118371Y-89557942D02*
X154023133Y-89581751D01*
X154023133Y-89581751D02*
X153951705Y-89581751D01*
X153951705Y-89581751D02*
X153856467Y-89557942D01*
X153856467Y-89557942D02*
X153808848Y-89534132D01*
X153808848Y-89534132D02*
X153761229Y-89486513D01*
X153761229Y-89486513D02*
X153737419Y-89415085D01*
X153737419Y-89415085D02*
X153737419Y-89367466D01*
X153737419Y-89367466D02*
X153761229Y-89296037D01*
X153761229Y-89296037D02*
X153785038Y-89272228D01*
X153904086Y-88843656D02*
X154237419Y-88843656D01*
X153713610Y-88962704D02*
X154070752Y-89081751D01*
X154070752Y-89081751D02*
X154070752Y-88772228D01*
X154237419Y-88319847D02*
X154237419Y-88605561D01*
X154237419Y-88462704D02*
X153737419Y-88462704D01*
X153737419Y-88462704D02*
X153808848Y-88510323D01*
X153808848Y-88510323D02*
X153856467Y-88557942D01*
X153856467Y-88557942D02*
X153880276Y-88605561D01*
D10*
X118546352Y-75410219D02*
X118213019Y-74934028D01*
X117974924Y-75410219D02*
X117974924Y-74410219D01*
X117974924Y-74410219D02*
X118355876Y-74410219D01*
X118355876Y-74410219D02*
X118451114Y-74457838D01*
X118451114Y-74457838D02*
X118498733Y-74505457D01*
X118498733Y-74505457D02*
X118546352Y-74600695D01*
X118546352Y-74600695D02*
X118546352Y-74743552D01*
X118546352Y-74743552D02*
X118498733Y-74838790D01*
X118498733Y-74838790D02*
X118451114Y-74886409D01*
X118451114Y-74886409D02*
X118355876Y-74934028D01*
X118355876Y-74934028D02*
X117974924Y-74934028D01*
X119498733Y-75410219D02*
X118927305Y-75410219D01*
X119213019Y-75410219D02*
X119213019Y-74410219D01*
X119213019Y-74410219D02*
X119117781Y-74553076D01*
X119117781Y-74553076D02*
X119022543Y-74648314D01*
X119022543Y-74648314D02*
X118927305Y-74695933D01*
X120070162Y-74838790D02*
X119974924Y-74791171D01*
X119974924Y-74791171D02*
X119927305Y-74743552D01*
X119927305Y-74743552D02*
X119879686Y-74648314D01*
X119879686Y-74648314D02*
X119879686Y-74600695D01*
X119879686Y-74600695D02*
X119927305Y-74505457D01*
X119927305Y-74505457D02*
X119974924Y-74457838D01*
X119974924Y-74457838D02*
X120070162Y-74410219D01*
X120070162Y-74410219D02*
X120260638Y-74410219D01*
X120260638Y-74410219D02*
X120355876Y-74457838D01*
X120355876Y-74457838D02*
X120403495Y-74505457D01*
X120403495Y-74505457D02*
X120451114Y-74600695D01*
X120451114Y-74600695D02*
X120451114Y-74648314D01*
X120451114Y-74648314D02*
X120403495Y-74743552D01*
X120403495Y-74743552D02*
X120355876Y-74791171D01*
X120355876Y-74791171D02*
X120260638Y-74838790D01*
X120260638Y-74838790D02*
X120070162Y-74838790D01*
X120070162Y-74838790D02*
X119974924Y-74886409D01*
X119974924Y-74886409D02*
X119927305Y-74934028D01*
X119927305Y-74934028D02*
X119879686Y-75029266D01*
X119879686Y-75029266D02*
X119879686Y-75219742D01*
X119879686Y-75219742D02*
X119927305Y-75314980D01*
X119927305Y-75314980D02*
X119974924Y-75362600D01*
X119974924Y-75362600D02*
X120070162Y-75410219D01*
X120070162Y-75410219D02*
X120260638Y-75410219D01*
X120260638Y-75410219D02*
X120355876Y-75362600D01*
X120355876Y-75362600D02*
X120403495Y-75314980D01*
X120403495Y-75314980D02*
X120451114Y-75219742D01*
X120451114Y-75219742D02*
X120451114Y-75029266D01*
X120451114Y-75029266D02*
X120403495Y-74934028D01*
X120403495Y-74934028D02*
X120355876Y-74886409D01*
X120355876Y-74886409D02*
X120260638Y-74838790D01*
D11*
X135746371Y-70125609D02*
X135579705Y-69887514D01*
X135460657Y-70125609D02*
X135460657Y-69625609D01*
X135460657Y-69625609D02*
X135651133Y-69625609D01*
X135651133Y-69625609D02*
X135698752Y-69649419D01*
X135698752Y-69649419D02*
X135722562Y-69673228D01*
X135722562Y-69673228D02*
X135746371Y-69720847D01*
X135746371Y-69720847D02*
X135746371Y-69792276D01*
X135746371Y-69792276D02*
X135722562Y-69839895D01*
X135722562Y-69839895D02*
X135698752Y-69863704D01*
X135698752Y-69863704D02*
X135651133Y-69887514D01*
X135651133Y-69887514D02*
X135460657Y-69887514D01*
X135936848Y-69673228D02*
X135960657Y-69649419D01*
X135960657Y-69649419D02*
X136008276Y-69625609D01*
X136008276Y-69625609D02*
X136127324Y-69625609D01*
X136127324Y-69625609D02*
X136174943Y-69649419D01*
X136174943Y-69649419D02*
X136198752Y-69673228D01*
X136198752Y-69673228D02*
X136222562Y-69720847D01*
X136222562Y-69720847D02*
X136222562Y-69768466D01*
X136222562Y-69768466D02*
X136198752Y-69839895D01*
X136198752Y-69839895D02*
X135913038Y-70125609D01*
X135913038Y-70125609D02*
X136222562Y-70125609D01*
X136674942Y-69625609D02*
X136436847Y-69625609D01*
X136436847Y-69625609D02*
X136413038Y-69863704D01*
X136413038Y-69863704D02*
X136436847Y-69839895D01*
X136436847Y-69839895D02*
X136484466Y-69816085D01*
X136484466Y-69816085D02*
X136603514Y-69816085D01*
X136603514Y-69816085D02*
X136651133Y-69839895D01*
X136651133Y-69839895D02*
X136674942Y-69863704D01*
X136674942Y-69863704D02*
X136698752Y-69911323D01*
X136698752Y-69911323D02*
X136698752Y-70030371D01*
X136698752Y-70030371D02*
X136674942Y-70077990D01*
X136674942Y-70077990D02*
X136651133Y-70101800D01*
X136651133Y-70101800D02*
X136603514Y-70125609D01*
X136603514Y-70125609D02*
X136484466Y-70125609D01*
X136484466Y-70125609D02*
X136436847Y-70101800D01*
X136436847Y-70101800D02*
X136413038Y-70077990D01*
X118664581Y-60626009D02*
X118497915Y-60387914D01*
X118378867Y-60626009D02*
X118378867Y-60126009D01*
X118378867Y-60126009D02*
X118569343Y-60126009D01*
X118569343Y-60126009D02*
X118616962Y-60149819D01*
X118616962Y-60149819D02*
X118640772Y-60173628D01*
X118640772Y-60173628D02*
X118664581Y-60221247D01*
X118664581Y-60221247D02*
X118664581Y-60292676D01*
X118664581Y-60292676D02*
X118640772Y-60340295D01*
X118640772Y-60340295D02*
X118616962Y-60364104D01*
X118616962Y-60364104D02*
X118569343Y-60387914D01*
X118569343Y-60387914D02*
X118378867Y-60387914D01*
X118855058Y-60173628D02*
X118878867Y-60149819D01*
X118878867Y-60149819D02*
X118926486Y-60126009D01*
X118926486Y-60126009D02*
X119045534Y-60126009D01*
X119045534Y-60126009D02*
X119093153Y-60149819D01*
X119093153Y-60149819D02*
X119116962Y-60173628D01*
X119116962Y-60173628D02*
X119140772Y-60221247D01*
X119140772Y-60221247D02*
X119140772Y-60268866D01*
X119140772Y-60268866D02*
X119116962Y-60340295D01*
X119116962Y-60340295D02*
X118831248Y-60626009D01*
X118831248Y-60626009D02*
X119140772Y-60626009D01*
X119616962Y-60626009D02*
X119331248Y-60626009D01*
X119474105Y-60626009D02*
X119474105Y-60126009D01*
X119474105Y-60126009D02*
X119426486Y-60197438D01*
X119426486Y-60197438D02*
X119378867Y-60245057D01*
X119378867Y-60245057D02*
X119331248Y-60268866D01*
X120592066Y-104799790D02*
X120568257Y-104823600D01*
X120568257Y-104823600D02*
X120496828Y-104847409D01*
X120496828Y-104847409D02*
X120449209Y-104847409D01*
X120449209Y-104847409D02*
X120377781Y-104823600D01*
X120377781Y-104823600D02*
X120330162Y-104775980D01*
X120330162Y-104775980D02*
X120306352Y-104728361D01*
X120306352Y-104728361D02*
X120282543Y-104633123D01*
X120282543Y-104633123D02*
X120282543Y-104561695D01*
X120282543Y-104561695D02*
X120306352Y-104466457D01*
X120306352Y-104466457D02*
X120330162Y-104418838D01*
X120330162Y-104418838D02*
X120377781Y-104371219D01*
X120377781Y-104371219D02*
X120449209Y-104347409D01*
X120449209Y-104347409D02*
X120496828Y-104347409D01*
X120496828Y-104347409D02*
X120568257Y-104371219D01*
X120568257Y-104371219D02*
X120592066Y-104395028D01*
X120758733Y-104347409D02*
X121092066Y-104347409D01*
X121092066Y-104347409D02*
X120877781Y-104847409D01*
X129253466Y-104850590D02*
X129229657Y-104874400D01*
X129229657Y-104874400D02*
X129158228Y-104898209D01*
X129158228Y-104898209D02*
X129110609Y-104898209D01*
X129110609Y-104898209D02*
X129039181Y-104874400D01*
X129039181Y-104874400D02*
X128991562Y-104826780D01*
X128991562Y-104826780D02*
X128967752Y-104779161D01*
X128967752Y-104779161D02*
X128943943Y-104683923D01*
X128943943Y-104683923D02*
X128943943Y-104612495D01*
X128943943Y-104612495D02*
X128967752Y-104517257D01*
X128967752Y-104517257D02*
X128991562Y-104469638D01*
X128991562Y-104469638D02*
X129039181Y-104422019D01*
X129039181Y-104422019D02*
X129110609Y-104398209D01*
X129110609Y-104398209D02*
X129158228Y-104398209D01*
X129158228Y-104398209D02*
X129229657Y-104422019D01*
X129229657Y-104422019D02*
X129253466Y-104445828D01*
X129682038Y-104564876D02*
X129682038Y-104898209D01*
X129562990Y-104374400D02*
X129443943Y-104731542D01*
X129443943Y-104731542D02*
X129753466Y-104731542D01*
X140113171Y-105787209D02*
X139946505Y-105549114D01*
X139827457Y-105787209D02*
X139827457Y-105287209D01*
X139827457Y-105287209D02*
X140017933Y-105287209D01*
X140017933Y-105287209D02*
X140065552Y-105311019D01*
X140065552Y-105311019D02*
X140089362Y-105334828D01*
X140089362Y-105334828D02*
X140113171Y-105382447D01*
X140113171Y-105382447D02*
X140113171Y-105453876D01*
X140113171Y-105453876D02*
X140089362Y-105501495D01*
X140089362Y-105501495D02*
X140065552Y-105525304D01*
X140065552Y-105525304D02*
X140017933Y-105549114D01*
X140017933Y-105549114D02*
X139827457Y-105549114D01*
X140279838Y-105287209D02*
X140589362Y-105287209D01*
X140589362Y-105287209D02*
X140422695Y-105477685D01*
X140422695Y-105477685D02*
X140494124Y-105477685D01*
X140494124Y-105477685D02*
X140541743Y-105501495D01*
X140541743Y-105501495D02*
X140565552Y-105525304D01*
X140565552Y-105525304D02*
X140589362Y-105572923D01*
X140589362Y-105572923D02*
X140589362Y-105691971D01*
X140589362Y-105691971D02*
X140565552Y-105739590D01*
X140565552Y-105739590D02*
X140541743Y-105763400D01*
X140541743Y-105763400D02*
X140494124Y-105787209D01*
X140494124Y-105787209D02*
X140351267Y-105787209D01*
X140351267Y-105787209D02*
X140303648Y-105763400D01*
X140303648Y-105763400D02*
X140279838Y-105739590D01*
X140779838Y-105334828D02*
X140803647Y-105311019D01*
X140803647Y-105311019D02*
X140851266Y-105287209D01*
X140851266Y-105287209D02*
X140970314Y-105287209D01*
X140970314Y-105287209D02*
X141017933Y-105311019D01*
X141017933Y-105311019D02*
X141041742Y-105334828D01*
X141041742Y-105334828D02*
X141065552Y-105382447D01*
X141065552Y-105382447D02*
X141065552Y-105430066D01*
X141065552Y-105430066D02*
X141041742Y-105501495D01*
X141041742Y-105501495D02*
X140756028Y-105787209D01*
X140756028Y-105787209D02*
X141065552Y-105787209D01*
D10*
X116793752Y-69000619D02*
X116460419Y-68524428D01*
X116222324Y-69000619D02*
X116222324Y-68000619D01*
X116222324Y-68000619D02*
X116603276Y-68000619D01*
X116603276Y-68000619D02*
X116698514Y-68048238D01*
X116698514Y-68048238D02*
X116746133Y-68095857D01*
X116746133Y-68095857D02*
X116793752Y-68191095D01*
X116793752Y-68191095D02*
X116793752Y-68333952D01*
X116793752Y-68333952D02*
X116746133Y-68429190D01*
X116746133Y-68429190D02*
X116698514Y-68476809D01*
X116698514Y-68476809D02*
X116603276Y-68524428D01*
X116603276Y-68524428D02*
X116222324Y-68524428D01*
X117174705Y-68095857D02*
X117222324Y-68048238D01*
X117222324Y-68048238D02*
X117317562Y-68000619D01*
X117317562Y-68000619D02*
X117555657Y-68000619D01*
X117555657Y-68000619D02*
X117650895Y-68048238D01*
X117650895Y-68048238D02*
X117698514Y-68095857D01*
X117698514Y-68095857D02*
X117746133Y-68191095D01*
X117746133Y-68191095D02*
X117746133Y-68286333D01*
X117746133Y-68286333D02*
X117698514Y-68429190D01*
X117698514Y-68429190D02*
X117127086Y-69000619D01*
X117127086Y-69000619D02*
X117746133Y-69000619D01*
X118365181Y-68000619D02*
X118460419Y-68000619D01*
X118460419Y-68000619D02*
X118555657Y-68048238D01*
X118555657Y-68048238D02*
X118603276Y-68095857D01*
X118603276Y-68095857D02*
X118650895Y-68191095D01*
X118650895Y-68191095D02*
X118698514Y-68381571D01*
X118698514Y-68381571D02*
X118698514Y-68619666D01*
X118698514Y-68619666D02*
X118650895Y-68810142D01*
X118650895Y-68810142D02*
X118603276Y-68905380D01*
X118603276Y-68905380D02*
X118555657Y-68953000D01*
X118555657Y-68953000D02*
X118460419Y-69000619D01*
X118460419Y-69000619D02*
X118365181Y-69000619D01*
X118365181Y-69000619D02*
X118269943Y-68953000D01*
X118269943Y-68953000D02*
X118222324Y-68905380D01*
X118222324Y-68905380D02*
X118174705Y-68810142D01*
X118174705Y-68810142D02*
X118127086Y-68619666D01*
X118127086Y-68619666D02*
X118127086Y-68381571D01*
X118127086Y-68381571D02*
X118174705Y-68191095D01*
X118174705Y-68191095D02*
X118222324Y-68095857D01*
X118222324Y-68095857D02*
X118269943Y-68048238D01*
X118269943Y-68048238D02*
X118365181Y-68000619D01*
X133946514Y-87362380D02*
X133946514Y-86552857D01*
X133946514Y-86552857D02*
X133898895Y-86457619D01*
X133898895Y-86457619D02*
X133851276Y-86410000D01*
X133851276Y-86410000D02*
X133756038Y-86362380D01*
X133756038Y-86362380D02*
X133565562Y-86362380D01*
X133565562Y-86362380D02*
X133470324Y-86410000D01*
X133470324Y-86410000D02*
X133422705Y-86457619D01*
X133422705Y-86457619D02*
X133375086Y-86552857D01*
X133375086Y-86552857D02*
X133375086Y-87362380D01*
X132470324Y-87029047D02*
X132470324Y-86362380D01*
X132708419Y-87410000D02*
X132946514Y-86695714D01*
X132946514Y-86695714D02*
X132327467Y-86695714D01*
X131562529Y-86485990D02*
X131800624Y-86485990D01*
X131705386Y-86724085D02*
X131800624Y-86485990D01*
X131800624Y-86485990D02*
X131705386Y-86247895D01*
X131991100Y-86628847D02*
X131800624Y-86485990D01*
X131800624Y-86485990D02*
X131991100Y-86343133D01*
D11*
X131593181Y-93395190D02*
X131569372Y-93419000D01*
X131569372Y-93419000D02*
X131497943Y-93442809D01*
X131497943Y-93442809D02*
X131450324Y-93442809D01*
X131450324Y-93442809D02*
X131378896Y-93419000D01*
X131378896Y-93419000D02*
X131331277Y-93371380D01*
X131331277Y-93371380D02*
X131307467Y-93323761D01*
X131307467Y-93323761D02*
X131283658Y-93228523D01*
X131283658Y-93228523D02*
X131283658Y-93157095D01*
X131283658Y-93157095D02*
X131307467Y-93061857D01*
X131307467Y-93061857D02*
X131331277Y-93014238D01*
X131331277Y-93014238D02*
X131378896Y-92966619D01*
X131378896Y-92966619D02*
X131450324Y-92942809D01*
X131450324Y-92942809D02*
X131497943Y-92942809D01*
X131497943Y-92942809D02*
X131569372Y-92966619D01*
X131569372Y-92966619D02*
X131593181Y-92990428D01*
X131783658Y-92990428D02*
X131807467Y-92966619D01*
X131807467Y-92966619D02*
X131855086Y-92942809D01*
X131855086Y-92942809D02*
X131974134Y-92942809D01*
X131974134Y-92942809D02*
X132021753Y-92966619D01*
X132021753Y-92966619D02*
X132045562Y-92990428D01*
X132045562Y-92990428D02*
X132069372Y-93038047D01*
X132069372Y-93038047D02*
X132069372Y-93085666D01*
X132069372Y-93085666D02*
X132045562Y-93157095D01*
X132045562Y-93157095D02*
X131759848Y-93442809D01*
X131759848Y-93442809D02*
X132069372Y-93442809D01*
X132521752Y-92942809D02*
X132283657Y-92942809D01*
X132283657Y-92942809D02*
X132259848Y-93180904D01*
X132259848Y-93180904D02*
X132283657Y-93157095D01*
X132283657Y-93157095D02*
X132331276Y-93133285D01*
X132331276Y-93133285D02*
X132450324Y-93133285D01*
X132450324Y-93133285D02*
X132497943Y-93157095D01*
X132497943Y-93157095D02*
X132521752Y-93180904D01*
X132521752Y-93180904D02*
X132545562Y-93228523D01*
X132545562Y-93228523D02*
X132545562Y-93347571D01*
X132545562Y-93347571D02*
X132521752Y-93395190D01*
X132521752Y-93395190D02*
X132497943Y-93419000D01*
X132497943Y-93419000D02*
X132450324Y-93442809D01*
X132450324Y-93442809D02*
X132331276Y-93442809D01*
X132331276Y-93442809D02*
X132283657Y-93419000D01*
X132283657Y-93419000D02*
X132259848Y-93395190D01*
X129805800Y-89424628D02*
X129829610Y-89448437D01*
X129829610Y-89448437D02*
X129853419Y-89519866D01*
X129853419Y-89519866D02*
X129853419Y-89567485D01*
X129853419Y-89567485D02*
X129829610Y-89638913D01*
X129829610Y-89638913D02*
X129781990Y-89686532D01*
X129781990Y-89686532D02*
X129734371Y-89710342D01*
X129734371Y-89710342D02*
X129639133Y-89734151D01*
X129639133Y-89734151D02*
X129567705Y-89734151D01*
X129567705Y-89734151D02*
X129472467Y-89710342D01*
X129472467Y-89710342D02*
X129424848Y-89686532D01*
X129424848Y-89686532D02*
X129377229Y-89638913D01*
X129377229Y-89638913D02*
X129353419Y-89567485D01*
X129353419Y-89567485D02*
X129353419Y-89519866D01*
X129353419Y-89519866D02*
X129377229Y-89448437D01*
X129377229Y-89448437D02*
X129401038Y-89424628D01*
X129401038Y-89234151D02*
X129377229Y-89210342D01*
X129377229Y-89210342D02*
X129353419Y-89162723D01*
X129353419Y-89162723D02*
X129353419Y-89043675D01*
X129353419Y-89043675D02*
X129377229Y-88996056D01*
X129377229Y-88996056D02*
X129401038Y-88972247D01*
X129401038Y-88972247D02*
X129448657Y-88948437D01*
X129448657Y-88948437D02*
X129496276Y-88948437D01*
X129496276Y-88948437D02*
X129567705Y-88972247D01*
X129567705Y-88972247D02*
X129853419Y-89257961D01*
X129853419Y-89257961D02*
X129853419Y-88948437D01*
X129567705Y-88662723D02*
X129543895Y-88710342D01*
X129543895Y-88710342D02*
X129520086Y-88734152D01*
X129520086Y-88734152D02*
X129472467Y-88757961D01*
X129472467Y-88757961D02*
X129448657Y-88757961D01*
X129448657Y-88757961D02*
X129401038Y-88734152D01*
X129401038Y-88734152D02*
X129377229Y-88710342D01*
X129377229Y-88710342D02*
X129353419Y-88662723D01*
X129353419Y-88662723D02*
X129353419Y-88567485D01*
X129353419Y-88567485D02*
X129377229Y-88519866D01*
X129377229Y-88519866D02*
X129401038Y-88496057D01*
X129401038Y-88496057D02*
X129448657Y-88472247D01*
X129448657Y-88472247D02*
X129472467Y-88472247D01*
X129472467Y-88472247D02*
X129520086Y-88496057D01*
X129520086Y-88496057D02*
X129543895Y-88519866D01*
X129543895Y-88519866D02*
X129567705Y-88567485D01*
X129567705Y-88567485D02*
X129567705Y-88662723D01*
X129567705Y-88662723D02*
X129591514Y-88710342D01*
X129591514Y-88710342D02*
X129615324Y-88734152D01*
X129615324Y-88734152D02*
X129662943Y-88757961D01*
X129662943Y-88757961D02*
X129758181Y-88757961D01*
X129758181Y-88757961D02*
X129805800Y-88734152D01*
X129805800Y-88734152D02*
X129829610Y-88710342D01*
X129829610Y-88710342D02*
X129853419Y-88662723D01*
X129853419Y-88662723D02*
X129853419Y-88567485D01*
X129853419Y-88567485D02*
X129829610Y-88519866D01*
X129829610Y-88519866D02*
X129805800Y-88496057D01*
X129805800Y-88496057D02*
X129758181Y-88472247D01*
X129758181Y-88472247D02*
X129662943Y-88472247D01*
X129662943Y-88472247D02*
X129615324Y-88496057D01*
X129615324Y-88496057D02*
X129591514Y-88519866D01*
X129591514Y-88519866D02*
X129567705Y-88567485D01*
D10*
X135929029Y-100891933D02*
X136643314Y-100891933D01*
X136643314Y-100891933D02*
X136786171Y-100939552D01*
X136786171Y-100939552D02*
X136881410Y-101034790D01*
X136881410Y-101034790D02*
X136929029Y-101177647D01*
X136929029Y-101177647D02*
X136929029Y-101272885D01*
X136929029Y-100368123D02*
X136929029Y-100177647D01*
X136929029Y-100177647D02*
X136881410Y-100082409D01*
X136881410Y-100082409D02*
X136833790Y-100034790D01*
X136833790Y-100034790D02*
X136690933Y-99939552D01*
X136690933Y-99939552D02*
X136500457Y-99891933D01*
X136500457Y-99891933D02*
X136119505Y-99891933D01*
X136119505Y-99891933D02*
X136024267Y-99939552D01*
X136024267Y-99939552D02*
X135976648Y-99987171D01*
X135976648Y-99987171D02*
X135929029Y-100082409D01*
X135929029Y-100082409D02*
X135929029Y-100272885D01*
X135929029Y-100272885D02*
X135976648Y-100368123D01*
X135976648Y-100368123D02*
X136024267Y-100415742D01*
X136024267Y-100415742D02*
X136119505Y-100463361D01*
X136119505Y-100463361D02*
X136357600Y-100463361D01*
X136357600Y-100463361D02*
X136452838Y-100415742D01*
X136452838Y-100415742D02*
X136500457Y-100368123D01*
X136500457Y-100368123D02*
X136548076Y-100272885D01*
X136548076Y-100272885D02*
X136548076Y-100082409D01*
X136548076Y-100082409D02*
X136500457Y-99987171D01*
X136500457Y-99987171D02*
X136452838Y-99939552D01*
X136452838Y-99939552D02*
X136357600Y-99891933D01*
D13*
%TO.C,C15*%
X131642462Y-74042600D02*
X131119958Y-74042600D01*
X131642462Y-75512600D02*
X131119958Y-75512600D01*
%TO.C,C8*%
X144104610Y-75431867D02*
X144104610Y-75139333D01*
X145124610Y-75431867D02*
X145124610Y-75139333D01*
%TO.C,R3*%
X125804959Y-104293400D02*
X126112241Y-104293400D01*
X125804959Y-105053400D02*
X126112241Y-105053400D01*
%TO.C,C5*%
X136391764Y-104313400D02*
X136607436Y-104313400D01*
X136391764Y-105033400D02*
X136607436Y-105033400D01*
%TO.C,R10*%
X118239874Y-85805600D02*
X116785746Y-85805600D01*
X118239874Y-87625600D02*
X116785746Y-87625600D01*
%TO.C,C29*%
X138136630Y-73683000D02*
X138417790Y-73683000D01*
X138136630Y-74703000D02*
X138417790Y-74703000D01*
%TO.C,C19*%
X116381630Y-79119000D02*
X116662790Y-79119000D01*
X116381630Y-80139000D02*
X116662790Y-80139000D01*
%TO.C,C20*%
X110373410Y-60109980D02*
X110373410Y-59828820D01*
X111393410Y-60109980D02*
X111393410Y-59828820D01*
D14*
%TO.C,Q1*%
X107194810Y-92906400D02*
X107644810Y-92906400D01*
X107194810Y-97806400D02*
X107644810Y-97806400D01*
X112144810Y-97806400D02*
X113094810Y-97806400D01*
X113094810Y-92906400D02*
X112144810Y-92906400D01*
D15*
X113944810Y-97156400D02*
X113944810Y-97156400D01*
X113944810Y-97356400D02*
X113944810Y-97356400D01*
X113944810Y-97156400D02*
G75*
G02*
X113944810Y-97356400I0J-100000D01*
G01*
X113944810Y-97356400D02*
G75*
G02*
X113944810Y-97156400I0J100000D01*
G01*
D13*
%TO.C,C17*%
X113751610Y-101154620D02*
X113751610Y-101435780D01*
X114771610Y-101154620D02*
X114771610Y-101435780D01*
%TO.C,C16*%
X134034630Y-94562200D02*
X134315790Y-94562200D01*
X134034630Y-95582200D02*
X134315790Y-95582200D01*
%TO.C,R34*%
X134415559Y-104293400D02*
X134722841Y-104293400D01*
X134415559Y-105053400D02*
X134722841Y-105053400D01*
%TO.C,C13*%
X124022462Y-78259000D02*
X123499958Y-78259000D01*
X124022462Y-79729000D02*
X123499958Y-79729000D01*
%TO.C,C21*%
X118251010Y-57741452D02*
X118251010Y-57218948D01*
X119721010Y-57741452D02*
X119721010Y-57218948D01*
%TO.C,C1*%
X138002600Y-55041852D02*
X138002600Y-53619348D01*
X139822600Y-55041852D02*
X139822600Y-53619348D01*
%TO.C,J4*%
X119838210Y-54100800D02*
X120438210Y-54400800D01*
X119838210Y-54700800D02*
X119838210Y-54100800D01*
X120438210Y-54400800D02*
X119838210Y-54700800D01*
X120638210Y-52290800D02*
X121838210Y-52290800D01*
X120638210Y-59310800D02*
X120638210Y-52290800D01*
X121838210Y-50590800D02*
X135438210Y-50590800D01*
X121838210Y-52290800D02*
X121838210Y-50590800D01*
X135438210Y-50590800D02*
X135438210Y-52290800D01*
X135438210Y-52290800D02*
X136638210Y-52290800D01*
X136638210Y-52290800D02*
X136638210Y-59310800D01*
X136638210Y-59310800D02*
X120638210Y-59310800D01*
%TO.C,C32*%
X135152230Y-73708800D02*
X135433390Y-73708800D01*
X135152230Y-74728800D02*
X135433390Y-74728800D01*
%TO.C,J3*%
X119578210Y-106338800D02*
X119578210Y-111058800D01*
X119578210Y-108448800D02*
X120188210Y-108448800D01*
X119578210Y-109748800D02*
X120188210Y-109748800D01*
X119578210Y-111058800D02*
X137698210Y-111058800D01*
X120188210Y-106948800D02*
X120188210Y-110448800D01*
X120188210Y-110448800D02*
X122138210Y-110448800D01*
X122138210Y-110448800D02*
X122138210Y-111058800D01*
X122538210Y-107448800D02*
X122538210Y-106948800D01*
X122638210Y-106948800D02*
X122638210Y-107448800D01*
X122738210Y-106948800D02*
X122738210Y-107448800D01*
X122738210Y-107448800D02*
X122538210Y-107448800D01*
X124538210Y-107448800D02*
X124538210Y-106948800D01*
X124638210Y-106948800D02*
X124638210Y-107448800D01*
X124738210Y-106948800D02*
X124738210Y-107448800D01*
X124738210Y-107448800D02*
X124538210Y-107448800D01*
X126538210Y-107448800D02*
X126538210Y-106948800D01*
X126638210Y-106948800D02*
X126638210Y-107448800D01*
X126738210Y-106948800D02*
X126738210Y-107448800D01*
X126738210Y-107448800D02*
X126538210Y-107448800D01*
X128538210Y-107448800D02*
X128538210Y-106948800D01*
X128638210Y-106948800D02*
X128638210Y-107448800D01*
X128738210Y-106948800D02*
X128738210Y-107448800D01*
X128738210Y-107448800D02*
X128538210Y-107448800D01*
X130538210Y-107448800D02*
X130538210Y-106948800D01*
X130638210Y-106948800D02*
X130638210Y-107448800D01*
X130738210Y-106948800D02*
X130738210Y-107448800D01*
X130738210Y-107448800D02*
X130538210Y-107448800D01*
X132538210Y-107448800D02*
X132538210Y-106948800D01*
X132638210Y-106948800D02*
X132638210Y-107448800D01*
X132738210Y-106948800D02*
X132738210Y-107448800D01*
X132738210Y-107448800D02*
X132538210Y-107448800D01*
X134538210Y-107448800D02*
X134538210Y-106948800D01*
X134638210Y-106948800D02*
X134638210Y-107448800D01*
X134738210Y-106948800D02*
X134738210Y-107448800D01*
X134738210Y-107448800D02*
X134538210Y-107448800D01*
X135138210Y-110448800D02*
X137088210Y-110448800D01*
X135138210Y-111058800D02*
X135138210Y-110448800D01*
X135938210Y-111058800D02*
X135938210Y-111258800D01*
X135938210Y-111158800D02*
X136238210Y-111158800D01*
X135938210Y-111258800D02*
X136238210Y-111258800D01*
X136238210Y-111258800D02*
X136238210Y-111058800D01*
X136748210Y-111358800D02*
X137998210Y-111358800D01*
X137088210Y-106948800D02*
X120188210Y-106948800D01*
X137088210Y-110448800D02*
X137088210Y-106948800D01*
X137698210Y-106338800D02*
X119578210Y-106338800D01*
X137698210Y-108448800D02*
X137088210Y-108448800D01*
X137698210Y-109748800D02*
X137088210Y-109748800D01*
X137698210Y-111058800D02*
X137698210Y-106338800D01*
X137998210Y-111358800D02*
X137998210Y-110108800D01*
%TO.C,U3*%
X149186610Y-77896000D02*
X147236610Y-77896000D01*
X149186610Y-77896000D02*
X151136610Y-77896000D01*
X149186610Y-83016000D02*
X147236610Y-83016000D01*
X149186610Y-83016000D02*
X151136610Y-83016000D01*
X146486610Y-77991000D02*
X146246610Y-77661000D01*
X146726610Y-77661000D01*
X146486610Y-77991000D01*
G36*
X146486610Y-77991000D02*
G01*
X146246610Y-77661000D01*
X146726610Y-77661000D01*
X146486610Y-77991000D01*
G37*
%TO.C,J1*%
X98618710Y-73944800D02*
X98618710Y-86664800D01*
X98618710Y-86664800D02*
X102638710Y-86664800D01*
X99118710Y-74444800D02*
X100328710Y-74444800D01*
X99118710Y-86164800D02*
X99118710Y-74444800D01*
X100328710Y-74444800D02*
X100328710Y-73944800D01*
X100328710Y-86164800D02*
X99118710Y-86164800D01*
X100328710Y-86664800D02*
X100328710Y-86164800D01*
X100438710Y-86964800D02*
X102938710Y-86964800D01*
X101138710Y-73944800D02*
X101138710Y-74944800D01*
X101138710Y-74944800D02*
X102638710Y-74944800D01*
X101138710Y-85664800D02*
X102638710Y-85664800D01*
X101138710Y-86664800D02*
X101138710Y-85664800D01*
X102638710Y-73944800D02*
X98618710Y-73944800D01*
X102638710Y-86664800D02*
X102638710Y-73944800D01*
X102938710Y-86964800D02*
X102938710Y-84464800D01*
%TO.C,C11*%
X142047210Y-86125267D02*
X142047210Y-85832733D01*
X143067210Y-86125267D02*
X143067210Y-85832733D01*
%TO.C,R9*%
X118239874Y-90809400D02*
X116785746Y-90809400D01*
X118239874Y-92629400D02*
X116785746Y-92629400D01*
%TO.C,R2*%
X118019300Y-101601176D02*
X118019300Y-102110624D01*
X119064300Y-101601176D02*
X119064300Y-102110624D01*
%TO.C,R11*%
X118239874Y-80852600D02*
X116785746Y-80852600D01*
X118239874Y-82672600D02*
X116785746Y-82672600D01*
D14*
%TO.C,Q3*%
X107077010Y-73076600D02*
X107527010Y-73076600D01*
X107077010Y-77976600D02*
X107527010Y-77976600D01*
X112027010Y-77976600D02*
X112977010Y-77976600D01*
X112977010Y-73076600D02*
X112027010Y-73076600D01*
D15*
X113827010Y-77326600D02*
X113827010Y-77326600D01*
X113827010Y-77526600D02*
X113827010Y-77526600D01*
X113827010Y-77326600D02*
G75*
G02*
X113827010Y-77526600I0J-100000D01*
G01*
X113827010Y-77526600D02*
G75*
G02*
X113827010Y-77326600I0J100000D01*
G01*
D13*
%TO.C,C30*%
X132332830Y-70305200D02*
X132613990Y-70305200D01*
X132332830Y-71325200D02*
X132613990Y-71325200D01*
%TO.C,R19*%
X118163674Y-70997400D02*
X116709546Y-70997400D01*
X118163674Y-72817400D02*
X116709546Y-72817400D01*
D14*
%TO.C,Q2*%
X107127810Y-82957200D02*
X107577810Y-82957200D01*
X107127810Y-87857200D02*
X107577810Y-87857200D01*
X112077810Y-87857200D02*
X113027810Y-87857200D01*
X113027810Y-82957200D02*
X112077810Y-82957200D01*
D15*
X113877810Y-87207200D02*
X113877810Y-87207200D01*
X113877810Y-87407200D02*
X113877810Y-87407200D01*
X113877810Y-87207200D02*
G75*
G02*
X113877810Y-87407200I0J-100000D01*
G01*
X113877810Y-87407200D02*
G75*
G02*
X113877810Y-87207200I0J100000D01*
G01*
D13*
%TO.C,R1*%
X136467634Y-61047100D02*
X135958186Y-61047100D01*
X136467634Y-62092100D02*
X135958186Y-62092100D01*
%TO.C,R5*%
X142618910Y-75565724D02*
X142618910Y-75056276D01*
X143663910Y-75565724D02*
X143663910Y-75056276D01*
D16*
%TO.C,U1*%
X137403212Y-57049800D02*
X138703212Y-57049800D01*
X137403212Y-60399800D02*
X137603212Y-60399800D01*
X141003210Y-57049800D02*
X141203210Y-57049800D01*
X141003210Y-60399800D02*
X141203210Y-60399800D01*
D13*
%TO.C,J2*%
X153978210Y-74940800D02*
X153978210Y-87060800D01*
X153978210Y-87060800D02*
X158698210Y-87060800D01*
X154588210Y-75550800D02*
X154588210Y-86450800D01*
X154588210Y-77900800D02*
X155088210Y-77900800D01*
X154588210Y-78000800D02*
X155088210Y-78000800D01*
X154588210Y-79900800D02*
X155088210Y-79900800D01*
X154588210Y-80000800D02*
X155088210Y-80000800D01*
X154588210Y-81900800D02*
X155088210Y-81900800D01*
X154588210Y-82000800D02*
X155088210Y-82000800D01*
X154588210Y-83900800D02*
X155088210Y-83900800D01*
X154588210Y-84000800D02*
X155088210Y-84000800D01*
X154588210Y-86450800D02*
X158088210Y-86450800D01*
X155088210Y-77900800D02*
X155088210Y-78100800D01*
X155088210Y-78100800D02*
X154588210Y-78100800D01*
X155088210Y-79900800D02*
X155088210Y-80100800D01*
X155088210Y-80100800D02*
X154588210Y-80100800D01*
X155088210Y-81900800D02*
X155088210Y-82100800D01*
X155088210Y-82100800D02*
X154588210Y-82100800D01*
X155088210Y-83900800D02*
X155088210Y-84100800D01*
X155088210Y-84100800D02*
X154588210Y-84100800D01*
X156088210Y-74940800D02*
X156088210Y-75550800D01*
X156088210Y-87060800D02*
X156088210Y-86450800D01*
X157388210Y-74940800D02*
X157388210Y-75550800D01*
X157388210Y-87060800D02*
X157388210Y-86450800D01*
X158088210Y-75550800D02*
X154588210Y-75550800D01*
X158088210Y-77500800D02*
X158088210Y-75550800D01*
X158088210Y-84500800D02*
X158698210Y-84500800D01*
X158088210Y-86450800D02*
X158088210Y-84500800D01*
X158698210Y-74940800D02*
X153978210Y-74940800D01*
X158698210Y-76700800D02*
X158898210Y-76700800D01*
X158698210Y-77500800D02*
X158088210Y-77500800D01*
X158698210Y-87060800D02*
X158698210Y-74940800D01*
X158798210Y-76700800D02*
X158798210Y-76400800D01*
X158898210Y-76400800D02*
X158698210Y-76400800D01*
X158898210Y-76700800D02*
X158898210Y-76400800D01*
X158998210Y-74640800D02*
X157748210Y-74640800D01*
X158998210Y-75890800D02*
X158998210Y-74640800D01*
D17*
%TO.C,U8*%
X149466010Y-91236800D02*
X149466010Y-91651259D01*
X149466010Y-97070741D02*
X149466010Y-97485200D01*
X149466010Y-97485200D02*
X149880469Y-97485200D01*
X149880469Y-91236800D02*
X149466010Y-91236800D01*
X155299951Y-97485200D02*
X155714410Y-97485200D01*
X155714410Y-91236800D02*
X155299951Y-91236800D01*
X155714410Y-91651259D02*
X155714410Y-91236800D01*
X155714410Y-97485200D02*
X155714410Y-97070741D01*
D18*
G36*
X149034210Y-96801501D02*
G01*
X148780210Y-96801501D01*
X148780210Y-96420501D01*
X149034210Y-96420501D01*
X149034210Y-96801501D01*
G37*
G36*
X150530709Y-90805000D02*
G01*
X150149709Y-90805000D01*
X150149709Y-90551000D01*
X150530709Y-90551000D01*
X150530709Y-90805000D01*
G37*
G36*
X155030711Y-98171000D02*
G01*
X154649711Y-98171000D01*
X154649711Y-97917000D01*
X155030711Y-97917000D01*
X155030711Y-98171000D01*
G37*
G36*
X156400210Y-92301499D02*
G01*
X156146210Y-92301499D01*
X156146210Y-91920499D01*
X156400210Y-91920499D01*
X156400210Y-92301499D01*
G37*
D13*
%TO.C,C9*%
X145654010Y-75502380D02*
X145654010Y-75221220D01*
X146674010Y-75502380D02*
X146674010Y-75221220D01*
%TO.C,C31*%
X132613990Y-71829200D02*
X132332830Y-71829200D01*
X132613990Y-72849200D02*
X132332830Y-72849200D01*
%TO.C,C3*%
X143184958Y-59818600D02*
X143707462Y-59818600D01*
X143184958Y-61288600D02*
X143707462Y-61288600D01*
%TO.C,D1*%
X138767610Y-62304600D02*
X141227610Y-62304600D01*
X141227610Y-60834600D02*
X138767610Y-60834600D01*
X141227610Y-62304600D02*
X141227610Y-60834600D01*
%TO.C,C61*%
X146678143Y-93317600D02*
X146970677Y-93317600D01*
X146678143Y-94337600D02*
X146970677Y-94337600D01*
%TO.C,R33*%
X123216641Y-104293400D02*
X122909359Y-104293400D01*
X123216641Y-105053400D02*
X122909359Y-105053400D01*
%TO.C,C12*%
X124022462Y-80265600D02*
X123499958Y-80265600D01*
X124022462Y-81735600D02*
X123499958Y-81735600D01*
%TO.C,R24*%
X139530468Y-72146500D02*
X139055952Y-72146500D01*
X139530468Y-73191500D02*
X139055952Y-73191500D01*
D14*
%TO.C,Q4*%
X107077010Y-62992800D02*
X107527010Y-62992800D01*
X107077010Y-67892800D02*
X107527010Y-67892800D01*
X112027010Y-67892800D02*
X112977010Y-67892800D01*
X112977010Y-62992800D02*
X112027010Y-62992800D01*
D15*
X113827010Y-67242800D02*
X113827010Y-67242800D01*
X113827010Y-67442800D02*
X113827010Y-67442800D01*
X113827010Y-67242800D02*
G75*
G02*
X113827010Y-67442800I0J-100000D01*
G01*
X113827010Y-67442800D02*
G75*
G02*
X113827010Y-67242800I0J100000D01*
G01*
D13*
%TO.C,R8*%
X118239874Y-95711600D02*
X116785746Y-95711600D01*
X118239874Y-97531600D02*
X116785746Y-97531600D01*
%TO.C,C22*%
X121062487Y-65597600D02*
X121062487Y-64399600D01*
X121102487Y-65860600D02*
X121102487Y-64136600D01*
X121142487Y-66060600D02*
X121142487Y-63936600D01*
X121182487Y-66228600D02*
X121182487Y-63768600D01*
X121222487Y-66376600D02*
X121222487Y-63620600D01*
X121262487Y-66508600D02*
X121262487Y-63488600D01*
X121302487Y-66628600D02*
X121302487Y-63368600D01*
X121342487Y-66740600D02*
X121342487Y-63256600D01*
X121382487Y-66844600D02*
X121382487Y-63152600D01*
X121422487Y-66942600D02*
X121422487Y-63054600D01*
X121462487Y-67035600D02*
X121462487Y-62961600D01*
X121502487Y-67123600D02*
X121502487Y-62873600D01*
X121542487Y-67207600D02*
X121542487Y-62789600D01*
X121582487Y-67287600D02*
X121582487Y-62709600D01*
X121622487Y-67363600D02*
X121622487Y-62633600D01*
X121662487Y-67437600D02*
X121662487Y-62559600D01*
X121702487Y-67508600D02*
X121702487Y-62488600D01*
X121742487Y-67577600D02*
X121742487Y-62419600D01*
X121782487Y-67643600D02*
X121782487Y-62353600D01*
X121822487Y-67707600D02*
X121822487Y-62289600D01*
X121862487Y-67768600D02*
X121862487Y-62228600D01*
X121902487Y-67828600D02*
X121902487Y-62168600D01*
X121942487Y-67887600D02*
X121942487Y-62109600D01*
X121982487Y-67943600D02*
X121982487Y-62053600D01*
X122022487Y-67998600D02*
X122022487Y-61998600D01*
X122062487Y-68052600D02*
X122062487Y-61944600D01*
X122102487Y-68104600D02*
X122102487Y-61892600D01*
X122142487Y-68154600D02*
X122142487Y-61842600D01*
X122182487Y-68204600D02*
X122182487Y-61792600D01*
X122222487Y-68252600D02*
X122222487Y-61744600D01*
X122262487Y-68299600D02*
X122262487Y-61697600D01*
X122302487Y-68345600D02*
X122302487Y-61651600D01*
X122342487Y-68390600D02*
X122342487Y-61606600D01*
X122382487Y-68434600D02*
X122382487Y-61562600D01*
X122422487Y-63757600D02*
X122422487Y-61520600D01*
X122422487Y-68476600D02*
X122422487Y-66239600D01*
X122462487Y-63757600D02*
X122462487Y-61478600D01*
X122462487Y-68518600D02*
X122462487Y-66239600D01*
X122502487Y-63757600D02*
X122502487Y-61437600D01*
X122502487Y-68559600D02*
X122502487Y-66239600D01*
X122542487Y-63757600D02*
X122542487Y-61397600D01*
X122542487Y-68599600D02*
X122542487Y-66239600D01*
X122582487Y-63757600D02*
X122582487Y-61358600D01*
X122582487Y-68638600D02*
X122582487Y-66239600D01*
X122622487Y-63757600D02*
X122622487Y-61319600D01*
X122622487Y-68677600D02*
X122622487Y-66239600D01*
X122662487Y-63757600D02*
X122662487Y-61282600D01*
X122662487Y-68714600D02*
X122662487Y-66239600D01*
X122702487Y-63757600D02*
X122702487Y-61245600D01*
X122702487Y-68751600D02*
X122702487Y-66239600D01*
X122742487Y-63757600D02*
X122742487Y-61209600D01*
X122742487Y-68787600D02*
X122742487Y-66239600D01*
X122782487Y-63757600D02*
X122782487Y-61174600D01*
X122782487Y-68822600D02*
X122782487Y-66239600D01*
X122822487Y-63757600D02*
X122822487Y-61140600D01*
X122822487Y-68856600D02*
X122822487Y-66239600D01*
X122862487Y-63757600D02*
X122862487Y-61106600D01*
X122862487Y-68890600D02*
X122862487Y-66239600D01*
X122902487Y-63757600D02*
X122902487Y-61073600D01*
X122902487Y-68923600D02*
X122902487Y-66239600D01*
X122942487Y-63757600D02*
X122942487Y-61041600D01*
X122942487Y-68955600D02*
X122942487Y-66239600D01*
X122982487Y-63757600D02*
X122982487Y-61009600D01*
X122982487Y-68987600D02*
X122982487Y-66239600D01*
X123022487Y-63757600D02*
X123022487Y-60978600D01*
X123022487Y-69018600D02*
X123022487Y-66239600D01*
X123062487Y-63757600D02*
X123062487Y-60948600D01*
X123062487Y-69048600D02*
X123062487Y-66239600D01*
X123102487Y-63757600D02*
X123102487Y-60918600D01*
X123102487Y-69078600D02*
X123102487Y-66239600D01*
X123142487Y-63757600D02*
X123142487Y-60888600D01*
X123142487Y-69108600D02*
X123142487Y-66239600D01*
X123182487Y-63757600D02*
X123182487Y-60860600D01*
X123182487Y-69136600D02*
X123182487Y-66239600D01*
X123222487Y-63757600D02*
X123222487Y-60832600D01*
X123222487Y-69164600D02*
X123222487Y-66239600D01*
X123262487Y-63757600D02*
X123262487Y-60804600D01*
X123262487Y-69192600D02*
X123262487Y-66239600D01*
X123302487Y-63757600D02*
X123302487Y-60777600D01*
X123302487Y-69219600D02*
X123302487Y-66239600D01*
X123342487Y-63757600D02*
X123342487Y-60751600D01*
X123342487Y-69245600D02*
X123342487Y-66239600D01*
X123382487Y-63757600D02*
X123382487Y-60725600D01*
X123382487Y-69271600D02*
X123382487Y-66239600D01*
X123422487Y-63757600D02*
X123422487Y-60700600D01*
X123422487Y-69296600D02*
X123422487Y-66239600D01*
X123462487Y-63757600D02*
X123462487Y-60675600D01*
X123462487Y-69321600D02*
X123462487Y-66239600D01*
X123502487Y-63757600D02*
X123502487Y-60651600D01*
X123502487Y-69345600D02*
X123502487Y-66239600D01*
X123542487Y-63757600D02*
X123542487Y-60627600D01*
X123542487Y-69369600D02*
X123542487Y-66239600D01*
X123582487Y-63757600D02*
X123582487Y-60603600D01*
X123582487Y-69393600D02*
X123582487Y-66239600D01*
X123622487Y-63757600D02*
X123622487Y-60581600D01*
X123622487Y-69415600D02*
X123622487Y-66239600D01*
X123662487Y-63757600D02*
X123662487Y-60558600D01*
X123662487Y-69438600D02*
X123662487Y-66239600D01*
X123702487Y-63757600D02*
X123702487Y-60536600D01*
X123702487Y-69460600D02*
X123702487Y-66239600D01*
X123742487Y-63757600D02*
X123742487Y-60515600D01*
X123742487Y-69481600D02*
X123742487Y-66239600D01*
X123782487Y-63757600D02*
X123782487Y-60494600D01*
X123782487Y-69502600D02*
X123782487Y-66239600D01*
X123822487Y-63757600D02*
X123822487Y-60473600D01*
X123822487Y-69523600D02*
X123822487Y-66239600D01*
X123862487Y-63757600D02*
X123862487Y-60453600D01*
X123862487Y-69543600D02*
X123862487Y-66239600D01*
X123902487Y-63757600D02*
X123902487Y-60434600D01*
X123902487Y-69562600D02*
X123902487Y-66239600D01*
X123942487Y-63757600D02*
X123942487Y-60414600D01*
X123942487Y-69582600D02*
X123942487Y-66239600D01*
X123982487Y-63757600D02*
X123982487Y-60395600D01*
X123982487Y-69601600D02*
X123982487Y-66239600D01*
X124022487Y-63757600D02*
X124022487Y-60377600D01*
X124022487Y-69619600D02*
X124022487Y-66239600D01*
X124062487Y-63757600D02*
X124062487Y-60359600D01*
X124062487Y-69637600D02*
X124062487Y-66239600D01*
X124102487Y-63757600D02*
X124102487Y-60341600D01*
X124102487Y-69655600D02*
X124102487Y-66239600D01*
X124142487Y-63757600D02*
X124142487Y-60324600D01*
X124142487Y-69672600D02*
X124142487Y-66239600D01*
X124182487Y-63757600D02*
X124182487Y-60308600D01*
X124182487Y-69688600D02*
X124182487Y-66239600D01*
X124222487Y-63757600D02*
X124222487Y-60291600D01*
X124222487Y-69705600D02*
X124222487Y-66239600D01*
X124262487Y-63757600D02*
X124262487Y-60275600D01*
X124262487Y-69721600D02*
X124262487Y-66239600D01*
X124302487Y-63757600D02*
X124302487Y-60260600D01*
X124302487Y-69736600D02*
X124302487Y-66239600D01*
X124342487Y-63757600D02*
X124342487Y-60244600D01*
X124342487Y-69752600D02*
X124342487Y-66239600D01*
X124382487Y-63757600D02*
X124382487Y-60230600D01*
X124382487Y-69766600D02*
X124382487Y-66239600D01*
X124422487Y-63757600D02*
X124422487Y-60215600D01*
X124422487Y-69781600D02*
X124422487Y-66239600D01*
X124462487Y-63757600D02*
X124462487Y-60201600D01*
X124462487Y-69795600D02*
X124462487Y-66239600D01*
X124502487Y-63757600D02*
X124502487Y-60187600D01*
X124502487Y-69809600D02*
X124502487Y-66239600D01*
X124542487Y-63757600D02*
X124542487Y-60174600D01*
X124542487Y-69822600D02*
X124542487Y-66239600D01*
X124582487Y-63757600D02*
X124582487Y-60161600D01*
X124582487Y-69835600D02*
X124582487Y-66239600D01*
X124622487Y-63757600D02*
X124622487Y-60148600D01*
X124622487Y-69848600D02*
X124622487Y-66239600D01*
X124662487Y-63757600D02*
X124662487Y-60136600D01*
X124662487Y-69860600D02*
X124662487Y-66239600D01*
X124702487Y-63757600D02*
X124702487Y-60124600D01*
X124702487Y-69872600D02*
X124702487Y-66239600D01*
X124742487Y-63757600D02*
X124742487Y-60113600D01*
X124742487Y-69883600D02*
X124742487Y-66239600D01*
X124782487Y-63757600D02*
X124782487Y-60101600D01*
X124782487Y-69895600D02*
X124782487Y-66239600D01*
X124822487Y-63757600D02*
X124822487Y-60091600D01*
X124822487Y-69905600D02*
X124822487Y-66239600D01*
X124862487Y-63757600D02*
X124862487Y-60080600D01*
X124862487Y-69916600D02*
X124862487Y-66239600D01*
X124902487Y-69926600D02*
X124902487Y-60070600D01*
X124942487Y-69936600D02*
X124942487Y-60060600D01*
X124982487Y-69945600D02*
X124982487Y-60051600D01*
X125022487Y-69954600D02*
X125022487Y-60042600D01*
X125062487Y-69963600D02*
X125062487Y-60033600D01*
X125102487Y-69972600D02*
X125102487Y-60024600D01*
X125142487Y-69980600D02*
X125142487Y-60016600D01*
X125182487Y-69988600D02*
X125182487Y-60008600D01*
X125222487Y-69995600D02*
X125222487Y-60001600D01*
X125262487Y-70002600D02*
X125262487Y-59994600D01*
X125302487Y-70009600D02*
X125302487Y-59987600D01*
X125342487Y-70016600D02*
X125342487Y-59980600D01*
X125382487Y-70022600D02*
X125382487Y-59974600D01*
X125422487Y-70028600D02*
X125422487Y-59968600D01*
X125463487Y-70033600D02*
X125463487Y-59963600D01*
X125503487Y-70038600D02*
X125503487Y-59958600D01*
X125543487Y-70043600D02*
X125543487Y-59953600D01*
X125583487Y-70048600D02*
X125583487Y-59948600D01*
X125623487Y-70052600D02*
X125623487Y-59944600D01*
X125663487Y-70056600D02*
X125663487Y-59940600D01*
X125703487Y-70060600D02*
X125703487Y-59936600D01*
X125743487Y-70063600D02*
X125743487Y-59933600D01*
X125783487Y-70066600D02*
X125783487Y-59930600D01*
X125823487Y-70068600D02*
X125823487Y-59928600D01*
X125863487Y-70071600D02*
X125863487Y-59925600D01*
X125903487Y-70073600D02*
X125903487Y-59923600D01*
X125943487Y-70075600D02*
X125943487Y-59921600D01*
X125983487Y-70076600D02*
X125983487Y-59920600D01*
X126023487Y-70077600D02*
X126023487Y-59919600D01*
X126063487Y-70078600D02*
X126063487Y-59918600D01*
X126103487Y-70078600D02*
X126103487Y-59918600D01*
X126143487Y-70078600D02*
X126143487Y-59918600D01*
X131123133Y-68373600D02*
X131123133Y-67373600D01*
X131623133Y-67873600D02*
X130623133Y-67873600D01*
X131263487Y-64998600D02*
G75*
G02*
X121023487Y-64998600I-5120000J0D01*
G01*
X121023487Y-64998600D02*
G75*
G02*
X131263487Y-64998600I5120000J0D01*
G01*
%TO.C,R35*%
X117067359Y-104293400D02*
X117374641Y-104293400D01*
X117067359Y-105053400D02*
X117374641Y-105053400D01*
%TO.C,C14*%
X129889862Y-84532800D02*
X129367358Y-84532800D01*
X129889862Y-86002800D02*
X129367358Y-86002800D01*
%TO.C,C40*%
X116168462Y-58424400D02*
X114745958Y-58424400D01*
X116168462Y-60244400D02*
X114745958Y-60244400D01*
%TO.C,R27*%
X140737068Y-75601300D02*
X140262552Y-75601300D01*
X140737068Y-76646300D02*
X140262552Y-76646300D01*
%TO.C,C62*%
X156880810Y-93097133D02*
X156880810Y-93389667D01*
X157900810Y-93097133D02*
X157900810Y-93389667D01*
%TO.C,C26*%
X132293610Y-89333420D02*
X132293610Y-89614580D01*
X133313610Y-89333420D02*
X133313610Y-89614580D01*
%TO.C,C33*%
X141158210Y-79617180D02*
X141158210Y-79336020D01*
X142178210Y-79617180D02*
X142178210Y-79336020D01*
%TO.C,C27*%
X133846610Y-89502348D02*
X133846610Y-90024852D01*
X135316610Y-89502348D02*
X135316610Y-90024852D01*
%TO.C,J8*%
X133099210Y-62982800D02*
X133099210Y-68182800D01*
X145859210Y-62982800D02*
X133099210Y-62982800D01*
X145859210Y-62982800D02*
X145859210Y-65582800D01*
X145859210Y-65582800D02*
X148459210Y-65582800D01*
X147129210Y-62982800D02*
X148459210Y-62982800D01*
X148459210Y-62982800D02*
X148459210Y-64312800D01*
X148459210Y-65582800D02*
X148459210Y-68182800D01*
X148459210Y-68182800D02*
X133099210Y-68182800D01*
%TO.C,R26*%
X131926841Y-104293400D02*
X131619559Y-104293400D01*
X131926841Y-105053400D02*
X131619559Y-105053400D01*
%TO.C,C41*%
X152334210Y-88780233D02*
X152334210Y-89072767D01*
X153354210Y-88780233D02*
X153354210Y-89072767D01*
%TO.C,R18*%
X118189074Y-75874200D02*
X116734946Y-75874200D01*
X118189074Y-77694200D02*
X116734946Y-77694200D01*
%TO.C,R25*%
X135700746Y-70512000D02*
X136154874Y-70512000D01*
X135700746Y-71982000D02*
X136154874Y-71982000D01*
%TO.C,R21*%
X118138274Y-60989800D02*
X116684146Y-60989800D01*
X118138274Y-62809800D02*
X116684146Y-62809800D01*
%TO.C,C7*%
X119068964Y-104288000D02*
X119284636Y-104288000D01*
X119068964Y-105008000D02*
X119284636Y-105008000D01*
%TO.C,C4*%
X127781164Y-104313400D02*
X127996836Y-104313400D01*
X127781164Y-105033400D02*
X127996836Y-105033400D01*
%TO.C,R32*%
X140588241Y-104293400D02*
X140280959Y-104293400D01*
X140588241Y-105053400D02*
X140280959Y-105053400D01*
%TO.C,R20*%
X118163674Y-65815800D02*
X116709546Y-65815800D01*
X118163674Y-67635800D02*
X116709546Y-67635800D01*
D17*
%TO.C,U4*%
X131856510Y-77367391D02*
X131856510Y-77777151D01*
X131856510Y-84222031D02*
X131856510Y-84631791D01*
X131856510Y-84631791D02*
X132266270Y-84631791D01*
X132266270Y-77367391D02*
X131856510Y-77367391D01*
X138711150Y-84631791D02*
X139120910Y-84631791D01*
X139120910Y-77367391D02*
X138711150Y-77367391D01*
X139120910Y-77777151D02*
X139120910Y-77367391D01*
X139120910Y-84631791D02*
X139120910Y-84222031D01*
D18*
G36*
X130383310Y-79940091D02*
G01*
X130129310Y-79940091D01*
X130129310Y-79559091D01*
X130383310Y-79559091D01*
X130383310Y-79940091D01*
G37*
G36*
X135929210Y-75894191D02*
G01*
X135548209Y-75894191D01*
X135548209Y-75640191D01*
X135929210Y-75640191D01*
X135929210Y-75894191D01*
G37*
G36*
X137429209Y-86358991D02*
G01*
X137048209Y-86358991D01*
X137048209Y-86104991D01*
X137429209Y-86104991D01*
X137429209Y-86358991D01*
G37*
G36*
X140848110Y-80440090D02*
G01*
X140594110Y-80440090D01*
X140594110Y-80059090D01*
X140848110Y-80059090D01*
X140848110Y-80440090D01*
G37*
D13*
%TO.C,C25*%
X134315790Y-92835000D02*
X134034630Y-92835000D01*
X134315790Y-93855000D02*
X134034630Y-93855000D01*
%TO.C,C28*%
X130265210Y-88984148D02*
X130265210Y-89506652D01*
X131735210Y-88984148D02*
X131735210Y-89506652D01*
%TO.C,J9*%
X120114210Y-97958600D02*
X120114210Y-103158600D01*
X132874210Y-97958600D02*
X120114210Y-97958600D01*
X132874210Y-97958600D02*
X132874210Y-100558600D01*
X132874210Y-100558600D02*
X135474210Y-100558600D01*
X134144210Y-97958600D02*
X135474210Y-97958600D01*
X135474210Y-97958600D02*
X135474210Y-99288600D01*
X135474210Y-100558600D02*
X135474210Y-103158600D01*
X135474210Y-103158600D02*
X120114210Y-103158600D01*
%TD*%
M02*
