M48
; DRILL file {KiCad 8.0.6} date 2026-02-16T15:05:04+0200
; FORMAT={-:-/ absolute / inch / decimal}
; #@! TF.CreationDate,2026-02-16T15:05:04+02:00
; #@! TF.GenerationSoftware,Kicad,Pcbnew,8.0.6
; #@! TF.FileFunction,Plated,1,4,PTH
FMAT,2
INCH
; #@! TA.AperFunction,Plated,PTH,ViaDrill
T1C0.0079
; #@! TA.AperFunction,Plated,PTH,ViaDrill
T2C0.0118
; #@! TA.AperFunction,Plated,PTH,ComponentDrill
T3C0.0197
; #@! TA.AperFunction,Plated,PTH,ComponentDrill
T4C0.0256
; #@! TA.AperFunction,Plated,PTH,ComponentDrill
T5C0.0394
; #@! TA.AperFunction,Plated,PTH,ComponentDrill
T6C0.0453
; #@! TA.AperFunction,Plated,PTH,ComponentDrill
T7C0.0500
; #@! TA.AperFunction,Plated,PTH,ComponentDrill
T8C0.0728
%
G90
G05
T1
X2.378Y-3.8331
X2.378Y-3.8709
X2.441Y-3.35
X2.474Y-3.142
X2.482Y-3.402
X2.4934Y-3.8426
X2.5198Y-3.402
X2.5947Y-3.453
X2.595Y-3.4909
X2.702Y-3.416
X2.702Y-3.455
X2.7249Y-3.294
X2.794Y-3.2131
X2.794Y-3.2509
X2.7988Y-3.4252
X2.7991Y-3.4627
X2.862Y-3.553
X2.969Y-2.8279
X2.969Y-2.8678
X2.969Y-2.906
X2.974Y-3.484
X3.002Y-3.1551
X3.002Y-3.1929
X3.012Y-2.8683
X3.012Y-2.9065
X3.0418Y-3.0457
X3.0808Y-3.2482
X3.092Y-3.3208
X3.0998Y-3.0342
X3.1098Y-3.1482
X3.1188Y-2.8382
X3.206Y-3.464
X3.223Y-3.419
X3.227Y-3.23
X3.234Y-3.478
X3.273Y-3.542
X3.287Y-3.05
X3.2891Y-3.082
X3.311Y-3.542
X3.325Y-3.496
X3.326Y-3.082
X3.333Y-3.133
X3.344Y-3.004
X3.401Y-2.996
X3.404Y-3.303
T2
X1.832Y-3.6525
X1.87Y-3.314
X1.87Y-3.382
X1.932Y-3.3135
X1.932Y-3.3814
X1.95Y-3.1873
X2.003Y-3.3814
X2.004Y-3.3125
X2.049Y-3.1873
X2.074Y-3.3208
X2.159Y-3.772
X2.2Y-3.378
X2.231Y-3.759
X2.2312Y-3.824
X2.3079Y-3.4668
X2.3117Y-3.826
X2.378Y-3.758
X2.4727Y-3.494
X2.474Y-3.218
X2.5187Y-3.496
X2.5547Y-3.412
X2.5587Y-3.082
X2.5757Y-3.2577
X2.5757Y-3.2887
X2.5757Y-3.3187
X2.5847Y-3.108
X2.5947Y-3.408
X2.6077Y-3.2577
X2.6077Y-3.2887
X2.6077Y-3.3187
X2.6107Y-3.136
X2.6167Y-3.0417
X2.6397Y-3.2577
X2.6397Y-3.2887
X2.6397Y-3.3187
X2.6617Y-3.1227
X2.6708Y-3.7352
X2.7077Y-3.0387
X2.742Y-3.51
X2.7427Y-3.1407
X2.7437Y-3.0347
X2.746Y-2.7943
X2.746Y-2.876
X2.788Y-3.366
X2.7998Y-3.1692
X2.8007Y-3.136
X2.8106Y-3.6792
X2.818Y-2.897
X2.82Y-3.105
X2.8269Y-2.8002
X2.85Y-2.977
X2.861Y-3.105
X2.8667Y-3.07
X2.8767Y-3.01
X2.8854Y-3.6792
X2.889Y-2.86
X2.901Y-2.981
X2.9047Y-3.066
X2.9068Y-3.5752
X2.9086Y-2.8002
X2.936Y-3.308
X2.9928Y-2.9852
X3.0187Y-3.026
X3.029Y-3.457
X3.0407Y-3.1497
X3.0647Y-2.9277
X3.106Y-3.194
X3.114Y-3.484
X3.1231Y-2.9464
X3.1377Y-3.225
X3.17Y-3.484
X3.1782Y-2.9897
X3.1981Y-3.3136
X3.2378Y-2.892
X3.2417Y-3.1707
X3.2517Y-3.2457
X3.26Y-3.604
T4
X3.417Y-3.0544
X3.417Y-3.1044
X3.417Y-3.155
X3.417Y-3.205
X3.417Y-3.255
T5
X2.3117Y-3.9642
X2.3117Y-4.0642
X2.4117Y-3.9642
X2.4117Y-4.0642
X2.5117Y-3.9642
X2.5117Y-4.0642
X2.6117Y-3.9642
X2.6117Y-4.0642
X2.7117Y-3.9642
X2.7117Y-4.0642
X2.8117Y-3.9642
X2.8117Y-4.0642
X2.8229Y-2.5862
X2.8229Y-2.6862
X2.9229Y-2.5862
X2.9229Y-2.6862
X3.0229Y-2.5862
X3.0229Y-2.6862
X3.1229Y-2.5862
X3.1229Y-2.6862
X3.2229Y-2.5862
X3.2229Y-2.6862
X3.3229Y-2.5862
X3.3229Y-2.6862
T6
X1.823Y-3.5618
X1.873Y-3.4618
X1.923Y-3.5618
X1.973Y-3.4618
X2.023Y-3.5618
X2.073Y-3.4618
X2.123Y-3.5618
X2.173Y-3.4618
T7
X1.749Y-3.05
X1.849Y-3.05
X2.147Y-3.05
X2.247Y-3.05
T8
X1.6848Y-3.365
X2.3112Y-3.365
T3
G00X2.5072Y-3.6847
M15
G01X2.4796Y-3.6847
M16
G05
G00X2.6253Y-3.6
M15
G01X2.582Y-3.6
M16
G05
G00X2.7276Y-3.6847
M15
G01X2.7001Y-3.6847
M16
G05
M30
