%TF.GenerationSoftware,KiCad,Pcbnew,8.0.6*%
%TF.CreationDate,2026-02-16T15:05:02+02:00*%
%TF.ProjectId,ETH_TMC_shield,4554485f-544d-4435-9f73-6869656c642e,rev?*%
%TF.SameCoordinates,Original*%
%TF.FileFunction,Legend,Bot*%
%TF.FilePolarity,Positive*%
%FSLAX46Y46*%
G04 Gerber Fmt 4.6, Leading zero omitted, Abs format (unit mm)*
G04 Created by KiCad (PCBNEW 8.0.6) date 2026-02-16 15:05:02*
%MOMM*%
%LPD*%
G01*
G04 APERTURE LIST*
%ADD10C,0.125000*%
%ADD11C,0.150000*%
%ADD12C,0.120000*%
G04 APERTURE END LIST*
D10*
X48868940Y-82291670D02*
X48892750Y-82267861D01*
X48892750Y-82267861D02*
X48916559Y-82196432D01*
X48916559Y-82196432D02*
X48916559Y-82148813D01*
X48916559Y-82148813D02*
X48892750Y-82077385D01*
X48892750Y-82077385D02*
X48845130Y-82029766D01*
X48845130Y-82029766D02*
X48797511Y-82005956D01*
X48797511Y-82005956D02*
X48702273Y-81982147D01*
X48702273Y-81982147D02*
X48630845Y-81982147D01*
X48630845Y-81982147D02*
X48535607Y-82005956D01*
X48535607Y-82005956D02*
X48487988Y-82029766D01*
X48487988Y-82029766D02*
X48440369Y-82077385D01*
X48440369Y-82077385D02*
X48416559Y-82148813D01*
X48416559Y-82148813D02*
X48416559Y-82196432D01*
X48416559Y-82196432D02*
X48440369Y-82267861D01*
X48440369Y-82267861D02*
X48464178Y-82291670D01*
X48416559Y-82744051D02*
X48416559Y-82505956D01*
X48416559Y-82505956D02*
X48654654Y-82482147D01*
X48654654Y-82482147D02*
X48630845Y-82505956D01*
X48630845Y-82505956D02*
X48607035Y-82553575D01*
X48607035Y-82553575D02*
X48607035Y-82672623D01*
X48607035Y-82672623D02*
X48630845Y-82720242D01*
X48630845Y-82720242D02*
X48654654Y-82744051D01*
X48654654Y-82744051D02*
X48702273Y-82767861D01*
X48702273Y-82767861D02*
X48821321Y-82767861D01*
X48821321Y-82767861D02*
X48868940Y-82744051D01*
X48868940Y-82744051D02*
X48892750Y-82720242D01*
X48892750Y-82720242D02*
X48916559Y-82672623D01*
X48916559Y-82672623D02*
X48916559Y-82553575D01*
X48916559Y-82553575D02*
X48892750Y-82505956D01*
X48892750Y-82505956D02*
X48868940Y-82482147D01*
X48416559Y-83220241D02*
X48416559Y-82982146D01*
X48416559Y-82982146D02*
X48654654Y-82958337D01*
X48654654Y-82958337D02*
X48630845Y-82982146D01*
X48630845Y-82982146D02*
X48607035Y-83029765D01*
X48607035Y-83029765D02*
X48607035Y-83148813D01*
X48607035Y-83148813D02*
X48630845Y-83196432D01*
X48630845Y-83196432D02*
X48654654Y-83220241D01*
X48654654Y-83220241D02*
X48702273Y-83244051D01*
X48702273Y-83244051D02*
X48821321Y-83244051D01*
X48821321Y-83244051D02*
X48868940Y-83220241D01*
X48868940Y-83220241D02*
X48892750Y-83196432D01*
X48892750Y-83196432D02*
X48916559Y-83148813D01*
X48916559Y-83148813D02*
X48916559Y-83029765D01*
X48916559Y-83029765D02*
X48892750Y-82982146D01*
X48892750Y-82982146D02*
X48868940Y-82958337D01*
X58118228Y-89424809D02*
X58284894Y-89186714D01*
X58403942Y-89424809D02*
X58403942Y-88924809D01*
X58403942Y-88924809D02*
X58213466Y-88924809D01*
X58213466Y-88924809D02*
X58165847Y-88948619D01*
X58165847Y-88948619D02*
X58142037Y-88972428D01*
X58142037Y-88972428D02*
X58118228Y-89020047D01*
X58118228Y-89020047D02*
X58118228Y-89091476D01*
X58118228Y-89091476D02*
X58142037Y-89139095D01*
X58142037Y-89139095D02*
X58165847Y-89162904D01*
X58165847Y-89162904D02*
X58213466Y-89186714D01*
X58213466Y-89186714D02*
X58403942Y-89186714D01*
X57689656Y-89091476D02*
X57689656Y-89424809D01*
X57808704Y-88901000D02*
X57927751Y-89258142D01*
X57927751Y-89258142D02*
X57618228Y-89258142D01*
X57451561Y-88972428D02*
X57427752Y-88948619D01*
X57427752Y-88948619D02*
X57380133Y-88924809D01*
X57380133Y-88924809D02*
X57261085Y-88924809D01*
X57261085Y-88924809D02*
X57213466Y-88948619D01*
X57213466Y-88948619D02*
X57189657Y-88972428D01*
X57189657Y-88972428D02*
X57165847Y-89020047D01*
X57165847Y-89020047D02*
X57165847Y-89067666D01*
X57165847Y-89067666D02*
X57189657Y-89139095D01*
X57189657Y-89139095D02*
X57475371Y-89424809D01*
X57475371Y-89424809D02*
X57165847Y-89424809D01*
X50237009Y-93044171D02*
X49998914Y-92877505D01*
X50237009Y-92758457D02*
X49737009Y-92758457D01*
X49737009Y-92758457D02*
X49737009Y-92948933D01*
X49737009Y-92948933D02*
X49760819Y-92996552D01*
X49760819Y-92996552D02*
X49784628Y-93020362D01*
X49784628Y-93020362D02*
X49832247Y-93044171D01*
X49832247Y-93044171D02*
X49903676Y-93044171D01*
X49903676Y-93044171D02*
X49951295Y-93020362D01*
X49951295Y-93020362D02*
X49975104Y-92996552D01*
X49975104Y-92996552D02*
X49998914Y-92948933D01*
X49998914Y-92948933D02*
X49998914Y-92758457D01*
X49903676Y-93472743D02*
X50237009Y-93472743D01*
X49713200Y-93353695D02*
X50070342Y-93234648D01*
X50070342Y-93234648D02*
X50070342Y-93544171D01*
X49903676Y-93948933D02*
X50237009Y-93948933D01*
X49713200Y-93829885D02*
X50070342Y-93710838D01*
X50070342Y-93710838D02*
X50070342Y-94020361D01*
X52701159Y-92375470D02*
X52463064Y-92208804D01*
X52701159Y-92089756D02*
X52201159Y-92089756D01*
X52201159Y-92089756D02*
X52201159Y-92280232D01*
X52201159Y-92280232D02*
X52224969Y-92327851D01*
X52224969Y-92327851D02*
X52248778Y-92351661D01*
X52248778Y-92351661D02*
X52296397Y-92375470D01*
X52296397Y-92375470D02*
X52367826Y-92375470D01*
X52367826Y-92375470D02*
X52415445Y-92351661D01*
X52415445Y-92351661D02*
X52439254Y-92327851D01*
X52439254Y-92327851D02*
X52463064Y-92280232D01*
X52463064Y-92280232D02*
X52463064Y-92089756D01*
X52367826Y-92804042D02*
X52701159Y-92804042D01*
X52177350Y-92684994D02*
X52534492Y-92565947D01*
X52534492Y-92565947D02*
X52534492Y-92875470D01*
X52201159Y-93018327D02*
X52201159Y-93327851D01*
X52201159Y-93327851D02*
X52391635Y-93161184D01*
X52391635Y-93161184D02*
X52391635Y-93232613D01*
X52391635Y-93232613D02*
X52415445Y-93280232D01*
X52415445Y-93280232D02*
X52439254Y-93304041D01*
X52439254Y-93304041D02*
X52486873Y-93327851D01*
X52486873Y-93327851D02*
X52605921Y-93327851D01*
X52605921Y-93327851D02*
X52653540Y-93304041D01*
X52653540Y-93304041D02*
X52677350Y-93280232D01*
X52677350Y-93280232D02*
X52701159Y-93232613D01*
X52701159Y-93232613D02*
X52701159Y-93089756D01*
X52701159Y-93089756D02*
X52677350Y-93042137D01*
X52677350Y-93042137D02*
X52653540Y-93018327D01*
D11*
X68899066Y-82867180D02*
X68946685Y-82914800D01*
X68946685Y-82914800D02*
X69089542Y-82962419D01*
X69089542Y-82962419D02*
X69184780Y-82962419D01*
X69184780Y-82962419D02*
X69327637Y-82914800D01*
X69327637Y-82914800D02*
X69422875Y-82819561D01*
X69422875Y-82819561D02*
X69470494Y-82724323D01*
X69470494Y-82724323D02*
X69518113Y-82533847D01*
X69518113Y-82533847D02*
X69518113Y-82390990D01*
X69518113Y-82390990D02*
X69470494Y-82200514D01*
X69470494Y-82200514D02*
X69422875Y-82105276D01*
X69422875Y-82105276D02*
X69327637Y-82010038D01*
X69327637Y-82010038D02*
X69184780Y-81962419D01*
X69184780Y-81962419D02*
X69089542Y-81962419D01*
X69089542Y-81962419D02*
X68946685Y-82010038D01*
X68946685Y-82010038D02*
X68899066Y-82057657D01*
X68518113Y-82057657D02*
X68470494Y-82010038D01*
X68470494Y-82010038D02*
X68375256Y-81962419D01*
X68375256Y-81962419D02*
X68137161Y-81962419D01*
X68137161Y-81962419D02*
X68041923Y-82010038D01*
X68041923Y-82010038D02*
X67994304Y-82057657D01*
X67994304Y-82057657D02*
X67946685Y-82152895D01*
X67946685Y-82152895D02*
X67946685Y-82248133D01*
X67946685Y-82248133D02*
X67994304Y-82390990D01*
X67994304Y-82390990D02*
X68565732Y-82962419D01*
X68565732Y-82962419D02*
X67946685Y-82962419D01*
D10*
X76780409Y-70757266D02*
X76542314Y-70590600D01*
X76780409Y-70471552D02*
X76280409Y-70471552D01*
X76280409Y-70471552D02*
X76280409Y-70662028D01*
X76280409Y-70662028D02*
X76304219Y-70709647D01*
X76304219Y-70709647D02*
X76328028Y-70733457D01*
X76328028Y-70733457D02*
X76375647Y-70757266D01*
X76375647Y-70757266D02*
X76447076Y-70757266D01*
X76447076Y-70757266D02*
X76494695Y-70733457D01*
X76494695Y-70733457D02*
X76518504Y-70709647D01*
X76518504Y-70709647D02*
X76542314Y-70662028D01*
X76542314Y-70662028D02*
X76542314Y-70471552D01*
X76328028Y-70947743D02*
X76304219Y-70971552D01*
X76304219Y-70971552D02*
X76280409Y-71019171D01*
X76280409Y-71019171D02*
X76280409Y-71138219D01*
X76280409Y-71138219D02*
X76304219Y-71185838D01*
X76304219Y-71185838D02*
X76328028Y-71209647D01*
X76328028Y-71209647D02*
X76375647Y-71233457D01*
X76375647Y-71233457D02*
X76423266Y-71233457D01*
X76423266Y-71233457D02*
X76494695Y-71209647D01*
X76494695Y-71209647D02*
X76780409Y-70923933D01*
X76780409Y-70923933D02*
X76780409Y-71233457D01*
X46025379Y-94119039D02*
X46049188Y-94142849D01*
X46049188Y-94142849D02*
X46120617Y-94166658D01*
X46120617Y-94166658D02*
X46168236Y-94166658D01*
X46168236Y-94166658D02*
X46239664Y-94142849D01*
X46239664Y-94142849D02*
X46287283Y-94095229D01*
X46287283Y-94095229D02*
X46311093Y-94047610D01*
X46311093Y-94047610D02*
X46334902Y-93952372D01*
X46334902Y-93952372D02*
X46334902Y-93880944D01*
X46334902Y-93880944D02*
X46311093Y-93785706D01*
X46311093Y-93785706D02*
X46287283Y-93738087D01*
X46287283Y-93738087D02*
X46239664Y-93690468D01*
X46239664Y-93690468D02*
X46168236Y-93666658D01*
X46168236Y-93666658D02*
X46120617Y-93666658D01*
X46120617Y-93666658D02*
X46049188Y-93690468D01*
X46049188Y-93690468D02*
X46025379Y-93714277D01*
X45572998Y-93666658D02*
X45811093Y-93666658D01*
X45811093Y-93666658D02*
X45834902Y-93904753D01*
X45834902Y-93904753D02*
X45811093Y-93880944D01*
X45811093Y-93880944D02*
X45763474Y-93857134D01*
X45763474Y-93857134D02*
X45644426Y-93857134D01*
X45644426Y-93857134D02*
X45596807Y-93880944D01*
X45596807Y-93880944D02*
X45572998Y-93904753D01*
X45572998Y-93904753D02*
X45549188Y-93952372D01*
X45549188Y-93952372D02*
X45549188Y-94071420D01*
X45549188Y-94071420D02*
X45572998Y-94119039D01*
X45572998Y-94119039D02*
X45596807Y-94142849D01*
X45596807Y-94142849D02*
X45644426Y-94166658D01*
X45644426Y-94166658D02*
X45763474Y-94166658D01*
X45763474Y-94166658D02*
X45811093Y-94142849D01*
X45811093Y-94142849D02*
X45834902Y-94119039D01*
X45358712Y-93714277D02*
X45334903Y-93690468D01*
X45334903Y-93690468D02*
X45287284Y-93666658D01*
X45287284Y-93666658D02*
X45168236Y-93666658D01*
X45168236Y-93666658D02*
X45120617Y-93690468D01*
X45120617Y-93690468D02*
X45096808Y-93714277D01*
X45096808Y-93714277D02*
X45072998Y-93761896D01*
X45072998Y-93761896D02*
X45072998Y-93809515D01*
X45072998Y-93809515D02*
X45096808Y-93880944D01*
X45096808Y-93880944D02*
X45382522Y-94166658D01*
X45382522Y-94166658D02*
X45072998Y-94166658D01*
X47675190Y-82228571D02*
X47699000Y-82204762D01*
X47699000Y-82204762D02*
X47722809Y-82133333D01*
X47722809Y-82133333D02*
X47722809Y-82085714D01*
X47722809Y-82085714D02*
X47699000Y-82014286D01*
X47699000Y-82014286D02*
X47651380Y-81966667D01*
X47651380Y-81966667D02*
X47603761Y-81942857D01*
X47603761Y-81942857D02*
X47508523Y-81919048D01*
X47508523Y-81919048D02*
X47437095Y-81919048D01*
X47437095Y-81919048D02*
X47341857Y-81942857D01*
X47341857Y-81942857D02*
X47294238Y-81966667D01*
X47294238Y-81966667D02*
X47246619Y-82014286D01*
X47246619Y-82014286D02*
X47222809Y-82085714D01*
X47222809Y-82085714D02*
X47222809Y-82133333D01*
X47222809Y-82133333D02*
X47246619Y-82204762D01*
X47246619Y-82204762D02*
X47270428Y-82228571D01*
X47222809Y-82680952D02*
X47222809Y-82442857D01*
X47222809Y-82442857D02*
X47460904Y-82419048D01*
X47460904Y-82419048D02*
X47437095Y-82442857D01*
X47437095Y-82442857D02*
X47413285Y-82490476D01*
X47413285Y-82490476D02*
X47413285Y-82609524D01*
X47413285Y-82609524D02*
X47437095Y-82657143D01*
X47437095Y-82657143D02*
X47460904Y-82680952D01*
X47460904Y-82680952D02*
X47508523Y-82704762D01*
X47508523Y-82704762D02*
X47627571Y-82704762D01*
X47627571Y-82704762D02*
X47675190Y-82680952D01*
X47675190Y-82680952D02*
X47699000Y-82657143D01*
X47699000Y-82657143D02*
X47722809Y-82609524D01*
X47722809Y-82609524D02*
X47722809Y-82490476D01*
X47722809Y-82490476D02*
X47699000Y-82442857D01*
X47699000Y-82442857D02*
X47675190Y-82419048D01*
X47389476Y-83133333D02*
X47722809Y-83133333D01*
X47199000Y-83014285D02*
X47556142Y-82895238D01*
X47556142Y-82895238D02*
X47556142Y-83204761D01*
X75615190Y-80016171D02*
X75639000Y-79992362D01*
X75639000Y-79992362D02*
X75662809Y-79920933D01*
X75662809Y-79920933D02*
X75662809Y-79873314D01*
X75662809Y-79873314D02*
X75639000Y-79801886D01*
X75639000Y-79801886D02*
X75591380Y-79754267D01*
X75591380Y-79754267D02*
X75543761Y-79730457D01*
X75543761Y-79730457D02*
X75448523Y-79706648D01*
X75448523Y-79706648D02*
X75377095Y-79706648D01*
X75377095Y-79706648D02*
X75281857Y-79730457D01*
X75281857Y-79730457D02*
X75234238Y-79754267D01*
X75234238Y-79754267D02*
X75186619Y-79801886D01*
X75186619Y-79801886D02*
X75162809Y-79873314D01*
X75162809Y-79873314D02*
X75162809Y-79920933D01*
X75162809Y-79920933D02*
X75186619Y-79992362D01*
X75186619Y-79992362D02*
X75210428Y-80016171D01*
X75162809Y-80182838D02*
X75162809Y-80492362D01*
X75162809Y-80492362D02*
X75353285Y-80325695D01*
X75353285Y-80325695D02*
X75353285Y-80397124D01*
X75353285Y-80397124D02*
X75377095Y-80444743D01*
X75377095Y-80444743D02*
X75400904Y-80468552D01*
X75400904Y-80468552D02*
X75448523Y-80492362D01*
X75448523Y-80492362D02*
X75567571Y-80492362D01*
X75567571Y-80492362D02*
X75615190Y-80468552D01*
X75615190Y-80468552D02*
X75639000Y-80444743D01*
X75639000Y-80444743D02*
X75662809Y-80397124D01*
X75662809Y-80397124D02*
X75662809Y-80254267D01*
X75662809Y-80254267D02*
X75639000Y-80206648D01*
X75639000Y-80206648D02*
X75615190Y-80182838D01*
X75162809Y-80659028D02*
X75162809Y-80992361D01*
X75162809Y-80992361D02*
X75662809Y-80778076D01*
X75522447Y-93168609D02*
X75522447Y-92668609D01*
X75522447Y-92668609D02*
X75403399Y-92668609D01*
X75403399Y-92668609D02*
X75331971Y-92692419D01*
X75331971Y-92692419D02*
X75284352Y-92740038D01*
X75284352Y-92740038D02*
X75260542Y-92787657D01*
X75260542Y-92787657D02*
X75236733Y-92882895D01*
X75236733Y-92882895D02*
X75236733Y-92954323D01*
X75236733Y-92954323D02*
X75260542Y-93049561D01*
X75260542Y-93049561D02*
X75284352Y-93097180D01*
X75284352Y-93097180D02*
X75331971Y-93144800D01*
X75331971Y-93144800D02*
X75403399Y-93168609D01*
X75403399Y-93168609D02*
X75522447Y-93168609D01*
X74998637Y-93168609D02*
X74903399Y-93168609D01*
X74903399Y-93168609D02*
X74855780Y-93144800D01*
X74855780Y-93144800D02*
X74831971Y-93120990D01*
X74831971Y-93120990D02*
X74784352Y-93049561D01*
X74784352Y-93049561D02*
X74760542Y-92954323D01*
X74760542Y-92954323D02*
X74760542Y-92763847D01*
X74760542Y-92763847D02*
X74784352Y-92716228D01*
X74784352Y-92716228D02*
X74808161Y-92692419D01*
X74808161Y-92692419D02*
X74855780Y-92668609D01*
X74855780Y-92668609D02*
X74951018Y-92668609D01*
X74951018Y-92668609D02*
X74998637Y-92692419D01*
X74998637Y-92692419D02*
X75022447Y-92716228D01*
X75022447Y-92716228D02*
X75046256Y-92763847D01*
X75046256Y-92763847D02*
X75046256Y-92882895D01*
X75046256Y-92882895D02*
X75022447Y-92930514D01*
X75022447Y-92930514D02*
X74998637Y-92954323D01*
X74998637Y-92954323D02*
X74951018Y-92978133D01*
X74951018Y-92978133D02*
X74855780Y-92978133D01*
X74855780Y-92978133D02*
X74808161Y-92954323D01*
X74808161Y-92954323D02*
X74784352Y-92930514D01*
X74784352Y-92930514D02*
X74760542Y-92882895D01*
X80460479Y-84368690D02*
X80484288Y-84392500D01*
X80484288Y-84392500D02*
X80555717Y-84416309D01*
X80555717Y-84416309D02*
X80603336Y-84416309D01*
X80603336Y-84416309D02*
X80674764Y-84392500D01*
X80674764Y-84392500D02*
X80722383Y-84344880D01*
X80722383Y-84344880D02*
X80746193Y-84297261D01*
X80746193Y-84297261D02*
X80770002Y-84202023D01*
X80770002Y-84202023D02*
X80770002Y-84130595D01*
X80770002Y-84130595D02*
X80746193Y-84035357D01*
X80746193Y-84035357D02*
X80722383Y-83987738D01*
X80722383Y-83987738D02*
X80674764Y-83940119D01*
X80674764Y-83940119D02*
X80603336Y-83916309D01*
X80603336Y-83916309D02*
X80555717Y-83916309D01*
X80555717Y-83916309D02*
X80484288Y-83940119D01*
X80484288Y-83940119D02*
X80460479Y-83963928D01*
X80031907Y-84082976D02*
X80031907Y-84416309D01*
X80150955Y-83892500D02*
X80270002Y-84249642D01*
X80270002Y-84249642D02*
X79960479Y-84249642D01*
X79531908Y-83916309D02*
X79770003Y-83916309D01*
X79770003Y-83916309D02*
X79793812Y-84154404D01*
X79793812Y-84154404D02*
X79770003Y-84130595D01*
X79770003Y-84130595D02*
X79722384Y-84106785D01*
X79722384Y-84106785D02*
X79603336Y-84106785D01*
X79603336Y-84106785D02*
X79555717Y-84130595D01*
X79555717Y-84130595D02*
X79531908Y-84154404D01*
X79531908Y-84154404D02*
X79508098Y-84202023D01*
X79508098Y-84202023D02*
X79508098Y-84321071D01*
X79508098Y-84321071D02*
X79531908Y-84368690D01*
X79531908Y-84368690D02*
X79555717Y-84392500D01*
X79555717Y-84392500D02*
X79603336Y-84416309D01*
X79603336Y-84416309D02*
X79722384Y-84416309D01*
X79722384Y-84416309D02*
X79770003Y-84392500D01*
X79770003Y-84392500D02*
X79793812Y-84368690D01*
X78713990Y-85357066D02*
X78737800Y-85333257D01*
X78737800Y-85333257D02*
X78761609Y-85261828D01*
X78761609Y-85261828D02*
X78761609Y-85214209D01*
X78761609Y-85214209D02*
X78737800Y-85142781D01*
X78737800Y-85142781D02*
X78690180Y-85095162D01*
X78690180Y-85095162D02*
X78642561Y-85071352D01*
X78642561Y-85071352D02*
X78547323Y-85047543D01*
X78547323Y-85047543D02*
X78475895Y-85047543D01*
X78475895Y-85047543D02*
X78380657Y-85071352D01*
X78380657Y-85071352D02*
X78333038Y-85095162D01*
X78333038Y-85095162D02*
X78285419Y-85142781D01*
X78285419Y-85142781D02*
X78261609Y-85214209D01*
X78261609Y-85214209D02*
X78261609Y-85261828D01*
X78261609Y-85261828D02*
X78285419Y-85333257D01*
X78285419Y-85333257D02*
X78309228Y-85357066D01*
X78428276Y-85785638D02*
X78761609Y-85785638D01*
X78237800Y-85666590D02*
X78594942Y-85547543D01*
X78594942Y-85547543D02*
X78594942Y-85857066D01*
X48611759Y-79853270D02*
X48373664Y-79686604D01*
X48611759Y-79567556D02*
X48111759Y-79567556D01*
X48111759Y-79567556D02*
X48111759Y-79758032D01*
X48111759Y-79758032D02*
X48135569Y-79805651D01*
X48135569Y-79805651D02*
X48159378Y-79829461D01*
X48159378Y-79829461D02*
X48206997Y-79853270D01*
X48206997Y-79853270D02*
X48278426Y-79853270D01*
X48278426Y-79853270D02*
X48326045Y-79829461D01*
X48326045Y-79829461D02*
X48349854Y-79805651D01*
X48349854Y-79805651D02*
X48373664Y-79758032D01*
X48373664Y-79758032D02*
X48373664Y-79567556D01*
X48111759Y-80019937D02*
X48111759Y-80329461D01*
X48111759Y-80329461D02*
X48302235Y-80162794D01*
X48302235Y-80162794D02*
X48302235Y-80234223D01*
X48302235Y-80234223D02*
X48326045Y-80281842D01*
X48326045Y-80281842D02*
X48349854Y-80305651D01*
X48349854Y-80305651D02*
X48397473Y-80329461D01*
X48397473Y-80329461D02*
X48516521Y-80329461D01*
X48516521Y-80329461D02*
X48564140Y-80305651D01*
X48564140Y-80305651D02*
X48587950Y-80281842D01*
X48587950Y-80281842D02*
X48611759Y-80234223D01*
X48611759Y-80234223D02*
X48611759Y-80091366D01*
X48611759Y-80091366D02*
X48587950Y-80043747D01*
X48587950Y-80043747D02*
X48564140Y-80019937D01*
X48111759Y-80496127D02*
X48111759Y-80829460D01*
X48111759Y-80829460D02*
X48611759Y-80615175D01*
X54047009Y-84865371D02*
X53808914Y-84698705D01*
X54047009Y-84579657D02*
X53547009Y-84579657D01*
X53547009Y-84579657D02*
X53547009Y-84770133D01*
X53547009Y-84770133D02*
X53570819Y-84817752D01*
X53570819Y-84817752D02*
X53594628Y-84841562D01*
X53594628Y-84841562D02*
X53642247Y-84865371D01*
X53642247Y-84865371D02*
X53713676Y-84865371D01*
X53713676Y-84865371D02*
X53761295Y-84841562D01*
X53761295Y-84841562D02*
X53785104Y-84817752D01*
X53785104Y-84817752D02*
X53808914Y-84770133D01*
X53808914Y-84770133D02*
X53808914Y-84579657D01*
X53547009Y-85032038D02*
X53547009Y-85341562D01*
X53547009Y-85341562D02*
X53737485Y-85174895D01*
X53737485Y-85174895D02*
X53737485Y-85246324D01*
X53737485Y-85246324D02*
X53761295Y-85293943D01*
X53761295Y-85293943D02*
X53785104Y-85317752D01*
X53785104Y-85317752D02*
X53832723Y-85341562D01*
X53832723Y-85341562D02*
X53951771Y-85341562D01*
X53951771Y-85341562D02*
X53999390Y-85317752D01*
X53999390Y-85317752D02*
X54023200Y-85293943D01*
X54023200Y-85293943D02*
X54047009Y-85246324D01*
X54047009Y-85246324D02*
X54047009Y-85103467D01*
X54047009Y-85103467D02*
X54023200Y-85055848D01*
X54023200Y-85055848D02*
X53999390Y-85032038D01*
X53761295Y-85627276D02*
X53737485Y-85579657D01*
X53737485Y-85579657D02*
X53713676Y-85555847D01*
X53713676Y-85555847D02*
X53666057Y-85532038D01*
X53666057Y-85532038D02*
X53642247Y-85532038D01*
X53642247Y-85532038D02*
X53594628Y-85555847D01*
X53594628Y-85555847D02*
X53570819Y-85579657D01*
X53570819Y-85579657D02*
X53547009Y-85627276D01*
X53547009Y-85627276D02*
X53547009Y-85722514D01*
X53547009Y-85722514D02*
X53570819Y-85770133D01*
X53570819Y-85770133D02*
X53594628Y-85793942D01*
X53594628Y-85793942D02*
X53642247Y-85817752D01*
X53642247Y-85817752D02*
X53666057Y-85817752D01*
X53666057Y-85817752D02*
X53713676Y-85793942D01*
X53713676Y-85793942D02*
X53737485Y-85770133D01*
X53737485Y-85770133D02*
X53761295Y-85722514D01*
X53761295Y-85722514D02*
X53761295Y-85627276D01*
X53761295Y-85627276D02*
X53785104Y-85579657D01*
X53785104Y-85579657D02*
X53808914Y-85555847D01*
X53808914Y-85555847D02*
X53856533Y-85532038D01*
X53856533Y-85532038D02*
X53951771Y-85532038D01*
X53951771Y-85532038D02*
X53999390Y-85555847D01*
X53999390Y-85555847D02*
X54023200Y-85579657D01*
X54023200Y-85579657D02*
X54047009Y-85627276D01*
X54047009Y-85627276D02*
X54047009Y-85722514D01*
X54047009Y-85722514D02*
X54023200Y-85770133D01*
X54023200Y-85770133D02*
X53999390Y-85793942D01*
X53999390Y-85793942D02*
X53951771Y-85817752D01*
X53951771Y-85817752D02*
X53856533Y-85817752D01*
X53856533Y-85817752D02*
X53808914Y-85793942D01*
X53808914Y-85793942D02*
X53785104Y-85770133D01*
X53785104Y-85770133D02*
X53761295Y-85722514D01*
X50494540Y-82291670D02*
X50518350Y-82267861D01*
X50518350Y-82267861D02*
X50542159Y-82196432D01*
X50542159Y-82196432D02*
X50542159Y-82148813D01*
X50542159Y-82148813D02*
X50518350Y-82077385D01*
X50518350Y-82077385D02*
X50470730Y-82029766D01*
X50470730Y-82029766D02*
X50423111Y-82005956D01*
X50423111Y-82005956D02*
X50327873Y-81982147D01*
X50327873Y-81982147D02*
X50256445Y-81982147D01*
X50256445Y-81982147D02*
X50161207Y-82005956D01*
X50161207Y-82005956D02*
X50113588Y-82029766D01*
X50113588Y-82029766D02*
X50065969Y-82077385D01*
X50065969Y-82077385D02*
X50042159Y-82148813D01*
X50042159Y-82148813D02*
X50042159Y-82196432D01*
X50042159Y-82196432D02*
X50065969Y-82267861D01*
X50065969Y-82267861D02*
X50089778Y-82291670D01*
X50042159Y-82744051D02*
X50042159Y-82505956D01*
X50042159Y-82505956D02*
X50280254Y-82482147D01*
X50280254Y-82482147D02*
X50256445Y-82505956D01*
X50256445Y-82505956D02*
X50232635Y-82553575D01*
X50232635Y-82553575D02*
X50232635Y-82672623D01*
X50232635Y-82672623D02*
X50256445Y-82720242D01*
X50256445Y-82720242D02*
X50280254Y-82744051D01*
X50280254Y-82744051D02*
X50327873Y-82767861D01*
X50327873Y-82767861D02*
X50446921Y-82767861D01*
X50446921Y-82767861D02*
X50494540Y-82744051D01*
X50494540Y-82744051D02*
X50518350Y-82720242D01*
X50518350Y-82720242D02*
X50542159Y-82672623D01*
X50542159Y-82672623D02*
X50542159Y-82553575D01*
X50542159Y-82553575D02*
X50518350Y-82505956D01*
X50518350Y-82505956D02*
X50494540Y-82482147D01*
X50042159Y-82934527D02*
X50042159Y-83244051D01*
X50042159Y-83244051D02*
X50232635Y-83077384D01*
X50232635Y-83077384D02*
X50232635Y-83148813D01*
X50232635Y-83148813D02*
X50256445Y-83196432D01*
X50256445Y-83196432D02*
X50280254Y-83220241D01*
X50280254Y-83220241D02*
X50327873Y-83244051D01*
X50327873Y-83244051D02*
X50446921Y-83244051D01*
X50446921Y-83244051D02*
X50494540Y-83220241D01*
X50494540Y-83220241D02*
X50518350Y-83196432D01*
X50518350Y-83196432D02*
X50542159Y-83148813D01*
X50542159Y-83148813D02*
X50542159Y-83005956D01*
X50542159Y-83005956D02*
X50518350Y-82958337D01*
X50518350Y-82958337D02*
X50494540Y-82934527D01*
X56555878Y-94499689D02*
X56579687Y-94523499D01*
X56579687Y-94523499D02*
X56651116Y-94547308D01*
X56651116Y-94547308D02*
X56698735Y-94547308D01*
X56698735Y-94547308D02*
X56770163Y-94523499D01*
X56770163Y-94523499D02*
X56817782Y-94475879D01*
X56817782Y-94475879D02*
X56841592Y-94428260D01*
X56841592Y-94428260D02*
X56865401Y-94333022D01*
X56865401Y-94333022D02*
X56865401Y-94261594D01*
X56865401Y-94261594D02*
X56841592Y-94166356D01*
X56841592Y-94166356D02*
X56817782Y-94118737D01*
X56817782Y-94118737D02*
X56770163Y-94071118D01*
X56770163Y-94071118D02*
X56698735Y-94047308D01*
X56698735Y-94047308D02*
X56651116Y-94047308D01*
X56651116Y-94047308D02*
X56579687Y-94071118D01*
X56579687Y-94071118D02*
X56555878Y-94094927D01*
X56103497Y-94047308D02*
X56341592Y-94047308D01*
X56341592Y-94047308D02*
X56365401Y-94285403D01*
X56365401Y-94285403D02*
X56341592Y-94261594D01*
X56341592Y-94261594D02*
X56293973Y-94237784D01*
X56293973Y-94237784D02*
X56174925Y-94237784D01*
X56174925Y-94237784D02*
X56127306Y-94261594D01*
X56127306Y-94261594D02*
X56103497Y-94285403D01*
X56103497Y-94285403D02*
X56079687Y-94333022D01*
X56079687Y-94333022D02*
X56079687Y-94452070D01*
X56079687Y-94452070D02*
X56103497Y-94499689D01*
X56103497Y-94499689D02*
X56127306Y-94523499D01*
X56127306Y-94523499D02*
X56174925Y-94547308D01*
X56174925Y-94547308D02*
X56293973Y-94547308D01*
X56293973Y-94547308D02*
X56341592Y-94523499D01*
X56341592Y-94523499D02*
X56365401Y-94499689D01*
X55651116Y-94047308D02*
X55746354Y-94047308D01*
X55746354Y-94047308D02*
X55793973Y-94071118D01*
X55793973Y-94071118D02*
X55817783Y-94094927D01*
X55817783Y-94094927D02*
X55865402Y-94166356D01*
X55865402Y-94166356D02*
X55889211Y-94261594D01*
X55889211Y-94261594D02*
X55889211Y-94452070D01*
X55889211Y-94452070D02*
X55865402Y-94499689D01*
X55865402Y-94499689D02*
X55841592Y-94523499D01*
X55841592Y-94523499D02*
X55793973Y-94547308D01*
X55793973Y-94547308D02*
X55698735Y-94547308D01*
X55698735Y-94547308D02*
X55651116Y-94523499D01*
X55651116Y-94523499D02*
X55627307Y-94499689D01*
X55627307Y-94499689D02*
X55603497Y-94452070D01*
X55603497Y-94452070D02*
X55603497Y-94333022D01*
X55603497Y-94333022D02*
X55627307Y-94285403D01*
X55627307Y-94285403D02*
X55651116Y-94261594D01*
X55651116Y-94261594D02*
X55698735Y-94237784D01*
X55698735Y-94237784D02*
X55793973Y-94237784D01*
X55793973Y-94237784D02*
X55841592Y-94261594D01*
X55841592Y-94261594D02*
X55865402Y-94285403D01*
X55865402Y-94285403D02*
X55889211Y-94333022D01*
X75657609Y-70731866D02*
X75419514Y-70565200D01*
X75657609Y-70446152D02*
X75157609Y-70446152D01*
X75157609Y-70446152D02*
X75157609Y-70636628D01*
X75157609Y-70636628D02*
X75181419Y-70684247D01*
X75181419Y-70684247D02*
X75205228Y-70708057D01*
X75205228Y-70708057D02*
X75252847Y-70731866D01*
X75252847Y-70731866D02*
X75324276Y-70731866D01*
X75324276Y-70731866D02*
X75371895Y-70708057D01*
X75371895Y-70708057D02*
X75395704Y-70684247D01*
X75395704Y-70684247D02*
X75419514Y-70636628D01*
X75419514Y-70636628D02*
X75419514Y-70446152D01*
X75157609Y-70898533D02*
X75157609Y-71208057D01*
X75157609Y-71208057D02*
X75348085Y-71041390D01*
X75348085Y-71041390D02*
X75348085Y-71112819D01*
X75348085Y-71112819D02*
X75371895Y-71160438D01*
X75371895Y-71160438D02*
X75395704Y-71184247D01*
X75395704Y-71184247D02*
X75443323Y-71208057D01*
X75443323Y-71208057D02*
X75562371Y-71208057D01*
X75562371Y-71208057D02*
X75609990Y-71184247D01*
X75609990Y-71184247D02*
X75633800Y-71160438D01*
X75633800Y-71160438D02*
X75657609Y-71112819D01*
X75657609Y-71112819D02*
X75657609Y-70969962D01*
X75657609Y-70969962D02*
X75633800Y-70922343D01*
X75633800Y-70922343D02*
X75609990Y-70898533D01*
X53361559Y-79802470D02*
X53123464Y-79635804D01*
X53361559Y-79516756D02*
X52861559Y-79516756D01*
X52861559Y-79516756D02*
X52861559Y-79707232D01*
X52861559Y-79707232D02*
X52885369Y-79754851D01*
X52885369Y-79754851D02*
X52909178Y-79778661D01*
X52909178Y-79778661D02*
X52956797Y-79802470D01*
X52956797Y-79802470D02*
X53028226Y-79802470D01*
X53028226Y-79802470D02*
X53075845Y-79778661D01*
X53075845Y-79778661D02*
X53099654Y-79754851D01*
X53099654Y-79754851D02*
X53123464Y-79707232D01*
X53123464Y-79707232D02*
X53123464Y-79516756D01*
X52861559Y-79969137D02*
X52861559Y-80278661D01*
X52861559Y-80278661D02*
X53052035Y-80111994D01*
X53052035Y-80111994D02*
X53052035Y-80183423D01*
X53052035Y-80183423D02*
X53075845Y-80231042D01*
X53075845Y-80231042D02*
X53099654Y-80254851D01*
X53099654Y-80254851D02*
X53147273Y-80278661D01*
X53147273Y-80278661D02*
X53266321Y-80278661D01*
X53266321Y-80278661D02*
X53313940Y-80254851D01*
X53313940Y-80254851D02*
X53337750Y-80231042D01*
X53337750Y-80231042D02*
X53361559Y-80183423D01*
X53361559Y-80183423D02*
X53361559Y-80040566D01*
X53361559Y-80040566D02*
X53337750Y-79992947D01*
X53337750Y-79992947D02*
X53313940Y-79969137D01*
X52861559Y-80707232D02*
X52861559Y-80611994D01*
X52861559Y-80611994D02*
X52885369Y-80564375D01*
X52885369Y-80564375D02*
X52909178Y-80540565D01*
X52909178Y-80540565D02*
X52980607Y-80492946D01*
X52980607Y-80492946D02*
X53075845Y-80469137D01*
X53075845Y-80469137D02*
X53266321Y-80469137D01*
X53266321Y-80469137D02*
X53313940Y-80492946D01*
X53313940Y-80492946D02*
X53337750Y-80516756D01*
X53337750Y-80516756D02*
X53361559Y-80564375D01*
X53361559Y-80564375D02*
X53361559Y-80659613D01*
X53361559Y-80659613D02*
X53337750Y-80707232D01*
X53337750Y-80707232D02*
X53313940Y-80731041D01*
X53313940Y-80731041D02*
X53266321Y-80754851D01*
X53266321Y-80754851D02*
X53147273Y-80754851D01*
X53147273Y-80754851D02*
X53099654Y-80731041D01*
X53099654Y-80731041D02*
X53075845Y-80707232D01*
X53075845Y-80707232D02*
X53052035Y-80659613D01*
X53052035Y-80659613D02*
X53052035Y-80564375D01*
X53052035Y-80564375D02*
X53075845Y-80516756D01*
X53075845Y-80516756D02*
X53099654Y-80492946D01*
X53099654Y-80492946D02*
X53147273Y-80469137D01*
D12*
%TO.C,C55*%
X48562750Y-85171266D02*
X48562750Y-84878732D01*
X49582750Y-85171266D02*
X49582750Y-84878732D01*
%TO.C,R42*%
X57559542Y-87534500D02*
X58034058Y-87534500D01*
X57559542Y-88579500D02*
X58034058Y-88579500D01*
%TO.C,R44*%
X48346700Y-93128342D02*
X48346700Y-93602858D01*
X49391700Y-93128342D02*
X49391700Y-93602858D01*
%TO.C,R43*%
X50861300Y-93102942D02*
X50861300Y-93577458D01*
X51906300Y-93102942D02*
X51906300Y-93577458D01*
%TO.C,C2*%
X68624564Y-83307600D02*
X68840236Y-83307600D01*
X68624564Y-84027600D02*
X68840236Y-84027600D01*
%TO.C,R2*%
X76124800Y-72185559D02*
X76124800Y-72492841D01*
X76884800Y-72185559D02*
X76884800Y-72492841D01*
%TO.C,C52*%
X45815417Y-92263099D02*
X45522883Y-92263099D01*
X45815417Y-93283099D02*
X45522883Y-93283099D01*
%TO.C,C54*%
X46988000Y-85185467D02*
X46988000Y-84892933D01*
X48008000Y-85185467D02*
X48008000Y-84892933D01*
%TO.C,C37*%
X75890800Y-80727436D02*
X75890800Y-80511764D01*
X76610800Y-80727436D02*
X76610800Y-80511764D01*
%TO.C,D9*%
X71310200Y-92641800D02*
X74550200Y-92641800D01*
X71310200Y-94261800D02*
X74550200Y-94261800D01*
X74550200Y-94261800D02*
X74550200Y-92641800D01*
%TO.C,C45*%
X80856487Y-82967900D02*
X80640815Y-82967900D01*
X80856487Y-83687900D02*
X80640815Y-83687900D01*
%TO.C,C4*%
X78176800Y-83976036D02*
X78176800Y-83760364D01*
X78896800Y-83976036D02*
X78896800Y-83760364D01*
%TO.C,R37*%
X49007100Y-80369458D02*
X49007100Y-79894942D01*
X50052100Y-80369458D02*
X50052100Y-79894942D01*
%TO.C,R38*%
X52156700Y-85410858D02*
X52156700Y-84936342D01*
X53201700Y-85410858D02*
X53201700Y-84936342D01*
%TO.C,C53*%
X50391550Y-85146966D02*
X50391550Y-84854432D01*
X51411550Y-85146966D02*
X51411550Y-84854432D01*
%TO.C,C56*%
X53676283Y-93837899D02*
X53968817Y-93837899D01*
X53676283Y-94857899D02*
X53968817Y-94857899D01*
%TO.C,R3*%
X75032600Y-72492841D02*
X75032600Y-72185559D01*
X75792600Y-72492841D02*
X75792600Y-72185559D01*
%TO.C,R36*%
X51521700Y-80369458D02*
X51521700Y-79894942D01*
X52566700Y-80369458D02*
X52566700Y-79894942D01*
%TD*%
M02*
