%TF.GenerationSoftware,KiCad,Pcbnew,8.0.6*%
%TF.CreationDate,2026-02-16T15:05:02+02:00*%
%TF.ProjectId,ETH_TMC_shield,4554485f-544d-4435-9f73-6869656c642e,rev?*%
%TF.SameCoordinates,Original*%
%TF.FileFunction,Copper,L1,Top*%
%TF.FilePolarity,Positive*%
%FSLAX46Y46*%
G04 Gerber Fmt 4.6, Leading zero omitted, Abs format (unit mm)*
G04 Created by KiCad (PCBNEW 8.0.6) date 2026-02-16 15:05:02*
%MOMM*%
%LPD*%
G01*
G04 APERTURE LIST*
G04 Aperture macros list*
%AMRoundRect*
0 Rectangle with rounded corners*
0 $1 Rounding radius*
0 $2 $3 $4 $5 $6 $7 $8 $9 X,Y pos of 4 corners*
0 Add a 4 corners polygon primitive as box body*
4,1,4,$2,$3,$4,$5,$6,$7,$8,$9,$2,$3,0*
0 Add four circle primitives for the rounded corners*
1,1,$1+$1,$2,$3*
1,1,$1+$1,$4,$5*
1,1,$1+$1,$6,$7*
1,1,$1+$1,$8,$9*
0 Add four rect primitives between the rounded corners*
20,1,$1+$1,$2,$3,$4,$5,0*
20,1,$1+$1,$4,$5,$6,$7,0*
20,1,$1+$1,$6,$7,$8,$9,0*
20,1,$1+$1,$8,$9,$2,$3,0*%
G04 Aperture macros list end*
%TA.AperFunction,SMDPad,CuDef*%
%ADD10RoundRect,0.075000X-0.700000X0.075000X-0.700000X-0.075000X0.700000X-0.075000X0.700000X0.075000X0*%
%TD*%
%TA.AperFunction,SMDPad,CuDef*%
%ADD11RoundRect,0.075000X-0.075000X0.700000X-0.075000X-0.700000X0.075000X-0.700000X0.075000X0.700000X0*%
%TD*%
%TA.AperFunction,SMDPad,CuDef*%
%ADD12RoundRect,0.225000X-0.250000X0.225000X-0.250000X-0.225000X0.250000X-0.225000X0.250000X0.225000X0*%
%TD*%
%TA.AperFunction,SMDPad,CuDef*%
%ADD13RoundRect,0.135000X0.185000X-0.135000X0.185000X0.135000X-0.185000X0.135000X-0.185000X-0.135000X0*%
%TD*%
%TA.AperFunction,SMDPad,CuDef*%
%ADD14R,0.450000X1.500000*%
%TD*%
%TA.AperFunction,HeatsinkPad*%
%ADD15O,1.800000X1.100000*%
%TD*%
%TA.AperFunction,HeatsinkPad*%
%ADD16O,2.200000X1.100000*%
%TD*%
%TA.AperFunction,SMDPad,CuDef*%
%ADD17R,0.900000X0.800000*%
%TD*%
%TA.AperFunction,SMDPad,CuDef*%
%ADD18RoundRect,0.140000X-0.140000X-0.170000X0.140000X-0.170000X0.140000X0.170000X-0.140000X0.170000X0*%
%TD*%
%TA.AperFunction,SMDPad,CuDef*%
%ADD19RoundRect,0.250000X-0.337500X-0.475000X0.337500X-0.475000X0.337500X0.475000X-0.337500X0.475000X0*%
%TD*%
%TA.AperFunction,SMDPad,CuDef*%
%ADD20RoundRect,0.140000X0.140000X0.170000X-0.140000X0.170000X-0.140000X-0.170000X0.140000X-0.170000X0*%
%TD*%
%TA.AperFunction,SMDPad,CuDef*%
%ADD21RoundRect,0.147500X0.172500X-0.147500X0.172500X0.147500X-0.172500X0.147500X-0.172500X-0.147500X0*%
%TD*%
%TA.AperFunction,SMDPad,CuDef*%
%ADD22RoundRect,0.250000X-0.475000X0.337500X-0.475000X-0.337500X0.475000X-0.337500X0.475000X0.337500X0*%
%TD*%
%TA.AperFunction,ComponentPad*%
%ADD23R,1.725000X1.725000*%
%TD*%
%TA.AperFunction,ComponentPad*%
%ADD24C,1.725000*%
%TD*%
%TA.AperFunction,ComponentPad*%
%ADD25C,1.905000*%
%TD*%
%TA.AperFunction,ComponentPad*%
%ADD26C,2.775000*%
%TD*%
%TA.AperFunction,SMDPad,CuDef*%
%ADD27RoundRect,0.175000X0.175000X0.325000X-0.175000X0.325000X-0.175000X-0.325000X0.175000X-0.325000X0*%
%TD*%
%TA.AperFunction,SMDPad,CuDef*%
%ADD28RoundRect,0.150000X0.200000X0.150000X-0.200000X0.150000X-0.200000X-0.150000X0.200000X-0.150000X0*%
%TD*%
%TA.AperFunction,ComponentPad*%
%ADD29R,1.700000X1.700000*%
%TD*%
%TA.AperFunction,ComponentPad*%
%ADD30O,1.700000X1.700000*%
%TD*%
%TA.AperFunction,SMDPad,CuDef*%
%ADD31RoundRect,0.140000X0.170000X-0.140000X0.170000X0.140000X-0.170000X0.140000X-0.170000X-0.140000X0*%
%TD*%
%TA.AperFunction,ComponentPad*%
%ADD32R,1.000000X1.000000*%
%TD*%
%TA.AperFunction,ComponentPad*%
%ADD33O,1.000000X1.000000*%
%TD*%
%TA.AperFunction,SMDPad,CuDef*%
%ADD34RoundRect,0.135000X-0.135000X-0.185000X0.135000X-0.185000X0.135000X0.185000X-0.135000X0.185000X0*%
%TD*%
%TA.AperFunction,SMDPad,CuDef*%
%ADD35R,0.254000X0.762000*%
%TD*%
%TA.AperFunction,SMDPad,CuDef*%
%ADD36R,0.762000X0.254000*%
%TD*%
%TA.AperFunction,SMDPad,CuDef*%
%ADD37R,2.590800X2.590800*%
%TD*%
%TA.AperFunction,SMDPad,CuDef*%
%ADD38RoundRect,0.140000X-0.170000X0.140000X-0.170000X-0.140000X0.170000X-0.140000X0.170000X0.140000X0*%
%TD*%
%TA.AperFunction,SMDPad,CuDef*%
%ADD39RoundRect,0.250000X0.337500X0.475000X-0.337500X0.475000X-0.337500X-0.475000X0.337500X-0.475000X0*%
%TD*%
%TA.AperFunction,SMDPad,CuDef*%
%ADD40RoundRect,0.135000X-0.185000X0.135000X-0.185000X-0.135000X0.185000X-0.135000X0.185000X0.135000X0*%
%TD*%
%TA.AperFunction,ViaPad*%
%ADD41C,0.600000*%
%TD*%
%TA.AperFunction,ViaPad*%
%ADD42C,0.400000*%
%TD*%
%TA.AperFunction,Conductor*%
%ADD43C,0.200000*%
%TD*%
%TA.AperFunction,Conductor*%
%ADD44C,0.150000*%
%TD*%
%TA.AperFunction,Conductor*%
%ADD45C,0.300000*%
%TD*%
%TA.AperFunction,Conductor*%
%ADD46C,0.250000*%
%TD*%
G04 APERTURE END LIST*
D10*
%TO.P,U6,64,VDD*%
%TO.N,+3V3*%
X84177651Y-80452100D03*
%TO.P,U6,63,VSS*%
%TO.N,GND*%
X84177651Y-80952100D03*
%TO.P,U6,62,VCAP*%
%TO.N,Net-(C44-Pad2)*%
X84177651Y-81452100D03*
%TO.P,U6,61,PB8*%
%TO.N,/RXD1*%
X84177651Y-81952100D03*
%TO.P,U6,60,BOOT0*%
%TO.N,GND*%
X84177651Y-82452100D03*
%TO.P,U6,59,PB7*%
%TO.N,/TXD1*%
X84177651Y-82952100D03*
%TO.P,U6,58,PB6*%
%TO.N,CSN_1*%
X84177651Y-83452100D03*
%TO.P,U6,57,PB5*%
%TO.N,SPI_MOSI_1*%
X84177651Y-83952100D03*
%TO.P,U6,56,PB4(NJTRST)*%
%TO.N,SPI_MISO_1*%
X84177651Y-84452100D03*
%TO.P,U6,55,PB3(JTDO*%
%TO.N,SCK_1*%
X84177651Y-84952100D03*
%TO.P,U6,54,PD2*%
%TO.N,unconnected-(U6-PD2-Pad54)*%
X84177651Y-85452100D03*
%TO.P,U6,53,PC12*%
%TO.N,unconnected-(U6-PC12-Pad53)*%
X84177651Y-85952100D03*
%TO.P,U6,52,PC11*%
%TO.N,unconnected-(U6-PC11-Pad52)*%
X84177651Y-86452100D03*
%TO.P,U6,51,PC10*%
%TO.N,unconnected-(U6-PC10-Pad51)*%
X84177651Y-86952100D03*
%TO.P,U6,50,PA15(JTDI)*%
%TO.N,unconnected-(U6-PA15(JTDI)-Pad50)*%
X84177651Y-87452100D03*
%TO.P,U6,49,PA14(JTCK*%
%TO.N,/SWCLK*%
X84177651Y-87952100D03*
D11*
%TO.P,U6,48,VDD*%
%TO.N,+3V3*%
X82252651Y-89877100D03*
%TO.P,U6,47,VSS*%
%TO.N,GND*%
X81752651Y-89877100D03*
%TO.P,U6,46,PA13(JTMS*%
%TO.N,/SWDIO*%
X81252651Y-89877100D03*
%TO.P,U6,45,PA12*%
%TO.N,Net-(U6-PA12)*%
X80752651Y-89877100D03*
%TO.P,U6,44,PA11*%
%TO.N,Net-(U6-PA11)*%
X80252651Y-89877100D03*
%TO.P,U6,43,PA10*%
%TO.N,unconnected-(U6-PA10-Pad43)*%
X79752651Y-89877100D03*
%TO.P,U6,42,PA9*%
%TO.N,unconnected-(U6-PA9-Pad42)*%
X79252651Y-89877100D03*
%TO.P,U6,41,PA8*%
%TO.N,Net-(U6-PA8)*%
X78752651Y-89877100D03*
%TO.P,U6,40,PC9*%
%TO.N,CLKIN*%
X78252651Y-89877100D03*
%TO.P,U6,39,PC8*%
%TO.N,unconnected-(U6-PC8-Pad39)*%
X77752651Y-89877100D03*
%TO.P,U6,38,PC7*%
%TO.N,unconnected-(U6-PC7-Pad38)*%
X77252651Y-89877100D03*
%TO.P,U6,37,PC6*%
%TO.N,unconnected-(U6-PC6-Pad37)*%
X76752651Y-89877100D03*
%TO.P,U6,36,PB15*%
%TO.N,ETH_TXD1*%
X76252651Y-89877100D03*
%TO.P,U6,35,PB14*%
%TO.N,monitoring_1*%
X75752651Y-89877100D03*
%TO.P,U6,34,PB13*%
%TO.N,unconnected-(U6-PB13-Pad34)*%
X75252651Y-89877100D03*
%TO.P,U6,33,PB12*%
%TO.N,ETH_TXD0*%
X74752651Y-89877100D03*
D10*
%TO.P,U6,32,VDD*%
%TO.N,+3V3*%
X72827651Y-87952100D03*
%TO.P,U6,31,VSS*%
%TO.N,GND*%
X72827651Y-87452100D03*
%TO.P,U6,30,VCAP*%
%TO.N,Net-(C44-Pad2)*%
X72827651Y-86952100D03*
%TO.P,U6,29,PB10*%
%TO.N,unconnected-(U6-PB10-Pad29)*%
X72827651Y-86452100D03*
%TO.P,U6,28,PB2*%
%TO.N,unconnected-(U6-PB2-Pad28)*%
X72827651Y-85952100D03*
%TO.P,U6,27,PB1*%
%TO.N,unconnected-(U6-PB1-Pad27)*%
X72827651Y-85452100D03*
%TO.P,U6,26,PB0*%
%TO.N,unconnected-(U6-PB0-Pad26)*%
X72827651Y-84952100D03*
%TO.P,U6,25,PC5*%
%TO.N,ETH_RXD1*%
X72827651Y-84452100D03*
%TO.P,U6,24,PC4*%
%TO.N,ETH_RXD0*%
X72827651Y-83952100D03*
%TO.P,U6,23,PA7*%
%TO.N,ETH_CRS_DV*%
X72827651Y-83452100D03*
%TO.P,U6,22,PA6*%
%TO.N,unconnected-(U6-PA6-Pad22)*%
X72827651Y-82952100D03*
%TO.P,U6,21,PA5*%
%TO.N,ETH_TX_EN*%
X72827651Y-82452100D03*
%TO.P,U6,20,PA4*%
%TO.N,unconnected-(U6-PA4-Pad20)*%
X72827651Y-81952100D03*
%TO.P,U6,19,VDD*%
%TO.N,+3V3*%
X72827651Y-81452100D03*
%TO.P,U6,18,VSS*%
%TO.N,GND*%
X72827651Y-80952100D03*
%TO.P,U6,17,PA3*%
%TO.N,unconnected-(U6-PA3-Pad17)*%
X72827651Y-80452100D03*
D11*
%TO.P,U6,16,PA2*%
%TO.N,ETH_MDIO*%
X74752651Y-78527100D03*
%TO.P,U6,15,PA1*%
%TO.N,ETH_REF_CLK*%
X75252651Y-78527100D03*
%TO.P,U6,14,PA0*%
%TO.N,unconnected-(U6-PA0-Pad14)*%
X75752651Y-78527100D03*
%TO.P,U6,13,VDDA*%
%TO.N,+3V3*%
X76252651Y-78527100D03*
%TO.P,U6,12,VSSA*%
%TO.N,GND*%
X76752651Y-78527100D03*
%TO.P,U6,11,PC3*%
%TO.N,ON_INDICATOR*%
X77252651Y-78527100D03*
%TO.P,U6,10,PC2*%
%TO.N,unconnected-(U6-PC2-Pad10)*%
X77752651Y-78527100D03*
%TO.P,U6,9,PC1*%
%TO.N,ETH_MDC*%
X78252651Y-78527100D03*
%TO.P,U6,8,PC0*%
%TO.N,SENSOR_INDICATOR*%
X78752651Y-78527100D03*
%TO.P,U6,7,NRST*%
%TO.N,/NRST*%
X79252651Y-78527100D03*
%TO.P,U6,6,PH1*%
%TO.N,Net-(U6-PH1)*%
X79752651Y-78527100D03*
%TO.P,U6,5,PH0*%
%TO.N,Net-(U6-PH0)*%
X80252651Y-78527100D03*
%TO.P,U6,4,PC15*%
%TO.N,INTR_1*%
X80752651Y-78527100D03*
%TO.P,U6,3,PC14*%
%TO.N,unconnected-(U6-PC14-Pad3)*%
X81252651Y-78527100D03*
%TO.P,U6,2,PC13*%
%TO.N,DRV_ENN_1*%
X81752651Y-78527100D03*
%TO.P,U6,1,VBAT*%
%TO.N,+3V3*%
X82252651Y-78527100D03*
%TD*%
D12*
%TO.P,C47,1*%
%TO.N,GND*%
X82240000Y-73443800D03*
%TO.P,C47,2*%
%TO.N,Net-(U6-PH0)*%
X82240000Y-74993800D03*
%TD*%
D13*
%TO.P,R39,1*%
%TO.N,CLK_EXT_1*%
X78785600Y-92516000D03*
%TO.P,R39,2*%
%TO.N,Net-(U6-PA8)*%
X78785600Y-91496000D03*
%TD*%
D14*
%TO.P,J5,1,VBUS*%
%TO.N,Net-(D9-A)*%
X67431800Y-93340800D03*
%TO.P,J5,2,D-*%
%TO.N,D-*%
X66781800Y-93340800D03*
%TO.P,J5,3,D+*%
%TO.N,D+*%
X66131800Y-93340800D03*
%TO.P,J5,4,ID*%
%TO.N,unconnected-(J5-ID-Pad4)*%
X65481800Y-93340800D03*
%TO.P,J5,5,GND*%
%TO.N,GND*%
X64831800Y-93340800D03*
D15*
%TO.P,J5,6,Shield*%
X68931800Y-93590800D03*
D16*
X66131800Y-91440800D03*
D15*
X63331800Y-93590800D03*
%TD*%
D17*
%TO.P,Y2,1,1*%
%TO.N,Net-(U6-PH1)*%
X79326651Y-75938300D03*
%TO.P,Y2,2,2*%
%TO.N,GND*%
X80726651Y-75938300D03*
%TO.P,Y2,3,3*%
%TO.N,Net-(U6-PH0)*%
X80726651Y-74838300D03*
%TO.P,Y2,4,4*%
%TO.N,GND*%
X79326651Y-74838300D03*
%TD*%
D18*
%TO.P,C46,1*%
%TO.N,+3V3*%
X83543200Y-78282800D03*
%TO.P,C46,2*%
%TO.N,GND*%
X84503200Y-78282800D03*
%TD*%
D19*
%TO.P,C43,1*%
%TO.N,+3V3*%
X71804500Y-71125200D03*
%TO.P,C43,2*%
%TO.N,GND*%
X73879500Y-71125200D03*
%TD*%
D20*
%TO.P,C57,1*%
%TO.N,+3V3*%
X64002800Y-86410800D03*
%TO.P,C57,2*%
%TO.N,GND*%
X63042800Y-86410800D03*
%TD*%
D21*
%TO.P,D3,1,K*%
%TO.N,ON_INDICATOR*%
X75412600Y-73812400D03*
%TO.P,D3,2,A*%
%TO.N,Net-(D3-A)*%
X75412600Y-72842400D03*
%TD*%
D22*
%TO.P,C5,1*%
%TO.N,PGOOD1*%
X69748400Y-70975400D03*
%TO.P,C5,2*%
%TO.N,GND*%
X69748400Y-73050400D03*
%TD*%
D23*
%TO.P,J6,P1,P1*%
%TO.N,TXP*%
X55193800Y-87930000D03*
D24*
%TO.P,J6,P2,P2*%
%TO.N,+3V3*%
X53923800Y-90470000D03*
%TO.P,J6,P3,P3*%
%TO.N,TXN*%
X52653800Y-87930000D03*
%TO.P,J6,P4,P4*%
%TO.N,RXN*%
X51383800Y-90470000D03*
%TO.P,J6,P5,P5*%
%TO.N,+3V3*%
X50113800Y-87930000D03*
%TO.P,J6,P6,P6*%
%TO.N,RXP*%
X48843800Y-90470000D03*
%TO.P,J6,P7,P7*%
%TO.N,unconnected-(J6-PadP7)*%
X47573800Y-87930000D03*
%TO.P,J6,P8,P8*%
%TO.N,GND*%
X46303800Y-90470000D03*
D25*
%TO.P,J6,P9*%
%TO.N,LED1*%
X57073800Y-77470000D03*
%TO.P,J6,P10*%
%TO.N,Net-(J6-PadP10)*%
X54533800Y-77470000D03*
%TO.P,J6,P11*%
%TO.N,LED2*%
X46963800Y-77470000D03*
%TO.P,J6,P12*%
%TO.N,Net-(J6-PadP12)*%
X44423800Y-77470000D03*
D26*
%TO.P,J6,SH1,SHIELD*%
%TO.N,GND*%
X42793800Y-85470000D03*
%TO.P,J6,SH2,SHIELD__1*%
X58703800Y-85470000D03*
%TD*%
D27*
%TO.P,D8,1,A*%
%TO.N,GND*%
X65333000Y-97402200D03*
D28*
%TO.P,D8,2,K*%
%TO.N,D+*%
X65333000Y-95702200D03*
%TO.P,D8,3,K*%
%TO.N,D-*%
X63333000Y-95702200D03*
%TO.P,D8,4,K*%
%TO.N,Net-(D9-A)*%
X63333000Y-97602200D03*
%TD*%
D29*
%TO.P,J11,1,Pin_1*%
%TO.N,CSN_1*%
X71417901Y-100690201D03*
D30*
%TO.P,J11,2,Pin_2*%
%TO.N,SPI_MOSI_1*%
X71417901Y-103230201D03*
%TO.P,J11,3,Pin_3*%
%TO.N,GND*%
X68877901Y-100690201D03*
%TO.P,J11,4,Pin_4*%
%TO.N,SPI_MISO_1*%
X68877901Y-103230201D03*
%TO.P,J11,5,Pin_5*%
%TO.N,SCK_1*%
X66337901Y-100690201D03*
%TO.P,J11,6,Pin_6*%
%TO.N,GND*%
X66337901Y-103230201D03*
%TO.P,J11,7,Pin_7*%
%TO.N,CLK_EXT_1*%
X63797901Y-100690201D03*
%TO.P,J11,8,Pin_8*%
%TO.N,+3V3*%
X63797901Y-103230201D03*
%TO.P,J11,9,Pin_9*%
%TO.N,GND*%
X61257901Y-100690201D03*
%TO.P,J11,10,Pin_10*%
X61257901Y-103230201D03*
%TO.P,J11,11,Pin_11*%
%TO.N,+3V3*%
X58717901Y-100690201D03*
%TO.P,J11,12,Pin_12*%
%TO.N,monitoring_1*%
X58717901Y-103230201D03*
%TD*%
D31*
%TO.P,C44,1*%
%TO.N,GND*%
X72696851Y-90259500D03*
%TO.P,C44,2*%
%TO.N,Net-(C44-Pad2)*%
X72696851Y-89299500D03*
%TD*%
D32*
%TO.P,J12,1,Pin_1*%
%TO.N,+3V3*%
X86791800Y-77582000D03*
D33*
%TO.P,J12,2,Pin_2*%
%TO.N,GND*%
X86791800Y-78852000D03*
%TD*%
D34*
%TO.P,R32,1*%
%TO.N,GND*%
X61997400Y-85090000D03*
%TO.P,R32,2*%
%TO.N,Net-(U9-RBIAS)*%
X63017400Y-85090000D03*
%TD*%
D31*
%TO.P,C58,1*%
%TO.N,+3V3*%
X62839600Y-80766800D03*
%TO.P,C58,2*%
%TO.N,GND*%
X62839600Y-79806800D03*
%TD*%
D32*
%TO.P,J13,1,Pin_1*%
%TO.N,/NRST*%
X86791800Y-80137000D03*
D33*
%TO.P,J13,2,Pin_2*%
%TO.N,/SWCLK*%
X86791800Y-81407000D03*
%TO.P,J13,3,Pin_3*%
%TO.N,/SWDIO*%
X86791800Y-82677000D03*
%TD*%
D35*
%TO.P,U9,1,VDD2A*%
%TO.N,+3V3*%
X64963051Y-85446700D03*
%TO.P,U9,2,LED2/NINT/NPME/\u002ANINTSEL*%
%TO.N,LED2*%
X65463050Y-85446700D03*
%TO.P,U9,3,LED1/NINT/NPME/\u002AREGOFF*%
%TO.N,LED1*%
X65963051Y-85446700D03*
%TO.P,U9,4,XTAL2*%
%TO.N,unconnected-(U9-XTAL2-Pad4)*%
X66463051Y-85446700D03*
%TO.P,U9,5,XTAL1/CLKIN*%
%TO.N,CLKIN*%
X66963052Y-85446700D03*
%TO.P,U9,6,VDDCR*%
%TO.N,VDDCR*%
X67463051Y-85446700D03*
D36*
%TO.P,U9,7,RXD1/\u002AMODE1*%
%TO.N,ETH_RXD1*%
X68181551Y-84728200D03*
%TO.P,U9,8,RXD0/\u002AMODE0*%
%TO.N,ETH_RXD0*%
X68181551Y-84228201D03*
%TO.P,U9,9,VDDIO*%
%TO.N,+3V3*%
X68181551Y-83728200D03*
%TO.P,U9,10,RXER/\u002APHYAD0*%
%TO.N,unconnected-(U9-RXER{slash}\u002APHYAD0-Pad10)*%
X68181551Y-83228200D03*
%TO.P,U9,11,CRS_DV/\u002AMODE2*%
%TO.N,ETH_CRS_DV*%
X68181551Y-82728199D03*
%TO.P,U9,12,MDIO*%
%TO.N,ETH_MDIO*%
X68181551Y-82228200D03*
D35*
%TO.P,U9,13,MDC*%
%TO.N,ETH_MDC*%
X67463051Y-81509700D03*
%TO.P,U9,14,NINT/REFCLKO*%
%TO.N,ETH_REF_CLK*%
X66963052Y-81509700D03*
%TO.P,U9,15,NRST*%
%TO.N,unconnected-(U9-NRST-Pad15)*%
X66463051Y-81509700D03*
%TO.P,U9,16,TXEN*%
%TO.N,ETH_TX_EN*%
X65963051Y-81509700D03*
%TO.P,U9,17,TXD0*%
%TO.N,ETH_TXD0*%
X65463050Y-81509700D03*
%TO.P,U9,18,TXD1*%
%TO.N,ETH_TXD1*%
X64963051Y-81509700D03*
D36*
%TO.P,U9,19,VDD1A*%
%TO.N,+3V3*%
X64244551Y-82228200D03*
%TO.P,U9,20,TXN*%
%TO.N,TXN*%
X64244551Y-82728199D03*
%TO.P,U9,21,TXP*%
%TO.N,TXP*%
X64244551Y-83228200D03*
%TO.P,U9,22,RXN*%
%TO.N,RXN*%
X64244551Y-83728200D03*
%TO.P,U9,23,RXP*%
%TO.N,RXP*%
X64244551Y-84228201D03*
%TO.P,U9,24,RBIAS*%
%TO.N,Net-(U9-RBIAS)*%
X64244551Y-84728200D03*
D37*
%TO.P,U9,25,EPAD*%
%TO.N,GND*%
X66213051Y-83478200D03*
%TD*%
D29*
%TO.P,J10,1,Pin_1*%
%TO.N,GND*%
X84402901Y-65689001D03*
D30*
%TO.P,J10,2,Pin_2*%
%TO.N,/RXD1*%
X84402901Y-68229001D03*
%TO.P,J10,3,Pin_3*%
%TO.N,GND*%
X81862901Y-65689001D03*
%TO.P,J10,4,Pin_4*%
%TO.N,/TXD1*%
X81862901Y-68229001D03*
%TO.P,J10,5,Pin_5*%
%TO.N,DRV_ENN_1*%
X79322901Y-65689001D03*
%TO.P,J10,6,Pin_6*%
%TO.N,GND*%
X79322901Y-68229001D03*
%TO.P,J10,7,Pin_7*%
%TO.N,INTR_1*%
X76782901Y-65689001D03*
%TO.P,J10,8,Pin_8*%
%TO.N,+3V3*%
X76782901Y-68229001D03*
%TO.P,J10,9,Pin_9*%
%TO.N,GND*%
X74242901Y-65689001D03*
%TO.P,J10,10,Pin_10*%
X74242901Y-68229001D03*
%TO.P,J10,11,Pin_11*%
%TO.N,PGOOD1*%
X71702901Y-65689001D03*
%TO.P,J10,12,Pin_12*%
%TO.N,GND*%
X71702901Y-68229001D03*
%TD*%
D13*
%TO.P,R41,1*%
%TO.N,D+*%
X80995400Y-92437800D03*
%TO.P,R41,2*%
%TO.N,Net-(U6-PA12)*%
X80995400Y-91417800D03*
%TD*%
D38*
%TO.P,C3,1*%
%TO.N,GND*%
X60401200Y-97360800D03*
%TO.P,C3,2*%
%TO.N,monitoring_1*%
X60401200Y-98320800D03*
%TD*%
D18*
%TO.P,C7,1*%
%TO.N,+3V3*%
X83136800Y-89966800D03*
%TO.P,C7,2*%
%TO.N,GND*%
X84096800Y-89966800D03*
%TD*%
D21*
%TO.P,D2,1,K*%
%TO.N,SENSOR_INDICATOR*%
X76504800Y-73824300D03*
%TO.P,D2,2,A*%
%TO.N,Net-(D2-A)*%
X76504800Y-72854300D03*
%TD*%
D18*
%TO.P,C51,1*%
%TO.N,VDDCR*%
X67668200Y-87757000D03*
%TO.P,C51,2*%
%TO.N,GND*%
X68628200Y-87757000D03*
%TD*%
D38*
%TO.P,C59,1*%
%TO.N,+3V3*%
X65913000Y-87708800D03*
%TO.P,C59,2*%
%TO.N,GND*%
X65913000Y-88668800D03*
%TD*%
D18*
%TO.P,C50,1*%
%TO.N,VDDCR*%
X67670800Y-86766400D03*
%TO.P,C50,2*%
%TO.N,GND*%
X68630800Y-86766400D03*
%TD*%
D12*
%TO.P,C48,1*%
%TO.N,GND*%
X77842601Y-74376399D03*
%TO.P,C48,2*%
%TO.N,Net-(U6-PH1)*%
X77842601Y-75926399D03*
%TD*%
D39*
%TO.P,C42,1*%
%TO.N,+3V3*%
X58746300Y-97129600D03*
%TO.P,C42,2*%
%TO.N,GND*%
X56671300Y-97129600D03*
%TD*%
D31*
%TO.P,C10,1*%
%TO.N,+3V3*%
X71089400Y-87960200D03*
%TO.P,C10,2*%
%TO.N,GND*%
X71089400Y-87000200D03*
%TD*%
D40*
%TO.P,R40,1*%
%TO.N,Net-(U6-PA11)*%
X80004800Y-91417800D03*
%TO.P,R40,2*%
%TO.N,D-*%
X80004800Y-92437800D03*
%TD*%
D38*
%TO.P,C1,1*%
%TO.N,+3V3*%
X70967600Y-81612800D03*
%TO.P,C1,2*%
%TO.N,GND*%
X70967600Y-82572800D03*
%TD*%
D41*
%TO.N,+3V3*%
X58621800Y-88057000D03*
X58717901Y-97180400D03*
D42*
X83543200Y-78282800D03*
X69212400Y-83667600D03*
D41*
X49072750Y-85887499D03*
X47498000Y-85901700D03*
X71804500Y-71125200D03*
D42*
X64002800Y-86410800D03*
X65904251Y-87707300D03*
X83134200Y-89966800D03*
D41*
X50877250Y-85887499D03*
D42*
X70967600Y-81612800D03*
X75412600Y-71829200D03*
D41*
X62839600Y-81737200D03*
X46531650Y-92773099D03*
D42*
X71097500Y-87952100D03*
X76250800Y-80139600D03*
D41*
X52679200Y-84348600D03*
D42*
%TO.N,monitoring_1*%
X60401200Y-98320800D03*
D41*
X80518000Y-88493600D03*
D42*
X75539600Y-88493600D03*
D41*
X79095600Y-88493600D03*
%TO.N,GND*%
X79326651Y-74838300D03*
X49529600Y-80957200D03*
X65422001Y-83533399D03*
X69689201Y-77081799D03*
D42*
X82143600Y-88341200D03*
X84658200Y-79578200D03*
D41*
X49072750Y-84162499D03*
X55880000Y-85801200D03*
X77842601Y-74363999D03*
X68774801Y-77183399D03*
X60401200Y-95453200D03*
D42*
X76250800Y-81099600D03*
X84099400Y-89966800D03*
D41*
X69663801Y-79774199D03*
D42*
X62001400Y-85090000D03*
D41*
X73778251Y-77877500D03*
X82804000Y-91541600D03*
D42*
X70967600Y-82572800D03*
D41*
X73380600Y-72644000D03*
X71628000Y-78867000D03*
X67606401Y-79316999D03*
D42*
X86385400Y-76098400D03*
D41*
X47498000Y-84176700D03*
D42*
X65913000Y-88668800D03*
D41*
X82240000Y-73456800D03*
X66234801Y-84295399D03*
X69748400Y-73050400D03*
X76017000Y-75824200D03*
X77233001Y-80002799D03*
X71577200Y-73583800D03*
X56667400Y-95478600D03*
X50901550Y-84138199D03*
X82338401Y-80536199D03*
X66234801Y-82745999D03*
D42*
X84937600Y-76301600D03*
X63042800Y-86410800D03*
D41*
X69646800Y-89154000D03*
X65422001Y-82745999D03*
X72390000Y-75615800D03*
D42*
X68630800Y-86766400D03*
D41*
X67047601Y-82745999D03*
X78892400Y-81127600D03*
D42*
X72694800Y-90246200D03*
D41*
X66234801Y-83533399D03*
X81231251Y-84166100D03*
D42*
X62839600Y-79806800D03*
X71089400Y-87000200D03*
X84455000Y-88798400D03*
X86461600Y-83896200D03*
X68630800Y-87757000D03*
D41*
X76936600Y-87807800D03*
X80726651Y-75938300D03*
X52044200Y-80957200D03*
D42*
X60401200Y-97360800D03*
D41*
X70815200Y-85496400D03*
X67047601Y-84295399D03*
X82592401Y-82441199D03*
X66463401Y-77259599D03*
X56671300Y-97129600D03*
X73685400Y-75717400D03*
X73879500Y-71125200D03*
X67047601Y-83533399D03*
D42*
X78536800Y-84348200D03*
D41*
X74574400Y-84023200D03*
X71114800Y-80497800D03*
D42*
X84480400Y-78282800D03*
D41*
X54838600Y-95808800D03*
X65422001Y-84295399D03*
D42*
%TO.N,/NRST*%
X78252200Y-82504400D03*
X78988800Y-79964400D03*
X81965800Y-82042000D03*
%TO.N,SENSOR_INDICATOR*%
X76504800Y-73824300D03*
X78734800Y-77068800D03*
%TO.N,Net-(D2-A)*%
X76504800Y-72854300D03*
%TO.N,Net-(D3-A)*%
X75412600Y-72842400D03*
%TO.N,ON_INDICATOR*%
X75412600Y-73812400D03*
X77261600Y-77361500D03*
%TO.N,/SWDIO*%
X81432400Y-87985600D03*
%TO.N,/SWCLK*%
X81864200Y-86842600D03*
D41*
%TO.N,Net-(C44-Pad2)*%
X73832600Y-90810200D03*
X79696451Y-81916100D03*
%TO.N,Net-(D9-A)*%
X71390200Y-93451800D03*
D42*
X63333000Y-97602200D03*
D41*
X67838200Y-94874200D03*
%TO.N,LED2*%
X64888251Y-86665900D03*
X62805451Y-88748700D03*
%TO.N,LED1*%
X65904251Y-86564300D03*
X63973851Y-88799500D03*
%TO.N,ETH_TXD1*%
X64989851Y-78283900D03*
X72813051Y-77979100D03*
%TO.N,ETH_MDC*%
X76673851Y-76861500D03*
X73067051Y-76455100D03*
%TO.N,ETH_TXD0*%
X65650251Y-78944300D03*
X72669400Y-78867000D03*
%TO.N,ETH_TX_EN*%
X66310651Y-79655500D03*
X71136651Y-79655500D03*
%TO.N,PGOOD1*%
X69748400Y-70975400D03*
X73290200Y-93451800D03*
D42*
%TO.N,INTR_1*%
X79217400Y-72090400D03*
%TO.N,GND*%
X83489800Y-77470000D03*
%TD*%
D43*
%TO.N,+3V3*%
X82342351Y-89966800D02*
X82252651Y-89877100D01*
X83134200Y-89966800D02*
X82342351Y-89966800D01*
X83044500Y-89877100D02*
X83134200Y-89966800D01*
D44*
%TO.N,ETH_TXD0*%
X73091351Y-78867000D02*
X72669400Y-78867000D01*
X75585200Y-87279600D02*
X75585200Y-83184549D01*
X74752651Y-80528300D02*
X73091351Y-78867000D01*
X74752651Y-88112149D02*
X75585200Y-87279600D01*
X75585200Y-83184549D02*
X74752651Y-82352000D01*
X74752651Y-89877100D02*
X74752651Y-88112149D01*
X74752651Y-82352000D02*
X74752651Y-80528300D01*
D43*
%TO.N,CLKIN*%
X77083800Y-91902400D02*
X77012800Y-91902400D01*
X78252651Y-90733549D02*
X77083800Y-91902400D01*
X78252651Y-89877100D02*
X78252651Y-90733549D01*
X72364600Y-91902400D02*
X77012800Y-91902400D01*
%TO.N,+3V3*%
X69151800Y-83728200D02*
X69212400Y-83667600D01*
X76252651Y-80137749D02*
X76250800Y-80139600D01*
X64540300Y-85446700D02*
X64963051Y-85446700D01*
X84177651Y-80452100D02*
X83398500Y-80452100D01*
X71097500Y-87952100D02*
X71089400Y-87960200D01*
X76252651Y-78527100D02*
X76252651Y-80137749D01*
X82610500Y-78527100D02*
X82252651Y-78527100D01*
D45*
X58717901Y-97157999D02*
X58746300Y-97129600D01*
D43*
X83083400Y-89870400D02*
X83083400Y-89865200D01*
X65955051Y-87656500D02*
X65904251Y-87707300D01*
X64002800Y-85984200D02*
X64540300Y-85446700D01*
X63330600Y-82228200D02*
X62839600Y-81737200D01*
X58746300Y-97104200D02*
X58746300Y-97129600D01*
D45*
X58717901Y-97180400D02*
X58717901Y-97157999D01*
D43*
X82854800Y-78282800D02*
X82610500Y-78527100D01*
X83398500Y-80452100D02*
X82252651Y-79306251D01*
X83289200Y-78282800D02*
X82854800Y-78282800D01*
D45*
X58717901Y-100690201D02*
X58717901Y-97180400D01*
D43*
X72827651Y-81452100D02*
X71128300Y-81452100D01*
X62839600Y-81737200D02*
X62839600Y-80766800D01*
X68181551Y-83728200D02*
X69151800Y-83728200D01*
X63701751Y-82228200D02*
X63330600Y-82228200D01*
X82252651Y-79306251D02*
X82252651Y-78527100D01*
X72827651Y-87952100D02*
X71097500Y-87952100D01*
X64244551Y-82228200D02*
X63701751Y-82228200D01*
X71128300Y-81452100D02*
X70967600Y-81612800D01*
X64002800Y-86410800D02*
X64002800Y-85984200D01*
D44*
%TO.N,monitoring_1*%
X75539600Y-88493600D02*
X75539600Y-88696800D01*
X75752651Y-88909851D02*
X75752651Y-89877100D01*
X75539600Y-88696800D02*
X75752651Y-88909851D01*
D43*
%TO.N,GND*%
X82603302Y-82452100D02*
X82592401Y-82441199D01*
X82754302Y-80952100D02*
X82338401Y-80536199D01*
D45*
X72827651Y-80952100D02*
X71569100Y-80952100D01*
D43*
X76752651Y-78527100D02*
X76752651Y-79522449D01*
X81752651Y-88732149D02*
X82143600Y-88341200D01*
X72827651Y-87452100D02*
X71541300Y-87452100D01*
X76752651Y-79522449D02*
X77233001Y-80002799D01*
X81752651Y-89877100D02*
X81752651Y-88798400D01*
D45*
X71569100Y-80952100D02*
X71114800Y-80497800D01*
D43*
X71541300Y-87452100D02*
X71089400Y-87000200D01*
X81752651Y-88798400D02*
X81752651Y-88732149D01*
X84177651Y-82452100D02*
X82603302Y-82452100D01*
X84177651Y-80952100D02*
X82754302Y-80952100D01*
D44*
%TO.N,/NRST*%
X80162400Y-82499200D02*
X78257400Y-82499200D01*
X81965800Y-82042000D02*
X80619600Y-82042000D01*
X79252651Y-79700549D02*
X79252651Y-78527100D01*
X78257400Y-82499200D02*
X78252200Y-82504400D01*
X80619600Y-82042000D02*
X80162400Y-82499200D01*
X78988800Y-79964400D02*
X79252651Y-79700549D01*
D43*
%TO.N,Net-(U6-PH0)*%
X81355100Y-76886900D02*
X82240000Y-76002000D01*
X82084500Y-74838300D02*
X82240000Y-74993800D01*
X82262201Y-75122801D02*
X82240000Y-75100600D01*
X80252651Y-78527100D02*
X80252651Y-77422900D01*
X80750251Y-74814700D02*
X80726651Y-74838300D01*
X80726651Y-74838300D02*
X82084500Y-74838300D01*
X80788651Y-76886900D02*
X81355100Y-76886900D01*
X82240000Y-76002000D02*
X82240000Y-75100600D01*
X80252651Y-77422900D02*
X80788651Y-76886900D01*
%TO.N,Net-(U6-PH1)*%
X79752651Y-77420300D02*
X79752651Y-78527100D01*
X79326651Y-76994300D02*
X79752651Y-77420300D01*
X79326651Y-75938300D02*
X77854502Y-75938300D01*
X79326651Y-75938300D02*
X79326651Y-76994300D01*
X77854502Y-75938300D02*
X77842601Y-75926399D01*
D44*
%TO.N,SENSOR_INDICATOR*%
X78752651Y-77086651D02*
X78734800Y-77068800D01*
X78752651Y-78527100D02*
X78752651Y-77086651D01*
%TO.N,ON_INDICATOR*%
X77252651Y-77370449D02*
X77261600Y-77361500D01*
X77252651Y-78527100D02*
X77252651Y-77370449D01*
%TO.N,/SWDIO*%
X81252651Y-89877100D02*
X81252651Y-88165349D01*
X81252651Y-88165349D02*
X81432400Y-87985600D01*
%TO.N,/SWCLK*%
X81864200Y-86842600D02*
X81864200Y-87059270D01*
X81864200Y-87059270D02*
X82757030Y-87952100D01*
X82757030Y-87952100D02*
X84177651Y-87952100D01*
D43*
%TO.N,D-*%
X79645001Y-93277600D02*
X80004800Y-92917801D01*
X75720600Y-93277600D02*
X79645001Y-93277600D01*
X80004800Y-92917801D02*
X80004800Y-92437800D01*
X66781800Y-94465801D02*
X66681800Y-94565801D01*
X74577600Y-94420600D02*
X75720600Y-93277600D01*
X66781800Y-92390800D02*
X66781800Y-93340800D01*
X62065600Y-92950600D02*
X62065600Y-94137600D01*
X67093200Y-95665200D02*
X70716800Y-95665200D01*
X62824200Y-95702200D02*
X63333000Y-95702200D01*
X80004800Y-92487800D02*
X80004800Y-92437800D01*
X70716800Y-95665200D02*
X71961400Y-94420600D01*
X62224800Y-92791400D02*
X62065600Y-92950600D01*
X66238000Y-92290800D02*
X66681800Y-92290800D01*
X66656800Y-92290800D02*
X66238000Y-92290800D01*
X62725400Y-92290800D02*
X62224800Y-92791400D01*
X62065600Y-94943600D02*
X62824200Y-95702200D01*
X66681800Y-95253800D02*
X67093200Y-95665200D01*
X62065600Y-94442400D02*
X62065600Y-94943600D01*
X66781800Y-93340800D02*
X66781800Y-94465801D01*
X71961400Y-94420600D02*
X74577600Y-94420600D01*
X66681800Y-94565801D02*
X66681800Y-95253800D01*
X66681800Y-92290800D02*
X66781800Y-92390800D01*
X66238000Y-92290800D02*
X62725400Y-92290800D01*
%TO.N,D+*%
X66906800Y-96115200D02*
X70903200Y-96115200D01*
X66231800Y-95052000D02*
X66231800Y-95440200D01*
X65333000Y-95296600D02*
X65333000Y-95702200D01*
X66231800Y-95052000D02*
X65577600Y-95052000D01*
X70903200Y-96115200D02*
X72147800Y-94870600D01*
X75907000Y-93727600D02*
X80185601Y-93727600D01*
X66231800Y-94565801D02*
X66131800Y-94465801D01*
X66131800Y-94465801D02*
X66131800Y-93340800D01*
X80185601Y-93727600D02*
X80995400Y-92917801D01*
X65577600Y-95052000D02*
X65333000Y-95296600D01*
X72147800Y-94870600D02*
X74764000Y-94870600D01*
X66231800Y-95440200D02*
X66906800Y-96115200D01*
X74764000Y-94870600D02*
X75907000Y-93727600D01*
X66231800Y-95052000D02*
X66231800Y-94565801D01*
X80995400Y-92917801D02*
X80995400Y-92437800D01*
%TO.N,Net-(C44-Pad2)*%
X72827651Y-86952100D02*
X73708300Y-86952100D01*
D45*
X79696451Y-81916100D02*
X80160451Y-81452100D01*
D43*
X74112000Y-87355800D02*
X74112000Y-88498800D01*
X73829401Y-88781399D02*
X73829401Y-89299199D01*
D45*
X80160451Y-81452100D02*
X84177651Y-81452100D01*
D43*
X73829100Y-89299500D02*
X72696851Y-89299500D01*
X73829100Y-89299500D02*
X73829100Y-90806700D01*
X73708300Y-86952100D02*
X74112000Y-87355800D01*
X73829401Y-89299199D02*
X73829100Y-89299500D01*
X74112000Y-88498800D02*
X73829401Y-88781399D01*
X73829100Y-90806700D02*
X73832600Y-90810200D01*
D46*
%TO.N,Net-(D9-A)*%
X67431800Y-94467800D02*
X67431800Y-93340800D01*
X67838200Y-94874200D02*
X67431800Y-94467800D01*
D43*
%TO.N,VDDCR*%
X67670800Y-86136600D02*
X67670800Y-86766400D01*
X67670800Y-86766400D02*
X67670800Y-87754400D01*
X67463051Y-85928851D02*
X67670800Y-86136600D01*
X67670800Y-87754400D02*
X67668200Y-87757000D01*
X67463051Y-85446700D02*
X67463051Y-85928851D01*
%TO.N,RXN*%
X50342400Y-91511400D02*
X51383800Y-90470000D01*
X60760000Y-87506600D02*
X55151400Y-93115200D01*
X50638800Y-93115200D02*
X50338800Y-92815200D01*
X61470599Y-83753201D02*
X60760000Y-84463800D01*
X63673050Y-83728200D02*
X63648049Y-83753201D01*
X64244551Y-83728200D02*
X63673050Y-83728200D01*
X55151400Y-93115200D02*
X50638800Y-93115200D01*
X63648049Y-83753201D02*
X61470599Y-83753201D01*
X60760000Y-84463800D02*
X60760000Y-87506600D01*
X50338800Y-92815200D02*
X50338800Y-91511400D01*
X50338800Y-91511400D02*
X50342400Y-91511400D01*
%TO.N,RXP*%
X49888800Y-93001600D02*
X49888800Y-91511400D01*
X50452400Y-93565200D02*
X49888800Y-93001600D01*
X61210000Y-84650200D02*
X61210000Y-87693000D01*
X61210000Y-87693000D02*
X55337800Y-93565200D01*
X63648049Y-84203200D02*
X61657000Y-84203200D01*
X64244551Y-84228201D02*
X63673050Y-84228201D01*
X49888800Y-91511400D02*
X49885200Y-91511400D01*
X61657000Y-84203200D02*
X61210000Y-84650200D01*
X55337800Y-93565200D02*
X50452400Y-93565200D01*
X63673050Y-84228201D02*
X63648049Y-84203200D01*
X49885200Y-91511400D02*
X48843800Y-90470000D01*
D44*
%TO.N,LED2*%
X44193700Y-83764400D02*
X44777900Y-83764400D01*
X42466500Y-82037200D02*
X44193700Y-83764400D01*
X43839050Y-89580050D02*
X43839050Y-91358050D01*
X44777900Y-83764400D02*
X45438300Y-84424800D01*
X46963800Y-77470000D02*
X46963800Y-77210800D01*
X62799551Y-88742800D02*
X62805451Y-88748700D01*
X42466500Y-77135000D02*
X42466500Y-82037200D01*
X65463050Y-85446700D02*
X65463050Y-86091101D01*
X46963800Y-77210800D02*
X45440200Y-75687200D01*
X65463050Y-86091101D02*
X64888251Y-86665900D01*
X45440200Y-75687200D02*
X43914300Y-75687200D01*
X46710200Y-94229200D02*
X55647962Y-94229200D01*
X45438300Y-84424800D02*
X45438300Y-87980800D01*
X61134362Y-88742800D02*
X62799551Y-88742800D01*
X43914300Y-75687200D02*
X42466500Y-77135000D01*
X45438300Y-87980800D02*
X43839050Y-89580050D01*
X43839050Y-91358050D02*
X46710200Y-94229200D01*
X55647962Y-94229200D02*
X61134362Y-88742800D01*
D43*
%TO.N,TXP*%
X55261600Y-84294200D02*
X54021800Y-85534000D01*
X58562401Y-83203199D02*
X57471400Y-84294200D01*
X54885400Y-87930000D02*
X55193800Y-87930000D01*
X64244551Y-83228200D02*
X63673050Y-83228200D01*
X57471400Y-84294200D02*
X55261600Y-84294200D01*
X54021800Y-87066400D02*
X54885400Y-87930000D01*
X63648049Y-83203199D02*
X58562401Y-83203199D01*
X63673050Y-83228200D02*
X63648049Y-83203199D01*
X54021800Y-85534000D02*
X54021800Y-87066400D01*
D44*
%TO.N,LED1*%
X44041300Y-84145400D02*
X44549300Y-84145400D01*
X44549300Y-84145400D02*
X45031900Y-84628000D01*
X63589602Y-89183750D02*
X63973851Y-88799500D01*
X45745000Y-93772000D02*
X43458050Y-91485050D01*
X44447700Y-75331600D02*
X55651000Y-75331600D01*
X45745000Y-93772000D02*
X46557800Y-94584800D01*
X42060100Y-82164200D02*
X44041300Y-84145400D01*
X43458050Y-89427650D02*
X43458050Y-91485050D01*
X43685700Y-75331600D02*
X42060100Y-76957200D01*
X44447700Y-75331600D02*
X43685700Y-75331600D01*
X61089462Y-89361761D02*
X63411591Y-89361761D01*
X42060100Y-76957200D02*
X42060100Y-82164200D01*
X45031900Y-84628000D02*
X45031900Y-87853800D01*
X61083562Y-89355861D02*
X61089462Y-89361761D01*
X45031900Y-87853800D02*
X43458050Y-89427650D01*
X65963051Y-86505500D02*
X65904251Y-86564300D01*
X57073800Y-76754400D02*
X57073800Y-77470000D01*
X46557800Y-94584800D02*
X55854623Y-94584800D01*
X55651000Y-75331600D02*
X57073800Y-76754400D01*
X55854623Y-94584800D02*
X61083562Y-89355861D01*
X63411591Y-89361761D02*
X63589602Y-89183750D01*
X65963051Y-85446700D02*
X65963051Y-86505500D01*
D43*
%TO.N,TXN*%
X55075200Y-83844200D02*
X53571800Y-85347600D01*
X52708200Y-87930000D02*
X52653800Y-87930000D01*
X57285000Y-83844200D02*
X55075200Y-83844200D01*
X58376000Y-82753200D02*
X57285000Y-83844200D01*
X53571800Y-87066400D02*
X52708200Y-87930000D01*
X64244551Y-82728199D02*
X63673050Y-82728199D01*
X63673050Y-82728199D02*
X63648049Y-82753200D01*
X53571800Y-85347600D02*
X53571800Y-87066400D01*
X63648049Y-82753200D02*
X58376000Y-82753200D01*
%TO.N,Net-(U9-RBIAS)*%
X64244551Y-84728200D02*
X63727151Y-84728200D01*
X63727151Y-84728200D02*
X63365351Y-85090000D01*
X63365351Y-85090000D02*
X63017400Y-85090000D01*
%TO.N,ETH_RXD1*%
X70073851Y-84452100D02*
X69797751Y-84728200D01*
X72827651Y-84452100D02*
X70073851Y-84452100D01*
X69797751Y-84728200D02*
X68181551Y-84728200D01*
%TO.N,ETH_RXD0*%
X69862651Y-83952100D02*
X72827651Y-83952100D01*
X69586550Y-84228201D02*
X69862651Y-83952100D01*
X68181551Y-84228201D02*
X69586550Y-84228201D01*
%TO.N,ETH_CRS_DV*%
X69332550Y-82728199D02*
X70056451Y-83452100D01*
X70056451Y-83452100D02*
X72827651Y-83452100D01*
X68181551Y-82728199D02*
X69332550Y-82728199D01*
D44*
%TO.N,ETH_TXD1*%
X76252651Y-87216399D02*
X76252651Y-89877100D01*
X76252651Y-87216399D02*
X76252651Y-83166675D01*
X72813051Y-77979100D02*
X75260176Y-80426224D01*
X75260176Y-80426224D02*
X75260176Y-82174200D01*
X64963051Y-78310700D02*
X64989851Y-78283900D01*
X76252651Y-83166675D02*
X75260176Y-82174200D01*
X64963051Y-81509700D02*
X64963051Y-78310700D01*
D43*
%TO.N,ETH_MDC*%
X67463051Y-80781149D02*
X69909076Y-78335124D01*
X67463051Y-80840999D02*
X67463051Y-81509700D01*
X76673851Y-76861500D02*
X77791451Y-76861500D01*
X73067051Y-76455100D02*
X71289051Y-76455100D01*
X67463051Y-80840999D02*
X67463051Y-80781149D01*
X78252651Y-77322700D02*
X78252651Y-78527100D01*
X77791451Y-76861500D02*
X78252651Y-77322700D01*
X69909076Y-78335124D02*
X69909076Y-77835074D01*
X71289051Y-76455100D02*
X69909076Y-77835074D01*
%TO.N,ETH_REF_CLK*%
X74442200Y-75616900D02*
X74810500Y-75985200D01*
X66963052Y-77936299D02*
X66963052Y-81509700D01*
X75252651Y-77297400D02*
X75252651Y-77117251D01*
X75252651Y-77117251D02*
X74810500Y-76675100D01*
X75252651Y-78527100D02*
X75252651Y-77297400D01*
X70120651Y-74778700D02*
X66963052Y-77936299D01*
X73604000Y-74778700D02*
X70120651Y-74778700D01*
X74442200Y-75616900D02*
X73604000Y-74778700D01*
X74810500Y-75985200D02*
X74810500Y-76675100D01*
D44*
%TO.N,ETH_TXD0*%
X65463050Y-81509700D02*
X65463050Y-79131501D01*
X65463050Y-79131501D02*
X65650251Y-78944300D01*
%TO.N,ETH_TX_EN*%
X66310651Y-79655500D02*
X65963051Y-80003100D01*
X74277278Y-82052073D02*
X74277278Y-80629673D01*
X73303105Y-79655500D02*
X71136651Y-79655500D01*
X72827651Y-82452100D02*
X73877251Y-82452100D01*
X73877251Y-82452100D02*
X74277278Y-82052073D01*
X74277278Y-80629673D02*
X73693078Y-80045473D01*
X73693078Y-80045473D02*
X73303105Y-79655500D01*
X65963051Y-80003100D02*
X65963051Y-81509700D01*
D43*
%TO.N,ETH_MDIO*%
X70400051Y-78106100D02*
X71390651Y-77115500D01*
X71390651Y-77115500D02*
X74311651Y-77115500D01*
X74752651Y-77556500D02*
X74752651Y-78527100D01*
X74311651Y-77115500D02*
X74752651Y-77556500D01*
X68181551Y-82228200D02*
X68943851Y-82228200D01*
X70400051Y-80772000D02*
X70400051Y-78106100D01*
X68943851Y-82228200D02*
X70400051Y-80772000D01*
%TO.N,CLKIN*%
X66963052Y-86970700D02*
X66963052Y-88219400D01*
X70556000Y-91902400D02*
X69984500Y-91330900D01*
X66963052Y-85446700D02*
X66963052Y-86970700D01*
X66963052Y-88309452D02*
X69984500Y-91330900D01*
X66963052Y-88219400D02*
X66963052Y-88309452D01*
X72364600Y-91902400D02*
X70556000Y-91902400D01*
D46*
%TO.N,Net-(U6-PA8)*%
X78752651Y-91562651D02*
X78785600Y-91595600D01*
X78752651Y-89877100D02*
X78752651Y-91562651D01*
D43*
%TO.N,/RXD1*%
X85440400Y-70668000D02*
X84402901Y-69630501D01*
X85252651Y-79029349D02*
X85440400Y-78841600D01*
X85002100Y-81952100D02*
X85252651Y-81701549D01*
X84402901Y-69630501D02*
X84402901Y-68229001D01*
X85252651Y-81701549D02*
X85252651Y-79029349D01*
X85440400Y-78841600D02*
X85440400Y-70668000D01*
X84177651Y-81952100D02*
X85002100Y-81952100D01*
%TO.N,/TXD1*%
X85840400Y-79019400D02*
X85840400Y-67486600D01*
X83106902Y-66985000D02*
X81862901Y-68229001D01*
X84177651Y-82952100D02*
X84985061Y-82952100D01*
X85652651Y-79207149D02*
X85840400Y-79019400D01*
X85652651Y-82284510D02*
X85652651Y-79207149D01*
X84985061Y-82952100D02*
X85652651Y-82284510D01*
X85840400Y-67486600D02*
X85669000Y-67315200D01*
X85669000Y-67315200D02*
X85338800Y-66985000D01*
X85338800Y-66985000D02*
X83106902Y-66985000D01*
%TO.N,Net-(U6-PA11)*%
X80252651Y-90714749D02*
X80004800Y-90962600D01*
X80004800Y-90962600D02*
X80004800Y-91417800D01*
X80252651Y-89877100D02*
X80252651Y-90714749D01*
%TO.N,Net-(U6-PA12)*%
X80752651Y-90719851D02*
X80995400Y-90962600D01*
X80752651Y-89877100D02*
X80752651Y-90719851D01*
X80995400Y-90962600D02*
X80995400Y-91417800D01*
D44*
%TO.N,SPI_MISO_1*%
X67609600Y-99852600D02*
X67609600Y-101961900D01*
X73197600Y-95661600D02*
X70149600Y-98709600D01*
X85928200Y-90207633D02*
X81534000Y-94601833D01*
X75102600Y-95661600D02*
X73197600Y-95661600D01*
X80454967Y-94601833D02*
X76162367Y-94601833D01*
X67609600Y-101961900D02*
X68877901Y-103230201D01*
X85112500Y-84452100D02*
X85928200Y-85267800D01*
X84177651Y-84452100D02*
X85112500Y-84452100D01*
X81534000Y-94601833D02*
X80454967Y-94601833D01*
X68752600Y-98709600D02*
X67609600Y-99852600D01*
X85928200Y-85267800D02*
X85928200Y-90207633D01*
X70149600Y-98709600D02*
X68752600Y-98709600D01*
X76162367Y-94601833D02*
X75102600Y-95661600D01*
%TO.N,SCK_1*%
X69997200Y-98303200D02*
X68066800Y-98303200D01*
X66337901Y-100032099D02*
X66337901Y-100690201D01*
X80271567Y-94251833D02*
X75978967Y-94251833D01*
X68066800Y-98303200D02*
X67609600Y-98303200D01*
X67609600Y-98303200D02*
X66337901Y-99574899D01*
X85028300Y-84952100D02*
X85521800Y-85445600D01*
X75978967Y-94251833D02*
X74950200Y-95280600D01*
X74950200Y-95280600D02*
X73019800Y-95280600D01*
X73019800Y-95280600D02*
X69997200Y-98303200D01*
X66337901Y-99574899D02*
X66337901Y-100690201D01*
X84177651Y-84952100D02*
X85028300Y-84952100D01*
X85521800Y-85445600D02*
X85521800Y-90060833D01*
X85521800Y-90060833D02*
X81330800Y-94251833D01*
X80271567Y-94251833D02*
X81330800Y-94251833D01*
%TO.N,SPI_MOSI_1*%
X76345767Y-94951833D02*
X81678974Y-94951833D01*
X85120500Y-83952100D02*
X84177651Y-83952100D01*
X70149600Y-101961900D02*
X70149600Y-99268400D01*
X86278200Y-90352607D02*
X86278200Y-85109800D01*
X81678974Y-94951833D02*
X86278200Y-90352607D01*
X75255000Y-96042600D02*
X76345767Y-94951833D01*
X70149600Y-99268400D02*
X73375400Y-96042600D01*
X73375400Y-96042600D02*
X75255000Y-96042600D01*
X71417901Y-103230201D02*
X70149600Y-101961900D01*
X86278200Y-85109800D02*
X85120500Y-83952100D01*
%TO.N,CSN_1*%
X76579967Y-95301833D02*
X75458200Y-96423600D01*
X71417901Y-98635099D02*
X71417901Y-99295499D01*
X73629400Y-96423600D02*
X71417901Y-98635099D01*
X79573487Y-95305513D02*
X79569807Y-95301833D01*
X81820268Y-95305513D02*
X81788000Y-95305513D01*
X86639400Y-90486381D02*
X81820268Y-95305513D01*
X79569807Y-95301833D02*
X76579967Y-95301833D01*
X75458200Y-96423600D02*
X74289800Y-96423600D01*
X80792687Y-95305513D02*
X81788000Y-95305513D01*
X71417901Y-99295499D02*
X71417901Y-100690201D01*
X86639400Y-84937600D02*
X86639400Y-90486381D01*
X84177651Y-83452100D02*
X85153900Y-83452100D01*
X80792687Y-95305513D02*
X79573487Y-95305513D01*
X85153900Y-83452100D02*
X86639400Y-84937600D01*
X74289800Y-96423600D02*
X73629400Y-96423600D01*
D46*
%TO.N,CLK_EXT_1*%
X70255200Y-92516000D02*
X67762000Y-90022800D01*
X78785600Y-92516000D02*
X70255200Y-92516000D01*
X61640600Y-92181800D02*
X61640600Y-95179000D01*
X62250200Y-95788600D02*
X62250200Y-99142500D01*
X63799600Y-90022800D02*
X61640600Y-92181800D01*
X61640600Y-95179000D02*
X62250200Y-95788600D01*
X62250200Y-99142500D02*
X63797901Y-100690201D01*
X67762000Y-90022800D02*
X63799600Y-90022800D01*
D44*
%TO.N,INTR_1*%
X83510000Y-75011400D02*
X83052800Y-74554200D01*
X82417800Y-76992600D02*
X82595600Y-76992600D01*
X83510000Y-75544800D02*
X83510000Y-75011400D01*
X82595600Y-76992600D02*
X83459200Y-76129000D01*
X80752651Y-78527100D02*
X80752651Y-77616349D01*
X81873681Y-76992600D02*
X82417800Y-76992600D01*
X81802841Y-77063440D02*
X81873681Y-76992600D01*
X83510000Y-76078200D02*
X83510000Y-75544800D01*
X80752651Y-77616349D02*
X81020800Y-77348200D01*
X79496800Y-72090400D02*
X79217400Y-72090400D01*
X83052800Y-74554200D02*
X82824200Y-74325600D01*
X81625200Y-74218800D02*
X82717400Y-74218800D01*
X81211300Y-73804900D02*
X81625200Y-74218800D01*
X82717400Y-74218800D02*
X82824200Y-74325600D01*
X81211300Y-73804900D02*
X79496800Y-72090400D01*
X81518081Y-77348200D02*
X81802841Y-77063440D01*
X83459200Y-76129000D02*
X83510000Y-76078200D01*
X81020800Y-77348200D02*
X81518081Y-77348200D01*
%TO.N,DRV_ENN_1*%
X80614400Y-69804400D02*
X80614400Y-66980500D01*
X80614400Y-66980500D02*
X79322901Y-65689001D01*
X82798800Y-77373600D02*
X83916400Y-76256000D01*
X81752651Y-78527100D02*
X81752651Y-77752101D01*
X82131152Y-77373600D02*
X82798800Y-77373600D01*
X81752651Y-77752101D02*
X82131152Y-77373600D01*
X83916400Y-73106400D02*
X80614400Y-69804400D01*
X83916400Y-76256000D02*
X83916400Y-73106400D01*
D43*
%TO.N,D-*%
X62065600Y-94137600D02*
X62065600Y-94442400D01*
%TD*%
%TA.AperFunction,Conductor*%
%TO.N,GND*%
G36*
X44287953Y-86257046D02*
G01*
X44318449Y-86204228D01*
X44318451Y-86204225D01*
X44410848Y-85968799D01*
X44410852Y-85968787D01*
X44411508Y-85965915D01*
X44412022Y-85964994D01*
X44412222Y-85964349D01*
X44412360Y-85964391D01*
X44445616Y-85904936D01*
X44507277Y-85872077D01*
X44576914Y-85877770D01*
X44632419Y-85920209D01*
X44656168Y-85985919D01*
X44656400Y-85993505D01*
X44656400Y-87646901D01*
X44636715Y-87713940D01*
X44620081Y-87734582D01*
X43157577Y-89197085D01*
X43157575Y-89197087D01*
X43157575Y-89197088D01*
X43139854Y-89227782D01*
X43108563Y-89281980D01*
X43108140Y-89282712D01*
X43108140Y-89282713D01*
X43087675Y-89359090D01*
X43082550Y-89378215D01*
X43082550Y-91534488D01*
X43092705Y-91572384D01*
X43092705Y-91572386D01*
X43092706Y-91572386D01*
X43092706Y-91572387D01*
X43098335Y-91593395D01*
X43108140Y-91629989D01*
X43108141Y-91629990D01*
X43116561Y-91644574D01*
X43155997Y-91712879D01*
X43157576Y-91715613D01*
X45521502Y-94079540D01*
X45521507Y-94079544D01*
X46327237Y-94885275D01*
X46412863Y-94934711D01*
X46508364Y-94960300D01*
X46508365Y-94960300D01*
X46508366Y-94960300D01*
X55904058Y-94960300D01*
X55904059Y-94960300D01*
X55951809Y-94947505D01*
X55999561Y-94934710D01*
X56085185Y-94885275D01*
X56155098Y-94815362D01*
X61196880Y-89773580D01*
X61258203Y-89740095D01*
X61284561Y-89737261D01*
X63184028Y-89737261D01*
X63251067Y-89756946D01*
X63296822Y-89809750D01*
X63306766Y-89878908D01*
X63277741Y-89942464D01*
X63271709Y-89948942D01*
X61379337Y-91841315D01*
X61300117Y-91920534D01*
X61300113Y-91920540D01*
X61244098Y-92017560D01*
X61244097Y-92017563D01*
X61215100Y-92125782D01*
X61215100Y-95122982D01*
X61215100Y-95235018D01*
X61244097Y-95343237D01*
X61300115Y-95440263D01*
X61300117Y-95440265D01*
X61788381Y-95928529D01*
X61821866Y-95989852D01*
X61824700Y-96016210D01*
X61824700Y-99198517D01*
X61853697Y-99306736D01*
X61853698Y-99306739D01*
X61855398Y-99309683D01*
X61909715Y-99403763D01*
X61909717Y-99403765D01*
X62039989Y-99534037D01*
X62073474Y-99595360D01*
X62068490Y-99665052D01*
X62026618Y-99720985D01*
X61961154Y-99745402D01*
X61892881Y-99730550D01*
X61887031Y-99727145D01*
X61772702Y-99656356D01*
X61772694Y-99656352D01*
X61757901Y-99650620D01*
X61757901Y-100190201D01*
X62293613Y-100190201D01*
X62293613Y-100190200D01*
X62239839Y-100082208D01*
X62236821Y-100077333D01*
X62238675Y-100076184D01*
X62217372Y-100019797D01*
X62231935Y-99951462D01*
X62281131Y-99901848D01*
X62349341Y-99886708D01*
X62414908Y-99910847D01*
X62428699Y-99922747D01*
X62681875Y-100175923D01*
X62715360Y-100237246D01*
X62713460Y-100297539D01*
X62662145Y-100477890D01*
X62648572Y-100624375D01*
X62642472Y-100690201D01*
X62662145Y-100902511D01*
X62715576Y-101090300D01*
X62720497Y-101107593D01*
X62720497Y-101107595D01*
X62815533Y-101298454D01*
X62943775Y-101468272D01*
X62944029Y-101468608D01*
X63101599Y-101612253D01*
X63282882Y-101724499D01*
X63481703Y-101801522D01*
X63678514Y-101838312D01*
X63740794Y-101869980D01*
X63776067Y-101930293D01*
X63773133Y-102000101D01*
X63732924Y-102057241D01*
X63678514Y-102082089D01*
X63481703Y-102118880D01*
X63481700Y-102118880D01*
X63481700Y-102118881D01*
X63282883Y-102195902D01*
X63282881Y-102195903D01*
X63101600Y-102308148D01*
X62944028Y-102451794D01*
X62815533Y-102621947D01*
X62720497Y-102812806D01*
X62720497Y-102812808D01*
X62662145Y-103017890D01*
X62648572Y-103164375D01*
X62642472Y-103230201D01*
X62662145Y-103442511D01*
X62715576Y-103630300D01*
X62720497Y-103647593D01*
X62720497Y-103647595D01*
X62815533Y-103838454D01*
X62815535Y-103838456D01*
X62944029Y-104008608D01*
X63101599Y-104152253D01*
X63282882Y-104264499D01*
X63481703Y-104341522D01*
X63691291Y-104380701D01*
X63691293Y-104380701D01*
X63904509Y-104380701D01*
X63904511Y-104380701D01*
X64114099Y-104341522D01*
X64312920Y-104264499D01*
X64494203Y-104152253D01*
X64651773Y-104008608D01*
X64780267Y-103838456D01*
X64780399Y-103838190D01*
X64834171Y-103730201D01*
X65302189Y-103730201D01*
X65355960Y-103838190D01*
X65484401Y-104008272D01*
X65641901Y-104151852D01*
X65641903Y-104151854D01*
X65823103Y-104264048D01*
X65823105Y-104264049D01*
X65837901Y-104269780D01*
X65837901Y-104269779D01*
X66837901Y-104269779D01*
X66852696Y-104264049D01*
X66852698Y-104264048D01*
X67033898Y-104151854D01*
X67033900Y-104151852D01*
X67191400Y-104008272D01*
X67319841Y-103838190D01*
X67373613Y-103730201D01*
X66837901Y-103730201D01*
X66837901Y-104269779D01*
X65837901Y-104269779D01*
X65837901Y-103730201D01*
X65302189Y-103730201D01*
X64834171Y-103730201D01*
X64875304Y-103647595D01*
X64875304Y-103647594D01*
X64875306Y-103647590D01*
X64933657Y-103442511D01*
X64953330Y-103230201D01*
X64933657Y-103017891D01*
X64875306Y-102812812D01*
X64875304Y-102812807D01*
X64875304Y-102812806D01*
X64780268Y-102621947D01*
X64651773Y-102451794D01*
X64494203Y-102308149D01*
X64312920Y-102195903D01*
X64312918Y-102195902D01*
X64115348Y-102119364D01*
X64114099Y-102118880D01*
X63917286Y-102082089D01*
X63855007Y-102050422D01*
X63819734Y-101990109D01*
X63822668Y-101920301D01*
X63862877Y-101863161D01*
X63917285Y-101838312D01*
X64114099Y-101801522D01*
X64312920Y-101724499D01*
X64494203Y-101612253D01*
X64651773Y-101468608D01*
X64780267Y-101298456D01*
X64843973Y-101170516D01*
X64875304Y-101107595D01*
X64875304Y-101107594D01*
X64875306Y-101107590D01*
X64933657Y-100902511D01*
X64944430Y-100786248D01*
X64970216Y-100721312D01*
X65014770Y-100689395D01*
X64978398Y-100668532D01*
X64946208Y-100606519D01*
X64944430Y-100594152D01*
X64943750Y-100586814D01*
X64933657Y-100477891D01*
X64875306Y-100272812D01*
X64875304Y-100272807D01*
X64875304Y-100272806D01*
X64780268Y-100081947D01*
X64651773Y-99911794D01*
X64624255Y-99886708D01*
X64494203Y-99768149D01*
X64312920Y-99655903D01*
X64312918Y-99655902D01*
X64178136Y-99603688D01*
X64114099Y-99578880D01*
X63904511Y-99539701D01*
X63691291Y-99539701D01*
X63481703Y-99578880D01*
X63481698Y-99578881D01*
X63417664Y-99603688D01*
X63348041Y-99609550D01*
X63286301Y-99576839D01*
X63285190Y-99575742D01*
X62712019Y-99002571D01*
X62678534Y-98941248D01*
X62675700Y-98914890D01*
X62675700Y-98220234D01*
X62695385Y-98153195D01*
X62748189Y-98107440D01*
X62817347Y-98097496D01*
X62873330Y-98120462D01*
X62920118Y-98154993D01*
X62957499Y-98168073D01*
X63048299Y-98199846D01*
X63078730Y-98202700D01*
X63078734Y-98202700D01*
X63587270Y-98202700D01*
X63617699Y-98199846D01*
X63617701Y-98199846D01*
X63681790Y-98177419D01*
X63745882Y-98154993D01*
X63855150Y-98074350D01*
X63935793Y-97965082D01*
X63966634Y-97876943D01*
X63980646Y-97836901D01*
X63980646Y-97836899D01*
X63983500Y-97806469D01*
X63983500Y-97772639D01*
X64683001Y-97772639D01*
X64689081Y-97829207D01*
X64736813Y-97957181D01*
X64736815Y-97957184D01*
X64818671Y-98066531D01*
X64928012Y-98148382D01*
X64928021Y-98148387D01*
X64982999Y-98168892D01*
X64983000Y-98168892D01*
X65683000Y-98168892D01*
X65737978Y-98148387D01*
X65737987Y-98148382D01*
X65847328Y-98066531D01*
X65929184Y-97957184D01*
X65929185Y-97957183D01*
X65976916Y-97829210D01*
X65982999Y-97772628D01*
X65983000Y-97772627D01*
X65983000Y-97752200D01*
X65683000Y-97752200D01*
X65683000Y-98168892D01*
X64983000Y-98168892D01*
X64983000Y-97752200D01*
X64683001Y-97752200D01*
X64683001Y-97772639D01*
X63983500Y-97772639D01*
X63983500Y-97397930D01*
X63980646Y-97367500D01*
X63980646Y-97367498D01*
X63935793Y-97239319D01*
X63935792Y-97239317D01*
X63855150Y-97130050D01*
X63745882Y-97049407D01*
X63745880Y-97049406D01*
X63695483Y-97031771D01*
X64683000Y-97031771D01*
X64683000Y-97052200D01*
X64983000Y-97052200D01*
X65683000Y-97052200D01*
X65982999Y-97052200D01*
X65982999Y-97031766D01*
X65982998Y-97031760D01*
X65976918Y-96975192D01*
X65929186Y-96847218D01*
X65929184Y-96847215D01*
X65847329Y-96737870D01*
X65737986Y-96656016D01*
X65683000Y-96635507D01*
X65683000Y-97052200D01*
X64983000Y-97052200D01*
X64983000Y-96635507D01*
X64928013Y-96656016D01*
X64818670Y-96737870D01*
X64736815Y-96847215D01*
X64736814Y-96847216D01*
X64689083Y-96975189D01*
X64683000Y-97031771D01*
X63695483Y-97031771D01*
X63617700Y-97004553D01*
X63587270Y-97001700D01*
X63587266Y-97001700D01*
X63078734Y-97001700D01*
X63078730Y-97001700D01*
X63048300Y-97004553D01*
X63048298Y-97004553D01*
X62920119Y-97049406D01*
X62920118Y-97049407D01*
X62873333Y-97083936D01*
X62807704Y-97107906D01*
X62739534Y-97092590D01*
X62690466Y-97042850D01*
X62675700Y-96984165D01*
X62675700Y-96320234D01*
X62695385Y-96253195D01*
X62748189Y-96207440D01*
X62817347Y-96197496D01*
X62873330Y-96220462D01*
X62920118Y-96254993D01*
X62939220Y-96261677D01*
X63048299Y-96299846D01*
X63078730Y-96302700D01*
X63078734Y-96302700D01*
X63587270Y-96302700D01*
X63617699Y-96299846D01*
X63617701Y-96299846D01*
X63696844Y-96272152D01*
X63745882Y-96254993D01*
X63855150Y-96174350D01*
X63935793Y-96065082D01*
X63962504Y-95988746D01*
X63980646Y-95936901D01*
X63980646Y-95936899D01*
X63983500Y-95906469D01*
X63983500Y-95497930D01*
X63980646Y-95467500D01*
X63980646Y-95467498D01*
X63946534Y-95370013D01*
X63935793Y-95339318D01*
X63855150Y-95230050D01*
X63745882Y-95149407D01*
X63745880Y-95149406D01*
X63617700Y-95104553D01*
X63587270Y-95101700D01*
X63587266Y-95101700D01*
X63078734Y-95101700D01*
X63078730Y-95101700D01*
X63048301Y-95104553D01*
X62932678Y-95145011D01*
X62862899Y-95148572D01*
X62804043Y-95115650D01*
X62502419Y-94814026D01*
X62468934Y-94752703D01*
X62466100Y-94726345D01*
X62466100Y-94482802D01*
X62485785Y-94415763D01*
X62538589Y-94370008D01*
X62607747Y-94360064D01*
X62637553Y-94368241D01*
X62733861Y-94408133D01*
X62733871Y-94408136D01*
X62831799Y-94427615D01*
X62831800Y-94427615D01*
X62831800Y-93794354D01*
X62840186Y-93802740D01*
X62932072Y-93840800D01*
X63731528Y-93840800D01*
X63823414Y-93802740D01*
X63831800Y-93794354D01*
X63831800Y-94427615D01*
X63929728Y-94408136D01*
X63929738Y-94408133D01*
X64084425Y-94344060D01*
X64210442Y-94259858D01*
X64277119Y-94238980D01*
X64344499Y-94257464D01*
X64367014Y-94275279D01*
X64434320Y-94342585D01*
X64434325Y-94342588D01*
X64536923Y-94387889D01*
X64562005Y-94390799D01*
X64606799Y-94390799D01*
X64606800Y-94390798D01*
X64606800Y-93239800D01*
X64626485Y-93172761D01*
X64679289Y-93127006D01*
X64730800Y-93115800D01*
X64832300Y-93115800D01*
X64899339Y-93135485D01*
X64945094Y-93188289D01*
X64956300Y-93239800D01*
X64956300Y-94135656D01*
X64956302Y-94135682D01*
X64959213Y-94160787D01*
X64959215Y-94160791D01*
X65004593Y-94263564D01*
X65020481Y-94279452D01*
X65053966Y-94340775D01*
X65056800Y-94367133D01*
X65056800Y-94390799D01*
X65101586Y-94390799D01*
X65101608Y-94390797D01*
X65135942Y-94386816D01*
X65136174Y-94388817D01*
X65177370Y-94388817D01*
X65177545Y-94387310D01*
X65186807Y-94388384D01*
X65186809Y-94388385D01*
X65211935Y-94391300D01*
X65607300Y-94391299D01*
X65674339Y-94410983D01*
X65720094Y-94463787D01*
X65731300Y-94515299D01*
X65731300Y-94526655D01*
X65727960Y-94526655D01*
X65719577Y-94580364D01*
X65673190Y-94632614D01*
X65607411Y-94651499D01*
X65524873Y-94651499D01*
X65456966Y-94669695D01*
X65423012Y-94678793D01*
X65389215Y-94698306D01*
X65331687Y-94731520D01*
X65264189Y-94799018D01*
X65264188Y-94799017D01*
X65264186Y-94799020D01*
X65012522Y-95050684D01*
X65012515Y-95050693D01*
X64987489Y-95094038D01*
X64936921Y-95142252D01*
X64921072Y-95149072D01*
X64920124Y-95149403D01*
X64920118Y-95149406D01*
X64810850Y-95230050D01*
X64730207Y-95339317D01*
X64730206Y-95339319D01*
X64685353Y-95467498D01*
X64685353Y-95467500D01*
X64682500Y-95497930D01*
X64682500Y-95906469D01*
X64685353Y-95936899D01*
X64685353Y-95936901D01*
X64722132Y-96042006D01*
X64730207Y-96065082D01*
X64810850Y-96174350D01*
X64920118Y-96254993D01*
X64939220Y-96261677D01*
X65048299Y-96299846D01*
X65078730Y-96302700D01*
X65078734Y-96302700D01*
X65587270Y-96302700D01*
X65617699Y-96299846D01*
X65617701Y-96299846D01*
X65696844Y-96272152D01*
X65745882Y-96254993D01*
X65855150Y-96174350D01*
X65935793Y-96065082D01*
X65962504Y-95988743D01*
X66003225Y-95931970D01*
X66068178Y-95906222D01*
X66136739Y-95919678D01*
X66167226Y-95942019D01*
X66660887Y-96435680D01*
X66752212Y-96488407D01*
X66854073Y-96515700D01*
X66854075Y-96515700D01*
X70954301Y-96515700D01*
X71021340Y-96535385D01*
X71067095Y-96588189D01*
X71077039Y-96657347D01*
X71048014Y-96720903D01*
X71041982Y-96727381D01*
X69877982Y-97891381D01*
X69816659Y-97924866D01*
X69790301Y-97927700D01*
X67560163Y-97927700D01*
X67532346Y-97935153D01*
X67532346Y-97935154D01*
X67464662Y-97953290D01*
X67464661Y-97953290D01*
X67464659Y-97953291D01*
X67379036Y-98002726D01*
X66037427Y-99344335D01*
X65987992Y-99429958D01*
X65987992Y-99429959D01*
X65962401Y-99525465D01*
X65961399Y-99533076D01*
X65933130Y-99596972D01*
X65883255Y-99632513D01*
X65822888Y-99655899D01*
X65822880Y-99655903D01*
X65641600Y-99768148D01*
X65484028Y-99911794D01*
X65355533Y-100081947D01*
X65260497Y-100272806D01*
X65260497Y-100272808D01*
X65202145Y-100477890D01*
X65191372Y-100594152D01*
X65165586Y-100659089D01*
X65121031Y-100691005D01*
X65157404Y-100711869D01*
X65189594Y-100773882D01*
X65191371Y-100786248D01*
X65202145Y-100902511D01*
X65255576Y-101090300D01*
X65260497Y-101107593D01*
X65260497Y-101107595D01*
X65355533Y-101298454D01*
X65483775Y-101468272D01*
X65484029Y-101468608D01*
X65641599Y-101612253D01*
X65822882Y-101724499D01*
X66021703Y-101801522D01*
X66219874Y-101838566D01*
X66282154Y-101870234D01*
X66317427Y-101930547D01*
X66314493Y-102000355D01*
X66274284Y-102057495D01*
X66219873Y-102082344D01*
X66021842Y-102119363D01*
X66021837Y-102119364D01*
X65823111Y-102196350D01*
X65823102Y-102196354D01*
X65641903Y-102308547D01*
X65641901Y-102308549D01*
X65484401Y-102452129D01*
X65355960Y-102622211D01*
X65302188Y-102730200D01*
X65302189Y-102730201D01*
X66272075Y-102730201D01*
X66144908Y-102764276D01*
X66030894Y-102830102D01*
X65937802Y-102923194D01*
X65871976Y-103037208D01*
X65837901Y-103164375D01*
X65837901Y-103296027D01*
X65871976Y-103423194D01*
X65937802Y-103537208D01*
X66030894Y-103630300D01*
X66144908Y-103696126D01*
X66272075Y-103730201D01*
X66403727Y-103730201D01*
X66530894Y-103696126D01*
X66644908Y-103630300D01*
X66738000Y-103537208D01*
X66803826Y-103423194D01*
X66837901Y-103296027D01*
X66837901Y-103164375D01*
X66803826Y-103037208D01*
X66738000Y-102923194D01*
X66644908Y-102830102D01*
X66530894Y-102764276D01*
X66403727Y-102730201D01*
X67373613Y-102730201D01*
X67373613Y-102730200D01*
X67319841Y-102622211D01*
X67191400Y-102452129D01*
X67033900Y-102308549D01*
X67033898Y-102308547D01*
X66852699Y-102196354D01*
X66852690Y-102196350D01*
X66653964Y-102119364D01*
X66653959Y-102119363D01*
X66455928Y-102082344D01*
X66393647Y-102050676D01*
X66358374Y-101990363D01*
X66361308Y-101920555D01*
X66401517Y-101863415D01*
X66455925Y-101838567D01*
X66654099Y-101801522D01*
X66852920Y-101724499D01*
X67034203Y-101612253D01*
X67034206Y-101612250D01*
X67035367Y-101611374D01*
X67036022Y-101611126D01*
X67039077Y-101609235D01*
X67039446Y-101609832D01*
X67100727Y-101586678D01*
X67169062Y-101601238D01*
X67218678Y-101650433D01*
X67234100Y-101710323D01*
X67234100Y-102011335D01*
X67259690Y-102106838D01*
X67295748Y-102169293D01*
X67309126Y-102192463D01*
X67780283Y-102663620D01*
X67813768Y-102724943D01*
X67808784Y-102794635D01*
X67803605Y-102806568D01*
X67800496Y-102812811D01*
X67742145Y-103017890D01*
X67728572Y-103164375D01*
X67722472Y-103230201D01*
X67742145Y-103442511D01*
X67795576Y-103630300D01*
X67800497Y-103647593D01*
X67800497Y-103647595D01*
X67895533Y-103838454D01*
X67895535Y-103838456D01*
X68024029Y-104008608D01*
X68181599Y-104152253D01*
X68362882Y-104264499D01*
X68561703Y-104341522D01*
X68771291Y-104380701D01*
X68771293Y-104380701D01*
X68984509Y-104380701D01*
X68984511Y-104380701D01*
X69194099Y-104341522D01*
X69392920Y-104264499D01*
X69574203Y-104152253D01*
X69731773Y-104008608D01*
X69860267Y-103838456D01*
X69860399Y-103838190D01*
X69955304Y-103647595D01*
X69955304Y-103647594D01*
X69955306Y-103647590D01*
X70013657Y-103442511D01*
X70024430Y-103326248D01*
X70050216Y-103261312D01*
X70094770Y-103229395D01*
X70058398Y-103208532D01*
X70026208Y-103146519D01*
X70024430Y-103134152D01*
X70023750Y-103126814D01*
X70013657Y-103017891D01*
X69955306Y-102812812D01*
X69955304Y-102812807D01*
X69955304Y-102812806D01*
X69860268Y-102621947D01*
X69731773Y-102451794D01*
X69574203Y-102308149D01*
X69392920Y-102195903D01*
X69392918Y-102195902D01*
X69194102Y-102118881D01*
X69194101Y-102118880D01*
X69194099Y-102118880D01*
X68995927Y-102081835D01*
X68933647Y-102050166D01*
X68898374Y-101989854D01*
X68901308Y-101920046D01*
X68941517Y-101862906D01*
X68995928Y-101838057D01*
X69193959Y-101801038D01*
X69193964Y-101801037D01*
X69392690Y-101724051D01*
X69392699Y-101724047D01*
X69573893Y-101611857D01*
X69575365Y-101610746D01*
X69576195Y-101610432D01*
X69578775Y-101608835D01*
X69579087Y-101609339D01*
X69640725Y-101586049D01*
X69709061Y-101600608D01*
X69758677Y-101649802D01*
X69774100Y-101709694D01*
X69774100Y-102011335D01*
X69799690Y-102106838D01*
X69835748Y-102169293D01*
X69849126Y-102192463D01*
X70320283Y-102663620D01*
X70353768Y-102724943D01*
X70348784Y-102794635D01*
X70343605Y-102806568D01*
X70340496Y-102812811D01*
X70282145Y-103017890D01*
X70271372Y-103134152D01*
X70245586Y-103199089D01*
X70201031Y-103231005D01*
X70237404Y-103251869D01*
X70269594Y-103313882D01*
X70271371Y-103326248D01*
X70282145Y-103442511D01*
X70335576Y-103630300D01*
X70340497Y-103647593D01*
X70340497Y-103647595D01*
X70435533Y-103838454D01*
X70435535Y-103838456D01*
X70564029Y-104008608D01*
X70721599Y-104152253D01*
X70902882Y-104264499D01*
X71101703Y-104341522D01*
X71311291Y-104380701D01*
X71311293Y-104380701D01*
X71524509Y-104380701D01*
X71524511Y-104380701D01*
X71734099Y-104341522D01*
X71932920Y-104264499D01*
X72114203Y-104152253D01*
X72271773Y-104008608D01*
X72400267Y-103838456D01*
X72400399Y-103838190D01*
X72495304Y-103647595D01*
X72495304Y-103647594D01*
X72495306Y-103647590D01*
X72553657Y-103442511D01*
X72573330Y-103230201D01*
X72553657Y-103017891D01*
X72495306Y-102812812D01*
X72495304Y-102812807D01*
X72495304Y-102812806D01*
X72400268Y-102621947D01*
X72271773Y-102451794D01*
X72114203Y-102308149D01*
X71932920Y-102195903D01*
X71932918Y-102195902D01*
X71735348Y-102119364D01*
X71734099Y-102118880D01*
X71561354Y-102086588D01*
X71499075Y-102054921D01*
X71463802Y-101994608D01*
X71466736Y-101924800D01*
X71506945Y-101867660D01*
X71571663Y-101841329D01*
X71584141Y-101840700D01*
X72312757Y-101840700D01*
X72312765Y-101840700D01*
X72312780Y-101840698D01*
X72312783Y-101840698D01*
X72337888Y-101837787D01*
X72337889Y-101837786D01*
X72337892Y-101837786D01*
X72440666Y-101792407D01*
X72520107Y-101712966D01*
X72565486Y-101610192D01*
X72568401Y-101585066D01*
X72568400Y-99795337D01*
X72568181Y-99793445D01*
X72565487Y-99770213D01*
X72565486Y-99770211D01*
X72565486Y-99770210D01*
X72520107Y-99667436D01*
X72440666Y-99587995D01*
X72337893Y-99542616D01*
X72312769Y-99539701D01*
X72312766Y-99539701D01*
X71917401Y-99539701D01*
X71850362Y-99520016D01*
X71804607Y-99467212D01*
X71793401Y-99415701D01*
X71793401Y-98841998D01*
X71813086Y-98774959D01*
X71829720Y-98754317D01*
X73748619Y-96835419D01*
X73809942Y-96801934D01*
X73836300Y-96799100D01*
X74240365Y-96799100D01*
X74985208Y-96799100D01*
X75052247Y-96818785D01*
X75098002Y-96871589D01*
X75107946Y-96940747D01*
X75078921Y-97004303D01*
X75076438Y-97007083D01*
X74786075Y-97322501D01*
X74786067Y-97322510D01*
X74506621Y-97681543D01*
X74506611Y-97681557D01*
X74257739Y-98062483D01*
X74041192Y-98462628D01*
X74041183Y-98462647D01*
X73858412Y-98879323D01*
X73710676Y-99309665D01*
X73710673Y-99309673D01*
X73710672Y-99309679D01*
X73642467Y-99579016D01*
X73598976Y-99750760D01*
X73598975Y-99750764D01*
X73524085Y-100199557D01*
X73510422Y-100364452D01*
X73486512Y-100653012D01*
X73486512Y-100653018D01*
X73486512Y-100653019D01*
X73486513Y-100814620D01*
X73486513Y-103773981D01*
X73486197Y-103782828D01*
X73471881Y-103982966D01*
X73469363Y-104000478D01*
X73427655Y-104192199D01*
X73422671Y-104209173D01*
X73354101Y-104393017D01*
X73346751Y-104409111D01*
X73252720Y-104581314D01*
X73243155Y-104596197D01*
X73125568Y-104753275D01*
X73113982Y-104766646D01*
X72975246Y-104905382D01*
X72961875Y-104916968D01*
X72804797Y-105034555D01*
X72789914Y-105044120D01*
X72617711Y-105138151D01*
X72601617Y-105145501D01*
X72417773Y-105214071D01*
X72400799Y-105219055D01*
X72209078Y-105260763D01*
X72191566Y-105263281D01*
X71991429Y-105277597D01*
X71982582Y-105277913D01*
X58220511Y-105277913D01*
X58220495Y-105277912D01*
X58151435Y-105277912D01*
X58142590Y-105277596D01*
X57942449Y-105263283D01*
X57924937Y-105260765D01*
X57733216Y-105219060D01*
X57716240Y-105214076D01*
X57532399Y-105145508D01*
X57516306Y-105138159D01*
X57344095Y-105044126D01*
X57329212Y-105034561D01*
X57172135Y-104916977D01*
X57158763Y-104905391D01*
X57020020Y-104766650D01*
X57008434Y-104753279D01*
X56890850Y-104596206D01*
X56881285Y-104581323D01*
X56849812Y-104523686D01*
X56787246Y-104409107D01*
X56779899Y-104393019D01*
X56779898Y-104393017D01*
X56711328Y-104209173D01*
X56706345Y-104192202D01*
X56697567Y-104151852D01*
X56664635Y-104000475D01*
X56662118Y-103982966D01*
X56647829Y-103783189D01*
X56647513Y-103774343D01*
X56647513Y-100806605D01*
X56647487Y-100806212D01*
X56647487Y-100756027D01*
X56647488Y-100690201D01*
X57562472Y-100690201D01*
X57582145Y-100902511D01*
X57635576Y-101090300D01*
X57640497Y-101107593D01*
X57640497Y-101107595D01*
X57735533Y-101298454D01*
X57863775Y-101468272D01*
X57864029Y-101468608D01*
X58021599Y-101612253D01*
X58202882Y-101724499D01*
X58401703Y-101801522D01*
X58598514Y-101838312D01*
X58660794Y-101869980D01*
X58696067Y-101930293D01*
X58693133Y-102000101D01*
X58652924Y-102057241D01*
X58598514Y-102082089D01*
X58401703Y-102118880D01*
X58401700Y-102118880D01*
X58401700Y-102118881D01*
X58202883Y-102195902D01*
X58202881Y-102195903D01*
X58021600Y-102308148D01*
X57864028Y-102451794D01*
X57735533Y-102621947D01*
X57640497Y-102812806D01*
X57640497Y-102812808D01*
X57582145Y-103017890D01*
X57568572Y-103164375D01*
X57562472Y-103230201D01*
X57582145Y-103442511D01*
X57635576Y-103630300D01*
X57640497Y-103647593D01*
X57640497Y-103647595D01*
X57735533Y-103838454D01*
X57735535Y-103838456D01*
X57864029Y-104008608D01*
X58021599Y-104152253D01*
X58202882Y-104264499D01*
X58401703Y-104341522D01*
X58611291Y-104380701D01*
X58611293Y-104380701D01*
X58824509Y-104380701D01*
X58824511Y-104380701D01*
X59034099Y-104341522D01*
X59232920Y-104264499D01*
X59414203Y-104152253D01*
X59571773Y-104008608D01*
X59700267Y-103838456D01*
X59700399Y-103838190D01*
X59754171Y-103730201D01*
X60222189Y-103730201D01*
X60275960Y-103838190D01*
X60404401Y-104008272D01*
X60561901Y-104151852D01*
X60561903Y-104151854D01*
X60743103Y-104264048D01*
X60743105Y-104264049D01*
X60757901Y-104269780D01*
X60757901Y-104269779D01*
X61757901Y-104269779D01*
X61772696Y-104264049D01*
X61772698Y-104264048D01*
X61953898Y-104151854D01*
X61953900Y-104151852D01*
X62111400Y-104008272D01*
X62239841Y-103838190D01*
X62293613Y-103730201D01*
X61757901Y-103730201D01*
X61757901Y-104269779D01*
X60757901Y-104269779D01*
X60757901Y-103730201D01*
X60222189Y-103730201D01*
X59754171Y-103730201D01*
X59795304Y-103647595D01*
X59795304Y-103647594D01*
X59795306Y-103647590D01*
X59853657Y-103442511D01*
X59873330Y-103230201D01*
X59853657Y-103017891D01*
X59795306Y-102812812D01*
X59795304Y-102812807D01*
X59795304Y-102812806D01*
X59754171Y-102730200D01*
X60222188Y-102730200D01*
X60222189Y-102730201D01*
X61192075Y-102730201D01*
X61064908Y-102764276D01*
X60950894Y-102830102D01*
X60857802Y-102923194D01*
X60791976Y-103037208D01*
X60757901Y-103164375D01*
X60757901Y-103296027D01*
X60791976Y-103423194D01*
X60857802Y-103537208D01*
X60950894Y-103630300D01*
X61064908Y-103696126D01*
X61192075Y-103730201D01*
X61323727Y-103730201D01*
X61450894Y-103696126D01*
X61564908Y-103630300D01*
X61658000Y-103537208D01*
X61723826Y-103423194D01*
X61757901Y-103296027D01*
X61757901Y-103164375D01*
X61723826Y-103037208D01*
X61658000Y-102923194D01*
X61564908Y-102830102D01*
X61450894Y-102764276D01*
X61323727Y-102730201D01*
X62293613Y-102730201D01*
X62293613Y-102730200D01*
X62239841Y-102622211D01*
X62111400Y-102452129D01*
X61953900Y-102308549D01*
X61953898Y-102308547D01*
X61772699Y-102196354D01*
X61772690Y-102196350D01*
X61573964Y-102119364D01*
X61573959Y-102119363D01*
X61374567Y-102082090D01*
X61312286Y-102050422D01*
X61277013Y-101990109D01*
X61279947Y-101920301D01*
X61320156Y-101863161D01*
X61374567Y-101838312D01*
X61573959Y-101801038D01*
X61573964Y-101801037D01*
X61772690Y-101724051D01*
X61772699Y-101724047D01*
X61953898Y-101611854D01*
X61953900Y-101611852D01*
X62111400Y-101468272D01*
X62239841Y-101298190D01*
X62293613Y-101190201D01*
X61323727Y-101190201D01*
X61450894Y-101156126D01*
X61564908Y-101090300D01*
X61658000Y-100997208D01*
X61723826Y-100883194D01*
X61757901Y-100756027D01*
X61757901Y-100624375D01*
X61723826Y-100497208D01*
X61658000Y-100383194D01*
X61564908Y-100290102D01*
X61450894Y-100224276D01*
X61323727Y-100190201D01*
X61192075Y-100190201D01*
X61064908Y-100224276D01*
X60950894Y-100290102D01*
X60857802Y-100383194D01*
X60791976Y-100497208D01*
X60757901Y-100624375D01*
X60757901Y-100756027D01*
X60791976Y-100883194D01*
X60857802Y-100997208D01*
X60950894Y-101090300D01*
X61064908Y-101156126D01*
X61192075Y-101190201D01*
X60222189Y-101190201D01*
X60275960Y-101298190D01*
X60404401Y-101468272D01*
X60561901Y-101611852D01*
X60561903Y-101611854D01*
X60743102Y-101724047D01*
X60743111Y-101724051D01*
X60941837Y-101801037D01*
X60941842Y-101801038D01*
X61141234Y-101838312D01*
X61203515Y-101869980D01*
X61238788Y-101930293D01*
X61235854Y-102000101D01*
X61195645Y-102057241D01*
X61141234Y-102082090D01*
X60941842Y-102119363D01*
X60941837Y-102119364D01*
X60743111Y-102196350D01*
X60743102Y-102196354D01*
X60561903Y-102308547D01*
X60561901Y-102308549D01*
X60404401Y-102452129D01*
X60275960Y-102622211D01*
X60222188Y-102730200D01*
X59754171Y-102730200D01*
X59700268Y-102621947D01*
X59571773Y-102451794D01*
X59414203Y-102308149D01*
X59232920Y-102195903D01*
X59232918Y-102195902D01*
X59035348Y-102119364D01*
X59034099Y-102118880D01*
X58837286Y-102082089D01*
X58775007Y-102050422D01*
X58739734Y-101990109D01*
X58742668Y-101920301D01*
X58782877Y-101863161D01*
X58837285Y-101838312D01*
X59034099Y-101801522D01*
X59232920Y-101724499D01*
X59414203Y-101612253D01*
X59571773Y-101468608D01*
X59700267Y-101298456D01*
X59763973Y-101170516D01*
X59795304Y-101107595D01*
X59795304Y-101107594D01*
X59795306Y-101107590D01*
X59853657Y-100902511D01*
X59873330Y-100690201D01*
X59853657Y-100477891D01*
X59795306Y-100272812D01*
X59795304Y-100272807D01*
X59795304Y-100272806D01*
X59754171Y-100190200D01*
X60222188Y-100190200D01*
X60222189Y-100190201D01*
X60757901Y-100190201D01*
X60757901Y-99650621D01*
X60757900Y-99650620D01*
X60743107Y-99656352D01*
X60743099Y-99656356D01*
X60561903Y-99768547D01*
X60561901Y-99768549D01*
X60404401Y-99912129D01*
X60275960Y-100082211D01*
X60222188Y-100190200D01*
X59754171Y-100190200D01*
X59700268Y-100081947D01*
X59571773Y-99911794D01*
X59544255Y-99886708D01*
X59414203Y-99768149D01*
X59256829Y-99670707D01*
X59228046Y-99652885D01*
X59229342Y-99650790D01*
X59185870Y-99610458D01*
X59168401Y-99546998D01*
X59168401Y-98247390D01*
X59188086Y-98180351D01*
X59240890Y-98134596D01*
X59246879Y-98132048D01*
X59356142Y-98088961D01*
X59476722Y-97997522D01*
X59568161Y-97876942D01*
X59623147Y-97737506D01*
X59666051Y-97682366D01*
X59731958Y-97659172D01*
X59799943Y-97675292D01*
X59838270Y-97709365D01*
X59880619Y-97766745D01*
X59904590Y-97832373D01*
X59889275Y-97900544D01*
X59880619Y-97914013D01*
X59837347Y-97972644D01*
X59793491Y-98097973D01*
X59793489Y-98097985D01*
X59790700Y-98127729D01*
X59790700Y-98513870D01*
X59793489Y-98543614D01*
X59793491Y-98543626D01*
X59823982Y-98630760D01*
X59837348Y-98668957D01*
X59916201Y-98775799D01*
X60023043Y-98854652D01*
X60061203Y-98868004D01*
X60148373Y-98898508D01*
X60148377Y-98898508D01*
X60148381Y-98898510D01*
X60163257Y-98899905D01*
X60178130Y-98901300D01*
X60178134Y-98901300D01*
X60624270Y-98901300D01*
X60637489Y-98900060D01*
X60654019Y-98898510D01*
X60654023Y-98898508D01*
X60654026Y-98898508D01*
X60708852Y-98879323D01*
X60779357Y-98854652D01*
X60886199Y-98775799D01*
X60965052Y-98668957D01*
X61008910Y-98543619D01*
X61011700Y-98513866D01*
X61011700Y-98127734D01*
X61011133Y-98121690D01*
X61008910Y-98097985D01*
X61008910Y-98097981D01*
X61008908Y-98097977D01*
X61008908Y-98097973D01*
X60975578Y-98002725D01*
X60965052Y-97972643D01*
X60921780Y-97914012D01*
X60897810Y-97848384D01*
X60913126Y-97780213D01*
X60921781Y-97766745D01*
X60964604Y-97708722D01*
X60964605Y-97708720D01*
X60988371Y-97640800D01*
X60245200Y-97640800D01*
X60178161Y-97621115D01*
X60132406Y-97568311D01*
X60121200Y-97516800D01*
X60121200Y-97080800D01*
X60681200Y-97080800D01*
X60988372Y-97080800D01*
X60988371Y-97080799D01*
X60964605Y-97012879D01*
X60964604Y-97012877D01*
X60885841Y-96906158D01*
X60779120Y-96827394D01*
X60681200Y-96793130D01*
X60681200Y-97080800D01*
X60121200Y-97080800D01*
X60121200Y-96793130D01*
X60121199Y-96793130D01*
X60023279Y-96827394D01*
X59916558Y-96906158D01*
X59858070Y-96985407D01*
X59802422Y-97027658D01*
X59732765Y-97033115D01*
X59671216Y-97000048D01*
X59637316Y-96938953D01*
X59634300Y-96911773D01*
X59634300Y-96611503D01*
X59634300Y-96611498D01*
X59623677Y-96523036D01*
X59568161Y-96382258D01*
X59568160Y-96382257D01*
X59568160Y-96382256D01*
X59476722Y-96261677D01*
X59356143Y-96170239D01*
X59259992Y-96132322D01*
X59215364Y-96114723D01*
X59215363Y-96114722D01*
X59215361Y-96114722D01*
X59169726Y-96109242D01*
X59126902Y-96104100D01*
X58365698Y-96104100D01*
X58326653Y-96108788D01*
X58277238Y-96114722D01*
X58136456Y-96170239D01*
X58015877Y-96261677D01*
X57924439Y-96382256D01*
X57868922Y-96523038D01*
X57862988Y-96572453D01*
X57858300Y-96611498D01*
X57858300Y-97647702D01*
X57862367Y-97681572D01*
X57868922Y-97736161D01*
X57924439Y-97876943D01*
X58015877Y-97997522D01*
X58136455Y-98088959D01*
X58136458Y-98088961D01*
X58188891Y-98109637D01*
X58244035Y-98152543D01*
X58267228Y-98218451D01*
X58267401Y-98224992D01*
X58267401Y-99546998D01*
X58247716Y-99614037D01*
X58206555Y-99650945D01*
X58207756Y-99652885D01*
X58021600Y-99768148D01*
X57864028Y-99911794D01*
X57735533Y-100081947D01*
X57640497Y-100272806D01*
X57640497Y-100272808D01*
X57582145Y-100477890D01*
X57568572Y-100624375D01*
X57562472Y-100690201D01*
X56647488Y-100690201D01*
X56647488Y-100653011D01*
X56609915Y-100199562D01*
X56605970Y-100175923D01*
X56545720Y-99814856D01*
X56535025Y-99750763D01*
X56423329Y-99309683D01*
X56423323Y-99309665D01*
X56275591Y-98879331D01*
X56187586Y-98678700D01*
X56092819Y-98462651D01*
X56005757Y-98301773D01*
X55991162Y-98233445D01*
X56015825Y-98168073D01*
X56071916Y-98126412D01*
X56141626Y-98121690D01*
X56160302Y-98127401D01*
X56171300Y-98131738D01*
X57171300Y-98131738D01*
X57280894Y-98088521D01*
X57401364Y-97997164D01*
X57492720Y-97876695D01*
X57548186Y-97736043D01*
X57558800Y-97647653D01*
X57558800Y-97629600D01*
X57171300Y-97629600D01*
X57171300Y-98131738D01*
X56171300Y-98131738D01*
X56171300Y-97629600D01*
X55783799Y-97629600D01*
X55772393Y-97641006D01*
X55711070Y-97674490D01*
X55641378Y-97669505D01*
X55586859Y-97629486D01*
X55434467Y-97433692D01*
X55347931Y-97322510D01*
X55039767Y-96987752D01*
X54705010Y-96679586D01*
X54617593Y-96611546D01*
X55783800Y-96611546D01*
X55783800Y-96629600D01*
X56171300Y-96629600D01*
X57171300Y-96629600D01*
X57558800Y-96629600D01*
X57558800Y-96611546D01*
X57548186Y-96523156D01*
X57492720Y-96382504D01*
X57401364Y-96262035D01*
X57280894Y-96170678D01*
X57171300Y-96127460D01*
X57171300Y-96629600D01*
X56171300Y-96629600D01*
X56171300Y-96127460D01*
X56061705Y-96170678D01*
X55941235Y-96262035D01*
X55849879Y-96382504D01*
X55794413Y-96523156D01*
X55783800Y-96611546D01*
X54617593Y-96611546D01*
X54345951Y-96400117D01*
X54192475Y-96299846D01*
X53965036Y-96151252D01*
X53564873Y-95934693D01*
X53148193Y-95751919D01*
X53148187Y-95751917D01*
X53148185Y-95751916D01*
X53148186Y-95751916D01*
X52717860Y-95604183D01*
X52717850Y-95604180D01*
X52717843Y-95604178D01*
X52394560Y-95522311D01*
X52276763Y-95492481D01*
X51827960Y-95417587D01*
X51827955Y-95417586D01*
X51374526Y-95380013D01*
X51374515Y-95380013D01*
X51212904Y-95380013D01*
X42875011Y-95380013D01*
X42874995Y-95380012D01*
X42805935Y-95380012D01*
X42797090Y-95379696D01*
X42596949Y-95365383D01*
X42579437Y-95362865D01*
X42387716Y-95321160D01*
X42370740Y-95316176D01*
X42186899Y-95247608D01*
X42170806Y-95240259D01*
X41998595Y-95146226D01*
X41983712Y-95136661D01*
X41826635Y-95019077D01*
X41813263Y-95007491D01*
X41674520Y-94868750D01*
X41662934Y-94855379D01*
X41632977Y-94815362D01*
X41545346Y-94698300D01*
X41535785Y-94683423D01*
X41485507Y-94591347D01*
X41441746Y-94511207D01*
X41434399Y-94495119D01*
X41434398Y-94495117D01*
X41365828Y-94311273D01*
X41360845Y-94294302D01*
X41360844Y-94294299D01*
X41319135Y-94102575D01*
X41316618Y-94085066D01*
X41315717Y-94072475D01*
X41302329Y-93885289D01*
X41302013Y-93876443D01*
X41302013Y-86306042D01*
X41321698Y-86239003D01*
X41338332Y-86218361D01*
X41889835Y-85666857D01*
X41904347Y-85739813D01*
X41974075Y-85908152D01*
X42075305Y-86059653D01*
X42204147Y-86188495D01*
X42355648Y-86289725D01*
X42523987Y-86359453D01*
X42596941Y-86373964D01*
X42006881Y-86964024D01*
X42175555Y-87045252D01*
X42175553Y-87045252D01*
X42417234Y-87119801D01*
X42417240Y-87119802D01*
X42667333Y-87157499D01*
X42667340Y-87157500D01*
X42920260Y-87157500D01*
X42920266Y-87157499D01*
X43170359Y-87119802D01*
X43170365Y-87119801D01*
X43412042Y-87045253D01*
X43580716Y-86964023D01*
X42990657Y-86373964D01*
X43063613Y-86359453D01*
X43231952Y-86289725D01*
X43383453Y-86188495D01*
X43512295Y-86059653D01*
X43613525Y-85908152D01*
X43683253Y-85739813D01*
X43697764Y-85666857D01*
X44287953Y-86257046D01*
G37*
%TD.AperFunction*%
%TA.AperFunction,Conductor*%
G36*
X68411976Y-100883194D02*
G01*
X68477802Y-100997208D01*
X68570894Y-101090300D01*
X68684908Y-101156126D01*
X68812075Y-101190201D01*
X68501901Y-101190201D01*
X68434862Y-101170516D01*
X68389107Y-101117712D01*
X68377901Y-101066201D01*
X68377901Y-100756027D01*
X68411976Y-100883194D01*
G37*
%TD.AperFunction*%
%TA.AperFunction,Conductor*%
G36*
X69377901Y-101066201D02*
G01*
X69358216Y-101133240D01*
X69305412Y-101178995D01*
X69253901Y-101190201D01*
X68943727Y-101190201D01*
X69070894Y-101156126D01*
X69184908Y-101090300D01*
X69278000Y-100997208D01*
X69343826Y-100883194D01*
X69377901Y-100756027D01*
X69377901Y-101066201D01*
G37*
%TD.AperFunction*%
%TA.AperFunction,Conductor*%
G36*
X69717368Y-99104785D02*
G01*
X69763123Y-99157589D01*
X69771100Y-99210838D01*
X69774100Y-99210838D01*
X69774100Y-99670707D01*
X69754415Y-99737746D01*
X69701611Y-99783501D01*
X69632453Y-99793445D01*
X69579015Y-99771179D01*
X69578775Y-99771567D01*
X69576366Y-99770075D01*
X69575376Y-99769663D01*
X69573900Y-99768549D01*
X69392702Y-99656356D01*
X69392694Y-99656352D01*
X69377901Y-99650620D01*
X69377901Y-100624375D01*
X69343826Y-100497208D01*
X69278000Y-100383194D01*
X69184908Y-100290102D01*
X69070894Y-100224276D01*
X68943727Y-100190201D01*
X68812075Y-100190201D01*
X68684908Y-100224276D01*
X68570894Y-100290102D01*
X68477802Y-100383194D01*
X68411976Y-100497208D01*
X68377901Y-100624375D01*
X68377901Y-99666697D01*
X68397586Y-99599658D01*
X68414215Y-99579021D01*
X68871818Y-99121419D01*
X68933141Y-99087934D01*
X68959499Y-99085100D01*
X69650329Y-99085100D01*
X69717368Y-99104785D01*
G37*
%TD.AperFunction*%
%TA.AperFunction,Conductor*%
G36*
X85919008Y-82687059D02*
G01*
X85974941Y-82728931D01*
X85998894Y-82789358D01*
X86006430Y-82856249D01*
X86006431Y-82856254D01*
X86066011Y-83026523D01*
X86144619Y-83151626D01*
X86161984Y-83179262D01*
X86289538Y-83306816D01*
X86342487Y-83340086D01*
X86437942Y-83400065D01*
X86442278Y-83402789D01*
X86559192Y-83443699D01*
X86612545Y-83462368D01*
X86612550Y-83462369D01*
X86791796Y-83482565D01*
X86791800Y-83482565D01*
X86791804Y-83482565D01*
X86971049Y-83462369D01*
X86971052Y-83462368D01*
X86971055Y-83462368D01*
X87141322Y-83402789D01*
X87145658Y-83400065D01*
X87203040Y-83364009D01*
X87270277Y-83345008D01*
X87337112Y-83365375D01*
X87382327Y-83418643D01*
X87393013Y-83469002D01*
X87393013Y-93876080D01*
X87392697Y-93884927D01*
X87378381Y-94085065D01*
X87375863Y-94102577D01*
X87334155Y-94294299D01*
X87329171Y-94311273D01*
X87260601Y-94495117D01*
X87253251Y-94511212D01*
X87159218Y-94683418D01*
X87149653Y-94698300D01*
X87032070Y-94855373D01*
X87020484Y-94868744D01*
X86881744Y-95007484D01*
X86868373Y-95019070D01*
X86711300Y-95136653D01*
X86696418Y-95146218D01*
X86524212Y-95240251D01*
X86508117Y-95247601D01*
X86324273Y-95316171D01*
X86307299Y-95321155D01*
X86115577Y-95362863D01*
X86098065Y-95365381D01*
X85897928Y-95379697D01*
X85889081Y-95380013D01*
X82576167Y-95380013D01*
X82509128Y-95360328D01*
X82463373Y-95307524D01*
X82453429Y-95238366D01*
X82482454Y-95174810D01*
X82488486Y-95168332D01*
X84602492Y-93054326D01*
X86939875Y-90716944D01*
X86968638Y-90667124D01*
X86989310Y-90631319D01*
X87007271Y-90564288D01*
X87014900Y-90535817D01*
X87014900Y-90436945D01*
X87014900Y-84888165D01*
X87008505Y-84864300D01*
X87008425Y-84864002D01*
X86993776Y-84809327D01*
X86989310Y-84792663D01*
X86989310Y-84792662D01*
X86980199Y-84776881D01*
X86939875Y-84707038D01*
X86869962Y-84637125D01*
X85455876Y-83223039D01*
X85422391Y-83161716D01*
X85427375Y-83092024D01*
X85455876Y-83047677D01*
X85662089Y-82841464D01*
X85787994Y-82715559D01*
X85849316Y-82682075D01*
X85919008Y-82687059D01*
G37*
%TD.AperFunction*%
%TA.AperFunction,Conductor*%
G36*
X65200399Y-90467985D02*
G01*
X65246154Y-90520789D01*
X65256098Y-90589947D01*
X65227073Y-90653503D01*
X65184355Y-90684306D01*
X65184548Y-90684667D01*
X65181873Y-90686096D01*
X65180812Y-90686862D01*
X65179169Y-90687542D01*
X65039960Y-90780558D01*
X65039952Y-90780564D01*
X64921563Y-90898953D01*
X64893603Y-90940800D01*
X67369997Y-90940800D01*
X67342036Y-90898953D01*
X67223647Y-90780564D01*
X67223639Y-90780558D01*
X67084430Y-90687542D01*
X67082788Y-90686862D01*
X67082058Y-90686273D01*
X67079052Y-90684667D01*
X67079356Y-90684096D01*
X67028385Y-90643021D01*
X67006319Y-90576727D01*
X67023598Y-90509028D01*
X67074734Y-90461417D01*
X67130240Y-90448300D01*
X67534390Y-90448300D01*
X67601429Y-90467985D01*
X67622071Y-90484619D01*
X68749971Y-91612519D01*
X69739651Y-92602198D01*
X69773136Y-92663521D01*
X69768152Y-92733213D01*
X69726280Y-92789146D01*
X69660816Y-92813563D01*
X69604518Y-92804440D01*
X69529740Y-92773466D01*
X69529728Y-92773463D01*
X69431800Y-92753983D01*
X69431800Y-93090800D01*
X69969998Y-93090800D01*
X69973864Y-93083565D01*
X69960661Y-93041394D01*
X69979146Y-92974014D01*
X70031126Y-92927324D01*
X70100096Y-92916149D01*
X70116723Y-92919405D01*
X70199181Y-92941500D01*
X70199182Y-92941500D01*
X70773406Y-92941500D01*
X70840445Y-92961185D01*
X70886200Y-93013989D01*
X70896144Y-93083147D01*
X70871781Y-93140986D01*
X70869363Y-93144138D01*
X70865663Y-93148959D01*
X70805156Y-93295037D01*
X70805155Y-93295039D01*
X70784518Y-93451798D01*
X70784518Y-93451801D01*
X70805155Y-93608560D01*
X70805156Y-93608562D01*
X70831072Y-93671130D01*
X70865664Y-93754641D01*
X70961918Y-93880082D01*
X71087359Y-93976336D01*
X71233438Y-94036844D01*
X71311819Y-94047163D01*
X71390199Y-94057482D01*
X71390200Y-94057482D01*
X71451739Y-94049380D01*
X71520775Y-94060145D01*
X71573031Y-94106525D01*
X71591916Y-94173794D01*
X71571436Y-94240595D01*
X71555606Y-94260000D01*
X70587226Y-95228381D01*
X70525903Y-95261866D01*
X70499545Y-95264700D01*
X68512005Y-95264700D01*
X68444966Y-95245015D01*
X68399211Y-95192211D01*
X68389267Y-95123053D01*
X68397442Y-95093251D01*
X68423244Y-95030962D01*
X68443882Y-94874200D01*
X68443424Y-94870723D01*
X68424417Y-94726345D01*
X68423244Y-94717438D01*
X68371014Y-94591345D01*
X68363546Y-94521877D01*
X68394821Y-94459398D01*
X68406911Y-94448041D01*
X68431799Y-94427615D01*
X69431800Y-94427615D01*
X69529728Y-94408136D01*
X69529738Y-94408133D01*
X69684427Y-94344059D01*
X69684428Y-94344059D01*
X69823639Y-94251041D01*
X69823647Y-94251035D01*
X69942036Y-94132646D01*
X69969997Y-94090800D01*
X69431800Y-94090800D01*
X69431800Y-94427615D01*
X68431799Y-94427615D01*
X68431800Y-94427614D01*
X68431800Y-93794354D01*
X68440186Y-93802740D01*
X68532072Y-93840800D01*
X69331528Y-93840800D01*
X69423414Y-93802740D01*
X69493740Y-93732414D01*
X69531800Y-93640528D01*
X69531800Y-93541072D01*
X69493740Y-93449186D01*
X69423414Y-93378860D01*
X69331528Y-93340800D01*
X68532072Y-93340800D01*
X68440186Y-93378860D01*
X68431800Y-93387246D01*
X68431800Y-92753984D01*
X68431799Y-92753983D01*
X68333871Y-92773463D01*
X68333863Y-92773465D01*
X68179175Y-92837539D01*
X68150189Y-92856907D01*
X68083511Y-92877784D01*
X68016131Y-92859299D01*
X67969442Y-92807319D01*
X67957299Y-92753804D01*
X67957299Y-92545943D01*
X67957299Y-92545936D01*
X67957297Y-92545917D01*
X67954386Y-92520812D01*
X67954385Y-92520810D01*
X67954385Y-92520809D01*
X67909006Y-92418035D01*
X67829565Y-92338594D01*
X67726792Y-92293215D01*
X67701668Y-92290300D01*
X67701665Y-92290300D01*
X67333745Y-92290300D01*
X67266706Y-92270615D01*
X67220951Y-92217811D01*
X67211007Y-92148653D01*
X67240032Y-92085097D01*
X67246064Y-92078619D01*
X67342033Y-91982649D01*
X67342036Y-91982646D01*
X67369997Y-91940800D01*
X66909810Y-91940800D01*
X66847810Y-91924187D01*
X66836391Y-91917594D01*
X66836388Y-91917593D01*
X66734527Y-91890300D01*
X66709527Y-91890300D01*
X66290727Y-91890300D01*
X62833210Y-91890300D01*
X62766171Y-91870615D01*
X62720416Y-91817811D01*
X62710472Y-91748653D01*
X62739497Y-91685097D01*
X62745529Y-91678619D01*
X63033076Y-91391072D01*
X65331800Y-91391072D01*
X65331800Y-91490528D01*
X65369860Y-91582414D01*
X65440186Y-91652740D01*
X65532072Y-91690800D01*
X66731528Y-91690800D01*
X66823414Y-91652740D01*
X66893740Y-91582414D01*
X66931800Y-91490528D01*
X66931800Y-91391072D01*
X66893740Y-91299186D01*
X66823414Y-91228860D01*
X66731528Y-91190800D01*
X65532072Y-91190800D01*
X65440186Y-91228860D01*
X65369860Y-91299186D01*
X65331800Y-91391072D01*
X63033076Y-91391072D01*
X63939529Y-90484619D01*
X64000852Y-90451134D01*
X64027210Y-90448300D01*
X65133360Y-90448300D01*
X65200399Y-90467985D01*
G37*
%TD.AperFunction*%
%TA.AperFunction,Conductor*%
G36*
X82126861Y-87856977D02*
G01*
X82147508Y-87873615D01*
X82456555Y-88182662D01*
X82526468Y-88252575D01*
X82612092Y-88302010D01*
X82612096Y-88302011D01*
X82655531Y-88313650D01*
X82655532Y-88313650D01*
X82669482Y-88317387D01*
X82707594Y-88327600D01*
X82707595Y-88327600D01*
X83208675Y-88327600D01*
X83263135Y-88340199D01*
X83369026Y-88391966D01*
X83442015Y-88402600D01*
X83442021Y-88402600D01*
X84913281Y-88402600D01*
X84913287Y-88402600D01*
X84986276Y-88391966D01*
X84986277Y-88391965D01*
X84995806Y-88390577D01*
X84996013Y-88392001D01*
X85055550Y-88391160D01*
X85114856Y-88428100D01*
X85144776Y-88491239D01*
X85146300Y-88510619D01*
X85146300Y-89853934D01*
X85126615Y-89920973D01*
X85109981Y-89941615D01*
X84826546Y-90225049D01*
X84765223Y-90258534D01*
X84695531Y-90253550D01*
X84686514Y-90246800D01*
X84376800Y-90246800D01*
X84376800Y-90618031D01*
X84375281Y-90618031D01*
X84377760Y-90643530D01*
X84345851Y-90705687D01*
X84343641Y-90707954D01*
X81211582Y-93840014D01*
X81150259Y-93873499D01*
X81123901Y-93876333D01*
X80902622Y-93876333D01*
X80835583Y-93856648D01*
X80789828Y-93803844D01*
X80779884Y-93734686D01*
X80808909Y-93671130D01*
X80814941Y-93664652D01*
X80906629Y-93572964D01*
X81231103Y-93248488D01*
X81231108Y-93248485D01*
X81241311Y-93238281D01*
X81241313Y-93238281D01*
X81315880Y-93163714D01*
X81368607Y-93072388D01*
X81371628Y-93061113D01*
X81389852Y-92993102D01*
X81426215Y-92933443D01*
X81435978Y-92925437D01*
X81491823Y-92884223D01*
X81569781Y-92778594D01*
X81600327Y-92691300D01*
X81613141Y-92654681D01*
X81613141Y-92654679D01*
X81613645Y-92649307D01*
X81615900Y-92625257D01*
X81615899Y-92250344D01*
X81613141Y-92220921D01*
X81569781Y-92097006D01*
X81499244Y-92001432D01*
X81475274Y-91935805D01*
X81490589Y-91867635D01*
X81499245Y-91854166D01*
X81569781Y-91758594D01*
X81602456Y-91665216D01*
X81613141Y-91634681D01*
X81613141Y-91634679D01*
X81615219Y-91612519D01*
X81615900Y-91605257D01*
X81615899Y-91230344D01*
X81613141Y-91200921D01*
X81613139Y-91200915D01*
X81570171Y-91078120D01*
X81566609Y-91008341D01*
X81601337Y-90947714D01*
X81602651Y-90946516D01*
X81602651Y-90884499D01*
X81622336Y-90817460D01*
X81635225Y-90801464D01*
X81637475Y-90798313D01*
X81637477Y-90798311D01*
X81641250Y-90790592D01*
X81688377Y-90739010D01*
X81755910Y-90721095D01*
X81822409Y-90742535D01*
X81864052Y-90790593D01*
X81867826Y-90798313D01*
X81873796Y-90806675D01*
X81872297Y-90807745D01*
X81899815Y-90858130D01*
X81902651Y-90884499D01*
X81902651Y-90946357D01*
X81936130Y-90941480D01*
X81947613Y-90935866D01*
X82016486Y-90924102D01*
X82056542Y-90935863D01*
X82069023Y-90941965D01*
X82069024Y-90941965D01*
X82069026Y-90941966D01*
X82142015Y-90952600D01*
X82142021Y-90952600D01*
X82363281Y-90952600D01*
X82363287Y-90952600D01*
X82436276Y-90941966D01*
X82497521Y-90912025D01*
X82548861Y-90886927D01*
X82637478Y-90798310D01*
X82692516Y-90685728D01*
X82692516Y-90685726D01*
X82692517Y-90685725D01*
X82696991Y-90655012D01*
X82726133Y-90591514D01*
X82784981Y-90553848D01*
X82854850Y-90553978D01*
X82860651Y-90555849D01*
X82913981Y-90574510D01*
X82928857Y-90575905D01*
X82943730Y-90577300D01*
X82943734Y-90577300D01*
X83329870Y-90577300D01*
X83343089Y-90576060D01*
X83359619Y-90574510D01*
X83359623Y-90574508D01*
X83359626Y-90574508D01*
X83412949Y-90555849D01*
X83484957Y-90530652D01*
X83543589Y-90487378D01*
X83609215Y-90463409D01*
X83677386Y-90478724D01*
X83690856Y-90487381D01*
X83748879Y-90530205D01*
X83816799Y-90553970D01*
X83816800Y-90553970D01*
X83816800Y-89686800D01*
X84376800Y-89686800D01*
X84664468Y-89686800D01*
X84630203Y-89588877D01*
X84551441Y-89482158D01*
X84444722Y-89403395D01*
X84444720Y-89403394D01*
X84376800Y-89379628D01*
X84376800Y-89686800D01*
X83816800Y-89686800D01*
X83816800Y-89379628D01*
X83816799Y-89379628D01*
X83748879Y-89403394D01*
X83748877Y-89403395D01*
X83690855Y-89446219D01*
X83625227Y-89470190D01*
X83557056Y-89454875D01*
X83543587Y-89446219D01*
X83514110Y-89424464D01*
X83484957Y-89402948D01*
X83484955Y-89402947D01*
X83359626Y-89359091D01*
X83359614Y-89359089D01*
X83329870Y-89356300D01*
X83329866Y-89356300D01*
X82943734Y-89356300D01*
X82943730Y-89356300D01*
X82913985Y-89359089D01*
X82913977Y-89359090D01*
X82868105Y-89375142D01*
X82798326Y-89378703D01*
X82737699Y-89343974D01*
X82705472Y-89281980D01*
X82703151Y-89258100D01*
X82703151Y-89141469D01*
X82703151Y-89141464D01*
X82692517Y-89068475D01*
X82675225Y-89033104D01*
X82637478Y-88955889D01*
X82548861Y-88867272D01*
X82436279Y-88812235D01*
X82436277Y-88812234D01*
X82436276Y-88812234D01*
X82363287Y-88801600D01*
X82142015Y-88801600D01*
X82081765Y-88810378D01*
X82069025Y-88812234D01*
X82069022Y-88812235D01*
X82056536Y-88818339D01*
X81987662Y-88830095D01*
X81947620Y-88818336D01*
X81936131Y-88812719D01*
X81902651Y-88807841D01*
X81902651Y-88869700D01*
X81882966Y-88936739D01*
X81870079Y-88952731D01*
X81867825Y-88955888D01*
X81864051Y-88963608D01*
X81816923Y-89015190D01*
X81749389Y-89033104D01*
X81682890Y-89011663D01*
X81641246Y-88963597D01*
X81640746Y-88962574D01*
X81628151Y-88908124D01*
X81628151Y-88522453D01*
X81647836Y-88455414D01*
X81685109Y-88418139D01*
X81763528Y-88367743D01*
X81857777Y-88258973D01*
X81917565Y-88128057D01*
X81938047Y-87985600D01*
X81937090Y-87978946D01*
X81947030Y-87909790D01*
X81992782Y-87856984D01*
X82059821Y-87837296D01*
X82126861Y-87856977D01*
G37*
%TD.AperFunction*%
%TA.AperFunction,Conductor*%
G36*
X85897928Y-63623428D02*
G01*
X86098067Y-63637744D01*
X86115572Y-63640261D01*
X86307307Y-63681972D01*
X86324273Y-63686954D01*
X86508105Y-63755522D01*
X86524197Y-63762870D01*
X86696409Y-63856907D01*
X86711292Y-63866472D01*
X86868362Y-63984054D01*
X86881733Y-63995640D01*
X87020471Y-64134380D01*
X87032057Y-64147751D01*
X87149639Y-64304825D01*
X87159204Y-64319709D01*
X87253235Y-64491917D01*
X87260584Y-64508010D01*
X87329151Y-64691847D01*
X87334135Y-64708822D01*
X87375840Y-64900540D01*
X87378358Y-64918053D01*
X87392696Y-65118553D01*
X87393012Y-65127398D01*
X87393012Y-65198487D01*
X87393013Y-65198500D01*
X87393013Y-76657500D01*
X87373328Y-76724539D01*
X87320524Y-76770294D01*
X87269013Y-76781500D01*
X86364900Y-76781500D01*
X86297861Y-76761815D01*
X86252106Y-76709011D01*
X86240900Y-76657500D01*
X86240900Y-67433875D01*
X86240900Y-67433873D01*
X86213607Y-67332013D01*
X86213607Y-67332012D01*
X86160880Y-67240687D01*
X85914913Y-66994720D01*
X85755752Y-66835559D01*
X85589220Y-66669026D01*
X85555735Y-66607703D01*
X85552901Y-66581345D01*
X85552901Y-66189001D01*
X84468727Y-66189001D01*
X84595894Y-66154926D01*
X84709908Y-66089100D01*
X84803000Y-65996008D01*
X84868826Y-65881994D01*
X84902901Y-65754827D01*
X84902901Y-65623175D01*
X84868826Y-65496008D01*
X84803000Y-65381994D01*
X84709908Y-65288902D01*
X84595894Y-65223076D01*
X84468727Y-65189001D01*
X84902901Y-65189001D01*
X85552900Y-65189001D01*
X85552900Y-64794215D01*
X85552898Y-64794192D01*
X85549992Y-64769131D01*
X85549991Y-64769127D01*
X85504689Y-64666526D01*
X85504686Y-64666521D01*
X85425380Y-64587215D01*
X85425375Y-64587212D01*
X85322777Y-64541911D01*
X85297695Y-64539001D01*
X84902901Y-64539001D01*
X84902901Y-65189001D01*
X84468727Y-65189001D01*
X84337075Y-65189001D01*
X84209908Y-65223076D01*
X84095894Y-65288902D01*
X84002802Y-65381994D01*
X83936976Y-65496008D01*
X83902901Y-65623175D01*
X83902901Y-64539001D01*
X83508115Y-64539001D01*
X83508092Y-64539003D01*
X83483031Y-64541909D01*
X83483027Y-64541910D01*
X83380426Y-64587212D01*
X83380421Y-64587215D01*
X83301115Y-64666521D01*
X83301112Y-64666526D01*
X83255811Y-64769123D01*
X83255811Y-64769125D01*
X83252901Y-64794206D01*
X83252901Y-65543769D01*
X83233216Y-65610808D01*
X83180412Y-65656563D01*
X83111254Y-65666507D01*
X83047698Y-65637482D01*
X83009924Y-65578704D01*
X83005430Y-65555210D01*
X82998163Y-65476784D01*
X82998162Y-65476781D01*
X82939842Y-65271804D01*
X82939834Y-65271784D01*
X82844841Y-65081011D01*
X82716400Y-64910929D01*
X82558900Y-64767349D01*
X82558898Y-64767347D01*
X82377702Y-64655156D01*
X82377694Y-64655152D01*
X82362901Y-64649420D01*
X82362901Y-65623175D01*
X82328826Y-65496008D01*
X82263000Y-65381994D01*
X82169908Y-65288902D01*
X82055894Y-65223076D01*
X81928727Y-65189001D01*
X81797075Y-65189001D01*
X81669908Y-65223076D01*
X81555894Y-65288902D01*
X81462802Y-65381994D01*
X81396976Y-65496008D01*
X81362901Y-65623175D01*
X81362901Y-65754827D01*
X81396976Y-65881994D01*
X81462802Y-65996008D01*
X81555894Y-66089100D01*
X81669908Y-66154926D01*
X81797075Y-66189001D01*
X80827189Y-66189001D01*
X80880960Y-66296990D01*
X81009401Y-66467072D01*
X81166901Y-66610652D01*
X81166903Y-66610654D01*
X81348102Y-66722847D01*
X81348111Y-66722851D01*
X81546837Y-66799837D01*
X81546842Y-66799838D01*
X81744873Y-66836857D01*
X81807154Y-66868525D01*
X81842427Y-66928837D01*
X81839493Y-66998646D01*
X81799284Y-67055786D01*
X81744874Y-67080635D01*
X81652833Y-67097840D01*
X81546703Y-67117680D01*
X81546701Y-67117680D01*
X81546699Y-67117681D01*
X81347883Y-67194702D01*
X81347876Y-67194706D01*
X81179177Y-67299160D01*
X81111817Y-67317715D01*
X81045117Y-67296907D01*
X81000256Y-67243342D01*
X80989900Y-67193733D01*
X80989900Y-66931067D01*
X80989900Y-66931065D01*
X80964310Y-66835562D01*
X80914875Y-66749938D01*
X80844962Y-66680025D01*
X80420518Y-66255581D01*
X80387033Y-66194258D01*
X80392017Y-66124566D01*
X80397191Y-66112645D01*
X80400306Y-66106390D01*
X80458657Y-65901311D01*
X80478330Y-65689001D01*
X80458657Y-65476691D01*
X80400306Y-65271612D01*
X80400304Y-65271607D01*
X80400304Y-65271606D01*
X80359171Y-65189000D01*
X80827188Y-65189000D01*
X80827189Y-65189001D01*
X81362901Y-65189001D01*
X81362901Y-64649421D01*
X81362900Y-64649420D01*
X81348107Y-64655152D01*
X81348099Y-64655156D01*
X81166903Y-64767347D01*
X81166901Y-64767349D01*
X81009401Y-64910929D01*
X80880960Y-65081011D01*
X80827188Y-65189000D01*
X80359171Y-65189000D01*
X80305268Y-65080747D01*
X80176773Y-64910594D01*
X80175254Y-64909209D01*
X80019203Y-64766949D01*
X79837920Y-64654703D01*
X79837918Y-64654702D01*
X79738509Y-64616191D01*
X79639099Y-64577680D01*
X79429511Y-64538501D01*
X79216291Y-64538501D01*
X79006703Y-64577680D01*
X79006700Y-64577680D01*
X79006700Y-64577681D01*
X78807883Y-64654702D01*
X78807881Y-64654703D01*
X78626600Y-64766948D01*
X78469028Y-64910594D01*
X78340533Y-65080747D01*
X78245497Y-65271606D01*
X78245497Y-65271608D01*
X78187145Y-65476690D01*
X78176372Y-65592952D01*
X78150586Y-65657889D01*
X78106031Y-65689805D01*
X78142404Y-65710669D01*
X78174594Y-65772682D01*
X78176371Y-65785048D01*
X78187145Y-65901311D01*
X78245495Y-66106388D01*
X78245497Y-66106393D01*
X78245497Y-66106395D01*
X78340533Y-66297254D01*
X78468775Y-66467072D01*
X78469029Y-66467408D01*
X78626599Y-66611053D01*
X78807882Y-66723299D01*
X79006703Y-66800322D01*
X79204874Y-66837366D01*
X79267154Y-66869034D01*
X79302427Y-66929347D01*
X79299493Y-66999155D01*
X79259284Y-67056295D01*
X79204873Y-67081144D01*
X79006842Y-67118163D01*
X79006837Y-67118164D01*
X78808111Y-67195150D01*
X78808102Y-67195154D01*
X78626903Y-67307347D01*
X78626901Y-67307349D01*
X78469401Y-67450929D01*
X78340960Y-67621011D01*
X78287188Y-67729000D01*
X78287189Y-67729001D01*
X79257075Y-67729001D01*
X79129908Y-67763076D01*
X79015894Y-67828902D01*
X78922802Y-67921994D01*
X78856976Y-68036008D01*
X78822901Y-68163175D01*
X78822901Y-68294827D01*
X78856976Y-68421994D01*
X78922802Y-68536008D01*
X79015894Y-68629100D01*
X79129908Y-68694926D01*
X79257075Y-68729001D01*
X79388727Y-68729001D01*
X79515894Y-68694926D01*
X79629908Y-68629100D01*
X79723000Y-68536008D01*
X79788826Y-68421994D01*
X79822901Y-68294827D01*
X79822901Y-69268579D01*
X79837696Y-69262849D01*
X79837698Y-69262848D01*
X80018896Y-69150655D01*
X80031359Y-69139294D01*
X80094163Y-69108675D01*
X80163550Y-69116871D01*
X80217491Y-69161280D01*
X80238861Y-69227801D01*
X80238900Y-69230929D01*
X80238900Y-69853835D01*
X80264490Y-69949338D01*
X80306266Y-70021697D01*
X80313926Y-70034963D01*
X82800184Y-72521221D01*
X82833669Y-72582544D01*
X82828685Y-72652236D01*
X82786813Y-72708169D01*
X82721349Y-72732586D01*
X82696645Y-72728798D01*
X82690000Y-72733322D01*
X82690000Y-72993800D01*
X82965619Y-72993800D01*
X82978500Y-72974872D01*
X82978260Y-72972205D01*
X83010594Y-72910267D01*
X83071281Y-72875643D01*
X83141054Y-72879325D01*
X83187578Y-72908615D01*
X83504581Y-73225618D01*
X83538066Y-73286941D01*
X83540900Y-73313299D01*
X83540900Y-74211901D01*
X83521215Y-74278940D01*
X83468411Y-74324695D01*
X83399253Y-74334639D01*
X83335697Y-74305614D01*
X83329219Y-74299582D01*
X83011201Y-73981564D01*
X82977716Y-73920241D01*
X82978276Y-73912398D01*
X82965619Y-73893800D01*
X82938709Y-73893800D01*
X82876707Y-73877186D01*
X82862339Y-73868890D01*
X82862336Y-73868889D01*
X82808023Y-73854335D01*
X82808023Y-73854336D01*
X82766836Y-73843300D01*
X82766835Y-73843300D01*
X81914000Y-73843300D01*
X81846961Y-73823615D01*
X81801206Y-73770811D01*
X81790000Y-73719300D01*
X81790000Y-72733322D01*
X81730270Y-72756878D01*
X81615278Y-72844078D01*
X81528077Y-72959070D01*
X81475131Y-73093331D01*
X81475131Y-73093332D01*
X81465000Y-73177697D01*
X81465000Y-73228201D01*
X81445315Y-73295240D01*
X81392511Y-73340995D01*
X81323353Y-73350939D01*
X81259797Y-73321914D01*
X81253319Y-73315882D01*
X79727363Y-71789926D01*
X79727362Y-71789925D01*
X79641740Y-71740491D01*
X79641739Y-71740490D01*
X79617862Y-71734092D01*
X79593986Y-71727695D01*
X79593985Y-71727694D01*
X79593982Y-71727694D01*
X79586568Y-71725707D01*
X79551627Y-71710249D01*
X79548528Y-71708257D01*
X79507196Y-71681695D01*
X79427451Y-71630445D01*
X79289363Y-71589900D01*
X79289361Y-71589900D01*
X79145439Y-71589900D01*
X79145436Y-71589900D01*
X79007349Y-71630445D01*
X78886273Y-71708256D01*
X78792023Y-71817026D01*
X78792022Y-71817028D01*
X78732234Y-71947943D01*
X78711753Y-72090400D01*
X78732234Y-72232856D01*
X78770984Y-72317704D01*
X78792023Y-72363773D01*
X78886272Y-72472543D01*
X79007347Y-72550353D01*
X79007350Y-72550354D01*
X79007349Y-72550354D01*
X79145436Y-72590899D01*
X79145438Y-72590900D01*
X79145439Y-72590900D01*
X79289360Y-72590900D01*
X79289361Y-72590900D01*
X79355520Y-72571473D01*
X79425385Y-72571473D01*
X79478133Y-72602770D01*
X80801482Y-73926119D01*
X80834967Y-73987442D01*
X80829983Y-74057134D01*
X80788111Y-74113067D01*
X80722647Y-74137484D01*
X80713801Y-74137800D01*
X80231794Y-74137800D01*
X80231768Y-74137802D01*
X80206663Y-74140713D01*
X80206659Y-74140715D01*
X80103886Y-74186093D01*
X80096272Y-74191309D01*
X80029838Y-74212952D01*
X79962250Y-74195242D01*
X79956123Y-74191304D01*
X79949127Y-74186512D01*
X79846527Y-74141210D01*
X79821445Y-74138300D01*
X79726651Y-74138300D01*
X79726651Y-75113800D01*
X79706966Y-75180839D01*
X79654162Y-75226594D01*
X79602651Y-75237800D01*
X79050651Y-75237800D01*
X78983612Y-75218115D01*
X78937857Y-75165311D01*
X78926651Y-75113800D01*
X78926651Y-74138299D01*
X78831866Y-74138300D01*
X78831842Y-74138302D01*
X78806781Y-74141208D01*
X78806774Y-74141210D01*
X78783877Y-74151320D01*
X78714599Y-74160389D01*
X78651415Y-74130564D01*
X78614386Y-74071313D01*
X78610680Y-74052668D01*
X78607469Y-74025932D01*
X78607469Y-74025930D01*
X78554523Y-73891669D01*
X78467322Y-73776677D01*
X78352330Y-73689477D01*
X78292601Y-73665921D01*
X78292601Y-74702399D01*
X78272916Y-74769438D01*
X78220112Y-74815193D01*
X78168601Y-74826399D01*
X77516601Y-74826399D01*
X77449562Y-74806714D01*
X77403807Y-74753910D01*
X77392601Y-74702399D01*
X77392601Y-73665921D01*
X77332869Y-73689477D01*
X77322486Y-73697351D01*
X77257173Y-73722171D01*
X77188810Y-73707740D01*
X77139101Y-73658641D01*
X77124106Y-73610112D01*
X77122462Y-73592575D01*
X77122462Y-73592571D01*
X77077857Y-73465099D01*
X77039356Y-73412932D01*
X77015386Y-73347305D01*
X77030701Y-73279135D01*
X77039352Y-73265673D01*
X77077857Y-73213501D01*
X77122462Y-73086029D01*
X77125300Y-73055763D01*
X77125299Y-72652838D01*
X77122462Y-72622571D01*
X77077857Y-72495099D01*
X76997662Y-72386438D01*
X76889001Y-72306243D01*
X76783846Y-72269447D01*
X76761533Y-72261639D01*
X76761524Y-72261637D01*
X76731267Y-72258800D01*
X76278339Y-72258800D01*
X76248075Y-72261637D01*
X76248066Y-72261639D01*
X76120600Y-72306242D01*
X76040394Y-72365436D01*
X75974764Y-72389406D01*
X75906594Y-72374090D01*
X75893129Y-72365436D01*
X75828456Y-72317705D01*
X75786205Y-72262057D01*
X75780748Y-72192401D01*
X75808378Y-72136732D01*
X75837977Y-72102573D01*
X75897765Y-71971657D01*
X75918247Y-71829200D01*
X75897765Y-71686743D01*
X75837977Y-71555827D01*
X75743728Y-71447057D01*
X75622653Y-71369247D01*
X75622651Y-71369246D01*
X75622649Y-71369245D01*
X75622650Y-71369245D01*
X75484563Y-71328700D01*
X75484561Y-71328700D01*
X75340639Y-71328700D01*
X75340636Y-71328700D01*
X75202549Y-71369245D01*
X75081473Y-71447056D01*
X74987223Y-71555826D01*
X74987221Y-71555830D01*
X74970620Y-71592179D01*
X74924864Y-71644982D01*
X74857824Y-71664665D01*
X74790785Y-71644979D01*
X74770146Y-71628346D01*
X74767000Y-71625200D01*
X74379500Y-71625200D01*
X74379500Y-72127338D01*
X74489094Y-72084121D01*
X74609566Y-71992763D01*
X74700014Y-71873491D01*
X74756207Y-71831967D01*
X74825928Y-71827416D01*
X74887042Y-71861281D01*
X74920146Y-71922811D01*
X74921556Y-71930769D01*
X74927434Y-71971656D01*
X74987222Y-72102571D01*
X74987223Y-72102573D01*
X75016822Y-72136732D01*
X75045847Y-72200288D01*
X75035903Y-72269447D01*
X74996744Y-72317704D01*
X74919738Y-72374537D01*
X74839543Y-72483199D01*
X74794939Y-72610666D01*
X74794937Y-72610675D01*
X74792100Y-72640932D01*
X74792100Y-73043860D01*
X74794937Y-73074124D01*
X74794939Y-73074133D01*
X74839542Y-73201599D01*
X74878043Y-73253767D01*
X74902013Y-73319396D01*
X74886697Y-73387566D01*
X74878043Y-73401033D01*
X74839542Y-73453199D01*
X74794939Y-73580666D01*
X74794937Y-73580675D01*
X74792100Y-73610932D01*
X74792100Y-74013860D01*
X74794937Y-74044124D01*
X74794939Y-74044133D01*
X74839542Y-74171599D01*
X74839543Y-74171601D01*
X74919738Y-74280262D01*
X75028399Y-74360457D01*
X75155871Y-74405062D01*
X75186137Y-74407900D01*
X75639062Y-74407899D01*
X75669329Y-74405062D01*
X75796801Y-74360457D01*
X75877006Y-74301263D01*
X75942633Y-74277293D01*
X76010803Y-74292608D01*
X76024263Y-74301258D01*
X76120599Y-74372357D01*
X76248071Y-74416962D01*
X76278337Y-74419800D01*
X76731262Y-74419799D01*
X76761529Y-74416962D01*
X76889001Y-74372357D01*
X76889000Y-74372357D01*
X76897772Y-74369288D01*
X76898546Y-74371502D01*
X76954128Y-74360201D01*
X77019254Y-74385505D01*
X77060361Y-74442003D01*
X77067601Y-74483753D01*
X77067601Y-74642501D01*
X77077732Y-74726866D01*
X77077732Y-74726867D01*
X77130678Y-74861128D01*
X77217879Y-74976120D01*
X77318312Y-75052280D01*
X77359835Y-75108472D01*
X77364387Y-75178194D01*
X77330522Y-75239308D01*
X77318313Y-75249887D01*
X77217523Y-75326319D01*
X77130237Y-75441422D01*
X77077241Y-75575810D01*
X77075853Y-75587374D01*
X77067101Y-75660255D01*
X77067101Y-75660261D01*
X77067101Y-76188833D01*
X77047416Y-76255872D01*
X76994612Y-76301627D01*
X76925454Y-76311571D01*
X76895649Y-76303394D01*
X76830616Y-76276457D01*
X76830611Y-76276455D01*
X76673852Y-76255818D01*
X76673850Y-76255818D01*
X76517090Y-76276455D01*
X76517088Y-76276456D01*
X76371011Y-76336963D01*
X76245569Y-76433218D01*
X76149314Y-76558660D01*
X76088807Y-76704737D01*
X76088806Y-76704739D01*
X76068169Y-76861498D01*
X76068169Y-76861501D01*
X76088806Y-77018260D01*
X76088807Y-77018262D01*
X76149315Y-77164342D01*
X76218147Y-77254045D01*
X76243341Y-77319214D01*
X76229303Y-77387659D01*
X76180489Y-77437648D01*
X76137649Y-77452235D01*
X76069031Y-77462232D01*
X76069026Y-77462234D01*
X76057108Y-77468060D01*
X75988235Y-77479817D01*
X75948194Y-77468060D01*
X75936276Y-77462234D01*
X75863287Y-77451600D01*
X75863281Y-77451600D01*
X75777151Y-77451600D01*
X75710112Y-77431915D01*
X75664357Y-77379111D01*
X75653151Y-77327600D01*
X75653151Y-77064525D01*
X75653151Y-77064524D01*
X75646978Y-77041487D01*
X75640558Y-77017525D01*
X75625859Y-76962665D01*
X75594162Y-76907765D01*
X75573131Y-76871338D01*
X75247319Y-76545526D01*
X75213834Y-76484203D01*
X75211000Y-76457845D01*
X75211000Y-75932475D01*
X75211000Y-75932473D01*
X75197074Y-75880500D01*
X75194276Y-75870056D01*
X75183708Y-75830613D01*
X75168043Y-75803481D01*
X75130980Y-75739287D01*
X74688113Y-75296420D01*
X73849913Y-74458220D01*
X73804250Y-74431856D01*
X73758589Y-74405493D01*
X73683990Y-74385505D01*
X73656727Y-74378200D01*
X70067924Y-74378200D01*
X69966064Y-74405493D01*
X69966063Y-74405493D01*
X69966061Y-74405494D01*
X69966060Y-74405494D01*
X69890082Y-74449361D01*
X69890081Y-74449360D01*
X69874743Y-74458216D01*
X69874735Y-74458222D01*
X66642574Y-77690383D01*
X66642572Y-77690386D01*
X66589845Y-77781709D01*
X66582587Y-77808795D01*
X66578959Y-77822338D01*
X66578959Y-77822339D01*
X66578958Y-77822338D01*
X66562552Y-77883570D01*
X66562552Y-78941586D01*
X66542867Y-79008625D01*
X66490063Y-79054380D01*
X66422367Y-79064525D01*
X66363439Y-79056767D01*
X66299542Y-79028501D01*
X66261071Y-78970176D01*
X66256685Y-78950013D01*
X66250136Y-78900270D01*
X66235295Y-78787538D01*
X66174787Y-78641459D01*
X66078533Y-78516018D01*
X65953092Y-78419764D01*
X65807013Y-78359256D01*
X65773713Y-78354872D01*
X65696232Y-78344671D01*
X65632336Y-78316404D01*
X65593865Y-78258079D01*
X65589479Y-78237917D01*
X65582500Y-78184908D01*
X65574895Y-78127138D01*
X65514387Y-77981059D01*
X65418133Y-77855618D01*
X65292692Y-77759364D01*
X65260305Y-77745949D01*
X65146613Y-77698856D01*
X65146611Y-77698855D01*
X64989852Y-77678218D01*
X64989850Y-77678218D01*
X64833090Y-77698855D01*
X64833088Y-77698856D01*
X64687011Y-77759363D01*
X64561569Y-77855618D01*
X64465314Y-77981060D01*
X64404807Y-78127137D01*
X64404806Y-78127139D01*
X64384169Y-78283898D01*
X64384169Y-78283901D01*
X64404806Y-78440660D01*
X64404807Y-78440662D01*
X64465315Y-78586742D01*
X64561927Y-78712649D01*
X64587121Y-78777818D01*
X64587551Y-78788135D01*
X64587551Y-80921385D01*
X64576985Y-80971470D01*
X64571236Y-80984491D01*
X64538466Y-81058706D01*
X64538466Y-81058708D01*
X64535551Y-81083831D01*
X64535551Y-81676700D01*
X64515866Y-81743739D01*
X64463062Y-81789494D01*
X64411551Y-81800700D01*
X63818694Y-81800700D01*
X63818668Y-81800702D01*
X63793565Y-81803613D01*
X63793559Y-81803615D01*
X63762939Y-81817135D01*
X63712855Y-81827700D01*
X63565942Y-81827700D01*
X63498903Y-81808015D01*
X63453148Y-81755211D01*
X63443003Y-81719886D01*
X63436680Y-81671858D01*
X63424644Y-81580438D01*
X63364136Y-81434359D01*
X63364135Y-81434358D01*
X63364135Y-81434357D01*
X63320827Y-81377917D01*
X63295633Y-81312748D01*
X63309671Y-81244303D01*
X63319433Y-81228797D01*
X63324596Y-81221801D01*
X63324599Y-81221799D01*
X63403452Y-81114957D01*
X63434645Y-81025813D01*
X63447308Y-80989626D01*
X63447308Y-80989623D01*
X63447310Y-80989619D01*
X63450100Y-80959866D01*
X63450100Y-80573734D01*
X63447310Y-80543981D01*
X63447308Y-80543977D01*
X63447308Y-80543973D01*
X63416804Y-80456803D01*
X63403452Y-80418643D01*
X63360180Y-80360012D01*
X63336210Y-80294384D01*
X63351526Y-80226213D01*
X63360181Y-80212745D01*
X63403004Y-80154722D01*
X63403005Y-80154720D01*
X63426771Y-80086800D01*
X62252428Y-80086800D01*
X62276194Y-80154720D01*
X62276195Y-80154722D01*
X62319019Y-80212745D01*
X62342990Y-80278373D01*
X62327675Y-80346544D01*
X62319019Y-80360013D01*
X62275747Y-80418644D01*
X62231891Y-80543973D01*
X62231889Y-80543985D01*
X62229100Y-80573729D01*
X62229100Y-80959870D01*
X62231889Y-80989614D01*
X62231891Y-80989626D01*
X62275747Y-81114955D01*
X62275748Y-81114957D01*
X62354601Y-81221799D01*
X62359766Y-81228797D01*
X62383737Y-81294426D01*
X62368422Y-81362597D01*
X62358373Y-81377916D01*
X62315064Y-81434358D01*
X62254556Y-81580437D01*
X62254555Y-81580439D01*
X62233918Y-81737198D01*
X62233918Y-81737201D01*
X62254555Y-81893960D01*
X62254556Y-81893962D01*
X62309496Y-82026600D01*
X62315064Y-82040041D01*
X62401906Y-82153216D01*
X62427099Y-82218382D01*
X62413061Y-82286827D01*
X62364247Y-82336817D01*
X62303529Y-82352700D01*
X58489425Y-82352700D01*
X58422386Y-82333015D01*
X58376631Y-82280211D01*
X58366687Y-82211053D01*
X58369650Y-82196607D01*
X58371880Y-82188285D01*
X58430070Y-81971116D01*
X58464300Y-81711120D01*
X58464300Y-81448880D01*
X58430070Y-81188884D01*
X58362198Y-80935581D01*
X58362194Y-80935571D01*
X58261846Y-80693309D01*
X58261841Y-80693299D01*
X58130724Y-80466196D01*
X57989427Y-80282056D01*
X57971082Y-80258149D01*
X57971081Y-80258148D01*
X57971074Y-80258140D01*
X57785660Y-80072726D01*
X57785651Y-80072718D01*
X57577603Y-79913075D01*
X57350500Y-79781958D01*
X57350490Y-79781953D01*
X57108228Y-79681605D01*
X57108221Y-79681603D01*
X57108219Y-79681602D01*
X56854916Y-79613730D01*
X56772778Y-79602916D01*
X56594927Y-79579500D01*
X56594920Y-79579500D01*
X56332680Y-79579500D01*
X56332672Y-79579500D01*
X56101572Y-79609926D01*
X56072684Y-79613730D01*
X55924853Y-79653341D01*
X55819381Y-79681602D01*
X55819371Y-79681605D01*
X55577109Y-79781953D01*
X55577099Y-79781958D01*
X55349996Y-79913075D01*
X55141948Y-80072718D01*
X54956518Y-80258148D01*
X54796875Y-80466196D01*
X54665758Y-80693299D01*
X54665753Y-80693309D01*
X54565405Y-80935571D01*
X54565403Y-80935578D01*
X54565402Y-80935581D01*
X54523584Y-81091651D01*
X54497530Y-81188885D01*
X54463300Y-81448872D01*
X54463300Y-81711127D01*
X54485753Y-81881662D01*
X54497530Y-81971116D01*
X54565402Y-82224418D01*
X54565405Y-82224428D01*
X54665753Y-82466690D01*
X54665758Y-82466700D01*
X54796875Y-82693803D01*
X54956518Y-82901851D01*
X54956526Y-82901860D01*
X55141939Y-83087273D01*
X55141943Y-83087276D01*
X55141949Y-83087282D01*
X55316637Y-83221326D01*
X55357838Y-83277753D01*
X55361993Y-83347499D01*
X55327780Y-83408419D01*
X55266063Y-83441171D01*
X55241149Y-83443700D01*
X55135539Y-83443700D01*
X55135523Y-83443699D01*
X55127927Y-83443699D01*
X55022473Y-83443699D01*
X54934955Y-83467150D01*
X54934954Y-83467149D01*
X54920612Y-83470993D01*
X54829284Y-83523722D01*
X53251322Y-85101684D01*
X53251320Y-85101687D01*
X53201665Y-85187692D01*
X53198593Y-85193012D01*
X53182054Y-85254737D01*
X53182054Y-85254738D01*
X53182053Y-85254737D01*
X53171300Y-85294869D01*
X53171300Y-86702240D01*
X53151615Y-86769279D01*
X53098811Y-86815034D01*
X53029653Y-86824978D01*
X53002509Y-86817868D01*
X52973437Y-86806606D01*
X52973434Y-86806605D01*
X52973433Y-86806605D01*
X52761568Y-86767000D01*
X52546032Y-86767000D01*
X52334167Y-86806605D01*
X52334164Y-86806605D01*
X52334164Y-86806606D01*
X52133188Y-86884463D01*
X52133187Y-86884464D01*
X51949932Y-86997931D01*
X51790652Y-87143133D01*
X51660763Y-87315134D01*
X51660758Y-87315142D01*
X51564688Y-87508077D01*
X51505703Y-87715390D01*
X51505688Y-87715476D01*
X51505669Y-87715513D01*
X51504137Y-87720898D01*
X51503083Y-87720598D01*
X51474018Y-87777756D01*
X51413705Y-87813027D01*
X51343897Y-87810091D01*
X51286758Y-87769880D01*
X51264281Y-87720665D01*
X51263463Y-87720898D01*
X51261934Y-87715524D01*
X51261912Y-87715476D01*
X51261896Y-87715390D01*
X51261895Y-87715387D01*
X51261895Y-87715384D01*
X51202911Y-87508076D01*
X51138560Y-87378843D01*
X51106841Y-87315142D01*
X51106836Y-87315134D01*
X50976947Y-87143133D01*
X50817667Y-86997931D01*
X50817666Y-86997930D01*
X50634414Y-86884465D01*
X50634412Y-86884464D01*
X50634411Y-86884463D01*
X50455191Y-86815034D01*
X50433433Y-86806605D01*
X50221568Y-86767000D01*
X50006032Y-86767000D01*
X49794167Y-86806605D01*
X49794164Y-86806605D01*
X49794164Y-86806606D01*
X49593188Y-86884463D01*
X49593187Y-86884464D01*
X49409932Y-86997931D01*
X49250652Y-87143133D01*
X49120763Y-87315134D01*
X49120758Y-87315142D01*
X49024688Y-87508077D01*
X48965703Y-87715390D01*
X48965688Y-87715476D01*
X48965669Y-87715513D01*
X48964137Y-87720898D01*
X48963083Y-87720598D01*
X48934018Y-87777756D01*
X48873705Y-87813027D01*
X48803897Y-87810091D01*
X48746758Y-87769880D01*
X48724281Y-87720665D01*
X48723463Y-87720898D01*
X48721934Y-87715524D01*
X48721912Y-87715476D01*
X48721896Y-87715390D01*
X48721895Y-87715387D01*
X48721895Y-87715384D01*
X48662911Y-87508076D01*
X48598560Y-87378843D01*
X48566841Y-87315142D01*
X48566836Y-87315134D01*
X48436947Y-87143133D01*
X48277667Y-86997931D01*
X48277666Y-86997930D01*
X48094414Y-86884465D01*
X48094412Y-86884464D01*
X48094411Y-86884463D01*
X47915191Y-86815034D01*
X47893433Y-86806605D01*
X47681568Y-86767000D01*
X47466032Y-86767000D01*
X47254167Y-86806605D01*
X47254164Y-86806605D01*
X47254164Y-86806606D01*
X47053188Y-86884463D01*
X47053187Y-86884464D01*
X46869932Y-86997931D01*
X46710652Y-87143133D01*
X46580763Y-87315134D01*
X46580758Y-87315142D01*
X46484688Y-87508077D01*
X46425704Y-87715388D01*
X46405818Y-87929999D01*
X46405818Y-87930000D01*
X46425704Y-88144611D01*
X46425704Y-88144613D01*
X46425705Y-88144616D01*
X46445378Y-88213760D01*
X46484688Y-88351922D01*
X46580758Y-88544857D01*
X46580763Y-88544865D01*
X46710652Y-88716866D01*
X46821657Y-88818060D01*
X46869934Y-88862070D01*
X47053186Y-88975535D01*
X47053187Y-88975535D01*
X47053188Y-88975536D01*
X47095765Y-88992030D01*
X47254167Y-89053395D01*
X47466032Y-89093000D01*
X47466034Y-89093000D01*
X47681566Y-89093000D01*
X47681568Y-89093000D01*
X47893433Y-89053395D01*
X48094414Y-88975535D01*
X48277666Y-88862070D01*
X48431544Y-88721791D01*
X48436947Y-88716866D01*
X48465324Y-88679290D01*
X48566838Y-88544863D01*
X48662911Y-88351924D01*
X48721895Y-88144616D01*
X48721896Y-88144600D01*
X48721911Y-88144527D01*
X48721930Y-88144489D01*
X48723463Y-88139102D01*
X48724516Y-88139401D01*
X48753579Y-88082246D01*
X48813892Y-88046973D01*
X48883700Y-88049907D01*
X48940840Y-88090116D01*
X48963317Y-88139335D01*
X48964137Y-88139102D01*
X48965666Y-88144477D01*
X48965689Y-88144527D01*
X48965704Y-88144610D01*
X48965705Y-88144616D01*
X48989721Y-88229023D01*
X49024688Y-88351922D01*
X49120758Y-88544857D01*
X49120763Y-88544865D01*
X49250652Y-88716866D01*
X49361657Y-88818060D01*
X49409934Y-88862070D01*
X49593186Y-88975535D01*
X49593187Y-88975535D01*
X49593188Y-88975536D01*
X49635765Y-88992030D01*
X49794167Y-89053395D01*
X50006032Y-89093000D01*
X50006034Y-89093000D01*
X50221566Y-89093000D01*
X50221568Y-89093000D01*
X50433433Y-89053395D01*
X50634414Y-88975535D01*
X50817666Y-88862070D01*
X50971544Y-88721791D01*
X50976947Y-88716866D01*
X51005324Y-88679290D01*
X51106838Y-88544863D01*
X51202911Y-88351924D01*
X51261895Y-88144616D01*
X51261896Y-88144600D01*
X51261911Y-88144527D01*
X51261930Y-88144489D01*
X51263463Y-88139102D01*
X51264516Y-88139401D01*
X51293579Y-88082246D01*
X51353892Y-88046973D01*
X51423700Y-88049907D01*
X51480840Y-88090116D01*
X51503317Y-88139335D01*
X51504137Y-88139102D01*
X51505666Y-88144477D01*
X51505689Y-88144527D01*
X51505704Y-88144610D01*
X51505705Y-88144616D01*
X51529721Y-88229023D01*
X51564688Y-88351922D01*
X51660758Y-88544857D01*
X51660763Y-88544865D01*
X51790652Y-88716866D01*
X51901657Y-88818060D01*
X51949934Y-88862070D01*
X52133186Y-88975535D01*
X52133187Y-88975535D01*
X52133188Y-88975536D01*
X52175765Y-88992030D01*
X52334167Y-89053395D01*
X52546032Y-89093000D01*
X52546034Y-89093000D01*
X52761566Y-89093000D01*
X52761568Y-89093000D01*
X52973433Y-89053395D01*
X53174414Y-88975535D01*
X53357666Y-88862070D01*
X53511544Y-88721791D01*
X53516947Y-88716866D01*
X53545324Y-88679290D01*
X53646838Y-88544863D01*
X53742911Y-88351924D01*
X53787534Y-88195087D01*
X53824812Y-88135996D01*
X53888122Y-88106438D01*
X53957361Y-88115800D01*
X54010548Y-88161109D01*
X54030796Y-88227981D01*
X54030800Y-88229023D01*
X54030800Y-88837356D01*
X54030802Y-88837382D01*
X54033713Y-88862487D01*
X54033715Y-88862491D01*
X54079093Y-88965264D01*
X54079094Y-88965265D01*
X54158535Y-89044706D01*
X54261309Y-89090085D01*
X54286435Y-89093000D01*
X56101164Y-89092999D01*
X56101179Y-89092997D01*
X56101182Y-89092997D01*
X56126287Y-89090086D01*
X56126288Y-89090085D01*
X56126291Y-89090085D01*
X56229065Y-89044706D01*
X56308506Y-88965265D01*
X56353885Y-88862491D01*
X56356800Y-88837365D01*
X56356799Y-87022636D01*
X56356321Y-87018510D01*
X56353886Y-86997512D01*
X56353885Y-86997510D01*
X56353885Y-86997509D01*
X56308506Y-86894735D01*
X56229065Y-86815294D01*
X56228476Y-86815034D01*
X56126292Y-86769915D01*
X56101168Y-86767000D01*
X56101165Y-86767000D01*
X54546300Y-86767000D01*
X54479261Y-86747315D01*
X54433506Y-86694511D01*
X54422300Y-86643000D01*
X54422300Y-85751255D01*
X54441985Y-85684216D01*
X54458619Y-85663574D01*
X55391174Y-84731019D01*
X55452497Y-84697534D01*
X55478855Y-84694700D01*
X57013395Y-84694700D01*
X57080434Y-84714385D01*
X57126189Y-84767189D01*
X57136133Y-84836347D01*
X57128824Y-84864002D01*
X57086747Y-84971212D01*
X57086746Y-84971217D01*
X57030468Y-85217788D01*
X57011568Y-85469995D01*
X57011568Y-85470004D01*
X57030468Y-85722211D01*
X57086746Y-85968782D01*
X57086751Y-85968799D01*
X57179149Y-86204226D01*
X57179153Y-86204234D01*
X57209645Y-86257047D01*
X57799835Y-85666857D01*
X57814347Y-85739813D01*
X57884075Y-85908152D01*
X57985305Y-86059653D01*
X58114147Y-86188495D01*
X58265648Y-86289725D01*
X58433987Y-86359453D01*
X58506941Y-86373964D01*
X57916881Y-86964024D01*
X58085555Y-87045252D01*
X58085553Y-87045252D01*
X58327234Y-87119801D01*
X58327240Y-87119802D01*
X58577333Y-87157499D01*
X58577340Y-87157500D01*
X58830260Y-87157500D01*
X58830266Y-87157499D01*
X59080359Y-87119802D01*
X59080365Y-87119801D01*
X59322042Y-87045253D01*
X59490716Y-86964023D01*
X58900657Y-86373964D01*
X58973613Y-86359453D01*
X59141952Y-86289725D01*
X59293453Y-86188495D01*
X59422295Y-86059653D01*
X59523525Y-85908152D01*
X59593253Y-85739813D01*
X59607764Y-85666857D01*
X60197953Y-86257046D01*
X60219315Y-86254234D01*
X60288350Y-86265000D01*
X60340606Y-86311380D01*
X60359500Y-86377173D01*
X60359500Y-87289345D01*
X60339815Y-87356384D01*
X60323181Y-87377026D01*
X59422752Y-88277454D01*
X59361429Y-88310939D01*
X59291737Y-88305955D01*
X59235804Y-88264083D01*
X59211387Y-88198619D01*
X59212131Y-88173597D01*
X59227482Y-88057000D01*
X59227476Y-88056957D01*
X59211936Y-87938913D01*
X59206844Y-87900238D01*
X59146336Y-87754159D01*
X59050082Y-87628718D01*
X58924641Y-87532464D01*
X58908183Y-87525647D01*
X58778562Y-87471956D01*
X58778560Y-87471955D01*
X58621801Y-87451318D01*
X58621799Y-87451318D01*
X58465039Y-87471955D01*
X58465037Y-87471956D01*
X58318960Y-87532463D01*
X58193518Y-87628718D01*
X58097263Y-87754160D01*
X58036756Y-87900237D01*
X58036755Y-87900239D01*
X58016118Y-88056998D01*
X58016118Y-88057001D01*
X58036755Y-88213760D01*
X58036756Y-88213762D01*
X58081124Y-88320877D01*
X58097264Y-88359841D01*
X58193518Y-88485282D01*
X58318959Y-88581536D01*
X58465038Y-88642044D01*
X58505205Y-88647332D01*
X58621799Y-88662682D01*
X58621800Y-88662682D01*
X58738390Y-88647332D01*
X58807422Y-88658097D01*
X58859678Y-88704477D01*
X58878564Y-88771746D01*
X58858084Y-88838546D01*
X58842254Y-88857952D01*
X55021826Y-92678381D01*
X54960503Y-92711866D01*
X54934145Y-92714700D01*
X50863300Y-92714700D01*
X50796261Y-92695015D01*
X50750506Y-92642211D01*
X50739300Y-92590700D01*
X50739300Y-91732255D01*
X50758985Y-91665216D01*
X50775614Y-91644577D01*
X50835946Y-91584246D01*
X50897266Y-91550763D01*
X50966958Y-91555747D01*
X50968369Y-91556283D01*
X51064167Y-91593395D01*
X51276032Y-91633000D01*
X51276034Y-91633000D01*
X51491566Y-91633000D01*
X51491568Y-91633000D01*
X51703433Y-91593395D01*
X51904414Y-91515535D01*
X52087666Y-91402070D01*
X52246949Y-91256864D01*
X52376838Y-91084863D01*
X52472911Y-90891924D01*
X52531895Y-90684616D01*
X52531896Y-90684600D01*
X52531911Y-90684527D01*
X52531930Y-90684489D01*
X52533463Y-90679102D01*
X52534516Y-90679401D01*
X52563579Y-90622246D01*
X52623892Y-90586973D01*
X52693700Y-90589907D01*
X52750840Y-90630116D01*
X52773317Y-90679335D01*
X52774137Y-90679102D01*
X52775666Y-90684477D01*
X52775689Y-90684527D01*
X52775704Y-90684610D01*
X52775705Y-90684616D01*
X52808951Y-90801464D01*
X52834688Y-90891922D01*
X52930758Y-91084857D01*
X52930763Y-91084865D01*
X53060652Y-91256866D01*
X53146072Y-91334736D01*
X53219934Y-91402070D01*
X53403186Y-91515535D01*
X53403187Y-91515535D01*
X53403188Y-91515536D01*
X53445765Y-91532030D01*
X53604167Y-91593395D01*
X53816032Y-91633000D01*
X53816034Y-91633000D01*
X54031566Y-91633000D01*
X54031568Y-91633000D01*
X54243433Y-91593395D01*
X54444414Y-91515535D01*
X54627666Y-91402070D01*
X54786949Y-91256864D01*
X54916838Y-91084863D01*
X55012911Y-90891924D01*
X55071895Y-90684616D01*
X55091782Y-90470000D01*
X55071895Y-90255384D01*
X55012911Y-90048076D01*
X54944942Y-89911577D01*
X54916841Y-89855142D01*
X54916836Y-89855134D01*
X54786947Y-89683133D01*
X54627667Y-89537931D01*
X54627666Y-89537930D01*
X54444414Y-89424465D01*
X54444412Y-89424464D01*
X54444411Y-89424463D01*
X54275653Y-89359087D01*
X54243433Y-89346605D01*
X54031568Y-89307000D01*
X53816032Y-89307000D01*
X53604167Y-89346605D01*
X53604164Y-89346605D01*
X53604164Y-89346606D01*
X53403188Y-89424463D01*
X53403187Y-89424464D01*
X53219932Y-89537931D01*
X53060652Y-89683133D01*
X52930763Y-89855134D01*
X52930758Y-89855142D01*
X52834688Y-90048077D01*
X52775703Y-90255390D01*
X52775688Y-90255476D01*
X52775669Y-90255513D01*
X52774137Y-90260898D01*
X52773083Y-90260598D01*
X52744018Y-90317756D01*
X52683705Y-90353027D01*
X52613897Y-90350091D01*
X52556758Y-90309880D01*
X52534281Y-90260665D01*
X52533463Y-90260898D01*
X52531934Y-90255524D01*
X52531912Y-90255476D01*
X52531896Y-90255390D01*
X52531895Y-90255387D01*
X52531895Y-90255384D01*
X52472911Y-90048076D01*
X52404942Y-89911577D01*
X52376841Y-89855142D01*
X52376836Y-89855134D01*
X52246947Y-89683133D01*
X52087667Y-89537931D01*
X52087666Y-89537930D01*
X51904414Y-89424465D01*
X51904412Y-89424464D01*
X51904411Y-89424463D01*
X51735653Y-89359087D01*
X51703433Y-89346605D01*
X51491568Y-89307000D01*
X51276032Y-89307000D01*
X51064167Y-89346605D01*
X51064164Y-89346605D01*
X51064164Y-89346606D01*
X50863188Y-89424463D01*
X50863187Y-89424464D01*
X50679932Y-89537931D01*
X50520652Y-89683133D01*
X50390763Y-89855134D01*
X50390758Y-89855142D01*
X50294688Y-90048077D01*
X50235703Y-90255390D01*
X50235688Y-90255476D01*
X50235669Y-90255513D01*
X50234137Y-90260898D01*
X50233083Y-90260598D01*
X50204018Y-90317756D01*
X50143705Y-90353027D01*
X50073897Y-90350091D01*
X50016758Y-90309880D01*
X49994281Y-90260665D01*
X49993463Y-90260898D01*
X49991934Y-90255524D01*
X49991912Y-90255476D01*
X49991896Y-90255390D01*
X49991895Y-90255387D01*
X49991895Y-90255384D01*
X49932911Y-90048076D01*
X49864942Y-89911577D01*
X49836841Y-89855142D01*
X49836836Y-89855134D01*
X49706947Y-89683133D01*
X49547667Y-89537931D01*
X49547666Y-89537930D01*
X49364414Y-89424465D01*
X49364412Y-89424464D01*
X49364411Y-89424463D01*
X49195653Y-89359087D01*
X49163433Y-89346605D01*
X48951568Y-89307000D01*
X48736032Y-89307000D01*
X48524167Y-89346605D01*
X48524164Y-89346605D01*
X48524164Y-89346606D01*
X48323188Y-89424463D01*
X48323187Y-89424464D01*
X48139932Y-89537931D01*
X47980652Y-89683133D01*
X47850763Y-89855134D01*
X47850758Y-89855142D01*
X47754688Y-90048077D01*
X47695703Y-90255390D01*
X47695431Y-90256850D01*
X47695108Y-90257484D01*
X47694137Y-90260898D01*
X47693468Y-90260707D01*
X47663757Y-90319128D01*
X47603442Y-90354396D01*
X47533634Y-90351456D01*
X47476497Y-90311242D01*
X47453484Y-90260843D01*
X47452970Y-90260990D01*
X47452008Y-90257609D01*
X47451655Y-90256836D01*
X47451400Y-90255472D01*
X47401347Y-90079557D01*
X47010907Y-90469999D01*
X47010907Y-90470001D01*
X47401347Y-90860441D01*
X47401348Y-90860441D01*
X47451400Y-90684527D01*
X47451654Y-90683166D01*
X47451957Y-90682569D01*
X47452970Y-90679010D01*
X47453666Y-90679208D01*
X47483319Y-90620883D01*
X47543630Y-90585607D01*
X47613438Y-90588538D01*
X47670580Y-90628744D01*
X47693645Y-90679241D01*
X47694137Y-90679102D01*
X47695055Y-90682329D01*
X47695431Y-90683152D01*
X47695702Y-90684604D01*
X47695704Y-90684613D01*
X47695705Y-90684616D01*
X47712184Y-90742535D01*
X47754688Y-90891922D01*
X47850758Y-91084857D01*
X47850763Y-91084865D01*
X47980652Y-91256866D01*
X48066072Y-91334736D01*
X48139934Y-91402070D01*
X48323186Y-91515535D01*
X48323187Y-91515535D01*
X48323188Y-91515536D01*
X48365765Y-91532030D01*
X48524167Y-91593395D01*
X48736032Y-91633000D01*
X48736034Y-91633000D01*
X48951566Y-91633000D01*
X48951568Y-91633000D01*
X49163433Y-91593395D01*
X49222150Y-91570648D01*
X49259180Y-91556303D01*
X49328803Y-91550440D01*
X49390543Y-91583150D01*
X49391655Y-91584248D01*
X49451981Y-91644574D01*
X49485466Y-91705897D01*
X49488300Y-91732255D01*
X49488300Y-92948873D01*
X49488300Y-93054327D01*
X49494059Y-93075819D01*
X49515593Y-93156189D01*
X49534127Y-93188289D01*
X49568320Y-93247513D01*
X49832448Y-93511641D01*
X49962827Y-93642019D01*
X49996312Y-93703342D01*
X49991328Y-93773033D01*
X49949457Y-93828967D01*
X49883992Y-93853384D01*
X49875146Y-93853700D01*
X46917099Y-93853700D01*
X46850060Y-93834015D01*
X46829418Y-93817381D01*
X46585001Y-93572964D01*
X46551516Y-93511641D01*
X46556500Y-93441949D01*
X46598372Y-93386016D01*
X46656496Y-93362344D01*
X46688412Y-93358143D01*
X46834491Y-93297635D01*
X46959932Y-93201381D01*
X47056186Y-93075940D01*
X47116694Y-92929861D01*
X47137332Y-92773099D01*
X47134815Y-92753984D01*
X47116694Y-92616338D01*
X47116694Y-92616337D01*
X47056186Y-92470258D01*
X46959932Y-92344817D01*
X46834491Y-92248563D01*
X46828052Y-92245896D01*
X46688412Y-92188055D01*
X46688410Y-92188054D01*
X46531651Y-92167417D01*
X46531649Y-92167417D01*
X46374889Y-92188054D01*
X46374887Y-92188055D01*
X46228810Y-92248562D01*
X46103368Y-92344817D01*
X46007113Y-92470259D01*
X45946606Y-92616336D01*
X45946606Y-92616337D01*
X45942404Y-92648253D01*
X45914136Y-92712149D01*
X45855811Y-92750620D01*
X45785947Y-92751450D01*
X45731784Y-92719747D01*
X44578055Y-91566018D01*
X45914886Y-91566018D01*
X45984299Y-91592910D01*
X45984305Y-91592911D01*
X46196081Y-91632500D01*
X46411519Y-91632500D01*
X46623299Y-91592910D01*
X46692712Y-91566019D01*
X46303801Y-91177107D01*
X46303800Y-91177107D01*
X45914886Y-91566018D01*
X44578055Y-91566018D01*
X44250869Y-91238832D01*
X44217384Y-91177509D01*
X44214550Y-91151151D01*
X44214550Y-90470000D01*
X45136320Y-90470000D01*
X45156198Y-90684521D01*
X45206250Y-90860440D01*
X45596693Y-90470000D01*
X45520993Y-90394300D01*
X45728800Y-90394300D01*
X45728800Y-90545700D01*
X45767985Y-90691942D01*
X45843685Y-90823058D01*
X45950742Y-90930115D01*
X46081858Y-91005815D01*
X46228100Y-91045000D01*
X46379500Y-91045000D01*
X46525742Y-91005815D01*
X46656858Y-90930115D01*
X46763915Y-90823058D01*
X46839615Y-90691942D01*
X46878800Y-90545700D01*
X46878800Y-90394300D01*
X46839615Y-90248058D01*
X46763915Y-90116942D01*
X46656858Y-90009885D01*
X46525742Y-89934185D01*
X46379500Y-89895000D01*
X46228100Y-89895000D01*
X46081858Y-89934185D01*
X45950742Y-90009885D01*
X45843685Y-90116942D01*
X45767985Y-90248058D01*
X45728800Y-90394300D01*
X45520993Y-90394300D01*
X45206251Y-90079558D01*
X45156198Y-90255478D01*
X45136320Y-90470000D01*
X44214550Y-90470000D01*
X44214550Y-89786949D01*
X44234235Y-89719910D01*
X44250869Y-89699268D01*
X44576157Y-89373980D01*
X45914887Y-89373980D01*
X46303800Y-89762893D01*
X46303801Y-89762893D01*
X46692712Y-89373980D01*
X46623293Y-89347088D01*
X46411519Y-89307500D01*
X46196081Y-89307500D01*
X45984301Y-89347089D01*
X45914887Y-89373980D01*
X44576157Y-89373980D01*
X44994249Y-88955888D01*
X45738774Y-88211363D01*
X45738775Y-88211362D01*
X45788210Y-88125738D01*
X45810353Y-88043100D01*
X45813800Y-88030236D01*
X45813800Y-87931364D01*
X45813800Y-85901698D01*
X46892318Y-85901698D01*
X46892318Y-85901701D01*
X46912955Y-86058460D01*
X46912956Y-86058462D01*
X46973333Y-86204226D01*
X46973464Y-86204541D01*
X47069718Y-86329982D01*
X47195159Y-86426236D01*
X47341238Y-86486744D01*
X47419619Y-86497063D01*
X47497999Y-86507382D01*
X47498000Y-86507382D01*
X47498001Y-86507382D01*
X47550254Y-86500502D01*
X47654762Y-86486744D01*
X47800841Y-86426236D01*
X47926282Y-86329982D01*
X48022536Y-86204541D01*
X48083044Y-86058462D01*
X48103682Y-85901700D01*
X48101812Y-85887499D01*
X48101812Y-85887497D01*
X48467068Y-85887497D01*
X48467068Y-85887500D01*
X48487705Y-86044259D01*
X48487706Y-86044261D01*
X48547134Y-86187734D01*
X48548214Y-86190340D01*
X48644468Y-86315781D01*
X48769909Y-86412035D01*
X48915988Y-86472543D01*
X48994369Y-86482862D01*
X49072749Y-86493181D01*
X49072750Y-86493181D01*
X49072751Y-86493181D01*
X49125004Y-86486301D01*
X49229512Y-86472543D01*
X49375591Y-86412035D01*
X49501032Y-86315781D01*
X49597286Y-86190340D01*
X49657794Y-86044261D01*
X49673342Y-85926160D01*
X49678432Y-85887500D01*
X49678432Y-85887497D01*
X50271568Y-85887497D01*
X50271568Y-85887500D01*
X50292205Y-86044259D01*
X50292206Y-86044261D01*
X50351634Y-86187734D01*
X50352714Y-86190340D01*
X50448968Y-86315781D01*
X50574409Y-86412035D01*
X50720488Y-86472543D01*
X50798869Y-86482862D01*
X50877249Y-86493181D01*
X50877250Y-86493181D01*
X50877251Y-86493181D01*
X50929504Y-86486301D01*
X51034012Y-86472543D01*
X51180091Y-86412035D01*
X51305532Y-86315781D01*
X51401786Y-86190340D01*
X51462294Y-86044261D01*
X51477842Y-85926160D01*
X51482932Y-85887500D01*
X51482932Y-85887497D01*
X51464164Y-85744939D01*
X51462294Y-85730737D01*
X51401786Y-85584658D01*
X51305532Y-85459217D01*
X51180091Y-85362963D01*
X51175115Y-85360902D01*
X51034012Y-85302455D01*
X51034010Y-85302454D01*
X50877251Y-85281817D01*
X50877249Y-85281817D01*
X50720489Y-85302454D01*
X50720487Y-85302455D01*
X50574410Y-85362962D01*
X50448968Y-85459217D01*
X50352713Y-85584659D01*
X50292206Y-85730736D01*
X50292205Y-85730738D01*
X50271568Y-85887497D01*
X49678432Y-85887497D01*
X49659664Y-85744939D01*
X49657794Y-85730737D01*
X49597286Y-85584658D01*
X49501032Y-85459217D01*
X49375591Y-85362963D01*
X49370615Y-85360902D01*
X49229512Y-85302455D01*
X49229510Y-85302454D01*
X49072751Y-85281817D01*
X49072749Y-85281817D01*
X48915989Y-85302454D01*
X48915987Y-85302455D01*
X48769910Y-85362962D01*
X48644468Y-85459217D01*
X48548213Y-85584659D01*
X48487706Y-85730736D01*
X48487705Y-85730738D01*
X48467068Y-85887497D01*
X48101812Y-85887497D01*
X48086143Y-85768475D01*
X48083044Y-85744938D01*
X48022536Y-85598859D01*
X47926282Y-85473418D01*
X47800841Y-85377164D01*
X47777220Y-85367380D01*
X47654762Y-85316656D01*
X47654760Y-85316655D01*
X47498001Y-85296018D01*
X47497999Y-85296018D01*
X47341239Y-85316655D01*
X47341237Y-85316656D01*
X47195160Y-85377163D01*
X47069718Y-85473418D01*
X46973463Y-85598860D01*
X46912956Y-85744937D01*
X46912955Y-85744939D01*
X46892318Y-85901698D01*
X45813800Y-85901698D01*
X45813800Y-84375365D01*
X45813800Y-84375364D01*
X45806628Y-84348598D01*
X52073518Y-84348598D01*
X52073518Y-84348601D01*
X52094155Y-84505360D01*
X52094156Y-84505362D01*
X52154664Y-84651441D01*
X52250918Y-84776882D01*
X52376359Y-84873136D01*
X52522438Y-84933644D01*
X52600819Y-84943963D01*
X52679199Y-84954282D01*
X52679200Y-84954282D01*
X52679201Y-84954282D01*
X52731454Y-84947402D01*
X52835962Y-84933644D01*
X52982041Y-84873136D01*
X53107482Y-84776882D01*
X53203736Y-84651441D01*
X53264244Y-84505362D01*
X53281358Y-84375365D01*
X53284882Y-84348601D01*
X53284882Y-84348598D01*
X53264560Y-84194237D01*
X53264244Y-84191838D01*
X53203736Y-84045759D01*
X53107482Y-83920318D01*
X52982041Y-83824064D01*
X52972705Y-83820197D01*
X52835962Y-83763556D01*
X52835960Y-83763555D01*
X52679201Y-83742918D01*
X52679199Y-83742918D01*
X52522439Y-83763555D01*
X52522437Y-83763556D01*
X52376360Y-83824063D01*
X52250918Y-83920318D01*
X52154663Y-84045760D01*
X52094156Y-84191837D01*
X52094155Y-84191839D01*
X52073518Y-84348598D01*
X45806628Y-84348598D01*
X45788211Y-84279863D01*
X45738775Y-84194237D01*
X45439285Y-83894747D01*
X45307476Y-83762938D01*
X45273991Y-83701615D01*
X45278975Y-83631923D01*
X45320847Y-83575990D01*
X45378970Y-83552318D01*
X45424916Y-83546270D01*
X45678219Y-83478398D01*
X45920497Y-83378043D01*
X46147603Y-83246924D01*
X46355651Y-83087282D01*
X46355655Y-83087277D01*
X46355660Y-83087274D01*
X46541074Y-82901860D01*
X46541077Y-82901855D01*
X46541082Y-82901851D01*
X46700724Y-82693803D01*
X46831843Y-82466697D01*
X46832153Y-82465950D01*
X46891677Y-82322244D01*
X46932198Y-82224419D01*
X47000070Y-81971116D01*
X47034300Y-81711120D01*
X47034300Y-81448880D01*
X47000070Y-81188884D01*
X46932198Y-80935581D01*
X46932194Y-80935571D01*
X46831846Y-80693309D01*
X46831841Y-80693299D01*
X46700724Y-80466196D01*
X46559427Y-80282056D01*
X46541082Y-80258149D01*
X46541081Y-80258148D01*
X46541074Y-80258140D01*
X46355660Y-80072726D01*
X46355651Y-80072718D01*
X46147603Y-79913075D01*
X45920500Y-79781958D01*
X45920490Y-79781953D01*
X45678228Y-79681605D01*
X45678221Y-79681603D01*
X45678219Y-79681602D01*
X45424916Y-79613730D01*
X45342778Y-79602916D01*
X45164927Y-79579500D01*
X45164920Y-79579500D01*
X44902680Y-79579500D01*
X44902672Y-79579500D01*
X44671572Y-79609926D01*
X44642684Y-79613730D01*
X44494853Y-79653341D01*
X44389381Y-79681602D01*
X44389371Y-79681605D01*
X44147109Y-79781953D01*
X44147099Y-79781958D01*
X43919996Y-79913075D01*
X43711948Y-80072718D01*
X43526518Y-80258148D01*
X43366875Y-80466196D01*
X43235758Y-80693299D01*
X43235753Y-80693309D01*
X43135405Y-80935571D01*
X43135403Y-80935578D01*
X43135402Y-80935581D01*
X43087340Y-81114955D01*
X43085775Y-81120794D01*
X43049410Y-81180454D01*
X42986563Y-81210983D01*
X42917187Y-81202688D01*
X42863310Y-81158203D01*
X42842035Y-81091651D01*
X42842000Y-81088700D01*
X42842000Y-79526799D01*
X62252428Y-79526799D01*
X62252428Y-79526800D01*
X62559600Y-79526800D01*
X63119600Y-79526800D01*
X63426772Y-79526800D01*
X63426771Y-79526799D01*
X63403005Y-79458879D01*
X63403004Y-79458877D01*
X63324241Y-79352158D01*
X63217520Y-79273394D01*
X63119600Y-79239130D01*
X63119600Y-79526800D01*
X62559600Y-79526800D01*
X62559600Y-79239130D01*
X62559599Y-79239130D01*
X62461679Y-79273394D01*
X62354958Y-79352158D01*
X62276195Y-79458877D01*
X62276194Y-79458879D01*
X62252428Y-79526799D01*
X42842000Y-79526799D01*
X42842000Y-77341898D01*
X42861685Y-77274859D01*
X42878315Y-77254221D01*
X42973385Y-77159151D01*
X43034707Y-77125667D01*
X43104399Y-77130651D01*
X43160332Y-77172523D01*
X43184749Y-77237987D01*
X43184593Y-77257640D01*
X43166014Y-77469998D01*
X43166014Y-77470000D01*
X43185122Y-77688407D01*
X43185124Y-77688417D01*
X43241865Y-77900180D01*
X43241870Y-77900194D01*
X43328753Y-78086515D01*
X43334525Y-78098893D01*
X43460280Y-78278489D01*
X43615311Y-78433520D01*
X43794907Y-78559275D01*
X43914452Y-78615019D01*
X43993605Y-78651929D01*
X43993607Y-78651929D01*
X43993612Y-78651932D01*
X44205388Y-78708677D01*
X44380117Y-78723964D01*
X44423799Y-78727786D01*
X44423800Y-78727786D01*
X44423801Y-78727786D01*
X44460202Y-78724601D01*
X44642212Y-78708677D01*
X44853988Y-78651932D01*
X45052693Y-78559275D01*
X45232289Y-78433520D01*
X45387320Y-78278489D01*
X45513075Y-78098893D01*
X45581418Y-77952330D01*
X45627590Y-77899890D01*
X45694783Y-77880738D01*
X45761665Y-77900953D01*
X45806182Y-77952330D01*
X45874525Y-78098893D01*
X46000280Y-78278489D01*
X46155311Y-78433520D01*
X46334907Y-78559275D01*
X46454452Y-78615019D01*
X46533605Y-78651929D01*
X46533607Y-78651929D01*
X46533612Y-78651932D01*
X46745388Y-78708677D01*
X46920117Y-78723964D01*
X46963799Y-78727786D01*
X46963800Y-78727786D01*
X46963801Y-78727786D01*
X47000202Y-78724601D01*
X47182212Y-78708677D01*
X47393988Y-78651932D01*
X47592693Y-78559275D01*
X47772289Y-78433520D01*
X47927320Y-78278489D01*
X48053075Y-78098893D01*
X48145732Y-77900188D01*
X48202477Y-77688412D01*
X48221586Y-77470000D01*
X48221339Y-77467182D01*
X48209127Y-77327600D01*
X48202477Y-77251588D01*
X48150943Y-77059261D01*
X48145734Y-77039819D01*
X48145729Y-77039805D01*
X48082606Y-76904437D01*
X48053075Y-76841107D01*
X47927320Y-76661511D01*
X47772289Y-76506480D01*
X47592693Y-76380725D01*
X47543202Y-76357647D01*
X47393994Y-76288070D01*
X47393980Y-76288065D01*
X47182217Y-76231324D01*
X47182207Y-76231322D01*
X46963801Y-76212214D01*
X46963799Y-76212214D01*
X46745392Y-76231322D01*
X46745382Y-76231324D01*
X46633121Y-76261404D01*
X46563271Y-76259741D01*
X46513347Y-76229310D01*
X46202818Y-75918781D01*
X46169333Y-75857458D01*
X46174317Y-75787766D01*
X46216189Y-75731833D01*
X46281653Y-75707416D01*
X46290499Y-75707100D01*
X55444101Y-75707100D01*
X55511140Y-75726785D01*
X55531782Y-75743419D01*
X56192395Y-76404032D01*
X56225880Y-76465355D01*
X56220896Y-76535047D01*
X56192396Y-76579393D01*
X56110284Y-76661506D01*
X56110281Y-76661509D01*
X56110280Y-76661511D01*
X56092673Y-76686657D01*
X55984524Y-76841107D01*
X55916182Y-76987670D01*
X55870010Y-77040109D01*
X55802816Y-77059261D01*
X55735935Y-77039045D01*
X55691418Y-76987670D01*
X55623075Y-76841107D01*
X55599574Y-76807544D01*
X55497320Y-76661511D01*
X55342289Y-76506480D01*
X55162693Y-76380725D01*
X55113202Y-76357647D01*
X54963994Y-76288070D01*
X54963980Y-76288065D01*
X54752217Y-76231324D01*
X54752207Y-76231322D01*
X54533801Y-76212214D01*
X54533799Y-76212214D01*
X54315392Y-76231322D01*
X54315382Y-76231324D01*
X54103619Y-76288065D01*
X54103605Y-76288070D01*
X53904910Y-76380723D01*
X53904908Y-76380724D01*
X53901422Y-76383165D01*
X53725311Y-76506480D01*
X53725309Y-76506481D01*
X53725306Y-76506484D01*
X53570284Y-76661506D01*
X53570281Y-76661509D01*
X53570280Y-76661511D01*
X53524267Y-76727224D01*
X53444524Y-76841108D01*
X53444523Y-76841110D01*
X53351870Y-77039805D01*
X53351865Y-77039819D01*
X53295124Y-77251582D01*
X53295122Y-77251592D01*
X53276014Y-77469999D01*
X53276014Y-77470000D01*
X53295122Y-77688407D01*
X53295124Y-77688417D01*
X53351865Y-77900180D01*
X53351870Y-77900194D01*
X53438753Y-78086515D01*
X53444525Y-78098893D01*
X53570280Y-78278489D01*
X53725311Y-78433520D01*
X53904907Y-78559275D01*
X54024452Y-78615019D01*
X54103605Y-78651929D01*
X54103607Y-78651929D01*
X54103612Y-78651932D01*
X54315388Y-78708677D01*
X54490117Y-78723964D01*
X54533799Y-78727786D01*
X54533800Y-78727786D01*
X54533801Y-78727786D01*
X54570202Y-78724601D01*
X54752212Y-78708677D01*
X54963988Y-78651932D01*
X55162693Y-78559275D01*
X55342289Y-78433520D01*
X55497320Y-78278489D01*
X55623075Y-78098893D01*
X55691418Y-77952330D01*
X55737590Y-77899890D01*
X55804783Y-77880738D01*
X55871665Y-77900953D01*
X55916182Y-77952330D01*
X55984525Y-78098893D01*
X56110280Y-78278489D01*
X56265311Y-78433520D01*
X56444907Y-78559275D01*
X56564452Y-78615019D01*
X56643605Y-78651929D01*
X56643607Y-78651929D01*
X56643612Y-78651932D01*
X56855388Y-78708677D01*
X57030117Y-78723964D01*
X57073799Y-78727786D01*
X57073800Y-78727786D01*
X57073801Y-78727786D01*
X57110202Y-78724601D01*
X57292212Y-78708677D01*
X57503988Y-78651932D01*
X57702693Y-78559275D01*
X57882289Y-78433520D01*
X58037320Y-78278489D01*
X58163075Y-78098893D01*
X58255732Y-77900188D01*
X58312477Y-77688412D01*
X58331586Y-77470000D01*
X58331339Y-77467182D01*
X58319127Y-77327600D01*
X58312477Y-77251588D01*
X58260943Y-77059261D01*
X58255734Y-77039819D01*
X58255729Y-77039805D01*
X58192606Y-76904437D01*
X58163075Y-76841107D01*
X58037320Y-76661511D01*
X57882289Y-76506480D01*
X57702693Y-76380725D01*
X57653202Y-76357647D01*
X57503994Y-76288070D01*
X57503980Y-76288065D01*
X57292217Y-76231324D01*
X57292207Y-76231322D01*
X57106541Y-76215078D01*
X57041472Y-76189625D01*
X57029668Y-76179231D01*
X55881563Y-75031126D01*
X55881562Y-75031125D01*
X55795940Y-74981691D01*
X55795939Y-74981690D01*
X55770789Y-74974951D01*
X55745641Y-74968213D01*
X55745638Y-74968212D01*
X55700436Y-74956100D01*
X55700435Y-74956100D01*
X44497135Y-74956100D01*
X43735136Y-74956100D01*
X43636264Y-74956100D01*
X43540761Y-74981689D01*
X43455138Y-75031125D01*
X43455135Y-75031127D01*
X41759627Y-76726635D01*
X41710189Y-76812262D01*
X41710189Y-76812263D01*
X41704665Y-76832879D01*
X41685492Y-76904436D01*
X41685490Y-76904445D01*
X41684600Y-76907765D01*
X41684600Y-82213638D01*
X41689259Y-82231026D01*
X41689260Y-82231026D01*
X41689260Y-82231027D01*
X41710190Y-82309138D01*
X41758011Y-82391966D01*
X41758012Y-82391967D01*
X41758011Y-82391967D01*
X41759513Y-82394567D01*
X41759626Y-82394763D01*
X41759629Y-82394766D01*
X42935682Y-83570819D01*
X42969167Y-83632142D01*
X42964183Y-83701834D01*
X42922311Y-83757767D01*
X42856847Y-83782184D01*
X42848001Y-83782500D01*
X42667333Y-83782500D01*
X42417240Y-83820197D01*
X42417234Y-83820198D01*
X42175554Y-83894747D01*
X42006882Y-83975974D01*
X42006882Y-83975975D01*
X42596942Y-84566035D01*
X42523987Y-84580547D01*
X42355648Y-84650275D01*
X42204147Y-84751505D01*
X42075305Y-84880347D01*
X41974075Y-85031848D01*
X41904347Y-85200187D01*
X41889835Y-85273142D01*
X41338332Y-84721639D01*
X41304847Y-84660316D01*
X41302013Y-84633958D01*
X41302013Y-75086406D01*
X41302014Y-75086403D01*
X41302013Y-75024936D01*
X41302329Y-75016091D01*
X41304789Y-74981689D01*
X41316641Y-74815948D01*
X41319157Y-74798449D01*
X41360867Y-74606711D01*
X41365846Y-74589753D01*
X41434419Y-74405899D01*
X41441768Y-74389809D01*
X41535804Y-74217593D01*
X41545360Y-74202724D01*
X41662953Y-74045638D01*
X41674527Y-74032281D01*
X41813281Y-73893527D01*
X41826638Y-73881953D01*
X41983724Y-73764360D01*
X41998593Y-73754804D01*
X42170814Y-73660765D01*
X42186899Y-73653419D01*
X42370753Y-73584846D01*
X42387711Y-73579867D01*
X42523169Y-73550400D01*
X68746261Y-73550400D01*
X68789478Y-73659994D01*
X68880835Y-73780464D01*
X69001304Y-73871820D01*
X69141956Y-73927286D01*
X69230346Y-73937900D01*
X69248400Y-73937900D01*
X70248400Y-73937900D01*
X70266454Y-73937900D01*
X70354843Y-73927286D01*
X70495495Y-73871820D01*
X70615964Y-73780464D01*
X70707321Y-73659994D01*
X70750539Y-73550400D01*
X70248400Y-73550400D01*
X70248400Y-73937900D01*
X69248400Y-73937900D01*
X69248400Y-73550400D01*
X68746261Y-73550400D01*
X42523169Y-73550400D01*
X42579449Y-73538157D01*
X42596948Y-73535641D01*
X42797093Y-73521328D01*
X42805936Y-73521013D01*
X42867403Y-73521014D01*
X42867407Y-73521013D01*
X64066121Y-73521013D01*
X64132013Y-73521013D01*
X64359515Y-73521013D01*
X64559685Y-73504426D01*
X64812956Y-73483439D01*
X64812958Y-73483438D01*
X64812966Y-73483438D01*
X65261764Y-73408546D01*
X65702845Y-73296848D01*
X65702858Y-73296843D01*
X65702864Y-73296842D01*
X66084524Y-73165817D01*
X66133196Y-73149108D01*
X66549877Y-72966334D01*
X66950041Y-72749776D01*
X67255208Y-72550400D01*
X68746261Y-72550400D01*
X69248400Y-72550400D01*
X70248400Y-72550400D01*
X70750539Y-72550400D01*
X70707321Y-72440805D01*
X70615964Y-72320335D01*
X70495495Y-72228979D01*
X70354843Y-72173513D01*
X70266454Y-72162900D01*
X70248400Y-72162900D01*
X70248400Y-72550400D01*
X69248400Y-72550400D01*
X69248400Y-72162900D01*
X69230346Y-72162900D01*
X69141956Y-72173513D01*
X69001304Y-72228979D01*
X68880835Y-72320335D01*
X68789478Y-72440805D01*
X68746261Y-72550400D01*
X67255208Y-72550400D01*
X67330955Y-72500912D01*
X67330955Y-72500911D01*
X67330964Y-72500906D01*
X67690008Y-72221450D01*
X67690009Y-72221448D01*
X67690018Y-72221442D01*
X68024775Y-71913276D01*
X68332941Y-71578518D01*
X68350602Y-71555828D01*
X68508878Y-71352475D01*
X68565588Y-71311662D01*
X68635361Y-71307987D01*
X68696044Y-71342619D01*
X68728371Y-71404560D01*
X68729846Y-71413852D01*
X68733521Y-71444458D01*
X68733522Y-71444462D01*
X68733523Y-71444464D01*
X68734546Y-71447057D01*
X68789039Y-71585243D01*
X68880477Y-71705822D01*
X69001056Y-71797260D01*
X69001057Y-71797260D01*
X69001058Y-71797261D01*
X69141836Y-71852777D01*
X69230298Y-71863400D01*
X69230303Y-71863400D01*
X70266497Y-71863400D01*
X70266502Y-71863400D01*
X70354964Y-71852777D01*
X70495742Y-71797261D01*
X70616322Y-71705822D01*
X70696598Y-71599961D01*
X70752790Y-71558439D01*
X70822511Y-71553887D01*
X70883626Y-71587751D01*
X70916729Y-71649281D01*
X70918516Y-71660093D01*
X70921692Y-71686539D01*
X70927122Y-71731762D01*
X70982639Y-71872543D01*
X71074077Y-71993122D01*
X71194656Y-72084560D01*
X71194657Y-72084560D01*
X71194658Y-72084561D01*
X71335436Y-72140077D01*
X71423898Y-72150700D01*
X71423903Y-72150700D01*
X72185097Y-72150700D01*
X72185102Y-72150700D01*
X72273564Y-72140077D01*
X72414342Y-72084561D01*
X72534922Y-71993122D01*
X72626361Y-71872542D01*
X72681877Y-71731764D01*
X72692500Y-71643302D01*
X72692500Y-71643253D01*
X72992000Y-71643253D01*
X73002613Y-71731643D01*
X73058079Y-71872295D01*
X73149435Y-71992764D01*
X73269905Y-72084121D01*
X73379499Y-72127338D01*
X73379500Y-72127338D01*
X73379500Y-71625200D01*
X72992000Y-71625200D01*
X72992000Y-71643253D01*
X72692500Y-71643253D01*
X72692500Y-70607146D01*
X72992000Y-70607146D01*
X72992000Y-70625200D01*
X73379500Y-70625200D01*
X74379500Y-70625200D01*
X74767000Y-70625200D01*
X74767000Y-70607146D01*
X74756386Y-70518756D01*
X74700920Y-70378104D01*
X74609564Y-70257635D01*
X74489094Y-70166278D01*
X74379500Y-70123060D01*
X74379500Y-70625200D01*
X73379500Y-70625200D01*
X73379500Y-70123060D01*
X73269905Y-70166278D01*
X73149435Y-70257635D01*
X73058079Y-70378104D01*
X73002613Y-70518756D01*
X72992000Y-70607146D01*
X72692500Y-70607146D01*
X72692500Y-70607098D01*
X72681877Y-70518636D01*
X72626361Y-70377858D01*
X72626360Y-70377857D01*
X72626360Y-70377856D01*
X72534922Y-70257277D01*
X72414343Y-70165839D01*
X72318192Y-70127922D01*
X72273564Y-70110323D01*
X72273563Y-70110322D01*
X72273561Y-70110322D01*
X72227926Y-70104842D01*
X72185102Y-70099700D01*
X71423898Y-70099700D01*
X71384853Y-70104388D01*
X71335438Y-70110322D01*
X71194656Y-70165839D01*
X71074077Y-70257277D01*
X70982638Y-70377858D01*
X70962979Y-70427710D01*
X70920073Y-70482853D01*
X70854165Y-70506046D01*
X70786181Y-70489925D01*
X70737704Y-70439608D01*
X70732272Y-70427714D01*
X70707761Y-70365558D01*
X70707760Y-70365557D01*
X70707760Y-70365556D01*
X70616322Y-70244977D01*
X70495743Y-70153539D01*
X70362784Y-70101107D01*
X70354964Y-70098023D01*
X70354963Y-70098022D01*
X70354961Y-70098022D01*
X70309326Y-70092542D01*
X70266502Y-70087400D01*
X70266497Y-70087400D01*
X69411724Y-70087400D01*
X69344685Y-70067715D01*
X69298930Y-70014911D01*
X69288986Y-69945753D01*
X69294443Y-69923137D01*
X69310483Y-69876414D01*
X69408348Y-69591346D01*
X69520045Y-69150265D01*
X69590343Y-68729001D01*
X70667189Y-68729001D01*
X70720960Y-68836990D01*
X70849401Y-69007072D01*
X71006901Y-69150652D01*
X71006903Y-69150654D01*
X71188103Y-69262848D01*
X71188105Y-69262849D01*
X71202901Y-69268580D01*
X71202901Y-69268579D01*
X72202901Y-69268579D01*
X72217696Y-69262849D01*
X72217698Y-69262848D01*
X72398898Y-69150654D01*
X72398900Y-69150652D01*
X72556400Y-69007072D01*
X72684841Y-68836990D01*
X72738613Y-68729001D01*
X73207189Y-68729001D01*
X73260960Y-68836990D01*
X73389401Y-69007072D01*
X73546901Y-69150652D01*
X73546903Y-69150654D01*
X73728103Y-69262848D01*
X73728105Y-69262849D01*
X73742901Y-69268580D01*
X73742901Y-69268579D01*
X74742901Y-69268579D01*
X74757696Y-69262849D01*
X74757698Y-69262848D01*
X74938898Y-69150654D01*
X74938900Y-69150652D01*
X75096400Y-69007072D01*
X75224841Y-68836990D01*
X75278613Y-68729001D01*
X74742901Y-68729001D01*
X74742901Y-69268579D01*
X73742901Y-69268579D01*
X73742901Y-68729001D01*
X73207189Y-68729001D01*
X72738613Y-68729001D01*
X72202901Y-68729001D01*
X72202901Y-69268579D01*
X71202901Y-69268579D01*
X71202901Y-68729001D01*
X70667189Y-68729001D01*
X69590343Y-68729001D01*
X69594938Y-68701467D01*
X69632513Y-68248016D01*
X69632513Y-68020514D01*
X69632513Y-67954622D01*
X69632513Y-65689001D01*
X70547472Y-65689001D01*
X70567145Y-65901311D01*
X70625495Y-66106388D01*
X70625497Y-66106393D01*
X70625497Y-66106395D01*
X70720533Y-66297254D01*
X70848775Y-66467072D01*
X70849029Y-66467408D01*
X71006599Y-66611053D01*
X71187882Y-66723299D01*
X71386703Y-66800322D01*
X71584874Y-66837366D01*
X71647154Y-66869034D01*
X71682427Y-66929347D01*
X71679493Y-66999155D01*
X71639284Y-67056295D01*
X71584873Y-67081144D01*
X71386842Y-67118163D01*
X71386837Y-67118164D01*
X71188111Y-67195150D01*
X71188102Y-67195154D01*
X71006903Y-67307347D01*
X71006901Y-67307349D01*
X70849401Y-67450929D01*
X70720960Y-67621011D01*
X70667188Y-67729000D01*
X70667189Y-67729001D01*
X71637075Y-67729001D01*
X71509908Y-67763076D01*
X71395894Y-67828902D01*
X71302802Y-67921994D01*
X71236976Y-68036008D01*
X71202901Y-68163175D01*
X71202901Y-68294827D01*
X71236976Y-68421994D01*
X71302802Y-68536008D01*
X71395894Y-68629100D01*
X71509908Y-68694926D01*
X71637075Y-68729001D01*
X71768727Y-68729001D01*
X71895894Y-68694926D01*
X72009908Y-68629100D01*
X72103000Y-68536008D01*
X72168826Y-68421994D01*
X72202901Y-68294827D01*
X72202901Y-68163175D01*
X72168826Y-68036008D01*
X72103000Y-67921994D01*
X72009908Y-67828902D01*
X71895894Y-67763076D01*
X71768727Y-67729001D01*
X72738613Y-67729001D01*
X72738613Y-67729000D01*
X73207188Y-67729000D01*
X73207189Y-67729001D01*
X74177075Y-67729001D01*
X74049908Y-67763076D01*
X73935894Y-67828902D01*
X73842802Y-67921994D01*
X73776976Y-68036008D01*
X73742901Y-68163175D01*
X73742901Y-68294827D01*
X73776976Y-68421994D01*
X73842802Y-68536008D01*
X73935894Y-68629100D01*
X74049908Y-68694926D01*
X74177075Y-68729001D01*
X74308727Y-68729001D01*
X74435894Y-68694926D01*
X74549908Y-68629100D01*
X74643000Y-68536008D01*
X74708826Y-68421994D01*
X74742901Y-68294827D01*
X74742901Y-68163175D01*
X74708826Y-68036008D01*
X74643000Y-67921994D01*
X74549908Y-67828902D01*
X74435894Y-67763076D01*
X74308727Y-67729001D01*
X75278613Y-67729001D01*
X75278613Y-67729000D01*
X75224841Y-67621011D01*
X75096400Y-67450929D01*
X74938900Y-67307349D01*
X74938898Y-67307347D01*
X74757699Y-67195154D01*
X74757690Y-67195150D01*
X74558964Y-67118164D01*
X74558959Y-67118163D01*
X74359567Y-67080890D01*
X74297286Y-67049222D01*
X74262013Y-66988909D01*
X74264947Y-66919101D01*
X74305156Y-66861961D01*
X74359567Y-66837112D01*
X74558959Y-66799838D01*
X74558964Y-66799837D01*
X74757690Y-66722851D01*
X74757699Y-66722847D01*
X74938898Y-66610654D01*
X74938900Y-66610652D01*
X75096400Y-66467072D01*
X75224841Y-66296990D01*
X75278613Y-66189001D01*
X74308727Y-66189001D01*
X74435894Y-66154926D01*
X74549908Y-66089100D01*
X74643000Y-65996008D01*
X74708826Y-65881994D01*
X74742901Y-65754827D01*
X74742901Y-65689001D01*
X75627472Y-65689001D01*
X75647145Y-65901311D01*
X75705495Y-66106388D01*
X75705497Y-66106393D01*
X75705497Y-66106395D01*
X75800533Y-66297254D01*
X75928775Y-66467072D01*
X75929029Y-66467408D01*
X76086599Y-66611053D01*
X76267882Y-66723299D01*
X76466703Y-66800322D01*
X76663514Y-66837112D01*
X76725794Y-66868780D01*
X76761067Y-66929093D01*
X76758133Y-66998901D01*
X76717924Y-67056041D01*
X76663514Y-67080889D01*
X76466703Y-67117680D01*
X76466700Y-67117680D01*
X76466700Y-67117681D01*
X76267883Y-67194702D01*
X76267881Y-67194703D01*
X76086600Y-67306948D01*
X75929028Y-67450594D01*
X75800533Y-67620747D01*
X75705497Y-67811606D01*
X75705497Y-67811608D01*
X75647145Y-68016690D01*
X75633572Y-68163175D01*
X75627472Y-68229001D01*
X75647145Y-68441311D01*
X75700576Y-68629100D01*
X75705497Y-68646393D01*
X75705497Y-68646395D01*
X75800533Y-68837254D01*
X75929028Y-69007407D01*
X75929029Y-69007408D01*
X76086599Y-69151053D01*
X76267882Y-69263299D01*
X76466703Y-69340322D01*
X76676291Y-69379501D01*
X76676293Y-69379501D01*
X76889509Y-69379501D01*
X76889511Y-69379501D01*
X77099099Y-69340322D01*
X77297920Y-69263299D01*
X77479203Y-69151053D01*
X77636773Y-69007408D01*
X77765267Y-68837256D01*
X77819171Y-68729001D01*
X78287189Y-68729001D01*
X78340960Y-68836990D01*
X78469401Y-69007072D01*
X78626901Y-69150652D01*
X78626903Y-69150654D01*
X78808103Y-69262848D01*
X78808105Y-69262849D01*
X78822901Y-69268580D01*
X78822901Y-68729001D01*
X78287189Y-68729001D01*
X77819171Y-68729001D01*
X77819900Y-68727537D01*
X77860304Y-68646395D01*
X77860304Y-68646394D01*
X77860306Y-68646390D01*
X77918657Y-68441311D01*
X77938330Y-68229001D01*
X77918657Y-68016691D01*
X77860306Y-67811612D01*
X77860304Y-67811607D01*
X77860304Y-67811606D01*
X77765268Y-67620747D01*
X77636773Y-67450594D01*
X77618431Y-67433873D01*
X77479203Y-67306949D01*
X77297920Y-67194703D01*
X77297918Y-67194702D01*
X77146484Y-67136037D01*
X77099099Y-67117680D01*
X76902286Y-67080889D01*
X76840007Y-67049222D01*
X76804734Y-66988909D01*
X76807668Y-66919101D01*
X76847877Y-66861961D01*
X76902285Y-66837112D01*
X77099099Y-66800322D01*
X77297920Y-66723299D01*
X77479203Y-66611053D01*
X77636773Y-66467408D01*
X77765267Y-66297256D01*
X77765399Y-66296990D01*
X77860304Y-66106395D01*
X77860304Y-66106394D01*
X77860306Y-66106390D01*
X77918657Y-65901311D01*
X77929430Y-65785048D01*
X77955216Y-65720112D01*
X77999770Y-65688195D01*
X77963398Y-65667332D01*
X77931208Y-65605319D01*
X77929430Y-65592952D01*
X77928110Y-65578704D01*
X77918657Y-65476691D01*
X77860306Y-65271612D01*
X77860304Y-65271607D01*
X77860304Y-65271606D01*
X77765268Y-65080747D01*
X77636773Y-64910594D01*
X77635254Y-64909209D01*
X77479203Y-64766949D01*
X77297920Y-64654703D01*
X77297918Y-64654702D01*
X77198509Y-64616191D01*
X77099099Y-64577680D01*
X76889511Y-64538501D01*
X76676291Y-64538501D01*
X76466703Y-64577680D01*
X76466700Y-64577680D01*
X76466700Y-64577681D01*
X76267883Y-64654702D01*
X76267881Y-64654703D01*
X76086600Y-64766948D01*
X75929028Y-64910594D01*
X75800533Y-65080747D01*
X75705497Y-65271606D01*
X75705497Y-65271608D01*
X75647145Y-65476690D01*
X75633572Y-65623175D01*
X75627472Y-65689001D01*
X74742901Y-65689001D01*
X74742901Y-65623175D01*
X74708826Y-65496008D01*
X74643000Y-65381994D01*
X74549908Y-65288902D01*
X74435894Y-65223076D01*
X74308727Y-65189001D01*
X74742901Y-65189001D01*
X75278613Y-65189001D01*
X75278613Y-65189000D01*
X75224841Y-65081011D01*
X75096400Y-64910929D01*
X74938900Y-64767349D01*
X74938898Y-64767347D01*
X74757702Y-64655156D01*
X74757694Y-64655152D01*
X74742901Y-64649420D01*
X74742901Y-65189001D01*
X74308727Y-65189001D01*
X74177075Y-65189001D01*
X74049908Y-65223076D01*
X73935894Y-65288902D01*
X73842802Y-65381994D01*
X73776976Y-65496008D01*
X73742901Y-65623175D01*
X73742901Y-65754827D01*
X73776976Y-65881994D01*
X73842802Y-65996008D01*
X73935894Y-66089100D01*
X74049908Y-66154926D01*
X74177075Y-66189001D01*
X73207189Y-66189001D01*
X73260960Y-66296990D01*
X73389401Y-66467072D01*
X73546901Y-66610652D01*
X73546903Y-66610654D01*
X73728102Y-66722847D01*
X73728111Y-66722851D01*
X73926837Y-66799837D01*
X73926842Y-66799838D01*
X74126234Y-66837112D01*
X74188515Y-66868780D01*
X74223788Y-66929093D01*
X74220854Y-66998901D01*
X74180645Y-67056041D01*
X74126234Y-67080890D01*
X73926842Y-67118163D01*
X73926837Y-67118164D01*
X73728111Y-67195150D01*
X73728102Y-67195154D01*
X73546903Y-67307347D01*
X73546901Y-67307349D01*
X73389401Y-67450929D01*
X73260960Y-67621011D01*
X73207188Y-67729000D01*
X72738613Y-67729000D01*
X72684841Y-67621011D01*
X72556400Y-67450929D01*
X72398900Y-67307349D01*
X72398898Y-67307347D01*
X72217699Y-67195154D01*
X72217690Y-67195150D01*
X72018964Y-67118164D01*
X72018959Y-67118163D01*
X71820928Y-67081144D01*
X71758647Y-67049476D01*
X71723374Y-66989163D01*
X71726308Y-66919355D01*
X71766517Y-66862215D01*
X71820925Y-66837367D01*
X72019099Y-66800322D01*
X72217920Y-66723299D01*
X72399203Y-66611053D01*
X72556773Y-66467408D01*
X72685267Y-66297256D01*
X72685399Y-66296990D01*
X72780304Y-66106395D01*
X72780304Y-66106394D01*
X72780306Y-66106390D01*
X72838657Y-65901311D01*
X72858330Y-65689001D01*
X72838657Y-65476691D01*
X72780306Y-65271612D01*
X72780304Y-65271607D01*
X72780304Y-65271606D01*
X72739171Y-65189000D01*
X73207188Y-65189000D01*
X73207189Y-65189001D01*
X73742901Y-65189001D01*
X73742901Y-64649421D01*
X73742900Y-64649420D01*
X73728107Y-64655152D01*
X73728099Y-64655156D01*
X73546903Y-64767347D01*
X73546901Y-64767349D01*
X73389401Y-64910929D01*
X73260960Y-65081011D01*
X73207188Y-65189000D01*
X72739171Y-65189000D01*
X72685268Y-65080747D01*
X72556773Y-64910594D01*
X72555254Y-64909209D01*
X72399203Y-64766949D01*
X72217920Y-64654703D01*
X72217918Y-64654702D01*
X72118509Y-64616191D01*
X72019099Y-64577680D01*
X71809511Y-64538501D01*
X71596291Y-64538501D01*
X71386703Y-64577680D01*
X71386700Y-64577680D01*
X71386700Y-64577681D01*
X71187883Y-64654702D01*
X71187881Y-64654703D01*
X71006600Y-64766948D01*
X70849028Y-64910594D01*
X70720533Y-65080747D01*
X70625497Y-65271606D01*
X70625497Y-65271608D01*
X70567145Y-65476690D01*
X70553572Y-65623175D01*
X70547472Y-65689001D01*
X69632513Y-65689001D01*
X69632513Y-65188506D01*
X69632514Y-65188503D01*
X69632513Y-65127036D01*
X69632829Y-65118191D01*
X69647141Y-64918055D01*
X69647142Y-64918053D01*
X69647141Y-64918048D01*
X69649657Y-64900549D01*
X69691367Y-64708811D01*
X69696346Y-64691853D01*
X69764919Y-64507999D01*
X69772268Y-64491909D01*
X69866304Y-64319693D01*
X69875860Y-64304824D01*
X69993453Y-64147738D01*
X70005029Y-64134380D01*
X70143781Y-63995627D01*
X70157138Y-63984053D01*
X70314224Y-63866460D01*
X70329093Y-63856904D01*
X70501314Y-63762865D01*
X70517399Y-63755519D01*
X70701253Y-63686946D01*
X70718211Y-63681967D01*
X70909949Y-63640257D01*
X70927448Y-63637741D01*
X71127593Y-63623428D01*
X71136436Y-63623113D01*
X71197903Y-63623114D01*
X71197907Y-63623113D01*
X85827619Y-63623113D01*
X85889082Y-63623113D01*
X85897928Y-63623428D01*
G37*
%TD.AperFunction*%
%TA.AperFunction,Conductor*%
G36*
X63774839Y-93110485D02*
G01*
X63820594Y-93163289D01*
X63831800Y-93214800D01*
X63831800Y-93387246D01*
X63823414Y-93378860D01*
X63731528Y-93340800D01*
X62932072Y-93340800D01*
X62840186Y-93378860D01*
X62831800Y-93387246D01*
X62831800Y-93214800D01*
X62851485Y-93147761D01*
X62904289Y-93102006D01*
X62955800Y-93090800D01*
X63707800Y-93090800D01*
X63774839Y-93110485D01*
G37*
%TD.AperFunction*%
%TA.AperFunction,Conductor*%
G36*
X71695190Y-84872285D02*
G01*
X71740945Y-84925089D01*
X71752151Y-84976600D01*
X71752151Y-85062736D01*
X71757826Y-85101687D01*
X71762785Y-85135725D01*
X71768611Y-85147642D01*
X71780368Y-85216516D01*
X71768611Y-85256556D01*
X71762785Y-85268475D01*
X71752151Y-85341464D01*
X71752151Y-85562736D01*
X71757414Y-85598859D01*
X71762785Y-85635725D01*
X71768611Y-85647642D01*
X71780368Y-85716516D01*
X71768611Y-85756558D01*
X71764507Y-85764953D01*
X71762785Y-85768475D01*
X71752151Y-85841464D01*
X71752151Y-86062736D01*
X71762785Y-86135725D01*
X71768611Y-86147642D01*
X71780368Y-86216516D01*
X71768611Y-86256556D01*
X71762785Y-86268475D01*
X71752151Y-86341464D01*
X71752151Y-86341469D01*
X71752151Y-86431379D01*
X71732466Y-86498418D01*
X71679662Y-86544173D01*
X71610504Y-86554117D01*
X71554517Y-86531149D01*
X71467320Y-86466794D01*
X71369400Y-86432530D01*
X71369400Y-87156200D01*
X71349715Y-87223239D01*
X71296911Y-87268994D01*
X71245400Y-87280200D01*
X70502228Y-87280200D01*
X70525994Y-87348120D01*
X70525995Y-87348122D01*
X70568819Y-87406145D01*
X70592790Y-87471773D01*
X70577475Y-87539944D01*
X70568819Y-87553413D01*
X70525547Y-87612044D01*
X70481691Y-87737373D01*
X70481689Y-87737385D01*
X70478900Y-87767129D01*
X70478900Y-88153270D01*
X70481689Y-88183014D01*
X70481691Y-88183026D01*
X70518945Y-88289488D01*
X70525548Y-88308357D01*
X70604401Y-88415199D01*
X70711243Y-88494052D01*
X70749403Y-88507404D01*
X70836573Y-88537908D01*
X70836577Y-88537908D01*
X70836581Y-88537910D01*
X70851457Y-88539305D01*
X70866330Y-88540700D01*
X70866334Y-88540700D01*
X71312470Y-88540700D01*
X71325689Y-88539460D01*
X71342219Y-88537910D01*
X71342223Y-88537908D01*
X71342226Y-88537908D01*
X71391236Y-88520757D01*
X71467557Y-88494052D01*
X71574399Y-88415199D01*
X71583427Y-88402965D01*
X71639075Y-88360715D01*
X71683197Y-88352600D01*
X71909814Y-88352600D01*
X71964275Y-88365200D01*
X72019023Y-88391965D01*
X72019024Y-88391965D01*
X72019026Y-88391966D01*
X72092015Y-88402600D01*
X72092021Y-88402600D01*
X73370868Y-88402600D01*
X73437907Y-88422285D01*
X73483662Y-88475089D01*
X73493606Y-88544247D01*
X73478255Y-88588601D01*
X73456195Y-88626808D01*
X73456194Y-88626810D01*
X73456194Y-88626811D01*
X73447658Y-88658671D01*
X73442133Y-88679290D01*
X73428901Y-88728672D01*
X73428901Y-88775000D01*
X73409216Y-88842039D01*
X73356412Y-88887794D01*
X73304901Y-88899000D01*
X73284670Y-88899000D01*
X73217631Y-88879315D01*
X73184901Y-88848635D01*
X73181850Y-88844501D01*
X73168689Y-88834788D01*
X73075008Y-88765648D01*
X73075006Y-88765647D01*
X72949677Y-88721791D01*
X72949665Y-88721789D01*
X72919921Y-88719000D01*
X72919917Y-88719000D01*
X72473785Y-88719000D01*
X72473781Y-88719000D01*
X72444036Y-88721789D01*
X72444024Y-88721791D01*
X72318695Y-88765647D01*
X72211852Y-88844501D01*
X72132998Y-88951344D01*
X72089142Y-89076673D01*
X72089140Y-89076685D01*
X72086351Y-89106429D01*
X72086351Y-89492570D01*
X72089140Y-89522314D01*
X72089142Y-89522326D01*
X72132998Y-89647655D01*
X72132999Y-89647657D01*
X72159184Y-89683136D01*
X72176270Y-89706287D01*
X72200241Y-89771916D01*
X72184925Y-89840087D01*
X72176270Y-89853555D01*
X72133446Y-89911577D01*
X72133445Y-89911579D01*
X72109679Y-89979499D01*
X72109679Y-89979500D01*
X72852851Y-89979500D01*
X72919890Y-89999185D01*
X72965645Y-90051989D01*
X72976851Y-90103500D01*
X72976851Y-90827167D01*
X73074057Y-90793154D01*
X73143835Y-90789591D01*
X73204463Y-90824320D01*
X73236691Y-90886313D01*
X73237951Y-90894009D01*
X73247556Y-90966960D01*
X73247556Y-90966962D01*
X73263767Y-91006100D01*
X73308064Y-91113041D01*
X73404318Y-91238482D01*
X73457807Y-91279525D01*
X73499008Y-91335952D01*
X73503163Y-91405698D01*
X73468950Y-91466619D01*
X73407233Y-91499371D01*
X73382319Y-91501900D01*
X70773255Y-91501900D01*
X70706216Y-91482215D01*
X70685574Y-91465581D01*
X70226094Y-91006100D01*
X70226071Y-91006079D01*
X69759492Y-90539500D01*
X72109679Y-90539500D01*
X72133445Y-90607420D01*
X72133446Y-90607422D01*
X72212209Y-90714141D01*
X72318928Y-90792903D01*
X72416851Y-90827168D01*
X72416851Y-90539500D01*
X72109679Y-90539500D01*
X69759492Y-90539500D01*
X67797477Y-88577484D01*
X67763992Y-88516161D01*
X67768976Y-88446469D01*
X67810848Y-88390536D01*
X67873580Y-88366345D01*
X67891019Y-88364710D01*
X67891023Y-88364708D01*
X67891026Y-88364708D01*
X67949718Y-88344170D01*
X68016357Y-88320852D01*
X68074989Y-88277578D01*
X68140615Y-88253609D01*
X68208786Y-88268924D01*
X68222256Y-88277581D01*
X68280279Y-88320405D01*
X68348199Y-88344170D01*
X68348200Y-88344170D01*
X68908200Y-88344170D01*
X68976120Y-88320405D01*
X69082841Y-88241641D01*
X69161603Y-88134922D01*
X69195868Y-88037000D01*
X68908200Y-88037000D01*
X68908200Y-88344170D01*
X68348200Y-88344170D01*
X68348200Y-87374292D01*
X68908200Y-87374292D01*
X68908200Y-87477000D01*
X69195868Y-87477000D01*
X69161603Y-87379077D01*
X69130619Y-87337095D01*
X69106648Y-87271466D01*
X69121963Y-87203296D01*
X69130620Y-87189826D01*
X69164203Y-87144323D01*
X69198468Y-87046400D01*
X68910800Y-87046400D01*
X68910800Y-87365438D01*
X68908200Y-87374292D01*
X68348200Y-87374292D01*
X68348200Y-87157962D01*
X68350800Y-87149107D01*
X68350800Y-86720199D01*
X70502228Y-86720199D01*
X70502228Y-86720200D01*
X70809400Y-86720200D01*
X70809400Y-86432530D01*
X70809399Y-86432530D01*
X70711479Y-86466794D01*
X70604758Y-86545558D01*
X70525995Y-86652277D01*
X70525994Y-86652279D01*
X70502228Y-86720199D01*
X68350800Y-86720199D01*
X68350800Y-86486400D01*
X68910800Y-86486400D01*
X69198468Y-86486400D01*
X69164203Y-86388477D01*
X69085441Y-86281758D01*
X68978722Y-86202995D01*
X68978720Y-86202994D01*
X68910800Y-86179228D01*
X68910800Y-86486400D01*
X68350800Y-86486400D01*
X68350800Y-86179228D01*
X68350799Y-86179228D01*
X68282879Y-86202994D01*
X68282874Y-86202997D01*
X68268932Y-86213287D01*
X68203303Y-86237257D01*
X68135133Y-86221941D01*
X68086065Y-86172200D01*
X68071300Y-86113516D01*
X68071300Y-86083875D01*
X68071300Y-86083873D01*
X68044007Y-85982013D01*
X67991280Y-85890687D01*
X67926869Y-85826276D01*
X67893384Y-85764953D01*
X67890550Y-85738595D01*
X67890550Y-85279699D01*
X67910235Y-85212660D01*
X67963039Y-85166905D01*
X68014550Y-85155699D01*
X68607407Y-85155699D01*
X68607415Y-85155699D01*
X68607430Y-85155697D01*
X68607433Y-85155697D01*
X68632536Y-85152786D01*
X68632537Y-85152785D01*
X68632542Y-85152785D01*
X68655621Y-85142594D01*
X68663163Y-85139265D01*
X68713247Y-85128700D01*
X69850476Y-85128700D01*
X69850478Y-85128700D01*
X69952339Y-85101407D01*
X70043664Y-85048680D01*
X70203425Y-84888919D01*
X70264748Y-84855434D01*
X70291106Y-84852600D01*
X71628151Y-84852600D01*
X71695190Y-84872285D01*
G37*
%TD.AperFunction*%
%TA.AperFunction,Conductor*%
G36*
X62210439Y-84839685D02*
G01*
X62256194Y-84892489D01*
X62267400Y-84944000D01*
X62267400Y-85688621D01*
X62337960Y-85663932D01*
X62433343Y-85593535D01*
X62498971Y-85569563D01*
X62567142Y-85584878D01*
X62580612Y-85593534D01*
X62674546Y-85662861D01*
X62716797Y-85718509D01*
X62722255Y-85788165D01*
X62689187Y-85849714D01*
X62674547Y-85862401D01*
X62588157Y-85926160D01*
X62509396Y-86032877D01*
X62475132Y-86130800D01*
X63198800Y-86130800D01*
X63265839Y-86150485D01*
X63311594Y-86203289D01*
X63322800Y-86254800D01*
X63322800Y-86997970D01*
X63390720Y-86974205D01*
X63448743Y-86931381D01*
X63514371Y-86907409D01*
X63582542Y-86922723D01*
X63596008Y-86931377D01*
X63654643Y-86974652D01*
X63684376Y-86985056D01*
X63779973Y-87018508D01*
X63779977Y-87018508D01*
X63779981Y-87018510D01*
X63794857Y-87019905D01*
X63809730Y-87021300D01*
X63809734Y-87021300D01*
X64195870Y-87021300D01*
X64209089Y-87020060D01*
X64225619Y-87018510D01*
X64279889Y-86999519D01*
X64349665Y-86995957D01*
X64410293Y-87030685D01*
X64419219Y-87041075D01*
X64455866Y-87088836D01*
X64459969Y-87094182D01*
X64585410Y-87190436D01*
X64731489Y-87250944D01*
X64774132Y-87256558D01*
X64888250Y-87271582D01*
X64888251Y-87271582D01*
X64888252Y-87271582D01*
X64956028Y-87262659D01*
X65045013Y-87250944D01*
X65190785Y-87190562D01*
X65260253Y-87183094D01*
X65322733Y-87214369D01*
X65358385Y-87274458D01*
X65355891Y-87344283D01*
X65350256Y-87357474D01*
X65305291Y-87485973D01*
X65305289Y-87485985D01*
X65302500Y-87515729D01*
X65302500Y-87901870D01*
X65305289Y-87931614D01*
X65305291Y-87931626D01*
X65344299Y-88043100D01*
X65349148Y-88056957D01*
X65385667Y-88106438D01*
X65392419Y-88115587D01*
X65416390Y-88181216D01*
X65401074Y-88249387D01*
X65392419Y-88262855D01*
X65349595Y-88320877D01*
X65349594Y-88320879D01*
X65325828Y-88388799D01*
X65325828Y-88388800D01*
X66475825Y-88388800D01*
X66542864Y-88408485D01*
X66585196Y-88457338D01*
X66585781Y-88457001D01*
X66587533Y-88460036D01*
X66588619Y-88461289D01*
X66589730Y-88463841D01*
X66589845Y-88464040D01*
X66642572Y-88555365D01*
X66642574Y-88555367D01*
X67472826Y-89385619D01*
X67506311Y-89446942D01*
X67501327Y-89516634D01*
X67459455Y-89572567D01*
X67393991Y-89596984D01*
X67385145Y-89597300D01*
X64240364Y-89597300D01*
X64173325Y-89577615D01*
X64127570Y-89524811D01*
X64117626Y-89455653D01*
X64146651Y-89392097D01*
X64192910Y-89358739D01*
X64276692Y-89324036D01*
X64402133Y-89227782D01*
X64498387Y-89102341D01*
X64558895Y-88956262D01*
X64559877Y-88948800D01*
X65325828Y-88948800D01*
X65349594Y-89016720D01*
X65349595Y-89016722D01*
X65428358Y-89123441D01*
X65535077Y-89202203D01*
X65633000Y-89236468D01*
X65633000Y-89236467D01*
X66193000Y-89236467D01*
X66290922Y-89202203D01*
X66397641Y-89123441D01*
X66476404Y-89016722D01*
X66476405Y-89016720D01*
X66500171Y-88948800D01*
X66193000Y-88948800D01*
X66193000Y-89236467D01*
X65633000Y-89236467D01*
X65633000Y-88948800D01*
X65325828Y-88948800D01*
X64559877Y-88948800D01*
X64577793Y-88812719D01*
X64579533Y-88799501D01*
X64579533Y-88799498D01*
X64560993Y-88658671D01*
X64558895Y-88642738D01*
X64498387Y-88496659D01*
X64402133Y-88371218D01*
X64276692Y-88274964D01*
X64262110Y-88268924D01*
X64130613Y-88214456D01*
X64130611Y-88214455D01*
X63973852Y-88193818D01*
X63973850Y-88193818D01*
X63817090Y-88214455D01*
X63817088Y-88214456D01*
X63671011Y-88274963D01*
X63667599Y-88277581D01*
X63545569Y-88371218D01*
X63545568Y-88371219D01*
X63545567Y-88371220D01*
X63507516Y-88420809D01*
X63451088Y-88462011D01*
X63381342Y-88466166D01*
X63320422Y-88431953D01*
X63310769Y-88420814D01*
X63233733Y-88320418D01*
X63108292Y-88224164D01*
X63084852Y-88214455D01*
X62962213Y-88163656D01*
X62962211Y-88163655D01*
X62805452Y-88143018D01*
X62805450Y-88143018D01*
X62648690Y-88163655D01*
X62648688Y-88163656D01*
X62502611Y-88224163D01*
X62479833Y-88241641D01*
X62377169Y-88320418D01*
X62377167Y-88320419D01*
X62377162Y-88320424D01*
X62371418Y-88326168D01*
X62370106Y-88324856D01*
X62321996Y-88359988D01*
X62280045Y-88367300D01*
X61401455Y-88367300D01*
X61334416Y-88347615D01*
X61288661Y-88294811D01*
X61278717Y-88225653D01*
X61307742Y-88162097D01*
X61313774Y-88155619D01*
X61419486Y-88049907D01*
X61530480Y-87938913D01*
X61583207Y-87847588D01*
X61610500Y-87745727D01*
X61610500Y-87640273D01*
X61610500Y-86690800D01*
X62475132Y-86690800D01*
X62509396Y-86788722D01*
X62588158Y-86895441D01*
X62694880Y-86974205D01*
X62694879Y-86974205D01*
X62762799Y-86997970D01*
X62762800Y-86997970D01*
X62762800Y-86690800D01*
X62475132Y-86690800D01*
X61610500Y-86690800D01*
X61610500Y-85822479D01*
X61630185Y-85755440D01*
X61682989Y-85709685D01*
X61701458Y-85707029D01*
X61727400Y-85688622D01*
X61727400Y-84944000D01*
X61747085Y-84876961D01*
X61799889Y-84831206D01*
X61851400Y-84820000D01*
X62143400Y-84820000D01*
X62210439Y-84839685D01*
G37*
%TD.AperFunction*%
%TA.AperFunction,Conductor*%
G36*
X76858354Y-79439286D02*
G01*
X76864832Y-79445318D01*
X76866332Y-79446818D01*
X76899817Y-79508141D01*
X76902651Y-79534499D01*
X76902651Y-79596357D01*
X76936130Y-79591480D01*
X76947613Y-79585866D01*
X77016486Y-79574102D01*
X77056542Y-79585863D01*
X77069023Y-79591965D01*
X77069024Y-79591965D01*
X77069026Y-79591966D01*
X77142015Y-79602600D01*
X77142021Y-79602600D01*
X77363281Y-79602600D01*
X77363287Y-79602600D01*
X77436276Y-79591966D01*
X77448190Y-79586141D01*
X77517059Y-79574381D01*
X77557109Y-79586140D01*
X77569026Y-79591966D01*
X77642015Y-79602600D01*
X77642021Y-79602600D01*
X77863281Y-79602600D01*
X77863287Y-79602600D01*
X77936276Y-79591966D01*
X77948190Y-79586141D01*
X78017059Y-79574381D01*
X78057109Y-79586140D01*
X78069026Y-79591966D01*
X78142015Y-79602600D01*
X78142021Y-79602600D01*
X78363287Y-79602600D01*
X78395730Y-79597873D01*
X78464907Y-79607686D01*
X78517797Y-79653341D01*
X78537608Y-79720344D01*
X78526403Y-79772087D01*
X78503634Y-79821943D01*
X78483153Y-79964400D01*
X78503634Y-80106856D01*
X78537055Y-80180036D01*
X78563423Y-80237773D01*
X78657672Y-80346543D01*
X78778747Y-80424353D01*
X78778750Y-80424354D01*
X78778749Y-80424354D01*
X78916836Y-80464899D01*
X78916838Y-80464900D01*
X78916839Y-80464900D01*
X79060762Y-80464900D01*
X79060762Y-80464899D01*
X79198853Y-80424353D01*
X79319928Y-80346543D01*
X79414177Y-80237773D01*
X79473965Y-80106857D01*
X79484309Y-80034905D01*
X79513333Y-79971351D01*
X79519368Y-79964869D01*
X79519837Y-79964400D01*
X79553126Y-79931112D01*
X79602562Y-79845486D01*
X79628151Y-79749985D01*
X79628151Y-79726600D01*
X79647836Y-79659561D01*
X79700640Y-79613806D01*
X79752151Y-79602600D01*
X79863281Y-79602600D01*
X79863287Y-79602600D01*
X79936276Y-79591966D01*
X79948190Y-79586141D01*
X80017059Y-79574381D01*
X80057109Y-79586140D01*
X80069026Y-79591966D01*
X80142015Y-79602600D01*
X80142021Y-79602600D01*
X80363281Y-79602600D01*
X80363287Y-79602600D01*
X80436276Y-79591966D01*
X80448190Y-79586141D01*
X80517059Y-79574381D01*
X80557109Y-79586140D01*
X80569026Y-79591966D01*
X80642015Y-79602600D01*
X80642021Y-79602600D01*
X80863281Y-79602600D01*
X80863287Y-79602600D01*
X80936276Y-79591966D01*
X80948190Y-79586141D01*
X81017059Y-79574381D01*
X81057109Y-79586140D01*
X81069026Y-79591966D01*
X81142015Y-79602600D01*
X81142021Y-79602600D01*
X81363281Y-79602600D01*
X81363287Y-79602600D01*
X81436276Y-79591966D01*
X81448190Y-79586141D01*
X81517059Y-79574381D01*
X81557109Y-79586140D01*
X81569026Y-79591966D01*
X81642015Y-79602600D01*
X81642021Y-79602600D01*
X81863287Y-79602600D01*
X81905868Y-79596396D01*
X81975044Y-79606209D01*
X82011426Y-79631419D01*
X83073773Y-80693766D01*
X83107258Y-80755089D01*
X83108797Y-80799323D01*
X83107835Y-80805920D01*
X83132502Y-80860069D01*
X83122494Y-80929218D01*
X83076689Y-80981979D01*
X83009748Y-81001600D01*
X80101142Y-81001600D01*
X80010776Y-81025813D01*
X80010775Y-81025812D01*
X79986567Y-81032299D01*
X79986564Y-81032300D01*
X79883837Y-81091610D01*
X79690029Y-81285418D01*
X79628705Y-81318902D01*
X79618535Y-81320675D01*
X79539689Y-81331056D01*
X79393611Y-81391563D01*
X79268169Y-81487818D01*
X79171914Y-81613260D01*
X79111407Y-81759337D01*
X79111406Y-81759339D01*
X79090769Y-81916098D01*
X79090769Y-81916101D01*
X79099644Y-81983515D01*
X79088878Y-82052550D01*
X79042498Y-82104806D01*
X78976705Y-82123700D01*
X78621983Y-82123700D01*
X78554944Y-82104016D01*
X78462253Y-82044447D01*
X78462251Y-82044446D01*
X78462249Y-82044445D01*
X78462250Y-82044445D01*
X78324163Y-82003900D01*
X78324161Y-82003900D01*
X78180239Y-82003900D01*
X78180236Y-82003900D01*
X78042149Y-82044445D01*
X77921073Y-82122256D01*
X77826823Y-82231026D01*
X77826822Y-82231028D01*
X77767034Y-82361943D01*
X77746553Y-82504400D01*
X77767034Y-82646856D01*
X77822575Y-82768471D01*
X77826823Y-82777773D01*
X77921072Y-82886543D01*
X78042147Y-82964353D01*
X78042150Y-82964354D01*
X78042149Y-82964354D01*
X78180236Y-83004899D01*
X78180238Y-83004900D01*
X78180239Y-83004900D01*
X78324162Y-83004900D01*
X78324162Y-83004899D01*
X78462253Y-82964353D01*
X78571127Y-82894383D01*
X78638166Y-82874700D01*
X80211835Y-82874700D01*
X80211836Y-82874700D01*
X80268741Y-82859452D01*
X80307338Y-82849110D01*
X80392962Y-82799675D01*
X80462875Y-82729762D01*
X80738818Y-82453819D01*
X80800141Y-82420334D01*
X80826499Y-82417500D01*
X81587926Y-82417500D01*
X81654965Y-82437185D01*
X81654966Y-82437185D01*
X81755747Y-82501953D01*
X81755748Y-82501953D01*
X81755749Y-82501954D01*
X81893836Y-82542499D01*
X81893838Y-82542500D01*
X81893839Y-82542500D01*
X82037762Y-82542500D01*
X82037762Y-82542499D01*
X82175853Y-82501953D01*
X82296928Y-82424143D01*
X82391177Y-82315373D01*
X82450965Y-82184457D01*
X82471447Y-82042000D01*
X82471447Y-82041999D01*
X82471447Y-82033132D01*
X82473368Y-82033132D01*
X82481715Y-81975086D01*
X82527471Y-81922283D01*
X82594508Y-81902600D01*
X82978151Y-81902600D01*
X83045190Y-81922285D01*
X83090945Y-81975089D01*
X83102151Y-82026600D01*
X83102151Y-82062736D01*
X83109731Y-82114764D01*
X83112785Y-82135727D01*
X83118888Y-82148210D01*
X83130646Y-82217083D01*
X83118888Y-82257128D01*
X83113270Y-82268618D01*
X83113270Y-82268619D01*
X83108392Y-82302099D01*
X83108393Y-82302100D01*
X83170251Y-82302100D01*
X83237290Y-82321785D01*
X83253282Y-82334671D01*
X83256439Y-82336925D01*
X83256440Y-82336926D01*
X83259273Y-82338311D01*
X83264159Y-82340700D01*
X83315741Y-82387828D01*
X83333655Y-82455362D01*
X83312214Y-82521861D01*
X83264159Y-82563500D01*
X83256439Y-82567274D01*
X83248076Y-82573245D01*
X83247006Y-82571746D01*
X83196609Y-82599266D01*
X83170251Y-82602100D01*
X83108393Y-82602100D01*
X83113270Y-82635580D01*
X83118887Y-82647069D01*
X83130647Y-82715942D01*
X83118890Y-82755985D01*
X83112786Y-82768471D01*
X83112785Y-82768474D01*
X83112785Y-82768475D01*
X83102151Y-82841464D01*
X83102151Y-83062736D01*
X83108555Y-83106688D01*
X83112785Y-83135725D01*
X83118611Y-83147642D01*
X83130368Y-83216516D01*
X83118611Y-83256556D01*
X83112785Y-83268475D01*
X83102151Y-83341464D01*
X83102151Y-83562736D01*
X83110987Y-83623384D01*
X83112785Y-83635725D01*
X83118611Y-83647642D01*
X83130368Y-83716516D01*
X83118611Y-83756556D01*
X83112785Y-83768475D01*
X83102151Y-83841464D01*
X83102151Y-84062736D01*
X83112785Y-84135725D01*
X83118611Y-84147642D01*
X83130368Y-84216516D01*
X83118611Y-84256556D01*
X83112785Y-84268475D01*
X83102151Y-84341464D01*
X83102151Y-84562736D01*
X83109719Y-84614680D01*
X83112785Y-84635725D01*
X83118611Y-84647642D01*
X83130368Y-84716516D01*
X83118611Y-84756558D01*
X83113414Y-84767189D01*
X83112785Y-84768475D01*
X83102151Y-84841464D01*
X83102151Y-85062736D01*
X83107826Y-85101687D01*
X83112785Y-85135725D01*
X83118611Y-85147642D01*
X83130368Y-85216516D01*
X83118611Y-85256556D01*
X83112785Y-85268475D01*
X83102151Y-85341464D01*
X83102151Y-85562736D01*
X83107414Y-85598859D01*
X83112785Y-85635725D01*
X83118611Y-85647642D01*
X83130368Y-85716516D01*
X83118611Y-85756558D01*
X83114507Y-85764953D01*
X83112785Y-85768475D01*
X83102151Y-85841464D01*
X83102151Y-86062736D01*
X83112785Y-86135725D01*
X83118611Y-86147642D01*
X83130368Y-86216516D01*
X83118611Y-86256556D01*
X83112785Y-86268475D01*
X83102151Y-86341464D01*
X83102151Y-86562736D01*
X83112785Y-86635725D01*
X83116341Y-86643000D01*
X83118611Y-86647642D01*
X83130368Y-86716516D01*
X83118611Y-86756556D01*
X83112785Y-86768475D01*
X83102151Y-86841464D01*
X83102151Y-87062736D01*
X83112785Y-87135725D01*
X83116406Y-87143133D01*
X83118611Y-87147642D01*
X83130368Y-87216516D01*
X83118611Y-87256556D01*
X83112785Y-87268475D01*
X83102151Y-87341464D01*
X83102151Y-87341469D01*
X83102151Y-87452600D01*
X83082466Y-87519639D01*
X83029662Y-87565394D01*
X82978151Y-87576600D01*
X82963929Y-87576600D01*
X82896890Y-87556915D01*
X82876248Y-87540281D01*
X82389692Y-87053725D01*
X82356207Y-86992402D01*
X82354635Y-86948401D01*
X82369847Y-86842600D01*
X82349365Y-86700143D01*
X82289577Y-86569227D01*
X82195328Y-86460457D01*
X82074253Y-86382647D01*
X82074251Y-86382646D01*
X82074249Y-86382645D01*
X82074250Y-86382645D01*
X81936163Y-86342100D01*
X81936161Y-86342100D01*
X81792239Y-86342100D01*
X81792236Y-86342100D01*
X81654149Y-86382645D01*
X81533073Y-86460456D01*
X81438823Y-86569226D01*
X81438822Y-86569228D01*
X81379034Y-86700143D01*
X81358553Y-86842600D01*
X81379034Y-86985056D01*
X81438822Y-87115971D01*
X81438825Y-87115977D01*
X81504560Y-87191839D01*
X81518233Y-87211039D01*
X81548037Y-87262659D01*
X81553765Y-87272580D01*
X81563444Y-87289345D01*
X81567790Y-87296872D01*
X81565380Y-87298263D01*
X81585683Y-87350796D01*
X81571638Y-87419239D01*
X81522818Y-87469224D01*
X81462112Y-87485100D01*
X81360436Y-87485100D01*
X81222349Y-87525645D01*
X81101273Y-87603456D01*
X81007023Y-87712226D01*
X81007022Y-87712228D01*
X80947235Y-87843141D01*
X80947232Y-87843151D01*
X80945759Y-87853400D01*
X80916733Y-87916955D01*
X80857954Y-87954728D01*
X80788084Y-87954726D01*
X80775570Y-87950311D01*
X80674765Y-87908557D01*
X80674760Y-87908555D01*
X80518001Y-87887918D01*
X80517999Y-87887918D01*
X80361239Y-87908555D01*
X80361237Y-87908556D01*
X80215160Y-87969063D01*
X80089718Y-88065318D01*
X79993463Y-88190760D01*
X79932956Y-88336837D01*
X79932956Y-88336838D01*
X79929739Y-88361275D01*
X79901472Y-88425171D01*
X79843148Y-88463642D01*
X79773283Y-88464473D01*
X79714060Y-88427401D01*
X79684281Y-88364195D01*
X79683861Y-88361275D01*
X79682630Y-88351924D01*
X79680644Y-88336838D01*
X79620136Y-88190759D01*
X79523882Y-88065318D01*
X79398441Y-87969064D01*
X79353167Y-87950311D01*
X79252362Y-87908556D01*
X79252360Y-87908555D01*
X79095601Y-87887918D01*
X79095599Y-87887918D01*
X78938839Y-87908555D01*
X78938837Y-87908556D01*
X78792760Y-87969063D01*
X78667318Y-88065318D01*
X78571063Y-88190760D01*
X78510556Y-88336837D01*
X78510555Y-88336839D01*
X78489918Y-88493598D01*
X78489918Y-88493601D01*
X78495432Y-88535486D01*
X78509552Y-88642739D01*
X78511617Y-88658420D01*
X78509704Y-88658671D01*
X78508287Y-88717977D01*
X78469119Y-88775836D01*
X78404888Y-88803333D01*
X78372306Y-88802914D01*
X78363287Y-88801600D01*
X78142015Y-88801600D01*
X78081765Y-88810378D01*
X78069025Y-88812234D01*
X78061350Y-88815986D01*
X78057108Y-88818060D01*
X77988235Y-88829817D01*
X77948194Y-88818060D01*
X77936276Y-88812234D01*
X77863287Y-88801600D01*
X77642015Y-88801600D01*
X77581765Y-88810378D01*
X77569025Y-88812234D01*
X77561350Y-88815986D01*
X77557108Y-88818060D01*
X77488235Y-88829817D01*
X77448194Y-88818060D01*
X77436276Y-88812234D01*
X77363287Y-88801600D01*
X77142015Y-88801600D01*
X77081765Y-88810378D01*
X77069025Y-88812234D01*
X77061350Y-88815986D01*
X77057108Y-88818060D01*
X76988235Y-88829817D01*
X76948194Y-88818060D01*
X76936276Y-88812234D01*
X76863287Y-88801600D01*
X76752151Y-88801600D01*
X76685112Y-88781915D01*
X76639357Y-88729111D01*
X76628151Y-88677600D01*
X76628151Y-83117242D01*
X76628150Y-83117238D01*
X76625324Y-83106688D01*
X76602562Y-83021738D01*
X76553126Y-82936113D01*
X75671995Y-82054982D01*
X75638510Y-81993659D01*
X75635676Y-81967301D01*
X75635676Y-80526450D01*
X75655361Y-80459411D01*
X75708165Y-80413656D01*
X75777323Y-80403712D01*
X75840879Y-80432737D01*
X75853389Y-80445248D01*
X75871540Y-80466196D01*
X75919672Y-80521743D01*
X76040747Y-80599553D01*
X76040750Y-80599554D01*
X76040749Y-80599554D01*
X76178836Y-80640099D01*
X76178838Y-80640100D01*
X76178839Y-80640100D01*
X76322762Y-80640100D01*
X76322762Y-80640099D01*
X76460853Y-80599553D01*
X76581928Y-80521743D01*
X76676177Y-80412973D01*
X76735965Y-80282057D01*
X76756447Y-80139600D01*
X76735965Y-79997143D01*
X76676177Y-79866227D01*
X76676176Y-79866226D01*
X76676175Y-79866223D01*
X76672833Y-79861022D01*
X76653151Y-79793987D01*
X76653151Y-79532999D01*
X76672836Y-79465960D01*
X76725640Y-79420205D01*
X76794798Y-79410261D01*
X76858354Y-79439286D01*
G37*
%TD.AperFunction*%
%TA.AperFunction,Conductor*%
G36*
X74408333Y-82554567D02*
G01*
X74452681Y-82583068D01*
X75173381Y-83303767D01*
X75206866Y-83365090D01*
X75209700Y-83391448D01*
X75209700Y-87072701D01*
X75190015Y-87139740D01*
X75173381Y-87160382D01*
X74724181Y-87609582D01*
X74662858Y-87643067D01*
X74593166Y-87638083D01*
X74537233Y-87596211D01*
X74512816Y-87530747D01*
X74512500Y-87521901D01*
X74512500Y-87303075D01*
X74512500Y-87303073D01*
X74497768Y-87248092D01*
X74489308Y-87216516D01*
X74485208Y-87201213D01*
X74465434Y-87166964D01*
X74432480Y-87109887D01*
X74205851Y-86883258D01*
X73954215Y-86631621D01*
X73951662Y-86629662D01*
X73950054Y-86627460D01*
X73948467Y-86625873D01*
X73948714Y-86625625D01*
X73910461Y-86573233D01*
X73903151Y-86531288D01*
X73903151Y-86341469D01*
X73903151Y-86341464D01*
X73892517Y-86268475D01*
X73886692Y-86256560D01*
X73874932Y-86187692D01*
X73886691Y-86147641D01*
X73892517Y-86135725D01*
X73903151Y-86062736D01*
X73903151Y-85841464D01*
X73892517Y-85768475D01*
X73886692Y-85756560D01*
X73874932Y-85687692D01*
X73886691Y-85647641D01*
X73892517Y-85635725D01*
X73903151Y-85562736D01*
X73903151Y-85341464D01*
X73892517Y-85268475D01*
X73886692Y-85256560D01*
X73874932Y-85187692D01*
X73886691Y-85147641D01*
X73892517Y-85135725D01*
X73903151Y-85062736D01*
X73903151Y-84841464D01*
X73892517Y-84768475D01*
X73886692Y-84756560D01*
X73874932Y-84687692D01*
X73886691Y-84647641D01*
X73892517Y-84635725D01*
X73903151Y-84562736D01*
X73903151Y-84341464D01*
X73892517Y-84268475D01*
X73886692Y-84256560D01*
X73874932Y-84187692D01*
X73886691Y-84147641D01*
X73892517Y-84135725D01*
X73903151Y-84062736D01*
X73903151Y-83841464D01*
X73892517Y-83768475D01*
X73886692Y-83756560D01*
X73874932Y-83687692D01*
X73886691Y-83647641D01*
X73892517Y-83635725D01*
X73903151Y-83562736D01*
X73903151Y-83341464D01*
X73892517Y-83268475D01*
X73886692Y-83256560D01*
X73874932Y-83187692D01*
X73886691Y-83147641D01*
X73892517Y-83135725D01*
X73903151Y-83062736D01*
X73903151Y-82929054D01*
X73910505Y-82904006D01*
X73911830Y-82885489D01*
X73918597Y-82876448D01*
X73922836Y-82862015D01*
X73941527Y-82845818D01*
X73953702Y-82829556D01*
X73968707Y-82822267D01*
X73975640Y-82816260D01*
X73995173Y-82809248D01*
X73995919Y-82809049D01*
X74022189Y-82802010D01*
X74107813Y-82752575D01*
X74177726Y-82682662D01*
X74277321Y-82583066D01*
X74338641Y-82549583D01*
X74408333Y-82554567D01*
G37*
%TD.AperFunction*%
%TA.AperFunction,Conductor*%
G36*
X60821386Y-83623384D02*
G01*
X60867141Y-83676188D01*
X60877085Y-83745346D01*
X60848060Y-83808902D01*
X60842028Y-83815380D01*
X60439522Y-84217884D01*
X60439520Y-84217887D01*
X60386792Y-84309213D01*
X60367079Y-84382787D01*
X60359500Y-84411071D01*
X60359500Y-84562824D01*
X60339815Y-84629863D01*
X60287011Y-84675618D01*
X60219316Y-84685763D01*
X60197954Y-84682950D01*
X59607764Y-85273141D01*
X59593253Y-85200187D01*
X59523525Y-85031848D01*
X59422295Y-84880347D01*
X59293453Y-84751505D01*
X59141952Y-84650275D01*
X58973613Y-84580547D01*
X58900657Y-84566035D01*
X59490717Y-83975976D01*
X59490716Y-83975974D01*
X59322044Y-83894747D01*
X59322046Y-83894747D01*
X59164627Y-83846190D01*
X59106368Y-83807619D01*
X59078210Y-83743675D01*
X59089094Y-83674658D01*
X59135563Y-83622481D01*
X59201177Y-83603699D01*
X60754347Y-83603699D01*
X60821386Y-83623384D01*
G37*
%TD.AperFunction*%
%TA.AperFunction,Conductor*%
G36*
X70276434Y-81564522D02*
G01*
X70332367Y-81606394D01*
X70356784Y-81671858D01*
X70357100Y-81680704D01*
X70357100Y-81805870D01*
X70359889Y-81835614D01*
X70359891Y-81835626D01*
X70403747Y-81960955D01*
X70403748Y-81960957D01*
X70446337Y-82018663D01*
X70447019Y-82019587D01*
X70470990Y-82085216D01*
X70455674Y-82153387D01*
X70447019Y-82166855D01*
X70404195Y-82224877D01*
X70404194Y-82224879D01*
X70380428Y-82292799D01*
X70380428Y-82292800D01*
X71123600Y-82292800D01*
X71190639Y-82312485D01*
X71236394Y-82365289D01*
X71247600Y-82416800D01*
X71247600Y-82728800D01*
X71227915Y-82795839D01*
X71175111Y-82841594D01*
X71123600Y-82852800D01*
X70380428Y-82852800D01*
X70392271Y-82886645D01*
X70395833Y-82956424D01*
X70361105Y-83017051D01*
X70299112Y-83049279D01*
X70275230Y-83051600D01*
X70273705Y-83051600D01*
X70206666Y-83031915D01*
X70186024Y-83015281D01*
X69899674Y-82728931D01*
X69578463Y-82407719D01*
X69578460Y-82407717D01*
X69578456Y-82407714D01*
X69561350Y-82397838D01*
X69513135Y-82347271D01*
X69499913Y-82278663D01*
X69525881Y-82213799D01*
X69535661Y-82202781D01*
X70145420Y-81593022D01*
X70206742Y-81559538D01*
X70276434Y-81564522D01*
G37*
%TD.AperFunction*%
%TA.AperFunction,Conductor*%
G36*
X69918885Y-78994221D02*
G01*
X69974818Y-79036093D01*
X69999235Y-79101557D01*
X69999551Y-79110403D01*
X69999551Y-80554745D01*
X69979866Y-80621784D01*
X69963232Y-80642426D01*
X68814277Y-81791381D01*
X68752954Y-81824866D01*
X68726596Y-81827700D01*
X68713248Y-81827700D01*
X68663163Y-81817135D01*
X68632543Y-81803615D01*
X68607419Y-81800700D01*
X68607416Y-81800700D01*
X68014550Y-81800700D01*
X67947511Y-81781015D01*
X67901756Y-81728211D01*
X67890550Y-81676700D01*
X67890550Y-81083843D01*
X67890550Y-81083836D01*
X67890548Y-81083817D01*
X67887637Y-81058714D01*
X67887636Y-81058710D01*
X67887635Y-81058708D01*
X67880363Y-81042237D01*
X67871294Y-80972958D01*
X67901119Y-80909774D01*
X67906101Y-80904490D01*
X69787870Y-79022722D01*
X69849193Y-78989237D01*
X69918885Y-78994221D01*
G37*
%TD.AperFunction*%
%TA.AperFunction,Conductor*%
G36*
X71747274Y-80050685D02*
G01*
X71793029Y-80103489D01*
X71802973Y-80172647D01*
X71791635Y-80209461D01*
X71762785Y-80268472D01*
X71762785Y-80268475D01*
X71752151Y-80341464D01*
X71752151Y-80562736D01*
X71757515Y-80599553D01*
X71762785Y-80635727D01*
X71768888Y-80648210D01*
X71780646Y-80717083D01*
X71768888Y-80757128D01*
X71763270Y-80768618D01*
X71763270Y-80768619D01*
X71758392Y-80802099D01*
X71758393Y-80802100D01*
X71820251Y-80802100D01*
X71887290Y-80821785D01*
X71907932Y-80838419D01*
X71909432Y-80839919D01*
X71942917Y-80901242D01*
X71937933Y-80970934D01*
X71896061Y-81026867D01*
X71830597Y-81051284D01*
X71821751Y-81051600D01*
X71288672Y-81051600D01*
X71247718Y-81044642D01*
X71220422Y-81035090D01*
X71220414Y-81035089D01*
X71190670Y-81032300D01*
X71190666Y-81032300D01*
X70906532Y-81032300D01*
X70839493Y-81012615D01*
X70793738Y-80959811D01*
X70783794Y-80890653D01*
X70786757Y-80876207D01*
X70791081Y-80860069D01*
X70800551Y-80824727D01*
X70800551Y-80719273D01*
X70800551Y-80351838D01*
X70820236Y-80284799D01*
X70873040Y-80239044D01*
X70942198Y-80229100D01*
X70972003Y-80237277D01*
X70979889Y-80240544D01*
X71058270Y-80250863D01*
X71136650Y-80261182D01*
X71136651Y-80261182D01*
X71136652Y-80261182D01*
X71188905Y-80254302D01*
X71293413Y-80240544D01*
X71439492Y-80180036D01*
X71564933Y-80083782D01*
X71567141Y-80080904D01*
X71568210Y-80079512D01*
X71624638Y-80038310D01*
X71666584Y-80031000D01*
X71680235Y-80031000D01*
X71747274Y-80050685D01*
G37*
%TD.AperFunction*%
%TA.AperFunction,Conductor*%
G36*
X73453784Y-75198885D02*
G01*
X73474426Y-75215519D01*
X74373681Y-76114774D01*
X74407166Y-76176097D01*
X74410000Y-76202455D01*
X74410000Y-76591000D01*
X74390315Y-76658039D01*
X74337511Y-76703794D01*
X74286000Y-76715000D01*
X73779911Y-76715000D01*
X73712872Y-76695315D01*
X73667117Y-76642511D01*
X73656972Y-76574814D01*
X73658078Y-76566420D01*
X73672733Y-76455100D01*
X73666976Y-76411374D01*
X73655273Y-76322480D01*
X73652095Y-76298338D01*
X73591587Y-76152259D01*
X73495333Y-76026818D01*
X73369892Y-75930564D01*
X73341445Y-75918781D01*
X73223813Y-75870056D01*
X73223811Y-75870055D01*
X73067052Y-75849418D01*
X73067050Y-75849418D01*
X72910290Y-75870055D01*
X72910288Y-75870056D01*
X72764211Y-75930563D01*
X72754077Y-75938339D01*
X72638769Y-76026818D01*
X72638767Y-76026820D01*
X72635958Y-76028976D01*
X72570788Y-76054170D01*
X72560471Y-76054600D01*
X71349390Y-76054600D01*
X71349374Y-76054599D01*
X71341778Y-76054599D01*
X71236325Y-76054599D01*
X71207500Y-76062322D01*
X71143159Y-76079562D01*
X71143160Y-76079563D01*
X71134463Y-76081893D01*
X71134461Y-76081894D01*
X71043136Y-76134621D01*
X70968569Y-76209189D01*
X69588598Y-77589158D01*
X69588596Y-77589161D01*
X69535867Y-77680487D01*
X69518329Y-77745947D01*
X69518329Y-77745948D01*
X69508576Y-77782346D01*
X69508576Y-78117869D01*
X69488891Y-78184908D01*
X69472257Y-78205550D01*
X67575233Y-80102574D01*
X67513910Y-80136059D01*
X67444218Y-80131075D01*
X67388285Y-80089203D01*
X67363868Y-80023739D01*
X67363552Y-80014893D01*
X67363552Y-78153554D01*
X67383237Y-78086515D01*
X67399871Y-78065873D01*
X70250225Y-75215519D01*
X70311548Y-75182034D01*
X70337906Y-75179200D01*
X73386745Y-75179200D01*
X73453784Y-75198885D01*
G37*
%TD.AperFunction*%
%TA.AperFunction,Conductor*%
G36*
X83416198Y-67405185D02*
G01*
X83461953Y-67457989D01*
X83471897Y-67527147D01*
X83448113Y-67584227D01*
X83420533Y-67620747D01*
X83325497Y-67811606D01*
X83325497Y-67811608D01*
X83267145Y-68016690D01*
X83256372Y-68132952D01*
X83230586Y-68197889D01*
X83186031Y-68229805D01*
X83222404Y-68250669D01*
X83254594Y-68312682D01*
X83256371Y-68325048D01*
X83267145Y-68441311D01*
X83320576Y-68629100D01*
X83325497Y-68646393D01*
X83325497Y-68646395D01*
X83420533Y-68837254D01*
X83549028Y-69007407D01*
X83549029Y-69007408D01*
X83706599Y-69151053D01*
X83887882Y-69263299D01*
X83923196Y-69276979D01*
X83978595Y-69319549D01*
X84002187Y-69385315D01*
X84002401Y-69392605D01*
X84002401Y-69683227D01*
X84029694Y-69785090D01*
X84039310Y-69801745D01*
X84082421Y-69876414D01*
X84082423Y-69876416D01*
X85003581Y-70797574D01*
X85037066Y-70858897D01*
X85039900Y-70885255D01*
X85039900Y-77613378D01*
X85020215Y-77680417D01*
X84967411Y-77726172D01*
X84898253Y-77736116D01*
X84857963Y-77723011D01*
X84851118Y-77719394D01*
X84783200Y-77695628D01*
X84783200Y-78869970D01*
X84799906Y-78881824D01*
X84843190Y-78936672D01*
X84852151Y-78982954D01*
X84852151Y-79877600D01*
X84832466Y-79944639D01*
X84779662Y-79990394D01*
X84728151Y-80001600D01*
X83565755Y-80001600D01*
X83498716Y-79981915D01*
X83478074Y-79965281D01*
X82739470Y-79226677D01*
X82705985Y-79165354D01*
X82703151Y-79138996D01*
X82703151Y-79007657D01*
X82722836Y-78940618D01*
X82765149Y-78900271D01*
X82856413Y-78847580D01*
X82925289Y-78778703D01*
X82986608Y-78745221D01*
X83056300Y-78750205D01*
X83086601Y-78766617D01*
X83088199Y-78767796D01*
X83088201Y-78767799D01*
X83195043Y-78846652D01*
X83233203Y-78860004D01*
X83320373Y-78890508D01*
X83320377Y-78890508D01*
X83320381Y-78890510D01*
X83335257Y-78891905D01*
X83350130Y-78893300D01*
X83350134Y-78893300D01*
X83736270Y-78893300D01*
X83749489Y-78892060D01*
X83766019Y-78890510D01*
X83766023Y-78890508D01*
X83766026Y-78890508D01*
X83833206Y-78867000D01*
X83891357Y-78846652D01*
X83949989Y-78803378D01*
X84015615Y-78779409D01*
X84083786Y-78794724D01*
X84097256Y-78803381D01*
X84155279Y-78846205D01*
X84223199Y-78869970D01*
X84223200Y-78869970D01*
X84223200Y-77695628D01*
X84223199Y-77695628D01*
X84155279Y-77719394D01*
X84155277Y-77719395D01*
X84097255Y-77762219D01*
X84031627Y-77786190D01*
X83963456Y-77770875D01*
X83949987Y-77762219D01*
X83946117Y-77759363D01*
X83891357Y-77718948D01*
X83891355Y-77718947D01*
X83766026Y-77675091D01*
X83766014Y-77675089D01*
X83736270Y-77672300D01*
X83736266Y-77672300D01*
X83350134Y-77672300D01*
X83340639Y-77673190D01*
X83272055Y-77659847D01*
X83221572Y-77611544D01*
X83205218Y-77543615D01*
X83228185Y-77477628D01*
X83241380Y-77462056D01*
X84216874Y-76486563D01*
X84216875Y-76486562D01*
X84266310Y-76400938D01*
X84277910Y-76357647D01*
X84283453Y-76336963D01*
X84290256Y-76311571D01*
X84291900Y-76305436D01*
X84291900Y-76206564D01*
X84291900Y-73056965D01*
X84288389Y-73043863D01*
X84271171Y-72979604D01*
X84271171Y-72979602D01*
X84266311Y-72961465D01*
X84266310Y-72961463D01*
X84266310Y-72961462D01*
X84216875Y-72875838D01*
X84146962Y-72805925D01*
X81026219Y-69685182D01*
X80992734Y-69623859D01*
X80989900Y-69597501D01*
X80989900Y-69264268D01*
X81009585Y-69197229D01*
X81062389Y-69151474D01*
X81131547Y-69141530D01*
X81179175Y-69158840D01*
X81347882Y-69263299D01*
X81546703Y-69340322D01*
X81756291Y-69379501D01*
X81756293Y-69379501D01*
X81969509Y-69379501D01*
X81969511Y-69379501D01*
X82179099Y-69340322D01*
X82377920Y-69263299D01*
X82559203Y-69151053D01*
X82716773Y-69007408D01*
X82845267Y-68837256D01*
X82899900Y-68727537D01*
X82940304Y-68646395D01*
X82940304Y-68646394D01*
X82940306Y-68646390D01*
X82998657Y-68441311D01*
X83009430Y-68325048D01*
X83035216Y-68260112D01*
X83079770Y-68228195D01*
X83043398Y-68207332D01*
X83011208Y-68145319D01*
X83009430Y-68132952D01*
X83008750Y-68125614D01*
X82998657Y-68016691D01*
X82940306Y-67811612D01*
X82940305Y-67811611D01*
X82939510Y-67808815D01*
X82940096Y-67738948D01*
X82971095Y-67687199D01*
X83097182Y-67561113D01*
X83236476Y-67421819D01*
X83297799Y-67388334D01*
X83324157Y-67385500D01*
X83349159Y-67385500D01*
X83416198Y-67405185D01*
G37*
%TD.AperFunction*%
%TA.AperFunction,Conductor*%
G36*
X72236356Y-77535685D02*
G01*
X72282111Y-77588489D01*
X72292055Y-77657647D01*
X72283878Y-77687452D01*
X72228008Y-77822334D01*
X72228006Y-77822339D01*
X72207369Y-77979098D01*
X72207369Y-77979101D01*
X72228006Y-78135860D01*
X72228008Y-78135865D01*
X72289948Y-78285403D01*
X72297417Y-78354872D01*
X72266142Y-78417351D01*
X72250878Y-78431227D01*
X72241122Y-78438713D01*
X72144863Y-78564160D01*
X72084356Y-78710237D01*
X72084355Y-78710239D01*
X72063718Y-78866998D01*
X72063718Y-78867001D01*
X72084355Y-79023760D01*
X72084357Y-79023765D01*
X72119475Y-79108548D01*
X72126944Y-79178017D01*
X72095669Y-79240496D01*
X72035580Y-79276148D01*
X72004914Y-79280000D01*
X71666584Y-79280000D01*
X71599545Y-79260315D01*
X71568210Y-79231488D01*
X71564935Y-79227221D01*
X71564933Y-79227218D01*
X71439492Y-79130964D01*
X71393863Y-79112064D01*
X71293413Y-79070456D01*
X71293411Y-79070455D01*
X71136652Y-79049818D01*
X71136650Y-79049818D01*
X70979890Y-79070455D01*
X70979885Y-79070457D01*
X70972001Y-79073723D01*
X70902532Y-79081190D01*
X70840053Y-79049914D01*
X70804402Y-78989824D01*
X70800551Y-78959161D01*
X70800551Y-78323355D01*
X70820236Y-78256316D01*
X70836870Y-78235674D01*
X71520225Y-77552319D01*
X71581548Y-77518834D01*
X71607906Y-77516000D01*
X72169317Y-77516000D01*
X72236356Y-77535685D01*
G37*
%TD.AperFunction*%
%TA.AperFunction,Conductor*%
G36*
X74161435Y-77535685D02*
G01*
X74182077Y-77552319D01*
X74273299Y-77643541D01*
X74306784Y-77704864D01*
X74308323Y-77749096D01*
X74303913Y-77779365D01*
X74302920Y-77786190D01*
X74302151Y-77791466D01*
X74302151Y-78637799D01*
X74282466Y-78704838D01*
X74229662Y-78750593D01*
X74160504Y-78760537D01*
X74096948Y-78731512D01*
X74090470Y-78725480D01*
X73453288Y-78088299D01*
X73419803Y-78026976D01*
X73418031Y-77984429D01*
X73418733Y-77979100D01*
X73398095Y-77822338D01*
X73357159Y-77723510D01*
X73342224Y-77687452D01*
X73334755Y-77617983D01*
X73366030Y-77555504D01*
X73426119Y-77519852D01*
X73456785Y-77516000D01*
X74094396Y-77516000D01*
X74161435Y-77535685D01*
G37*
%TD.AperFunction*%
%TA.AperFunction,Conductor*%
G36*
X81578225Y-75557985D02*
G01*
X81609989Y-75587374D01*
X81614921Y-75593877D01*
X81614922Y-75593878D01*
X81730025Y-75681164D01*
X81738785Y-75684618D01*
X81743789Y-75686592D01*
X81798932Y-75729498D01*
X81822125Y-75795406D01*
X81806004Y-75863390D01*
X81785979Y-75889627D01*
X81373626Y-76301981D01*
X81312303Y-76335466D01*
X81285945Y-76338300D01*
X80450651Y-76338300D01*
X80383612Y-76318615D01*
X80337857Y-76265811D01*
X80326651Y-76214300D01*
X80326651Y-75662799D01*
X80346336Y-75595760D01*
X80399140Y-75550005D01*
X80450647Y-75538799D01*
X81221515Y-75538799D01*
X81221522Y-75538798D01*
X81225090Y-75538592D01*
X81225099Y-75538755D01*
X81232985Y-75538300D01*
X81511186Y-75538300D01*
X81578225Y-75557985D01*
G37*
%TD.AperFunction*%
%TA.AperFunction,Conductor*%
G36*
X79765940Y-67748686D02*
G01*
X79811695Y-67801490D01*
X79822901Y-67853001D01*
X79822901Y-68163175D01*
X79788826Y-68036008D01*
X79723000Y-67921994D01*
X79629908Y-67828902D01*
X79515894Y-67763076D01*
X79388727Y-67729001D01*
X79698901Y-67729001D01*
X79765940Y-67748686D01*
G37*
%TD.AperFunction*%
%TA.AperFunction,Conductor*%
G36*
X82362901Y-66065001D02*
G01*
X82343216Y-66132040D01*
X82290412Y-66177795D01*
X82238901Y-66189001D01*
X81928727Y-66189001D01*
X82055894Y-66154926D01*
X82169908Y-66089100D01*
X82263000Y-65996008D01*
X82328826Y-65881994D01*
X82362901Y-65754827D01*
X82362901Y-66065001D01*
G37*
%TD.AperFunction*%
%TA.AperFunction,Conductor*%
G36*
X83936976Y-65881994D02*
G01*
X84002802Y-65996008D01*
X84095894Y-66089100D01*
X84209908Y-66154926D01*
X84337075Y-66189001D01*
X84026901Y-66189001D01*
X83959862Y-66169316D01*
X83914107Y-66116512D01*
X83902901Y-66065001D01*
X83902901Y-65754827D01*
X83936976Y-65881994D01*
G37*
%TD.AperFunction*%
%TD*%
M02*
