%TF.GenerationSoftware,KiCad,Pcbnew,8.0.6*%
%TF.CreationDate,2026-02-16T15:05:02+02:00*%
%TF.ProjectId,ETH_TMC_shield,4554485f-544d-4435-9f73-6869656c642e,rev?*%
%TF.SameCoordinates,Original*%
%TF.FileFunction,Copper,L2,Inr*%
%TF.FilePolarity,Positive*%
%FSLAX46Y46*%
G04 Gerber Fmt 4.6, Leading zero omitted, Abs format (unit mm)*
G04 Created by KiCad (PCBNEW 8.0.6) date 2026-02-16 15:05:02*
%MOMM*%
%LPD*%
G01*
G04 APERTURE LIST*
%TA.AperFunction,HeatsinkPad*%
%ADD10O,1.800000X1.100000*%
%TD*%
%TA.AperFunction,HeatsinkPad*%
%ADD11O,2.200000X1.100000*%
%TD*%
%TA.AperFunction,ComponentPad*%
%ADD12R,1.725000X1.725000*%
%TD*%
%TA.AperFunction,ComponentPad*%
%ADD13C,1.725000*%
%TD*%
%TA.AperFunction,ComponentPad*%
%ADD14C,1.905000*%
%TD*%
%TA.AperFunction,ComponentPad*%
%ADD15C,2.775000*%
%TD*%
%TA.AperFunction,ComponentPad*%
%ADD16R,1.700000X1.700000*%
%TD*%
%TA.AperFunction,ComponentPad*%
%ADD17O,1.700000X1.700000*%
%TD*%
%TA.AperFunction,ComponentPad*%
%ADD18R,1.000000X1.000000*%
%TD*%
%TA.AperFunction,ComponentPad*%
%ADD19O,1.000000X1.000000*%
%TD*%
%TA.AperFunction,ViaPad*%
%ADD20C,0.600000*%
%TD*%
%TA.AperFunction,ViaPad*%
%ADD21C,0.400000*%
%TD*%
G04 APERTURE END LIST*
D10*
%TO.N,GND*%
%TO.C,J5*%
X68931800Y-93590800D03*
D11*
X66131800Y-91440800D03*
D10*
X63331800Y-93590800D03*
%TD*%
D12*
%TO.N,TXP*%
%TO.C,J6*%
X55193800Y-87930000D03*
D13*
%TO.N,+3V3*%
X53923800Y-90470000D03*
%TO.N,TXN*%
X52653800Y-87930000D03*
%TO.N,RXN*%
X51383800Y-90470000D03*
%TO.N,+3V3*%
X50113800Y-87930000D03*
%TO.N,RXP*%
X48843800Y-90470000D03*
%TO.N,unconnected-(J6-PadP7)*%
X47573800Y-87930000D03*
%TO.N,GND*%
X46303800Y-90470000D03*
D14*
%TO.N,LED1*%
X57073800Y-77470000D03*
%TO.N,Net-(J6-PadP10)*%
X54533800Y-77470000D03*
%TO.N,LED2*%
X46963800Y-77470000D03*
%TO.N,Net-(J6-PadP12)*%
X44423800Y-77470000D03*
D15*
%TO.N,GND*%
X42793800Y-85470000D03*
X58703800Y-85470000D03*
%TD*%
D16*
%TO.N,CSN_1*%
%TO.C,J11*%
X71417901Y-100690201D03*
D17*
%TO.N,SPI_MOSI_1*%
X71417901Y-103230201D03*
%TO.N,GND*%
X68877901Y-100690201D03*
%TO.N,SPI_MISO_1*%
X68877901Y-103230201D03*
%TO.N,SCK_1*%
X66337901Y-100690201D03*
%TO.N,GND*%
X66337901Y-103230201D03*
%TO.N,CLK_EXT_1*%
X63797901Y-100690201D03*
%TO.N,+3V3*%
X63797901Y-103230201D03*
%TO.N,GND*%
X61257901Y-100690201D03*
X61257901Y-103230201D03*
%TO.N,+3V3*%
X58717901Y-100690201D03*
%TO.N,monitoring_1*%
X58717901Y-103230201D03*
%TD*%
D18*
%TO.N,+3V3*%
%TO.C,J12*%
X86791800Y-77582000D03*
D19*
%TO.N,GND*%
X86791800Y-78852000D03*
%TD*%
D18*
%TO.N,/NRST*%
%TO.C,J13*%
X86791800Y-80137000D03*
D19*
%TO.N,/SWCLK*%
X86791800Y-81407000D03*
%TO.N,/SWDIO*%
X86791800Y-82677000D03*
%TD*%
D16*
%TO.N,GND*%
%TO.C,J10*%
X84402901Y-65689001D03*
D17*
%TO.N,/RXD1*%
X84402901Y-68229001D03*
%TO.N,GND*%
X81862901Y-65689001D03*
%TO.N,/TXD1*%
X81862901Y-68229001D03*
%TO.N,DRV_ENN_1*%
X79322901Y-65689001D03*
%TO.N,GND*%
X79322901Y-68229001D03*
%TO.N,INTR_1*%
X76782901Y-65689001D03*
%TO.N,+3V3*%
X76782901Y-68229001D03*
%TO.N,GND*%
X74242901Y-65689001D03*
X74242901Y-68229001D03*
%TO.N,PGOOD1*%
X71702901Y-65689001D03*
%TO.N,GND*%
X71702901Y-68229001D03*
%TD*%
D20*
%TO.N,+3V3*%
X58621800Y-88057000D03*
X58717901Y-97180400D03*
D21*
X83543200Y-78282800D03*
X69212400Y-83667600D03*
D20*
X49072750Y-85887499D03*
X47498000Y-85901700D03*
X71804500Y-71125200D03*
D21*
X64002800Y-86410800D03*
X65904251Y-87707300D03*
X83134200Y-89966800D03*
D20*
X50877250Y-85887499D03*
D21*
X70967600Y-81612800D03*
X75412600Y-71829200D03*
D20*
X62839600Y-81737200D03*
X46531650Y-92773099D03*
D21*
X71097500Y-87952100D03*
X76250800Y-80139600D03*
D20*
X52679200Y-84348600D03*
D21*
%TO.N,monitoring_1*%
X60401200Y-98320800D03*
D20*
X80518000Y-88493600D03*
D21*
X75539600Y-88493600D03*
D20*
X79095600Y-88493600D03*
%TO.N,GND*%
X79326651Y-74838300D03*
X49529600Y-80957200D03*
X65422001Y-83533399D03*
X69689201Y-77081799D03*
D21*
X82143600Y-88341200D03*
X84658200Y-79578200D03*
D20*
X49072750Y-84162499D03*
X55880000Y-85801200D03*
X77842601Y-74363999D03*
X68774801Y-77183399D03*
X60401200Y-95453200D03*
D21*
X76250800Y-81099600D03*
X84099400Y-89966800D03*
D20*
X69663801Y-79774199D03*
D21*
X62001400Y-85090000D03*
D20*
X73778251Y-77877500D03*
X82804000Y-91541600D03*
D21*
X70967600Y-82572800D03*
D20*
X73380600Y-72644000D03*
X71628000Y-78867000D03*
X67606401Y-79316999D03*
D21*
X86385400Y-76098400D03*
D20*
X47498000Y-84176700D03*
D21*
X65913000Y-88668800D03*
D20*
X82240000Y-73456800D03*
X66234801Y-84295399D03*
X69748400Y-73050400D03*
X76017000Y-75824200D03*
X77233001Y-80002799D03*
X71577200Y-73583800D03*
X56667400Y-95478600D03*
X50901550Y-84138199D03*
X82338401Y-80536199D03*
X66234801Y-82745999D03*
D21*
X84937600Y-76301600D03*
X63042800Y-86410800D03*
D20*
X69646800Y-89154000D03*
X65422001Y-82745999D03*
X72390000Y-75615800D03*
D21*
X68630800Y-86766400D03*
D20*
X67047601Y-82745999D03*
X78892400Y-81127600D03*
D21*
X72694800Y-90246200D03*
D20*
X66234801Y-83533399D03*
X81231251Y-84166100D03*
D21*
X62839600Y-79806800D03*
X71089400Y-87000200D03*
X84455000Y-88798400D03*
X86461600Y-83896200D03*
X68630800Y-87757000D03*
D20*
X76936600Y-87807800D03*
X80726651Y-75938300D03*
X52044200Y-80957200D03*
D21*
X60401200Y-97360800D03*
D20*
X70815200Y-85496400D03*
X67047601Y-84295399D03*
X82592401Y-82441199D03*
X66463401Y-77259599D03*
X56671300Y-97129600D03*
X73685400Y-75717400D03*
X73879500Y-71125200D03*
X67047601Y-83533399D03*
D21*
X78536800Y-84348200D03*
D20*
X74574400Y-84023200D03*
X71114800Y-80497800D03*
D21*
X84480400Y-78282800D03*
D20*
X54838600Y-95808800D03*
X65422001Y-84295399D03*
D21*
%TO.N,/NRST*%
X78252200Y-82504400D03*
X78988800Y-79964400D03*
X81965800Y-82042000D03*
%TO.N,SENSOR_INDICATOR*%
X76504800Y-73824300D03*
X78734800Y-77068800D03*
%TO.N,Net-(D2-A)*%
X76504800Y-72854300D03*
%TO.N,Net-(D3-A)*%
X75412600Y-72842400D03*
%TO.N,ON_INDICATOR*%
X75412600Y-73812400D03*
X77261600Y-77361500D03*
%TO.N,/SWDIO*%
X81432400Y-87985600D03*
%TO.N,/SWCLK*%
X81864200Y-86842600D03*
D20*
%TO.N,Net-(C44-Pad2)*%
X73832600Y-90810200D03*
X79696451Y-81916100D03*
%TO.N,Net-(D9-A)*%
X71390200Y-93451800D03*
D21*
X63333000Y-97602200D03*
D20*
X67838200Y-94874200D03*
%TO.N,LED2*%
X64888251Y-86665900D03*
X62805451Y-88748700D03*
%TO.N,LED1*%
X65904251Y-86564300D03*
X63973851Y-88799500D03*
%TO.N,ETH_TXD1*%
X64989851Y-78283900D03*
X72813051Y-77979100D03*
%TO.N,ETH_MDC*%
X76673851Y-76861500D03*
X73067051Y-76455100D03*
%TO.N,ETH_TXD0*%
X65650251Y-78944300D03*
X72669400Y-78867000D03*
%TO.N,ETH_TX_EN*%
X66310651Y-79655500D03*
X71136651Y-79655500D03*
%TO.N,PGOOD1*%
X69748400Y-70975400D03*
X73290200Y-93451800D03*
D21*
%TO.N,INTR_1*%
X79217400Y-72090400D03*
%TO.N,GND*%
X83489800Y-77470000D03*
%TD*%
%TA.AperFunction,Conductor*%
%TO.N,GND*%
G36*
X69377901Y-101066201D02*
G01*
X69358216Y-101133240D01*
X69305412Y-101178995D01*
X69253901Y-101190201D01*
X68943727Y-101190201D01*
X69070894Y-101156126D01*
X69184908Y-101090300D01*
X69278000Y-100997208D01*
X69343826Y-100883194D01*
X69377901Y-100756027D01*
X69377901Y-101066201D01*
G37*
%TD.AperFunction*%
%TA.AperFunction,Conductor*%
G36*
X82362901Y-66065001D02*
G01*
X82343216Y-66132040D01*
X82290412Y-66177795D01*
X82238901Y-66189001D01*
X81928727Y-66189001D01*
X82055894Y-66154926D01*
X82169908Y-66089100D01*
X82263000Y-65996008D01*
X82328826Y-65881994D01*
X82362901Y-65754827D01*
X82362901Y-66065001D01*
G37*
%TD.AperFunction*%
%TA.AperFunction,Conductor*%
G36*
X83936976Y-65881994D02*
G01*
X84002802Y-65996008D01*
X84095894Y-66089100D01*
X84209908Y-66154926D01*
X84337075Y-66189001D01*
X84026901Y-66189001D01*
X83959862Y-66169316D01*
X83914107Y-66116512D01*
X83902901Y-66065001D01*
X83902901Y-65754827D01*
X83936976Y-65881994D01*
G37*
%TD.AperFunction*%
%TA.AperFunction,Conductor*%
G36*
X85897928Y-63623428D02*
G01*
X86098067Y-63637744D01*
X86115572Y-63640261D01*
X86307307Y-63681972D01*
X86324273Y-63686954D01*
X86508105Y-63755522D01*
X86524197Y-63762870D01*
X86696409Y-63856907D01*
X86711292Y-63866472D01*
X86868362Y-63984054D01*
X86881733Y-63995640D01*
X87020471Y-64134380D01*
X87032057Y-64147751D01*
X87149639Y-64304825D01*
X87159204Y-64319709D01*
X87253235Y-64491917D01*
X87260584Y-64508010D01*
X87329151Y-64691847D01*
X87334135Y-64708822D01*
X87375840Y-64900540D01*
X87378358Y-64918053D01*
X87392696Y-65118553D01*
X87393012Y-65127398D01*
X87393012Y-65198487D01*
X87393013Y-65198500D01*
X87393013Y-76657500D01*
X87373328Y-76724539D01*
X87320524Y-76770294D01*
X87269013Y-76781500D01*
X86246943Y-76781500D01*
X86246917Y-76781502D01*
X86221812Y-76784413D01*
X86221808Y-76784415D01*
X86119035Y-76829793D01*
X86039594Y-76909234D01*
X85994215Y-77012006D01*
X85994215Y-77012008D01*
X85991300Y-77037131D01*
X85991300Y-78126856D01*
X85991302Y-78126882D01*
X85994213Y-78151987D01*
X85994215Y-78151991D01*
X86039593Y-78254764D01*
X86039594Y-78254765D01*
X86119035Y-78334206D01*
X86221809Y-78379585D01*
X86246935Y-78382500D01*
X87167800Y-78382499D01*
X87234839Y-78402183D01*
X87280594Y-78454987D01*
X87291800Y-78506499D01*
X87291800Y-79212500D01*
X87272115Y-79279539D01*
X87219311Y-79325294D01*
X87167800Y-79336500D01*
X86246943Y-79336500D01*
X86246917Y-79336502D01*
X86221812Y-79339413D01*
X86221811Y-79339414D01*
X86221809Y-79339415D01*
X86217235Y-79341434D01*
X86167150Y-79352000D01*
X86153010Y-79352000D01*
X86127674Y-79377077D01*
X86128513Y-79378301D01*
X86121778Y-79382914D01*
X86121329Y-79383359D01*
X86120628Y-79383702D01*
X86119036Y-79384792D01*
X86039593Y-79464236D01*
X85994215Y-79567006D01*
X85994215Y-79567008D01*
X85991300Y-79592131D01*
X85991300Y-80681856D01*
X85991302Y-80681882D01*
X85994213Y-80706987D01*
X85994215Y-80706991D01*
X86039593Y-80809764D01*
X86081480Y-80851651D01*
X86114965Y-80912974D01*
X86109981Y-80982666D01*
X86098794Y-81005302D01*
X86066009Y-81057480D01*
X86006433Y-81227737D01*
X86006430Y-81227750D01*
X85986235Y-81406996D01*
X85986235Y-81407003D01*
X86006430Y-81586249D01*
X86006431Y-81586254D01*
X86066011Y-81756523D01*
X86161984Y-81909262D01*
X86161985Y-81909263D01*
X86207041Y-81954320D01*
X86240525Y-82015643D01*
X86235540Y-82085335D01*
X86207041Y-82129680D01*
X86161984Y-82174737D01*
X86066011Y-82327476D01*
X86006431Y-82497745D01*
X86006430Y-82497750D01*
X85986235Y-82676996D01*
X85986235Y-82677003D01*
X86006430Y-82856249D01*
X86006431Y-82856254D01*
X86066011Y-83026523D01*
X86104184Y-83087274D01*
X86161984Y-83179262D01*
X86289538Y-83306816D01*
X86350320Y-83345008D01*
X86428651Y-83394227D01*
X86442278Y-83402789D01*
X86612545Y-83462368D01*
X86612550Y-83462369D01*
X86791796Y-83482565D01*
X86791800Y-83482565D01*
X86791804Y-83482565D01*
X86971049Y-83462369D01*
X86971052Y-83462368D01*
X86971055Y-83462368D01*
X87141322Y-83402789D01*
X87154949Y-83394227D01*
X87203040Y-83364009D01*
X87270277Y-83345008D01*
X87337112Y-83365375D01*
X87382327Y-83418643D01*
X87393013Y-83469002D01*
X87393013Y-93876080D01*
X87392697Y-93884927D01*
X87378381Y-94085065D01*
X87375863Y-94102577D01*
X87334155Y-94294299D01*
X87329171Y-94311273D01*
X87260601Y-94495117D01*
X87253251Y-94511212D01*
X87159218Y-94683418D01*
X87149653Y-94698300D01*
X87032070Y-94855373D01*
X87020484Y-94868744D01*
X86881744Y-95007484D01*
X86868373Y-95019070D01*
X86711300Y-95136653D01*
X86696418Y-95146218D01*
X86524212Y-95240251D01*
X86508117Y-95247601D01*
X86324273Y-95316171D01*
X86307299Y-95321155D01*
X86115577Y-95362863D01*
X86098065Y-95365381D01*
X85897928Y-95379697D01*
X85889081Y-95380013D01*
X78987013Y-95380013D01*
X78759518Y-95380012D01*
X78759517Y-95380012D01*
X78759511Y-95380012D01*
X78470951Y-95403922D01*
X78306056Y-95417585D01*
X77857263Y-95492475D01*
X77857259Y-95492476D01*
X77699488Y-95532428D01*
X77416178Y-95604172D01*
X77416172Y-95604173D01*
X77416164Y-95604176D01*
X76985822Y-95751913D01*
X76569146Y-95934684D01*
X76569127Y-95934693D01*
X76168982Y-96151240D01*
X75788056Y-96400112D01*
X75788042Y-96400122D01*
X75429010Y-96679568D01*
X75429001Y-96679576D01*
X75094241Y-96987742D01*
X74786075Y-97322501D01*
X74786067Y-97322510D01*
X74506621Y-97681543D01*
X74506611Y-97681557D01*
X74257739Y-98062483D01*
X74041192Y-98462628D01*
X74041183Y-98462647D01*
X73858412Y-98879323D01*
X73710676Y-99309665D01*
X73710673Y-99309673D01*
X73710672Y-99309679D01*
X73640194Y-99587994D01*
X73598976Y-99750760D01*
X73598975Y-99750764D01*
X73524085Y-100199557D01*
X73516583Y-100290102D01*
X73486512Y-100653012D01*
X73486512Y-100653018D01*
X73486512Y-100653019D01*
X73486513Y-100814620D01*
X73486513Y-103773981D01*
X73486197Y-103782828D01*
X73471881Y-103982966D01*
X73469363Y-104000478D01*
X73427655Y-104192199D01*
X73422671Y-104209173D01*
X73354101Y-104393017D01*
X73346751Y-104409111D01*
X73252720Y-104581314D01*
X73243155Y-104596197D01*
X73125568Y-104753275D01*
X73113982Y-104766646D01*
X72975246Y-104905382D01*
X72961875Y-104916968D01*
X72804797Y-105034555D01*
X72789914Y-105044120D01*
X72617711Y-105138151D01*
X72601617Y-105145501D01*
X72417773Y-105214071D01*
X72400799Y-105219055D01*
X72209078Y-105260763D01*
X72191566Y-105263281D01*
X71991429Y-105277597D01*
X71982582Y-105277913D01*
X58220511Y-105277913D01*
X58220495Y-105277912D01*
X58151435Y-105277912D01*
X58142590Y-105277596D01*
X57942449Y-105263283D01*
X57924937Y-105260765D01*
X57733216Y-105219060D01*
X57716240Y-105214076D01*
X57532399Y-105145508D01*
X57516306Y-105138159D01*
X57344095Y-105044126D01*
X57329212Y-105034561D01*
X57172135Y-104916977D01*
X57158763Y-104905391D01*
X57020020Y-104766650D01*
X57008434Y-104753279D01*
X56890850Y-104596206D01*
X56881285Y-104581323D01*
X56849812Y-104523686D01*
X56787246Y-104409107D01*
X56779899Y-104393019D01*
X56779898Y-104393017D01*
X56711328Y-104209173D01*
X56706345Y-104192202D01*
X56697567Y-104151852D01*
X56664635Y-104000475D01*
X56662118Y-103982966D01*
X56647829Y-103783189D01*
X56647513Y-103774343D01*
X56647513Y-100806605D01*
X56647487Y-100806212D01*
X56647487Y-100755005D01*
X56647488Y-100690201D01*
X57562472Y-100690201D01*
X57582145Y-100902511D01*
X57635576Y-101090300D01*
X57640497Y-101107593D01*
X57640497Y-101107595D01*
X57735533Y-101298454D01*
X57735535Y-101298456D01*
X57864029Y-101468608D01*
X58021599Y-101612253D01*
X58202882Y-101724499D01*
X58401703Y-101801522D01*
X58598514Y-101838312D01*
X58660794Y-101869980D01*
X58696067Y-101930293D01*
X58693133Y-102000101D01*
X58652924Y-102057241D01*
X58598514Y-102082089D01*
X58401703Y-102118880D01*
X58401700Y-102118880D01*
X58401700Y-102118881D01*
X58202883Y-102195902D01*
X58202881Y-102195903D01*
X58021600Y-102308148D01*
X57864028Y-102451794D01*
X57735533Y-102621947D01*
X57640497Y-102812806D01*
X57640497Y-102812808D01*
X57582145Y-103017890D01*
X57568572Y-103164375D01*
X57562472Y-103230201D01*
X57582145Y-103442511D01*
X57635576Y-103630300D01*
X57640497Y-103647593D01*
X57640497Y-103647595D01*
X57735533Y-103838454D01*
X57735535Y-103838456D01*
X57864029Y-104008608D01*
X58021599Y-104152253D01*
X58202882Y-104264499D01*
X58401703Y-104341522D01*
X58611291Y-104380701D01*
X58611293Y-104380701D01*
X58824509Y-104380701D01*
X58824511Y-104380701D01*
X59034099Y-104341522D01*
X59232920Y-104264499D01*
X59414203Y-104152253D01*
X59571773Y-104008608D01*
X59700267Y-103838456D01*
X59700399Y-103838190D01*
X59754171Y-103730201D01*
X60222189Y-103730201D01*
X60275960Y-103838190D01*
X60404401Y-104008272D01*
X60561901Y-104151852D01*
X60561903Y-104151854D01*
X60743103Y-104264048D01*
X60743105Y-104264049D01*
X60757901Y-104269780D01*
X60757901Y-104269779D01*
X61757901Y-104269779D01*
X61772696Y-104264049D01*
X61772698Y-104264048D01*
X61953898Y-104151854D01*
X61953900Y-104151852D01*
X62111400Y-104008272D01*
X62239841Y-103838190D01*
X62293613Y-103730201D01*
X61757901Y-103730201D01*
X61757901Y-104269779D01*
X60757901Y-104269779D01*
X60757901Y-103730201D01*
X60222189Y-103730201D01*
X59754171Y-103730201D01*
X59795304Y-103647595D01*
X59795304Y-103647594D01*
X59795306Y-103647590D01*
X59853657Y-103442511D01*
X59873330Y-103230201D01*
X59853657Y-103017891D01*
X59795306Y-102812812D01*
X59795304Y-102812807D01*
X59795304Y-102812806D01*
X59754171Y-102730200D01*
X60222188Y-102730200D01*
X60222189Y-102730201D01*
X61192075Y-102730201D01*
X61064908Y-102764276D01*
X60950894Y-102830102D01*
X60857802Y-102923194D01*
X60791976Y-103037208D01*
X60757901Y-103164375D01*
X60757901Y-103296027D01*
X60791976Y-103423194D01*
X60857802Y-103537208D01*
X60950894Y-103630300D01*
X61064908Y-103696126D01*
X61192075Y-103730201D01*
X61323727Y-103730201D01*
X61450894Y-103696126D01*
X61564908Y-103630300D01*
X61658000Y-103537208D01*
X61723826Y-103423194D01*
X61757901Y-103296027D01*
X61757901Y-103164375D01*
X61723826Y-103037208D01*
X61658000Y-102923194D01*
X61564908Y-102830102D01*
X61450894Y-102764276D01*
X61323727Y-102730201D01*
X62293613Y-102730201D01*
X62293613Y-102730200D01*
X62239841Y-102622211D01*
X62111400Y-102452129D01*
X61953900Y-102308549D01*
X61953898Y-102308547D01*
X61772699Y-102196354D01*
X61772690Y-102196350D01*
X61573964Y-102119364D01*
X61573959Y-102119363D01*
X61374567Y-102082090D01*
X61312286Y-102050422D01*
X61277013Y-101990109D01*
X61279947Y-101920301D01*
X61320156Y-101863161D01*
X61374567Y-101838312D01*
X61573959Y-101801038D01*
X61573964Y-101801037D01*
X61772690Y-101724051D01*
X61772699Y-101724047D01*
X61953898Y-101611854D01*
X61953900Y-101611852D01*
X62111400Y-101468272D01*
X62239841Y-101298190D01*
X62293613Y-101190201D01*
X61323727Y-101190201D01*
X61450894Y-101156126D01*
X61564908Y-101090300D01*
X61658000Y-100997208D01*
X61723826Y-100883194D01*
X61757901Y-100756027D01*
X61757901Y-100690201D01*
X62642472Y-100690201D01*
X62662145Y-100902511D01*
X62715576Y-101090300D01*
X62720497Y-101107593D01*
X62720497Y-101107595D01*
X62815533Y-101298454D01*
X62815535Y-101298456D01*
X62944029Y-101468608D01*
X63101599Y-101612253D01*
X63282882Y-101724499D01*
X63481703Y-101801522D01*
X63678514Y-101838312D01*
X63740794Y-101869980D01*
X63776067Y-101930293D01*
X63773133Y-102000101D01*
X63732924Y-102057241D01*
X63678514Y-102082089D01*
X63481703Y-102118880D01*
X63481700Y-102118880D01*
X63481700Y-102118881D01*
X63282883Y-102195902D01*
X63282881Y-102195903D01*
X63101600Y-102308148D01*
X62944028Y-102451794D01*
X62815533Y-102621947D01*
X62720497Y-102812806D01*
X62720497Y-102812808D01*
X62662145Y-103017890D01*
X62648572Y-103164375D01*
X62642472Y-103230201D01*
X62662145Y-103442511D01*
X62715576Y-103630300D01*
X62720497Y-103647593D01*
X62720497Y-103647595D01*
X62815533Y-103838454D01*
X62815535Y-103838456D01*
X62944029Y-104008608D01*
X63101599Y-104152253D01*
X63282882Y-104264499D01*
X63481703Y-104341522D01*
X63691291Y-104380701D01*
X63691293Y-104380701D01*
X63904509Y-104380701D01*
X63904511Y-104380701D01*
X64114099Y-104341522D01*
X64312920Y-104264499D01*
X64494203Y-104152253D01*
X64651773Y-104008608D01*
X64780267Y-103838456D01*
X64780399Y-103838190D01*
X64834171Y-103730201D01*
X65302189Y-103730201D01*
X65355960Y-103838190D01*
X65484401Y-104008272D01*
X65641901Y-104151852D01*
X65641903Y-104151854D01*
X65823103Y-104264048D01*
X65823105Y-104264049D01*
X65837901Y-104269780D01*
X65837901Y-104269779D01*
X66837901Y-104269779D01*
X66852696Y-104264049D01*
X66852698Y-104264048D01*
X67033898Y-104151854D01*
X67033900Y-104151852D01*
X67191400Y-104008272D01*
X67319841Y-103838190D01*
X67373613Y-103730201D01*
X66837901Y-103730201D01*
X66837901Y-104269779D01*
X65837901Y-104269779D01*
X65837901Y-103730201D01*
X65302189Y-103730201D01*
X64834171Y-103730201D01*
X64875304Y-103647595D01*
X64875304Y-103647594D01*
X64875306Y-103647590D01*
X64933657Y-103442511D01*
X64953330Y-103230201D01*
X64933657Y-103017891D01*
X64875306Y-102812812D01*
X64875304Y-102812807D01*
X64875304Y-102812806D01*
X64780268Y-102621947D01*
X64651773Y-102451794D01*
X64494203Y-102308149D01*
X64312920Y-102195903D01*
X64312918Y-102195902D01*
X64115348Y-102119364D01*
X64114099Y-102118880D01*
X63917286Y-102082089D01*
X63855007Y-102050422D01*
X63819734Y-101990109D01*
X63822668Y-101920301D01*
X63862877Y-101863161D01*
X63917285Y-101838312D01*
X64114099Y-101801522D01*
X64312920Y-101724499D01*
X64494203Y-101612253D01*
X64651773Y-101468608D01*
X64780267Y-101298456D01*
X64839751Y-101178995D01*
X64875304Y-101107595D01*
X64875304Y-101107594D01*
X64875306Y-101107590D01*
X64933657Y-100902511D01*
X64944430Y-100786248D01*
X64970216Y-100721312D01*
X65012523Y-100691005D01*
X65121031Y-100691005D01*
X65157404Y-100711869D01*
X65189594Y-100773882D01*
X65191371Y-100786248D01*
X65202145Y-100902511D01*
X65255576Y-101090300D01*
X65260497Y-101107593D01*
X65260497Y-101107595D01*
X65355533Y-101298454D01*
X65355535Y-101298456D01*
X65484029Y-101468608D01*
X65641599Y-101612253D01*
X65822882Y-101724499D01*
X66021703Y-101801522D01*
X66219874Y-101838566D01*
X66282154Y-101870234D01*
X66317427Y-101930547D01*
X66314493Y-102000355D01*
X66274284Y-102057495D01*
X66219873Y-102082344D01*
X66021842Y-102119363D01*
X66021837Y-102119364D01*
X65823111Y-102196350D01*
X65823102Y-102196354D01*
X65641903Y-102308547D01*
X65641901Y-102308549D01*
X65484401Y-102452129D01*
X65355960Y-102622211D01*
X65302188Y-102730200D01*
X65302189Y-102730201D01*
X66272075Y-102730201D01*
X66144908Y-102764276D01*
X66030894Y-102830102D01*
X65937802Y-102923194D01*
X65871976Y-103037208D01*
X65837901Y-103164375D01*
X65837901Y-103296027D01*
X65871976Y-103423194D01*
X65937802Y-103537208D01*
X66030894Y-103630300D01*
X66144908Y-103696126D01*
X66272075Y-103730201D01*
X66403727Y-103730201D01*
X66530894Y-103696126D01*
X66644908Y-103630300D01*
X66738000Y-103537208D01*
X66803826Y-103423194D01*
X66837901Y-103296027D01*
X66837901Y-103230201D01*
X67722472Y-103230201D01*
X67742145Y-103442511D01*
X67795576Y-103630300D01*
X67800497Y-103647593D01*
X67800497Y-103647595D01*
X67895533Y-103838454D01*
X67895535Y-103838456D01*
X68024029Y-104008608D01*
X68181599Y-104152253D01*
X68362882Y-104264499D01*
X68561703Y-104341522D01*
X68771291Y-104380701D01*
X68771293Y-104380701D01*
X68984509Y-104380701D01*
X68984511Y-104380701D01*
X69194099Y-104341522D01*
X69392920Y-104264499D01*
X69574203Y-104152253D01*
X69731773Y-104008608D01*
X69860267Y-103838456D01*
X69860399Y-103838190D01*
X69955304Y-103647595D01*
X69955304Y-103647594D01*
X69955306Y-103647590D01*
X70013657Y-103442511D01*
X70024430Y-103326248D01*
X70050216Y-103261312D01*
X70094770Y-103229395D01*
X70058398Y-103208532D01*
X70026208Y-103146519D01*
X70024430Y-103134152D01*
X70023750Y-103126814D01*
X70013657Y-103017891D01*
X69955306Y-102812812D01*
X69955304Y-102812807D01*
X69955304Y-102812806D01*
X69860268Y-102621947D01*
X69731773Y-102451794D01*
X69574203Y-102308149D01*
X69392920Y-102195903D01*
X69392918Y-102195902D01*
X69194102Y-102118881D01*
X69194101Y-102118880D01*
X69194099Y-102118880D01*
X68995927Y-102081835D01*
X68933647Y-102050166D01*
X68898374Y-101989854D01*
X68901308Y-101920046D01*
X68941517Y-101862906D01*
X68995928Y-101838057D01*
X69193959Y-101801038D01*
X69193964Y-101801037D01*
X69392690Y-101724051D01*
X69392699Y-101724047D01*
X69573898Y-101611854D01*
X69573900Y-101611852D01*
X69731400Y-101468272D01*
X69859841Y-101298190D01*
X69954834Y-101107417D01*
X69954842Y-101107397D01*
X70013162Y-100902420D01*
X70013163Y-100902416D01*
X70019930Y-100829386D01*
X70045716Y-100764448D01*
X70102516Y-100723760D01*
X70172297Y-100720240D01*
X70232904Y-100755005D01*
X70265094Y-100817017D01*
X70267401Y-100840826D01*
X70267401Y-101585057D01*
X70267403Y-101585083D01*
X70270314Y-101610188D01*
X70270316Y-101610192D01*
X70315694Y-101712965D01*
X70315695Y-101712966D01*
X70395136Y-101792407D01*
X70497910Y-101837786D01*
X70523036Y-101840701D01*
X71251659Y-101840700D01*
X71318696Y-101860384D01*
X71364451Y-101913188D01*
X71374395Y-101982347D01*
X71345370Y-102045903D01*
X71286592Y-102083677D01*
X71274443Y-102086589D01*
X71218017Y-102097136D01*
X71101703Y-102118880D01*
X71101701Y-102118880D01*
X71101699Y-102118881D01*
X70902883Y-102195902D01*
X70902881Y-102195903D01*
X70721600Y-102308148D01*
X70564028Y-102451794D01*
X70435533Y-102621947D01*
X70340497Y-102812806D01*
X70340497Y-102812808D01*
X70282145Y-103017890D01*
X70271372Y-103134152D01*
X70245586Y-103199089D01*
X70201031Y-103231005D01*
X70237404Y-103251869D01*
X70269594Y-103313882D01*
X70271371Y-103326248D01*
X70282145Y-103442511D01*
X70335576Y-103630300D01*
X70340497Y-103647593D01*
X70340497Y-103647595D01*
X70435533Y-103838454D01*
X70435535Y-103838456D01*
X70564029Y-104008608D01*
X70721599Y-104152253D01*
X70902882Y-104264499D01*
X71101703Y-104341522D01*
X71311291Y-104380701D01*
X71311293Y-104380701D01*
X71524509Y-104380701D01*
X71524511Y-104380701D01*
X71734099Y-104341522D01*
X71932920Y-104264499D01*
X72114203Y-104152253D01*
X72271773Y-104008608D01*
X72400267Y-103838456D01*
X72400399Y-103838190D01*
X72495304Y-103647595D01*
X72495304Y-103647594D01*
X72495306Y-103647590D01*
X72553657Y-103442511D01*
X72573330Y-103230201D01*
X72553657Y-103017891D01*
X72495306Y-102812812D01*
X72495304Y-102812807D01*
X72495304Y-102812806D01*
X72400268Y-102621947D01*
X72271773Y-102451794D01*
X72114203Y-102308149D01*
X71932920Y-102195903D01*
X71932918Y-102195902D01*
X71735348Y-102119364D01*
X71734099Y-102118880D01*
X71561357Y-102086588D01*
X71499077Y-102054920D01*
X71463804Y-101994608D01*
X71466738Y-101924800D01*
X71506947Y-101867660D01*
X71571665Y-101841329D01*
X71584134Y-101840700D01*
X72312765Y-101840700D01*
X72312780Y-101840698D01*
X72312783Y-101840698D01*
X72337888Y-101837787D01*
X72337889Y-101837786D01*
X72337892Y-101837786D01*
X72440666Y-101792407D01*
X72520107Y-101712966D01*
X72565486Y-101610192D01*
X72568401Y-101585066D01*
X72568400Y-99795337D01*
X72568398Y-99795318D01*
X72565487Y-99770213D01*
X72565486Y-99770211D01*
X72565486Y-99770210D01*
X72520107Y-99667436D01*
X72440666Y-99587995D01*
X72420025Y-99578881D01*
X72337893Y-99542616D01*
X72312766Y-99539701D01*
X70523044Y-99539701D01*
X70523018Y-99539703D01*
X70497913Y-99542614D01*
X70497909Y-99542616D01*
X70395136Y-99587994D01*
X70315695Y-99667435D01*
X70270316Y-99770207D01*
X70270316Y-99770209D01*
X70267401Y-99795332D01*
X70267401Y-100539573D01*
X70247716Y-100606612D01*
X70194912Y-100652367D01*
X70125754Y-100662311D01*
X70062198Y-100633286D01*
X70024424Y-100574508D01*
X70019930Y-100551014D01*
X70013163Y-100477984D01*
X70013162Y-100477981D01*
X69954842Y-100273004D01*
X69954834Y-100272984D01*
X69859841Y-100082211D01*
X69731400Y-99912129D01*
X69573900Y-99768549D01*
X69573898Y-99768547D01*
X69392702Y-99656356D01*
X69392694Y-99656352D01*
X69377901Y-99650620D01*
X69377901Y-100624375D01*
X69343826Y-100497208D01*
X69278000Y-100383194D01*
X69184908Y-100290102D01*
X69070894Y-100224276D01*
X68943727Y-100190201D01*
X68812075Y-100190201D01*
X68684908Y-100224276D01*
X68570894Y-100290102D01*
X68477802Y-100383194D01*
X68411976Y-100497208D01*
X68377901Y-100624375D01*
X68377901Y-100756027D01*
X68411976Y-100883194D01*
X68477802Y-100997208D01*
X68570894Y-101090300D01*
X68684908Y-101156126D01*
X68812075Y-101190201D01*
X67842189Y-101190201D01*
X67895960Y-101298190D01*
X68024401Y-101468272D01*
X68181901Y-101611852D01*
X68181903Y-101611854D01*
X68363102Y-101724047D01*
X68363111Y-101724051D01*
X68561837Y-101801037D01*
X68561842Y-101801038D01*
X68759873Y-101838057D01*
X68822154Y-101869725D01*
X68857427Y-101930037D01*
X68854493Y-101999846D01*
X68814284Y-102056986D01*
X68759874Y-102081835D01*
X68667833Y-102099040D01*
X68561703Y-102118880D01*
X68561701Y-102118880D01*
X68561699Y-102118881D01*
X68362883Y-102195902D01*
X68362881Y-102195903D01*
X68181600Y-102308148D01*
X68024028Y-102451794D01*
X67895533Y-102621947D01*
X67800497Y-102812806D01*
X67800497Y-102812808D01*
X67742145Y-103017890D01*
X67728572Y-103164375D01*
X67722472Y-103230201D01*
X66837901Y-103230201D01*
X66837901Y-103164375D01*
X66803826Y-103037208D01*
X66738000Y-102923194D01*
X66644908Y-102830102D01*
X66530894Y-102764276D01*
X66403727Y-102730201D01*
X67373613Y-102730201D01*
X67373613Y-102730200D01*
X67319841Y-102622211D01*
X67191400Y-102452129D01*
X67033900Y-102308549D01*
X67033898Y-102308547D01*
X66852699Y-102196354D01*
X66852690Y-102196350D01*
X66653964Y-102119364D01*
X66653959Y-102119363D01*
X66455928Y-102082344D01*
X66393647Y-102050676D01*
X66358374Y-101990363D01*
X66361308Y-101920555D01*
X66401517Y-101863415D01*
X66455925Y-101838567D01*
X66654099Y-101801522D01*
X66852920Y-101724499D01*
X67034203Y-101612253D01*
X67191773Y-101468608D01*
X67320267Y-101298456D01*
X67379751Y-101178995D01*
X67415304Y-101107595D01*
X67415304Y-101107594D01*
X67415306Y-101107590D01*
X67473657Y-100902511D01*
X67493330Y-100690201D01*
X67473657Y-100477891D01*
X67415306Y-100272812D01*
X67415304Y-100272807D01*
X67415304Y-100272806D01*
X67374171Y-100190200D01*
X67842188Y-100190200D01*
X67842189Y-100190201D01*
X68377901Y-100190201D01*
X68377901Y-99650621D01*
X68377900Y-99650620D01*
X68363107Y-99656352D01*
X68363099Y-99656356D01*
X68181903Y-99768547D01*
X68181901Y-99768549D01*
X68024401Y-99912129D01*
X67895960Y-100082211D01*
X67842188Y-100190200D01*
X67374171Y-100190200D01*
X67320268Y-100081947D01*
X67191773Y-99911794D01*
X67064034Y-99795344D01*
X67034203Y-99768149D01*
X66852920Y-99655903D01*
X66852918Y-99655902D01*
X66753509Y-99617391D01*
X66654099Y-99578880D01*
X66444511Y-99539701D01*
X66231291Y-99539701D01*
X66021703Y-99578880D01*
X66021700Y-99578880D01*
X66021700Y-99578881D01*
X65822883Y-99655902D01*
X65822881Y-99655903D01*
X65641600Y-99768148D01*
X65484028Y-99911794D01*
X65355533Y-100081947D01*
X65260497Y-100272806D01*
X65260497Y-100272808D01*
X65202145Y-100477890D01*
X65191372Y-100594152D01*
X65165586Y-100659089D01*
X65121031Y-100691005D01*
X65012523Y-100691005D01*
X65014770Y-100689395D01*
X64978398Y-100668532D01*
X64946208Y-100606519D01*
X64944430Y-100594152D01*
X64942610Y-100574508D01*
X64933657Y-100477891D01*
X64875306Y-100272812D01*
X64875304Y-100272807D01*
X64875304Y-100272806D01*
X64780268Y-100081947D01*
X64651773Y-99911794D01*
X64524034Y-99795344D01*
X64494203Y-99768149D01*
X64312920Y-99655903D01*
X64312918Y-99655902D01*
X64213509Y-99617391D01*
X64114099Y-99578880D01*
X63904511Y-99539701D01*
X63691291Y-99539701D01*
X63481703Y-99578880D01*
X63481700Y-99578880D01*
X63481700Y-99578881D01*
X63282883Y-99655902D01*
X63282881Y-99655903D01*
X63101600Y-99768148D01*
X62944028Y-99911794D01*
X62815533Y-100081947D01*
X62720497Y-100272806D01*
X62720497Y-100272808D01*
X62662145Y-100477890D01*
X62648572Y-100624375D01*
X62642472Y-100690201D01*
X61757901Y-100690201D01*
X61757901Y-100624375D01*
X61723826Y-100497208D01*
X61658000Y-100383194D01*
X61564908Y-100290102D01*
X61450894Y-100224276D01*
X61323727Y-100190201D01*
X61757901Y-100190201D01*
X62293613Y-100190201D01*
X62293613Y-100190200D01*
X62239841Y-100082211D01*
X62111400Y-99912129D01*
X61953900Y-99768549D01*
X61953898Y-99768547D01*
X61772702Y-99656356D01*
X61772694Y-99656352D01*
X61757901Y-99650620D01*
X61757901Y-100190201D01*
X61323727Y-100190201D01*
X61192075Y-100190201D01*
X61064908Y-100224276D01*
X60950894Y-100290102D01*
X60857802Y-100383194D01*
X60791976Y-100497208D01*
X60757901Y-100624375D01*
X60757901Y-100756027D01*
X60791976Y-100883194D01*
X60857802Y-100997208D01*
X60950894Y-101090300D01*
X61064908Y-101156126D01*
X61192075Y-101190201D01*
X60222189Y-101190201D01*
X60275960Y-101298190D01*
X60404401Y-101468272D01*
X60561901Y-101611852D01*
X60561903Y-101611854D01*
X60743102Y-101724047D01*
X60743111Y-101724051D01*
X60941837Y-101801037D01*
X60941842Y-101801038D01*
X61141234Y-101838312D01*
X61203515Y-101869980D01*
X61238788Y-101930293D01*
X61235854Y-102000101D01*
X61195645Y-102057241D01*
X61141234Y-102082090D01*
X60941842Y-102119363D01*
X60941837Y-102119364D01*
X60743111Y-102196350D01*
X60743102Y-102196354D01*
X60561903Y-102308547D01*
X60561901Y-102308549D01*
X60404401Y-102452129D01*
X60275960Y-102622211D01*
X60222188Y-102730200D01*
X59754171Y-102730200D01*
X59700268Y-102621947D01*
X59571773Y-102451794D01*
X59414203Y-102308149D01*
X59232920Y-102195903D01*
X59232918Y-102195902D01*
X59035348Y-102119364D01*
X59034099Y-102118880D01*
X58837286Y-102082089D01*
X58775007Y-102050422D01*
X58739734Y-101990109D01*
X58742668Y-101920301D01*
X58782877Y-101863161D01*
X58837285Y-101838312D01*
X59034099Y-101801522D01*
X59232920Y-101724499D01*
X59414203Y-101612253D01*
X59571773Y-101468608D01*
X59700267Y-101298456D01*
X59759751Y-101178995D01*
X59795304Y-101107595D01*
X59795304Y-101107594D01*
X59795306Y-101107590D01*
X59853657Y-100902511D01*
X59873330Y-100690201D01*
X59853657Y-100477891D01*
X59795306Y-100272812D01*
X59795304Y-100272807D01*
X59795304Y-100272806D01*
X59754171Y-100190200D01*
X60222188Y-100190200D01*
X60222189Y-100190201D01*
X60757901Y-100190201D01*
X60757901Y-99650621D01*
X60757900Y-99650620D01*
X60743107Y-99656352D01*
X60743099Y-99656356D01*
X60561903Y-99768547D01*
X60561901Y-99768549D01*
X60404401Y-99912129D01*
X60275960Y-100082211D01*
X60222188Y-100190200D01*
X59754171Y-100190200D01*
X59700268Y-100081947D01*
X59571773Y-99911794D01*
X59444034Y-99795344D01*
X59414203Y-99768149D01*
X59232920Y-99655903D01*
X59232918Y-99655902D01*
X59133509Y-99617391D01*
X59034099Y-99578880D01*
X58824511Y-99539701D01*
X58611291Y-99539701D01*
X58401703Y-99578880D01*
X58401700Y-99578880D01*
X58401700Y-99578881D01*
X58202883Y-99655902D01*
X58202881Y-99655903D01*
X58021600Y-99768148D01*
X57864028Y-99911794D01*
X57735533Y-100081947D01*
X57640497Y-100272806D01*
X57640497Y-100272808D01*
X57582145Y-100477890D01*
X57568572Y-100624375D01*
X57562472Y-100690201D01*
X56647488Y-100690201D01*
X56647488Y-100653011D01*
X56609915Y-100199562D01*
X56535025Y-99750763D01*
X56423329Y-99309683D01*
X56423323Y-99309665D01*
X56275591Y-98879331D01*
X56198220Y-98702943D01*
X56092819Y-98462651D01*
X56092807Y-98462628D01*
X56016054Y-98320800D01*
X59895553Y-98320800D01*
X59916034Y-98463256D01*
X59975822Y-98594171D01*
X59975823Y-98594173D01*
X60070072Y-98702943D01*
X60191147Y-98780753D01*
X60191150Y-98780754D01*
X60191149Y-98780754D01*
X60329236Y-98821299D01*
X60329238Y-98821300D01*
X60329239Y-98821300D01*
X60473162Y-98821300D01*
X60473162Y-98821299D01*
X60611253Y-98780753D01*
X60732328Y-98702943D01*
X60826577Y-98594173D01*
X60886365Y-98463257D01*
X60906847Y-98320800D01*
X60886365Y-98178343D01*
X60826577Y-98047427D01*
X60732328Y-97938657D01*
X60611253Y-97860847D01*
X60611251Y-97860846D01*
X60611249Y-97860845D01*
X60611250Y-97860845D01*
X60473163Y-97820300D01*
X60473161Y-97820300D01*
X60329239Y-97820300D01*
X60329236Y-97820300D01*
X60191149Y-97860845D01*
X60070073Y-97938656D01*
X59975823Y-98047426D01*
X59975822Y-98047428D01*
X59916034Y-98178343D01*
X59895553Y-98320800D01*
X56016054Y-98320800D01*
X55876270Y-98062501D01*
X55876257Y-98062479D01*
X55627402Y-97681576D01*
X55627399Y-97681572D01*
X55347931Y-97322510D01*
X55217109Y-97180398D01*
X58112219Y-97180398D01*
X58112219Y-97180401D01*
X58132856Y-97337160D01*
X58132857Y-97337162D01*
X58193365Y-97483241D01*
X58289619Y-97608682D01*
X58415060Y-97704936D01*
X58561139Y-97765444D01*
X58639520Y-97775763D01*
X58717900Y-97786082D01*
X58717901Y-97786082D01*
X58717902Y-97786082D01*
X58770155Y-97779202D01*
X58874663Y-97765444D01*
X59020742Y-97704936D01*
X59146183Y-97608682D01*
X59151157Y-97602200D01*
X62827353Y-97602200D01*
X62847834Y-97744656D01*
X62857328Y-97765444D01*
X62907623Y-97875573D01*
X63001872Y-97984343D01*
X63122947Y-98062153D01*
X63122950Y-98062154D01*
X63122949Y-98062154D01*
X63261036Y-98102699D01*
X63261038Y-98102700D01*
X63261039Y-98102700D01*
X63404962Y-98102700D01*
X63404962Y-98102699D01*
X63541868Y-98062501D01*
X63543050Y-98062154D01*
X63543050Y-98062153D01*
X63543053Y-98062153D01*
X63664128Y-97984343D01*
X63758377Y-97875573D01*
X63818165Y-97744657D01*
X63838647Y-97602200D01*
X63818165Y-97459743D01*
X63758377Y-97328827D01*
X63664128Y-97220057D01*
X63543053Y-97142247D01*
X63543051Y-97142246D01*
X63543049Y-97142245D01*
X63543050Y-97142245D01*
X63404963Y-97101700D01*
X63404961Y-97101700D01*
X63261039Y-97101700D01*
X63261036Y-97101700D01*
X63122949Y-97142245D01*
X63001873Y-97220056D01*
X62907623Y-97328826D01*
X62907622Y-97328828D01*
X62847834Y-97459743D01*
X62827353Y-97602200D01*
X59151157Y-97602200D01*
X59242437Y-97483241D01*
X59302945Y-97337162D01*
X59323583Y-97180400D01*
X59302945Y-97023638D01*
X59242437Y-96877559D01*
X59146183Y-96752118D01*
X59020742Y-96655864D01*
X59012304Y-96652369D01*
X58874663Y-96595356D01*
X58874661Y-96595355D01*
X58717902Y-96574718D01*
X58717900Y-96574718D01*
X58561140Y-96595355D01*
X58561138Y-96595356D01*
X58415061Y-96655863D01*
X58289619Y-96752118D01*
X58193364Y-96877560D01*
X58132857Y-97023637D01*
X58132856Y-97023639D01*
X58112219Y-97180398D01*
X55217109Y-97180398D01*
X55039767Y-96987752D01*
X54705010Y-96679586D01*
X54596791Y-96595355D01*
X54345951Y-96400117D01*
X54260895Y-96344547D01*
X53965036Y-96151252D01*
X53564873Y-95934693D01*
X53148193Y-95751919D01*
X53148187Y-95751917D01*
X53148185Y-95751916D01*
X53148186Y-95751916D01*
X52717860Y-95604183D01*
X52717850Y-95604180D01*
X52717843Y-95604178D01*
X52394560Y-95522311D01*
X52276763Y-95492481D01*
X51827960Y-95417587D01*
X51827955Y-95417586D01*
X51374526Y-95380013D01*
X51374515Y-95380013D01*
X51212904Y-95380013D01*
X42875011Y-95380013D01*
X42874995Y-95380012D01*
X42805935Y-95380012D01*
X42797090Y-95379696D01*
X42596949Y-95365383D01*
X42579437Y-95362865D01*
X42387716Y-95321160D01*
X42370740Y-95316176D01*
X42186899Y-95247608D01*
X42170806Y-95240259D01*
X41998595Y-95146226D01*
X41983712Y-95136661D01*
X41826635Y-95019077D01*
X41813263Y-95007491D01*
X41679968Y-94874198D01*
X67232518Y-94874198D01*
X67232518Y-94874201D01*
X67253155Y-95030960D01*
X67253156Y-95030962D01*
X67299139Y-95141976D01*
X67313664Y-95177041D01*
X67409918Y-95302482D01*
X67535359Y-95398736D01*
X67681438Y-95459244D01*
X67759819Y-95469563D01*
X67838199Y-95479882D01*
X67838200Y-95479882D01*
X67838201Y-95479882D01*
X67890454Y-95473002D01*
X67994962Y-95459244D01*
X68141041Y-95398736D01*
X68266482Y-95302482D01*
X68362736Y-95177041D01*
X68423244Y-95030962D01*
X68443882Y-94874200D01*
X68443164Y-94868750D01*
X68423244Y-94717439D01*
X68423244Y-94717438D01*
X68371014Y-94591345D01*
X68363546Y-94521877D01*
X68394821Y-94459398D01*
X68406911Y-94448041D01*
X68431799Y-94427615D01*
X69431800Y-94427615D01*
X69529728Y-94408136D01*
X69529738Y-94408133D01*
X69684427Y-94344059D01*
X69684428Y-94344059D01*
X69823639Y-94251041D01*
X69823647Y-94251035D01*
X69942036Y-94132646D01*
X69969997Y-94090800D01*
X69431800Y-94090800D01*
X69431800Y-94427615D01*
X68431799Y-94427615D01*
X68431800Y-94427614D01*
X68431800Y-94090800D01*
X67893602Y-94090800D01*
X67891552Y-94094635D01*
X67908362Y-94148320D01*
X67889877Y-94215700D01*
X67837899Y-94262390D01*
X67800568Y-94273472D01*
X67681438Y-94289156D01*
X67681437Y-94289156D01*
X67535360Y-94349663D01*
X67409918Y-94445918D01*
X67313663Y-94571360D01*
X67253156Y-94717437D01*
X67253155Y-94717439D01*
X67232518Y-94874198D01*
X41679968Y-94874198D01*
X41674520Y-94868750D01*
X41662934Y-94855379D01*
X41545350Y-94698306D01*
X41535785Y-94683423D01*
X41474592Y-94571359D01*
X41441746Y-94511207D01*
X41434399Y-94495119D01*
X41434398Y-94495117D01*
X41365828Y-94311273D01*
X41360845Y-94294302D01*
X41360844Y-94294299D01*
X41319135Y-94102575D01*
X41317442Y-94090800D01*
X62293603Y-94090800D01*
X62321563Y-94132646D01*
X62439952Y-94251035D01*
X62439960Y-94251041D01*
X62579171Y-94344059D01*
X62733861Y-94408133D01*
X62733871Y-94408136D01*
X62831799Y-94427615D01*
X62831800Y-94427615D01*
X63831800Y-94427615D01*
X63929728Y-94408136D01*
X63929738Y-94408133D01*
X64084427Y-94344059D01*
X64084428Y-94344059D01*
X64223639Y-94251041D01*
X64223647Y-94251035D01*
X64342036Y-94132646D01*
X64369997Y-94090800D01*
X63831800Y-94090800D01*
X63831800Y-94427615D01*
X62831800Y-94427615D01*
X62831800Y-94090800D01*
X62293603Y-94090800D01*
X41317442Y-94090800D01*
X41316618Y-94085066D01*
X41302329Y-93885289D01*
X41302013Y-93876443D01*
X41302013Y-93541072D01*
X62731800Y-93541072D01*
X62731800Y-93640528D01*
X62769860Y-93732414D01*
X62840186Y-93802740D01*
X62932072Y-93840800D01*
X63731528Y-93840800D01*
X63823414Y-93802740D01*
X63893740Y-93732414D01*
X63931800Y-93640528D01*
X63931800Y-93541072D01*
X68331800Y-93541072D01*
X68331800Y-93640528D01*
X68369860Y-93732414D01*
X68440186Y-93802740D01*
X68532072Y-93840800D01*
X69331528Y-93840800D01*
X69423414Y-93802740D01*
X69493740Y-93732414D01*
X69531800Y-93640528D01*
X69531800Y-93541072D01*
X69494822Y-93451798D01*
X70784518Y-93451798D01*
X70784518Y-93451801D01*
X70805155Y-93608560D01*
X70805156Y-93608562D01*
X70865664Y-93754641D01*
X70961918Y-93880082D01*
X71087359Y-93976336D01*
X71233438Y-94036844D01*
X71311819Y-94047163D01*
X71390199Y-94057482D01*
X71390200Y-94057482D01*
X71390201Y-94057482D01*
X71442454Y-94050602D01*
X71546962Y-94036844D01*
X71693041Y-93976336D01*
X71818482Y-93880082D01*
X71914736Y-93754641D01*
X71975244Y-93608562D01*
X71995882Y-93451800D01*
X71995882Y-93451798D01*
X72684518Y-93451798D01*
X72684518Y-93451801D01*
X72705155Y-93608560D01*
X72705156Y-93608562D01*
X72765664Y-93754641D01*
X72861918Y-93880082D01*
X72987359Y-93976336D01*
X73133438Y-94036844D01*
X73211819Y-94047163D01*
X73290199Y-94057482D01*
X73290200Y-94057482D01*
X73290201Y-94057482D01*
X73342454Y-94050602D01*
X73446962Y-94036844D01*
X73593041Y-93976336D01*
X73718482Y-93880082D01*
X73814736Y-93754641D01*
X73875244Y-93608562D01*
X73895882Y-93451800D01*
X73875244Y-93295038D01*
X73814736Y-93148959D01*
X73718482Y-93023518D01*
X73593041Y-92927264D01*
X73446962Y-92866756D01*
X73446960Y-92866755D01*
X73290201Y-92846118D01*
X73290199Y-92846118D01*
X73133439Y-92866755D01*
X73133437Y-92866756D01*
X72987360Y-92927263D01*
X72861918Y-93023518D01*
X72765663Y-93148960D01*
X72705156Y-93295037D01*
X72705155Y-93295039D01*
X72684518Y-93451798D01*
X71995882Y-93451798D01*
X71975244Y-93295038D01*
X71914736Y-93148959D01*
X71818482Y-93023518D01*
X71693041Y-92927264D01*
X71546962Y-92866756D01*
X71546960Y-92866755D01*
X71390201Y-92846118D01*
X71390199Y-92846118D01*
X71233439Y-92866755D01*
X71233437Y-92866756D01*
X71087360Y-92927263D01*
X70961918Y-93023518D01*
X70865663Y-93148960D01*
X70805156Y-93295037D01*
X70805155Y-93295039D01*
X70784518Y-93451798D01*
X69494822Y-93451798D01*
X69493740Y-93449186D01*
X69423414Y-93378860D01*
X69331528Y-93340800D01*
X68532072Y-93340800D01*
X68440186Y-93378860D01*
X68369860Y-93449186D01*
X68331800Y-93541072D01*
X63931800Y-93541072D01*
X63893740Y-93449186D01*
X63823414Y-93378860D01*
X63731528Y-93340800D01*
X62932072Y-93340800D01*
X62840186Y-93378860D01*
X62769860Y-93449186D01*
X62731800Y-93541072D01*
X41302013Y-93541072D01*
X41302013Y-92773097D01*
X45925968Y-92773097D01*
X45925968Y-92773100D01*
X45946605Y-92929859D01*
X45946606Y-92929861D01*
X45995935Y-93048953D01*
X46007114Y-93075940D01*
X46103368Y-93201381D01*
X46228809Y-93297635D01*
X46374888Y-93358143D01*
X46453269Y-93368462D01*
X46531649Y-93378781D01*
X46531650Y-93378781D01*
X46531651Y-93378781D01*
X46583904Y-93371901D01*
X46688412Y-93358143D01*
X46834491Y-93297635D01*
X46959932Y-93201381D01*
X47044784Y-93090800D01*
X62293603Y-93090800D01*
X62831800Y-93090800D01*
X63831800Y-93090800D01*
X64369997Y-93090800D01*
X67893603Y-93090800D01*
X68431800Y-93090800D01*
X69431800Y-93090800D01*
X69969997Y-93090800D01*
X69942036Y-93048953D01*
X69823647Y-92930564D01*
X69823639Y-92930558D01*
X69684428Y-92837540D01*
X69529736Y-92773465D01*
X69529728Y-92773463D01*
X69431800Y-92753983D01*
X69431800Y-93090800D01*
X68431800Y-93090800D01*
X68431800Y-92753984D01*
X68431799Y-92753983D01*
X68333871Y-92773463D01*
X68333863Y-92773465D01*
X68179172Y-92837540D01*
X68179171Y-92837540D01*
X68039960Y-92930558D01*
X68039952Y-92930564D01*
X67921563Y-93048953D01*
X67893603Y-93090800D01*
X64369997Y-93090800D01*
X64342036Y-93048953D01*
X64223647Y-92930564D01*
X64223639Y-92930558D01*
X64084428Y-92837540D01*
X63929736Y-92773465D01*
X63929728Y-92773463D01*
X63831800Y-92753983D01*
X63831800Y-93090800D01*
X62831800Y-93090800D01*
X62831800Y-92753984D01*
X62831799Y-92753983D01*
X62733871Y-92773463D01*
X62733863Y-92773465D01*
X62579172Y-92837540D01*
X62579171Y-92837540D01*
X62439960Y-92930558D01*
X62439952Y-92930564D01*
X62321563Y-93048953D01*
X62293603Y-93090800D01*
X47044784Y-93090800D01*
X47056186Y-93075940D01*
X47116694Y-92929861D01*
X47137332Y-92773099D01*
X47134815Y-92753984D01*
X47116694Y-92616338D01*
X47116694Y-92616337D01*
X47056186Y-92470258D01*
X46959932Y-92344817D01*
X46834491Y-92248563D01*
X46688412Y-92188055D01*
X46688410Y-92188054D01*
X46531651Y-92167417D01*
X46531649Y-92167417D01*
X46374889Y-92188054D01*
X46374887Y-92188055D01*
X46228810Y-92248562D01*
X46103368Y-92344817D01*
X46007113Y-92470259D01*
X45946606Y-92616336D01*
X45946605Y-92616338D01*
X45925968Y-92773097D01*
X41302013Y-92773097D01*
X41302013Y-91940800D01*
X64893603Y-91940800D01*
X64921563Y-91982646D01*
X65039952Y-92101035D01*
X65039960Y-92101041D01*
X65179171Y-92194059D01*
X65333863Y-92258134D01*
X65333871Y-92258136D01*
X65498077Y-92290799D01*
X65498080Y-92290800D01*
X65631800Y-92290800D01*
X66631800Y-92290800D01*
X66765520Y-92290800D01*
X66765522Y-92290799D01*
X66929728Y-92258136D01*
X66929736Y-92258134D01*
X67084427Y-92194059D01*
X67084428Y-92194059D01*
X67223639Y-92101041D01*
X67223647Y-92101035D01*
X67342036Y-91982646D01*
X67369997Y-91940800D01*
X66631800Y-91940800D01*
X66631800Y-92290800D01*
X65631800Y-92290800D01*
X65631800Y-91940800D01*
X64893603Y-91940800D01*
X41302013Y-91940800D01*
X41302013Y-91566018D01*
X45914886Y-91566018D01*
X45984299Y-91592910D01*
X45984305Y-91592911D01*
X46196081Y-91632500D01*
X46411519Y-91632500D01*
X46623299Y-91592910D01*
X46692712Y-91566019D01*
X46303801Y-91177107D01*
X46303800Y-91177107D01*
X45914886Y-91566018D01*
X41302013Y-91566018D01*
X41302013Y-90470000D01*
X45136320Y-90470000D01*
X45156198Y-90684521D01*
X45206250Y-90860440D01*
X45596693Y-90470000D01*
X45520993Y-90394300D01*
X45728800Y-90394300D01*
X45728800Y-90545700D01*
X45767985Y-90691942D01*
X45843685Y-90823058D01*
X45950742Y-90930115D01*
X46081858Y-91005815D01*
X46228100Y-91045000D01*
X46379500Y-91045000D01*
X46525742Y-91005815D01*
X46656858Y-90930115D01*
X46763915Y-90823058D01*
X46839615Y-90691942D01*
X46878800Y-90545700D01*
X46878800Y-90469999D01*
X47010907Y-90469999D01*
X47010907Y-90470001D01*
X47401347Y-90860441D01*
X47401348Y-90860441D01*
X47451400Y-90684527D01*
X47451654Y-90683166D01*
X47451957Y-90682569D01*
X47452970Y-90679010D01*
X47453666Y-90679208D01*
X47483319Y-90620883D01*
X47543630Y-90585607D01*
X47613438Y-90588538D01*
X47670580Y-90628744D01*
X47693645Y-90679241D01*
X47694137Y-90679102D01*
X47695055Y-90682329D01*
X47695431Y-90683152D01*
X47695702Y-90684604D01*
X47695704Y-90684613D01*
X47695705Y-90684616D01*
X47723003Y-90780558D01*
X47754688Y-90891922D01*
X47850758Y-91084857D01*
X47850763Y-91084865D01*
X47980652Y-91256866D01*
X48066072Y-91334736D01*
X48139934Y-91402070D01*
X48323186Y-91515535D01*
X48323187Y-91515535D01*
X48323188Y-91515536D01*
X48365765Y-91532030D01*
X48524167Y-91593395D01*
X48736032Y-91633000D01*
X48736034Y-91633000D01*
X48951566Y-91633000D01*
X48951568Y-91633000D01*
X49163433Y-91593395D01*
X49364414Y-91515535D01*
X49547666Y-91402070D01*
X49706949Y-91256864D01*
X49836838Y-91084863D01*
X49932911Y-90891924D01*
X49991895Y-90684616D01*
X49991896Y-90684600D01*
X49991911Y-90684527D01*
X49991930Y-90684489D01*
X49993463Y-90679102D01*
X49994516Y-90679401D01*
X50023579Y-90622246D01*
X50083892Y-90586973D01*
X50153700Y-90589907D01*
X50210840Y-90630116D01*
X50233317Y-90679335D01*
X50234137Y-90679102D01*
X50235666Y-90684477D01*
X50235689Y-90684527D01*
X50235704Y-90684610D01*
X50235705Y-90684616D01*
X50271436Y-90810198D01*
X50294688Y-90891922D01*
X50390758Y-91084857D01*
X50390763Y-91084865D01*
X50520652Y-91256866D01*
X50606072Y-91334736D01*
X50679934Y-91402070D01*
X50863186Y-91515535D01*
X50863187Y-91515535D01*
X50863188Y-91515536D01*
X50905765Y-91532030D01*
X51064167Y-91593395D01*
X51276032Y-91633000D01*
X51276034Y-91633000D01*
X51491566Y-91633000D01*
X51491568Y-91633000D01*
X51703433Y-91593395D01*
X51904414Y-91515535D01*
X52087666Y-91402070D01*
X52246949Y-91256864D01*
X52376838Y-91084863D01*
X52472911Y-90891924D01*
X52531895Y-90684616D01*
X52531896Y-90684600D01*
X52531911Y-90684527D01*
X52531930Y-90684489D01*
X52533463Y-90679102D01*
X52534516Y-90679401D01*
X52563579Y-90622246D01*
X52623892Y-90586973D01*
X52693700Y-90589907D01*
X52750840Y-90630116D01*
X52773317Y-90679335D01*
X52774137Y-90679102D01*
X52775666Y-90684477D01*
X52775689Y-90684527D01*
X52775704Y-90684610D01*
X52775705Y-90684616D01*
X52811436Y-90810198D01*
X52834688Y-90891922D01*
X52930758Y-91084857D01*
X52930763Y-91084865D01*
X53060652Y-91256866D01*
X53146072Y-91334736D01*
X53219934Y-91402070D01*
X53403186Y-91515535D01*
X53403187Y-91515535D01*
X53403188Y-91515536D01*
X53445765Y-91532030D01*
X53604167Y-91593395D01*
X53816032Y-91633000D01*
X53816034Y-91633000D01*
X54031566Y-91633000D01*
X54031568Y-91633000D01*
X54243433Y-91593395D01*
X54444414Y-91515535D01*
X54627666Y-91402070D01*
X54639730Y-91391072D01*
X65331800Y-91391072D01*
X65331800Y-91490528D01*
X65369860Y-91582414D01*
X65440186Y-91652740D01*
X65532072Y-91690800D01*
X66731528Y-91690800D01*
X66823414Y-91652740D01*
X66893740Y-91582414D01*
X66931800Y-91490528D01*
X66931800Y-91391072D01*
X66893740Y-91299186D01*
X66823414Y-91228860D01*
X66731528Y-91190800D01*
X65532072Y-91190800D01*
X65440186Y-91228860D01*
X65369860Y-91299186D01*
X65331800Y-91391072D01*
X54639730Y-91391072D01*
X54786949Y-91256864D01*
X54916838Y-91084863D01*
X54988573Y-90940800D01*
X64893603Y-90940800D01*
X65631800Y-90940800D01*
X66631800Y-90940800D01*
X67369997Y-90940800D01*
X67342036Y-90898953D01*
X67253281Y-90810198D01*
X73226918Y-90810198D01*
X73226918Y-90810201D01*
X73247555Y-90966960D01*
X73247556Y-90966962D01*
X73308064Y-91113041D01*
X73404318Y-91238482D01*
X73529759Y-91334736D01*
X73675838Y-91395244D01*
X73727672Y-91402068D01*
X73832599Y-91415882D01*
X73832600Y-91415882D01*
X73832601Y-91415882D01*
X73884854Y-91409002D01*
X73989362Y-91395244D01*
X74135441Y-91334736D01*
X74260882Y-91238482D01*
X74357136Y-91113041D01*
X74417644Y-90966962D01*
X74438282Y-90810200D01*
X74434380Y-90780564D01*
X74421479Y-90682569D01*
X74417644Y-90653438D01*
X74357136Y-90507359D01*
X74260882Y-90381918D01*
X74135441Y-90285664D01*
X74074926Y-90260598D01*
X73989362Y-90225156D01*
X73989360Y-90225155D01*
X73832601Y-90204518D01*
X73832599Y-90204518D01*
X73675839Y-90225155D01*
X73675837Y-90225156D01*
X73529760Y-90285663D01*
X73404318Y-90381918D01*
X73308063Y-90507360D01*
X73247556Y-90653437D01*
X73247555Y-90653439D01*
X73226918Y-90810198D01*
X67253281Y-90810198D01*
X67223647Y-90780564D01*
X67223639Y-90780558D01*
X67084428Y-90687540D01*
X66929736Y-90623465D01*
X66929728Y-90623463D01*
X66765521Y-90590800D01*
X66631800Y-90590800D01*
X66631800Y-90940800D01*
X65631800Y-90940800D01*
X65631800Y-90590800D01*
X65498079Y-90590800D01*
X65333871Y-90623463D01*
X65333863Y-90623465D01*
X65179172Y-90687540D01*
X65179171Y-90687540D01*
X65039960Y-90780558D01*
X65039952Y-90780564D01*
X64921563Y-90898953D01*
X64893603Y-90940800D01*
X54988573Y-90940800D01*
X55012911Y-90891924D01*
X55071895Y-90684616D01*
X55091782Y-90470000D01*
X55071895Y-90255384D01*
X55012911Y-90048076D01*
X54972440Y-89966800D01*
X82628553Y-89966800D01*
X82649034Y-90109256D01*
X82692540Y-90204518D01*
X82708823Y-90240173D01*
X82803072Y-90348943D01*
X82924147Y-90426753D01*
X82924150Y-90426754D01*
X82924149Y-90426754D01*
X83062236Y-90467299D01*
X83062238Y-90467300D01*
X83062239Y-90467300D01*
X83206162Y-90467300D01*
X83206162Y-90467299D01*
X83344253Y-90426753D01*
X83465328Y-90348943D01*
X83559577Y-90240173D01*
X83619365Y-90109257D01*
X83639847Y-89966800D01*
X83619365Y-89824343D01*
X83559577Y-89693427D01*
X83465328Y-89584657D01*
X83344253Y-89506847D01*
X83344251Y-89506846D01*
X83344249Y-89506845D01*
X83344250Y-89506845D01*
X83206163Y-89466300D01*
X83206161Y-89466300D01*
X83062239Y-89466300D01*
X83062236Y-89466300D01*
X82924149Y-89506845D01*
X82803073Y-89584656D01*
X82708823Y-89693426D01*
X82708822Y-89693428D01*
X82649034Y-89824343D01*
X82628553Y-89966800D01*
X54972440Y-89966800D01*
X54936688Y-89895000D01*
X54916841Y-89855142D01*
X54916836Y-89855134D01*
X54786947Y-89683133D01*
X54627667Y-89537931D01*
X54627666Y-89537930D01*
X54444414Y-89424465D01*
X54444412Y-89424464D01*
X54444411Y-89424463D01*
X54244682Y-89347089D01*
X54243433Y-89346605D01*
X54031568Y-89307000D01*
X53816032Y-89307000D01*
X53604167Y-89346605D01*
X53604164Y-89346605D01*
X53604164Y-89346606D01*
X53403188Y-89424463D01*
X53403187Y-89424464D01*
X53219932Y-89537931D01*
X53060652Y-89683133D01*
X52930763Y-89855134D01*
X52930758Y-89855142D01*
X52834688Y-90048077D01*
X52775703Y-90255390D01*
X52775688Y-90255476D01*
X52775669Y-90255513D01*
X52774137Y-90260898D01*
X52773083Y-90260598D01*
X52744018Y-90317756D01*
X52683705Y-90353027D01*
X52613897Y-90350091D01*
X52556758Y-90309880D01*
X52534281Y-90260665D01*
X52533463Y-90260898D01*
X52531934Y-90255524D01*
X52531912Y-90255476D01*
X52531896Y-90255390D01*
X52531895Y-90255387D01*
X52531895Y-90255384D01*
X52472911Y-90048076D01*
X52396688Y-89895000D01*
X52376841Y-89855142D01*
X52376836Y-89855134D01*
X52246947Y-89683133D01*
X52087667Y-89537931D01*
X52087666Y-89537930D01*
X51904414Y-89424465D01*
X51904412Y-89424464D01*
X51904411Y-89424463D01*
X51704682Y-89347089D01*
X51703433Y-89346605D01*
X51491568Y-89307000D01*
X51276032Y-89307000D01*
X51064167Y-89346605D01*
X51064164Y-89346605D01*
X51064164Y-89346606D01*
X50863188Y-89424463D01*
X50863187Y-89424464D01*
X50679932Y-89537931D01*
X50520652Y-89683133D01*
X50390763Y-89855134D01*
X50390758Y-89855142D01*
X50294688Y-90048077D01*
X50235703Y-90255390D01*
X50235688Y-90255476D01*
X50235669Y-90255513D01*
X50234137Y-90260898D01*
X50233083Y-90260598D01*
X50204018Y-90317756D01*
X50143705Y-90353027D01*
X50073897Y-90350091D01*
X50016758Y-90309880D01*
X49994281Y-90260665D01*
X49993463Y-90260898D01*
X49991934Y-90255524D01*
X49991912Y-90255476D01*
X49991896Y-90255390D01*
X49991895Y-90255387D01*
X49991895Y-90255384D01*
X49932911Y-90048076D01*
X49856688Y-89895000D01*
X49836841Y-89855142D01*
X49836836Y-89855134D01*
X49706947Y-89683133D01*
X49547667Y-89537931D01*
X49547666Y-89537930D01*
X49364414Y-89424465D01*
X49364412Y-89424464D01*
X49364411Y-89424463D01*
X49164682Y-89347089D01*
X49163433Y-89346605D01*
X48951568Y-89307000D01*
X48736032Y-89307000D01*
X48524167Y-89346605D01*
X48524164Y-89346605D01*
X48524164Y-89346606D01*
X48323188Y-89424463D01*
X48323187Y-89424464D01*
X48139932Y-89537931D01*
X47980652Y-89683133D01*
X47850763Y-89855134D01*
X47850758Y-89855142D01*
X47754688Y-90048077D01*
X47695703Y-90255390D01*
X47695431Y-90256850D01*
X47695108Y-90257484D01*
X47694137Y-90260898D01*
X47693468Y-90260707D01*
X47663757Y-90319128D01*
X47603442Y-90354396D01*
X47533634Y-90351456D01*
X47476497Y-90311242D01*
X47453484Y-90260843D01*
X47452970Y-90260990D01*
X47452008Y-90257609D01*
X47451655Y-90256836D01*
X47451400Y-90255472D01*
X47401347Y-90079557D01*
X47010907Y-90469999D01*
X46878800Y-90469999D01*
X46878800Y-90394300D01*
X46839615Y-90248058D01*
X46763915Y-90116942D01*
X46656858Y-90009885D01*
X46525742Y-89934185D01*
X46379500Y-89895000D01*
X46228100Y-89895000D01*
X46081858Y-89934185D01*
X45950742Y-90009885D01*
X45843685Y-90116942D01*
X45767985Y-90248058D01*
X45728800Y-90394300D01*
X45520993Y-90394300D01*
X45206251Y-90079558D01*
X45156198Y-90255478D01*
X45136320Y-90470000D01*
X41302013Y-90470000D01*
X41302013Y-89373980D01*
X45914887Y-89373980D01*
X46303800Y-89762893D01*
X46303801Y-89762893D01*
X46692712Y-89373980D01*
X46623293Y-89347088D01*
X46411519Y-89307500D01*
X46196081Y-89307500D01*
X45984301Y-89347089D01*
X45914887Y-89373980D01*
X41302013Y-89373980D01*
X41302013Y-87929999D01*
X46405818Y-87929999D01*
X46405818Y-87930000D01*
X46425704Y-88144611D01*
X46425704Y-88144613D01*
X46425705Y-88144616D01*
X46454908Y-88247254D01*
X46484688Y-88351922D01*
X46580758Y-88544857D01*
X46580763Y-88544865D01*
X46710652Y-88716866D01*
X46801296Y-88799498D01*
X46869934Y-88862070D01*
X47053186Y-88975535D01*
X47053187Y-88975535D01*
X47053188Y-88975536D01*
X47095765Y-88992030D01*
X47254167Y-89053395D01*
X47466032Y-89093000D01*
X47466034Y-89093000D01*
X47681566Y-89093000D01*
X47681568Y-89093000D01*
X47893433Y-89053395D01*
X48094414Y-88975535D01*
X48277666Y-88862070D01*
X48436949Y-88716864D01*
X48566838Y-88544863D01*
X48662911Y-88351924D01*
X48721895Y-88144616D01*
X48721896Y-88144600D01*
X48721911Y-88144527D01*
X48721930Y-88144489D01*
X48723463Y-88139102D01*
X48724516Y-88139401D01*
X48753579Y-88082246D01*
X48813892Y-88046973D01*
X48883700Y-88049907D01*
X48940840Y-88090116D01*
X48963317Y-88139335D01*
X48964137Y-88139102D01*
X48965666Y-88144477D01*
X48965689Y-88144527D01*
X48965704Y-88144610D01*
X48965705Y-88144616D01*
X48998242Y-88258971D01*
X49024688Y-88351922D01*
X49120758Y-88544857D01*
X49120763Y-88544865D01*
X49250652Y-88716866D01*
X49341296Y-88799498D01*
X49409934Y-88862070D01*
X49593186Y-88975535D01*
X49593187Y-88975535D01*
X49593188Y-88975536D01*
X49635765Y-88992030D01*
X49794167Y-89053395D01*
X50006032Y-89093000D01*
X50006034Y-89093000D01*
X50221566Y-89093000D01*
X50221568Y-89093000D01*
X50433433Y-89053395D01*
X50634414Y-88975535D01*
X50817666Y-88862070D01*
X50976949Y-88716864D01*
X51106838Y-88544863D01*
X51202911Y-88351924D01*
X51261895Y-88144616D01*
X51261896Y-88144600D01*
X51261911Y-88144527D01*
X51261930Y-88144489D01*
X51263463Y-88139102D01*
X51264516Y-88139401D01*
X51293579Y-88082246D01*
X51353892Y-88046973D01*
X51423700Y-88049907D01*
X51480840Y-88090116D01*
X51503317Y-88139335D01*
X51504137Y-88139102D01*
X51505666Y-88144477D01*
X51505689Y-88144527D01*
X51505704Y-88144610D01*
X51505705Y-88144616D01*
X51538242Y-88258971D01*
X51564688Y-88351922D01*
X51660758Y-88544857D01*
X51660763Y-88544865D01*
X51790652Y-88716866D01*
X51881296Y-88799498D01*
X51949934Y-88862070D01*
X52133186Y-88975535D01*
X52133187Y-88975535D01*
X52133188Y-88975536D01*
X52175765Y-88992030D01*
X52334167Y-89053395D01*
X52546032Y-89093000D01*
X52546034Y-89093000D01*
X52761566Y-89093000D01*
X52761568Y-89093000D01*
X52973433Y-89053395D01*
X53174414Y-88975535D01*
X53357666Y-88862070D01*
X53516949Y-88716864D01*
X53646838Y-88544863D01*
X53742911Y-88351924D01*
X53787535Y-88195085D01*
X53824812Y-88135995D01*
X53888122Y-88106437D01*
X53957361Y-88115798D01*
X54010548Y-88161108D01*
X54030796Y-88227979D01*
X54030800Y-88229022D01*
X54030800Y-88837356D01*
X54030802Y-88837382D01*
X54033713Y-88862487D01*
X54033715Y-88862491D01*
X54079093Y-88965264D01*
X54079094Y-88965265D01*
X54158535Y-89044706D01*
X54261309Y-89090085D01*
X54286435Y-89093000D01*
X56101164Y-89092999D01*
X56101179Y-89092997D01*
X56101182Y-89092997D01*
X56126287Y-89090086D01*
X56126288Y-89090085D01*
X56126291Y-89090085D01*
X56229065Y-89044706D01*
X56308506Y-88965265D01*
X56353885Y-88862491D01*
X56356800Y-88837365D01*
X56356800Y-88748698D01*
X62199769Y-88748698D01*
X62199769Y-88748701D01*
X62220406Y-88905460D01*
X62220407Y-88905462D01*
X62280915Y-89051541D01*
X62377169Y-89176982D01*
X62502610Y-89273236D01*
X62648689Y-89333744D01*
X62727070Y-89344063D01*
X62805450Y-89354382D01*
X62805451Y-89354382D01*
X62805452Y-89354382D01*
X62864523Y-89346605D01*
X62962213Y-89333744D01*
X63108292Y-89273236D01*
X63233733Y-89176982D01*
X63271786Y-89127389D01*
X63328210Y-89086188D01*
X63397956Y-89082033D01*
X63458877Y-89116244D01*
X63468533Y-89127387D01*
X63545569Y-89227782D01*
X63671010Y-89324036D01*
X63817089Y-89384544D01*
X63895470Y-89394863D01*
X63973850Y-89405182D01*
X63973851Y-89405182D01*
X63973852Y-89405182D01*
X64026105Y-89398302D01*
X64130613Y-89384544D01*
X64276692Y-89324036D01*
X64402133Y-89227782D01*
X64498387Y-89102341D01*
X64558895Y-88956262D01*
X64579533Y-88799500D01*
X64579130Y-88796441D01*
X64558895Y-88642739D01*
X64558895Y-88642738D01*
X64498387Y-88496659D01*
X64496040Y-88493600D01*
X75033953Y-88493600D01*
X75054434Y-88636056D01*
X75105877Y-88748698D01*
X75114223Y-88766973D01*
X75208472Y-88875743D01*
X75329547Y-88953553D01*
X75329550Y-88953554D01*
X75329549Y-88953554D01*
X75467636Y-88994099D01*
X75467638Y-88994100D01*
X75467639Y-88994100D01*
X75611562Y-88994100D01*
X75611562Y-88994099D01*
X75749653Y-88953553D01*
X75870728Y-88875743D01*
X75964977Y-88766973D01*
X76024765Y-88636057D01*
X76045247Y-88493600D01*
X76045247Y-88493598D01*
X78489918Y-88493598D01*
X78489918Y-88493601D01*
X78510555Y-88650360D01*
X78510556Y-88650362D01*
X78571064Y-88796441D01*
X78667318Y-88921882D01*
X78792759Y-89018136D01*
X78938838Y-89078644D01*
X78996141Y-89086188D01*
X79095599Y-89099282D01*
X79095600Y-89099282D01*
X79095601Y-89099282D01*
X79165451Y-89090086D01*
X79252362Y-89078644D01*
X79398441Y-89018136D01*
X79523882Y-88921882D01*
X79620136Y-88796441D01*
X79680644Y-88650362D01*
X79683861Y-88625924D01*
X79712127Y-88562028D01*
X79770452Y-88523557D01*
X79840316Y-88522726D01*
X79899540Y-88559798D01*
X79929319Y-88623003D01*
X79929739Y-88625925D01*
X79932955Y-88650360D01*
X79932956Y-88650362D01*
X79993464Y-88796441D01*
X80089718Y-88921882D01*
X80215159Y-89018136D01*
X80361238Y-89078644D01*
X80418541Y-89086188D01*
X80517999Y-89099282D01*
X80518000Y-89099282D01*
X80518001Y-89099282D01*
X80587851Y-89090086D01*
X80674762Y-89078644D01*
X80820841Y-89018136D01*
X80946282Y-88921882D01*
X81042536Y-88796441D01*
X81103044Y-88650362D01*
X81114539Y-88563045D01*
X81142805Y-88499149D01*
X81201130Y-88460678D01*
X81270994Y-88459847D01*
X81272412Y-88460254D01*
X81360436Y-88486099D01*
X81360438Y-88486100D01*
X81360439Y-88486100D01*
X81504362Y-88486100D01*
X81504362Y-88486099D01*
X81618456Y-88452599D01*
X81642450Y-88445554D01*
X81642450Y-88445553D01*
X81642453Y-88445553D01*
X81763528Y-88367743D01*
X81857777Y-88258973D01*
X81917565Y-88128057D01*
X81938047Y-87985600D01*
X81917565Y-87843143D01*
X81857777Y-87712227D01*
X81763528Y-87603457D01*
X81763525Y-87603455D01*
X81763526Y-87603455D01*
X81712903Y-87570922D01*
X81667149Y-87518118D01*
X81657205Y-87448960D01*
X81686230Y-87385404D01*
X81745008Y-87347630D01*
X81783370Y-87344888D01*
X81783370Y-87343100D01*
X81936162Y-87343100D01*
X81936162Y-87343099D01*
X82074253Y-87302553D01*
X82195328Y-87224743D01*
X82289577Y-87115973D01*
X82349365Y-86985057D01*
X82369847Y-86842600D01*
X82349365Y-86700143D01*
X82289577Y-86569227D01*
X82195328Y-86460457D01*
X82074253Y-86382647D01*
X82074251Y-86382646D01*
X82074249Y-86382645D01*
X82074250Y-86382645D01*
X81936163Y-86342100D01*
X81936161Y-86342100D01*
X81792239Y-86342100D01*
X81792236Y-86342100D01*
X81654149Y-86382645D01*
X81533073Y-86460456D01*
X81438823Y-86569226D01*
X81438822Y-86569228D01*
X81379034Y-86700143D01*
X81358553Y-86842600D01*
X81379034Y-86985056D01*
X81428836Y-87094105D01*
X81438823Y-87115973D01*
X81533072Y-87224743D01*
X81583695Y-87257276D01*
X81629450Y-87310080D01*
X81639394Y-87379239D01*
X81610369Y-87442794D01*
X81551591Y-87480569D01*
X81513230Y-87483316D01*
X81513230Y-87485100D01*
X81360436Y-87485100D01*
X81222349Y-87525645D01*
X81101273Y-87603456D01*
X81007023Y-87712226D01*
X81007022Y-87712228D01*
X80947234Y-87843144D01*
X80947233Y-87843148D01*
X80945759Y-87853401D01*
X80916733Y-87916956D01*
X80857954Y-87954729D01*
X80788084Y-87954727D01*
X80775573Y-87950313D01*
X80674762Y-87908556D01*
X80674760Y-87908555D01*
X80518001Y-87887918D01*
X80517999Y-87887918D01*
X80361239Y-87908555D01*
X80361237Y-87908556D01*
X80215160Y-87969063D01*
X80089718Y-88065318D01*
X79993463Y-88190760D01*
X79932956Y-88336837D01*
X79932956Y-88336838D01*
X79929739Y-88361275D01*
X79901472Y-88425171D01*
X79843148Y-88463642D01*
X79773283Y-88464473D01*
X79714060Y-88427401D01*
X79684281Y-88364195D01*
X79683861Y-88361275D01*
X79682630Y-88351924D01*
X79680644Y-88336838D01*
X79620136Y-88190759D01*
X79523882Y-88065318D01*
X79398441Y-87969064D01*
X79363833Y-87954729D01*
X79252362Y-87908556D01*
X79252360Y-87908555D01*
X79095601Y-87887918D01*
X79095599Y-87887918D01*
X78938839Y-87908555D01*
X78938837Y-87908556D01*
X78792760Y-87969063D01*
X78667318Y-88065318D01*
X78571063Y-88190760D01*
X78510556Y-88336837D01*
X78510555Y-88336839D01*
X78489918Y-88493598D01*
X76045247Y-88493598D01*
X76024765Y-88351143D01*
X75964977Y-88220227D01*
X75870728Y-88111457D01*
X75749653Y-88033647D01*
X75749651Y-88033646D01*
X75749649Y-88033645D01*
X75749650Y-88033645D01*
X75611563Y-87993100D01*
X75611561Y-87993100D01*
X75467639Y-87993100D01*
X75467636Y-87993100D01*
X75329549Y-88033645D01*
X75208473Y-88111456D01*
X75114223Y-88220226D01*
X75114222Y-88220228D01*
X75054434Y-88351143D01*
X75033953Y-88493600D01*
X64496040Y-88493600D01*
X64402133Y-88371218D01*
X64276692Y-88274964D01*
X64238086Y-88258973D01*
X64130613Y-88214456D01*
X64130611Y-88214455D01*
X63973852Y-88193818D01*
X63973850Y-88193818D01*
X63817090Y-88214455D01*
X63817088Y-88214456D01*
X63671011Y-88274963D01*
X63671010Y-88274964D01*
X63545569Y-88371218D01*
X63545568Y-88371219D01*
X63545567Y-88371220D01*
X63507516Y-88420809D01*
X63451088Y-88462011D01*
X63381342Y-88466166D01*
X63320422Y-88431953D01*
X63310769Y-88420814D01*
X63233733Y-88320418D01*
X63108292Y-88224164D01*
X63098787Y-88220227D01*
X62962213Y-88163656D01*
X62962211Y-88163655D01*
X62805452Y-88143018D01*
X62805450Y-88143018D01*
X62648690Y-88163655D01*
X62648688Y-88163656D01*
X62502611Y-88224163D01*
X62377169Y-88320418D01*
X62280914Y-88445860D01*
X62220407Y-88591937D01*
X62220406Y-88591939D01*
X62199769Y-88748698D01*
X56356800Y-88748698D01*
X56356800Y-88056998D01*
X58016118Y-88056998D01*
X58016118Y-88057001D01*
X58036755Y-88213760D01*
X58036756Y-88213762D01*
X58097264Y-88359841D01*
X58193518Y-88485282D01*
X58318959Y-88581536D01*
X58465038Y-88642044D01*
X58528205Y-88650360D01*
X58621799Y-88662682D01*
X58621800Y-88662682D01*
X58621801Y-88662682D01*
X58674054Y-88655802D01*
X58778562Y-88642044D01*
X58924641Y-88581536D01*
X59050082Y-88485282D01*
X59146336Y-88359841D01*
X59206844Y-88213762D01*
X59227482Y-88057000D01*
X59219069Y-87993100D01*
X59206844Y-87900239D01*
X59206844Y-87900238D01*
X59146336Y-87754159D01*
X59050082Y-87628718D01*
X58924641Y-87532464D01*
X58908183Y-87525647D01*
X58778562Y-87471956D01*
X58778560Y-87471955D01*
X58621801Y-87451318D01*
X58621799Y-87451318D01*
X58465039Y-87471955D01*
X58465037Y-87471956D01*
X58318960Y-87532463D01*
X58193518Y-87628718D01*
X58097263Y-87754160D01*
X58036756Y-87900237D01*
X58036755Y-87900239D01*
X58016118Y-88056998D01*
X56356800Y-88056998D01*
X56356799Y-87022636D01*
X56354899Y-87006250D01*
X56353886Y-86997512D01*
X56353885Y-86997510D01*
X56353885Y-86997509D01*
X56308506Y-86894735D01*
X56229065Y-86815294D01*
X56224920Y-86813464D01*
X56126292Y-86769915D01*
X56101165Y-86767000D01*
X54286443Y-86767000D01*
X54286417Y-86767002D01*
X54261312Y-86769913D01*
X54261308Y-86769915D01*
X54158535Y-86815293D01*
X54079094Y-86894734D01*
X54033715Y-86997506D01*
X54033715Y-86997508D01*
X54030800Y-87022631D01*
X54030800Y-87630976D01*
X54011115Y-87698015D01*
X53958311Y-87743770D01*
X53889153Y-87753714D01*
X53825597Y-87724689D01*
X53787823Y-87665911D01*
X53787586Y-87665095D01*
X53742911Y-87508076D01*
X53663018Y-87347630D01*
X53646841Y-87315142D01*
X53646836Y-87315134D01*
X53516947Y-87143133D01*
X53357667Y-86997931D01*
X53357666Y-86997930D01*
X53174414Y-86884465D01*
X53174412Y-86884464D01*
X53174411Y-86884463D01*
X52991138Y-86813464D01*
X52973433Y-86806605D01*
X52761568Y-86767000D01*
X52546032Y-86767000D01*
X52334167Y-86806605D01*
X52334164Y-86806605D01*
X52334164Y-86806606D01*
X52133188Y-86884463D01*
X52133187Y-86884464D01*
X51949932Y-86997931D01*
X51790652Y-87143133D01*
X51660763Y-87315134D01*
X51660758Y-87315142D01*
X51564688Y-87508077D01*
X51505703Y-87715390D01*
X51505688Y-87715476D01*
X51505669Y-87715513D01*
X51504137Y-87720898D01*
X51503083Y-87720598D01*
X51474018Y-87777756D01*
X51413705Y-87813027D01*
X51343897Y-87810091D01*
X51286758Y-87769880D01*
X51264281Y-87720665D01*
X51263463Y-87720898D01*
X51261934Y-87715524D01*
X51261912Y-87715476D01*
X51261896Y-87715390D01*
X51261895Y-87715387D01*
X51261895Y-87715384D01*
X51202911Y-87508076D01*
X51123018Y-87347630D01*
X51106841Y-87315142D01*
X51106836Y-87315134D01*
X50976947Y-87143133D01*
X50817667Y-86997931D01*
X50817666Y-86997930D01*
X50634414Y-86884465D01*
X50634412Y-86884464D01*
X50634411Y-86884463D01*
X50451138Y-86813464D01*
X50433433Y-86806605D01*
X50221568Y-86767000D01*
X50006032Y-86767000D01*
X49794167Y-86806605D01*
X49794164Y-86806605D01*
X49794164Y-86806606D01*
X49593188Y-86884463D01*
X49593187Y-86884464D01*
X49409932Y-86997931D01*
X49250652Y-87143133D01*
X49120763Y-87315134D01*
X49120758Y-87315142D01*
X49024688Y-87508077D01*
X48965703Y-87715390D01*
X48965688Y-87715476D01*
X48965669Y-87715513D01*
X48964137Y-87720898D01*
X48963083Y-87720598D01*
X48934018Y-87777756D01*
X48873705Y-87813027D01*
X48803897Y-87810091D01*
X48746758Y-87769880D01*
X48724281Y-87720665D01*
X48723463Y-87720898D01*
X48721934Y-87715524D01*
X48721912Y-87715476D01*
X48721896Y-87715390D01*
X48721895Y-87715387D01*
X48721895Y-87715384D01*
X48662911Y-87508076D01*
X48583018Y-87347630D01*
X48566841Y-87315142D01*
X48566836Y-87315134D01*
X48436947Y-87143133D01*
X48277667Y-86997931D01*
X48277666Y-86997930D01*
X48094414Y-86884465D01*
X48094412Y-86884464D01*
X48094411Y-86884463D01*
X47911138Y-86813464D01*
X47893433Y-86806605D01*
X47681568Y-86767000D01*
X47466032Y-86767000D01*
X47254167Y-86806605D01*
X47254164Y-86806605D01*
X47254164Y-86806606D01*
X47053188Y-86884463D01*
X47053187Y-86884464D01*
X46869932Y-86997931D01*
X46710652Y-87143133D01*
X46580763Y-87315134D01*
X46580758Y-87315142D01*
X46484688Y-87508077D01*
X46425704Y-87715388D01*
X46405818Y-87929999D01*
X41302013Y-87929999D01*
X41302013Y-86306042D01*
X41321698Y-86239003D01*
X41338332Y-86218361D01*
X41889835Y-85666857D01*
X41904347Y-85739813D01*
X41974075Y-85908152D01*
X42075305Y-86059653D01*
X42204147Y-86188495D01*
X42355648Y-86289725D01*
X42523987Y-86359453D01*
X42596941Y-86373964D01*
X42006881Y-86964024D01*
X42175555Y-87045252D01*
X42175553Y-87045252D01*
X42417234Y-87119801D01*
X42417240Y-87119802D01*
X42667333Y-87157499D01*
X42667340Y-87157500D01*
X42920260Y-87157500D01*
X42920266Y-87157499D01*
X43170359Y-87119802D01*
X43170365Y-87119801D01*
X43412042Y-87045253D01*
X43580716Y-86964023D01*
X42990657Y-86373964D01*
X43063613Y-86359453D01*
X43231952Y-86289725D01*
X43383453Y-86188495D01*
X43512295Y-86059653D01*
X43613525Y-85908152D01*
X43683253Y-85739813D01*
X43697764Y-85666857D01*
X44287953Y-86257046D01*
X44318449Y-86204228D01*
X44318451Y-86204225D01*
X44410848Y-85968799D01*
X44410853Y-85968782D01*
X44426164Y-85901698D01*
X46892318Y-85901698D01*
X46892318Y-85901701D01*
X46912955Y-86058460D01*
X46912956Y-86058462D01*
X46973333Y-86204226D01*
X46973464Y-86204541D01*
X47069718Y-86329982D01*
X47195159Y-86426236D01*
X47341238Y-86486744D01*
X47419619Y-86497063D01*
X47497999Y-86507382D01*
X47498000Y-86507382D01*
X47498001Y-86507382D01*
X47550254Y-86500502D01*
X47654762Y-86486744D01*
X47800841Y-86426236D01*
X47926282Y-86329982D01*
X48022536Y-86204541D01*
X48083044Y-86058462D01*
X48103682Y-85901700D01*
X48101812Y-85887499D01*
X48101812Y-85887497D01*
X48467068Y-85887497D01*
X48467068Y-85887500D01*
X48487705Y-86044259D01*
X48487706Y-86044261D01*
X48548214Y-86190340D01*
X48644468Y-86315781D01*
X48769909Y-86412035D01*
X48915988Y-86472543D01*
X48994369Y-86482862D01*
X49072749Y-86493181D01*
X49072750Y-86493181D01*
X49072751Y-86493181D01*
X49125004Y-86486301D01*
X49229512Y-86472543D01*
X49375591Y-86412035D01*
X49501032Y-86315781D01*
X49597286Y-86190340D01*
X49657794Y-86044261D01*
X49676562Y-85901701D01*
X49678432Y-85887500D01*
X49678432Y-85887497D01*
X50271568Y-85887497D01*
X50271568Y-85887500D01*
X50292205Y-86044259D01*
X50292206Y-86044261D01*
X50352714Y-86190340D01*
X50448968Y-86315781D01*
X50574409Y-86412035D01*
X50720488Y-86472543D01*
X50798869Y-86482862D01*
X50877249Y-86493181D01*
X50877250Y-86493181D01*
X50877251Y-86493181D01*
X50929504Y-86486301D01*
X51034012Y-86472543D01*
X51180091Y-86412035D01*
X51305532Y-86315781D01*
X51401786Y-86190340D01*
X51462294Y-86044261D01*
X51481062Y-85901701D01*
X51482932Y-85887500D01*
X51482932Y-85887497D01*
X51464164Y-85744939D01*
X51462294Y-85730737D01*
X51401786Y-85584658D01*
X51313802Y-85469995D01*
X57011568Y-85469995D01*
X57011568Y-85470004D01*
X57030468Y-85722211D01*
X57086746Y-85968782D01*
X57086751Y-85968799D01*
X57179149Y-86204226D01*
X57179153Y-86204234D01*
X57209645Y-86257047D01*
X57799835Y-85666857D01*
X57814347Y-85739813D01*
X57884075Y-85908152D01*
X57985305Y-86059653D01*
X58114147Y-86188495D01*
X58265648Y-86289725D01*
X58433987Y-86359453D01*
X58506941Y-86373964D01*
X57916881Y-86964024D01*
X58085555Y-87045252D01*
X58085553Y-87045252D01*
X58327234Y-87119801D01*
X58327240Y-87119802D01*
X58577333Y-87157499D01*
X58577340Y-87157500D01*
X58830260Y-87157500D01*
X58830266Y-87157499D01*
X59080359Y-87119802D01*
X59080365Y-87119801D01*
X59322042Y-87045253D01*
X59490716Y-86964023D01*
X58937493Y-86410800D01*
X63497153Y-86410800D01*
X63517634Y-86553256D01*
X63577422Y-86684171D01*
X63577423Y-86684173D01*
X63671672Y-86792943D01*
X63792747Y-86870753D01*
X63792750Y-86870754D01*
X63792749Y-86870754D01*
X63930836Y-86911299D01*
X63930838Y-86911300D01*
X63930839Y-86911300D01*
X64074761Y-86911300D01*
X64204298Y-86873265D01*
X64274168Y-86873265D01*
X64332946Y-86911039D01*
X64353794Y-86944790D01*
X64363713Y-86968738D01*
X64363714Y-86968740D01*
X64363715Y-86968741D01*
X64459969Y-87094182D01*
X64585410Y-87190436D01*
X64731489Y-87250944D01*
X64779586Y-87257276D01*
X64888250Y-87271582D01*
X64888251Y-87271582D01*
X64888252Y-87271582D01*
X64940505Y-87264702D01*
X65045013Y-87250944D01*
X65191092Y-87190436D01*
X65316533Y-87094182D01*
X65349202Y-87051606D01*
X65405627Y-87010405D01*
X65475373Y-87006250D01*
X65523062Y-87028718D01*
X65601407Y-87088834D01*
X65604026Y-87090346D01*
X65605794Y-87092200D01*
X65607858Y-87093784D01*
X65607611Y-87094105D01*
X65652245Y-87140910D01*
X65665472Y-87209516D01*
X65639508Y-87274383D01*
X65609074Y-87302051D01*
X65573127Y-87325153D01*
X65573125Y-87325155D01*
X65573123Y-87325156D01*
X65573123Y-87325157D01*
X65556026Y-87344888D01*
X65478874Y-87433926D01*
X65478873Y-87433928D01*
X65419085Y-87564843D01*
X65398604Y-87707300D01*
X65419085Y-87849756D01*
X65473572Y-87969063D01*
X65478874Y-87980673D01*
X65573123Y-88089443D01*
X65694198Y-88167253D01*
X65694201Y-88167254D01*
X65694200Y-88167254D01*
X65832287Y-88207799D01*
X65832289Y-88207800D01*
X65832290Y-88207800D01*
X65976213Y-88207800D01*
X65976213Y-88207799D01*
X66114304Y-88167253D01*
X66235379Y-88089443D01*
X66329628Y-87980673D01*
X66342677Y-87952100D01*
X70591853Y-87952100D01*
X70612334Y-88094556D01*
X70645535Y-88167254D01*
X70672123Y-88225473D01*
X70766372Y-88334243D01*
X70887447Y-88412053D01*
X70887450Y-88412054D01*
X70887449Y-88412054D01*
X70994607Y-88443517D01*
X71002584Y-88445860D01*
X71025536Y-88452599D01*
X71025538Y-88452600D01*
X71025539Y-88452600D01*
X71169462Y-88452600D01*
X71169462Y-88452599D01*
X71307553Y-88412053D01*
X71428628Y-88334243D01*
X71522877Y-88225473D01*
X71582665Y-88094557D01*
X71603147Y-87952100D01*
X71582665Y-87809643D01*
X71522877Y-87678727D01*
X71428628Y-87569957D01*
X71307553Y-87492147D01*
X71307551Y-87492146D01*
X71307549Y-87492145D01*
X71307550Y-87492145D01*
X71169463Y-87451600D01*
X71169461Y-87451600D01*
X71025539Y-87451600D01*
X71025536Y-87451600D01*
X70887449Y-87492145D01*
X70766373Y-87569956D01*
X70672123Y-87678726D01*
X70672122Y-87678728D01*
X70612334Y-87809643D01*
X70591853Y-87952100D01*
X66342677Y-87952100D01*
X66389416Y-87849757D01*
X66409898Y-87707300D01*
X66389416Y-87564843D01*
X66329628Y-87433927D01*
X66235379Y-87325157D01*
X66235373Y-87325153D01*
X66199428Y-87302052D01*
X66153673Y-87249248D01*
X66143730Y-87180089D01*
X66172756Y-87116534D01*
X66204479Y-87090343D01*
X66207078Y-87088841D01*
X66207092Y-87088836D01*
X66332533Y-86992582D01*
X66428787Y-86867141D01*
X66489295Y-86721062D01*
X66509284Y-86569227D01*
X66509933Y-86564301D01*
X66509933Y-86564298D01*
X66489295Y-86407539D01*
X66489295Y-86407538D01*
X66428787Y-86261459D01*
X66332533Y-86136018D01*
X66207092Y-86039764D01*
X66180277Y-86028657D01*
X66061013Y-85979256D01*
X66061011Y-85979255D01*
X65904252Y-85958618D01*
X65904250Y-85958618D01*
X65747490Y-85979255D01*
X65747488Y-85979256D01*
X65601411Y-86039763D01*
X65475968Y-86136019D01*
X65443300Y-86178593D01*
X65386872Y-86219795D01*
X65317126Y-86223949D01*
X65269439Y-86201481D01*
X65191093Y-86141364D01*
X65045013Y-86080856D01*
X65045011Y-86080855D01*
X64888252Y-86060218D01*
X64888250Y-86060218D01*
X64731490Y-86080855D01*
X64731488Y-86080856D01*
X64585407Y-86141365D01*
X64578370Y-86145428D01*
X64577683Y-86144239D01*
X64520526Y-86166329D01*
X64452083Y-86152283D01*
X64416509Y-86123961D01*
X64379157Y-86080855D01*
X64333928Y-86028657D01*
X64212853Y-85950847D01*
X64212851Y-85950846D01*
X64212849Y-85950845D01*
X64212850Y-85950845D01*
X64074763Y-85910300D01*
X64074761Y-85910300D01*
X63930839Y-85910300D01*
X63930836Y-85910300D01*
X63792749Y-85950845D01*
X63671673Y-86028656D01*
X63577423Y-86137426D01*
X63577422Y-86137428D01*
X63517634Y-86268343D01*
X63497153Y-86410800D01*
X58937493Y-86410800D01*
X58900657Y-86373964D01*
X58973613Y-86359453D01*
X59141952Y-86289725D01*
X59293453Y-86188495D01*
X59422295Y-86059653D01*
X59523525Y-85908152D01*
X59593253Y-85739813D01*
X59607764Y-85666857D01*
X60197953Y-86257046D01*
X60228449Y-86204228D01*
X60228451Y-86204225D01*
X60320848Y-85968799D01*
X60320853Y-85968782D01*
X60377131Y-85722211D01*
X60396032Y-85470004D01*
X60396032Y-85469995D01*
X60377131Y-85217788D01*
X60320853Y-84971217D01*
X60320848Y-84971200D01*
X60228448Y-84735767D01*
X60197953Y-84682951D01*
X59607764Y-85273141D01*
X59593253Y-85200187D01*
X59523525Y-85031848D01*
X59422295Y-84880347D01*
X59293453Y-84751505D01*
X59141952Y-84650275D01*
X58973613Y-84580547D01*
X58900658Y-84566035D01*
X59490717Y-83975976D01*
X59490716Y-83975974D01*
X59322044Y-83894747D01*
X59322046Y-83894747D01*
X59080365Y-83820198D01*
X59080359Y-83820197D01*
X58830266Y-83782500D01*
X58577333Y-83782500D01*
X58327240Y-83820197D01*
X58327234Y-83820198D01*
X58085554Y-83894747D01*
X57916882Y-83975974D01*
X57916882Y-83975975D01*
X58506942Y-84566035D01*
X58433987Y-84580547D01*
X58265648Y-84650275D01*
X58114147Y-84751505D01*
X57985305Y-84880347D01*
X57884075Y-85031848D01*
X57814347Y-85200187D01*
X57799835Y-85273141D01*
X57209645Y-84682951D01*
X57209645Y-84682952D01*
X57179151Y-84735769D01*
X57086751Y-84971200D01*
X57086746Y-84971217D01*
X57030468Y-85217788D01*
X57011568Y-85469995D01*
X51313802Y-85469995D01*
X51305532Y-85459217D01*
X51180091Y-85362963D01*
X51034012Y-85302455D01*
X51034010Y-85302454D01*
X50877251Y-85281817D01*
X50877249Y-85281817D01*
X50720489Y-85302454D01*
X50720487Y-85302455D01*
X50574410Y-85362962D01*
X50448968Y-85459217D01*
X50352713Y-85584659D01*
X50292206Y-85730736D01*
X50292205Y-85730738D01*
X50271568Y-85887497D01*
X49678432Y-85887497D01*
X49659664Y-85744939D01*
X49657794Y-85730737D01*
X49597286Y-85584658D01*
X49501032Y-85459217D01*
X49375591Y-85362963D01*
X49229512Y-85302455D01*
X49229510Y-85302454D01*
X49072751Y-85281817D01*
X49072749Y-85281817D01*
X48915989Y-85302454D01*
X48915987Y-85302455D01*
X48769910Y-85362962D01*
X48644468Y-85459217D01*
X48548213Y-85584659D01*
X48487706Y-85730736D01*
X48487705Y-85730738D01*
X48467068Y-85887497D01*
X48101812Y-85887497D01*
X48083044Y-85744939D01*
X48083044Y-85744938D01*
X48022536Y-85598859D01*
X47926282Y-85473418D01*
X47800841Y-85377164D01*
X47766554Y-85362962D01*
X47654762Y-85316656D01*
X47654760Y-85316655D01*
X47498001Y-85296018D01*
X47497999Y-85296018D01*
X47341239Y-85316655D01*
X47341237Y-85316656D01*
X47195160Y-85377163D01*
X47069718Y-85473418D01*
X46973463Y-85598860D01*
X46912956Y-85744937D01*
X46912955Y-85744939D01*
X46892318Y-85901698D01*
X44426164Y-85901698D01*
X44467131Y-85722211D01*
X44486032Y-85470004D01*
X44486032Y-85469995D01*
X44467131Y-85217788D01*
X44410853Y-84971217D01*
X44410848Y-84971200D01*
X44318448Y-84735767D01*
X44287953Y-84682951D01*
X43697764Y-85273141D01*
X43683253Y-85200187D01*
X43613525Y-85031848D01*
X43512295Y-84880347D01*
X43383453Y-84751505D01*
X43231952Y-84650275D01*
X43063613Y-84580547D01*
X42990658Y-84566035D01*
X43208095Y-84348598D01*
X52073518Y-84348598D01*
X52073518Y-84348601D01*
X52094155Y-84505360D01*
X52094156Y-84505362D01*
X52154664Y-84651441D01*
X52250918Y-84776882D01*
X52376359Y-84873136D01*
X52522438Y-84933644D01*
X52600819Y-84943963D01*
X52679199Y-84954282D01*
X52679200Y-84954282D01*
X52679201Y-84954282D01*
X52731454Y-84947402D01*
X52835962Y-84933644D01*
X52982041Y-84873136D01*
X53107482Y-84776882D01*
X53203736Y-84651441D01*
X53264244Y-84505362D01*
X53284882Y-84348600D01*
X53264244Y-84191838D01*
X53203736Y-84045759D01*
X53107482Y-83920318D01*
X52982041Y-83824064D01*
X52972705Y-83820197D01*
X52835962Y-83763556D01*
X52835960Y-83763555D01*
X52679201Y-83742918D01*
X52679199Y-83742918D01*
X52522439Y-83763555D01*
X52522437Y-83763556D01*
X52376360Y-83824063D01*
X52250918Y-83920318D01*
X52154663Y-84045760D01*
X52094156Y-84191837D01*
X52094155Y-84191839D01*
X52073518Y-84348598D01*
X43208095Y-84348598D01*
X43580717Y-83975976D01*
X43580716Y-83975974D01*
X43412044Y-83894747D01*
X43412046Y-83894747D01*
X43170365Y-83820198D01*
X43170359Y-83820197D01*
X42920266Y-83782500D01*
X42667333Y-83782500D01*
X42417240Y-83820197D01*
X42417234Y-83820198D01*
X42175554Y-83894747D01*
X42006882Y-83975974D01*
X42006882Y-83975975D01*
X42596942Y-84566035D01*
X42523987Y-84580547D01*
X42355648Y-84650275D01*
X42204147Y-84751505D01*
X42075305Y-84880347D01*
X41974075Y-85031848D01*
X41904347Y-85200187D01*
X41889835Y-85273142D01*
X41338332Y-84721639D01*
X41304847Y-84660316D01*
X41302013Y-84633958D01*
X41302013Y-83667600D01*
X68706753Y-83667600D01*
X68727234Y-83810056D01*
X68765912Y-83894747D01*
X68787023Y-83940973D01*
X68881272Y-84049743D01*
X69002347Y-84127553D01*
X69002350Y-84127554D01*
X69002349Y-84127554D01*
X69140436Y-84168099D01*
X69140438Y-84168100D01*
X69140439Y-84168100D01*
X69284362Y-84168100D01*
X69284362Y-84168099D01*
X69422453Y-84127553D01*
X69543528Y-84049743D01*
X69637777Y-83940973D01*
X69697565Y-83810057D01*
X69718047Y-83667600D01*
X69697565Y-83525143D01*
X69637777Y-83394227D01*
X69543528Y-83285457D01*
X69422453Y-83207647D01*
X69422451Y-83207646D01*
X69422449Y-83207645D01*
X69422450Y-83207645D01*
X69284363Y-83167100D01*
X69284361Y-83167100D01*
X69140439Y-83167100D01*
X69140436Y-83167100D01*
X69002349Y-83207645D01*
X68881273Y-83285456D01*
X68787023Y-83394226D01*
X68787022Y-83394228D01*
X68727234Y-83525143D01*
X68706753Y-83667600D01*
X41302013Y-83667600D01*
X41302013Y-81448872D01*
X43033300Y-81448872D01*
X43033300Y-81711127D01*
X43040871Y-81768628D01*
X43067530Y-81971116D01*
X43133934Y-82218939D01*
X43135402Y-82224418D01*
X43135405Y-82224428D01*
X43235753Y-82466690D01*
X43235758Y-82466700D01*
X43366875Y-82693803D01*
X43526518Y-82901851D01*
X43526526Y-82901860D01*
X43711940Y-83087274D01*
X43711948Y-83087281D01*
X43919996Y-83246924D01*
X44147099Y-83378041D01*
X44147109Y-83378046D01*
X44366697Y-83469002D01*
X44389381Y-83478398D01*
X44642684Y-83546270D01*
X44902680Y-83580500D01*
X44902687Y-83580500D01*
X45164913Y-83580500D01*
X45164920Y-83580500D01*
X45424916Y-83546270D01*
X45678219Y-83478398D01*
X45881423Y-83394228D01*
X45920490Y-83378046D01*
X45920491Y-83378045D01*
X45920497Y-83378043D01*
X46147603Y-83246924D01*
X46355651Y-83087282D01*
X46355655Y-83087277D01*
X46355660Y-83087274D01*
X46541074Y-82901860D01*
X46541077Y-82901855D01*
X46541082Y-82901851D01*
X46700724Y-82693803D01*
X46831843Y-82466697D01*
X46849470Y-82424143D01*
X46891678Y-82322243D01*
X46932198Y-82224419D01*
X47000070Y-81971116D01*
X47034300Y-81711120D01*
X47034300Y-81448880D01*
X47034299Y-81448872D01*
X54463300Y-81448872D01*
X54463300Y-81711127D01*
X54470871Y-81768628D01*
X54497530Y-81971116D01*
X54563934Y-82218939D01*
X54565402Y-82224418D01*
X54565405Y-82224428D01*
X54665753Y-82466690D01*
X54665758Y-82466700D01*
X54796875Y-82693803D01*
X54956518Y-82901851D01*
X54956526Y-82901860D01*
X55141940Y-83087274D01*
X55141948Y-83087281D01*
X55349996Y-83246924D01*
X55577099Y-83378041D01*
X55577109Y-83378046D01*
X55796697Y-83469002D01*
X55819381Y-83478398D01*
X56072684Y-83546270D01*
X56332680Y-83580500D01*
X56332687Y-83580500D01*
X56594913Y-83580500D01*
X56594920Y-83580500D01*
X56854916Y-83546270D01*
X57108219Y-83478398D01*
X57311423Y-83394228D01*
X57350490Y-83378046D01*
X57350491Y-83378045D01*
X57350497Y-83378043D01*
X57577603Y-83246924D01*
X57785651Y-83087282D01*
X57785655Y-83087277D01*
X57785660Y-83087274D01*
X57971074Y-82901860D01*
X57971077Y-82901855D01*
X57971082Y-82901851D01*
X58130724Y-82693803D01*
X58240075Y-82504400D01*
X77746553Y-82504400D01*
X77767034Y-82646856D01*
X77826822Y-82777771D01*
X77826823Y-82777773D01*
X77921072Y-82886543D01*
X78042147Y-82964353D01*
X78042150Y-82964354D01*
X78042149Y-82964354D01*
X78180236Y-83004899D01*
X78180238Y-83004900D01*
X78180239Y-83004900D01*
X78324162Y-83004900D01*
X78324162Y-83004899D01*
X78462253Y-82964353D01*
X78583328Y-82886543D01*
X78677577Y-82777773D01*
X78737365Y-82646857D01*
X78757847Y-82504400D01*
X78737365Y-82361943D01*
X78677577Y-82231027D01*
X78583328Y-82122257D01*
X78462253Y-82044447D01*
X78462251Y-82044446D01*
X78462249Y-82044445D01*
X78462250Y-82044445D01*
X78324163Y-82003900D01*
X78324161Y-82003900D01*
X78180239Y-82003900D01*
X78180236Y-82003900D01*
X78042149Y-82044445D01*
X77921073Y-82122256D01*
X77826823Y-82231026D01*
X77826822Y-82231028D01*
X77767034Y-82361943D01*
X77746553Y-82504400D01*
X58240075Y-82504400D01*
X58261843Y-82466697D01*
X58279470Y-82424143D01*
X58321678Y-82322243D01*
X58362198Y-82224419D01*
X58430070Y-81971116D01*
X58460867Y-81737198D01*
X62233918Y-81737198D01*
X62233918Y-81737201D01*
X62254555Y-81893960D01*
X62254556Y-81893962D01*
X62315064Y-82040041D01*
X62411318Y-82165482D01*
X62536759Y-82261736D01*
X62682838Y-82322244D01*
X62761219Y-82332563D01*
X62839599Y-82342882D01*
X62839600Y-82342882D01*
X62839601Y-82342882D01*
X62891854Y-82336002D01*
X62996362Y-82322244D01*
X63142441Y-82261736D01*
X63267882Y-82165482D01*
X63364136Y-82040041D01*
X63424644Y-81893962D01*
X63442367Y-81759339D01*
X63445282Y-81737201D01*
X63445282Y-81737198D01*
X63428965Y-81613259D01*
X63428905Y-81612800D01*
X70461953Y-81612800D01*
X70482434Y-81755256D01*
X70488541Y-81768628D01*
X70542223Y-81886173D01*
X70636472Y-81994943D01*
X70757547Y-82072753D01*
X70757550Y-82072754D01*
X70757549Y-82072754D01*
X70895636Y-82113299D01*
X70895638Y-82113300D01*
X70895639Y-82113300D01*
X71039562Y-82113300D01*
X71039562Y-82113299D01*
X71177653Y-82072753D01*
X71298728Y-81994943D01*
X71367047Y-81916098D01*
X79090769Y-81916098D01*
X79090769Y-81916101D01*
X79111406Y-82072860D01*
X79111407Y-82072862D01*
X79149771Y-82165482D01*
X79171915Y-82218941D01*
X79268169Y-82344382D01*
X79393610Y-82440636D01*
X79539689Y-82501144D01*
X79618070Y-82511463D01*
X79696450Y-82521782D01*
X79696451Y-82521782D01*
X79696452Y-82521782D01*
X79748705Y-82514902D01*
X79853213Y-82501144D01*
X79999292Y-82440636D01*
X80124733Y-82344382D01*
X80220987Y-82218941D01*
X80281495Y-82072862D01*
X80285558Y-82042000D01*
X81460153Y-82042000D01*
X81480634Y-82184456D01*
X81540422Y-82315371D01*
X81540423Y-82315373D01*
X81634672Y-82424143D01*
X81755747Y-82501953D01*
X81755750Y-82501954D01*
X81755749Y-82501954D01*
X81893836Y-82542499D01*
X81893838Y-82542500D01*
X81893839Y-82542500D01*
X82037762Y-82542500D01*
X82037762Y-82542499D01*
X82175853Y-82501953D01*
X82296928Y-82424143D01*
X82391177Y-82315373D01*
X82450965Y-82184457D01*
X82471447Y-82042000D01*
X82450965Y-81899543D01*
X82391177Y-81768627D01*
X82296928Y-81659857D01*
X82175853Y-81582047D01*
X82175851Y-81582046D01*
X82175849Y-81582045D01*
X82175850Y-81582045D01*
X82037763Y-81541500D01*
X82037761Y-81541500D01*
X81893839Y-81541500D01*
X81893836Y-81541500D01*
X81755749Y-81582045D01*
X81634673Y-81659856D01*
X81540423Y-81768626D01*
X81540422Y-81768628D01*
X81480634Y-81899543D01*
X81460153Y-82042000D01*
X80285558Y-82042000D01*
X80302133Y-81916100D01*
X80299218Y-81893962D01*
X80281495Y-81759339D01*
X80281495Y-81759338D01*
X80220987Y-81613259D01*
X80124733Y-81487818D01*
X79999292Y-81391564D01*
X79853213Y-81331056D01*
X79853211Y-81331055D01*
X79696452Y-81310418D01*
X79696450Y-81310418D01*
X79539690Y-81331055D01*
X79539688Y-81331056D01*
X79393611Y-81391563D01*
X79268169Y-81487818D01*
X79171914Y-81613260D01*
X79111407Y-81759337D01*
X79111406Y-81759339D01*
X79090769Y-81916098D01*
X71367047Y-81916098D01*
X71392977Y-81886173D01*
X71452765Y-81755257D01*
X71473247Y-81612800D01*
X71452765Y-81470343D01*
X71392977Y-81339427D01*
X71298728Y-81230657D01*
X71177653Y-81152847D01*
X71177651Y-81152846D01*
X71177649Y-81152845D01*
X71177650Y-81152845D01*
X71039563Y-81112300D01*
X71039561Y-81112300D01*
X70895639Y-81112300D01*
X70895636Y-81112300D01*
X70757549Y-81152845D01*
X70636473Y-81230656D01*
X70542223Y-81339426D01*
X70542222Y-81339428D01*
X70482434Y-81470343D01*
X70461953Y-81612800D01*
X63428905Y-81612800D01*
X63424644Y-81580438D01*
X63364136Y-81434359D01*
X63267882Y-81308918D01*
X63142441Y-81212664D01*
X62996362Y-81152156D01*
X62996360Y-81152155D01*
X62839601Y-81131518D01*
X62839599Y-81131518D01*
X62682839Y-81152155D01*
X62682837Y-81152156D01*
X62536760Y-81212663D01*
X62411318Y-81308918D01*
X62315063Y-81434360D01*
X62254556Y-81580437D01*
X62254555Y-81580439D01*
X62233918Y-81737198D01*
X58460867Y-81737198D01*
X58464300Y-81711120D01*
X58464300Y-81448880D01*
X58430070Y-81188884D01*
X58362198Y-80935581D01*
X58327433Y-80851651D01*
X58261846Y-80693309D01*
X58261841Y-80693299D01*
X58130724Y-80466196D01*
X57971081Y-80258148D01*
X57971074Y-80258140D01*
X57785660Y-80072726D01*
X57785651Y-80072718D01*
X57577603Y-79913075D01*
X57350500Y-79781958D01*
X57350490Y-79781953D01*
X57108228Y-79681605D01*
X57108221Y-79681603D01*
X57108219Y-79681602D01*
X56854916Y-79613730D01*
X56797139Y-79606123D01*
X56594927Y-79579500D01*
X56594920Y-79579500D01*
X56332680Y-79579500D01*
X56332672Y-79579500D01*
X56101572Y-79609926D01*
X56072684Y-79613730D01*
X55916792Y-79655501D01*
X55819381Y-79681602D01*
X55819371Y-79681605D01*
X55577109Y-79781953D01*
X55577099Y-79781958D01*
X55349996Y-79913075D01*
X55141948Y-80072718D01*
X54956518Y-80258148D01*
X54796875Y-80466196D01*
X54665758Y-80693299D01*
X54665753Y-80693309D01*
X54565405Y-80935571D01*
X54565402Y-80935581D01*
X54507372Y-81152155D01*
X54497530Y-81188885D01*
X54463300Y-81448872D01*
X47034299Y-81448872D01*
X47000070Y-81188884D01*
X46932198Y-80935581D01*
X46897433Y-80851651D01*
X46831846Y-80693309D01*
X46831841Y-80693299D01*
X46700724Y-80466196D01*
X46541081Y-80258148D01*
X46541074Y-80258140D01*
X46355660Y-80072726D01*
X46355651Y-80072718D01*
X46147603Y-79913075D01*
X45920500Y-79781958D01*
X45920490Y-79781953D01*
X45678228Y-79681605D01*
X45678221Y-79681603D01*
X45678219Y-79681602D01*
X45424916Y-79613730D01*
X45367139Y-79606123D01*
X45164927Y-79579500D01*
X45164920Y-79579500D01*
X44902680Y-79579500D01*
X44902672Y-79579500D01*
X44671572Y-79609926D01*
X44642684Y-79613730D01*
X44486792Y-79655501D01*
X44389381Y-79681602D01*
X44389371Y-79681605D01*
X44147109Y-79781953D01*
X44147099Y-79781958D01*
X43919996Y-79913075D01*
X43711948Y-80072718D01*
X43526518Y-80258148D01*
X43366875Y-80466196D01*
X43235758Y-80693299D01*
X43235753Y-80693309D01*
X43135405Y-80935571D01*
X43135402Y-80935581D01*
X43077372Y-81152155D01*
X43067530Y-81188885D01*
X43033300Y-81448872D01*
X41302013Y-81448872D01*
X41302013Y-77469999D01*
X43166014Y-77469999D01*
X43166014Y-77470000D01*
X43185122Y-77688407D01*
X43185124Y-77688417D01*
X43241865Y-77900180D01*
X43241870Y-77900194D01*
X43292807Y-78009428D01*
X43334525Y-78098893D01*
X43460280Y-78278489D01*
X43615311Y-78433520D01*
X43794907Y-78559275D01*
X43914452Y-78615019D01*
X43993605Y-78651929D01*
X43993607Y-78651929D01*
X43993612Y-78651932D01*
X44205388Y-78708677D01*
X44380117Y-78723964D01*
X44423799Y-78727786D01*
X44423800Y-78727786D01*
X44423801Y-78727786D01*
X44460202Y-78724601D01*
X44642212Y-78708677D01*
X44853988Y-78651932D01*
X45052693Y-78559275D01*
X45232289Y-78433520D01*
X45387320Y-78278489D01*
X45513075Y-78098893D01*
X45581418Y-77952330D01*
X45627590Y-77899890D01*
X45694783Y-77880738D01*
X45761665Y-77900953D01*
X45806182Y-77952330D01*
X45874525Y-78098893D01*
X46000280Y-78278489D01*
X46155311Y-78433520D01*
X46334907Y-78559275D01*
X46454452Y-78615019D01*
X46533605Y-78651929D01*
X46533607Y-78651929D01*
X46533612Y-78651932D01*
X46745388Y-78708677D01*
X46920117Y-78723964D01*
X46963799Y-78727786D01*
X46963800Y-78727786D01*
X46963801Y-78727786D01*
X47000202Y-78724601D01*
X47182212Y-78708677D01*
X47393988Y-78651932D01*
X47592693Y-78559275D01*
X47772289Y-78433520D01*
X47927320Y-78278489D01*
X48053075Y-78098893D01*
X48145732Y-77900188D01*
X48202477Y-77688412D01*
X48221586Y-77470000D01*
X48221586Y-77469999D01*
X53276014Y-77469999D01*
X53276014Y-77470000D01*
X53295122Y-77688407D01*
X53295124Y-77688417D01*
X53351865Y-77900180D01*
X53351870Y-77900194D01*
X53402807Y-78009428D01*
X53444525Y-78098893D01*
X53570280Y-78278489D01*
X53725311Y-78433520D01*
X53904907Y-78559275D01*
X54024452Y-78615019D01*
X54103605Y-78651929D01*
X54103607Y-78651929D01*
X54103612Y-78651932D01*
X54315388Y-78708677D01*
X54490117Y-78723964D01*
X54533799Y-78727786D01*
X54533800Y-78727786D01*
X54533801Y-78727786D01*
X54570202Y-78724601D01*
X54752212Y-78708677D01*
X54963988Y-78651932D01*
X55162693Y-78559275D01*
X55342289Y-78433520D01*
X55497320Y-78278489D01*
X55623075Y-78098893D01*
X55691418Y-77952330D01*
X55737590Y-77899890D01*
X55804783Y-77880738D01*
X55871665Y-77900953D01*
X55916182Y-77952330D01*
X55984525Y-78098893D01*
X56110280Y-78278489D01*
X56265311Y-78433520D01*
X56444907Y-78559275D01*
X56564452Y-78615019D01*
X56643605Y-78651929D01*
X56643607Y-78651929D01*
X56643612Y-78651932D01*
X56855388Y-78708677D01*
X57030117Y-78723964D01*
X57073799Y-78727786D01*
X57073800Y-78727786D01*
X57073801Y-78727786D01*
X57110202Y-78724601D01*
X57292212Y-78708677D01*
X57503988Y-78651932D01*
X57702693Y-78559275D01*
X57882289Y-78433520D01*
X58031911Y-78283898D01*
X64384169Y-78283898D01*
X64384169Y-78283901D01*
X64404806Y-78440660D01*
X64404807Y-78440662D01*
X64455961Y-78564160D01*
X64465315Y-78586741D01*
X64561569Y-78712182D01*
X64687010Y-78808436D01*
X64833089Y-78868944D01*
X64943868Y-78883528D01*
X65007765Y-78911794D01*
X65046236Y-78970119D01*
X65050622Y-78990281D01*
X65065207Y-79101060D01*
X65065207Y-79101062D01*
X65117462Y-79227218D01*
X65125715Y-79247141D01*
X65221969Y-79372582D01*
X65347410Y-79468836D01*
X65493489Y-79529344D01*
X65597462Y-79543032D01*
X65661359Y-79571298D01*
X65699830Y-79629623D01*
X65704216Y-79649785D01*
X65725607Y-79812261D01*
X65725607Y-79812262D01*
X65767365Y-79913076D01*
X65786115Y-79958341D01*
X65882369Y-80083782D01*
X66007810Y-80180036D01*
X66153889Y-80240544D01*
X66232270Y-80250863D01*
X66310650Y-80261182D01*
X66310651Y-80261182D01*
X66310652Y-80261182D01*
X66362905Y-80254302D01*
X66467413Y-80240544D01*
X66613492Y-80180036D01*
X66738933Y-80083782D01*
X66835187Y-79958341D01*
X66895695Y-79812262D01*
X66916333Y-79655500D01*
X66916333Y-79655498D01*
X70530969Y-79655498D01*
X70530969Y-79655501D01*
X70551606Y-79812260D01*
X70551607Y-79812262D01*
X70593365Y-79913076D01*
X70612115Y-79958341D01*
X70708369Y-80083782D01*
X70833810Y-80180036D01*
X70979889Y-80240544D01*
X71058270Y-80250863D01*
X71136650Y-80261182D01*
X71136651Y-80261182D01*
X71136652Y-80261182D01*
X71188905Y-80254302D01*
X71293413Y-80240544D01*
X71439492Y-80180036D01*
X71492189Y-80139600D01*
X75745153Y-80139600D01*
X75765634Y-80282056D01*
X75795085Y-80346543D01*
X75825423Y-80412973D01*
X75919672Y-80521743D01*
X76040747Y-80599553D01*
X76040750Y-80599554D01*
X76040749Y-80599554D01*
X76178836Y-80640099D01*
X76178838Y-80640100D01*
X76178839Y-80640100D01*
X76322762Y-80640100D01*
X76322762Y-80640099D01*
X76460853Y-80599553D01*
X76581928Y-80521743D01*
X76676177Y-80412973D01*
X76735965Y-80282057D01*
X76756447Y-80139600D01*
X76735965Y-79997143D01*
X76721012Y-79964400D01*
X78483153Y-79964400D01*
X78503634Y-80106856D01*
X78518588Y-80139600D01*
X78563423Y-80237773D01*
X78657672Y-80346543D01*
X78778747Y-80424353D01*
X78778750Y-80424354D01*
X78778749Y-80424354D01*
X78916836Y-80464899D01*
X78916838Y-80464900D01*
X78916839Y-80464900D01*
X79060762Y-80464900D01*
X79060762Y-80464899D01*
X79198853Y-80424353D01*
X79319928Y-80346543D01*
X79414177Y-80237773D01*
X79473965Y-80106857D01*
X79494447Y-79964400D01*
X79473965Y-79821943D01*
X79414177Y-79691027D01*
X79319928Y-79582257D01*
X79198853Y-79504447D01*
X79198851Y-79504446D01*
X79198849Y-79504445D01*
X79198850Y-79504445D01*
X79060763Y-79463900D01*
X79060761Y-79463900D01*
X78916839Y-79463900D01*
X78916836Y-79463900D01*
X78778749Y-79504445D01*
X78657673Y-79582256D01*
X78563423Y-79691026D01*
X78563422Y-79691028D01*
X78503634Y-79821943D01*
X78483153Y-79964400D01*
X76721012Y-79964400D01*
X76676177Y-79866227D01*
X76581928Y-79757457D01*
X76460853Y-79679647D01*
X76460851Y-79679646D01*
X76460849Y-79679645D01*
X76460850Y-79679645D01*
X76322763Y-79639100D01*
X76322761Y-79639100D01*
X76178839Y-79639100D01*
X76178836Y-79639100D01*
X76040749Y-79679645D01*
X75919673Y-79757456D01*
X75825423Y-79866226D01*
X75825422Y-79866228D01*
X75765634Y-79997143D01*
X75745153Y-80139600D01*
X71492189Y-80139600D01*
X71564933Y-80083782D01*
X71661187Y-79958341D01*
X71721695Y-79812262D01*
X71742333Y-79655500D01*
X71732690Y-79582257D01*
X71725724Y-79529343D01*
X71721695Y-79498738D01*
X71661187Y-79352659D01*
X71564933Y-79227218D01*
X71439492Y-79130964D01*
X71393863Y-79112064D01*
X71293413Y-79070456D01*
X71293411Y-79070455D01*
X71136652Y-79049818D01*
X71136650Y-79049818D01*
X70979890Y-79070455D01*
X70979888Y-79070456D01*
X70833811Y-79130963D01*
X70708369Y-79227218D01*
X70612114Y-79352660D01*
X70551607Y-79498737D01*
X70551606Y-79498739D01*
X70530969Y-79655498D01*
X66916333Y-79655498D01*
X66906690Y-79582257D01*
X66899724Y-79529343D01*
X66895695Y-79498738D01*
X66835187Y-79352659D01*
X66738933Y-79227218D01*
X66613492Y-79130964D01*
X66467413Y-79070456D01*
X66445868Y-79067619D01*
X66363438Y-79056767D01*
X66299542Y-79028500D01*
X66261071Y-78970175D01*
X66256685Y-78950013D01*
X66255933Y-78944300D01*
X66245756Y-78866998D01*
X72063718Y-78866998D01*
X72063718Y-78867001D01*
X72084355Y-79023760D01*
X72084356Y-79023762D01*
X72128760Y-79130964D01*
X72144864Y-79169841D01*
X72241118Y-79295282D01*
X72366559Y-79391536D01*
X72512638Y-79452044D01*
X72591019Y-79462363D01*
X72669399Y-79472682D01*
X72669400Y-79472682D01*
X72669401Y-79472682D01*
X72733554Y-79464236D01*
X72826162Y-79452044D01*
X72972241Y-79391536D01*
X73097682Y-79295282D01*
X73193936Y-79169841D01*
X73254444Y-79023762D01*
X73275082Y-78867000D01*
X73267474Y-78809213D01*
X86466800Y-78809213D01*
X86466800Y-78894787D01*
X86488949Y-78977445D01*
X86531736Y-79051554D01*
X86592246Y-79112064D01*
X86666355Y-79154851D01*
X86749013Y-79177000D01*
X86834587Y-79177000D01*
X86917245Y-79154851D01*
X86991354Y-79112064D01*
X87051864Y-79051554D01*
X87094651Y-78977445D01*
X87116800Y-78894787D01*
X87116800Y-78809213D01*
X87094651Y-78726555D01*
X87051864Y-78652446D01*
X86991354Y-78591936D01*
X86917245Y-78549149D01*
X86834587Y-78527000D01*
X86749013Y-78527000D01*
X86666355Y-78549149D01*
X86592246Y-78591936D01*
X86531736Y-78652446D01*
X86488949Y-78726555D01*
X86466800Y-78809213D01*
X73267474Y-78809213D01*
X73254444Y-78710238D01*
X73193936Y-78564159D01*
X73193935Y-78564158D01*
X73192502Y-78560697D01*
X73185033Y-78491227D01*
X73216308Y-78428748D01*
X73231580Y-78414866D01*
X73241329Y-78407385D01*
X73241328Y-78407385D01*
X73241333Y-78407382D01*
X73336928Y-78282800D01*
X83037553Y-78282800D01*
X83058034Y-78425256D01*
X83104500Y-78527000D01*
X83117823Y-78556173D01*
X83212072Y-78664943D01*
X83333147Y-78742753D01*
X83333150Y-78742754D01*
X83333149Y-78742754D01*
X83471236Y-78783299D01*
X83471238Y-78783300D01*
X83471239Y-78783300D01*
X83615162Y-78783300D01*
X83615162Y-78783299D01*
X83753253Y-78742753D01*
X83874328Y-78664943D01*
X83968577Y-78556173D01*
X84028365Y-78425257D01*
X84048847Y-78282800D01*
X84028365Y-78140343D01*
X83968577Y-78009427D01*
X83874328Y-77900657D01*
X83753253Y-77822847D01*
X83753251Y-77822846D01*
X83753249Y-77822845D01*
X83753250Y-77822845D01*
X83615163Y-77782300D01*
X83615161Y-77782300D01*
X83471239Y-77782300D01*
X83471236Y-77782300D01*
X83333149Y-77822845D01*
X83212073Y-77900656D01*
X83117823Y-78009426D01*
X83117822Y-78009428D01*
X83058034Y-78140343D01*
X83037553Y-78282800D01*
X73336928Y-78282800D01*
X73337587Y-78281941D01*
X73398095Y-78135862D01*
X73418733Y-77979100D01*
X73398095Y-77822338D01*
X73337587Y-77676259D01*
X73241333Y-77550818D01*
X73115892Y-77454564D01*
X73107150Y-77450943D01*
X72969813Y-77394056D01*
X72969811Y-77394055D01*
X72813052Y-77373418D01*
X72813050Y-77373418D01*
X72656290Y-77394055D01*
X72656288Y-77394056D01*
X72510211Y-77454563D01*
X72384769Y-77550818D01*
X72288514Y-77676260D01*
X72228007Y-77822337D01*
X72228006Y-77822339D01*
X72207369Y-77979098D01*
X72207369Y-77979101D01*
X72228006Y-78135860D01*
X72228008Y-78135865D01*
X72289948Y-78285403D01*
X72297417Y-78354872D01*
X72266142Y-78417351D01*
X72250878Y-78431227D01*
X72241122Y-78438713D01*
X72241118Y-78438717D01*
X72241118Y-78438718D01*
X72203017Y-78488372D01*
X72144863Y-78564160D01*
X72084356Y-78710237D01*
X72084355Y-78710239D01*
X72063718Y-78866998D01*
X66245756Y-78866998D01*
X66235295Y-78787538D01*
X66174787Y-78641459D01*
X66078533Y-78516018D01*
X65953092Y-78419764D01*
X65941267Y-78414866D01*
X65910305Y-78402041D01*
X65807013Y-78359256D01*
X65773713Y-78354872D01*
X65696232Y-78344671D01*
X65632336Y-78316404D01*
X65593865Y-78258079D01*
X65589479Y-78237917D01*
X65576043Y-78135862D01*
X65574895Y-78127138D01*
X65514387Y-77981059D01*
X65418133Y-77855618D01*
X65292692Y-77759364D01*
X65254738Y-77743643D01*
X65146613Y-77698856D01*
X65146611Y-77698855D01*
X64989852Y-77678218D01*
X64989850Y-77678218D01*
X64833090Y-77698855D01*
X64833088Y-77698856D01*
X64687011Y-77759363D01*
X64561569Y-77855618D01*
X64465314Y-77981060D01*
X64404807Y-78127137D01*
X64404806Y-78127139D01*
X64384169Y-78283898D01*
X58031911Y-78283898D01*
X58037320Y-78278489D01*
X58163075Y-78098893D01*
X58255732Y-77900188D01*
X58312477Y-77688412D01*
X58331586Y-77470000D01*
X58331339Y-77467182D01*
X58324942Y-77394056D01*
X58312477Y-77251588D01*
X58255732Y-77039812D01*
X58255374Y-77039045D01*
X58191258Y-76901547D01*
X58163075Y-76841107D01*
X58037320Y-76661511D01*
X57882289Y-76506480D01*
X57808908Y-76455098D01*
X72461369Y-76455098D01*
X72461369Y-76455101D01*
X72482006Y-76611860D01*
X72482007Y-76611862D01*
X72520477Y-76704738D01*
X72542515Y-76757941D01*
X72638769Y-76883382D01*
X72764210Y-76979636D01*
X72910289Y-77040144D01*
X72988670Y-77050463D01*
X73067050Y-77060782D01*
X73067051Y-77060782D01*
X73067052Y-77060782D01*
X73119305Y-77053902D01*
X73223813Y-77040144D01*
X73369892Y-76979636D01*
X73495333Y-76883382D01*
X73512125Y-76861498D01*
X76068169Y-76861498D01*
X76068169Y-76861501D01*
X76088806Y-77018260D01*
X76088807Y-77018262D01*
X76109740Y-77068800D01*
X76149315Y-77164341D01*
X76245569Y-77289782D01*
X76371010Y-77386036D01*
X76517089Y-77446544D01*
X76550503Y-77450943D01*
X76673850Y-77467182D01*
X76679951Y-77467182D01*
X76746990Y-77486867D01*
X76792744Y-77539669D01*
X76836223Y-77634873D01*
X76930472Y-77743643D01*
X77051547Y-77821453D01*
X77051550Y-77821454D01*
X77051549Y-77821454D01*
X77189636Y-77861999D01*
X77189638Y-77862000D01*
X77189639Y-77862000D01*
X77333562Y-77862000D01*
X77333562Y-77861999D01*
X77440721Y-77830535D01*
X77471650Y-77821454D01*
X77471650Y-77821453D01*
X77471653Y-77821453D01*
X77592728Y-77743643D01*
X77686977Y-77634873D01*
X77746765Y-77503957D01*
X77767247Y-77361500D01*
X77746765Y-77219043D01*
X77686977Y-77088127D01*
X77670230Y-77068800D01*
X78229153Y-77068800D01*
X78249634Y-77211256D01*
X78309422Y-77342171D01*
X78309423Y-77342173D01*
X78403672Y-77450943D01*
X78524747Y-77528753D01*
X78524750Y-77528754D01*
X78524749Y-77528754D01*
X78662836Y-77569299D01*
X78662838Y-77569300D01*
X78662839Y-77569300D01*
X78806762Y-77569300D01*
X78806762Y-77569299D01*
X78944853Y-77528753D01*
X79065928Y-77450943D01*
X79160177Y-77342173D01*
X79219965Y-77211257D01*
X79240447Y-77068800D01*
X79219965Y-76926343D01*
X79160177Y-76795427D01*
X79065928Y-76686657D01*
X78944853Y-76608847D01*
X78944851Y-76608846D01*
X78944849Y-76608845D01*
X78944850Y-76608845D01*
X78806763Y-76568300D01*
X78806761Y-76568300D01*
X78662839Y-76568300D01*
X78662836Y-76568300D01*
X78524749Y-76608845D01*
X78403673Y-76686656D01*
X78309423Y-76795426D01*
X78309422Y-76795428D01*
X78249634Y-76926343D01*
X78229153Y-77068800D01*
X77670230Y-77068800D01*
X77592728Y-76979357D01*
X77558181Y-76957155D01*
X77471651Y-76901545D01*
X77354757Y-76867223D01*
X77295979Y-76829449D01*
X77266954Y-76765893D01*
X77266753Y-76764430D01*
X77265898Y-76757939D01*
X77258895Y-76704738D01*
X77198387Y-76558659D01*
X77102133Y-76433218D01*
X76976692Y-76336964D01*
X76830613Y-76276456D01*
X76830611Y-76276455D01*
X76673852Y-76255818D01*
X76673850Y-76255818D01*
X76517090Y-76276455D01*
X76517088Y-76276456D01*
X76371011Y-76336963D01*
X76245569Y-76433218D01*
X76149314Y-76558660D01*
X76088807Y-76704737D01*
X76088806Y-76704739D01*
X76068169Y-76861498D01*
X73512125Y-76861498D01*
X73591587Y-76757941D01*
X73652095Y-76611862D01*
X73672733Y-76455100D01*
X73652095Y-76298338D01*
X73591587Y-76152259D01*
X73495333Y-76026818D01*
X73369892Y-75930564D01*
X73223813Y-75870056D01*
X73223811Y-75870055D01*
X73067052Y-75849418D01*
X73067050Y-75849418D01*
X72910290Y-75870055D01*
X72910288Y-75870056D01*
X72764211Y-75930563D01*
X72638769Y-76026818D01*
X72542514Y-76152260D01*
X72482007Y-76298337D01*
X72482006Y-76298339D01*
X72461369Y-76455098D01*
X57808908Y-76455098D01*
X57702693Y-76380725D01*
X57702689Y-76380723D01*
X57503994Y-76288070D01*
X57503980Y-76288065D01*
X57292217Y-76231324D01*
X57292207Y-76231322D01*
X57073801Y-76212214D01*
X57073799Y-76212214D01*
X56855392Y-76231322D01*
X56855382Y-76231324D01*
X56643619Y-76288065D01*
X56643605Y-76288070D01*
X56444910Y-76380723D01*
X56444908Y-76380724D01*
X56444907Y-76380725D01*
X56265311Y-76506480D01*
X56265309Y-76506481D01*
X56265306Y-76506484D01*
X56110284Y-76661506D01*
X55984524Y-76841107D01*
X55916182Y-76987670D01*
X55870010Y-77040109D01*
X55802816Y-77059261D01*
X55735935Y-77039045D01*
X55691418Y-76987670D01*
X55623075Y-76841107D01*
X55497320Y-76661511D01*
X55342289Y-76506480D01*
X55162693Y-76380725D01*
X55162689Y-76380723D01*
X54963994Y-76288070D01*
X54963980Y-76288065D01*
X54752217Y-76231324D01*
X54752207Y-76231322D01*
X54533801Y-76212214D01*
X54533799Y-76212214D01*
X54315392Y-76231322D01*
X54315382Y-76231324D01*
X54103619Y-76288065D01*
X54103605Y-76288070D01*
X53904910Y-76380723D01*
X53904908Y-76380724D01*
X53904907Y-76380725D01*
X53725311Y-76506480D01*
X53725309Y-76506481D01*
X53725306Y-76506484D01*
X53570284Y-76661506D01*
X53570281Y-76661509D01*
X53570280Y-76661511D01*
X53540011Y-76704740D01*
X53444524Y-76841108D01*
X53444523Y-76841110D01*
X53351870Y-77039805D01*
X53351865Y-77039819D01*
X53295124Y-77251582D01*
X53295122Y-77251592D01*
X53276014Y-77469999D01*
X48221586Y-77469999D01*
X48221339Y-77467182D01*
X48214942Y-77394056D01*
X48202477Y-77251588D01*
X48145732Y-77039812D01*
X48145374Y-77039045D01*
X48081258Y-76901547D01*
X48053075Y-76841107D01*
X47927320Y-76661511D01*
X47772289Y-76506480D01*
X47592693Y-76380725D01*
X47592689Y-76380723D01*
X47393994Y-76288070D01*
X47393980Y-76288065D01*
X47182217Y-76231324D01*
X47182207Y-76231322D01*
X46963801Y-76212214D01*
X46963799Y-76212214D01*
X46745392Y-76231322D01*
X46745382Y-76231324D01*
X46533619Y-76288065D01*
X46533605Y-76288070D01*
X46334910Y-76380723D01*
X46334908Y-76380724D01*
X46334907Y-76380725D01*
X46155311Y-76506480D01*
X46155309Y-76506481D01*
X46155306Y-76506484D01*
X46000284Y-76661506D01*
X45874524Y-76841107D01*
X45806182Y-76987670D01*
X45760010Y-77040109D01*
X45692816Y-77059261D01*
X45625935Y-77039045D01*
X45581418Y-76987670D01*
X45513075Y-76841107D01*
X45387320Y-76661511D01*
X45232289Y-76506480D01*
X45052693Y-76380725D01*
X45052689Y-76380723D01*
X44853994Y-76288070D01*
X44853980Y-76288065D01*
X44642217Y-76231324D01*
X44642207Y-76231322D01*
X44423801Y-76212214D01*
X44423799Y-76212214D01*
X44205392Y-76231322D01*
X44205382Y-76231324D01*
X43993619Y-76288065D01*
X43993605Y-76288070D01*
X43794910Y-76380723D01*
X43794908Y-76380724D01*
X43794907Y-76380725D01*
X43615311Y-76506480D01*
X43615309Y-76506481D01*
X43615306Y-76506484D01*
X43460284Y-76661506D01*
X43460281Y-76661509D01*
X43460280Y-76661511D01*
X43430011Y-76704740D01*
X43334524Y-76841108D01*
X43334523Y-76841110D01*
X43241870Y-77039805D01*
X43241865Y-77039819D01*
X43185124Y-77251582D01*
X43185122Y-77251592D01*
X43166014Y-77469999D01*
X41302013Y-77469999D01*
X41302013Y-75086406D01*
X41302014Y-75086403D01*
X41302013Y-75024936D01*
X41302329Y-75016091D01*
X41316641Y-74815955D01*
X41319157Y-74798449D01*
X41360867Y-74606711D01*
X41365846Y-74589753D01*
X41434419Y-74405899D01*
X41441768Y-74389809D01*
X41535804Y-74217593D01*
X41545360Y-74202724D01*
X41662953Y-74045638D01*
X41674527Y-74032281D01*
X41813281Y-73893527D01*
X41826638Y-73881953D01*
X41983724Y-73764360D01*
X41998593Y-73754804D01*
X42170814Y-73660765D01*
X42186899Y-73653419D01*
X42370753Y-73584846D01*
X42387711Y-73579867D01*
X42579449Y-73538157D01*
X42596948Y-73535641D01*
X42797093Y-73521328D01*
X42805936Y-73521013D01*
X42867403Y-73521014D01*
X42867407Y-73521013D01*
X64066121Y-73521013D01*
X64132013Y-73521013D01*
X64359515Y-73521013D01*
X64513941Y-73508216D01*
X64812956Y-73483439D01*
X64812958Y-73483438D01*
X64812966Y-73483438D01*
X65261764Y-73408546D01*
X65702845Y-73296848D01*
X65702858Y-73296843D01*
X65702864Y-73296842D01*
X66084524Y-73165817D01*
X66133196Y-73149108D01*
X66549877Y-72966334D01*
X66950041Y-72749776D01*
X67330955Y-72500912D01*
X67330955Y-72500911D01*
X67330964Y-72500906D01*
X67690008Y-72221450D01*
X67690009Y-72221448D01*
X67690018Y-72221442D01*
X68024775Y-71913276D01*
X68102172Y-71829200D01*
X74906953Y-71829200D01*
X74927434Y-71971656D01*
X74981664Y-72090400D01*
X74987223Y-72102573D01*
X75081472Y-72211343D01*
X75081474Y-72211344D01*
X75081473Y-72211344D01*
X75112813Y-72231485D01*
X75158567Y-72284289D01*
X75168511Y-72353447D01*
X75139486Y-72417003D01*
X75112813Y-72440115D01*
X75081474Y-72460255D01*
X74987223Y-72569026D01*
X74987222Y-72569028D01*
X74927434Y-72699943D01*
X74906953Y-72842400D01*
X74927434Y-72984856D01*
X74982010Y-73104358D01*
X74987223Y-73115773D01*
X75081472Y-73224543D01*
X75081474Y-73224544D01*
X75088177Y-73230353D01*
X75086839Y-73231896D01*
X75124961Y-73275898D01*
X75134898Y-73345057D01*
X75105868Y-73408610D01*
X75087925Y-73424157D01*
X75088177Y-73424447D01*
X75081474Y-73430255D01*
X75081472Y-73430256D01*
X75081472Y-73430257D01*
X75071161Y-73442157D01*
X74987223Y-73539026D01*
X74987222Y-73539028D01*
X74927434Y-73669943D01*
X74906953Y-73812400D01*
X74927434Y-73954856D01*
X74965655Y-74038546D01*
X74987223Y-74085773D01*
X75081472Y-74194543D01*
X75202547Y-74272353D01*
X75202550Y-74272354D01*
X75202549Y-74272354D01*
X75340636Y-74312899D01*
X75340638Y-74312900D01*
X75340639Y-74312900D01*
X75484562Y-74312900D01*
X75484562Y-74312899D01*
X75622653Y-74272353D01*
X75743728Y-74194543D01*
X75837977Y-74085773D01*
X75843187Y-74074362D01*
X75888939Y-74021560D01*
X75955978Y-74001873D01*
X76023018Y-74021555D01*
X76068775Y-74074358D01*
X76068775Y-74074359D01*
X76079421Y-74097670D01*
X76079422Y-74097671D01*
X76079423Y-74097673D01*
X76173672Y-74206443D01*
X76294747Y-74284253D01*
X76294750Y-74284254D01*
X76294749Y-74284254D01*
X76432836Y-74324799D01*
X76432838Y-74324800D01*
X76432839Y-74324800D01*
X76576762Y-74324800D01*
X76576762Y-74324799D01*
X76714853Y-74284253D01*
X76835928Y-74206443D01*
X76930177Y-74097673D01*
X76989965Y-73966757D01*
X77010447Y-73824300D01*
X76989965Y-73681843D01*
X76930177Y-73550927D01*
X76835928Y-73442157D01*
X76835925Y-73442155D01*
X76829223Y-73436347D01*
X76830561Y-73434802D01*
X76792443Y-73390812D01*
X76782499Y-73321654D01*
X76811523Y-73258098D01*
X76829474Y-73242543D01*
X76829223Y-73242253D01*
X76835920Y-73236447D01*
X76835928Y-73236443D01*
X76930177Y-73127673D01*
X76989965Y-72996757D01*
X77010447Y-72854300D01*
X76989965Y-72711843D01*
X76930177Y-72580927D01*
X76835928Y-72472157D01*
X76714853Y-72394347D01*
X76714851Y-72394346D01*
X76714849Y-72394345D01*
X76714850Y-72394345D01*
X76576763Y-72353800D01*
X76576761Y-72353800D01*
X76432839Y-72353800D01*
X76432836Y-72353800D01*
X76294749Y-72394345D01*
X76173673Y-72472156D01*
X76079423Y-72580926D01*
X76079422Y-72580927D01*
X76074210Y-72592341D01*
X76028453Y-72645143D01*
X75961413Y-72664826D01*
X75894374Y-72645139D01*
X75848623Y-72592338D01*
X75843412Y-72580928D01*
X75837977Y-72569027D01*
X75743728Y-72460257D01*
X75743725Y-72460255D01*
X75743725Y-72460254D01*
X75712388Y-72440116D01*
X75666632Y-72387313D01*
X75656688Y-72318154D01*
X75685712Y-72254598D01*
X75712388Y-72231484D01*
X75743725Y-72211345D01*
X75743725Y-72211344D01*
X75743728Y-72211343D01*
X75837977Y-72102573D01*
X75843536Y-72090400D01*
X78711753Y-72090400D01*
X78732234Y-72232856D01*
X78771189Y-72318154D01*
X78792023Y-72363773D01*
X78886272Y-72472543D01*
X79007347Y-72550353D01*
X79007350Y-72550354D01*
X79007349Y-72550354D01*
X79145436Y-72590899D01*
X79145438Y-72590900D01*
X79145439Y-72590900D01*
X79289362Y-72590900D01*
X79289362Y-72590899D01*
X79406610Y-72556473D01*
X79427450Y-72550354D01*
X79427450Y-72550353D01*
X79427453Y-72550353D01*
X79548528Y-72472543D01*
X79642777Y-72363773D01*
X79702565Y-72232857D01*
X79723047Y-72090400D01*
X79702565Y-71947943D01*
X79642777Y-71817027D01*
X79548528Y-71708257D01*
X79427453Y-71630447D01*
X79427451Y-71630446D01*
X79427449Y-71630445D01*
X79427450Y-71630445D01*
X79289363Y-71589900D01*
X79289361Y-71589900D01*
X79145439Y-71589900D01*
X79145436Y-71589900D01*
X79007349Y-71630445D01*
X78886273Y-71708256D01*
X78792023Y-71817026D01*
X78792022Y-71817028D01*
X78732234Y-71947943D01*
X78711753Y-72090400D01*
X75843536Y-72090400D01*
X75897765Y-71971657D01*
X75918247Y-71829200D01*
X75897765Y-71686743D01*
X75837977Y-71555827D01*
X75743728Y-71447057D01*
X75622653Y-71369247D01*
X75622651Y-71369246D01*
X75622649Y-71369245D01*
X75622650Y-71369245D01*
X75484563Y-71328700D01*
X75484561Y-71328700D01*
X75340639Y-71328700D01*
X75340636Y-71328700D01*
X75202549Y-71369245D01*
X75081473Y-71447056D01*
X74987223Y-71555826D01*
X74987222Y-71555828D01*
X74927434Y-71686743D01*
X74906953Y-71829200D01*
X68102172Y-71829200D01*
X68332941Y-71578518D01*
X68612411Y-71219456D01*
X68771862Y-70975398D01*
X69142718Y-70975398D01*
X69142718Y-70975401D01*
X69163355Y-71132160D01*
X69163356Y-71132162D01*
X69223864Y-71278241D01*
X69320118Y-71403682D01*
X69445559Y-71499936D01*
X69591638Y-71560444D01*
X69670019Y-71570763D01*
X69748399Y-71581082D01*
X69748400Y-71581082D01*
X69748401Y-71581082D01*
X69800654Y-71574202D01*
X69905162Y-71560444D01*
X70051241Y-71499936D01*
X70176682Y-71403682D01*
X70272936Y-71278241D01*
X70333444Y-71132162D01*
X70334361Y-71125198D01*
X71198818Y-71125198D01*
X71198818Y-71125201D01*
X71219455Y-71281960D01*
X71219456Y-71281962D01*
X71238815Y-71328700D01*
X71279964Y-71428041D01*
X71376218Y-71553482D01*
X71501659Y-71649736D01*
X71647738Y-71710244D01*
X71726119Y-71720563D01*
X71804499Y-71730882D01*
X71804500Y-71730882D01*
X71804501Y-71730882D01*
X71856754Y-71724002D01*
X71961262Y-71710244D01*
X72107341Y-71649736D01*
X72232782Y-71553482D01*
X72329036Y-71428041D01*
X72389544Y-71281962D01*
X72403302Y-71177454D01*
X72410182Y-71125201D01*
X72410182Y-71125198D01*
X72390461Y-70975401D01*
X72389544Y-70968438D01*
X72329036Y-70822359D01*
X72232782Y-70696918D01*
X72107341Y-70600664D01*
X72060896Y-70581426D01*
X71961262Y-70540156D01*
X71961260Y-70540155D01*
X71804501Y-70519518D01*
X71804499Y-70519518D01*
X71647739Y-70540155D01*
X71647737Y-70540156D01*
X71501660Y-70600663D01*
X71376218Y-70696918D01*
X71279963Y-70822360D01*
X71219456Y-70968437D01*
X71219455Y-70968439D01*
X71198818Y-71125198D01*
X70334361Y-71125198D01*
X70354082Y-70975400D01*
X70353165Y-70968438D01*
X70333444Y-70818639D01*
X70333444Y-70818638D01*
X70272936Y-70672559D01*
X70176682Y-70547118D01*
X70051241Y-70450864D01*
X70021138Y-70438395D01*
X69905162Y-70390356D01*
X69905160Y-70390355D01*
X69748401Y-70369718D01*
X69748399Y-70369718D01*
X69591639Y-70390355D01*
X69591637Y-70390356D01*
X69445560Y-70450863D01*
X69445559Y-70450864D01*
X69320118Y-70547118D01*
X69320117Y-70547119D01*
X69320116Y-70547120D01*
X69249168Y-70639581D01*
X69199758Y-70675658D01*
X69202927Y-70717737D01*
X69196224Y-70739286D01*
X69163357Y-70818634D01*
X69163355Y-70818639D01*
X69142718Y-70975398D01*
X68771862Y-70975398D01*
X68861275Y-70838542D01*
X68972608Y-70632816D01*
X69021828Y-70583226D01*
X69029954Y-70581426D01*
X69035135Y-70519380D01*
X69041739Y-70505076D01*
X69052307Y-70485545D01*
X69077834Y-70438378D01*
X69260607Y-70021697D01*
X69408348Y-69591346D01*
X69520045Y-69150265D01*
X69590343Y-68729001D01*
X70667189Y-68729001D01*
X70720960Y-68836990D01*
X70849401Y-69007072D01*
X71006901Y-69150652D01*
X71006903Y-69150654D01*
X71188103Y-69262848D01*
X71188105Y-69262849D01*
X71202901Y-69268580D01*
X71202901Y-69268579D01*
X72202901Y-69268579D01*
X72217696Y-69262849D01*
X72217698Y-69262848D01*
X72398898Y-69150654D01*
X72398900Y-69150652D01*
X72556400Y-69007072D01*
X72684841Y-68836990D01*
X72738613Y-68729001D01*
X73207189Y-68729001D01*
X73260960Y-68836990D01*
X73389401Y-69007072D01*
X73546901Y-69150652D01*
X73546903Y-69150654D01*
X73728103Y-69262848D01*
X73728105Y-69262849D01*
X73742901Y-69268580D01*
X73742901Y-69268579D01*
X74742901Y-69268579D01*
X74757696Y-69262849D01*
X74757698Y-69262848D01*
X74938898Y-69150654D01*
X74938900Y-69150652D01*
X75096400Y-69007072D01*
X75224841Y-68836990D01*
X75278613Y-68729001D01*
X74742901Y-68729001D01*
X74742901Y-69268579D01*
X73742901Y-69268579D01*
X73742901Y-68729001D01*
X73207189Y-68729001D01*
X72738613Y-68729001D01*
X72202901Y-68729001D01*
X72202901Y-69268579D01*
X71202901Y-69268579D01*
X71202901Y-68729001D01*
X70667189Y-68729001D01*
X69590343Y-68729001D01*
X69594938Y-68701467D01*
X69632513Y-68248016D01*
X69632513Y-68020514D01*
X69632513Y-67954622D01*
X69632513Y-65689001D01*
X70547472Y-65689001D01*
X70567145Y-65901311D01*
X70620576Y-66089100D01*
X70625497Y-66106393D01*
X70625497Y-66106395D01*
X70720533Y-66297254D01*
X70720535Y-66297256D01*
X70849029Y-66467408D01*
X71006599Y-66611053D01*
X71187882Y-66723299D01*
X71386703Y-66800322D01*
X71584874Y-66837366D01*
X71647154Y-66869034D01*
X71682427Y-66929347D01*
X71679493Y-66999155D01*
X71639284Y-67056295D01*
X71584873Y-67081144D01*
X71386842Y-67118163D01*
X71386837Y-67118164D01*
X71188111Y-67195150D01*
X71188102Y-67195154D01*
X71006903Y-67307347D01*
X71006901Y-67307349D01*
X70849401Y-67450929D01*
X70720960Y-67621011D01*
X70667188Y-67729000D01*
X70667189Y-67729001D01*
X71637075Y-67729001D01*
X71509908Y-67763076D01*
X71395894Y-67828902D01*
X71302802Y-67921994D01*
X71236976Y-68036008D01*
X71202901Y-68163175D01*
X71202901Y-68294827D01*
X71236976Y-68421994D01*
X71302802Y-68536008D01*
X71395894Y-68629100D01*
X71509908Y-68694926D01*
X71637075Y-68729001D01*
X71768727Y-68729001D01*
X71895894Y-68694926D01*
X72009908Y-68629100D01*
X72103000Y-68536008D01*
X72168826Y-68421994D01*
X72202901Y-68294827D01*
X72202901Y-68163175D01*
X72168826Y-68036008D01*
X72103000Y-67921994D01*
X72009908Y-67828902D01*
X71895894Y-67763076D01*
X71768727Y-67729001D01*
X72738613Y-67729001D01*
X72738613Y-67729000D01*
X73207188Y-67729000D01*
X73207189Y-67729001D01*
X74177075Y-67729001D01*
X74049908Y-67763076D01*
X73935894Y-67828902D01*
X73842802Y-67921994D01*
X73776976Y-68036008D01*
X73742901Y-68163175D01*
X73742901Y-68294827D01*
X73776976Y-68421994D01*
X73842802Y-68536008D01*
X73935894Y-68629100D01*
X74049908Y-68694926D01*
X74177075Y-68729001D01*
X74308727Y-68729001D01*
X74435894Y-68694926D01*
X74549908Y-68629100D01*
X74643000Y-68536008D01*
X74708826Y-68421994D01*
X74742901Y-68294827D01*
X74742901Y-68163175D01*
X74708826Y-68036008D01*
X74643000Y-67921994D01*
X74549908Y-67828902D01*
X74435894Y-67763076D01*
X74308727Y-67729001D01*
X75278613Y-67729001D01*
X75278613Y-67729000D01*
X75224841Y-67621011D01*
X75096400Y-67450929D01*
X74938900Y-67307349D01*
X74938898Y-67307347D01*
X74757699Y-67195154D01*
X74757690Y-67195150D01*
X74558964Y-67118164D01*
X74558959Y-67118163D01*
X74359567Y-67080890D01*
X74297286Y-67049222D01*
X74262013Y-66988909D01*
X74264947Y-66919101D01*
X74305156Y-66861961D01*
X74359567Y-66837112D01*
X74558959Y-66799838D01*
X74558964Y-66799837D01*
X74757690Y-66722851D01*
X74757699Y-66722847D01*
X74938898Y-66610654D01*
X74938900Y-66610652D01*
X75096400Y-66467072D01*
X75224841Y-66296990D01*
X75278613Y-66189001D01*
X74308727Y-66189001D01*
X74435894Y-66154926D01*
X74549908Y-66089100D01*
X74643000Y-65996008D01*
X74708826Y-65881994D01*
X74742901Y-65754827D01*
X74742901Y-65689001D01*
X75627472Y-65689001D01*
X75647145Y-65901311D01*
X75700576Y-66089100D01*
X75705497Y-66106393D01*
X75705497Y-66106395D01*
X75800533Y-66297254D01*
X75800535Y-66297256D01*
X75929029Y-66467408D01*
X76086599Y-66611053D01*
X76267882Y-66723299D01*
X76466703Y-66800322D01*
X76663514Y-66837112D01*
X76725794Y-66868780D01*
X76761067Y-66929093D01*
X76758133Y-66998901D01*
X76717924Y-67056041D01*
X76663514Y-67080889D01*
X76466703Y-67117680D01*
X76466700Y-67117680D01*
X76466700Y-67117681D01*
X76267883Y-67194702D01*
X76267881Y-67194703D01*
X76086600Y-67306948D01*
X75929028Y-67450594D01*
X75800533Y-67620747D01*
X75705497Y-67811606D01*
X75705497Y-67811608D01*
X75647145Y-68016690D01*
X75633572Y-68163175D01*
X75627472Y-68229001D01*
X75647145Y-68441311D01*
X75700576Y-68629100D01*
X75705497Y-68646393D01*
X75705497Y-68646395D01*
X75800533Y-68837254D01*
X75800535Y-68837256D01*
X75929029Y-69007408D01*
X76086599Y-69151053D01*
X76267882Y-69263299D01*
X76466703Y-69340322D01*
X76676291Y-69379501D01*
X76676293Y-69379501D01*
X76889509Y-69379501D01*
X76889511Y-69379501D01*
X77099099Y-69340322D01*
X77297920Y-69263299D01*
X77479203Y-69151053D01*
X77636773Y-69007408D01*
X77765267Y-68837256D01*
X77819171Y-68729001D01*
X78287189Y-68729001D01*
X78340960Y-68836990D01*
X78469401Y-69007072D01*
X78626901Y-69150652D01*
X78626903Y-69150654D01*
X78808103Y-69262848D01*
X78808105Y-69262849D01*
X78822901Y-69268580D01*
X78822901Y-69268579D01*
X79822901Y-69268579D01*
X79837696Y-69262849D01*
X79837698Y-69262848D01*
X80018898Y-69150654D01*
X80018900Y-69150652D01*
X80176400Y-69007072D01*
X80304841Y-68836990D01*
X80358613Y-68729001D01*
X79822901Y-68729001D01*
X79822901Y-69268579D01*
X78822901Y-69268579D01*
X78822901Y-68729001D01*
X78287189Y-68729001D01*
X77819171Y-68729001D01*
X77860304Y-68646395D01*
X77860304Y-68646394D01*
X77860306Y-68646390D01*
X77918657Y-68441311D01*
X77938330Y-68229001D01*
X77918657Y-68016691D01*
X77860306Y-67811612D01*
X77860304Y-67811607D01*
X77860304Y-67811606D01*
X77765268Y-67620747D01*
X77636773Y-67450594D01*
X77479203Y-67306949D01*
X77297920Y-67194703D01*
X77297918Y-67194702D01*
X77100348Y-67118164D01*
X77099099Y-67117680D01*
X76902286Y-67080889D01*
X76840007Y-67049222D01*
X76804734Y-66988909D01*
X76807668Y-66919101D01*
X76847877Y-66861961D01*
X76902285Y-66837112D01*
X77099099Y-66800322D01*
X77297920Y-66723299D01*
X77479203Y-66611053D01*
X77636773Y-66467408D01*
X77765267Y-66297256D01*
X77828973Y-66169316D01*
X77860304Y-66106395D01*
X77860304Y-66106394D01*
X77860306Y-66106390D01*
X77918657Y-65901311D01*
X77929430Y-65785048D01*
X77955216Y-65720112D01*
X77997523Y-65689805D01*
X78106031Y-65689805D01*
X78142404Y-65710669D01*
X78174594Y-65772682D01*
X78176371Y-65785048D01*
X78187145Y-65901311D01*
X78240576Y-66089100D01*
X78245497Y-66106393D01*
X78245497Y-66106395D01*
X78340533Y-66297254D01*
X78340535Y-66297256D01*
X78469029Y-66467408D01*
X78626599Y-66611053D01*
X78807882Y-66723299D01*
X79006703Y-66800322D01*
X79204874Y-66837366D01*
X79267154Y-66869034D01*
X79302427Y-66929347D01*
X79299493Y-66999155D01*
X79259284Y-67056295D01*
X79204873Y-67081144D01*
X79006842Y-67118163D01*
X79006837Y-67118164D01*
X78808111Y-67195150D01*
X78808102Y-67195154D01*
X78626903Y-67307347D01*
X78626901Y-67307349D01*
X78469401Y-67450929D01*
X78340960Y-67621011D01*
X78287188Y-67729000D01*
X78287189Y-67729001D01*
X79257075Y-67729001D01*
X79129908Y-67763076D01*
X79015894Y-67828902D01*
X78922802Y-67921994D01*
X78856976Y-68036008D01*
X78822901Y-68163175D01*
X78822901Y-68294827D01*
X78856976Y-68421994D01*
X78922802Y-68536008D01*
X79015894Y-68629100D01*
X79129908Y-68694926D01*
X79257075Y-68729001D01*
X79388727Y-68729001D01*
X79515894Y-68694926D01*
X79629908Y-68629100D01*
X79723000Y-68536008D01*
X79788826Y-68421994D01*
X79822901Y-68294827D01*
X79822901Y-68229001D01*
X80707472Y-68229001D01*
X80727145Y-68441311D01*
X80780576Y-68629100D01*
X80785497Y-68646393D01*
X80785497Y-68646395D01*
X80880533Y-68837254D01*
X80880535Y-68837256D01*
X81009029Y-69007408D01*
X81166599Y-69151053D01*
X81347882Y-69263299D01*
X81546703Y-69340322D01*
X81756291Y-69379501D01*
X81756293Y-69379501D01*
X81969509Y-69379501D01*
X81969511Y-69379501D01*
X82179099Y-69340322D01*
X82377920Y-69263299D01*
X82559203Y-69151053D01*
X82716773Y-69007408D01*
X82845267Y-68837256D01*
X82899171Y-68729001D01*
X82940304Y-68646395D01*
X82940304Y-68646394D01*
X82940306Y-68646390D01*
X82998657Y-68441311D01*
X83009430Y-68325048D01*
X83035216Y-68260112D01*
X83079770Y-68228195D01*
X83043398Y-68207332D01*
X83011208Y-68145319D01*
X83009430Y-68132952D01*
X83008750Y-68125614D01*
X82998657Y-68016691D01*
X82940306Y-67811612D01*
X82940304Y-67811607D01*
X82940304Y-67811606D01*
X82845268Y-67620747D01*
X82716773Y-67450594D01*
X82559203Y-67306949D01*
X82377920Y-67194703D01*
X82377918Y-67194702D01*
X82179102Y-67117681D01*
X82179101Y-67117680D01*
X82179099Y-67117680D01*
X81980927Y-67080635D01*
X81918647Y-67048966D01*
X81883374Y-66988654D01*
X81886308Y-66918846D01*
X81926517Y-66861706D01*
X81980928Y-66836857D01*
X82178959Y-66799838D01*
X82178964Y-66799837D01*
X82377690Y-66722851D01*
X82377699Y-66722847D01*
X82558898Y-66610654D01*
X82558900Y-66610652D01*
X82716400Y-66467072D01*
X82844841Y-66296990D01*
X82939834Y-66106217D01*
X82939842Y-66106197D01*
X82998162Y-65901220D01*
X82998163Y-65901216D01*
X83005430Y-65822790D01*
X83031216Y-65757852D01*
X83088016Y-65717164D01*
X83157797Y-65713644D01*
X83218404Y-65748409D01*
X83250594Y-65810421D01*
X83252901Y-65834230D01*
X83252901Y-66583786D01*
X83252903Y-66583809D01*
X83255809Y-66608870D01*
X83255810Y-66608874D01*
X83301112Y-66711475D01*
X83301115Y-66711480D01*
X83380421Y-66790786D01*
X83380426Y-66790789D01*
X83483024Y-66836090D01*
X83508107Y-66839000D01*
X84239332Y-66839000D01*
X84306371Y-66858684D01*
X84352126Y-66911488D01*
X84362070Y-66980647D01*
X84333045Y-67044203D01*
X84274267Y-67081977D01*
X84262116Y-67084889D01*
X84086703Y-67117680D01*
X84086701Y-67117680D01*
X84086699Y-67117681D01*
X83887883Y-67194702D01*
X83887881Y-67194703D01*
X83706600Y-67306948D01*
X83549028Y-67450594D01*
X83420533Y-67620747D01*
X83325497Y-67811606D01*
X83325497Y-67811608D01*
X83267145Y-68016690D01*
X83256372Y-68132952D01*
X83230586Y-68197889D01*
X83186031Y-68229805D01*
X83222404Y-68250669D01*
X83254594Y-68312682D01*
X83256371Y-68325048D01*
X83267145Y-68441311D01*
X83320576Y-68629100D01*
X83325497Y-68646393D01*
X83325497Y-68646395D01*
X83420533Y-68837254D01*
X83420535Y-68837256D01*
X83549029Y-69007408D01*
X83706599Y-69151053D01*
X83887882Y-69263299D01*
X84086703Y-69340322D01*
X84296291Y-69379501D01*
X84296293Y-69379501D01*
X84509509Y-69379501D01*
X84509511Y-69379501D01*
X84719099Y-69340322D01*
X84917920Y-69263299D01*
X85099203Y-69151053D01*
X85256773Y-69007408D01*
X85385267Y-68837256D01*
X85439171Y-68729001D01*
X85480304Y-68646395D01*
X85480304Y-68646394D01*
X85480306Y-68646390D01*
X85538657Y-68441311D01*
X85558330Y-68229001D01*
X85538657Y-68016691D01*
X85480306Y-67811612D01*
X85480304Y-67811607D01*
X85480304Y-67811606D01*
X85385268Y-67620747D01*
X85256773Y-67450594D01*
X85099203Y-67306949D01*
X84917920Y-67194703D01*
X84917918Y-67194702D01*
X84720348Y-67118164D01*
X84719099Y-67117680D01*
X84543682Y-67084888D01*
X84481402Y-67053220D01*
X84446129Y-66992908D01*
X84449063Y-66923100D01*
X84489272Y-66865960D01*
X84553990Y-66839629D01*
X84566468Y-66839000D01*
X85297687Y-66839000D01*
X85297709Y-66838998D01*
X85322770Y-66836092D01*
X85322774Y-66836091D01*
X85425375Y-66790789D01*
X85425380Y-66790786D01*
X85504686Y-66711480D01*
X85504689Y-66711475D01*
X85549990Y-66608878D01*
X85549990Y-66608876D01*
X85552900Y-66583795D01*
X85552901Y-66583792D01*
X85552901Y-66189001D01*
X84468727Y-66189001D01*
X84595894Y-66154926D01*
X84709908Y-66089100D01*
X84803000Y-65996008D01*
X84868826Y-65881994D01*
X84902901Y-65754827D01*
X84902901Y-65623175D01*
X84868826Y-65496008D01*
X84803000Y-65381994D01*
X84709908Y-65288902D01*
X84595894Y-65223076D01*
X84468727Y-65189001D01*
X84902901Y-65189001D01*
X85552900Y-65189001D01*
X85552900Y-64794215D01*
X85552898Y-64794192D01*
X85549992Y-64769131D01*
X85549991Y-64769127D01*
X85504689Y-64666526D01*
X85504686Y-64666521D01*
X85425380Y-64587215D01*
X85425375Y-64587212D01*
X85322777Y-64541911D01*
X85297695Y-64539001D01*
X84902901Y-64539001D01*
X84902901Y-65189001D01*
X84468727Y-65189001D01*
X84337075Y-65189001D01*
X84209908Y-65223076D01*
X84095894Y-65288902D01*
X84002802Y-65381994D01*
X83936976Y-65496008D01*
X83902901Y-65623175D01*
X83902901Y-64539001D01*
X83508115Y-64539001D01*
X83508092Y-64539003D01*
X83483031Y-64541909D01*
X83483027Y-64541910D01*
X83380426Y-64587212D01*
X83380421Y-64587215D01*
X83301115Y-64666521D01*
X83301112Y-64666526D01*
X83255811Y-64769123D01*
X83255811Y-64769125D01*
X83252901Y-64794206D01*
X83252901Y-65543769D01*
X83233216Y-65610808D01*
X83180412Y-65656563D01*
X83111254Y-65666507D01*
X83047698Y-65637482D01*
X83009924Y-65578704D01*
X83005430Y-65555210D01*
X82998163Y-65476784D01*
X82998162Y-65476781D01*
X82939842Y-65271804D01*
X82939834Y-65271784D01*
X82844841Y-65081011D01*
X82716400Y-64910929D01*
X82558900Y-64767349D01*
X82558898Y-64767347D01*
X82377702Y-64655156D01*
X82377694Y-64655152D01*
X82362901Y-64649420D01*
X82362901Y-65623175D01*
X82328826Y-65496008D01*
X82263000Y-65381994D01*
X82169908Y-65288902D01*
X82055894Y-65223076D01*
X81928727Y-65189001D01*
X81797075Y-65189001D01*
X81669908Y-65223076D01*
X81555894Y-65288902D01*
X81462802Y-65381994D01*
X81396976Y-65496008D01*
X81362901Y-65623175D01*
X81362901Y-65754827D01*
X81396976Y-65881994D01*
X81462802Y-65996008D01*
X81555894Y-66089100D01*
X81669908Y-66154926D01*
X81797075Y-66189001D01*
X80827189Y-66189001D01*
X80880960Y-66296990D01*
X81009401Y-66467072D01*
X81166901Y-66610652D01*
X81166903Y-66610654D01*
X81348102Y-66722847D01*
X81348111Y-66722851D01*
X81546837Y-66799837D01*
X81546842Y-66799838D01*
X81744873Y-66836857D01*
X81807154Y-66868525D01*
X81842427Y-66928837D01*
X81839493Y-66998646D01*
X81799284Y-67055786D01*
X81744874Y-67080635D01*
X81722118Y-67084889D01*
X81546703Y-67117680D01*
X81546701Y-67117680D01*
X81546699Y-67117681D01*
X81347883Y-67194702D01*
X81347881Y-67194703D01*
X81166600Y-67306948D01*
X81009028Y-67450594D01*
X80880533Y-67620747D01*
X80785497Y-67811606D01*
X80785497Y-67811608D01*
X80727145Y-68016690D01*
X80713572Y-68163175D01*
X80707472Y-68229001D01*
X79822901Y-68229001D01*
X79822901Y-68163175D01*
X79788826Y-68036008D01*
X79723000Y-67921994D01*
X79629908Y-67828902D01*
X79515894Y-67763076D01*
X79388727Y-67729001D01*
X80358613Y-67729001D01*
X80358613Y-67729000D01*
X80304841Y-67621011D01*
X80176400Y-67450929D01*
X80018900Y-67307349D01*
X80018898Y-67307347D01*
X79837699Y-67195154D01*
X79837690Y-67195150D01*
X79638964Y-67118164D01*
X79638959Y-67118163D01*
X79440928Y-67081144D01*
X79378647Y-67049476D01*
X79343374Y-66989163D01*
X79346308Y-66919355D01*
X79386517Y-66862215D01*
X79440925Y-66837367D01*
X79639099Y-66800322D01*
X79837920Y-66723299D01*
X80019203Y-66611053D01*
X80176773Y-66467408D01*
X80305267Y-66297256D01*
X80368973Y-66169316D01*
X80400304Y-66106395D01*
X80400304Y-66106394D01*
X80400306Y-66106390D01*
X80458657Y-65901311D01*
X80478330Y-65689001D01*
X80458657Y-65476691D01*
X80400306Y-65271612D01*
X80400304Y-65271607D01*
X80400304Y-65271606D01*
X80359171Y-65189000D01*
X80827188Y-65189000D01*
X80827189Y-65189001D01*
X81362901Y-65189001D01*
X81362901Y-64649421D01*
X81362900Y-64649420D01*
X81348107Y-64655152D01*
X81348099Y-64655156D01*
X81166903Y-64767347D01*
X81166901Y-64767349D01*
X81009401Y-64910929D01*
X80880960Y-65081011D01*
X80827188Y-65189000D01*
X80359171Y-65189000D01*
X80305268Y-65080747D01*
X80176773Y-64910594D01*
X80175254Y-64909209D01*
X80019203Y-64766949D01*
X79837920Y-64654703D01*
X79837918Y-64654702D01*
X79738509Y-64616191D01*
X79639099Y-64577680D01*
X79429511Y-64538501D01*
X79216291Y-64538501D01*
X79006703Y-64577680D01*
X79006700Y-64577680D01*
X79006700Y-64577681D01*
X78807883Y-64654702D01*
X78807881Y-64654703D01*
X78626600Y-64766948D01*
X78469028Y-64910594D01*
X78340533Y-65080747D01*
X78245497Y-65271606D01*
X78245497Y-65271608D01*
X78187145Y-65476690D01*
X78176372Y-65592952D01*
X78150586Y-65657889D01*
X78106031Y-65689805D01*
X77997523Y-65689805D01*
X77999770Y-65688195D01*
X77963398Y-65667332D01*
X77931208Y-65605319D01*
X77929430Y-65592952D01*
X77928110Y-65578704D01*
X77918657Y-65476691D01*
X77860306Y-65271612D01*
X77860304Y-65271607D01*
X77860304Y-65271606D01*
X77765268Y-65080747D01*
X77636773Y-64910594D01*
X77635254Y-64909209D01*
X77479203Y-64766949D01*
X77297920Y-64654703D01*
X77297918Y-64654702D01*
X77198509Y-64616191D01*
X77099099Y-64577680D01*
X76889511Y-64538501D01*
X76676291Y-64538501D01*
X76466703Y-64577680D01*
X76466700Y-64577680D01*
X76466700Y-64577681D01*
X76267883Y-64654702D01*
X76267881Y-64654703D01*
X76086600Y-64766948D01*
X75929028Y-64910594D01*
X75800533Y-65080747D01*
X75705497Y-65271606D01*
X75705497Y-65271608D01*
X75647145Y-65476690D01*
X75633572Y-65623175D01*
X75627472Y-65689001D01*
X74742901Y-65689001D01*
X74742901Y-65623175D01*
X74708826Y-65496008D01*
X74643000Y-65381994D01*
X74549908Y-65288902D01*
X74435894Y-65223076D01*
X74308727Y-65189001D01*
X74742901Y-65189001D01*
X75278613Y-65189001D01*
X75278613Y-65189000D01*
X75224841Y-65081011D01*
X75096400Y-64910929D01*
X74938900Y-64767349D01*
X74938898Y-64767347D01*
X74757702Y-64655156D01*
X74757694Y-64655152D01*
X74742901Y-64649420D01*
X74742901Y-65189001D01*
X74308727Y-65189001D01*
X74177075Y-65189001D01*
X74049908Y-65223076D01*
X73935894Y-65288902D01*
X73842802Y-65381994D01*
X73776976Y-65496008D01*
X73742901Y-65623175D01*
X73742901Y-65754827D01*
X73776976Y-65881994D01*
X73842802Y-65996008D01*
X73935894Y-66089100D01*
X74049908Y-66154926D01*
X74177075Y-66189001D01*
X73207189Y-66189001D01*
X73260960Y-66296990D01*
X73389401Y-66467072D01*
X73546901Y-66610652D01*
X73546903Y-66610654D01*
X73728102Y-66722847D01*
X73728111Y-66722851D01*
X73926837Y-66799837D01*
X73926842Y-66799838D01*
X74126234Y-66837112D01*
X74188515Y-66868780D01*
X74223788Y-66929093D01*
X74220854Y-66998901D01*
X74180645Y-67056041D01*
X74126234Y-67080890D01*
X73926842Y-67118163D01*
X73926837Y-67118164D01*
X73728111Y-67195150D01*
X73728102Y-67195154D01*
X73546903Y-67307347D01*
X73546901Y-67307349D01*
X73389401Y-67450929D01*
X73260960Y-67621011D01*
X73207188Y-67729000D01*
X72738613Y-67729000D01*
X72684841Y-67621011D01*
X72556400Y-67450929D01*
X72398900Y-67307349D01*
X72398898Y-67307347D01*
X72217699Y-67195154D01*
X72217690Y-67195150D01*
X72018964Y-67118164D01*
X72018959Y-67118163D01*
X71820928Y-67081144D01*
X71758647Y-67049476D01*
X71723374Y-66989163D01*
X71726308Y-66919355D01*
X71766517Y-66862215D01*
X71820925Y-66837367D01*
X72019099Y-66800322D01*
X72217920Y-66723299D01*
X72399203Y-66611053D01*
X72556773Y-66467408D01*
X72685267Y-66297256D01*
X72748973Y-66169316D01*
X72780304Y-66106395D01*
X72780304Y-66106394D01*
X72780306Y-66106390D01*
X72838657Y-65901311D01*
X72858330Y-65689001D01*
X72838657Y-65476691D01*
X72780306Y-65271612D01*
X72780304Y-65271607D01*
X72780304Y-65271606D01*
X72739171Y-65189000D01*
X73207188Y-65189000D01*
X73207189Y-65189001D01*
X73742901Y-65189001D01*
X73742901Y-64649421D01*
X73742900Y-64649420D01*
X73728107Y-64655152D01*
X73728099Y-64655156D01*
X73546903Y-64767347D01*
X73546901Y-64767349D01*
X73389401Y-64910929D01*
X73260960Y-65081011D01*
X73207188Y-65189000D01*
X72739171Y-65189000D01*
X72685268Y-65080747D01*
X72556773Y-64910594D01*
X72555254Y-64909209D01*
X72399203Y-64766949D01*
X72217920Y-64654703D01*
X72217918Y-64654702D01*
X72118509Y-64616191D01*
X72019099Y-64577680D01*
X71809511Y-64538501D01*
X71596291Y-64538501D01*
X71386703Y-64577680D01*
X71386700Y-64577680D01*
X71386700Y-64577681D01*
X71187883Y-64654702D01*
X71187881Y-64654703D01*
X71006600Y-64766948D01*
X70849028Y-64910594D01*
X70720533Y-65080747D01*
X70625497Y-65271606D01*
X70625497Y-65271608D01*
X70567145Y-65476690D01*
X70553572Y-65623175D01*
X70547472Y-65689001D01*
X69632513Y-65689001D01*
X69632513Y-65188506D01*
X69632514Y-65188503D01*
X69632513Y-65127036D01*
X69632829Y-65118191D01*
X69647141Y-64918055D01*
X69647142Y-64918053D01*
X69647141Y-64918048D01*
X69649657Y-64900549D01*
X69691367Y-64708811D01*
X69696346Y-64691853D01*
X69764919Y-64507999D01*
X69772268Y-64491909D01*
X69866304Y-64319693D01*
X69875860Y-64304824D01*
X69993453Y-64147738D01*
X70005029Y-64134380D01*
X70143781Y-63995627D01*
X70157138Y-63984053D01*
X70314224Y-63866460D01*
X70329093Y-63856904D01*
X70501314Y-63762865D01*
X70517399Y-63755519D01*
X70701253Y-63686946D01*
X70718211Y-63681967D01*
X70909949Y-63640257D01*
X70927448Y-63637741D01*
X71127593Y-63623428D01*
X71136436Y-63623113D01*
X71197903Y-63623114D01*
X71197907Y-63623113D01*
X85827619Y-63623113D01*
X85889082Y-63623113D01*
X85897928Y-63623428D01*
G37*
%TD.AperFunction*%
%TD*%
M02*
