%TF.GenerationSoftware,KiCad,Pcbnew,8.0.6*%
%TF.CreationDate,2026-02-16T15:05:02+02:00*%
%TF.ProjectId,ETH_TMC_shield,4554485f-544d-4435-9f73-6869656c642e,rev?*%
%TF.SameCoordinates,Original*%
%TF.FileFunction,Legend,Top*%
%TF.FilePolarity,Positive*%
%FSLAX46Y46*%
G04 Gerber Fmt 4.6, Leading zero omitted, Abs format (unit mm)*
G04 Created by KiCad (PCBNEW 8.0.6) date 2026-02-16 15:05:02*
%MOMM*%
%LPD*%
G01*
G04 APERTURE LIST*
%ADD10C,0.100000*%
%ADD11C,0.125000*%
%ADD12C,0.150000*%
%ADD13C,0.120000*%
%ADD14C,0.127000*%
%ADD15C,0.200000*%
%ADD16C,0.152400*%
%ADD17C,0.000000*%
G04 APERTURE END LIST*
D10*
X86809609Y-76189782D02*
X86809609Y-75880258D01*
X86809609Y-75880258D02*
X87000085Y-76046925D01*
X87000085Y-76046925D02*
X87000085Y-75975496D01*
X87000085Y-75975496D02*
X87023895Y-75927877D01*
X87023895Y-75927877D02*
X87047704Y-75904068D01*
X87047704Y-75904068D02*
X87095323Y-75880258D01*
X87095323Y-75880258D02*
X87214371Y-75880258D01*
X87214371Y-75880258D02*
X87261990Y-75904068D01*
X87261990Y-75904068D02*
X87285800Y-75927877D01*
X87285800Y-75927877D02*
X87309609Y-75975496D01*
X87309609Y-75975496D02*
X87309609Y-76118353D01*
X87309609Y-76118353D02*
X87285800Y-76165972D01*
X87285800Y-76165972D02*
X87261990Y-76189782D01*
X86809609Y-75737401D02*
X87309609Y-75570735D01*
X87309609Y-75570735D02*
X86809609Y-75404068D01*
X86809609Y-75285021D02*
X86809609Y-74975497D01*
X86809609Y-74975497D02*
X87000085Y-75142164D01*
X87000085Y-75142164D02*
X87000085Y-75070735D01*
X87000085Y-75070735D02*
X87023895Y-75023116D01*
X87023895Y-75023116D02*
X87047704Y-74999307D01*
X87047704Y-74999307D02*
X87095323Y-74975497D01*
X87095323Y-74975497D02*
X87214371Y-74975497D01*
X87214371Y-74975497D02*
X87261990Y-74999307D01*
X87261990Y-74999307D02*
X87285800Y-75023116D01*
X87285800Y-75023116D02*
X87309609Y-75070735D01*
X87309609Y-75070735D02*
X87309609Y-75213592D01*
X87309609Y-75213592D02*
X87285800Y-75261211D01*
X87285800Y-75261211D02*
X87261990Y-75285021D01*
D11*
X82035560Y-77344052D02*
X82440322Y-77344052D01*
X82440322Y-77344052D02*
X82487941Y-77320242D01*
X82487941Y-77320242D02*
X82511751Y-77296433D01*
X82511751Y-77296433D02*
X82535560Y-77248814D01*
X82535560Y-77248814D02*
X82535560Y-77153576D01*
X82535560Y-77153576D02*
X82511751Y-77105957D01*
X82511751Y-77105957D02*
X82487941Y-77082147D01*
X82487941Y-77082147D02*
X82440322Y-77058338D01*
X82440322Y-77058338D02*
X82035560Y-77058338D01*
X82035560Y-76605956D02*
X82035560Y-76701194D01*
X82035560Y-76701194D02*
X82059370Y-76748813D01*
X82059370Y-76748813D02*
X82083179Y-76772623D01*
X82083179Y-76772623D02*
X82154608Y-76820242D01*
X82154608Y-76820242D02*
X82249846Y-76844051D01*
X82249846Y-76844051D02*
X82440322Y-76844051D01*
X82440322Y-76844051D02*
X82487941Y-76820242D01*
X82487941Y-76820242D02*
X82511751Y-76796432D01*
X82511751Y-76796432D02*
X82535560Y-76748813D01*
X82535560Y-76748813D02*
X82535560Y-76653575D01*
X82535560Y-76653575D02*
X82511751Y-76605956D01*
X82511751Y-76605956D02*
X82487941Y-76582147D01*
X82487941Y-76582147D02*
X82440322Y-76558337D01*
X82440322Y-76558337D02*
X82321274Y-76558337D01*
X82321274Y-76558337D02*
X82273655Y-76582147D01*
X82273655Y-76582147D02*
X82249846Y-76605956D01*
X82249846Y-76605956D02*
X82226036Y-76653575D01*
X82226036Y-76653575D02*
X82226036Y-76748813D01*
X82226036Y-76748813D02*
X82249846Y-76796432D01*
X82249846Y-76796432D02*
X82273655Y-76820242D01*
X82273655Y-76820242D02*
X82321274Y-76844051D01*
X81926872Y-72480840D02*
X81903063Y-72504650D01*
X81903063Y-72504650D02*
X81831634Y-72528459D01*
X81831634Y-72528459D02*
X81784015Y-72528459D01*
X81784015Y-72528459D02*
X81712587Y-72504650D01*
X81712587Y-72504650D02*
X81664968Y-72457030D01*
X81664968Y-72457030D02*
X81641158Y-72409411D01*
X81641158Y-72409411D02*
X81617349Y-72314173D01*
X81617349Y-72314173D02*
X81617349Y-72242745D01*
X81617349Y-72242745D02*
X81641158Y-72147507D01*
X81641158Y-72147507D02*
X81664968Y-72099888D01*
X81664968Y-72099888D02*
X81712587Y-72052269D01*
X81712587Y-72052269D02*
X81784015Y-72028459D01*
X81784015Y-72028459D02*
X81831634Y-72028459D01*
X81831634Y-72028459D02*
X81903063Y-72052269D01*
X81903063Y-72052269D02*
X81926872Y-72076078D01*
X82355444Y-72195126D02*
X82355444Y-72528459D01*
X82236396Y-72004650D02*
X82117349Y-72361792D01*
X82117349Y-72361792D02*
X82426872Y-72361792D01*
X82569729Y-72028459D02*
X82903062Y-72028459D01*
X82903062Y-72028459D02*
X82688777Y-72528459D01*
X79035809Y-94029228D02*
X78797714Y-94195894D01*
X79035809Y-94314942D02*
X78535809Y-94314942D01*
X78535809Y-94314942D02*
X78535809Y-94124466D01*
X78535809Y-94124466D02*
X78559619Y-94076847D01*
X78559619Y-94076847D02*
X78583428Y-94053037D01*
X78583428Y-94053037D02*
X78631047Y-94029228D01*
X78631047Y-94029228D02*
X78702476Y-94029228D01*
X78702476Y-94029228D02*
X78750095Y-94053037D01*
X78750095Y-94053037D02*
X78773904Y-94076847D01*
X78773904Y-94076847D02*
X78797714Y-94124466D01*
X78797714Y-94124466D02*
X78797714Y-94314942D01*
X78535809Y-93862561D02*
X78535809Y-93553037D01*
X78535809Y-93553037D02*
X78726285Y-93719704D01*
X78726285Y-93719704D02*
X78726285Y-93648275D01*
X78726285Y-93648275D02*
X78750095Y-93600656D01*
X78750095Y-93600656D02*
X78773904Y-93576847D01*
X78773904Y-93576847D02*
X78821523Y-93553037D01*
X78821523Y-93553037D02*
X78940571Y-93553037D01*
X78940571Y-93553037D02*
X78988190Y-93576847D01*
X78988190Y-93576847D02*
X79012000Y-93600656D01*
X79012000Y-93600656D02*
X79035809Y-93648275D01*
X79035809Y-93648275D02*
X79035809Y-93791132D01*
X79035809Y-93791132D02*
X79012000Y-93838751D01*
X79012000Y-93838751D02*
X78988190Y-93862561D01*
X79035809Y-93314942D02*
X79035809Y-93219704D01*
X79035809Y-93219704D02*
X79012000Y-93172085D01*
X79012000Y-93172085D02*
X78988190Y-93148276D01*
X78988190Y-93148276D02*
X78916761Y-93100657D01*
X78916761Y-93100657D02*
X78821523Y-93076847D01*
X78821523Y-93076847D02*
X78631047Y-93076847D01*
X78631047Y-93076847D02*
X78583428Y-93100657D01*
X78583428Y-93100657D02*
X78559619Y-93124466D01*
X78559619Y-93124466D02*
X78535809Y-93172085D01*
X78535809Y-93172085D02*
X78535809Y-93267323D01*
X78535809Y-93267323D02*
X78559619Y-93314942D01*
X78559619Y-93314942D02*
X78583428Y-93338752D01*
X78583428Y-93338752D02*
X78631047Y-93362561D01*
X78631047Y-93362561D02*
X78750095Y-93362561D01*
X78750095Y-93362561D02*
X78797714Y-93338752D01*
X78797714Y-93338752D02*
X78821523Y-93314942D01*
X78821523Y-93314942D02*
X78845333Y-93267323D01*
X78845333Y-93267323D02*
X78845333Y-93172085D01*
X78845333Y-93172085D02*
X78821523Y-93124466D01*
X78821523Y-93124466D02*
X78797714Y-93100657D01*
X78797714Y-93100657D02*
X78750095Y-93076847D01*
X78826905Y-73626514D02*
X78826905Y-73864609D01*
X78660239Y-73364609D02*
X78826905Y-73626514D01*
X78826905Y-73626514D02*
X78993572Y-73364609D01*
X79136429Y-73412228D02*
X79160238Y-73388419D01*
X79160238Y-73388419D02*
X79207857Y-73364609D01*
X79207857Y-73364609D02*
X79326905Y-73364609D01*
X79326905Y-73364609D02*
X79374524Y-73388419D01*
X79374524Y-73388419D02*
X79398333Y-73412228D01*
X79398333Y-73412228D02*
X79422143Y-73459847D01*
X79422143Y-73459847D02*
X79422143Y-73507466D01*
X79422143Y-73507466D02*
X79398333Y-73578895D01*
X79398333Y-73578895D02*
X79112619Y-73864609D01*
X79112619Y-73864609D02*
X79422143Y-73864609D01*
X84260571Y-77621790D02*
X84236762Y-77645600D01*
X84236762Y-77645600D02*
X84165333Y-77669409D01*
X84165333Y-77669409D02*
X84117714Y-77669409D01*
X84117714Y-77669409D02*
X84046286Y-77645600D01*
X84046286Y-77645600D02*
X83998667Y-77597980D01*
X83998667Y-77597980D02*
X83974857Y-77550361D01*
X83974857Y-77550361D02*
X83951048Y-77455123D01*
X83951048Y-77455123D02*
X83951048Y-77383695D01*
X83951048Y-77383695D02*
X83974857Y-77288457D01*
X83974857Y-77288457D02*
X83998667Y-77240838D01*
X83998667Y-77240838D02*
X84046286Y-77193219D01*
X84046286Y-77193219D02*
X84117714Y-77169409D01*
X84117714Y-77169409D02*
X84165333Y-77169409D01*
X84165333Y-77169409D02*
X84236762Y-77193219D01*
X84236762Y-77193219D02*
X84260571Y-77217028D01*
X84689143Y-77336076D02*
X84689143Y-77669409D01*
X84570095Y-77145600D02*
X84451048Y-77502742D01*
X84451048Y-77502742D02*
X84760571Y-77502742D01*
X85165333Y-77169409D02*
X85070095Y-77169409D01*
X85070095Y-77169409D02*
X85022476Y-77193219D01*
X85022476Y-77193219D02*
X84998666Y-77217028D01*
X84998666Y-77217028D02*
X84951047Y-77288457D01*
X84951047Y-77288457D02*
X84927238Y-77383695D01*
X84927238Y-77383695D02*
X84927238Y-77574171D01*
X84927238Y-77574171D02*
X84951047Y-77621790D01*
X84951047Y-77621790D02*
X84974857Y-77645600D01*
X84974857Y-77645600D02*
X85022476Y-77669409D01*
X85022476Y-77669409D02*
X85117714Y-77669409D01*
X85117714Y-77669409D02*
X85165333Y-77645600D01*
X85165333Y-77645600D02*
X85189142Y-77621790D01*
X85189142Y-77621790D02*
X85212952Y-77574171D01*
X85212952Y-77574171D02*
X85212952Y-77455123D01*
X85212952Y-77455123D02*
X85189142Y-77407504D01*
X85189142Y-77407504D02*
X85165333Y-77383695D01*
X85165333Y-77383695D02*
X85117714Y-77359885D01*
X85117714Y-77359885D02*
X85022476Y-77359885D01*
X85022476Y-77359885D02*
X84974857Y-77383695D01*
X84974857Y-77383695D02*
X84951047Y-77407504D01*
X84951047Y-77407504D02*
X84927238Y-77455123D01*
X75141971Y-70687590D02*
X75118162Y-70711400D01*
X75118162Y-70711400D02*
X75046733Y-70735209D01*
X75046733Y-70735209D02*
X74999114Y-70735209D01*
X74999114Y-70735209D02*
X74927686Y-70711400D01*
X74927686Y-70711400D02*
X74880067Y-70663780D01*
X74880067Y-70663780D02*
X74856257Y-70616161D01*
X74856257Y-70616161D02*
X74832448Y-70520923D01*
X74832448Y-70520923D02*
X74832448Y-70449495D01*
X74832448Y-70449495D02*
X74856257Y-70354257D01*
X74856257Y-70354257D02*
X74880067Y-70306638D01*
X74880067Y-70306638D02*
X74927686Y-70259019D01*
X74927686Y-70259019D02*
X74999114Y-70235209D01*
X74999114Y-70235209D02*
X75046733Y-70235209D01*
X75046733Y-70235209D02*
X75118162Y-70259019D01*
X75118162Y-70259019D02*
X75141971Y-70282828D01*
X75570543Y-70401876D02*
X75570543Y-70735209D01*
X75451495Y-70211400D02*
X75332448Y-70568542D01*
X75332448Y-70568542D02*
X75641971Y-70568542D01*
X75784828Y-70235209D02*
X76094352Y-70235209D01*
X76094352Y-70235209D02*
X75927685Y-70425685D01*
X75927685Y-70425685D02*
X75999114Y-70425685D01*
X75999114Y-70425685D02*
X76046733Y-70449495D01*
X76046733Y-70449495D02*
X76070542Y-70473304D01*
X76070542Y-70473304D02*
X76094352Y-70520923D01*
X76094352Y-70520923D02*
X76094352Y-70639971D01*
X76094352Y-70639971D02*
X76070542Y-70687590D01*
X76070542Y-70687590D02*
X76046733Y-70711400D01*
X76046733Y-70711400D02*
X75999114Y-70735209D01*
X75999114Y-70735209D02*
X75856257Y-70735209D01*
X75856257Y-70735209D02*
X75808638Y-70711400D01*
X75808638Y-70711400D02*
X75784828Y-70687590D01*
X63153171Y-87451590D02*
X63129362Y-87475400D01*
X63129362Y-87475400D02*
X63057933Y-87499209D01*
X63057933Y-87499209D02*
X63010314Y-87499209D01*
X63010314Y-87499209D02*
X62938886Y-87475400D01*
X62938886Y-87475400D02*
X62891267Y-87427780D01*
X62891267Y-87427780D02*
X62867457Y-87380161D01*
X62867457Y-87380161D02*
X62843648Y-87284923D01*
X62843648Y-87284923D02*
X62843648Y-87213495D01*
X62843648Y-87213495D02*
X62867457Y-87118257D01*
X62867457Y-87118257D02*
X62891267Y-87070638D01*
X62891267Y-87070638D02*
X62938886Y-87023019D01*
X62938886Y-87023019D02*
X63010314Y-86999209D01*
X63010314Y-86999209D02*
X63057933Y-86999209D01*
X63057933Y-86999209D02*
X63129362Y-87023019D01*
X63129362Y-87023019D02*
X63153171Y-87046828D01*
X63605552Y-86999209D02*
X63367457Y-86999209D01*
X63367457Y-86999209D02*
X63343648Y-87237304D01*
X63343648Y-87237304D02*
X63367457Y-87213495D01*
X63367457Y-87213495D02*
X63415076Y-87189685D01*
X63415076Y-87189685D02*
X63534124Y-87189685D01*
X63534124Y-87189685D02*
X63581743Y-87213495D01*
X63581743Y-87213495D02*
X63605552Y-87237304D01*
X63605552Y-87237304D02*
X63629362Y-87284923D01*
X63629362Y-87284923D02*
X63629362Y-87403971D01*
X63629362Y-87403971D02*
X63605552Y-87451590D01*
X63605552Y-87451590D02*
X63581743Y-87475400D01*
X63581743Y-87475400D02*
X63534124Y-87499209D01*
X63534124Y-87499209D02*
X63415076Y-87499209D01*
X63415076Y-87499209D02*
X63367457Y-87475400D01*
X63367457Y-87475400D02*
X63343648Y-87451590D01*
X63796028Y-86999209D02*
X64129361Y-86999209D01*
X64129361Y-86999209D02*
X63915076Y-87499209D01*
X74799209Y-73190847D02*
X74299209Y-73190847D01*
X74299209Y-73190847D02*
X74299209Y-73071799D01*
X74299209Y-73071799D02*
X74323019Y-73000371D01*
X74323019Y-73000371D02*
X74370638Y-72952752D01*
X74370638Y-72952752D02*
X74418257Y-72928942D01*
X74418257Y-72928942D02*
X74513495Y-72905133D01*
X74513495Y-72905133D02*
X74584923Y-72905133D01*
X74584923Y-72905133D02*
X74680161Y-72928942D01*
X74680161Y-72928942D02*
X74727780Y-72952752D01*
X74727780Y-72952752D02*
X74775400Y-73000371D01*
X74775400Y-73000371D02*
X74799209Y-73071799D01*
X74799209Y-73071799D02*
X74799209Y-73190847D01*
X74299209Y-72738466D02*
X74299209Y-72428942D01*
X74299209Y-72428942D02*
X74489685Y-72595609D01*
X74489685Y-72595609D02*
X74489685Y-72524180D01*
X74489685Y-72524180D02*
X74513495Y-72476561D01*
X74513495Y-72476561D02*
X74537304Y-72452752D01*
X74537304Y-72452752D02*
X74584923Y-72428942D01*
X74584923Y-72428942D02*
X74703971Y-72428942D01*
X74703971Y-72428942D02*
X74751590Y-72452752D01*
X74751590Y-72452752D02*
X74775400Y-72476561D01*
X74775400Y-72476561D02*
X74799209Y-72524180D01*
X74799209Y-72524180D02*
X74799209Y-72667037D01*
X74799209Y-72667037D02*
X74775400Y-72714656D01*
X74775400Y-72714656D02*
X74751590Y-72738466D01*
X68553990Y-73387733D02*
X68577800Y-73411542D01*
X68577800Y-73411542D02*
X68601609Y-73482971D01*
X68601609Y-73482971D02*
X68601609Y-73530590D01*
X68601609Y-73530590D02*
X68577800Y-73602018D01*
X68577800Y-73602018D02*
X68530180Y-73649637D01*
X68530180Y-73649637D02*
X68482561Y-73673447D01*
X68482561Y-73673447D02*
X68387323Y-73697256D01*
X68387323Y-73697256D02*
X68315895Y-73697256D01*
X68315895Y-73697256D02*
X68220657Y-73673447D01*
X68220657Y-73673447D02*
X68173038Y-73649637D01*
X68173038Y-73649637D02*
X68125419Y-73602018D01*
X68125419Y-73602018D02*
X68101609Y-73530590D01*
X68101609Y-73530590D02*
X68101609Y-73482971D01*
X68101609Y-73482971D02*
X68125419Y-73411542D01*
X68125419Y-73411542D02*
X68149228Y-73387733D01*
X68101609Y-72935352D02*
X68101609Y-73173447D01*
X68101609Y-73173447D02*
X68339704Y-73197256D01*
X68339704Y-73197256D02*
X68315895Y-73173447D01*
X68315895Y-73173447D02*
X68292085Y-73125828D01*
X68292085Y-73125828D02*
X68292085Y-73006780D01*
X68292085Y-73006780D02*
X68315895Y-72959161D01*
X68315895Y-72959161D02*
X68339704Y-72935352D01*
X68339704Y-72935352D02*
X68387323Y-72911542D01*
X68387323Y-72911542D02*
X68506371Y-72911542D01*
X68506371Y-72911542D02*
X68553990Y-72935352D01*
X68553990Y-72935352D02*
X68577800Y-72959161D01*
X68577800Y-72959161D02*
X68601609Y-73006780D01*
X68601609Y-73006780D02*
X68601609Y-73125828D01*
X68601609Y-73125828D02*
X68577800Y-73173447D01*
X68577800Y-73173447D02*
X68553990Y-73197256D01*
X59277682Y-75106109D02*
X59277682Y-75463252D01*
X59277682Y-75463252D02*
X59253873Y-75534680D01*
X59253873Y-75534680D02*
X59206254Y-75582300D01*
X59206254Y-75582300D02*
X59134825Y-75606109D01*
X59134825Y-75606109D02*
X59087206Y-75606109D01*
X59730063Y-75106109D02*
X59634825Y-75106109D01*
X59634825Y-75106109D02*
X59587206Y-75129919D01*
X59587206Y-75129919D02*
X59563396Y-75153728D01*
X59563396Y-75153728D02*
X59515777Y-75225157D01*
X59515777Y-75225157D02*
X59491968Y-75320395D01*
X59491968Y-75320395D02*
X59491968Y-75510871D01*
X59491968Y-75510871D02*
X59515777Y-75558490D01*
X59515777Y-75558490D02*
X59539587Y-75582300D01*
X59539587Y-75582300D02*
X59587206Y-75606109D01*
X59587206Y-75606109D02*
X59682444Y-75606109D01*
X59682444Y-75606109D02*
X59730063Y-75582300D01*
X59730063Y-75582300D02*
X59753872Y-75558490D01*
X59753872Y-75558490D02*
X59777682Y-75510871D01*
X59777682Y-75510871D02*
X59777682Y-75391823D01*
X59777682Y-75391823D02*
X59753872Y-75344204D01*
X59753872Y-75344204D02*
X59730063Y-75320395D01*
X59730063Y-75320395D02*
X59682444Y-75296585D01*
X59682444Y-75296585D02*
X59587206Y-75296585D01*
X59587206Y-75296585D02*
X59539587Y-75320395D01*
X59539587Y-75320395D02*
X59515777Y-75344204D01*
X59515777Y-75344204D02*
X59491968Y-75391823D01*
X62581809Y-95746047D02*
X62081809Y-95746047D01*
X62081809Y-95746047D02*
X62081809Y-95626999D01*
X62081809Y-95626999D02*
X62105619Y-95555571D01*
X62105619Y-95555571D02*
X62153238Y-95507952D01*
X62153238Y-95507952D02*
X62200857Y-95484142D01*
X62200857Y-95484142D02*
X62296095Y-95460333D01*
X62296095Y-95460333D02*
X62367523Y-95460333D01*
X62367523Y-95460333D02*
X62462761Y-95484142D01*
X62462761Y-95484142D02*
X62510380Y-95507952D01*
X62510380Y-95507952D02*
X62558000Y-95555571D01*
X62558000Y-95555571D02*
X62581809Y-95626999D01*
X62581809Y-95626999D02*
X62581809Y-95746047D01*
X62296095Y-95174618D02*
X62272285Y-95222237D01*
X62272285Y-95222237D02*
X62248476Y-95246047D01*
X62248476Y-95246047D02*
X62200857Y-95269856D01*
X62200857Y-95269856D02*
X62177047Y-95269856D01*
X62177047Y-95269856D02*
X62129428Y-95246047D01*
X62129428Y-95246047D02*
X62105619Y-95222237D01*
X62105619Y-95222237D02*
X62081809Y-95174618D01*
X62081809Y-95174618D02*
X62081809Y-95079380D01*
X62081809Y-95079380D02*
X62105619Y-95031761D01*
X62105619Y-95031761D02*
X62129428Y-95007952D01*
X62129428Y-95007952D02*
X62177047Y-94984142D01*
X62177047Y-94984142D02*
X62200857Y-94984142D01*
X62200857Y-94984142D02*
X62248476Y-95007952D01*
X62248476Y-95007952D02*
X62272285Y-95031761D01*
X62272285Y-95031761D02*
X62296095Y-95079380D01*
X62296095Y-95079380D02*
X62296095Y-95174618D01*
X62296095Y-95174618D02*
X62319904Y-95222237D01*
X62319904Y-95222237D02*
X62343714Y-95246047D01*
X62343714Y-95246047D02*
X62391333Y-95269856D01*
X62391333Y-95269856D02*
X62486571Y-95269856D01*
X62486571Y-95269856D02*
X62534190Y-95246047D01*
X62534190Y-95246047D02*
X62558000Y-95222237D01*
X62558000Y-95222237D02*
X62581809Y-95174618D01*
X62581809Y-95174618D02*
X62581809Y-95079380D01*
X62581809Y-95079380D02*
X62558000Y-95031761D01*
X62558000Y-95031761D02*
X62534190Y-95007952D01*
X62534190Y-95007952D02*
X62486571Y-94984142D01*
X62486571Y-94984142D02*
X62391333Y-94984142D01*
X62391333Y-94984142D02*
X62343714Y-95007952D01*
X62343714Y-95007952D02*
X62319904Y-95031761D01*
X62319904Y-95031761D02*
X62296095Y-95079380D01*
X57248038Y-98155009D02*
X57248038Y-98512152D01*
X57248038Y-98512152D02*
X57224229Y-98583580D01*
X57224229Y-98583580D02*
X57176610Y-98631200D01*
X57176610Y-98631200D02*
X57105181Y-98655009D01*
X57105181Y-98655009D02*
X57057562Y-98655009D01*
X57748038Y-98655009D02*
X57462324Y-98655009D01*
X57605181Y-98655009D02*
X57605181Y-98155009D01*
X57605181Y-98155009D02*
X57557562Y-98226438D01*
X57557562Y-98226438D02*
X57509943Y-98274057D01*
X57509943Y-98274057D02*
X57462324Y-98297866D01*
X58224228Y-98655009D02*
X57938514Y-98655009D01*
X58081371Y-98655009D02*
X58081371Y-98155009D01*
X58081371Y-98155009D02*
X58033752Y-98226438D01*
X58033752Y-98226438D02*
X57986133Y-98274057D01*
X57986133Y-98274057D02*
X57938514Y-98297866D01*
X72024641Y-90154328D02*
X72048451Y-90178137D01*
X72048451Y-90178137D02*
X72072260Y-90249566D01*
X72072260Y-90249566D02*
X72072260Y-90297185D01*
X72072260Y-90297185D02*
X72048451Y-90368613D01*
X72048451Y-90368613D02*
X72000831Y-90416232D01*
X72000831Y-90416232D02*
X71953212Y-90440042D01*
X71953212Y-90440042D02*
X71857974Y-90463851D01*
X71857974Y-90463851D02*
X71786546Y-90463851D01*
X71786546Y-90463851D02*
X71691308Y-90440042D01*
X71691308Y-90440042D02*
X71643689Y-90416232D01*
X71643689Y-90416232D02*
X71596070Y-90368613D01*
X71596070Y-90368613D02*
X71572260Y-90297185D01*
X71572260Y-90297185D02*
X71572260Y-90249566D01*
X71572260Y-90249566D02*
X71596070Y-90178137D01*
X71596070Y-90178137D02*
X71619879Y-90154328D01*
X71738927Y-89725756D02*
X72072260Y-89725756D01*
X71548451Y-89844804D02*
X71905593Y-89963851D01*
X71905593Y-89963851D02*
X71905593Y-89654328D01*
X71738927Y-89249566D02*
X72072260Y-89249566D01*
X71548451Y-89368614D02*
X71905593Y-89487661D01*
X71905593Y-89487661D02*
X71905593Y-89178138D01*
X61552971Y-84502009D02*
X61386305Y-84263914D01*
X61267257Y-84502009D02*
X61267257Y-84002009D01*
X61267257Y-84002009D02*
X61457733Y-84002009D01*
X61457733Y-84002009D02*
X61505352Y-84025819D01*
X61505352Y-84025819D02*
X61529162Y-84049628D01*
X61529162Y-84049628D02*
X61552971Y-84097247D01*
X61552971Y-84097247D02*
X61552971Y-84168676D01*
X61552971Y-84168676D02*
X61529162Y-84216295D01*
X61529162Y-84216295D02*
X61505352Y-84240104D01*
X61505352Y-84240104D02*
X61457733Y-84263914D01*
X61457733Y-84263914D02*
X61267257Y-84263914D01*
X61719638Y-84002009D02*
X62029162Y-84002009D01*
X62029162Y-84002009D02*
X61862495Y-84192485D01*
X61862495Y-84192485D02*
X61933924Y-84192485D01*
X61933924Y-84192485D02*
X61981543Y-84216295D01*
X61981543Y-84216295D02*
X62005352Y-84240104D01*
X62005352Y-84240104D02*
X62029162Y-84287723D01*
X62029162Y-84287723D02*
X62029162Y-84406771D01*
X62029162Y-84406771D02*
X62005352Y-84454390D01*
X62005352Y-84454390D02*
X61981543Y-84478200D01*
X61981543Y-84478200D02*
X61933924Y-84502009D01*
X61933924Y-84502009D02*
X61791067Y-84502009D01*
X61791067Y-84502009D02*
X61743448Y-84478200D01*
X61743448Y-84478200D02*
X61719638Y-84454390D01*
X62219638Y-84049628D02*
X62243447Y-84025819D01*
X62243447Y-84025819D02*
X62291066Y-84002009D01*
X62291066Y-84002009D02*
X62410114Y-84002009D01*
X62410114Y-84002009D02*
X62457733Y-84025819D01*
X62457733Y-84025819D02*
X62481542Y-84049628D01*
X62481542Y-84049628D02*
X62505352Y-84097247D01*
X62505352Y-84097247D02*
X62505352Y-84144866D01*
X62505352Y-84144866D02*
X62481542Y-84216295D01*
X62481542Y-84216295D02*
X62195828Y-84502009D01*
X62195828Y-84502009D02*
X62505352Y-84502009D01*
X62178590Y-80610828D02*
X62202400Y-80634637D01*
X62202400Y-80634637D02*
X62226209Y-80706066D01*
X62226209Y-80706066D02*
X62226209Y-80753685D01*
X62226209Y-80753685D02*
X62202400Y-80825113D01*
X62202400Y-80825113D02*
X62154780Y-80872732D01*
X62154780Y-80872732D02*
X62107161Y-80896542D01*
X62107161Y-80896542D02*
X62011923Y-80920351D01*
X62011923Y-80920351D02*
X61940495Y-80920351D01*
X61940495Y-80920351D02*
X61845257Y-80896542D01*
X61845257Y-80896542D02*
X61797638Y-80872732D01*
X61797638Y-80872732D02*
X61750019Y-80825113D01*
X61750019Y-80825113D02*
X61726209Y-80753685D01*
X61726209Y-80753685D02*
X61726209Y-80706066D01*
X61726209Y-80706066D02*
X61750019Y-80634637D01*
X61750019Y-80634637D02*
X61773828Y-80610828D01*
X61726209Y-80158447D02*
X61726209Y-80396542D01*
X61726209Y-80396542D02*
X61964304Y-80420351D01*
X61964304Y-80420351D02*
X61940495Y-80396542D01*
X61940495Y-80396542D02*
X61916685Y-80348923D01*
X61916685Y-80348923D02*
X61916685Y-80229875D01*
X61916685Y-80229875D02*
X61940495Y-80182256D01*
X61940495Y-80182256D02*
X61964304Y-80158447D01*
X61964304Y-80158447D02*
X62011923Y-80134637D01*
X62011923Y-80134637D02*
X62130971Y-80134637D01*
X62130971Y-80134637D02*
X62178590Y-80158447D01*
X62178590Y-80158447D02*
X62202400Y-80182256D01*
X62202400Y-80182256D02*
X62226209Y-80229875D01*
X62226209Y-80229875D02*
X62226209Y-80348923D01*
X62226209Y-80348923D02*
X62202400Y-80396542D01*
X62202400Y-80396542D02*
X62178590Y-80420351D01*
X61940495Y-79848923D02*
X61916685Y-79896542D01*
X61916685Y-79896542D02*
X61892876Y-79920352D01*
X61892876Y-79920352D02*
X61845257Y-79944161D01*
X61845257Y-79944161D02*
X61821447Y-79944161D01*
X61821447Y-79944161D02*
X61773828Y-79920352D01*
X61773828Y-79920352D02*
X61750019Y-79896542D01*
X61750019Y-79896542D02*
X61726209Y-79848923D01*
X61726209Y-79848923D02*
X61726209Y-79753685D01*
X61726209Y-79753685D02*
X61750019Y-79706066D01*
X61750019Y-79706066D02*
X61773828Y-79682257D01*
X61773828Y-79682257D02*
X61821447Y-79658447D01*
X61821447Y-79658447D02*
X61845257Y-79658447D01*
X61845257Y-79658447D02*
X61892876Y-79682257D01*
X61892876Y-79682257D02*
X61916685Y-79706066D01*
X61916685Y-79706066D02*
X61940495Y-79753685D01*
X61940495Y-79753685D02*
X61940495Y-79848923D01*
X61940495Y-79848923D02*
X61964304Y-79896542D01*
X61964304Y-79896542D02*
X61988114Y-79920352D01*
X61988114Y-79920352D02*
X62035733Y-79944161D01*
X62035733Y-79944161D02*
X62130971Y-79944161D01*
X62130971Y-79944161D02*
X62178590Y-79920352D01*
X62178590Y-79920352D02*
X62202400Y-79896542D01*
X62202400Y-79896542D02*
X62226209Y-79848923D01*
X62226209Y-79848923D02*
X62226209Y-79753685D01*
X62226209Y-79753685D02*
X62202400Y-79706066D01*
X62202400Y-79706066D02*
X62178590Y-79682257D01*
X62178590Y-79682257D02*
X62130971Y-79658447D01*
X62130971Y-79658447D02*
X62035733Y-79658447D01*
X62035733Y-79658447D02*
X61988114Y-79682257D01*
X61988114Y-79682257D02*
X61964304Y-79706066D01*
X61964304Y-79706066D02*
X61940495Y-79753685D01*
X62835060Y-84252852D02*
X63239822Y-84252852D01*
X63239822Y-84252852D02*
X63287441Y-84229042D01*
X63287441Y-84229042D02*
X63311251Y-84205233D01*
X63311251Y-84205233D02*
X63335060Y-84157614D01*
X63335060Y-84157614D02*
X63335060Y-84062376D01*
X63335060Y-84062376D02*
X63311251Y-84014757D01*
X63311251Y-84014757D02*
X63287441Y-83990947D01*
X63287441Y-83990947D02*
X63239822Y-83967138D01*
X63239822Y-83967138D02*
X62835060Y-83967138D01*
X63335060Y-83705232D02*
X63335060Y-83609994D01*
X63335060Y-83609994D02*
X63311251Y-83562375D01*
X63311251Y-83562375D02*
X63287441Y-83538566D01*
X63287441Y-83538566D02*
X63216012Y-83490947D01*
X63216012Y-83490947D02*
X63120774Y-83467137D01*
X63120774Y-83467137D02*
X62930298Y-83467137D01*
X62930298Y-83467137D02*
X62882679Y-83490947D01*
X62882679Y-83490947D02*
X62858870Y-83514756D01*
X62858870Y-83514756D02*
X62835060Y-83562375D01*
X62835060Y-83562375D02*
X62835060Y-83657613D01*
X62835060Y-83657613D02*
X62858870Y-83705232D01*
X62858870Y-83705232D02*
X62882679Y-83729042D01*
X62882679Y-83729042D02*
X62930298Y-83752851D01*
X62930298Y-83752851D02*
X63049346Y-83752851D01*
X63049346Y-83752851D02*
X63096965Y-83729042D01*
X63096965Y-83729042D02*
X63120774Y-83705232D01*
X63120774Y-83705232D02*
X63144584Y-83657613D01*
X63144584Y-83657613D02*
X63144584Y-83562375D01*
X63144584Y-83562375D02*
X63120774Y-83514756D01*
X63120774Y-83514756D02*
X63096965Y-83490947D01*
X63096965Y-83490947D02*
X63049346Y-83467137D01*
D12*
X63250870Y-85548299D02*
X63488965Y-85548299D01*
X63393727Y-85786394D02*
X63488965Y-85548299D01*
X63488965Y-85548299D02*
X63393727Y-85310204D01*
X63679441Y-85691156D02*
X63488965Y-85548299D01*
X63488965Y-85548299D02*
X63679441Y-85405442D01*
X63250870Y-85548299D02*
X63488965Y-85548299D01*
X63393727Y-85786394D02*
X63488965Y-85548299D01*
X63488965Y-85548299D02*
X63393727Y-85310204D01*
X63679441Y-85691156D02*
X63488965Y-85548299D01*
X63488965Y-85548299D02*
X63679441Y-85405442D01*
D11*
X85137238Y-70240409D02*
X85137238Y-70597552D01*
X85137238Y-70597552D02*
X85113429Y-70668980D01*
X85113429Y-70668980D02*
X85065810Y-70716600D01*
X85065810Y-70716600D02*
X84994381Y-70740409D01*
X84994381Y-70740409D02*
X84946762Y-70740409D01*
X85637238Y-70740409D02*
X85351524Y-70740409D01*
X85494381Y-70740409D02*
X85494381Y-70240409D01*
X85494381Y-70240409D02*
X85446762Y-70311838D01*
X85446762Y-70311838D02*
X85399143Y-70359457D01*
X85399143Y-70359457D02*
X85351524Y-70383266D01*
X85946761Y-70240409D02*
X85994380Y-70240409D01*
X85994380Y-70240409D02*
X86041999Y-70264219D01*
X86041999Y-70264219D02*
X86065809Y-70288028D01*
X86065809Y-70288028D02*
X86089618Y-70335647D01*
X86089618Y-70335647D02*
X86113428Y-70430885D01*
X86113428Y-70430885D02*
X86113428Y-70549933D01*
X86113428Y-70549933D02*
X86089618Y-70645171D01*
X86089618Y-70645171D02*
X86065809Y-70692790D01*
X86065809Y-70692790D02*
X86041999Y-70716600D01*
X86041999Y-70716600D02*
X85994380Y-70740409D01*
X85994380Y-70740409D02*
X85946761Y-70740409D01*
X85946761Y-70740409D02*
X85899142Y-70716600D01*
X85899142Y-70716600D02*
X85875333Y-70692790D01*
X85875333Y-70692790D02*
X85851523Y-70645171D01*
X85851523Y-70645171D02*
X85827714Y-70549933D01*
X85827714Y-70549933D02*
X85827714Y-70430885D01*
X85827714Y-70430885D02*
X85851523Y-70335647D01*
X85851523Y-70335647D02*
X85875333Y-70288028D01*
X85875333Y-70288028D02*
X85899142Y-70264219D01*
X85899142Y-70264219D02*
X85946761Y-70240409D01*
X81220209Y-93925628D02*
X80982114Y-94092294D01*
X81220209Y-94211342D02*
X80720209Y-94211342D01*
X80720209Y-94211342D02*
X80720209Y-94020866D01*
X80720209Y-94020866D02*
X80744019Y-93973247D01*
X80744019Y-93973247D02*
X80767828Y-93949437D01*
X80767828Y-93949437D02*
X80815447Y-93925628D01*
X80815447Y-93925628D02*
X80886876Y-93925628D01*
X80886876Y-93925628D02*
X80934495Y-93949437D01*
X80934495Y-93949437D02*
X80958304Y-93973247D01*
X80958304Y-93973247D02*
X80982114Y-94020866D01*
X80982114Y-94020866D02*
X80982114Y-94211342D01*
X80886876Y-93497056D02*
X81220209Y-93497056D01*
X80696400Y-93616104D02*
X81053542Y-93735151D01*
X81053542Y-93735151D02*
X81053542Y-93425628D01*
X81220209Y-92973247D02*
X81220209Y-93258961D01*
X81220209Y-93116104D02*
X80720209Y-93116104D01*
X80720209Y-93116104D02*
X80791638Y-93163723D01*
X80791638Y-93163723D02*
X80839257Y-93211342D01*
X80839257Y-93211342D02*
X80863066Y-93258961D01*
X60578390Y-96450933D02*
X60602200Y-96474742D01*
X60602200Y-96474742D02*
X60626009Y-96546171D01*
X60626009Y-96546171D02*
X60626009Y-96593790D01*
X60626009Y-96593790D02*
X60602200Y-96665218D01*
X60602200Y-96665218D02*
X60554580Y-96712837D01*
X60554580Y-96712837D02*
X60506961Y-96736647D01*
X60506961Y-96736647D02*
X60411723Y-96760456D01*
X60411723Y-96760456D02*
X60340295Y-96760456D01*
X60340295Y-96760456D02*
X60245057Y-96736647D01*
X60245057Y-96736647D02*
X60197438Y-96712837D01*
X60197438Y-96712837D02*
X60149819Y-96665218D01*
X60149819Y-96665218D02*
X60126009Y-96593790D01*
X60126009Y-96593790D02*
X60126009Y-96546171D01*
X60126009Y-96546171D02*
X60149819Y-96474742D01*
X60149819Y-96474742D02*
X60173628Y-96450933D01*
X60126009Y-96284266D02*
X60126009Y-95974742D01*
X60126009Y-95974742D02*
X60316485Y-96141409D01*
X60316485Y-96141409D02*
X60316485Y-96069980D01*
X60316485Y-96069980D02*
X60340295Y-96022361D01*
X60340295Y-96022361D02*
X60364104Y-95998552D01*
X60364104Y-95998552D02*
X60411723Y-95974742D01*
X60411723Y-95974742D02*
X60530771Y-95974742D01*
X60530771Y-95974742D02*
X60578390Y-95998552D01*
X60578390Y-95998552D02*
X60602200Y-96022361D01*
X60602200Y-96022361D02*
X60626009Y-96069980D01*
X60626009Y-96069980D02*
X60626009Y-96212837D01*
X60626009Y-96212837D02*
X60602200Y-96260456D01*
X60602200Y-96260456D02*
X60578390Y-96284266D01*
X83530866Y-90982190D02*
X83507057Y-91006000D01*
X83507057Y-91006000D02*
X83435628Y-91029809D01*
X83435628Y-91029809D02*
X83388009Y-91029809D01*
X83388009Y-91029809D02*
X83316581Y-91006000D01*
X83316581Y-91006000D02*
X83268962Y-90958380D01*
X83268962Y-90958380D02*
X83245152Y-90910761D01*
X83245152Y-90910761D02*
X83221343Y-90815523D01*
X83221343Y-90815523D02*
X83221343Y-90744095D01*
X83221343Y-90744095D02*
X83245152Y-90648857D01*
X83245152Y-90648857D02*
X83268962Y-90601238D01*
X83268962Y-90601238D02*
X83316581Y-90553619D01*
X83316581Y-90553619D02*
X83388009Y-90529809D01*
X83388009Y-90529809D02*
X83435628Y-90529809D01*
X83435628Y-90529809D02*
X83507057Y-90553619D01*
X83507057Y-90553619D02*
X83530866Y-90577428D01*
X83697533Y-90529809D02*
X84030866Y-90529809D01*
X84030866Y-90529809D02*
X83816581Y-91029809D01*
X77618609Y-73165447D02*
X77118609Y-73165447D01*
X77118609Y-73165447D02*
X77118609Y-73046399D01*
X77118609Y-73046399D02*
X77142419Y-72974971D01*
X77142419Y-72974971D02*
X77190038Y-72927352D01*
X77190038Y-72927352D02*
X77237657Y-72903542D01*
X77237657Y-72903542D02*
X77332895Y-72879733D01*
X77332895Y-72879733D02*
X77404323Y-72879733D01*
X77404323Y-72879733D02*
X77499561Y-72903542D01*
X77499561Y-72903542D02*
X77547180Y-72927352D01*
X77547180Y-72927352D02*
X77594800Y-72974971D01*
X77594800Y-72974971D02*
X77618609Y-73046399D01*
X77618609Y-73046399D02*
X77618609Y-73165447D01*
X77166228Y-72689256D02*
X77142419Y-72665447D01*
X77142419Y-72665447D02*
X77118609Y-72617828D01*
X77118609Y-72617828D02*
X77118609Y-72498780D01*
X77118609Y-72498780D02*
X77142419Y-72451161D01*
X77142419Y-72451161D02*
X77166228Y-72427352D01*
X77166228Y-72427352D02*
X77213847Y-72403542D01*
X77213847Y-72403542D02*
X77261466Y-72403542D01*
X77261466Y-72403542D02*
X77332895Y-72427352D01*
X77332895Y-72427352D02*
X77618609Y-72713066D01*
X77618609Y-72713066D02*
X77618609Y-72403542D01*
X67826771Y-88823190D02*
X67802962Y-88847000D01*
X67802962Y-88847000D02*
X67731533Y-88870809D01*
X67731533Y-88870809D02*
X67683914Y-88870809D01*
X67683914Y-88870809D02*
X67612486Y-88847000D01*
X67612486Y-88847000D02*
X67564867Y-88799380D01*
X67564867Y-88799380D02*
X67541057Y-88751761D01*
X67541057Y-88751761D02*
X67517248Y-88656523D01*
X67517248Y-88656523D02*
X67517248Y-88585095D01*
X67517248Y-88585095D02*
X67541057Y-88489857D01*
X67541057Y-88489857D02*
X67564867Y-88442238D01*
X67564867Y-88442238D02*
X67612486Y-88394619D01*
X67612486Y-88394619D02*
X67683914Y-88370809D01*
X67683914Y-88370809D02*
X67731533Y-88370809D01*
X67731533Y-88370809D02*
X67802962Y-88394619D01*
X67802962Y-88394619D02*
X67826771Y-88418428D01*
X68279152Y-88370809D02*
X68041057Y-88370809D01*
X68041057Y-88370809D02*
X68017248Y-88608904D01*
X68017248Y-88608904D02*
X68041057Y-88585095D01*
X68041057Y-88585095D02*
X68088676Y-88561285D01*
X68088676Y-88561285D02*
X68207724Y-88561285D01*
X68207724Y-88561285D02*
X68255343Y-88585095D01*
X68255343Y-88585095D02*
X68279152Y-88608904D01*
X68279152Y-88608904D02*
X68302962Y-88656523D01*
X68302962Y-88656523D02*
X68302962Y-88775571D01*
X68302962Y-88775571D02*
X68279152Y-88823190D01*
X68279152Y-88823190D02*
X68255343Y-88847000D01*
X68255343Y-88847000D02*
X68207724Y-88870809D01*
X68207724Y-88870809D02*
X68088676Y-88870809D01*
X68088676Y-88870809D02*
X68041057Y-88847000D01*
X68041057Y-88847000D02*
X68017248Y-88823190D01*
X68779152Y-88870809D02*
X68493438Y-88870809D01*
X68636295Y-88870809D02*
X68636295Y-88370809D01*
X68636295Y-88370809D02*
X68588676Y-88442238D01*
X68588676Y-88442238D02*
X68541057Y-88489857D01*
X68541057Y-88489857D02*
X68493438Y-88513666D01*
X66953790Y-88535628D02*
X66977600Y-88559437D01*
X66977600Y-88559437D02*
X67001409Y-88630866D01*
X67001409Y-88630866D02*
X67001409Y-88678485D01*
X67001409Y-88678485D02*
X66977600Y-88749913D01*
X66977600Y-88749913D02*
X66929980Y-88797532D01*
X66929980Y-88797532D02*
X66882361Y-88821342D01*
X66882361Y-88821342D02*
X66787123Y-88845151D01*
X66787123Y-88845151D02*
X66715695Y-88845151D01*
X66715695Y-88845151D02*
X66620457Y-88821342D01*
X66620457Y-88821342D02*
X66572838Y-88797532D01*
X66572838Y-88797532D02*
X66525219Y-88749913D01*
X66525219Y-88749913D02*
X66501409Y-88678485D01*
X66501409Y-88678485D02*
X66501409Y-88630866D01*
X66501409Y-88630866D02*
X66525219Y-88559437D01*
X66525219Y-88559437D02*
X66549028Y-88535628D01*
X66501409Y-88083247D02*
X66501409Y-88321342D01*
X66501409Y-88321342D02*
X66739504Y-88345151D01*
X66739504Y-88345151D02*
X66715695Y-88321342D01*
X66715695Y-88321342D02*
X66691885Y-88273723D01*
X66691885Y-88273723D02*
X66691885Y-88154675D01*
X66691885Y-88154675D02*
X66715695Y-88107056D01*
X66715695Y-88107056D02*
X66739504Y-88083247D01*
X66739504Y-88083247D02*
X66787123Y-88059437D01*
X66787123Y-88059437D02*
X66906171Y-88059437D01*
X66906171Y-88059437D02*
X66953790Y-88083247D01*
X66953790Y-88083247D02*
X66977600Y-88107056D01*
X66977600Y-88107056D02*
X67001409Y-88154675D01*
X67001409Y-88154675D02*
X67001409Y-88273723D01*
X67001409Y-88273723D02*
X66977600Y-88321342D01*
X66977600Y-88321342D02*
X66953790Y-88345151D01*
X67001409Y-87821342D02*
X67001409Y-87726104D01*
X67001409Y-87726104D02*
X66977600Y-87678485D01*
X66977600Y-87678485D02*
X66953790Y-87654676D01*
X66953790Y-87654676D02*
X66882361Y-87607057D01*
X66882361Y-87607057D02*
X66787123Y-87583247D01*
X66787123Y-87583247D02*
X66596647Y-87583247D01*
X66596647Y-87583247D02*
X66549028Y-87607057D01*
X66549028Y-87607057D02*
X66525219Y-87630866D01*
X66525219Y-87630866D02*
X66501409Y-87678485D01*
X66501409Y-87678485D02*
X66501409Y-87773723D01*
X66501409Y-87773723D02*
X66525219Y-87821342D01*
X66525219Y-87821342D02*
X66549028Y-87845152D01*
X66549028Y-87845152D02*
X66596647Y-87868961D01*
X66596647Y-87868961D02*
X66715695Y-87868961D01*
X66715695Y-87868961D02*
X66763314Y-87845152D01*
X66763314Y-87845152D02*
X66787123Y-87821342D01*
X66787123Y-87821342D02*
X66810933Y-87773723D01*
X66810933Y-87773723D02*
X66810933Y-87678485D01*
X66810933Y-87678485D02*
X66787123Y-87630866D01*
X66787123Y-87630866D02*
X66763314Y-87607057D01*
X66763314Y-87607057D02*
X66715695Y-87583247D01*
X68944371Y-86130790D02*
X68920562Y-86154600D01*
X68920562Y-86154600D02*
X68849133Y-86178409D01*
X68849133Y-86178409D02*
X68801514Y-86178409D01*
X68801514Y-86178409D02*
X68730086Y-86154600D01*
X68730086Y-86154600D02*
X68682467Y-86106980D01*
X68682467Y-86106980D02*
X68658657Y-86059361D01*
X68658657Y-86059361D02*
X68634848Y-85964123D01*
X68634848Y-85964123D02*
X68634848Y-85892695D01*
X68634848Y-85892695D02*
X68658657Y-85797457D01*
X68658657Y-85797457D02*
X68682467Y-85749838D01*
X68682467Y-85749838D02*
X68730086Y-85702219D01*
X68730086Y-85702219D02*
X68801514Y-85678409D01*
X68801514Y-85678409D02*
X68849133Y-85678409D01*
X68849133Y-85678409D02*
X68920562Y-85702219D01*
X68920562Y-85702219D02*
X68944371Y-85726028D01*
X69396752Y-85678409D02*
X69158657Y-85678409D01*
X69158657Y-85678409D02*
X69134848Y-85916504D01*
X69134848Y-85916504D02*
X69158657Y-85892695D01*
X69158657Y-85892695D02*
X69206276Y-85868885D01*
X69206276Y-85868885D02*
X69325324Y-85868885D01*
X69325324Y-85868885D02*
X69372943Y-85892695D01*
X69372943Y-85892695D02*
X69396752Y-85916504D01*
X69396752Y-85916504D02*
X69420562Y-85964123D01*
X69420562Y-85964123D02*
X69420562Y-86083171D01*
X69420562Y-86083171D02*
X69396752Y-86130790D01*
X69396752Y-86130790D02*
X69372943Y-86154600D01*
X69372943Y-86154600D02*
X69325324Y-86178409D01*
X69325324Y-86178409D02*
X69206276Y-86178409D01*
X69206276Y-86178409D02*
X69158657Y-86154600D01*
X69158657Y-86154600D02*
X69134848Y-86130790D01*
X69730085Y-85678409D02*
X69777704Y-85678409D01*
X69777704Y-85678409D02*
X69825323Y-85702219D01*
X69825323Y-85702219D02*
X69849133Y-85726028D01*
X69849133Y-85726028D02*
X69872942Y-85773647D01*
X69872942Y-85773647D02*
X69896752Y-85868885D01*
X69896752Y-85868885D02*
X69896752Y-85987933D01*
X69896752Y-85987933D02*
X69872942Y-86083171D01*
X69872942Y-86083171D02*
X69849133Y-86130790D01*
X69849133Y-86130790D02*
X69825323Y-86154600D01*
X69825323Y-86154600D02*
X69777704Y-86178409D01*
X69777704Y-86178409D02*
X69730085Y-86178409D01*
X69730085Y-86178409D02*
X69682466Y-86154600D01*
X69682466Y-86154600D02*
X69658657Y-86130790D01*
X69658657Y-86130790D02*
X69634847Y-86083171D01*
X69634847Y-86083171D02*
X69611038Y-85987933D01*
X69611038Y-85987933D02*
X69611038Y-85868885D01*
X69611038Y-85868885D02*
X69634847Y-85773647D01*
X69634847Y-85773647D02*
X69658657Y-85726028D01*
X69658657Y-85726028D02*
X69682466Y-85702219D01*
X69682466Y-85702219D02*
X69730085Y-85678409D01*
X76961390Y-75708628D02*
X76985200Y-75732437D01*
X76985200Y-75732437D02*
X77009009Y-75803866D01*
X77009009Y-75803866D02*
X77009009Y-75851485D01*
X77009009Y-75851485D02*
X76985200Y-75922913D01*
X76985200Y-75922913D02*
X76937580Y-75970532D01*
X76937580Y-75970532D02*
X76889961Y-75994342D01*
X76889961Y-75994342D02*
X76794723Y-76018151D01*
X76794723Y-76018151D02*
X76723295Y-76018151D01*
X76723295Y-76018151D02*
X76628057Y-75994342D01*
X76628057Y-75994342D02*
X76580438Y-75970532D01*
X76580438Y-75970532D02*
X76532819Y-75922913D01*
X76532819Y-75922913D02*
X76509009Y-75851485D01*
X76509009Y-75851485D02*
X76509009Y-75803866D01*
X76509009Y-75803866D02*
X76532819Y-75732437D01*
X76532819Y-75732437D02*
X76556628Y-75708628D01*
X76675676Y-75280056D02*
X77009009Y-75280056D01*
X76485200Y-75399104D02*
X76842342Y-75518151D01*
X76842342Y-75518151D02*
X76842342Y-75208628D01*
X76723295Y-74946723D02*
X76699485Y-74994342D01*
X76699485Y-74994342D02*
X76675676Y-75018152D01*
X76675676Y-75018152D02*
X76628057Y-75041961D01*
X76628057Y-75041961D02*
X76604247Y-75041961D01*
X76604247Y-75041961D02*
X76556628Y-75018152D01*
X76556628Y-75018152D02*
X76532819Y-74994342D01*
X76532819Y-74994342D02*
X76509009Y-74946723D01*
X76509009Y-74946723D02*
X76509009Y-74851485D01*
X76509009Y-74851485D02*
X76532819Y-74803866D01*
X76532819Y-74803866D02*
X76556628Y-74780057D01*
X76556628Y-74780057D02*
X76604247Y-74756247D01*
X76604247Y-74756247D02*
X76628057Y-74756247D01*
X76628057Y-74756247D02*
X76675676Y-74780057D01*
X76675676Y-74780057D02*
X76699485Y-74803866D01*
X76699485Y-74803866D02*
X76723295Y-74851485D01*
X76723295Y-74851485D02*
X76723295Y-74946723D01*
X76723295Y-74946723D02*
X76747104Y-74994342D01*
X76747104Y-74994342D02*
X76770914Y-75018152D01*
X76770914Y-75018152D02*
X76818533Y-75041961D01*
X76818533Y-75041961D02*
X76913771Y-75041961D01*
X76913771Y-75041961D02*
X76961390Y-75018152D01*
X76961390Y-75018152D02*
X76985200Y-74994342D01*
X76985200Y-74994342D02*
X77009009Y-74946723D01*
X77009009Y-74946723D02*
X77009009Y-74851485D01*
X77009009Y-74851485D02*
X76985200Y-74803866D01*
X76985200Y-74803866D02*
X76961390Y-74780057D01*
X76961390Y-74780057D02*
X76913771Y-74756247D01*
X76913771Y-74756247D02*
X76818533Y-74756247D01*
X76818533Y-74756247D02*
X76770914Y-74780057D01*
X76770914Y-74780057D02*
X76747104Y-74803866D01*
X76747104Y-74803866D02*
X76723295Y-74851485D01*
X55472990Y-97425628D02*
X55496800Y-97449437D01*
X55496800Y-97449437D02*
X55520609Y-97520866D01*
X55520609Y-97520866D02*
X55520609Y-97568485D01*
X55520609Y-97568485D02*
X55496800Y-97639913D01*
X55496800Y-97639913D02*
X55449180Y-97687532D01*
X55449180Y-97687532D02*
X55401561Y-97711342D01*
X55401561Y-97711342D02*
X55306323Y-97735151D01*
X55306323Y-97735151D02*
X55234895Y-97735151D01*
X55234895Y-97735151D02*
X55139657Y-97711342D01*
X55139657Y-97711342D02*
X55092038Y-97687532D01*
X55092038Y-97687532D02*
X55044419Y-97639913D01*
X55044419Y-97639913D02*
X55020609Y-97568485D01*
X55020609Y-97568485D02*
X55020609Y-97520866D01*
X55020609Y-97520866D02*
X55044419Y-97449437D01*
X55044419Y-97449437D02*
X55068228Y-97425628D01*
X55187276Y-96997056D02*
X55520609Y-96997056D01*
X54996800Y-97116104D02*
X55353942Y-97235151D01*
X55353942Y-97235151D02*
X55353942Y-96925628D01*
X55068228Y-96758961D02*
X55044419Y-96735152D01*
X55044419Y-96735152D02*
X55020609Y-96687533D01*
X55020609Y-96687533D02*
X55020609Y-96568485D01*
X55020609Y-96568485D02*
X55044419Y-96520866D01*
X55044419Y-96520866D02*
X55068228Y-96497057D01*
X55068228Y-96497057D02*
X55115847Y-96473247D01*
X55115847Y-96473247D02*
X55163466Y-96473247D01*
X55163466Y-96473247D02*
X55234895Y-96497057D01*
X55234895Y-96497057D02*
X55520609Y-96782771D01*
X55520609Y-96782771D02*
X55520609Y-96473247D01*
X70428390Y-87829628D02*
X70452200Y-87853437D01*
X70452200Y-87853437D02*
X70476009Y-87924866D01*
X70476009Y-87924866D02*
X70476009Y-87972485D01*
X70476009Y-87972485D02*
X70452200Y-88043913D01*
X70452200Y-88043913D02*
X70404580Y-88091532D01*
X70404580Y-88091532D02*
X70356961Y-88115342D01*
X70356961Y-88115342D02*
X70261723Y-88139151D01*
X70261723Y-88139151D02*
X70190295Y-88139151D01*
X70190295Y-88139151D02*
X70095057Y-88115342D01*
X70095057Y-88115342D02*
X70047438Y-88091532D01*
X70047438Y-88091532D02*
X69999819Y-88043913D01*
X69999819Y-88043913D02*
X69976009Y-87972485D01*
X69976009Y-87972485D02*
X69976009Y-87924866D01*
X69976009Y-87924866D02*
X69999819Y-87853437D01*
X69999819Y-87853437D02*
X70023628Y-87829628D01*
X70476009Y-87353437D02*
X70476009Y-87639151D01*
X70476009Y-87496294D02*
X69976009Y-87496294D01*
X69976009Y-87496294D02*
X70047438Y-87543913D01*
X70047438Y-87543913D02*
X70095057Y-87591532D01*
X70095057Y-87591532D02*
X70118866Y-87639151D01*
X69976009Y-87043914D02*
X69976009Y-86996295D01*
X69976009Y-86996295D02*
X69999819Y-86948676D01*
X69999819Y-86948676D02*
X70023628Y-86924866D01*
X70023628Y-86924866D02*
X70071247Y-86901057D01*
X70071247Y-86901057D02*
X70166485Y-86877247D01*
X70166485Y-86877247D02*
X70285533Y-86877247D01*
X70285533Y-86877247D02*
X70380771Y-86901057D01*
X70380771Y-86901057D02*
X70428390Y-86924866D01*
X70428390Y-86924866D02*
X70452200Y-86948676D01*
X70452200Y-86948676D02*
X70476009Y-86996295D01*
X70476009Y-86996295D02*
X70476009Y-87043914D01*
X70476009Y-87043914D02*
X70452200Y-87091533D01*
X70452200Y-87091533D02*
X70428390Y-87115342D01*
X70428390Y-87115342D02*
X70380771Y-87139152D01*
X70380771Y-87139152D02*
X70285533Y-87162961D01*
X70285533Y-87162961D02*
X70166485Y-87162961D01*
X70166485Y-87162961D02*
X70071247Y-87139152D01*
X70071247Y-87139152D02*
X70023628Y-87115342D01*
X70023628Y-87115342D02*
X69999819Y-87091533D01*
X69999819Y-87091533D02*
X69976009Y-87043914D01*
X80255009Y-93951028D02*
X80016914Y-94117694D01*
X80255009Y-94236742D02*
X79755009Y-94236742D01*
X79755009Y-94236742D02*
X79755009Y-94046266D01*
X79755009Y-94046266D02*
X79778819Y-93998647D01*
X79778819Y-93998647D02*
X79802628Y-93974837D01*
X79802628Y-93974837D02*
X79850247Y-93951028D01*
X79850247Y-93951028D02*
X79921676Y-93951028D01*
X79921676Y-93951028D02*
X79969295Y-93974837D01*
X79969295Y-93974837D02*
X79993104Y-93998647D01*
X79993104Y-93998647D02*
X80016914Y-94046266D01*
X80016914Y-94046266D02*
X80016914Y-94236742D01*
X79921676Y-93522456D02*
X80255009Y-93522456D01*
X79731200Y-93641504D02*
X80088342Y-93760551D01*
X80088342Y-93760551D02*
X80088342Y-93451028D01*
X79755009Y-93165314D02*
X79755009Y-93117695D01*
X79755009Y-93117695D02*
X79778819Y-93070076D01*
X79778819Y-93070076D02*
X79802628Y-93046266D01*
X79802628Y-93046266D02*
X79850247Y-93022457D01*
X79850247Y-93022457D02*
X79945485Y-92998647D01*
X79945485Y-92998647D02*
X80064533Y-92998647D01*
X80064533Y-92998647D02*
X80159771Y-93022457D01*
X80159771Y-93022457D02*
X80207390Y-93046266D01*
X80207390Y-93046266D02*
X80231200Y-93070076D01*
X80231200Y-93070076D02*
X80255009Y-93117695D01*
X80255009Y-93117695D02*
X80255009Y-93165314D01*
X80255009Y-93165314D02*
X80231200Y-93212933D01*
X80231200Y-93212933D02*
X80207390Y-93236742D01*
X80207390Y-93236742D02*
X80159771Y-93260552D01*
X80159771Y-93260552D02*
X80064533Y-93284361D01*
X80064533Y-93284361D02*
X79945485Y-93284361D01*
X79945485Y-93284361D02*
X79850247Y-93260552D01*
X79850247Y-93260552D02*
X79802628Y-93236742D01*
X79802628Y-93236742D02*
X79778819Y-93212933D01*
X79778819Y-93212933D02*
X79755009Y-93165314D01*
X70281190Y-82554533D02*
X70305000Y-82578342D01*
X70305000Y-82578342D02*
X70328809Y-82649771D01*
X70328809Y-82649771D02*
X70328809Y-82697390D01*
X70328809Y-82697390D02*
X70305000Y-82768818D01*
X70305000Y-82768818D02*
X70257380Y-82816437D01*
X70257380Y-82816437D02*
X70209761Y-82840247D01*
X70209761Y-82840247D02*
X70114523Y-82864056D01*
X70114523Y-82864056D02*
X70043095Y-82864056D01*
X70043095Y-82864056D02*
X69947857Y-82840247D01*
X69947857Y-82840247D02*
X69900238Y-82816437D01*
X69900238Y-82816437D02*
X69852619Y-82768818D01*
X69852619Y-82768818D02*
X69828809Y-82697390D01*
X69828809Y-82697390D02*
X69828809Y-82649771D01*
X69828809Y-82649771D02*
X69852619Y-82578342D01*
X69852619Y-82578342D02*
X69876428Y-82554533D01*
X70328809Y-82078342D02*
X70328809Y-82364056D01*
X70328809Y-82221199D02*
X69828809Y-82221199D01*
X69828809Y-82221199D02*
X69900238Y-82268818D01*
X69900238Y-82268818D02*
X69947857Y-82316437D01*
X69947857Y-82316437D02*
X69971666Y-82364056D01*
D13*
%TO.C,U6*%
X83132651Y-78817100D02*
X82662651Y-78477100D01*
X83132651Y-78137100D01*
X83132651Y-78817100D01*
G36*
X83132651Y-78817100D02*
G01*
X82662651Y-78477100D01*
X83132651Y-78137100D01*
X83132651Y-78817100D01*
G37*
X83612651Y-89312100D02*
X82662651Y-89312100D01*
X83612651Y-88362100D02*
X83612651Y-89312100D01*
X83612651Y-80042100D02*
X83612651Y-79092100D01*
X83612651Y-79092100D02*
X82662651Y-79092100D01*
X73392651Y-89312100D02*
X74342651Y-89312100D01*
X73392651Y-88362100D02*
X73392651Y-89312100D01*
X73392651Y-80042100D02*
X73392651Y-79092100D01*
X73392651Y-79092100D02*
X74342651Y-79092100D01*
%TO.C,C47*%
X81730000Y-74078220D02*
X81730000Y-74359380D01*
X82750000Y-74078220D02*
X82750000Y-74359380D01*
%TO.C,R39*%
X78405600Y-92159641D02*
X78405600Y-91852359D01*
X79165600Y-92159641D02*
X79165600Y-91852359D01*
%TO.C,J5*%
X61821800Y-90380800D02*
X64091800Y-90380800D01*
X61821800Y-94300800D02*
X61821800Y-90380800D01*
X64091800Y-91210800D02*
X64091800Y-90380800D01*
X64091800Y-91210800D02*
X64921800Y-91210800D01*
X64131800Y-94300800D02*
X61821800Y-94300800D01*
X67831800Y-93590800D02*
X67831800Y-94340800D01*
X67831800Y-94340800D02*
X67231800Y-94340800D01*
X68131800Y-94300800D02*
X70441800Y-94300800D01*
X68171800Y-91210800D02*
X67341800Y-91210800D01*
X68171800Y-91210800D02*
X68171800Y-90380800D01*
X70441800Y-90380800D02*
X68171800Y-90380800D01*
X70441800Y-94300800D02*
X70441800Y-90380800D01*
%TO.C,Y2*%
X78676651Y-74238300D02*
X78676651Y-76538300D01*
X78676651Y-76538300D02*
X81376651Y-76538300D01*
%TO.C,C46*%
X83915364Y-77922800D02*
X84131036Y-77922800D01*
X83915364Y-78642800D02*
X84131036Y-78642800D01*
%TO.C,C43*%
X72580748Y-70390200D02*
X73103252Y-70390200D01*
X72580748Y-71860200D02*
X73103252Y-71860200D01*
%TO.C,C57*%
X63630636Y-86050800D02*
X63414964Y-86050800D01*
X63630636Y-86770800D02*
X63414964Y-86770800D01*
D10*
%TO.C,D3*%
X75462600Y-74417400D02*
G75*
G02*
X75362600Y-74417400I-50000J0D01*
G01*
X75362600Y-74417400D02*
G75*
G02*
X75462600Y-74417400I50000J0D01*
G01*
D13*
%TO.C,C5*%
X69013400Y-71751648D02*
X69013400Y-72274152D01*
X70483400Y-71751648D02*
X70483400Y-72274152D01*
D14*
%TO.C,J6*%
X42698800Y-74880000D02*
X42698800Y-83762500D01*
X42698800Y-87177500D02*
X42698800Y-91780000D01*
X42698800Y-91780000D02*
X58798800Y-91780000D01*
X58798800Y-74880000D02*
X42698800Y-74880000D01*
X58798800Y-74880000D02*
X58798800Y-83762500D01*
X58798800Y-91780000D02*
X58798800Y-87177500D01*
D15*
X60848800Y-87930000D02*
G75*
G02*
X60648800Y-87930000I-100000J0D01*
G01*
X60648800Y-87930000D02*
G75*
G02*
X60848800Y-87930000I100000J0D01*
G01*
D13*
%TO.C,D8*%
X63683000Y-98212200D02*
X64953000Y-98212200D01*
X64983000Y-95092200D02*
X63683000Y-95092200D01*
X65573000Y-98492200D02*
X65093000Y-98492200D01*
X65333000Y-98162200D01*
X65573000Y-98492200D01*
G36*
X65573000Y-98492200D02*
G01*
X65093000Y-98492200D01*
X65333000Y-98162200D01*
X65573000Y-98492200D01*
G37*
%TO.C,J11*%
X57387901Y-99360201D02*
X57387901Y-104560201D01*
X70147901Y-99360201D02*
X57387901Y-99360201D01*
X70147901Y-99360201D02*
X70147901Y-101960201D01*
X70147901Y-101960201D02*
X72747901Y-101960201D01*
X71417901Y-99360201D02*
X72747901Y-99360201D01*
X72747901Y-99360201D02*
X72747901Y-100690201D01*
X72747901Y-101960201D02*
X72747901Y-104560201D01*
X72747901Y-104560201D02*
X57387901Y-104560201D01*
%TO.C,C44*%
X72336851Y-89887336D02*
X72336851Y-89671664D01*
X73056851Y-89887336D02*
X73056851Y-89671664D01*
%TO.C,J12*%
X85681800Y-76822000D02*
X86791800Y-76822000D01*
X85681800Y-77582000D02*
X85681800Y-76822000D01*
X85681800Y-78342000D02*
X85681800Y-79547000D01*
X85681800Y-78342000D02*
X86228329Y-78342000D01*
X85681800Y-79547000D02*
X86484270Y-79547000D01*
X87099330Y-79547000D02*
X87901800Y-79547000D01*
X87355271Y-78342000D02*
X87901800Y-78342000D01*
X87901800Y-78342000D02*
X87901800Y-79547000D01*
%TO.C,R32*%
X62353759Y-84710000D02*
X62661041Y-84710000D01*
X62353759Y-85470000D02*
X62661041Y-85470000D01*
%TO.C,C58*%
X62479600Y-80394636D02*
X62479600Y-80178964D01*
X63199600Y-80394636D02*
X63199600Y-80178964D01*
%TO.C,J13*%
X85681800Y-79377000D02*
X86791800Y-79377000D01*
X85681800Y-80137000D02*
X85681800Y-79377000D01*
X85681800Y-80897000D02*
X85681800Y-83372000D01*
X85681800Y-80897000D02*
X86228329Y-80897000D01*
X85681800Y-83372000D02*
X86484270Y-83372000D01*
X87099330Y-83372000D02*
X87901800Y-83372000D01*
X87355271Y-80897000D02*
X87901800Y-80897000D01*
X87901800Y-80897000D02*
X87901800Y-83372000D01*
D16*
%TO.C,U9*%
X64041351Y-81306500D02*
X64041351Y-81768460D01*
X64041351Y-85187940D02*
X64041351Y-85649900D01*
X64041351Y-85649900D02*
X64503311Y-85649900D01*
X64503311Y-81306500D02*
X64041351Y-81306500D01*
X67922791Y-85649900D02*
X68384751Y-85649900D01*
X68384751Y-81306500D02*
X67922791Y-81306500D01*
X68384751Y-81768460D02*
X68384751Y-81306500D01*
X68384751Y-85649900D02*
X68384751Y-85187940D01*
D17*
G36*
X63609551Y-82918699D02*
G01*
X63355551Y-82918699D01*
X63355551Y-82537699D01*
X63609551Y-82537699D01*
X63609551Y-82918699D01*
G37*
G36*
X69070551Y-83418701D02*
G01*
X68816551Y-83418701D01*
X68816551Y-83037700D01*
X69070551Y-83037700D01*
X69070551Y-83418701D01*
G37*
D13*
%TO.C,J10*%
X70372901Y-64359001D02*
X70372901Y-69559001D01*
X83132901Y-64359001D02*
X70372901Y-64359001D01*
X83132901Y-64359001D02*
X83132901Y-66959001D01*
X83132901Y-66959001D02*
X85732901Y-66959001D01*
X84402901Y-64359001D02*
X85732901Y-64359001D01*
X85732901Y-64359001D02*
X85732901Y-65689001D01*
X85732901Y-66959001D02*
X85732901Y-69559001D01*
X85732901Y-69559001D02*
X70372901Y-69559001D01*
%TO.C,R41*%
X80615400Y-92081441D02*
X80615400Y-91774159D01*
X81375400Y-92081441D02*
X81375400Y-91774159D01*
%TO.C,C3*%
X60041200Y-97732964D02*
X60041200Y-97948636D01*
X60761200Y-97732964D02*
X60761200Y-97948636D01*
%TO.C,C7*%
X83508964Y-89606800D02*
X83724636Y-89606800D01*
X83508964Y-90326800D02*
X83724636Y-90326800D01*
D10*
%TO.C,D2*%
X76554800Y-74429300D02*
G75*
G02*
X76454800Y-74429300I-50000J0D01*
G01*
X76454800Y-74429300D02*
G75*
G02*
X76554800Y-74429300I50000J0D01*
G01*
D13*
%TO.C,C51*%
X68040364Y-87397000D02*
X68256036Y-87397000D01*
X68040364Y-88117000D02*
X68256036Y-88117000D01*
%TO.C,C59*%
X65553000Y-88080964D02*
X65553000Y-88296636D01*
X66273000Y-88080964D02*
X66273000Y-88296636D01*
%TO.C,C50*%
X68042964Y-86406400D02*
X68258636Y-86406400D01*
X68042964Y-87126400D02*
X68258636Y-87126400D01*
%TO.C,C48*%
X77332601Y-75010819D02*
X77332601Y-75291979D01*
X78352601Y-75010819D02*
X78352601Y-75291979D01*
%TO.C,C42*%
X57970052Y-96394600D02*
X57447548Y-96394600D01*
X57970052Y-97864600D02*
X57447548Y-97864600D01*
%TO.C,C10*%
X70729400Y-87588036D02*
X70729400Y-87372364D01*
X71449400Y-87588036D02*
X71449400Y-87372364D01*
%TO.C,R40*%
X79624800Y-91774159D02*
X79624800Y-92081441D01*
X80384800Y-91774159D02*
X80384800Y-92081441D01*
%TO.C,C1*%
X70607600Y-81984964D02*
X70607600Y-82200636D01*
X71327600Y-81984964D02*
X71327600Y-82200636D01*
%TD*%
M02*
