%TF.GenerationSoftware,KiCad,Pcbnew,8.0.6*%
%TF.CreationDate,2026-02-16T15:05:02+02:00*%
%TF.ProjectId,ETH_TMC_shield,4554485f-544d-4435-9f73-6869656c642e,rev?*%
%TF.SameCoordinates,Original*%
%TF.FileFunction,Copper,L4,Bot*%
%TF.FilePolarity,Positive*%
%FSLAX46Y46*%
G04 Gerber Fmt 4.6, Leading zero omitted, Abs format (unit mm)*
G04 Created by KiCad (PCBNEW 8.0.6) date 2026-02-16 15:05:02*
%MOMM*%
%LPD*%
G01*
G04 APERTURE LIST*
G04 Aperture macros list*
%AMRoundRect*
0 Rectangle with rounded corners*
0 $1 Rounding radius*
0 $2 $3 $4 $5 $6 $7 $8 $9 X,Y pos of 4 corners*
0 Add a 4 corners polygon primitive as box body*
4,1,4,$2,$3,$4,$5,$6,$7,$8,$9,$2,$3,0*
0 Add four circle primitives for the rounded corners*
1,1,$1+$1,$2,$3*
1,1,$1+$1,$4,$5*
1,1,$1+$1,$6,$7*
1,1,$1+$1,$8,$9*
0 Add four rect primitives between the rounded corners*
20,1,$1+$1,$2,$3,$4,$5,0*
20,1,$1+$1,$4,$5,$6,$7,0*
20,1,$1+$1,$6,$7,$8,$9,0*
20,1,$1+$1,$8,$9,$2,$3,0*%
G04 Aperture macros list end*
%TA.AperFunction,HeatsinkPad*%
%ADD10O,1.800000X1.100000*%
%TD*%
%TA.AperFunction,HeatsinkPad*%
%ADD11O,2.200000X1.100000*%
%TD*%
%TA.AperFunction,ComponentPad*%
%ADD12R,1.725000X1.725000*%
%TD*%
%TA.AperFunction,ComponentPad*%
%ADD13C,1.725000*%
%TD*%
%TA.AperFunction,ComponentPad*%
%ADD14C,1.905000*%
%TD*%
%TA.AperFunction,ComponentPad*%
%ADD15C,2.775000*%
%TD*%
%TA.AperFunction,ComponentPad*%
%ADD16R,1.700000X1.700000*%
%TD*%
%TA.AperFunction,ComponentPad*%
%ADD17O,1.700000X1.700000*%
%TD*%
%TA.AperFunction,ComponentPad*%
%ADD18R,1.000000X1.000000*%
%TD*%
%TA.AperFunction,ComponentPad*%
%ADD19O,1.000000X1.000000*%
%TD*%
%TA.AperFunction,SMDPad,CuDef*%
%ADD20RoundRect,0.237500X-0.237500X0.300000X-0.237500X-0.300000X0.237500X-0.300000X0.237500X0.300000X0*%
%TD*%
%TA.AperFunction,SMDPad,CuDef*%
%ADD21RoundRect,0.200000X0.200000X0.275000X-0.200000X0.275000X-0.200000X-0.275000X0.200000X-0.275000X0*%
%TD*%
%TA.AperFunction,SMDPad,CuDef*%
%ADD22RoundRect,0.200000X0.275000X-0.200000X0.275000X0.200000X-0.275000X0.200000X-0.275000X-0.200000X0*%
%TD*%
%TA.AperFunction,SMDPad,CuDef*%
%ADD23RoundRect,0.140000X0.140000X0.170000X-0.140000X0.170000X-0.140000X-0.170000X0.140000X-0.170000X0*%
%TD*%
%TA.AperFunction,SMDPad,CuDef*%
%ADD24RoundRect,0.135000X0.185000X-0.135000X0.185000X0.135000X-0.185000X0.135000X-0.185000X-0.135000X0*%
%TD*%
%TA.AperFunction,SMDPad,CuDef*%
%ADD25RoundRect,0.237500X-0.300000X-0.237500X0.300000X-0.237500X0.300000X0.237500X-0.300000X0.237500X0*%
%TD*%
%TA.AperFunction,SMDPad,CuDef*%
%ADD26RoundRect,0.140000X-0.170000X0.140000X-0.170000X-0.140000X0.170000X-0.140000X0.170000X0.140000X0*%
%TD*%
%TA.AperFunction,SMDPad,CuDef*%
%ADD27R,2.000000X1.100000*%
%TD*%
%TA.AperFunction,SMDPad,CuDef*%
%ADD28R,0.800000X0.800000*%
%TD*%
%TA.AperFunction,SMDPad,CuDef*%
%ADD29RoundRect,0.140000X-0.140000X-0.170000X0.140000X-0.170000X0.140000X0.170000X-0.140000X0.170000X0*%
%TD*%
%TA.AperFunction,SMDPad,CuDef*%
%ADD30RoundRect,0.200000X-0.275000X0.200000X-0.275000X-0.200000X0.275000X-0.200000X0.275000X0.200000X0*%
%TD*%
%TA.AperFunction,SMDPad,CuDef*%
%ADD31RoundRect,0.237500X0.300000X0.237500X-0.300000X0.237500X-0.300000X-0.237500X0.300000X-0.237500X0*%
%TD*%
%TA.AperFunction,SMDPad,CuDef*%
%ADD32RoundRect,0.135000X-0.185000X0.135000X-0.185000X-0.135000X0.185000X-0.135000X0.185000X0.135000X0*%
%TD*%
%TA.AperFunction,ViaPad*%
%ADD33C,0.600000*%
%TD*%
%TA.AperFunction,ViaPad*%
%ADD34C,0.400000*%
%TD*%
%TA.AperFunction,Conductor*%
%ADD35C,0.150000*%
%TD*%
%TA.AperFunction,Conductor*%
%ADD36C,0.250000*%
%TD*%
%TA.AperFunction,Conductor*%
%ADD37C,0.200000*%
%TD*%
%TA.AperFunction,Conductor*%
%ADD38C,0.300000*%
%TD*%
G04 APERTURE END LIST*
D10*
%TO.P,J5,6,Shield*%
%TO.N,GND*%
X68931800Y-93590800D03*
D11*
X66131800Y-91440800D03*
D10*
X63331800Y-93590800D03*
%TD*%
D12*
%TO.P,J6,P1,P1*%
%TO.N,TXP*%
X55193800Y-87930000D03*
D13*
%TO.P,J6,P2,P2*%
%TO.N,+3V3*%
X53923800Y-90470000D03*
%TO.P,J6,P3,P3*%
%TO.N,TXN*%
X52653800Y-87930000D03*
%TO.P,J6,P4,P4*%
%TO.N,RXN*%
X51383800Y-90470000D03*
%TO.P,J6,P5,P5*%
%TO.N,+3V3*%
X50113800Y-87930000D03*
%TO.P,J6,P6,P6*%
%TO.N,RXP*%
X48843800Y-90470000D03*
%TO.P,J6,P7,P7*%
%TO.N,unconnected-(J6-PadP7)*%
X47573800Y-87930000D03*
%TO.P,J6,P8,P8*%
%TO.N,GND*%
X46303800Y-90470000D03*
D14*
%TO.P,J6,P9*%
%TO.N,LED1*%
X57073800Y-77470000D03*
%TO.P,J6,P10*%
%TO.N,Net-(J6-PadP10)*%
X54533800Y-77470000D03*
%TO.P,J6,P11*%
%TO.N,LED2*%
X46963800Y-77470000D03*
%TO.P,J6,P12*%
%TO.N,Net-(J6-PadP12)*%
X44423800Y-77470000D03*
D15*
%TO.P,J6,SH1,SHIELD*%
%TO.N,GND*%
X42793800Y-85470000D03*
%TO.P,J6,SH2,SHIELD__1*%
X58703800Y-85470000D03*
%TD*%
D16*
%TO.P,J11,1,Pin_1*%
%TO.N,CSN_1*%
X71417901Y-100690201D03*
D17*
%TO.P,J11,2,Pin_2*%
%TO.N,SPI_MOSI_1*%
X71417901Y-103230201D03*
%TO.P,J11,3,Pin_3*%
%TO.N,GND*%
X68877901Y-100690201D03*
%TO.P,J11,4,Pin_4*%
%TO.N,SPI_MISO_1*%
X68877901Y-103230201D03*
%TO.P,J11,5,Pin_5*%
%TO.N,SCK_1*%
X66337901Y-100690201D03*
%TO.P,J11,6,Pin_6*%
%TO.N,GND*%
X66337901Y-103230201D03*
%TO.P,J11,7,Pin_7*%
%TO.N,CLK_EXT_1*%
X63797901Y-100690201D03*
%TO.P,J11,8,Pin_8*%
%TO.N,+3V3*%
X63797901Y-103230201D03*
%TO.P,J11,9,Pin_9*%
%TO.N,GND*%
X61257901Y-100690201D03*
%TO.P,J11,10,Pin_10*%
X61257901Y-103230201D03*
%TO.P,J11,11,Pin_11*%
%TO.N,+3V3*%
X58717901Y-100690201D03*
%TO.P,J11,12,Pin_12*%
%TO.N,monitoring_1*%
X58717901Y-103230201D03*
%TD*%
D18*
%TO.P,J12,1,Pin_1*%
%TO.N,+3V3*%
X86791800Y-77582000D03*
D19*
%TO.P,J12,2,Pin_2*%
%TO.N,GND*%
X86791800Y-78852000D03*
%TD*%
D18*
%TO.P,J13,1,Pin_1*%
%TO.N,/NRST*%
X86791800Y-80137000D03*
D19*
%TO.P,J13,2,Pin_2*%
%TO.N,/SWCLK*%
X86791800Y-81407000D03*
%TO.P,J13,3,Pin_3*%
%TO.N,/SWDIO*%
X86791800Y-82677000D03*
%TD*%
D16*
%TO.P,J10,1,Pin_1*%
%TO.N,GND*%
X84402901Y-65689001D03*
D17*
%TO.P,J10,2,Pin_2*%
%TO.N,/RXD1*%
X84402901Y-68229001D03*
%TO.P,J10,3,Pin_3*%
%TO.N,GND*%
X81862901Y-65689001D03*
%TO.P,J10,4,Pin_4*%
%TO.N,/TXD1*%
X81862901Y-68229001D03*
%TO.P,J10,5,Pin_5*%
%TO.N,DRV_ENN_1*%
X79322901Y-65689001D03*
%TO.P,J10,6,Pin_6*%
%TO.N,GND*%
X79322901Y-68229001D03*
%TO.P,J10,7,Pin_7*%
%TO.N,INTR_1*%
X76782901Y-65689001D03*
%TO.P,J10,8,Pin_8*%
%TO.N,+3V3*%
X76782901Y-68229001D03*
%TO.P,J10,9,Pin_9*%
%TO.N,GND*%
X74242901Y-65689001D03*
%TO.P,J10,10,Pin_10*%
X74242901Y-68229001D03*
%TO.P,J10,11,Pin_11*%
%TO.N,PGOOD1*%
X71702901Y-65689001D03*
%TO.P,J10,12,Pin_12*%
%TO.N,GND*%
X71702901Y-68229001D03*
%TD*%
D20*
%TO.P,C55,1*%
%TO.N,GND*%
X49072750Y-84162499D03*
%TO.P,C55,2*%
%TO.N,+3V3*%
X49072750Y-85887499D03*
%TD*%
D21*
%TO.P,R42,1*%
%TO.N,+3V3*%
X58621800Y-88057000D03*
%TO.P,R42,2*%
%TO.N,TXP*%
X56971800Y-88057000D03*
%TD*%
D22*
%TO.P,R44,1*%
%TO.N,+3V3*%
X48869200Y-94190600D03*
%TO.P,R44,2*%
%TO.N,RXP*%
X48869200Y-92540600D03*
%TD*%
%TO.P,R43,1*%
%TO.N,+3V3*%
X51383800Y-94165200D03*
%TO.P,R43,2*%
%TO.N,RXN*%
X51383800Y-92515200D03*
%TD*%
D23*
%TO.P,C2,1*%
%TO.N,+3V3*%
X69212400Y-83667600D03*
%TO.P,C2,2*%
%TO.N,GND*%
X68252400Y-83667600D03*
%TD*%
D24*
%TO.P,R2,1*%
%TO.N,Net-(D2-A)*%
X76504800Y-72849200D03*
%TO.P,R2,2*%
%TO.N,+3V3*%
X76504800Y-71829200D03*
%TD*%
D25*
%TO.P,C52,1*%
%TO.N,GND*%
X44806650Y-92773099D03*
%TO.P,C52,2*%
%TO.N,+3V3*%
X46531650Y-92773099D03*
%TD*%
D20*
%TO.P,C54,1*%
%TO.N,GND*%
X47498000Y-84176700D03*
%TO.P,C54,2*%
%TO.N,+3V3*%
X47498000Y-85901700D03*
%TD*%
D26*
%TO.P,C37,1*%
%TO.N,+3V3*%
X76250800Y-80139600D03*
%TO.P,C37,2*%
%TO.N,GND*%
X76250800Y-81099600D03*
%TD*%
D27*
%TO.P,D9,1,K*%
%TO.N,PGOOD1*%
X73290200Y-93451800D03*
D28*
%TO.P,D9,2,A*%
%TO.N,Net-(D9-A)*%
X71390200Y-93451800D03*
%TD*%
D29*
%TO.P,C45,1*%
%TO.N,Net-(C44-Pad2)*%
X80268651Y-83327900D03*
%TO.P,C45,2*%
%TO.N,GND*%
X81228651Y-83327900D03*
%TD*%
D26*
%TO.P,C4,1*%
%TO.N,/NRST*%
X78536800Y-83388200D03*
%TO.P,C4,2*%
%TO.N,GND*%
X78536800Y-84348200D03*
%TD*%
D30*
%TO.P,R37,1*%
%TO.N,Net-(J6-PadP12)*%
X49529600Y-79307200D03*
%TO.P,R37,2*%
%TO.N,GND*%
X49529600Y-80957200D03*
%TD*%
%TO.P,R38,1*%
%TO.N,+3V3*%
X52679200Y-84348600D03*
%TO.P,R38,2*%
%TO.N,TXN*%
X52679200Y-85998600D03*
%TD*%
D20*
%TO.P,C53,1*%
%TO.N,GND*%
X50901550Y-84138199D03*
%TO.P,C53,2*%
%TO.N,+3V3*%
X50901550Y-85863199D03*
%TD*%
D31*
%TO.P,C56,1*%
%TO.N,GND*%
X54685050Y-94347899D03*
%TO.P,C56,2*%
%TO.N,+3V3*%
X52960050Y-94347899D03*
%TD*%
D32*
%TO.P,R3,1*%
%TO.N,+3V3*%
X75412600Y-71829200D03*
%TO.P,R3,2*%
%TO.N,Net-(D3-A)*%
X75412600Y-72849200D03*
%TD*%
D30*
%TO.P,R36,1*%
%TO.N,Net-(J6-PadP10)*%
X52044200Y-79307200D03*
%TO.P,R36,2*%
%TO.N,GND*%
X52044200Y-80957200D03*
%TD*%
D33*
%TO.N,+3V3*%
X58621800Y-88057000D03*
X58717901Y-97180400D03*
D34*
X83543200Y-78282800D03*
X69212400Y-83667600D03*
D33*
X49072750Y-85887499D03*
X47498000Y-85901700D03*
X71804500Y-71125200D03*
D34*
X64002800Y-86410800D03*
X65904251Y-87707300D03*
X83134200Y-89966800D03*
D33*
X50877250Y-85887499D03*
D34*
X70967600Y-81612800D03*
X75412600Y-71829200D03*
D33*
X62839600Y-81737200D03*
X46531650Y-92773099D03*
D34*
X71097500Y-87952100D03*
X76250800Y-80139600D03*
D33*
X52679200Y-84348600D03*
D34*
%TO.N,monitoring_1*%
X60401200Y-98320800D03*
D33*
X80518000Y-88493600D03*
D34*
X75539600Y-88493600D03*
D33*
X79095600Y-88493600D03*
%TO.N,GND*%
X79326651Y-74838300D03*
X49529600Y-80957200D03*
X65422001Y-83533399D03*
X69689201Y-77081799D03*
D34*
X82143600Y-88341200D03*
X84658200Y-79578200D03*
D33*
X49072750Y-84162499D03*
X55880000Y-85801200D03*
X77842601Y-74363999D03*
X68774801Y-77183399D03*
X60401200Y-95453200D03*
D34*
X76250800Y-81099600D03*
X84099400Y-89966800D03*
D33*
X69663801Y-79774199D03*
D34*
X62001400Y-85090000D03*
D33*
X73778251Y-77877500D03*
X82804000Y-91541600D03*
D34*
X70967600Y-82572800D03*
D33*
X73380600Y-72644000D03*
X71628000Y-78867000D03*
X67606401Y-79316999D03*
D34*
X86385400Y-76098400D03*
D33*
X47498000Y-84176700D03*
D34*
X65913000Y-88668800D03*
D33*
X82240000Y-73456800D03*
X66234801Y-84295399D03*
X69748400Y-73050400D03*
X76017000Y-75824200D03*
X77233001Y-80002799D03*
X71577200Y-73583800D03*
X56667400Y-95478600D03*
X50901550Y-84138199D03*
X82338401Y-80536199D03*
X66234801Y-82745999D03*
D34*
X84937600Y-76301600D03*
X63042800Y-86410800D03*
D33*
X69646800Y-89154000D03*
X65422001Y-82745999D03*
X72390000Y-75615800D03*
D34*
X68630800Y-86766400D03*
D33*
X67047601Y-82745999D03*
X78892400Y-81127600D03*
D34*
X72694800Y-90246200D03*
D33*
X66234801Y-83533399D03*
X81231251Y-84166100D03*
D34*
X62839600Y-79806800D03*
X71089400Y-87000200D03*
X84455000Y-88798400D03*
X86461600Y-83896200D03*
X68630800Y-87757000D03*
D33*
X76936600Y-87807800D03*
X80726651Y-75938300D03*
X52044200Y-80957200D03*
D34*
X60401200Y-97360800D03*
D33*
X70815200Y-85496400D03*
X67047601Y-84295399D03*
X82592401Y-82441199D03*
X66463401Y-77259599D03*
X56671300Y-97129600D03*
X73685400Y-75717400D03*
X73879500Y-71125200D03*
X67047601Y-83533399D03*
D34*
X78536800Y-84348200D03*
D33*
X74574400Y-84023200D03*
X71114800Y-80497800D03*
D34*
X84480400Y-78282800D03*
D33*
X54838600Y-95808800D03*
X65422001Y-84295399D03*
D34*
%TO.N,/NRST*%
X78252200Y-82504400D03*
X78988800Y-79964400D03*
X81965800Y-82042000D03*
%TO.N,SENSOR_INDICATOR*%
X76504800Y-73824300D03*
X78734800Y-77068800D03*
%TO.N,Net-(D2-A)*%
X76504800Y-72854300D03*
%TO.N,Net-(D3-A)*%
X75412600Y-72842400D03*
%TO.N,ON_INDICATOR*%
X75412600Y-73812400D03*
X77261600Y-77361500D03*
%TO.N,/SWDIO*%
X81432400Y-87985600D03*
%TO.N,/SWCLK*%
X81864200Y-86842600D03*
D33*
%TO.N,Net-(C44-Pad2)*%
X73832600Y-90810200D03*
X79696451Y-81916100D03*
%TO.N,Net-(D9-A)*%
X71390200Y-93451800D03*
D34*
X63333000Y-97602200D03*
D33*
X67838200Y-94874200D03*
%TO.N,LED2*%
X64888251Y-86665900D03*
X62805451Y-88748700D03*
%TO.N,LED1*%
X65904251Y-86564300D03*
X63973851Y-88799500D03*
%TO.N,ETH_TXD1*%
X64989851Y-78283900D03*
X72813051Y-77979100D03*
%TO.N,ETH_MDC*%
X76673851Y-76861500D03*
X73067051Y-76455100D03*
%TO.N,ETH_TXD0*%
X65650251Y-78944300D03*
X72669400Y-78867000D03*
%TO.N,ETH_TX_EN*%
X66310651Y-79655500D03*
X71136651Y-79655500D03*
%TO.N,PGOOD1*%
X69748400Y-70975400D03*
X73290200Y-93451800D03*
D34*
%TO.N,INTR_1*%
X79217400Y-72090400D03*
%TO.N,GND*%
X83489800Y-77470000D03*
%TD*%
D35*
%TO.N,ETH_TXD0*%
X72035500Y-78233100D02*
X72669400Y-78867000D01*
X71551800Y-78233100D02*
X72035500Y-78233100D01*
X66056651Y-78233100D02*
X71551800Y-78233100D01*
D36*
%TO.N,+3V3*%
X49135400Y-94190600D02*
X49160800Y-94165200D01*
X50139200Y-87904600D02*
X50113800Y-87930000D01*
X49160800Y-94165200D02*
X51383800Y-94165200D01*
D37*
X65929651Y-87707300D02*
X65904251Y-87707300D01*
D38*
X52742200Y-84285600D02*
X52679200Y-84348600D01*
X50901550Y-85863199D02*
X51029650Y-85863199D01*
D36*
X47256299Y-92773099D02*
X46531650Y-92773099D01*
X58621800Y-88057000D02*
X58546600Y-88057000D01*
X51383800Y-94165200D02*
X52777351Y-94165200D01*
X48869200Y-94190600D02*
X48673800Y-94190600D01*
X48673800Y-94190600D02*
X47256299Y-92773099D01*
D38*
X49055651Y-85904598D02*
X49072750Y-85887499D01*
X52544249Y-84348600D02*
X52679200Y-84348600D01*
X50877250Y-85887499D02*
X50901550Y-85863199D01*
D35*
X76504800Y-71829200D02*
X75412600Y-71829200D01*
D36*
X52777351Y-94165200D02*
X52960050Y-94347899D01*
X48869200Y-94190600D02*
X49135400Y-94190600D01*
D35*
%TO.N,monitoring_1*%
X79095600Y-88493600D02*
X80518000Y-88493600D01*
D37*
%TO.N,GND*%
X81228651Y-84163500D02*
X81231251Y-84166100D01*
X81228651Y-83327900D02*
X81228651Y-84163500D01*
D35*
%TO.N,/NRST*%
X83820000Y-80137000D02*
X82931000Y-81026000D01*
X78099800Y-80243800D02*
X78709400Y-80243800D01*
X82931000Y-81026000D02*
X81965800Y-81991200D01*
X81965800Y-81991200D02*
X81965800Y-82042000D01*
X77795000Y-80828000D02*
X77795000Y-80548600D01*
X78252200Y-82504400D02*
X77795000Y-82047200D01*
X77795000Y-82047200D02*
X77795000Y-80828000D01*
X77795000Y-80548600D02*
X78099800Y-80243800D01*
X78252200Y-83103600D02*
X78252200Y-82504400D01*
X78709400Y-80243800D02*
X78988800Y-79964400D01*
X78536800Y-83388200D02*
X78252200Y-83103600D01*
X86791800Y-80137000D02*
X83820000Y-80137000D01*
%TO.N,SENSOR_INDICATOR*%
X77287000Y-75255000D02*
X76504800Y-74472800D01*
X78125200Y-76459200D02*
X77693400Y-76459200D01*
X76504800Y-74472800D02*
X76504800Y-73824300D01*
X77693400Y-76459200D02*
X77287000Y-76052800D01*
X78734800Y-77068800D02*
X78125200Y-76459200D01*
X77287000Y-76052800D02*
X77287000Y-75255000D01*
%TO.N,ON_INDICATOR*%
X76931400Y-75432800D02*
X75412600Y-73914000D01*
X76931400Y-75895200D02*
X76931400Y-75432800D01*
X77261600Y-76522374D02*
X77103013Y-76363787D01*
X76937000Y-76197775D02*
X76931400Y-76192175D01*
X75412600Y-73914000D02*
X75412600Y-73812400D01*
X77103013Y-76363787D02*
X76937000Y-76197775D01*
X76931400Y-76192175D02*
X76931400Y-75895200D01*
X77261600Y-77361500D02*
X77261600Y-76522374D01*
%TO.N,/SWDIO*%
X83108800Y-85267800D02*
X83108800Y-85826600D01*
X83108800Y-84187974D02*
X83108800Y-85826600D01*
X82524600Y-86537800D02*
X82372200Y-86690200D01*
X82372200Y-86817200D02*
X82372200Y-87045800D01*
X83108800Y-85953600D02*
X82524600Y-86537800D01*
X86791800Y-82677000D02*
X85877400Y-83591400D01*
X85877400Y-83591400D02*
X85852000Y-83616800D01*
X82372200Y-86690200D02*
X82372200Y-86817200D01*
X83108800Y-84251800D02*
X83108800Y-85267800D01*
X83679974Y-83616800D02*
X83108800Y-84187974D01*
X83997800Y-83616800D02*
X83679974Y-83616800D01*
X82372200Y-87045800D02*
X81432400Y-87985600D01*
X83108800Y-85826600D02*
X83108800Y-85953600D01*
X85852000Y-83616800D02*
X83997800Y-83616800D01*
%TO.N,/SWCLK*%
X83553300Y-83248500D02*
X83362800Y-83439000D01*
X82296000Y-86182200D02*
X81864200Y-86614000D01*
X83032600Y-83769200D02*
X82727800Y-84074000D01*
X82727800Y-85242400D02*
X82727800Y-85750400D01*
X83362800Y-83439000D02*
X83032600Y-83769200D01*
X81864200Y-86614000D02*
X81864200Y-86842600D01*
X86004400Y-82368384D02*
X86004400Y-82905600D01*
X86004400Y-82905600D02*
X85725000Y-83185000D01*
X86791800Y-81580984D02*
X86078692Y-82294092D01*
X85725000Y-83185000D02*
X85661500Y-83248500D01*
X86791800Y-81407000D02*
X86791800Y-81580984D01*
X85661500Y-83248500D02*
X83553300Y-83248500D01*
X86078692Y-82294092D02*
X86004400Y-82368384D01*
X82727800Y-84074000D02*
X82727800Y-85242400D01*
X82727800Y-85750400D02*
X82296000Y-86182200D01*
D37*
%TO.N,Net-(C44-Pad2)*%
X77407600Y-89140200D02*
X79391651Y-87156149D01*
X76906000Y-91343600D02*
X77407600Y-90842000D01*
X79391651Y-83327900D02*
X79391651Y-82220900D01*
X79391651Y-87156149D02*
X79391651Y-83327900D01*
X77407600Y-90842000D02*
X77407600Y-89140200D01*
X73832600Y-90810200D02*
X74366000Y-91343600D01*
X74366000Y-91343600D02*
X76906000Y-91343600D01*
X79391651Y-82220900D02*
X79696451Y-81916100D01*
X79391651Y-83327900D02*
X80268651Y-83327900D01*
D36*
%TO.N,Net-(D9-A)*%
X67101600Y-92334200D02*
X62605800Y-92334200D01*
X63317000Y-97586200D02*
X63333000Y-97602200D01*
X62097800Y-92842200D02*
X62097800Y-94975800D01*
X67431800Y-94467800D02*
X67431800Y-92664400D01*
X62605800Y-92334200D02*
X62097800Y-92842200D01*
X63317000Y-96195000D02*
X63317000Y-97586200D01*
X62097800Y-94975800D02*
X63317000Y-96195000D01*
X67431800Y-92664400D02*
X67101600Y-92334200D01*
X67838200Y-94874200D02*
X67431800Y-94467800D01*
D37*
%TO.N,RXN*%
X51383800Y-92401400D02*
X51383800Y-90470000D01*
%TO.N,RXP*%
X48869200Y-92540600D02*
X48869200Y-90495400D01*
X48869200Y-90495400D02*
X48843800Y-90470000D01*
D35*
%TO.N,LED2*%
X64888251Y-86665900D02*
X62805451Y-88748700D01*
D37*
%TO.N,TXP*%
X55320800Y-88057000D02*
X55193800Y-87930000D01*
X55168400Y-87904600D02*
X55193800Y-87930000D01*
X56971800Y-88057000D02*
X55320800Y-88057000D01*
D35*
%TO.N,LED1*%
X65904251Y-86564300D02*
X63973851Y-88494700D01*
X63973851Y-88494700D02*
X63973851Y-88799500D01*
D37*
%TO.N,TXN*%
X52679200Y-87904600D02*
X52653800Y-87930000D01*
X52679200Y-85998600D02*
X52679200Y-87904600D01*
D35*
%TO.N,ETH_TXD1*%
X72711451Y-77877500D02*
X72813051Y-77979100D01*
X65396251Y-77877500D02*
X72711451Y-77877500D01*
X64989851Y-78283900D02*
X65396251Y-77877500D01*
D37*
%TO.N,ETH_MDC*%
X73067051Y-76455100D02*
X75509000Y-76455100D01*
X75509000Y-76455100D02*
X75661400Y-76455100D01*
X75509000Y-76455100D02*
X75839200Y-76455100D01*
X76673851Y-76861500D02*
X76245600Y-76861500D01*
X75839200Y-76455100D02*
X76245600Y-76861500D01*
D35*
%TO.N,ETH_TXD0*%
X65650251Y-78944300D02*
X65650251Y-78639500D01*
X65650251Y-78639500D02*
X66056651Y-78233100D01*
%TO.N,ETH_TX_EN*%
X69511051Y-78588700D02*
X70069851Y-78588700D01*
X71035051Y-79452300D02*
X71136651Y-79452300D01*
X66310651Y-79655500D02*
X66310651Y-78995100D01*
X69155451Y-78588700D02*
X69511051Y-78588700D01*
X66310651Y-78995100D02*
X66717051Y-78588700D01*
X70069851Y-78588700D02*
X71136651Y-79655500D01*
X66717051Y-78588700D02*
X69155451Y-78588700D01*
D36*
%TO.N,Net-(J6-PadP10)*%
X52044200Y-79307200D02*
X53758200Y-79307200D01*
X54533800Y-78531600D02*
X54533800Y-77470000D01*
X53758200Y-79307200D02*
X54533800Y-78531600D01*
%TO.N,Net-(J6-PadP12)*%
X49529600Y-79307200D02*
X46261000Y-79307200D01*
X46261000Y-79307200D02*
X44423800Y-77470000D01*
D35*
%TO.N,INTR_1*%
X78079600Y-66985700D02*
X76782901Y-65689001D01*
X78861800Y-72090400D02*
X78079600Y-71308200D01*
X78079600Y-71308200D02*
X78079600Y-66985700D01*
X79217400Y-72090400D02*
X78861800Y-72090400D01*
%TD*%
%TA.AperFunction,Conductor*%
%TO.N,GND*%
G36*
X69377901Y-101066201D02*
G01*
X69358216Y-101133240D01*
X69305412Y-101178995D01*
X69253901Y-101190201D01*
X68943727Y-101190201D01*
X69070894Y-101156126D01*
X69184908Y-101090300D01*
X69278000Y-100997208D01*
X69343826Y-100883194D01*
X69377901Y-100756027D01*
X69377901Y-101066201D01*
G37*
%TD.AperFunction*%
%TA.AperFunction,Conductor*%
G36*
X79129908Y-67763076D02*
G01*
X79015894Y-67828902D01*
X78922802Y-67921994D01*
X78856976Y-68036008D01*
X78822901Y-68163175D01*
X78822901Y-67853001D01*
X78842586Y-67785962D01*
X78895390Y-67740207D01*
X78946901Y-67729001D01*
X79257075Y-67729001D01*
X79129908Y-67763076D01*
G37*
%TD.AperFunction*%
%TA.AperFunction,Conductor*%
G36*
X82362901Y-66065001D02*
G01*
X82343216Y-66132040D01*
X82290412Y-66177795D01*
X82238901Y-66189001D01*
X81928727Y-66189001D01*
X82055894Y-66154926D01*
X82169908Y-66089100D01*
X82263000Y-65996008D01*
X82328826Y-65881994D01*
X82362901Y-65754827D01*
X82362901Y-66065001D01*
G37*
%TD.AperFunction*%
%TA.AperFunction,Conductor*%
G36*
X83936976Y-65881994D02*
G01*
X84002802Y-65996008D01*
X84095894Y-66089100D01*
X84209908Y-66154926D01*
X84337075Y-66189001D01*
X84026901Y-66189001D01*
X83959862Y-66169316D01*
X83914107Y-66116512D01*
X83902901Y-66065001D01*
X83902901Y-65754827D01*
X83936976Y-65881994D01*
G37*
%TD.AperFunction*%
%TA.AperFunction,Conductor*%
G36*
X85897928Y-63623428D02*
G01*
X86098067Y-63637744D01*
X86115572Y-63640261D01*
X86307307Y-63681972D01*
X86324273Y-63686954D01*
X86508105Y-63755522D01*
X86524197Y-63762870D01*
X86696409Y-63856907D01*
X86711292Y-63866472D01*
X86868362Y-63984054D01*
X86881733Y-63995640D01*
X87020471Y-64134380D01*
X87032057Y-64147751D01*
X87149639Y-64304825D01*
X87159204Y-64319709D01*
X87253235Y-64491917D01*
X87260584Y-64508010D01*
X87329151Y-64691847D01*
X87334135Y-64708822D01*
X87375840Y-64900540D01*
X87378358Y-64918053D01*
X87392696Y-65118553D01*
X87393012Y-65127398D01*
X87393012Y-65198487D01*
X87393013Y-65198500D01*
X87393013Y-76657500D01*
X87373328Y-76724539D01*
X87320524Y-76770294D01*
X87269013Y-76781500D01*
X86246943Y-76781500D01*
X86246917Y-76781502D01*
X86221812Y-76784413D01*
X86221808Y-76784415D01*
X86119035Y-76829793D01*
X86039594Y-76909234D01*
X85994215Y-77012006D01*
X85994215Y-77012008D01*
X85991300Y-77037131D01*
X85991300Y-78126856D01*
X85991302Y-78126882D01*
X85994213Y-78151987D01*
X85994215Y-78151991D01*
X86039593Y-78254764D01*
X86039594Y-78254765D01*
X86119035Y-78334206D01*
X86221809Y-78379585D01*
X86246935Y-78382500D01*
X87167800Y-78382499D01*
X87234839Y-78402183D01*
X87280594Y-78454987D01*
X87291800Y-78506499D01*
X87291800Y-79212500D01*
X87272115Y-79279539D01*
X87219311Y-79325294D01*
X87167800Y-79336500D01*
X86246943Y-79336500D01*
X86246917Y-79336502D01*
X86221812Y-79339413D01*
X86221811Y-79339414D01*
X86221809Y-79339415D01*
X86217235Y-79341434D01*
X86167150Y-79352000D01*
X86153010Y-79352000D01*
X86127674Y-79377077D01*
X86128513Y-79378301D01*
X86121778Y-79382914D01*
X86121329Y-79383359D01*
X86120628Y-79383702D01*
X86119036Y-79384792D01*
X86039593Y-79464236D01*
X85994215Y-79567006D01*
X85994215Y-79567008D01*
X85991300Y-79592131D01*
X85991300Y-79637500D01*
X85971615Y-79704539D01*
X85918811Y-79750294D01*
X85867300Y-79761500D01*
X83770564Y-79761500D01*
X83722812Y-79774295D01*
X83722811Y-79774294D01*
X83675063Y-79787089D01*
X83675058Y-79787091D01*
X83632697Y-79811549D01*
X83632696Y-79811550D01*
X83589438Y-79836524D01*
X83589435Y-79836526D01*
X82700437Y-80725526D01*
X81902944Y-81523017D01*
X81850198Y-81554313D01*
X81755749Y-81582045D01*
X81634673Y-81659856D01*
X81540423Y-81768626D01*
X81540422Y-81768628D01*
X81480634Y-81899543D01*
X81460153Y-82042000D01*
X81480634Y-82184456D01*
X81523246Y-82277762D01*
X81540423Y-82315373D01*
X81634672Y-82424143D01*
X81755747Y-82501953D01*
X81755750Y-82501954D01*
X81755749Y-82501954D01*
X81893836Y-82542499D01*
X81893838Y-82542500D01*
X81893839Y-82542500D01*
X82037762Y-82542500D01*
X82037762Y-82542499D01*
X82151233Y-82509182D01*
X82175850Y-82501954D01*
X82175850Y-82501953D01*
X82175853Y-82501953D01*
X82296928Y-82424143D01*
X82391177Y-82315373D01*
X82450965Y-82184457D01*
X82469840Y-82053171D01*
X82498864Y-81989617D01*
X82504882Y-81983153D01*
X83231474Y-81256563D01*
X83290033Y-81198004D01*
X83290044Y-81197991D01*
X83939219Y-80548819D01*
X84000542Y-80515334D01*
X84026900Y-80512500D01*
X85867301Y-80512500D01*
X85934340Y-80532185D01*
X85980095Y-80584989D01*
X85991301Y-80636500D01*
X85991301Y-80681856D01*
X85991302Y-80681882D01*
X85994213Y-80706987D01*
X85994215Y-80706991D01*
X86039593Y-80809764D01*
X86081480Y-80851651D01*
X86114965Y-80912974D01*
X86109981Y-80982666D01*
X86098794Y-81005302D01*
X86066009Y-81057480D01*
X86006433Y-81227737D01*
X86006430Y-81227750D01*
X85986235Y-81406996D01*
X85986235Y-81407003D01*
X86006430Y-81586249D01*
X86006433Y-81586262D01*
X86045257Y-81697212D01*
X86048819Y-81766991D01*
X86015898Y-81825848D01*
X85848131Y-81993615D01*
X85848129Y-81993617D01*
X85848126Y-81993619D01*
X85773838Y-82067909D01*
X85703925Y-82137822D01*
X85654491Y-82223443D01*
X85654491Y-82223444D01*
X85654490Y-82223446D01*
X85628900Y-82318949D01*
X85628900Y-82318951D01*
X85628900Y-82698701D01*
X85609215Y-82765740D01*
X85592581Y-82786382D01*
X85542282Y-82836681D01*
X85480959Y-82870166D01*
X85454601Y-82873000D01*
X83503864Y-82873000D01*
X83408363Y-82898589D01*
X83408360Y-82898590D01*
X83322740Y-82948022D01*
X83322735Y-82948026D01*
X83132237Y-83138526D01*
X82427326Y-83843436D01*
X82377891Y-83929059D01*
X82377891Y-83929060D01*
X82377890Y-83929062D01*
X82352300Y-84024565D01*
X82352300Y-84024567D01*
X82352300Y-85543501D01*
X82332615Y-85610540D01*
X82315981Y-85631182D01*
X81563727Y-86383435D01*
X81563725Y-86383437D01*
X81563725Y-86383438D01*
X81549811Y-86407538D01*
X81514288Y-86469065D01*
X81511605Y-86475543D01*
X81490760Y-86509286D01*
X81438825Y-86569223D01*
X81438822Y-86569228D01*
X81379034Y-86700143D01*
X81358553Y-86842600D01*
X81379034Y-86985056D01*
X81438822Y-87115971D01*
X81438825Y-87115977D01*
X81517425Y-87206686D01*
X81546450Y-87270241D01*
X81536506Y-87339400D01*
X81511393Y-87375569D01*
X81438002Y-87448960D01*
X81376679Y-87482445D01*
X81367971Y-87484016D01*
X81360441Y-87485098D01*
X81222349Y-87525645D01*
X81101273Y-87603456D01*
X81007023Y-87712226D01*
X81007022Y-87712228D01*
X80947234Y-87843144D01*
X80947233Y-87843148D01*
X80945759Y-87853401D01*
X80916733Y-87916956D01*
X80857954Y-87954729D01*
X80788084Y-87954727D01*
X80775573Y-87950313D01*
X80674762Y-87908556D01*
X80674760Y-87908555D01*
X80518001Y-87887918D01*
X80517999Y-87887918D01*
X80361239Y-87908555D01*
X80361237Y-87908556D01*
X80215160Y-87969063D01*
X80215159Y-87969064D01*
X80089718Y-88065318D01*
X80089716Y-88065319D01*
X80089715Y-88065321D01*
X80086441Y-88069588D01*
X80030013Y-88110790D01*
X79988067Y-88118100D01*
X79625533Y-88118100D01*
X79558494Y-88098415D01*
X79527159Y-88069588D01*
X79523884Y-88065321D01*
X79523882Y-88065318D01*
X79398441Y-87969064D01*
X79398440Y-87969063D01*
X79398438Y-87969062D01*
X79390774Y-87965888D01*
X79336370Y-87922048D01*
X79314305Y-87855754D01*
X79331584Y-87788054D01*
X79350540Y-87763651D01*
X79712131Y-87402062D01*
X79764858Y-87310737D01*
X79792151Y-87208876D01*
X79792151Y-87103422D01*
X79792151Y-84021604D01*
X79811836Y-83954565D01*
X79864640Y-83908810D01*
X79933798Y-83898866D01*
X79957101Y-83904561D01*
X80045832Y-83935610D01*
X80060708Y-83937005D01*
X80075581Y-83938400D01*
X80075585Y-83938400D01*
X80461721Y-83938400D01*
X80474940Y-83937160D01*
X80491470Y-83935610D01*
X80491474Y-83935608D01*
X80491477Y-83935608D01*
X80568059Y-83908810D01*
X80616808Y-83891752D01*
X80675440Y-83848478D01*
X80741066Y-83824509D01*
X80809237Y-83839824D01*
X80822707Y-83848481D01*
X80880730Y-83891305D01*
X80948650Y-83915070D01*
X80948651Y-83915070D01*
X81508651Y-83915070D01*
X81576571Y-83891305D01*
X81683292Y-83812541D01*
X81762054Y-83705822D01*
X81796319Y-83607900D01*
X81508651Y-83607900D01*
X81508651Y-83915070D01*
X80948651Y-83915070D01*
X80948651Y-83047900D01*
X81508651Y-83047900D01*
X81796319Y-83047900D01*
X81762054Y-82949977D01*
X81683292Y-82843258D01*
X81576573Y-82764495D01*
X81576571Y-82764494D01*
X81508651Y-82740728D01*
X81508651Y-83047900D01*
X80948651Y-83047900D01*
X80948651Y-82740728D01*
X80948650Y-82740728D01*
X80880730Y-82764494D01*
X80880728Y-82764495D01*
X80822706Y-82807319D01*
X80757078Y-82831290D01*
X80688907Y-82815975D01*
X80675438Y-82807319D01*
X80647069Y-82786382D01*
X80616808Y-82764048D01*
X80616806Y-82764047D01*
X80491477Y-82720191D01*
X80491465Y-82720189D01*
X80461721Y-82717400D01*
X80461717Y-82717400D01*
X80075585Y-82717400D01*
X80075581Y-82717400D01*
X80045836Y-82720189D01*
X80045824Y-82720191D01*
X79957106Y-82751236D01*
X79887327Y-82754798D01*
X79826700Y-82720070D01*
X79794472Y-82658076D01*
X79792151Y-82634195D01*
X79792151Y-82609290D01*
X79811836Y-82542251D01*
X79864640Y-82496496D01*
X79868676Y-82494738D01*
X79999292Y-82440636D01*
X80124733Y-82344382D01*
X80220987Y-82218941D01*
X80281495Y-82072862D01*
X80302133Y-81916100D01*
X80299218Y-81893962D01*
X80282678Y-81768321D01*
X80281495Y-81759338D01*
X80220987Y-81613259D01*
X80124733Y-81487818D01*
X79999292Y-81391564D01*
X79970408Y-81379600D01*
X79853213Y-81331056D01*
X79853211Y-81331055D01*
X79696452Y-81310418D01*
X79696450Y-81310418D01*
X79539690Y-81331055D01*
X79539688Y-81331056D01*
X79393611Y-81391563D01*
X79268169Y-81487818D01*
X79171914Y-81613260D01*
X79111407Y-81759337D01*
X79111407Y-81759338D01*
X79089734Y-81923956D01*
X79074182Y-81969770D01*
X79018445Y-82066308D01*
X79018444Y-82066312D01*
X79010319Y-82096635D01*
X79010319Y-82096636D01*
X79010318Y-82096635D01*
X78991151Y-82168171D01*
X78991151Y-82393316D01*
X78971466Y-82460355D01*
X78918662Y-82506110D01*
X78849504Y-82516054D01*
X78785948Y-82487029D01*
X78748174Y-82428251D01*
X78744413Y-82410963D01*
X78737365Y-82361943D01*
X78677577Y-82231028D01*
X78677576Y-82231026D01*
X78671005Y-82223443D01*
X78583328Y-82122257D01*
X78462253Y-82044447D01*
X78462251Y-82044446D01*
X78462249Y-82044445D01*
X78462250Y-82044445D01*
X78324165Y-82003900D01*
X78316629Y-82002817D01*
X78253074Y-81973791D01*
X78246597Y-81967760D01*
X78206819Y-81927982D01*
X78173334Y-81866659D01*
X78170500Y-81840301D01*
X78170500Y-80755499D01*
X78190185Y-80688460D01*
X78206819Y-80667818D01*
X78219018Y-80655619D01*
X78280341Y-80622134D01*
X78306699Y-80619300D01*
X78758834Y-80619300D01*
X78758836Y-80619300D01*
X78813877Y-80604551D01*
X78825509Y-80601435D01*
X78838218Y-80598029D01*
X78854338Y-80593710D01*
X78939962Y-80544275D01*
X78983198Y-80501038D01*
X79044519Y-80467554D01*
X79053236Y-80465981D01*
X79060754Y-80464900D01*
X79060761Y-80464900D01*
X79198853Y-80424353D01*
X79319928Y-80346543D01*
X79414177Y-80237773D01*
X79473965Y-80106857D01*
X79494447Y-79964400D01*
X79473965Y-79821943D01*
X79414177Y-79691027D01*
X79319928Y-79582257D01*
X79198853Y-79504447D01*
X79198851Y-79504446D01*
X79198849Y-79504445D01*
X79198850Y-79504445D01*
X79060763Y-79463900D01*
X79060761Y-79463900D01*
X78916839Y-79463900D01*
X78916836Y-79463900D01*
X78778749Y-79504445D01*
X78657673Y-79582256D01*
X78563423Y-79691026D01*
X78563422Y-79691028D01*
X78557634Y-79703702D01*
X78519553Y-79787089D01*
X78515569Y-79795812D01*
X78469814Y-79848616D01*
X78402775Y-79868300D01*
X78050364Y-79868300D01*
X78002612Y-79881095D01*
X78002611Y-79881094D01*
X77954863Y-79893889D01*
X77954862Y-79893889D01*
X77869235Y-79943327D01*
X77494526Y-80318036D01*
X77445091Y-80403659D01*
X77445091Y-80403660D01*
X77445090Y-80403662D01*
X77419500Y-80499165D01*
X77419500Y-80778565D01*
X77419500Y-82096635D01*
X77445090Y-82192138D01*
X77485272Y-82261736D01*
X77494526Y-82277763D01*
X77721632Y-82504869D01*
X77755117Y-82566192D01*
X77756689Y-82574902D01*
X77767034Y-82646854D01*
X77767035Y-82646858D01*
X77820759Y-82764495D01*
X77826823Y-82777773D01*
X77846412Y-82800380D01*
X77875438Y-82863934D01*
X77876700Y-82881583D01*
X77876700Y-83153037D01*
X77884621Y-83182600D01*
X77902289Y-83248536D01*
X77902290Y-83248539D01*
X77909686Y-83261348D01*
X77926300Y-83323350D01*
X77926300Y-83581270D01*
X77929089Y-83611014D01*
X77929091Y-83611026D01*
X77962263Y-83705822D01*
X77972948Y-83736357D01*
X78013315Y-83791052D01*
X78016219Y-83794987D01*
X78040190Y-83860616D01*
X78024874Y-83928787D01*
X78016219Y-83942255D01*
X77973395Y-84000277D01*
X77973394Y-84000279D01*
X77949628Y-84068199D01*
X77949628Y-84068200D01*
X78692800Y-84068200D01*
X78759839Y-84087885D01*
X78805594Y-84140689D01*
X78816800Y-84192200D01*
X78816800Y-84915867D01*
X78826196Y-84912581D01*
X78895975Y-84909019D01*
X78956602Y-84943747D01*
X78988830Y-85005741D01*
X78991151Y-85029622D01*
X78991151Y-86938894D01*
X78971466Y-87005933D01*
X78954832Y-87026575D01*
X77087122Y-88894284D01*
X77087120Y-88894287D01*
X77051340Y-88956260D01*
X77034393Y-88985612D01*
X77022483Y-89030062D01*
X77022483Y-89030063D01*
X77022482Y-89030062D01*
X77007100Y-89087471D01*
X77007100Y-90624745D01*
X76987415Y-90691784D01*
X76970781Y-90712426D01*
X76776426Y-90906781D01*
X76715103Y-90940266D01*
X76688745Y-90943100D01*
X74583255Y-90943100D01*
X74516216Y-90923415D01*
X74495574Y-90906781D01*
X74474002Y-90885209D01*
X74440517Y-90823886D01*
X74438744Y-90813713D01*
X74438281Y-90810198D01*
X74417644Y-90653438D01*
X74357136Y-90507359D01*
X74260882Y-90381918D01*
X74135441Y-90285664D01*
X74074926Y-90260598D01*
X73989362Y-90225156D01*
X73989360Y-90225155D01*
X73832601Y-90204518D01*
X73832599Y-90204518D01*
X73675839Y-90225155D01*
X73675837Y-90225156D01*
X73529760Y-90285663D01*
X73404318Y-90381918D01*
X73308063Y-90507360D01*
X73247556Y-90653437D01*
X73247555Y-90653439D01*
X73226918Y-90810198D01*
X73226918Y-90810201D01*
X73247555Y-90966960D01*
X73247556Y-90966962D01*
X73308064Y-91113041D01*
X73404318Y-91238482D01*
X73529759Y-91334736D01*
X73675838Y-91395244D01*
X73832600Y-91415882D01*
X73832601Y-91415881D01*
X73836113Y-91416344D01*
X73900010Y-91444610D01*
X73907599Y-91451592D01*
X74041189Y-91585181D01*
X74041199Y-91585192D01*
X74045519Y-91589512D01*
X74045520Y-91589513D01*
X74120087Y-91664080D01*
X74211413Y-91716807D01*
X74313274Y-91744101D01*
X74313277Y-91744101D01*
X74426323Y-91744101D01*
X74426339Y-91744100D01*
X76958725Y-91744100D01*
X76958727Y-91744100D01*
X77060588Y-91716807D01*
X77151913Y-91664080D01*
X77643306Y-91172684D01*
X77643311Y-91172681D01*
X77653511Y-91162480D01*
X77653513Y-91162480D01*
X77728080Y-91087913D01*
X77780807Y-90996587D01*
X77788745Y-90966962D01*
X77808101Y-90894726D01*
X77808101Y-90789273D01*
X77808101Y-90781678D01*
X77808100Y-90781660D01*
X77808100Y-89966800D01*
X82628553Y-89966800D01*
X82649034Y-90109256D01*
X82692540Y-90204518D01*
X82708823Y-90240173D01*
X82803072Y-90348943D01*
X82924147Y-90426753D01*
X82924150Y-90426754D01*
X82924149Y-90426754D01*
X83062236Y-90467299D01*
X83062238Y-90467300D01*
X83062239Y-90467300D01*
X83206162Y-90467300D01*
X83206162Y-90467299D01*
X83344253Y-90426753D01*
X83465328Y-90348943D01*
X83559577Y-90240173D01*
X83619365Y-90109257D01*
X83639847Y-89966800D01*
X83619365Y-89824343D01*
X83559577Y-89693427D01*
X83465328Y-89584657D01*
X83344253Y-89506847D01*
X83344251Y-89506846D01*
X83344249Y-89506845D01*
X83344250Y-89506845D01*
X83206163Y-89466300D01*
X83206161Y-89466300D01*
X83062239Y-89466300D01*
X83062236Y-89466300D01*
X82924149Y-89506845D01*
X82803073Y-89584656D01*
X82708823Y-89693426D01*
X82708822Y-89693428D01*
X82649034Y-89824343D01*
X82628553Y-89966800D01*
X77808100Y-89966800D01*
X77808100Y-89357454D01*
X77827785Y-89290415D01*
X77844415Y-89269777D01*
X78365648Y-88748543D01*
X78426969Y-88715060D01*
X78496660Y-88720044D01*
X78552594Y-88761915D01*
X78567888Y-88788774D01*
X78571062Y-88796438D01*
X78571063Y-88796439D01*
X78571064Y-88796441D01*
X78667318Y-88921882D01*
X78792759Y-89018136D01*
X78938838Y-89078644D01*
X78996141Y-89086188D01*
X79095599Y-89099282D01*
X79095600Y-89099282D01*
X79095601Y-89099282D01*
X79165451Y-89090086D01*
X79252362Y-89078644D01*
X79398441Y-89018136D01*
X79523882Y-88921882D01*
X79526090Y-88919004D01*
X79527159Y-88917612D01*
X79583587Y-88876410D01*
X79625533Y-88869100D01*
X79988067Y-88869100D01*
X80055106Y-88888785D01*
X80086441Y-88917612D01*
X80088892Y-88920806D01*
X80089718Y-88921882D01*
X80215159Y-89018136D01*
X80361238Y-89078644D01*
X80418541Y-89086188D01*
X80517999Y-89099282D01*
X80518000Y-89099282D01*
X80518001Y-89099282D01*
X80587851Y-89090086D01*
X80674762Y-89078644D01*
X80820841Y-89018136D01*
X80946282Y-88921882D01*
X81042536Y-88796441D01*
X81103044Y-88650362D01*
X81114539Y-88563045D01*
X81142805Y-88499149D01*
X81201130Y-88460678D01*
X81270994Y-88459847D01*
X81272412Y-88460254D01*
X81360436Y-88486099D01*
X81360438Y-88486100D01*
X81360439Y-88486100D01*
X81504362Y-88486100D01*
X81504362Y-88486099D01*
X81618456Y-88452599D01*
X81642450Y-88445554D01*
X81642450Y-88445553D01*
X81642453Y-88445553D01*
X81763528Y-88367743D01*
X81857777Y-88258973D01*
X81917565Y-88128057D01*
X81927909Y-88056102D01*
X81956933Y-87992549D01*
X81962951Y-87986084D01*
X82672674Y-87276363D01*
X82672675Y-87276362D01*
X82722110Y-87190738D01*
X82742143Y-87115973D01*
X82747700Y-87095236D01*
X82747700Y-86996364D01*
X82747700Y-86897099D01*
X82767385Y-86830060D01*
X82784019Y-86809418D01*
X83084151Y-86509286D01*
X83409275Y-86184162D01*
X83458711Y-86098537D01*
X83484300Y-86003036D01*
X83484300Y-85904164D01*
X83484300Y-85777165D01*
X83484300Y-84394873D01*
X83503985Y-84327834D01*
X83520619Y-84307192D01*
X83799192Y-84028619D01*
X83860515Y-83995134D01*
X83886873Y-83992300D01*
X85901435Y-83992300D01*
X85901436Y-83992300D01*
X85949186Y-83979505D01*
X85996938Y-83966710D01*
X86082562Y-83917275D01*
X86152475Y-83847362D01*
X86177874Y-83821963D01*
X86177873Y-83821963D01*
X86502961Y-83496874D01*
X86564282Y-83463391D01*
X86605397Y-83463608D01*
X86605625Y-83461589D01*
X86791796Y-83482565D01*
X86791800Y-83482565D01*
X86791804Y-83482565D01*
X86971049Y-83462369D01*
X86971052Y-83462368D01*
X86971055Y-83462368D01*
X87141322Y-83402789D01*
X87203040Y-83364009D01*
X87270277Y-83345008D01*
X87337112Y-83365375D01*
X87382327Y-83418643D01*
X87393013Y-83469002D01*
X87393013Y-93876080D01*
X87392697Y-93884927D01*
X87378381Y-94085065D01*
X87375863Y-94102577D01*
X87334155Y-94294299D01*
X87329171Y-94311273D01*
X87260601Y-94495117D01*
X87253251Y-94511211D01*
X87237337Y-94540354D01*
X87159218Y-94683418D01*
X87149653Y-94698300D01*
X87032070Y-94855373D01*
X87020484Y-94868744D01*
X86881744Y-95007484D01*
X86868373Y-95019070D01*
X86711300Y-95136653D01*
X86696418Y-95146218D01*
X86524212Y-95240251D01*
X86508117Y-95247601D01*
X86324273Y-95316171D01*
X86307299Y-95321155D01*
X86115577Y-95362863D01*
X86098065Y-95365381D01*
X85897928Y-95379697D01*
X85889081Y-95380013D01*
X78987013Y-95380013D01*
X78759518Y-95380012D01*
X78759517Y-95380012D01*
X78759511Y-95380012D01*
X78470951Y-95403922D01*
X78306056Y-95417585D01*
X77857263Y-95492475D01*
X77857259Y-95492476D01*
X77699488Y-95532428D01*
X77416178Y-95604172D01*
X77416172Y-95604173D01*
X77416164Y-95604176D01*
X76985822Y-95751913D01*
X76569146Y-95934684D01*
X76569127Y-95934693D01*
X76168982Y-96151240D01*
X75788056Y-96400112D01*
X75788042Y-96400122D01*
X75429010Y-96679568D01*
X75429001Y-96679576D01*
X75094241Y-96987742D01*
X74786075Y-97322501D01*
X74786067Y-97322510D01*
X74506621Y-97681543D01*
X74506611Y-97681557D01*
X74257739Y-98062483D01*
X74041192Y-98462628D01*
X74041183Y-98462647D01*
X73858412Y-98879323D01*
X73710676Y-99309665D01*
X73710673Y-99309673D01*
X73710672Y-99309679D01*
X73640194Y-99587994D01*
X73598976Y-99750760D01*
X73598975Y-99750764D01*
X73524085Y-100199557D01*
X73516583Y-100290102D01*
X73486512Y-100653012D01*
X73486512Y-100653018D01*
X73486512Y-100653019D01*
X73486513Y-100814620D01*
X73486513Y-103773981D01*
X73486197Y-103782828D01*
X73471881Y-103982966D01*
X73469363Y-104000478D01*
X73427655Y-104192199D01*
X73422671Y-104209173D01*
X73354101Y-104393017D01*
X73346751Y-104409111D01*
X73252720Y-104581314D01*
X73243155Y-104596197D01*
X73125568Y-104753275D01*
X73113982Y-104766646D01*
X72975246Y-104905382D01*
X72961875Y-104916968D01*
X72804797Y-105034555D01*
X72789914Y-105044120D01*
X72617711Y-105138151D01*
X72601617Y-105145501D01*
X72417773Y-105214071D01*
X72400799Y-105219055D01*
X72209078Y-105260763D01*
X72191566Y-105263281D01*
X71991429Y-105277597D01*
X71982582Y-105277913D01*
X58220511Y-105277913D01*
X58220495Y-105277912D01*
X58151435Y-105277912D01*
X58142590Y-105277596D01*
X57942449Y-105263283D01*
X57924937Y-105260765D01*
X57733216Y-105219060D01*
X57716240Y-105214076D01*
X57532399Y-105145508D01*
X57516306Y-105138159D01*
X57344095Y-105044126D01*
X57329212Y-105034561D01*
X57172135Y-104916977D01*
X57158763Y-104905391D01*
X57020020Y-104766650D01*
X57008434Y-104753279D01*
X56890850Y-104596206D01*
X56881285Y-104581323D01*
X56849812Y-104523686D01*
X56787246Y-104409107D01*
X56779899Y-104393019D01*
X56779898Y-104393017D01*
X56711328Y-104209173D01*
X56706345Y-104192202D01*
X56697567Y-104151852D01*
X56664635Y-104000475D01*
X56662118Y-103982966D01*
X56647829Y-103783189D01*
X56647513Y-103774343D01*
X56647513Y-100806605D01*
X56647487Y-100806212D01*
X56647487Y-100755005D01*
X56647488Y-100690201D01*
X57562472Y-100690201D01*
X57582145Y-100902511D01*
X57635576Y-101090300D01*
X57640497Y-101107593D01*
X57640497Y-101107595D01*
X57735533Y-101298454D01*
X57735535Y-101298456D01*
X57864029Y-101468608D01*
X58021599Y-101612253D01*
X58202882Y-101724499D01*
X58401703Y-101801522D01*
X58598514Y-101838312D01*
X58660794Y-101869980D01*
X58696067Y-101930293D01*
X58693133Y-102000101D01*
X58652924Y-102057241D01*
X58598514Y-102082089D01*
X58401703Y-102118880D01*
X58401700Y-102118880D01*
X58401700Y-102118881D01*
X58202883Y-102195902D01*
X58202881Y-102195903D01*
X58021600Y-102308148D01*
X57864028Y-102451794D01*
X57735533Y-102621947D01*
X57640497Y-102812806D01*
X57640497Y-102812808D01*
X57582145Y-103017890D01*
X57568572Y-103164375D01*
X57562472Y-103230201D01*
X57582145Y-103442511D01*
X57635576Y-103630300D01*
X57640497Y-103647593D01*
X57640497Y-103647595D01*
X57735533Y-103838454D01*
X57735535Y-103838456D01*
X57864029Y-104008608D01*
X58021599Y-104152253D01*
X58202882Y-104264499D01*
X58401703Y-104341522D01*
X58611291Y-104380701D01*
X58611293Y-104380701D01*
X58824509Y-104380701D01*
X58824511Y-104380701D01*
X59034099Y-104341522D01*
X59232920Y-104264499D01*
X59414203Y-104152253D01*
X59571773Y-104008608D01*
X59700267Y-103838456D01*
X59700399Y-103838190D01*
X59754171Y-103730201D01*
X60222189Y-103730201D01*
X60275960Y-103838190D01*
X60404401Y-104008272D01*
X60561901Y-104151852D01*
X60561903Y-104151854D01*
X60743103Y-104264048D01*
X60743105Y-104264049D01*
X60757901Y-104269780D01*
X60757901Y-104269779D01*
X61757901Y-104269779D01*
X61772696Y-104264049D01*
X61772698Y-104264048D01*
X61953898Y-104151854D01*
X61953900Y-104151852D01*
X62111400Y-104008272D01*
X62239841Y-103838190D01*
X62293613Y-103730201D01*
X61757901Y-103730201D01*
X61757901Y-104269779D01*
X60757901Y-104269779D01*
X60757901Y-103730201D01*
X60222189Y-103730201D01*
X59754171Y-103730201D01*
X59795304Y-103647595D01*
X59795304Y-103647594D01*
X59795306Y-103647590D01*
X59853657Y-103442511D01*
X59873330Y-103230201D01*
X59853657Y-103017891D01*
X59795306Y-102812812D01*
X59795304Y-102812807D01*
X59795304Y-102812806D01*
X59754171Y-102730200D01*
X60222188Y-102730200D01*
X60222189Y-102730201D01*
X61192075Y-102730201D01*
X61064908Y-102764276D01*
X60950894Y-102830102D01*
X60857802Y-102923194D01*
X60791976Y-103037208D01*
X60757901Y-103164375D01*
X60757901Y-103296027D01*
X60791976Y-103423194D01*
X60857802Y-103537208D01*
X60950894Y-103630300D01*
X61064908Y-103696126D01*
X61192075Y-103730201D01*
X61323727Y-103730201D01*
X61450894Y-103696126D01*
X61564908Y-103630300D01*
X61658000Y-103537208D01*
X61723826Y-103423194D01*
X61757901Y-103296027D01*
X61757901Y-103164375D01*
X61723826Y-103037208D01*
X61658000Y-102923194D01*
X61564908Y-102830102D01*
X61450894Y-102764276D01*
X61323727Y-102730201D01*
X62293613Y-102730201D01*
X62293613Y-102730200D01*
X62239841Y-102622211D01*
X62111400Y-102452129D01*
X61953900Y-102308549D01*
X61953898Y-102308547D01*
X61772699Y-102196354D01*
X61772690Y-102196350D01*
X61573964Y-102119364D01*
X61573959Y-102119363D01*
X61374567Y-102082090D01*
X61312286Y-102050422D01*
X61277013Y-101990109D01*
X61279947Y-101920301D01*
X61320156Y-101863161D01*
X61374567Y-101838312D01*
X61573959Y-101801038D01*
X61573964Y-101801037D01*
X61772690Y-101724051D01*
X61772699Y-101724047D01*
X61953898Y-101611854D01*
X61953900Y-101611852D01*
X62111400Y-101468272D01*
X62239841Y-101298190D01*
X62293613Y-101190201D01*
X61323727Y-101190201D01*
X61450894Y-101156126D01*
X61564908Y-101090300D01*
X61658000Y-100997208D01*
X61723826Y-100883194D01*
X61757901Y-100756027D01*
X61757901Y-100690201D01*
X62642472Y-100690201D01*
X62662145Y-100902511D01*
X62715576Y-101090300D01*
X62720497Y-101107593D01*
X62720497Y-101107595D01*
X62815533Y-101298454D01*
X62815535Y-101298456D01*
X62944029Y-101468608D01*
X63101599Y-101612253D01*
X63282882Y-101724499D01*
X63481703Y-101801522D01*
X63678514Y-101838312D01*
X63740794Y-101869980D01*
X63776067Y-101930293D01*
X63773133Y-102000101D01*
X63732924Y-102057241D01*
X63678514Y-102082089D01*
X63481703Y-102118880D01*
X63481700Y-102118880D01*
X63481700Y-102118881D01*
X63282883Y-102195902D01*
X63282881Y-102195903D01*
X63101600Y-102308148D01*
X62944028Y-102451794D01*
X62815533Y-102621947D01*
X62720497Y-102812806D01*
X62720497Y-102812808D01*
X62662145Y-103017890D01*
X62648572Y-103164375D01*
X62642472Y-103230201D01*
X62662145Y-103442511D01*
X62715576Y-103630300D01*
X62720497Y-103647593D01*
X62720497Y-103647595D01*
X62815533Y-103838454D01*
X62815535Y-103838456D01*
X62944029Y-104008608D01*
X63101599Y-104152253D01*
X63282882Y-104264499D01*
X63481703Y-104341522D01*
X63691291Y-104380701D01*
X63691293Y-104380701D01*
X63904509Y-104380701D01*
X63904511Y-104380701D01*
X64114099Y-104341522D01*
X64312920Y-104264499D01*
X64494203Y-104152253D01*
X64651773Y-104008608D01*
X64780267Y-103838456D01*
X64780399Y-103838190D01*
X64834171Y-103730201D01*
X65302189Y-103730201D01*
X65355960Y-103838190D01*
X65484401Y-104008272D01*
X65641901Y-104151852D01*
X65641903Y-104151854D01*
X65823103Y-104264048D01*
X65823105Y-104264049D01*
X65837901Y-104269780D01*
X65837901Y-104269779D01*
X66837901Y-104269779D01*
X66852696Y-104264049D01*
X66852698Y-104264048D01*
X67033898Y-104151854D01*
X67033900Y-104151852D01*
X67191400Y-104008272D01*
X67319841Y-103838190D01*
X67373613Y-103730201D01*
X66837901Y-103730201D01*
X66837901Y-104269779D01*
X65837901Y-104269779D01*
X65837901Y-103730201D01*
X65302189Y-103730201D01*
X64834171Y-103730201D01*
X64875304Y-103647595D01*
X64875304Y-103647594D01*
X64875306Y-103647590D01*
X64933657Y-103442511D01*
X64953330Y-103230201D01*
X64933657Y-103017891D01*
X64875306Y-102812812D01*
X64875304Y-102812807D01*
X64875304Y-102812806D01*
X64780268Y-102621947D01*
X64651773Y-102451794D01*
X64494203Y-102308149D01*
X64312920Y-102195903D01*
X64312918Y-102195902D01*
X64115348Y-102119364D01*
X64114099Y-102118880D01*
X63917286Y-102082089D01*
X63855007Y-102050422D01*
X63819734Y-101990109D01*
X63822668Y-101920301D01*
X63862877Y-101863161D01*
X63917285Y-101838312D01*
X64114099Y-101801522D01*
X64312920Y-101724499D01*
X64494203Y-101612253D01*
X64651773Y-101468608D01*
X64780267Y-101298456D01*
X64839751Y-101178995D01*
X64875304Y-101107595D01*
X64875304Y-101107594D01*
X64875306Y-101107590D01*
X64933657Y-100902511D01*
X64944430Y-100786248D01*
X64970216Y-100721312D01*
X65012523Y-100691005D01*
X65121031Y-100691005D01*
X65157404Y-100711869D01*
X65189594Y-100773882D01*
X65191371Y-100786248D01*
X65202145Y-100902511D01*
X65255576Y-101090300D01*
X65260497Y-101107593D01*
X65260497Y-101107595D01*
X65355533Y-101298454D01*
X65355535Y-101298456D01*
X65484029Y-101468608D01*
X65641599Y-101612253D01*
X65822882Y-101724499D01*
X66021703Y-101801522D01*
X66219874Y-101838566D01*
X66282154Y-101870234D01*
X66317427Y-101930547D01*
X66314493Y-102000355D01*
X66274284Y-102057495D01*
X66219873Y-102082344D01*
X66021842Y-102119363D01*
X66021837Y-102119364D01*
X65823111Y-102196350D01*
X65823102Y-102196354D01*
X65641903Y-102308547D01*
X65641901Y-102308549D01*
X65484401Y-102452129D01*
X65355960Y-102622211D01*
X65302188Y-102730200D01*
X65302189Y-102730201D01*
X66272075Y-102730201D01*
X66144908Y-102764276D01*
X66030894Y-102830102D01*
X65937802Y-102923194D01*
X65871976Y-103037208D01*
X65837901Y-103164375D01*
X65837901Y-103296027D01*
X65871976Y-103423194D01*
X65937802Y-103537208D01*
X66030894Y-103630300D01*
X66144908Y-103696126D01*
X66272075Y-103730201D01*
X66403727Y-103730201D01*
X66530894Y-103696126D01*
X66644908Y-103630300D01*
X66738000Y-103537208D01*
X66803826Y-103423194D01*
X66837901Y-103296027D01*
X66837901Y-103230201D01*
X67722472Y-103230201D01*
X67742145Y-103442511D01*
X67795576Y-103630300D01*
X67800497Y-103647593D01*
X67800497Y-103647595D01*
X67895533Y-103838454D01*
X67895535Y-103838456D01*
X68024029Y-104008608D01*
X68181599Y-104152253D01*
X68362882Y-104264499D01*
X68561703Y-104341522D01*
X68771291Y-104380701D01*
X68771293Y-104380701D01*
X68984509Y-104380701D01*
X68984511Y-104380701D01*
X69194099Y-104341522D01*
X69392920Y-104264499D01*
X69574203Y-104152253D01*
X69731773Y-104008608D01*
X69860267Y-103838456D01*
X69860399Y-103838190D01*
X69955304Y-103647595D01*
X69955304Y-103647594D01*
X69955306Y-103647590D01*
X70013657Y-103442511D01*
X70024430Y-103326248D01*
X70050216Y-103261312D01*
X70094770Y-103229395D01*
X70058398Y-103208532D01*
X70026208Y-103146519D01*
X70024430Y-103134152D01*
X70023750Y-103126814D01*
X70013657Y-103017891D01*
X69955306Y-102812812D01*
X69955304Y-102812807D01*
X69955304Y-102812806D01*
X69860268Y-102621947D01*
X69731773Y-102451794D01*
X69574203Y-102308149D01*
X69392920Y-102195903D01*
X69392918Y-102195902D01*
X69194102Y-102118881D01*
X69194101Y-102118880D01*
X69194099Y-102118880D01*
X68995927Y-102081835D01*
X68933647Y-102050166D01*
X68898374Y-101989854D01*
X68901308Y-101920046D01*
X68941517Y-101862906D01*
X68995928Y-101838057D01*
X69193959Y-101801038D01*
X69193964Y-101801037D01*
X69392690Y-101724051D01*
X69392699Y-101724047D01*
X69573898Y-101611854D01*
X69573900Y-101611852D01*
X69731400Y-101468272D01*
X69859841Y-101298190D01*
X69954834Y-101107417D01*
X69954842Y-101107397D01*
X70013162Y-100902420D01*
X70013163Y-100902416D01*
X70019930Y-100829386D01*
X70045716Y-100764448D01*
X70102516Y-100723760D01*
X70172297Y-100720240D01*
X70232904Y-100755005D01*
X70265094Y-100817017D01*
X70267401Y-100840826D01*
X70267401Y-101585057D01*
X70267403Y-101585083D01*
X70270314Y-101610188D01*
X70270316Y-101610192D01*
X70315694Y-101712965D01*
X70315695Y-101712966D01*
X70395136Y-101792407D01*
X70497910Y-101837786D01*
X70523036Y-101840701D01*
X71251659Y-101840700D01*
X71318696Y-101860384D01*
X71364451Y-101913188D01*
X71374395Y-101982347D01*
X71345370Y-102045903D01*
X71286592Y-102083677D01*
X71274443Y-102086589D01*
X71218017Y-102097136D01*
X71101703Y-102118880D01*
X71101701Y-102118880D01*
X71101699Y-102118881D01*
X70902883Y-102195902D01*
X70902881Y-102195903D01*
X70721600Y-102308148D01*
X70564028Y-102451794D01*
X70435533Y-102621947D01*
X70340497Y-102812806D01*
X70340497Y-102812808D01*
X70282145Y-103017890D01*
X70271372Y-103134152D01*
X70245586Y-103199089D01*
X70201031Y-103231005D01*
X70237404Y-103251869D01*
X70269594Y-103313882D01*
X70271371Y-103326248D01*
X70282145Y-103442511D01*
X70335576Y-103630300D01*
X70340497Y-103647593D01*
X70340497Y-103647595D01*
X70435533Y-103838454D01*
X70435535Y-103838456D01*
X70564029Y-104008608D01*
X70721599Y-104152253D01*
X70902882Y-104264499D01*
X71101703Y-104341522D01*
X71311291Y-104380701D01*
X71311293Y-104380701D01*
X71524509Y-104380701D01*
X71524511Y-104380701D01*
X71734099Y-104341522D01*
X71932920Y-104264499D01*
X72114203Y-104152253D01*
X72271773Y-104008608D01*
X72400267Y-103838456D01*
X72400399Y-103838190D01*
X72495304Y-103647595D01*
X72495304Y-103647594D01*
X72495306Y-103647590D01*
X72553657Y-103442511D01*
X72573330Y-103230201D01*
X72553657Y-103017891D01*
X72495306Y-102812812D01*
X72495304Y-102812807D01*
X72495304Y-102812806D01*
X72400268Y-102621947D01*
X72271773Y-102451794D01*
X72114203Y-102308149D01*
X71932920Y-102195903D01*
X71932918Y-102195902D01*
X71735348Y-102119364D01*
X71734099Y-102118880D01*
X71561357Y-102086588D01*
X71499077Y-102054920D01*
X71463804Y-101994608D01*
X71466738Y-101924800D01*
X71506947Y-101867660D01*
X71571665Y-101841329D01*
X71584134Y-101840700D01*
X72312765Y-101840700D01*
X72312780Y-101840698D01*
X72312783Y-101840698D01*
X72337888Y-101837787D01*
X72337889Y-101837786D01*
X72337892Y-101837786D01*
X72440666Y-101792407D01*
X72520107Y-101712966D01*
X72565486Y-101610192D01*
X72568401Y-101585066D01*
X72568400Y-99795337D01*
X72568398Y-99795318D01*
X72565487Y-99770213D01*
X72565486Y-99770211D01*
X72565486Y-99770210D01*
X72520107Y-99667436D01*
X72440666Y-99587995D01*
X72420025Y-99578881D01*
X72337893Y-99542616D01*
X72312766Y-99539701D01*
X70523044Y-99539701D01*
X70523018Y-99539703D01*
X70497913Y-99542614D01*
X70497909Y-99542616D01*
X70395136Y-99587994D01*
X70315695Y-99667435D01*
X70270316Y-99770207D01*
X70270316Y-99770209D01*
X70267401Y-99795332D01*
X70267401Y-100539573D01*
X70247716Y-100606612D01*
X70194912Y-100652367D01*
X70125754Y-100662311D01*
X70062198Y-100633286D01*
X70024424Y-100574508D01*
X70019930Y-100551014D01*
X70013163Y-100477984D01*
X70013162Y-100477981D01*
X69954842Y-100273004D01*
X69954834Y-100272984D01*
X69859841Y-100082211D01*
X69731400Y-99912129D01*
X69573900Y-99768549D01*
X69573898Y-99768547D01*
X69392702Y-99656356D01*
X69392694Y-99656352D01*
X69377901Y-99650620D01*
X69377901Y-100624375D01*
X69343826Y-100497208D01*
X69278000Y-100383194D01*
X69184908Y-100290102D01*
X69070894Y-100224276D01*
X68943727Y-100190201D01*
X68812075Y-100190201D01*
X68684908Y-100224276D01*
X68570894Y-100290102D01*
X68477802Y-100383194D01*
X68411976Y-100497208D01*
X68377901Y-100624375D01*
X68377901Y-100756027D01*
X68411976Y-100883194D01*
X68477802Y-100997208D01*
X68570894Y-101090300D01*
X68684908Y-101156126D01*
X68812075Y-101190201D01*
X67842189Y-101190201D01*
X67895960Y-101298190D01*
X68024401Y-101468272D01*
X68181901Y-101611852D01*
X68181903Y-101611854D01*
X68363102Y-101724047D01*
X68363111Y-101724051D01*
X68561837Y-101801037D01*
X68561842Y-101801038D01*
X68759873Y-101838057D01*
X68822154Y-101869725D01*
X68857427Y-101930037D01*
X68854493Y-101999846D01*
X68814284Y-102056986D01*
X68759874Y-102081835D01*
X68667833Y-102099040D01*
X68561703Y-102118880D01*
X68561701Y-102118880D01*
X68561699Y-102118881D01*
X68362883Y-102195902D01*
X68362881Y-102195903D01*
X68181600Y-102308148D01*
X68024028Y-102451794D01*
X67895533Y-102621947D01*
X67800497Y-102812806D01*
X67800497Y-102812808D01*
X67742145Y-103017890D01*
X67728572Y-103164375D01*
X67722472Y-103230201D01*
X66837901Y-103230201D01*
X66837901Y-103164375D01*
X66803826Y-103037208D01*
X66738000Y-102923194D01*
X66644908Y-102830102D01*
X66530894Y-102764276D01*
X66403727Y-102730201D01*
X67373613Y-102730201D01*
X67373613Y-102730200D01*
X67319841Y-102622211D01*
X67191400Y-102452129D01*
X67033900Y-102308549D01*
X67033898Y-102308547D01*
X66852699Y-102196354D01*
X66852690Y-102196350D01*
X66653964Y-102119364D01*
X66653959Y-102119363D01*
X66455928Y-102082344D01*
X66393647Y-102050676D01*
X66358374Y-101990363D01*
X66361308Y-101920555D01*
X66401517Y-101863415D01*
X66455925Y-101838567D01*
X66654099Y-101801522D01*
X66852920Y-101724499D01*
X67034203Y-101612253D01*
X67191773Y-101468608D01*
X67320267Y-101298456D01*
X67379751Y-101178995D01*
X67415304Y-101107595D01*
X67415304Y-101107594D01*
X67415306Y-101107590D01*
X67473657Y-100902511D01*
X67493330Y-100690201D01*
X67473657Y-100477891D01*
X67415306Y-100272812D01*
X67415304Y-100272807D01*
X67415304Y-100272806D01*
X67374171Y-100190200D01*
X67842188Y-100190200D01*
X67842189Y-100190201D01*
X68377901Y-100190201D01*
X68377901Y-99650621D01*
X68377900Y-99650620D01*
X68363107Y-99656352D01*
X68363099Y-99656356D01*
X68181903Y-99768547D01*
X68181901Y-99768549D01*
X68024401Y-99912129D01*
X67895960Y-100082211D01*
X67842188Y-100190200D01*
X67374171Y-100190200D01*
X67320268Y-100081947D01*
X67191773Y-99911794D01*
X67064034Y-99795344D01*
X67034203Y-99768149D01*
X66852920Y-99655903D01*
X66852918Y-99655902D01*
X66753509Y-99617391D01*
X66654099Y-99578880D01*
X66444511Y-99539701D01*
X66231291Y-99539701D01*
X66021703Y-99578880D01*
X66021700Y-99578880D01*
X66021700Y-99578881D01*
X65822883Y-99655902D01*
X65822881Y-99655903D01*
X65641600Y-99768148D01*
X65484028Y-99911794D01*
X65355533Y-100081947D01*
X65260497Y-100272806D01*
X65260497Y-100272808D01*
X65202145Y-100477890D01*
X65191372Y-100594152D01*
X65165586Y-100659089D01*
X65121031Y-100691005D01*
X65012523Y-100691005D01*
X65014770Y-100689395D01*
X64978398Y-100668532D01*
X64946208Y-100606519D01*
X64944430Y-100594152D01*
X64942610Y-100574508D01*
X64933657Y-100477891D01*
X64875306Y-100272812D01*
X64875304Y-100272807D01*
X64875304Y-100272806D01*
X64780268Y-100081947D01*
X64651773Y-99911794D01*
X64524034Y-99795344D01*
X64494203Y-99768149D01*
X64312920Y-99655903D01*
X64312918Y-99655902D01*
X64213509Y-99617391D01*
X64114099Y-99578880D01*
X63904511Y-99539701D01*
X63691291Y-99539701D01*
X63481703Y-99578880D01*
X63481700Y-99578880D01*
X63481700Y-99578881D01*
X63282883Y-99655902D01*
X63282881Y-99655903D01*
X63101600Y-99768148D01*
X62944028Y-99911794D01*
X62815533Y-100081947D01*
X62720497Y-100272806D01*
X62720497Y-100272808D01*
X62662145Y-100477890D01*
X62648572Y-100624375D01*
X62642472Y-100690201D01*
X61757901Y-100690201D01*
X61757901Y-100624375D01*
X61723826Y-100497208D01*
X61658000Y-100383194D01*
X61564908Y-100290102D01*
X61450894Y-100224276D01*
X61323727Y-100190201D01*
X61757901Y-100190201D01*
X62293613Y-100190201D01*
X62293613Y-100190200D01*
X62239841Y-100082211D01*
X62111400Y-99912129D01*
X61953900Y-99768549D01*
X61953898Y-99768547D01*
X61772702Y-99656356D01*
X61772694Y-99656352D01*
X61757901Y-99650620D01*
X61757901Y-100190201D01*
X61323727Y-100190201D01*
X61192075Y-100190201D01*
X61064908Y-100224276D01*
X60950894Y-100290102D01*
X60857802Y-100383194D01*
X60791976Y-100497208D01*
X60757901Y-100624375D01*
X60757901Y-100756027D01*
X60791976Y-100883194D01*
X60857802Y-100997208D01*
X60950894Y-101090300D01*
X61064908Y-101156126D01*
X61192075Y-101190201D01*
X60222189Y-101190201D01*
X60275960Y-101298190D01*
X60404401Y-101468272D01*
X60561901Y-101611852D01*
X60561903Y-101611854D01*
X60743102Y-101724047D01*
X60743111Y-101724051D01*
X60941837Y-101801037D01*
X60941842Y-101801038D01*
X61141234Y-101838312D01*
X61203515Y-101869980D01*
X61238788Y-101930293D01*
X61235854Y-102000101D01*
X61195645Y-102057241D01*
X61141234Y-102082090D01*
X60941842Y-102119363D01*
X60941837Y-102119364D01*
X60743111Y-102196350D01*
X60743102Y-102196354D01*
X60561903Y-102308547D01*
X60561901Y-102308549D01*
X60404401Y-102452129D01*
X60275960Y-102622211D01*
X60222188Y-102730200D01*
X59754171Y-102730200D01*
X59700268Y-102621947D01*
X59571773Y-102451794D01*
X59414203Y-102308149D01*
X59232920Y-102195903D01*
X59232918Y-102195902D01*
X59035348Y-102119364D01*
X59034099Y-102118880D01*
X58837286Y-102082089D01*
X58775007Y-102050422D01*
X58739734Y-101990109D01*
X58742668Y-101920301D01*
X58782877Y-101863161D01*
X58837285Y-101838312D01*
X59034099Y-101801522D01*
X59232920Y-101724499D01*
X59414203Y-101612253D01*
X59571773Y-101468608D01*
X59700267Y-101298456D01*
X59759751Y-101178995D01*
X59795304Y-101107595D01*
X59795304Y-101107594D01*
X59795306Y-101107590D01*
X59853657Y-100902511D01*
X59873330Y-100690201D01*
X59853657Y-100477891D01*
X59795306Y-100272812D01*
X59795304Y-100272807D01*
X59795304Y-100272806D01*
X59754171Y-100190200D01*
X60222188Y-100190200D01*
X60222189Y-100190201D01*
X60757901Y-100190201D01*
X60757901Y-99650621D01*
X60757900Y-99650620D01*
X60743107Y-99656352D01*
X60743099Y-99656356D01*
X60561903Y-99768547D01*
X60561901Y-99768549D01*
X60404401Y-99912129D01*
X60275960Y-100082211D01*
X60222188Y-100190200D01*
X59754171Y-100190200D01*
X59700268Y-100081947D01*
X59571773Y-99911794D01*
X59444034Y-99795344D01*
X59414203Y-99768149D01*
X59232920Y-99655903D01*
X59232918Y-99655902D01*
X59133509Y-99617391D01*
X59034099Y-99578880D01*
X58824511Y-99539701D01*
X58611291Y-99539701D01*
X58401703Y-99578880D01*
X58401700Y-99578880D01*
X58401700Y-99578881D01*
X58202883Y-99655902D01*
X58202881Y-99655903D01*
X58021600Y-99768148D01*
X57864028Y-99911794D01*
X57735533Y-100081947D01*
X57640497Y-100272806D01*
X57640497Y-100272808D01*
X57582145Y-100477890D01*
X57568572Y-100624375D01*
X57562472Y-100690201D01*
X56647488Y-100690201D01*
X56647488Y-100653011D01*
X56609915Y-100199562D01*
X56535025Y-99750763D01*
X56423329Y-99309683D01*
X56423323Y-99309665D01*
X56275591Y-98879331D01*
X56198220Y-98702943D01*
X56092819Y-98462651D01*
X56092807Y-98462628D01*
X56016054Y-98320800D01*
X59895553Y-98320800D01*
X59916034Y-98463256D01*
X59975822Y-98594171D01*
X59975823Y-98594173D01*
X60070072Y-98702943D01*
X60191147Y-98780753D01*
X60191150Y-98780754D01*
X60191149Y-98780754D01*
X60329236Y-98821299D01*
X60329238Y-98821300D01*
X60329239Y-98821300D01*
X60473162Y-98821300D01*
X60473162Y-98821299D01*
X60611253Y-98780753D01*
X60732328Y-98702943D01*
X60826577Y-98594173D01*
X60886365Y-98463257D01*
X60906847Y-98320800D01*
X60886365Y-98178343D01*
X60826577Y-98047427D01*
X60732328Y-97938657D01*
X60611253Y-97860847D01*
X60611251Y-97860846D01*
X60611249Y-97860845D01*
X60611250Y-97860845D01*
X60473163Y-97820300D01*
X60473161Y-97820300D01*
X60329239Y-97820300D01*
X60329236Y-97820300D01*
X60191149Y-97860845D01*
X60070073Y-97938656D01*
X59975823Y-98047426D01*
X59975822Y-98047428D01*
X59916034Y-98178343D01*
X59895553Y-98320800D01*
X56016054Y-98320800D01*
X55876270Y-98062501D01*
X55876257Y-98062479D01*
X55627402Y-97681576D01*
X55627399Y-97681572D01*
X55347931Y-97322510D01*
X55217109Y-97180398D01*
X58112219Y-97180398D01*
X58112219Y-97180401D01*
X58132856Y-97337156D01*
X58132857Y-97337162D01*
X58154191Y-97388668D01*
X58193365Y-97483241D01*
X58289619Y-97608682D01*
X58415060Y-97704936D01*
X58561139Y-97765444D01*
X58639520Y-97775763D01*
X58717900Y-97786082D01*
X58717901Y-97786082D01*
X58717902Y-97786082D01*
X58770155Y-97779202D01*
X58874663Y-97765444D01*
X59020742Y-97704936D01*
X59146183Y-97608682D01*
X59242437Y-97483241D01*
X59302945Y-97337162D01*
X59304043Y-97328827D01*
X59323583Y-97180401D01*
X59323583Y-97180398D01*
X59302945Y-97023639D01*
X59302945Y-97023638D01*
X59242437Y-96877559D01*
X59146183Y-96752118D01*
X59020742Y-96655864D01*
X59012304Y-96652369D01*
X58874663Y-96595356D01*
X58874661Y-96595355D01*
X58717902Y-96574718D01*
X58717900Y-96574718D01*
X58561140Y-96595355D01*
X58561138Y-96595356D01*
X58415061Y-96655863D01*
X58289619Y-96752118D01*
X58193364Y-96877560D01*
X58132857Y-97023637D01*
X58132856Y-97023639D01*
X58112219Y-97180398D01*
X55217109Y-97180398D01*
X55039767Y-96987752D01*
X54705010Y-96679586D01*
X54596791Y-96595355D01*
X54345951Y-96400117D01*
X54246173Y-96334929D01*
X53965036Y-96151252D01*
X53564873Y-95934693D01*
X53148193Y-95751919D01*
X53148187Y-95751917D01*
X53148185Y-95751916D01*
X53148186Y-95751916D01*
X52717860Y-95604183D01*
X52717850Y-95604180D01*
X52717843Y-95604178D01*
X52394560Y-95522311D01*
X52276763Y-95492481D01*
X51827960Y-95417587D01*
X51827955Y-95417586D01*
X51374526Y-95380013D01*
X51374515Y-95380013D01*
X51212904Y-95380013D01*
X42875011Y-95380013D01*
X42874995Y-95380012D01*
X42805935Y-95380012D01*
X42797090Y-95379696D01*
X42596949Y-95365383D01*
X42579437Y-95362865D01*
X42387716Y-95321160D01*
X42370740Y-95316176D01*
X42186899Y-95247608D01*
X42170806Y-95240259D01*
X41998595Y-95146226D01*
X41983712Y-95136661D01*
X41826635Y-95019077D01*
X41813263Y-95007491D01*
X41714397Y-94908626D01*
X41674519Y-94868749D01*
X41662934Y-94855379D01*
X41660074Y-94851559D01*
X41545346Y-94698300D01*
X41535785Y-94683423D01*
X41507727Y-94632039D01*
X41441746Y-94511207D01*
X41434399Y-94495119D01*
X41434398Y-94495117D01*
X41365828Y-94311273D01*
X41360845Y-94294302D01*
X41360844Y-94294299D01*
X41319135Y-94102575D01*
X41316618Y-94085066D01*
X41315417Y-94068281D01*
X41304940Y-93921791D01*
X41302329Y-93885289D01*
X41302013Y-93876443D01*
X41302013Y-93248099D01*
X44022524Y-93248099D01*
X44033728Y-93276511D01*
X44123006Y-93394242D01*
X44240736Y-93483519D01*
X44240738Y-93483520D01*
X44331649Y-93519370D01*
X44331650Y-93519370D01*
X44331650Y-93248099D01*
X44022524Y-93248099D01*
X41302013Y-93248099D01*
X41302013Y-92298099D01*
X44022524Y-92298099D01*
X44331650Y-92298099D01*
X44331650Y-92026826D01*
X45281650Y-92026826D01*
X45281650Y-93519370D01*
X45372561Y-93483520D01*
X45372563Y-93483519D01*
X45490293Y-93394242D01*
X45570032Y-93289090D01*
X45626224Y-93247567D01*
X45695945Y-93243015D01*
X45757060Y-93276879D01*
X45767640Y-93289090D01*
X45847649Y-93394599D01*
X45948544Y-93471109D01*
X45965492Y-93483961D01*
X46103073Y-93538216D01*
X46160712Y-93545138D01*
X46189531Y-93548599D01*
X46189532Y-93548599D01*
X46873769Y-93548599D01*
X46895382Y-93546003D01*
X46960227Y-93538216D01*
X47097808Y-93483961D01*
X47163849Y-93433880D01*
X47229159Y-93409057D01*
X47297523Y-93423485D01*
X47326455Y-93445003D01*
X48057381Y-94175929D01*
X48090866Y-94237252D01*
X48093700Y-94263609D01*
X48093700Y-94438469D01*
X48093701Y-94438476D01*
X48100108Y-94498083D01*
X48150402Y-94632928D01*
X48150406Y-94632935D01*
X48236652Y-94748144D01*
X48236655Y-94748147D01*
X48351864Y-94834393D01*
X48351871Y-94834397D01*
X48366639Y-94839905D01*
X48486717Y-94884691D01*
X48546327Y-94891100D01*
X49192072Y-94891099D01*
X49251683Y-94884691D01*
X49386531Y-94834396D01*
X49501746Y-94748146D01*
X49539061Y-94698300D01*
X49582414Y-94640389D01*
X49638348Y-94598518D01*
X49681680Y-94590700D01*
X50590335Y-94590700D01*
X50657374Y-94610385D01*
X50689600Y-94640387D01*
X50751254Y-94722746D01*
X50785181Y-94748144D01*
X50866464Y-94808993D01*
X50866471Y-94808997D01*
X50903745Y-94822899D01*
X51001317Y-94859291D01*
X51060927Y-94865700D01*
X51706672Y-94865699D01*
X51766283Y-94859291D01*
X51901131Y-94808996D01*
X51978581Y-94751016D01*
X52044044Y-94726599D01*
X52112318Y-94741450D01*
X52161723Y-94790855D01*
X52168246Y-94804793D01*
X52186686Y-94851553D01*
X52186689Y-94851559D01*
X52276049Y-94969399D01*
X52358362Y-95031818D01*
X52393892Y-95058761D01*
X52531473Y-95113016D01*
X52589112Y-95119938D01*
X52617931Y-95123399D01*
X52617932Y-95123399D01*
X53302169Y-95123399D01*
X53323782Y-95120803D01*
X53388627Y-95113016D01*
X53526208Y-95058761D01*
X53644050Y-94969399D01*
X53690130Y-94908634D01*
X53724059Y-94863891D01*
X53780251Y-94822367D01*
X53849972Y-94817815D01*
X53911086Y-94851679D01*
X53921667Y-94863890D01*
X54001406Y-94969042D01*
X54119136Y-95058319D01*
X54119138Y-95058320D01*
X54210049Y-95094170D01*
X54210050Y-95094170D01*
X55160050Y-95094170D01*
X55250961Y-95058320D01*
X55250963Y-95058319D01*
X55368693Y-94969042D01*
X55457971Y-94851311D01*
X55469176Y-94822899D01*
X55160050Y-94822899D01*
X55160050Y-95094170D01*
X54210050Y-95094170D01*
X54210050Y-93872899D01*
X55160050Y-93872899D01*
X55469175Y-93872899D01*
X55457971Y-93844486D01*
X55368693Y-93726755D01*
X55250962Y-93637477D01*
X55160050Y-93601626D01*
X55160050Y-93872899D01*
X54210050Y-93872899D01*
X54210050Y-93601626D01*
X54119137Y-93637477D01*
X54001405Y-93726756D01*
X53921666Y-93831908D01*
X53865474Y-93873431D01*
X53795752Y-93877982D01*
X53734639Y-93844117D01*
X53724059Y-93831907D01*
X53644050Y-93726398D01*
X53526210Y-93637038D01*
X53526208Y-93637037D01*
X53388627Y-93582782D01*
X53388626Y-93582781D01*
X53388624Y-93582781D01*
X53302169Y-93572399D01*
X53302168Y-93572399D01*
X52617932Y-93572399D01*
X52617931Y-93572399D01*
X52531475Y-93582781D01*
X52531474Y-93582781D01*
X52393889Y-93637038D01*
X52291735Y-93714504D01*
X52226423Y-93739327D01*
X52216810Y-93739700D01*
X52177265Y-93739700D01*
X52110226Y-93720015D01*
X52077998Y-93690011D01*
X52016346Y-93607654D01*
X51983120Y-93582781D01*
X51901135Y-93521406D01*
X51901128Y-93521402D01*
X51766286Y-93471110D01*
X51766285Y-93471109D01*
X51766283Y-93471109D01*
X51706673Y-93464700D01*
X51706663Y-93464700D01*
X51060929Y-93464700D01*
X51060923Y-93464701D01*
X51001316Y-93471108D01*
X50866471Y-93521402D01*
X50866464Y-93521406D01*
X50751256Y-93607652D01*
X50751255Y-93607653D01*
X50751254Y-93607654D01*
X50726645Y-93640528D01*
X50689602Y-93690011D01*
X50633668Y-93731882D01*
X50590335Y-93739700D01*
X49643651Y-93739700D01*
X49576612Y-93720015D01*
X49544385Y-93690012D01*
X49504728Y-93637038D01*
X49501746Y-93633054D01*
X49501744Y-93633053D01*
X49501744Y-93633052D01*
X49386535Y-93546806D01*
X49386528Y-93546802D01*
X49251682Y-93496508D01*
X49251683Y-93496508D01*
X49192083Y-93490101D01*
X49192081Y-93490100D01*
X49192073Y-93490100D01*
X49192065Y-93490100D01*
X48626410Y-93490100D01*
X48559371Y-93470415D01*
X48538729Y-93453781D01*
X48537728Y-93452780D01*
X48504243Y-93391457D01*
X48509227Y-93321765D01*
X48551099Y-93265832D01*
X48616563Y-93241415D01*
X48625384Y-93241099D01*
X49192072Y-93241099D01*
X49251683Y-93234691D01*
X49386531Y-93184396D01*
X49501746Y-93098146D01*
X49587996Y-92982931D01*
X49638291Y-92848083D01*
X49644700Y-92788473D01*
X49644699Y-92292728D01*
X49638291Y-92233117D01*
X49628817Y-92207717D01*
X49587997Y-92098271D01*
X49587993Y-92098264D01*
X49501747Y-91983055D01*
X49501744Y-91983052D01*
X49386534Y-91896805D01*
X49350364Y-91883314D01*
X49294431Y-91841441D01*
X49270016Y-91775976D01*
X49269700Y-91767133D01*
X49269700Y-91637169D01*
X49289385Y-91570130D01*
X49342189Y-91524375D01*
X49348908Y-91521542D01*
X49364406Y-91515538D01*
X49364405Y-91515538D01*
X49364414Y-91515535D01*
X49547666Y-91402070D01*
X49706949Y-91256864D01*
X49836838Y-91084863D01*
X49932911Y-90891924D01*
X49991895Y-90684616D01*
X49991896Y-90684600D01*
X49991911Y-90684527D01*
X49991930Y-90684489D01*
X49993463Y-90679102D01*
X49994516Y-90679401D01*
X50023579Y-90622246D01*
X50083892Y-90586973D01*
X50153700Y-90589907D01*
X50210840Y-90630116D01*
X50233317Y-90679335D01*
X50234137Y-90679102D01*
X50235666Y-90684477D01*
X50235689Y-90684527D01*
X50235704Y-90684610D01*
X50235705Y-90684616D01*
X50271436Y-90810198D01*
X50294688Y-90891922D01*
X50390758Y-91084857D01*
X50390763Y-91084865D01*
X50520652Y-91256866D01*
X50606072Y-91334736D01*
X50679934Y-91402070D01*
X50863186Y-91515535D01*
X50904093Y-91531382D01*
X50959495Y-91573954D01*
X50983086Y-91639721D01*
X50983300Y-91647009D01*
X50983300Y-91741733D01*
X50963615Y-91808772D01*
X50910811Y-91854527D01*
X50902636Y-91857914D01*
X50866465Y-91871405D01*
X50751255Y-91957652D01*
X50751252Y-91957655D01*
X50665006Y-92072864D01*
X50665002Y-92072871D01*
X50614710Y-92207713D01*
X50614709Y-92207717D01*
X50608300Y-92267327D01*
X50608300Y-92267334D01*
X50608300Y-92267335D01*
X50608300Y-92763070D01*
X50608301Y-92763076D01*
X50614708Y-92822683D01*
X50665002Y-92957528D01*
X50665006Y-92957535D01*
X50751252Y-93072744D01*
X50751255Y-93072747D01*
X50866464Y-93158993D01*
X50866471Y-93158997D01*
X50911418Y-93175761D01*
X51001317Y-93209291D01*
X51060927Y-93215700D01*
X51706672Y-93215699D01*
X51766283Y-93209291D01*
X51901131Y-93158996D01*
X52016346Y-93072746D01*
X52102596Y-92957531D01*
X52152891Y-92822683D01*
X52156815Y-92786182D01*
X61672300Y-92786182D01*
X61672300Y-94919782D01*
X61672300Y-95031818D01*
X61700393Y-95136661D01*
X61701297Y-95140036D01*
X61701298Y-95140039D01*
X61704870Y-95146226D01*
X61757315Y-95237063D01*
X61757317Y-95237065D01*
X62855181Y-96334929D01*
X62888666Y-96396252D01*
X62891500Y-96422610D01*
X62891500Y-97337156D01*
X62880294Y-97388668D01*
X62847834Y-97459743D01*
X62827353Y-97602200D01*
X62847834Y-97744656D01*
X62857328Y-97765444D01*
X62907623Y-97875573D01*
X63001872Y-97984343D01*
X63122947Y-98062153D01*
X63122950Y-98062154D01*
X63122949Y-98062154D01*
X63261036Y-98102699D01*
X63261038Y-98102700D01*
X63261039Y-98102700D01*
X63404962Y-98102700D01*
X63404962Y-98102699D01*
X63541868Y-98062501D01*
X63543050Y-98062154D01*
X63543050Y-98062153D01*
X63543053Y-98062153D01*
X63664128Y-97984343D01*
X63758377Y-97875573D01*
X63818165Y-97744657D01*
X63838647Y-97602200D01*
X63818165Y-97459743D01*
X63758377Y-97328827D01*
X63758376Y-97328826D01*
X63754693Y-97320761D01*
X63757675Y-97319399D01*
X63742500Y-97267713D01*
X63742500Y-96138984D01*
X63742500Y-96138982D01*
X63713503Y-96030763D01*
X63657485Y-95933737D01*
X63578263Y-95854515D01*
X62559619Y-94835871D01*
X62526134Y-94774548D01*
X62523300Y-94748190D01*
X62523300Y-94506495D01*
X62542985Y-94439456D01*
X62595789Y-94393701D01*
X62664947Y-94383757D01*
X62694754Y-94391934D01*
X62733865Y-94408134D01*
X62733871Y-94408136D01*
X62831799Y-94427615D01*
X62831800Y-94427615D01*
X63831800Y-94427615D01*
X63929728Y-94408136D01*
X63929738Y-94408133D01*
X64084427Y-94344059D01*
X64084428Y-94344059D01*
X64223639Y-94251041D01*
X64223647Y-94251035D01*
X64342036Y-94132646D01*
X64369997Y-94090800D01*
X63831800Y-94090800D01*
X63831800Y-94427615D01*
X62831800Y-94427615D01*
X62831800Y-93794354D01*
X62840186Y-93802740D01*
X62932072Y-93840800D01*
X63731528Y-93840800D01*
X63823414Y-93802740D01*
X63893740Y-93732414D01*
X63931800Y-93640528D01*
X63931800Y-93541072D01*
X63893740Y-93449186D01*
X63823414Y-93378860D01*
X63731528Y-93340800D01*
X62932072Y-93340800D01*
X62840186Y-93378860D01*
X62831800Y-93387246D01*
X62831800Y-93214800D01*
X62851485Y-93147761D01*
X62904289Y-93102006D01*
X62955800Y-93090800D01*
X64369997Y-93090800D01*
X64342036Y-93048953D01*
X64264464Y-92971381D01*
X64230979Y-92910058D01*
X64235963Y-92840366D01*
X64277835Y-92784433D01*
X64343299Y-92760016D01*
X64352145Y-92759700D01*
X66873989Y-92759700D01*
X66941028Y-92779385D01*
X66961665Y-92796013D01*
X66969976Y-92804323D01*
X67003465Y-92865645D01*
X67006300Y-92892010D01*
X67006300Y-94411782D01*
X67006300Y-94523818D01*
X67035297Y-94632037D01*
X67091315Y-94729063D01*
X67091317Y-94729065D01*
X67202157Y-94839905D01*
X67235642Y-94901228D01*
X67237415Y-94911400D01*
X67253156Y-95030961D01*
X67253156Y-95030962D01*
X67299139Y-95141976D01*
X67313664Y-95177041D01*
X67409918Y-95302482D01*
X67535359Y-95398736D01*
X67681438Y-95459244D01*
X67759819Y-95469563D01*
X67838199Y-95479882D01*
X67838200Y-95479882D01*
X67838201Y-95479882D01*
X67890454Y-95473002D01*
X67994962Y-95459244D01*
X68141041Y-95398736D01*
X68266482Y-95302482D01*
X68362736Y-95177041D01*
X68423244Y-95030962D01*
X68443882Y-94874200D01*
X68443424Y-94870723D01*
X68427287Y-94748146D01*
X68423244Y-94717438D01*
X68371014Y-94591345D01*
X68363546Y-94521877D01*
X68394821Y-94459398D01*
X68406911Y-94448041D01*
X68431799Y-94427615D01*
X69431800Y-94427615D01*
X69529728Y-94408136D01*
X69529738Y-94408133D01*
X69684427Y-94344059D01*
X69684428Y-94344059D01*
X69823639Y-94251041D01*
X69823647Y-94251035D01*
X69942036Y-94132646D01*
X69969997Y-94090800D01*
X69431800Y-94090800D01*
X69431800Y-94427615D01*
X68431799Y-94427615D01*
X68431800Y-94427614D01*
X68431800Y-93794354D01*
X68440186Y-93802740D01*
X68532072Y-93840800D01*
X69331528Y-93840800D01*
X69423414Y-93802740D01*
X69493740Y-93732414D01*
X69531800Y-93640528D01*
X69531800Y-93541072D01*
X69493740Y-93449186D01*
X69423414Y-93378860D01*
X69331528Y-93340800D01*
X68532072Y-93340800D01*
X68440186Y-93378860D01*
X68431800Y-93387246D01*
X68431800Y-93090800D01*
X69431800Y-93090800D01*
X69969997Y-93090800D01*
X69942036Y-93048953D01*
X69900014Y-93006931D01*
X70689700Y-93006931D01*
X70689700Y-93896656D01*
X70689702Y-93896682D01*
X70692613Y-93921787D01*
X70692615Y-93921791D01*
X70737993Y-94024564D01*
X70737994Y-94024565D01*
X70817435Y-94104006D01*
X70920209Y-94149385D01*
X70945335Y-94152300D01*
X71835064Y-94152299D01*
X71835079Y-94152297D01*
X71835082Y-94152297D01*
X71860187Y-94149386D01*
X71860187Y-94149385D01*
X71860191Y-94149385D01*
X71889266Y-94136546D01*
X71958543Y-94127475D01*
X72021728Y-94157298D01*
X72029824Y-94166484D01*
X72029869Y-94166440D01*
X72037994Y-94174565D01*
X72117435Y-94254006D01*
X72220209Y-94299385D01*
X72245335Y-94302300D01*
X74335064Y-94302299D01*
X74335079Y-94302297D01*
X74335082Y-94302297D01*
X74360187Y-94299386D01*
X74360188Y-94299385D01*
X74360191Y-94299385D01*
X74462965Y-94254006D01*
X74542406Y-94174565D01*
X74587785Y-94071791D01*
X74590700Y-94046665D01*
X74590699Y-92856936D01*
X74589673Y-92848086D01*
X74587786Y-92831812D01*
X74587785Y-92831810D01*
X74587785Y-92831809D01*
X74542406Y-92729035D01*
X74462965Y-92649594D01*
X74462963Y-92649593D01*
X74360192Y-92604215D01*
X74335065Y-92601300D01*
X72245343Y-92601300D01*
X72245317Y-92601302D01*
X72220212Y-92604213D01*
X72220208Y-92604215D01*
X72117436Y-92649593D01*
X72029869Y-92737160D01*
X72027752Y-92735043D01*
X71987505Y-92767886D01*
X71918083Y-92775780D01*
X71889264Y-92767052D01*
X71860192Y-92754215D01*
X71835065Y-92751300D01*
X70945343Y-92751300D01*
X70945317Y-92751302D01*
X70920212Y-92754213D01*
X70920208Y-92754215D01*
X70817435Y-92799593D01*
X70737994Y-92879034D01*
X70692615Y-92981806D01*
X70692615Y-92981808D01*
X70689700Y-93006931D01*
X69900014Y-93006931D01*
X69823647Y-92930564D01*
X69823639Y-92930558D01*
X69684428Y-92837540D01*
X69529736Y-92773465D01*
X69529728Y-92773463D01*
X69431800Y-92753983D01*
X69431800Y-93090800D01*
X68431800Y-93090800D01*
X68431800Y-92753984D01*
X68431799Y-92753983D01*
X68333871Y-92773463D01*
X68333863Y-92773465D01*
X68179175Y-92837539D01*
X68050190Y-92923723D01*
X67983512Y-92944600D01*
X67916132Y-92926115D01*
X67869443Y-92874136D01*
X67857300Y-92820620D01*
X67857300Y-92608384D01*
X67857298Y-92608374D01*
X67856183Y-92604212D01*
X67856180Y-92604203D01*
X67847345Y-92571231D01*
X67828303Y-92500163D01*
X67801724Y-92454127D01*
X67772285Y-92403137D01*
X67693063Y-92323915D01*
X67693061Y-92323913D01*
X67576861Y-92207713D01*
X67417903Y-92048754D01*
X67384418Y-91987431D01*
X67385657Y-91970098D01*
X67369997Y-91940800D01*
X67293744Y-91940800D01*
X67261651Y-91936575D01*
X67201164Y-91920368D01*
X67157618Y-91908700D01*
X62661818Y-91908700D01*
X62549781Y-91908700D01*
X62441563Y-91937697D01*
X62441561Y-91937698D01*
X62441560Y-91937698D01*
X62344540Y-91993713D01*
X62344534Y-91993717D01*
X61757317Y-92580934D01*
X61757313Y-92580940D01*
X61701298Y-92677960D01*
X61701297Y-92677963D01*
X61672300Y-92786182D01*
X52156815Y-92786182D01*
X52159300Y-92763073D01*
X52159299Y-92267328D01*
X52152891Y-92207717D01*
X52131960Y-92151599D01*
X52102597Y-92072871D01*
X52102593Y-92072864D01*
X52016347Y-91957655D01*
X52016344Y-91957652D01*
X51901134Y-91871405D01*
X51864964Y-91857914D01*
X51809031Y-91816041D01*
X51784616Y-91750576D01*
X51784300Y-91741733D01*
X51784300Y-91647009D01*
X51803985Y-91579970D01*
X51856789Y-91534215D01*
X51863497Y-91531385D01*
X51904414Y-91515535D01*
X52087666Y-91402070D01*
X52246949Y-91256864D01*
X52376838Y-91084863D01*
X52472911Y-90891924D01*
X52531895Y-90684616D01*
X52531896Y-90684600D01*
X52531911Y-90684527D01*
X52531930Y-90684489D01*
X52533463Y-90679102D01*
X52534516Y-90679401D01*
X52563579Y-90622246D01*
X52623892Y-90586973D01*
X52693700Y-90589907D01*
X52750840Y-90630116D01*
X52773317Y-90679335D01*
X52774137Y-90679102D01*
X52775666Y-90684477D01*
X52775689Y-90684527D01*
X52775704Y-90684610D01*
X52775705Y-90684616D01*
X52811436Y-90810198D01*
X52834688Y-90891922D01*
X52930758Y-91084857D01*
X52930763Y-91084865D01*
X53060652Y-91256866D01*
X53146072Y-91334736D01*
X53219934Y-91402070D01*
X53403186Y-91515535D01*
X53403187Y-91515535D01*
X53403188Y-91515536D01*
X53418692Y-91521542D01*
X53604167Y-91593395D01*
X53816032Y-91633000D01*
X53816034Y-91633000D01*
X54031566Y-91633000D01*
X54031568Y-91633000D01*
X54243433Y-91593395D01*
X54444414Y-91515535D01*
X54627666Y-91402070D01*
X54639730Y-91391072D01*
X65331800Y-91391072D01*
X65331800Y-91490528D01*
X65369860Y-91582414D01*
X65440186Y-91652740D01*
X65532072Y-91690800D01*
X66731528Y-91690800D01*
X66823414Y-91652740D01*
X66893740Y-91582414D01*
X66931800Y-91490528D01*
X66931800Y-91391072D01*
X66893740Y-91299186D01*
X66823414Y-91228860D01*
X66731528Y-91190800D01*
X65532072Y-91190800D01*
X65440186Y-91228860D01*
X65369860Y-91299186D01*
X65331800Y-91391072D01*
X54639730Y-91391072D01*
X54786949Y-91256864D01*
X54916838Y-91084863D01*
X54988573Y-90940800D01*
X64893603Y-90940800D01*
X65631800Y-90940800D01*
X66631800Y-90940800D01*
X67369997Y-90940800D01*
X67342036Y-90898953D01*
X67223647Y-90780564D01*
X67223639Y-90780558D01*
X67084428Y-90687540D01*
X66929736Y-90623465D01*
X66929728Y-90623463D01*
X66765521Y-90590800D01*
X66631800Y-90590800D01*
X66631800Y-90940800D01*
X65631800Y-90940800D01*
X65631800Y-90590800D01*
X65498079Y-90590800D01*
X65333871Y-90623463D01*
X65333863Y-90623465D01*
X65179172Y-90687540D01*
X65179171Y-90687540D01*
X65039960Y-90780558D01*
X65039952Y-90780564D01*
X64921563Y-90898953D01*
X64893603Y-90940800D01*
X54988573Y-90940800D01*
X55012911Y-90891924D01*
X55071895Y-90684616D01*
X55091782Y-90470000D01*
X55071895Y-90255384D01*
X55012911Y-90048076D01*
X54936688Y-89895000D01*
X54916841Y-89855142D01*
X54916836Y-89855134D01*
X54786947Y-89683133D01*
X54627667Y-89537931D01*
X54627666Y-89537930D01*
X54444414Y-89424465D01*
X54444412Y-89424464D01*
X54444411Y-89424463D01*
X54286012Y-89363100D01*
X54243433Y-89346605D01*
X54031568Y-89307000D01*
X53816032Y-89307000D01*
X53604167Y-89346605D01*
X53604164Y-89346605D01*
X53604164Y-89346606D01*
X53403188Y-89424463D01*
X53403187Y-89424464D01*
X53219932Y-89537931D01*
X53060652Y-89683133D01*
X52930763Y-89855134D01*
X52930758Y-89855142D01*
X52834688Y-90048077D01*
X52775703Y-90255390D01*
X52775688Y-90255476D01*
X52775669Y-90255513D01*
X52774137Y-90260898D01*
X52773083Y-90260598D01*
X52744018Y-90317756D01*
X52683705Y-90353027D01*
X52613897Y-90350091D01*
X52556758Y-90309880D01*
X52534281Y-90260665D01*
X52533463Y-90260898D01*
X52531934Y-90255524D01*
X52531912Y-90255476D01*
X52531896Y-90255390D01*
X52531895Y-90255387D01*
X52531895Y-90255384D01*
X52472911Y-90048076D01*
X52396688Y-89895000D01*
X52376841Y-89855142D01*
X52376836Y-89855134D01*
X52246947Y-89683133D01*
X52087667Y-89537931D01*
X52087666Y-89537930D01*
X51904414Y-89424465D01*
X51904412Y-89424464D01*
X51904411Y-89424463D01*
X51746012Y-89363100D01*
X51703433Y-89346605D01*
X51491568Y-89307000D01*
X51276032Y-89307000D01*
X51064167Y-89346605D01*
X51064164Y-89346605D01*
X51064164Y-89346606D01*
X50863188Y-89424463D01*
X50863187Y-89424464D01*
X50679932Y-89537931D01*
X50520652Y-89683133D01*
X50390763Y-89855134D01*
X50390758Y-89855142D01*
X50294688Y-90048077D01*
X50235703Y-90255390D01*
X50235688Y-90255476D01*
X50235669Y-90255513D01*
X50234137Y-90260898D01*
X50233083Y-90260598D01*
X50204018Y-90317756D01*
X50143705Y-90353027D01*
X50073897Y-90350091D01*
X50016758Y-90309880D01*
X49994281Y-90260665D01*
X49993463Y-90260898D01*
X49991934Y-90255524D01*
X49991912Y-90255476D01*
X49991896Y-90255390D01*
X49991895Y-90255387D01*
X49991895Y-90255384D01*
X49932911Y-90048076D01*
X49856688Y-89895000D01*
X49836841Y-89855142D01*
X49836836Y-89855134D01*
X49706947Y-89683133D01*
X49547667Y-89537931D01*
X49547666Y-89537930D01*
X49364414Y-89424465D01*
X49364412Y-89424464D01*
X49364411Y-89424463D01*
X49206012Y-89363100D01*
X49163433Y-89346605D01*
X48951568Y-89307000D01*
X48736032Y-89307000D01*
X48524167Y-89346605D01*
X48524164Y-89346605D01*
X48524164Y-89346606D01*
X48323188Y-89424463D01*
X48323187Y-89424464D01*
X48139932Y-89537931D01*
X47980652Y-89683133D01*
X47850763Y-89855134D01*
X47850758Y-89855142D01*
X47754688Y-90048077D01*
X47695703Y-90255390D01*
X47695431Y-90256850D01*
X47695108Y-90257484D01*
X47694137Y-90260898D01*
X47693468Y-90260707D01*
X47663757Y-90319128D01*
X47603442Y-90354396D01*
X47533634Y-90351456D01*
X47476497Y-90311242D01*
X47453484Y-90260843D01*
X47452970Y-90260990D01*
X47452008Y-90257609D01*
X47451655Y-90256836D01*
X47451400Y-90255472D01*
X47401347Y-90079557D01*
X47010907Y-90469999D01*
X47010907Y-90470001D01*
X47401347Y-90860441D01*
X47401348Y-90860441D01*
X47451400Y-90684527D01*
X47451654Y-90683166D01*
X47451957Y-90682569D01*
X47452970Y-90679010D01*
X47453666Y-90679208D01*
X47483319Y-90620883D01*
X47543630Y-90585607D01*
X47613438Y-90588538D01*
X47670580Y-90628744D01*
X47693645Y-90679241D01*
X47694137Y-90679102D01*
X47695055Y-90682329D01*
X47695431Y-90683152D01*
X47695702Y-90684604D01*
X47695704Y-90684613D01*
X47695705Y-90684616D01*
X47703618Y-90712426D01*
X47754688Y-90891922D01*
X47850758Y-91084857D01*
X47850763Y-91084865D01*
X47980652Y-91256866D01*
X48066072Y-91334736D01*
X48139934Y-91402070D01*
X48323186Y-91515535D01*
X48389493Y-91541222D01*
X48444895Y-91583794D01*
X48468486Y-91649561D01*
X48468700Y-91656849D01*
X48468700Y-91767133D01*
X48449015Y-91834172D01*
X48396211Y-91879927D01*
X48388036Y-91883314D01*
X48351865Y-91896805D01*
X48236655Y-91983052D01*
X48236652Y-91983055D01*
X48150406Y-92098264D01*
X48150402Y-92098271D01*
X48100110Y-92233113D01*
X48100109Y-92233117D01*
X48093700Y-92292727D01*
X48093700Y-92292734D01*
X48093700Y-92292735D01*
X48093700Y-92709390D01*
X48074015Y-92776429D01*
X48021211Y-92822184D01*
X47952053Y-92832128D01*
X47888497Y-92803103D01*
X47882019Y-92797071D01*
X47517564Y-92432616D01*
X47517558Y-92432611D01*
X47420539Y-92376597D01*
X47420532Y-92376594D01*
X47398953Y-92370812D01*
X47339293Y-92334447D01*
X47315693Y-92296526D01*
X47305012Y-92269441D01*
X47215650Y-92151598D01*
X47097810Y-92062238D01*
X47097808Y-92062237D01*
X46960227Y-92007982D01*
X46960226Y-92007981D01*
X46960224Y-92007981D01*
X46873769Y-91997599D01*
X46873768Y-91997599D01*
X46189532Y-91997599D01*
X46189531Y-91997599D01*
X46103075Y-92007981D01*
X46103074Y-92007981D01*
X45965489Y-92062238D01*
X45847649Y-92151598D01*
X45767640Y-92257107D01*
X45711447Y-92298631D01*
X45641726Y-92303182D01*
X45580612Y-92269317D01*
X45570032Y-92257107D01*
X45490293Y-92151955D01*
X45372562Y-92062677D01*
X45281650Y-92026826D01*
X44331650Y-92026826D01*
X44240737Y-92062677D01*
X44123006Y-92151955D01*
X44033728Y-92269686D01*
X44022524Y-92298099D01*
X41302013Y-92298099D01*
X41302013Y-91566018D01*
X45914886Y-91566018D01*
X45984299Y-91592910D01*
X45984305Y-91592911D01*
X46196081Y-91632500D01*
X46411519Y-91632500D01*
X46623299Y-91592910D01*
X46692712Y-91566019D01*
X46303801Y-91177107D01*
X46303800Y-91177107D01*
X45914886Y-91566018D01*
X41302013Y-91566018D01*
X41302013Y-90470000D01*
X45136320Y-90470000D01*
X45156198Y-90684521D01*
X45206250Y-90860440D01*
X45596693Y-90470000D01*
X45520993Y-90394300D01*
X45728800Y-90394300D01*
X45728800Y-90545700D01*
X45767985Y-90691942D01*
X45843685Y-90823058D01*
X45950742Y-90930115D01*
X46081858Y-91005815D01*
X46228100Y-91045000D01*
X46379500Y-91045000D01*
X46525742Y-91005815D01*
X46656858Y-90930115D01*
X46763915Y-90823058D01*
X46839615Y-90691942D01*
X46878800Y-90545700D01*
X46878800Y-90394300D01*
X46839615Y-90248058D01*
X46763915Y-90116942D01*
X46656858Y-90009885D01*
X46525742Y-89934185D01*
X46379500Y-89895000D01*
X46228100Y-89895000D01*
X46081858Y-89934185D01*
X45950742Y-90009885D01*
X45843685Y-90116942D01*
X45767985Y-90248058D01*
X45728800Y-90394300D01*
X45520993Y-90394300D01*
X45206251Y-90079558D01*
X45156198Y-90255478D01*
X45136320Y-90470000D01*
X41302013Y-90470000D01*
X41302013Y-89373980D01*
X45914887Y-89373980D01*
X46303800Y-89762893D01*
X46303801Y-89762893D01*
X46692712Y-89373980D01*
X46623293Y-89347088D01*
X46411519Y-89307500D01*
X46196081Y-89307500D01*
X45984301Y-89347089D01*
X45914887Y-89373980D01*
X41302013Y-89373980D01*
X41302013Y-87929999D01*
X46405818Y-87929999D01*
X46405818Y-87930000D01*
X46425704Y-88144611D01*
X46425704Y-88144613D01*
X46425705Y-88144616D01*
X46454908Y-88247254D01*
X46484688Y-88351922D01*
X46580758Y-88544857D01*
X46580763Y-88544865D01*
X46710652Y-88716866D01*
X46801296Y-88799498D01*
X46869934Y-88862070D01*
X47053186Y-88975535D01*
X47053187Y-88975535D01*
X47053188Y-88975536D01*
X47079198Y-88985612D01*
X47254167Y-89053395D01*
X47466032Y-89093000D01*
X47466034Y-89093000D01*
X47681566Y-89093000D01*
X47681568Y-89093000D01*
X47893433Y-89053395D01*
X48094414Y-88975535D01*
X48277666Y-88862070D01*
X48436949Y-88716864D01*
X48566838Y-88544863D01*
X48662911Y-88351924D01*
X48721895Y-88144616D01*
X48721896Y-88144600D01*
X48721911Y-88144527D01*
X48721930Y-88144489D01*
X48723463Y-88139102D01*
X48724516Y-88139401D01*
X48753579Y-88082246D01*
X48813892Y-88046973D01*
X48883700Y-88049907D01*
X48940840Y-88090116D01*
X48963317Y-88139335D01*
X48964137Y-88139102D01*
X48965666Y-88144477D01*
X48965689Y-88144527D01*
X48965704Y-88144610D01*
X48965705Y-88144616D01*
X48998241Y-88258969D01*
X49024688Y-88351922D01*
X49120758Y-88544857D01*
X49120763Y-88544865D01*
X49250652Y-88716866D01*
X49341296Y-88799498D01*
X49409934Y-88862070D01*
X49593186Y-88975535D01*
X49593187Y-88975535D01*
X49593188Y-88975536D01*
X49619198Y-88985612D01*
X49794167Y-89053395D01*
X50006032Y-89093000D01*
X50006034Y-89093000D01*
X50221566Y-89093000D01*
X50221568Y-89093000D01*
X50433433Y-89053395D01*
X50634414Y-88975535D01*
X50817666Y-88862070D01*
X50976949Y-88716864D01*
X51106838Y-88544863D01*
X51202911Y-88351924D01*
X51261895Y-88144616D01*
X51261896Y-88144600D01*
X51261911Y-88144527D01*
X51261930Y-88144489D01*
X51263463Y-88139102D01*
X51264516Y-88139401D01*
X51293579Y-88082246D01*
X51353892Y-88046973D01*
X51423700Y-88049907D01*
X51480840Y-88090116D01*
X51503317Y-88139335D01*
X51504137Y-88139102D01*
X51505666Y-88144477D01*
X51505689Y-88144527D01*
X51505704Y-88144610D01*
X51505705Y-88144616D01*
X51538241Y-88258969D01*
X51564688Y-88351922D01*
X51660758Y-88544857D01*
X51660763Y-88544865D01*
X51790652Y-88716866D01*
X51881296Y-88799498D01*
X51949934Y-88862070D01*
X52133186Y-88975535D01*
X52133187Y-88975535D01*
X52133188Y-88975536D01*
X52159198Y-88985612D01*
X52334167Y-89053395D01*
X52546032Y-89093000D01*
X52546034Y-89093000D01*
X52761566Y-89093000D01*
X52761568Y-89093000D01*
X52973433Y-89053395D01*
X53174414Y-88975535D01*
X53357666Y-88862070D01*
X53516949Y-88716864D01*
X53646838Y-88544863D01*
X53742911Y-88351924D01*
X53787535Y-88195085D01*
X53824812Y-88135995D01*
X53888122Y-88106437D01*
X53957361Y-88115798D01*
X54010548Y-88161108D01*
X54030796Y-88227979D01*
X54030800Y-88229022D01*
X54030800Y-88837356D01*
X54030802Y-88837382D01*
X54033713Y-88862487D01*
X54033715Y-88862491D01*
X54079093Y-88965264D01*
X54079094Y-88965265D01*
X54158535Y-89044706D01*
X54261309Y-89090085D01*
X54286435Y-89093000D01*
X56101164Y-89092999D01*
X56101179Y-89092997D01*
X56101182Y-89092997D01*
X56126287Y-89090086D01*
X56126288Y-89090085D01*
X56126291Y-89090085D01*
X56229065Y-89044706D01*
X56308506Y-88965265D01*
X56353885Y-88862491D01*
X56355900Y-88855085D01*
X56392492Y-88795564D01*
X56455455Y-88765275D01*
X56520913Y-88773355D01*
X56521159Y-88772697D01*
X56523918Y-88773726D01*
X56524799Y-88773835D01*
X56526703Y-88774764D01*
X56529468Y-88775795D01*
X56529469Y-88775796D01*
X56664317Y-88826091D01*
X56723927Y-88832500D01*
X57219672Y-88832499D01*
X57279283Y-88826091D01*
X57414131Y-88775796D01*
X57529346Y-88689546D01*
X57615596Y-88574331D01*
X57665891Y-88439483D01*
X57672300Y-88379873D01*
X57672299Y-87734128D01*
X57666344Y-87678727D01*
X57665891Y-87674516D01*
X57615597Y-87539671D01*
X57615593Y-87539664D01*
X57529347Y-87424455D01*
X57529344Y-87424452D01*
X57414135Y-87338206D01*
X57414128Y-87338202D01*
X57279286Y-87287910D01*
X57279285Y-87287909D01*
X57279283Y-87287909D01*
X57219673Y-87281500D01*
X57219663Y-87281500D01*
X56723929Y-87281500D01*
X56723923Y-87281501D01*
X56664316Y-87287908D01*
X56524132Y-87340194D01*
X56454440Y-87345178D01*
X56393117Y-87311693D01*
X56359633Y-87250369D01*
X56356799Y-87224012D01*
X56356799Y-87022643D01*
X56356799Y-87022636D01*
X56354862Y-87005933D01*
X56353886Y-86997512D01*
X56353885Y-86997510D01*
X56353885Y-86997509D01*
X56308506Y-86894735D01*
X56229065Y-86815294D01*
X56215757Y-86809418D01*
X56126292Y-86769915D01*
X56101165Y-86767000D01*
X54286443Y-86767000D01*
X54286417Y-86767002D01*
X54261312Y-86769913D01*
X54261308Y-86769915D01*
X54158535Y-86815293D01*
X54079094Y-86894734D01*
X54033715Y-86997506D01*
X54033715Y-86997508D01*
X54030800Y-87022631D01*
X54030800Y-87630976D01*
X54011115Y-87698015D01*
X53958311Y-87743770D01*
X53889153Y-87753714D01*
X53825597Y-87724689D01*
X53787823Y-87665911D01*
X53787586Y-87665095D01*
X53742911Y-87508076D01*
X53658323Y-87338202D01*
X53646841Y-87315142D01*
X53646836Y-87315134D01*
X53516947Y-87143133D01*
X53357667Y-86997931D01*
X53357666Y-86997930D01*
X53250010Y-86931272D01*
X53174415Y-86884465D01*
X53172343Y-86883662D01*
X53171049Y-86883161D01*
X53169676Y-86882106D01*
X53169290Y-86881914D01*
X53169327Y-86881838D01*
X53115649Y-86840589D01*
X53092059Y-86774822D01*
X53107771Y-86706741D01*
X53157795Y-86657963D01*
X53172510Y-86651355D01*
X53196531Y-86642396D01*
X53311746Y-86556146D01*
X53397996Y-86440931D01*
X53448291Y-86306083D01*
X53454700Y-86246473D01*
X53454699Y-85750728D01*
X53448291Y-85691117D01*
X53447170Y-85688112D01*
X53397997Y-85556271D01*
X53397993Y-85556264D01*
X53333412Y-85469995D01*
X57011568Y-85469995D01*
X57011568Y-85470004D01*
X57030468Y-85722211D01*
X57086746Y-85968782D01*
X57086751Y-85968799D01*
X57179149Y-86204226D01*
X57179153Y-86204234D01*
X57209645Y-86257047D01*
X57799835Y-85666857D01*
X57814347Y-85739813D01*
X57884075Y-85908152D01*
X57985305Y-86059653D01*
X58114147Y-86188495D01*
X58265648Y-86289725D01*
X58433987Y-86359453D01*
X58506941Y-86373964D01*
X57916881Y-86964024D01*
X58085554Y-87045252D01*
X58218767Y-87086343D01*
X58277026Y-87124913D01*
X58305184Y-87188858D01*
X58294300Y-87257875D01*
X58247832Y-87310052D01*
X58225551Y-87321016D01*
X58179470Y-87338203D01*
X58179464Y-87338206D01*
X58064255Y-87424452D01*
X58064252Y-87424455D01*
X57978006Y-87539664D01*
X57978002Y-87539671D01*
X57927710Y-87674513D01*
X57927709Y-87674517D01*
X57921300Y-87734127D01*
X57921300Y-87734134D01*
X57921300Y-87734135D01*
X57921300Y-88379870D01*
X57921301Y-88379876D01*
X57927708Y-88439483D01*
X57978002Y-88574328D01*
X57978006Y-88574335D01*
X58064252Y-88689544D01*
X58064255Y-88689547D01*
X58179464Y-88775793D01*
X58179471Y-88775797D01*
X58214265Y-88788774D01*
X58314317Y-88826091D01*
X58373927Y-88832500D01*
X58869672Y-88832499D01*
X58929283Y-88826091D01*
X59064131Y-88775796D01*
X59100329Y-88748698D01*
X62199769Y-88748698D01*
X62199769Y-88748701D01*
X62220406Y-88905460D01*
X62220407Y-88905462D01*
X62272018Y-89030063D01*
X62280915Y-89051541D01*
X62377169Y-89176982D01*
X62502610Y-89273236D01*
X62648689Y-89333744D01*
X62727070Y-89344063D01*
X62805450Y-89354382D01*
X62805451Y-89354382D01*
X62805452Y-89354382D01*
X62864523Y-89346605D01*
X62962213Y-89333744D01*
X63108292Y-89273236D01*
X63233733Y-89176982D01*
X63271786Y-89127389D01*
X63328210Y-89086188D01*
X63397956Y-89082033D01*
X63458877Y-89116244D01*
X63468533Y-89127387D01*
X63545569Y-89227782D01*
X63671010Y-89324036D01*
X63817089Y-89384544D01*
X63895470Y-89394863D01*
X63973850Y-89405182D01*
X63973851Y-89405182D01*
X63973852Y-89405182D01*
X64026105Y-89398302D01*
X64130613Y-89384544D01*
X64276692Y-89324036D01*
X64402133Y-89227782D01*
X64498387Y-89102341D01*
X64558895Y-88956262D01*
X64574549Y-88837356D01*
X64579533Y-88799501D01*
X64579533Y-88799498D01*
X64565057Y-88689544D01*
X64558895Y-88642738D01*
X64531422Y-88576413D01*
X64523954Y-88506948D01*
X64530635Y-88493600D01*
X75033953Y-88493600D01*
X75054434Y-88636056D01*
X75114222Y-88766971D01*
X75114223Y-88766973D01*
X75208472Y-88875743D01*
X75329547Y-88953553D01*
X75329550Y-88953554D01*
X75329549Y-88953554D01*
X75467636Y-88994099D01*
X75467638Y-88994100D01*
X75467639Y-88994100D01*
X75611562Y-88994100D01*
X75611562Y-88994099D01*
X75749653Y-88953553D01*
X75870728Y-88875743D01*
X75964977Y-88766973D01*
X76024765Y-88636057D01*
X76045247Y-88493600D01*
X76024765Y-88351143D01*
X75964977Y-88220227D01*
X75870728Y-88111457D01*
X75749653Y-88033647D01*
X75749651Y-88033646D01*
X75749649Y-88033645D01*
X75749650Y-88033645D01*
X75611563Y-87993100D01*
X75611561Y-87993100D01*
X75467639Y-87993100D01*
X75467636Y-87993100D01*
X75329549Y-88033645D01*
X75208473Y-88111456D01*
X75114223Y-88220226D01*
X75114222Y-88220228D01*
X75054434Y-88351143D01*
X75033953Y-88493600D01*
X64530635Y-88493600D01*
X64555228Y-88444469D01*
X64558273Y-88441313D01*
X65210194Y-87789392D01*
X65271514Y-87755910D01*
X65341206Y-87760894D01*
X65397139Y-87802766D01*
X65416847Y-87842135D01*
X65419084Y-87849753D01*
X65455732Y-87929999D01*
X65478874Y-87980673D01*
X65573123Y-88089443D01*
X65694198Y-88167253D01*
X65694201Y-88167254D01*
X65694200Y-88167254D01*
X65832287Y-88207799D01*
X65832289Y-88207800D01*
X65832290Y-88207800D01*
X65976213Y-88207800D01*
X65976213Y-88207799D01*
X66114304Y-88167253D01*
X66235379Y-88089443D01*
X66329628Y-87980673D01*
X66342677Y-87952100D01*
X70591853Y-87952100D01*
X70612334Y-88094556D01*
X70645535Y-88167254D01*
X70672123Y-88225473D01*
X70766372Y-88334243D01*
X70887447Y-88412053D01*
X70887450Y-88412054D01*
X70887449Y-88412054D01*
X70980866Y-88439483D01*
X71002584Y-88445860D01*
X71025536Y-88452599D01*
X71025538Y-88452600D01*
X71025539Y-88452600D01*
X71169462Y-88452600D01*
X71169462Y-88452599D01*
X71307553Y-88412053D01*
X71428628Y-88334243D01*
X71522877Y-88225473D01*
X71582665Y-88094557D01*
X71603147Y-87952100D01*
X71582665Y-87809643D01*
X71522877Y-87678727D01*
X71428628Y-87569957D01*
X71307553Y-87492147D01*
X71307551Y-87492146D01*
X71307549Y-87492145D01*
X71307550Y-87492145D01*
X71169463Y-87451600D01*
X71169461Y-87451600D01*
X71025539Y-87451600D01*
X71025536Y-87451600D01*
X70887449Y-87492145D01*
X70766373Y-87569956D01*
X70672123Y-87678726D01*
X70672122Y-87678728D01*
X70612334Y-87809643D01*
X70591853Y-87952100D01*
X66342677Y-87952100D01*
X66389416Y-87849757D01*
X66409898Y-87707300D01*
X66389416Y-87564843D01*
X66329628Y-87433927D01*
X66235379Y-87325157D01*
X66235376Y-87325155D01*
X66199428Y-87302052D01*
X66153673Y-87249248D01*
X66143730Y-87180089D01*
X66172756Y-87116534D01*
X66204479Y-87090343D01*
X66207078Y-87088841D01*
X66207092Y-87088836D01*
X66332533Y-86992582D01*
X66428787Y-86867141D01*
X66489295Y-86721062D01*
X66505181Y-86600394D01*
X66509933Y-86564301D01*
X66509933Y-86564298D01*
X66492168Y-86429359D01*
X66489295Y-86407538D01*
X66428787Y-86261459D01*
X66332533Y-86136018D01*
X66207092Y-86039764D01*
X66180277Y-86028657D01*
X66061013Y-85979256D01*
X66061011Y-85979255D01*
X65904252Y-85958618D01*
X65904250Y-85958618D01*
X65747490Y-85979255D01*
X65747488Y-85979256D01*
X65601411Y-86039763D01*
X65475968Y-86136019D01*
X65443300Y-86178593D01*
X65386872Y-86219795D01*
X65317126Y-86223949D01*
X65269439Y-86201481D01*
X65191093Y-86141364D01*
X65045013Y-86080856D01*
X65045011Y-86080855D01*
X64888252Y-86060218D01*
X64888250Y-86060218D01*
X64731490Y-86080855D01*
X64731488Y-86080856D01*
X64585407Y-86141365D01*
X64578370Y-86145428D01*
X64577683Y-86144239D01*
X64520526Y-86166329D01*
X64452083Y-86152283D01*
X64416509Y-86123961D01*
X64379157Y-86080855D01*
X64333928Y-86028657D01*
X64212853Y-85950847D01*
X64212851Y-85950846D01*
X64212849Y-85950845D01*
X64212850Y-85950845D01*
X64074763Y-85910300D01*
X64074761Y-85910300D01*
X63930839Y-85910300D01*
X63930836Y-85910300D01*
X63792749Y-85950845D01*
X63671673Y-86028656D01*
X63577423Y-86137426D01*
X63577422Y-86137428D01*
X63517634Y-86268343D01*
X63497153Y-86410800D01*
X63517634Y-86553256D01*
X63571003Y-86670116D01*
X63577423Y-86684173D01*
X63671672Y-86792943D01*
X63792747Y-86870753D01*
X63792750Y-86870754D01*
X63792749Y-86870754D01*
X63870209Y-86893498D01*
X63928987Y-86931272D01*
X63958013Y-86994827D01*
X63948070Y-87063986D01*
X63922956Y-87100156D01*
X62914650Y-88108462D01*
X62853327Y-88141947D01*
X62810785Y-88143720D01*
X62805453Y-88143018D01*
X62805449Y-88143018D01*
X62648690Y-88163655D01*
X62648688Y-88163656D01*
X62502611Y-88224163D01*
X62377169Y-88320418D01*
X62280914Y-88445860D01*
X62220407Y-88591937D01*
X62220406Y-88591939D01*
X62199769Y-88748698D01*
X59100329Y-88748698D01*
X59179346Y-88689546D01*
X59265596Y-88574331D01*
X59315891Y-88439483D01*
X59322300Y-88379873D01*
X59322299Y-87734128D01*
X59316344Y-87678727D01*
X59315891Y-87674516D01*
X59265597Y-87539671D01*
X59265593Y-87539664D01*
X59213923Y-87470643D01*
X59179346Y-87424454D01*
X59064131Y-87338204D01*
X59064129Y-87338203D01*
X59057239Y-87333045D01*
X59015368Y-87277111D01*
X59010384Y-87207419D01*
X59043869Y-87146096D01*
X59095000Y-87115287D01*
X59322042Y-87045253D01*
X59490716Y-86964023D01*
X58900657Y-86373964D01*
X58973613Y-86359453D01*
X59141952Y-86289725D01*
X59293453Y-86188495D01*
X59422295Y-86059653D01*
X59523525Y-85908152D01*
X59593253Y-85739813D01*
X59607764Y-85666857D01*
X60197953Y-86257046D01*
X60228449Y-86204228D01*
X60228451Y-86204225D01*
X60320848Y-85968799D01*
X60320853Y-85968782D01*
X60377131Y-85722211D01*
X60396032Y-85470004D01*
X60396032Y-85469995D01*
X60377131Y-85217788D01*
X60320853Y-84971217D01*
X60320848Y-84971200D01*
X60228448Y-84735767D01*
X60197953Y-84682951D01*
X59607764Y-85273141D01*
X59593253Y-85200187D01*
X59523525Y-85031848D01*
X59422295Y-84880347D01*
X59293453Y-84751505D01*
X59141952Y-84650275D01*
X59088658Y-84628200D01*
X77949628Y-84628200D01*
X77973394Y-84696120D01*
X77973395Y-84696122D01*
X78052158Y-84802841D01*
X78158877Y-84881603D01*
X78256800Y-84915868D01*
X78256800Y-84628200D01*
X77949628Y-84628200D01*
X59088658Y-84628200D01*
X58973613Y-84580547D01*
X58900658Y-84566035D01*
X59490717Y-83975976D01*
X59490716Y-83975974D01*
X59431796Y-83947600D01*
X67684732Y-83947600D01*
X67718996Y-84045522D01*
X67797758Y-84152241D01*
X67904480Y-84231005D01*
X67904479Y-84231005D01*
X67972399Y-84254770D01*
X67972400Y-84254770D01*
X67972400Y-83947600D01*
X67684732Y-83947600D01*
X59431796Y-83947600D01*
X59322044Y-83894747D01*
X59322046Y-83894747D01*
X59080365Y-83820198D01*
X59080359Y-83820197D01*
X58830266Y-83782500D01*
X58577333Y-83782500D01*
X58327240Y-83820197D01*
X58327234Y-83820198D01*
X58085554Y-83894747D01*
X57916882Y-83975974D01*
X57916882Y-83975975D01*
X58506942Y-84566035D01*
X58433987Y-84580547D01*
X58265648Y-84650275D01*
X58114147Y-84751505D01*
X57985305Y-84880347D01*
X57884075Y-85031848D01*
X57814347Y-85200187D01*
X57799835Y-85273141D01*
X57209645Y-84682951D01*
X57209645Y-84682952D01*
X57179151Y-84735769D01*
X57086751Y-84971200D01*
X57086746Y-84971217D01*
X57030468Y-85217788D01*
X57011568Y-85469995D01*
X53333412Y-85469995D01*
X53311747Y-85441055D01*
X53311744Y-85441052D01*
X53196535Y-85354806D01*
X53196528Y-85354802D01*
X53061686Y-85304510D01*
X53061685Y-85304509D01*
X53061683Y-85304509D01*
X53002073Y-85298100D01*
X53002063Y-85298100D01*
X52356329Y-85298100D01*
X52356323Y-85298101D01*
X52296716Y-85304508D01*
X52161871Y-85354802D01*
X52161864Y-85354806D01*
X52046655Y-85441052D01*
X52046652Y-85441055D01*
X51960406Y-85556264D01*
X51960402Y-85556271D01*
X51917232Y-85672018D01*
X51875361Y-85727952D01*
X51809897Y-85752369D01*
X51741624Y-85737517D01*
X51692218Y-85688112D01*
X51677050Y-85628685D01*
X51677050Y-85521080D01*
X51669585Y-85458922D01*
X51666667Y-85434622D01*
X51612412Y-85297041D01*
X51552313Y-85217788D01*
X51523050Y-85179198D01*
X51417541Y-85099189D01*
X51376018Y-85042997D01*
X51371466Y-84973275D01*
X51405331Y-84912161D01*
X51417541Y-84901581D01*
X51522693Y-84821842D01*
X51611970Y-84704112D01*
X51665500Y-84568370D01*
X51708406Y-84513226D01*
X51774314Y-84490033D01*
X51842298Y-84506153D01*
X51890775Y-84556470D01*
X51904145Y-84600606D01*
X51910109Y-84656083D01*
X51960402Y-84790928D01*
X51960406Y-84790935D01*
X52046652Y-84906144D01*
X52046655Y-84906147D01*
X52161864Y-84992393D01*
X52161871Y-84992397D01*
X52197649Y-85005741D01*
X52296717Y-85042691D01*
X52356327Y-85049100D01*
X53002072Y-85049099D01*
X53061683Y-85042691D01*
X53196531Y-84992396D01*
X53311746Y-84906146D01*
X53397996Y-84790931D01*
X53448291Y-84656083D01*
X53454700Y-84596473D01*
X53454699Y-84100728D01*
X53448291Y-84041117D01*
X53447670Y-84039453D01*
X53397997Y-83906271D01*
X53397993Y-83906264D01*
X53311747Y-83791055D01*
X53311744Y-83791052D01*
X53196535Y-83704806D01*
X53196528Y-83704802D01*
X53061686Y-83654510D01*
X53061685Y-83654509D01*
X53061683Y-83654509D01*
X53002073Y-83648100D01*
X53002063Y-83648100D01*
X52356329Y-83648100D01*
X52356323Y-83648101D01*
X52296716Y-83654508D01*
X52161871Y-83704802D01*
X52161864Y-83704806D01*
X52046655Y-83791052D01*
X52046652Y-83791055D01*
X51960406Y-83906264D01*
X51960402Y-83906271D01*
X51916732Y-84023359D01*
X51874861Y-84079293D01*
X51809397Y-84103710D01*
X51741124Y-84088859D01*
X51691718Y-84039453D01*
X51676550Y-83980026D01*
X51676550Y-83796127D01*
X51666176Y-83709740D01*
X51611973Y-83572291D01*
X51611970Y-83572285D01*
X51522693Y-83454555D01*
X51404962Y-83365277D01*
X51376550Y-83354073D01*
X51376550Y-84489199D01*
X51356865Y-84556238D01*
X51304061Y-84601993D01*
X51252550Y-84613199D01*
X50155278Y-84613199D01*
X50191128Y-84704111D01*
X50280406Y-84821842D01*
X50385558Y-84901581D01*
X50427082Y-84957774D01*
X50431633Y-85027495D01*
X50397768Y-85088609D01*
X50385558Y-85099189D01*
X50280049Y-85179198D01*
X50190689Y-85297038D01*
X50136432Y-85434623D01*
X50136432Y-85434624D01*
X50126050Y-85521080D01*
X50126050Y-86205317D01*
X50136432Y-86291773D01*
X50136432Y-86291774D01*
X50190689Y-86429359D01*
X50280051Y-86547201D01*
X50286047Y-86553197D01*
X50284146Y-86555097D01*
X50317615Y-86600394D01*
X50322163Y-86670116D01*
X50288295Y-86731228D01*
X50226764Y-86764329D01*
X50201164Y-86767000D01*
X50006032Y-86767000D01*
X49906195Y-86785663D01*
X49794160Y-86806606D01*
X49778908Y-86812515D01*
X49709284Y-86818375D01*
X49647545Y-86785663D01*
X49613292Y-86724765D01*
X49617401Y-86655016D01*
X49658566Y-86598561D01*
X49659039Y-86598199D01*
X49694250Y-86571499D01*
X49783612Y-86453657D01*
X49837867Y-86316076D01*
X49848250Y-86229617D01*
X49848250Y-85545381D01*
X49837867Y-85458922D01*
X49783612Y-85321341D01*
X49770848Y-85304509D01*
X49694250Y-85203498D01*
X49588741Y-85123489D01*
X49547218Y-85067297D01*
X49542666Y-84997575D01*
X49576531Y-84936461D01*
X49588741Y-84925881D01*
X49693893Y-84846142D01*
X49783171Y-84728411D01*
X49819022Y-84637499D01*
X48304984Y-84637499D01*
X48299730Y-84641814D01*
X48251211Y-84651700D01*
X46751728Y-84651700D01*
X46787578Y-84742612D01*
X46876856Y-84860343D01*
X46982008Y-84940082D01*
X47023532Y-84996275D01*
X47028083Y-85065996D01*
X46994218Y-85127110D01*
X46982008Y-85137690D01*
X46876499Y-85217699D01*
X46787139Y-85335539D01*
X46732882Y-85473124D01*
X46732882Y-85473125D01*
X46722500Y-85559581D01*
X46722500Y-86243818D01*
X46732882Y-86330274D01*
X46732882Y-86330275D01*
X46753846Y-86383435D01*
X46779555Y-86448630D01*
X46787139Y-86467860D01*
X46876499Y-86585700D01*
X46994339Y-86675060D01*
X46994342Y-86675062D01*
X47006975Y-86680043D01*
X47062118Y-86722948D01*
X47085312Y-86788856D01*
X47069192Y-86856841D01*
X47026763Y-86900825D01*
X46869932Y-86997931D01*
X46710652Y-87143133D01*
X46580763Y-87315134D01*
X46580758Y-87315142D01*
X46484688Y-87508077D01*
X46425704Y-87715388D01*
X46405818Y-87929999D01*
X41302013Y-87929999D01*
X41302013Y-86306042D01*
X41321698Y-86239003D01*
X41338332Y-86218361D01*
X41889835Y-85666857D01*
X41904347Y-85739813D01*
X41974075Y-85908152D01*
X42075305Y-86059653D01*
X42204147Y-86188495D01*
X42355648Y-86289725D01*
X42523987Y-86359453D01*
X42596941Y-86373964D01*
X42006881Y-86964024D01*
X42175555Y-87045252D01*
X42175553Y-87045252D01*
X42417234Y-87119801D01*
X42417240Y-87119802D01*
X42667333Y-87157499D01*
X42667340Y-87157500D01*
X42920260Y-87157500D01*
X42920266Y-87157499D01*
X43170359Y-87119802D01*
X43170365Y-87119801D01*
X43412042Y-87045253D01*
X43580716Y-86964023D01*
X42990657Y-86373964D01*
X43063613Y-86359453D01*
X43231952Y-86289725D01*
X43383453Y-86188495D01*
X43512295Y-86059653D01*
X43613525Y-85908152D01*
X43683253Y-85739813D01*
X43697764Y-85666857D01*
X44287953Y-86257046D01*
X44318449Y-86204228D01*
X44318451Y-86204225D01*
X44410848Y-85968799D01*
X44410853Y-85968782D01*
X44467131Y-85722211D01*
X44486032Y-85470004D01*
X44486032Y-85469995D01*
X44467131Y-85217788D01*
X44410853Y-84971217D01*
X44410848Y-84971200D01*
X44318448Y-84735767D01*
X44287953Y-84682951D01*
X43697764Y-85273141D01*
X43683253Y-85200187D01*
X43613525Y-85031848D01*
X43512295Y-84880347D01*
X43383453Y-84751505D01*
X43231952Y-84650275D01*
X43063613Y-84580547D01*
X42990658Y-84566035D01*
X43580717Y-83975976D01*
X43580716Y-83975974D01*
X43412044Y-83894747D01*
X43412046Y-83894747D01*
X43170365Y-83820198D01*
X43170359Y-83820197D01*
X42920266Y-83782500D01*
X42667333Y-83782500D01*
X42417240Y-83820197D01*
X42417234Y-83820198D01*
X42175554Y-83894747D01*
X42006882Y-83975974D01*
X42006882Y-83975975D01*
X42596942Y-84566035D01*
X42523987Y-84580547D01*
X42355648Y-84650275D01*
X42204147Y-84751505D01*
X42075305Y-84880347D01*
X41974075Y-85031848D01*
X41904347Y-85200187D01*
X41889835Y-85273142D01*
X41338332Y-84721639D01*
X41304847Y-84660316D01*
X41302013Y-84633958D01*
X41302013Y-83701700D01*
X46751728Y-83701700D01*
X47023000Y-83701700D01*
X47023000Y-83392574D01*
X47973000Y-83392574D01*
X47973000Y-83701700D01*
X48265766Y-83701700D01*
X48271020Y-83697385D01*
X48319539Y-83687499D01*
X48597750Y-83687499D01*
X49547750Y-83687499D01*
X49819022Y-83687499D01*
X49809439Y-83663199D01*
X50155278Y-83663199D01*
X50426550Y-83663199D01*
X50426550Y-83354073D01*
X50398137Y-83365277D01*
X50280406Y-83454555D01*
X50191128Y-83572286D01*
X50155278Y-83663199D01*
X49809439Y-83663199D01*
X49783171Y-83596586D01*
X49693893Y-83478855D01*
X49576162Y-83389577D01*
X49547750Y-83378373D01*
X49547750Y-83687499D01*
X48597750Y-83687499D01*
X48597750Y-83378373D01*
X48569337Y-83389577D01*
X48451608Y-83478854D01*
X48378794Y-83574874D01*
X48322601Y-83616397D01*
X48252880Y-83620948D01*
X48191766Y-83587083D01*
X48181186Y-83574873D01*
X48119143Y-83493056D01*
X48001412Y-83403778D01*
X47973000Y-83392574D01*
X47023000Y-83392574D01*
X46994587Y-83403778D01*
X46876856Y-83493056D01*
X46787578Y-83610787D01*
X46751728Y-83701700D01*
X41302013Y-83701700D01*
X41302013Y-81448872D01*
X43033300Y-81448872D01*
X43033300Y-81711127D01*
X43057372Y-81893960D01*
X43067530Y-81971116D01*
X43135402Y-82224418D01*
X43135405Y-82224428D01*
X43235753Y-82466690D01*
X43235758Y-82466700D01*
X43366875Y-82693803D01*
X43526518Y-82901851D01*
X43526526Y-82901860D01*
X43711940Y-83087274D01*
X43711948Y-83087281D01*
X43711949Y-83087282D01*
X43733408Y-83103748D01*
X43919996Y-83246924D01*
X44147099Y-83378041D01*
X44147109Y-83378046D01*
X44366697Y-83469002D01*
X44389381Y-83478398D01*
X44642684Y-83546270D01*
X44902680Y-83580500D01*
X44902687Y-83580500D01*
X45164913Y-83580500D01*
X45164920Y-83580500D01*
X45424916Y-83546270D01*
X45678219Y-83478398D01*
X45892652Y-83389577D01*
X45920490Y-83378046D01*
X45920491Y-83378045D01*
X45920497Y-83378043D01*
X46147603Y-83246924D01*
X46355651Y-83087282D01*
X46355655Y-83087277D01*
X46355660Y-83087274D01*
X46541074Y-82901860D01*
X46541077Y-82901855D01*
X46541082Y-82901851D01*
X46700724Y-82693803D01*
X46831843Y-82466697D01*
X46849470Y-82424143D01*
X46893042Y-82318949D01*
X46932198Y-82224419D01*
X47000070Y-81971116D01*
X47034300Y-81711120D01*
X47034300Y-81448880D01*
X47022230Y-81357200D01*
X48795548Y-81357200D01*
X48811244Y-81399284D01*
X48811249Y-81399293D01*
X48897409Y-81514387D01*
X48897412Y-81514390D01*
X49012506Y-81600550D01*
X49012515Y-81600555D01*
X49129599Y-81644224D01*
X49129600Y-81644224D01*
X49929600Y-81644224D01*
X50046684Y-81600555D01*
X50046693Y-81600550D01*
X50161787Y-81514390D01*
X50161790Y-81514387D01*
X50247950Y-81399293D01*
X50247955Y-81399284D01*
X50263651Y-81357200D01*
X51310148Y-81357200D01*
X51325844Y-81399284D01*
X51325849Y-81399293D01*
X51412009Y-81514387D01*
X51412012Y-81514390D01*
X51527106Y-81600550D01*
X51527115Y-81600555D01*
X51644199Y-81644224D01*
X51644200Y-81644224D01*
X52444200Y-81644224D01*
X52561284Y-81600555D01*
X52561293Y-81600550D01*
X52676387Y-81514390D01*
X52676390Y-81514387D01*
X52725435Y-81448872D01*
X54463300Y-81448872D01*
X54463300Y-81711127D01*
X54487372Y-81893960D01*
X54497530Y-81971116D01*
X54565402Y-82224418D01*
X54565405Y-82224428D01*
X54665753Y-82466690D01*
X54665758Y-82466700D01*
X54796875Y-82693803D01*
X54956518Y-82901851D01*
X54956526Y-82901860D01*
X55141940Y-83087274D01*
X55141948Y-83087281D01*
X55141949Y-83087282D01*
X55163408Y-83103748D01*
X55349996Y-83246924D01*
X55577099Y-83378041D01*
X55577109Y-83378046D01*
X55796697Y-83469002D01*
X55819381Y-83478398D01*
X56072684Y-83546270D01*
X56332680Y-83580500D01*
X56332687Y-83580500D01*
X56594913Y-83580500D01*
X56594920Y-83580500D01*
X56854916Y-83546270D01*
X57108219Y-83478398D01*
X57322652Y-83389577D01*
X57327425Y-83387600D01*
X67684732Y-83387600D01*
X67972400Y-83387600D01*
X67972400Y-83080428D01*
X68532400Y-83080428D01*
X68532400Y-84254770D01*
X68600320Y-84231005D01*
X68658343Y-84188181D01*
X68723971Y-84164209D01*
X68792142Y-84179523D01*
X68805608Y-84188177D01*
X68864243Y-84231452D01*
X68902403Y-84244804D01*
X68989573Y-84275308D01*
X68989577Y-84275308D01*
X68989581Y-84275310D01*
X69004457Y-84276705D01*
X69019330Y-84278100D01*
X69019334Y-84278100D01*
X69405470Y-84278100D01*
X69418689Y-84276860D01*
X69435219Y-84275310D01*
X69435223Y-84275308D01*
X69435226Y-84275308D01*
X69493918Y-84254770D01*
X69560557Y-84231452D01*
X69667399Y-84152599D01*
X69746252Y-84045757D01*
X69783818Y-83938400D01*
X69790108Y-83920426D01*
X69790108Y-83920423D01*
X69790110Y-83920419D01*
X69792131Y-83898866D01*
X69792900Y-83890670D01*
X69792900Y-83444529D01*
X69790110Y-83414785D01*
X69790110Y-83414781D01*
X69790108Y-83414777D01*
X69790108Y-83414773D01*
X69746252Y-83289444D01*
X69746252Y-83289443D01*
X69667399Y-83182601D01*
X69560557Y-83103748D01*
X69560555Y-83103747D01*
X69435226Y-83059891D01*
X69435214Y-83059889D01*
X69405470Y-83057100D01*
X69405466Y-83057100D01*
X69019334Y-83057100D01*
X69019330Y-83057100D01*
X68989585Y-83059889D01*
X68989573Y-83059891D01*
X68864244Y-83103747D01*
X68819627Y-83136675D01*
X68817121Y-83138526D01*
X68805613Y-83147019D01*
X68739984Y-83170990D01*
X68671813Y-83155674D01*
X68658345Y-83147019D01*
X68600322Y-83104195D01*
X68600320Y-83104194D01*
X68532400Y-83080428D01*
X67972400Y-83080428D01*
X67972399Y-83080428D01*
X67904479Y-83104194D01*
X67904477Y-83104195D01*
X67797758Y-83182958D01*
X67718996Y-83289677D01*
X67684732Y-83387600D01*
X57327425Y-83387600D01*
X57350490Y-83378046D01*
X57350491Y-83378045D01*
X57350497Y-83378043D01*
X57577603Y-83246924D01*
X57785651Y-83087282D01*
X57785655Y-83087277D01*
X57785660Y-83087274D01*
X57971074Y-82901860D01*
X57971077Y-82901855D01*
X57971082Y-82901851D01*
X58130724Y-82693803D01*
X58261843Y-82466697D01*
X58279470Y-82424143D01*
X58323042Y-82318949D01*
X58362198Y-82224419D01*
X58430070Y-81971116D01*
X58460867Y-81737198D01*
X62233918Y-81737198D01*
X62233918Y-81737201D01*
X62254555Y-81893960D01*
X62254556Y-81893962D01*
X62295834Y-81993617D01*
X62315064Y-82040041D01*
X62411318Y-82165482D01*
X62536759Y-82261736D01*
X62682838Y-82322244D01*
X62761219Y-82332563D01*
X62839599Y-82342882D01*
X62839600Y-82342882D01*
X62839601Y-82342882D01*
X62891854Y-82336002D01*
X62996362Y-82322244D01*
X63142441Y-82261736D01*
X63267882Y-82165482D01*
X63364136Y-82040041D01*
X63424644Y-81893962D01*
X63442367Y-81759339D01*
X63445282Y-81737201D01*
X63445282Y-81737198D01*
X63428965Y-81613259D01*
X63428905Y-81612800D01*
X70461953Y-81612800D01*
X70482434Y-81755256D01*
X70533311Y-81866659D01*
X70542223Y-81886173D01*
X70636472Y-81994943D01*
X70757547Y-82072753D01*
X70757550Y-82072754D01*
X70757549Y-82072754D01*
X70895636Y-82113299D01*
X70895638Y-82113300D01*
X70895639Y-82113300D01*
X71039562Y-82113300D01*
X71039562Y-82113299D01*
X71177653Y-82072753D01*
X71298728Y-81994943D01*
X71392977Y-81886173D01*
X71452765Y-81755257D01*
X71473247Y-81612800D01*
X71452765Y-81470343D01*
X71411324Y-81379600D01*
X75663628Y-81379600D01*
X75687394Y-81447520D01*
X75687395Y-81447522D01*
X75766158Y-81554241D01*
X75872877Y-81633003D01*
X75970800Y-81667268D01*
X75970800Y-81667267D01*
X76530800Y-81667267D01*
X76628722Y-81633003D01*
X76735441Y-81554241D01*
X76814204Y-81447522D01*
X76814205Y-81447520D01*
X76837971Y-81379600D01*
X76530800Y-81379600D01*
X76530800Y-81667267D01*
X75970800Y-81667267D01*
X75970800Y-81379600D01*
X75663628Y-81379600D01*
X71411324Y-81379600D01*
X71392977Y-81339427D01*
X71298728Y-81230657D01*
X71177653Y-81152847D01*
X71177651Y-81152846D01*
X71177649Y-81152845D01*
X71177650Y-81152845D01*
X71039563Y-81112300D01*
X71039561Y-81112300D01*
X70895639Y-81112300D01*
X70895636Y-81112300D01*
X70757549Y-81152845D01*
X70636473Y-81230656D01*
X70542223Y-81339426D01*
X70542222Y-81339428D01*
X70482434Y-81470343D01*
X70461953Y-81612800D01*
X63428905Y-81612800D01*
X63424644Y-81580438D01*
X63364136Y-81434359D01*
X63267882Y-81308918D01*
X63142441Y-81212664D01*
X62996362Y-81152156D01*
X62996360Y-81152155D01*
X62839601Y-81131518D01*
X62839599Y-81131518D01*
X62682839Y-81152155D01*
X62682837Y-81152156D01*
X62536760Y-81212663D01*
X62411318Y-81308918D01*
X62315063Y-81434360D01*
X62254556Y-81580437D01*
X62254555Y-81580439D01*
X62233918Y-81737198D01*
X58460867Y-81737198D01*
X58464300Y-81711120D01*
X58464300Y-81448880D01*
X58430070Y-81188884D01*
X58362198Y-80935581D01*
X58314157Y-80819599D01*
X58261846Y-80693309D01*
X58261841Y-80693299D01*
X58130724Y-80466196D01*
X57971081Y-80258148D01*
X57971074Y-80258140D01*
X57785660Y-80072726D01*
X57785651Y-80072718D01*
X57577603Y-79913075D01*
X57350500Y-79781958D01*
X57350490Y-79781953D01*
X57108228Y-79681605D01*
X57108221Y-79681603D01*
X57108219Y-79681602D01*
X56854916Y-79613730D01*
X56794281Y-79605747D01*
X56594927Y-79579500D01*
X56594920Y-79579500D01*
X56332680Y-79579500D01*
X56332672Y-79579500D01*
X56101572Y-79609926D01*
X56072684Y-79613730D01*
X55819381Y-79681602D01*
X55819371Y-79681605D01*
X55577109Y-79781953D01*
X55577099Y-79781958D01*
X55349996Y-79913075D01*
X55141948Y-80072718D01*
X54956518Y-80258148D01*
X54796875Y-80466196D01*
X54665758Y-80693299D01*
X54665753Y-80693309D01*
X54565405Y-80935571D01*
X54565402Y-80935581D01*
X54507372Y-81152155D01*
X54497530Y-81188885D01*
X54463300Y-81448872D01*
X52725435Y-81448872D01*
X52762550Y-81399293D01*
X52762555Y-81399284D01*
X52778251Y-81357200D01*
X52444200Y-81357200D01*
X52444200Y-81644224D01*
X51644200Y-81644224D01*
X51644200Y-81357200D01*
X51310148Y-81357200D01*
X50263651Y-81357200D01*
X49929600Y-81357200D01*
X49929600Y-81644224D01*
X49129600Y-81644224D01*
X49129600Y-81357200D01*
X48795548Y-81357200D01*
X47022230Y-81357200D01*
X47000070Y-81188884D01*
X46932198Y-80935581D01*
X46884157Y-80819599D01*
X46831846Y-80693309D01*
X46831841Y-80693299D01*
X46753264Y-80557199D01*
X48795548Y-80557199D01*
X48795549Y-80557200D01*
X49129600Y-80557200D01*
X49929600Y-80557200D01*
X50263651Y-80557200D01*
X50263651Y-80557199D01*
X51310148Y-80557199D01*
X51310149Y-80557200D01*
X51644200Y-80557200D01*
X52444200Y-80557200D01*
X52778251Y-80557200D01*
X52778251Y-80557199D01*
X52762555Y-80515115D01*
X52762550Y-80515106D01*
X52676390Y-80400012D01*
X52676387Y-80400009D01*
X52561293Y-80313849D01*
X52444200Y-80270175D01*
X52444200Y-80557200D01*
X51644200Y-80557200D01*
X51644200Y-80270175D01*
X51527106Y-80313849D01*
X51412012Y-80400009D01*
X51412009Y-80400012D01*
X51325849Y-80515106D01*
X51325844Y-80515115D01*
X51310148Y-80557199D01*
X50263651Y-80557199D01*
X50247955Y-80515115D01*
X50247950Y-80515106D01*
X50161790Y-80400012D01*
X50161787Y-80400009D01*
X50046693Y-80313849D01*
X49929600Y-80270175D01*
X49929600Y-80557200D01*
X49129600Y-80557200D01*
X49129600Y-80270175D01*
X49012506Y-80313849D01*
X48897412Y-80400009D01*
X48897409Y-80400012D01*
X48811249Y-80515106D01*
X48811244Y-80515115D01*
X48795548Y-80557199D01*
X46753264Y-80557199D01*
X46700724Y-80466196D01*
X46541081Y-80258148D01*
X46541074Y-80258140D01*
X46355660Y-80072726D01*
X46355651Y-80072718D01*
X46202337Y-79955075D01*
X46161135Y-79898647D01*
X46156980Y-79828901D01*
X46191193Y-79767981D01*
X46252910Y-79735229D01*
X46277824Y-79732700D01*
X48736135Y-79732700D01*
X48803174Y-79752385D01*
X48835400Y-79782387D01*
X48897054Y-79864746D01*
X48935984Y-79893889D01*
X49012264Y-79950993D01*
X49012271Y-79950997D01*
X49031962Y-79958341D01*
X49147117Y-80001291D01*
X49206727Y-80007700D01*
X49852472Y-80007699D01*
X49912083Y-80001291D01*
X50046931Y-79950996D01*
X50162146Y-79864746D01*
X50248396Y-79749531D01*
X50298691Y-79614683D01*
X50305100Y-79555073D01*
X50305099Y-79059328D01*
X50305099Y-79059327D01*
X51268700Y-79059327D01*
X51268700Y-79059334D01*
X51268700Y-79059335D01*
X51268700Y-79555070D01*
X51268701Y-79555076D01*
X51275108Y-79614683D01*
X51325402Y-79749528D01*
X51325406Y-79749535D01*
X51411652Y-79864744D01*
X51411655Y-79864747D01*
X51526864Y-79950993D01*
X51526871Y-79950997D01*
X51546562Y-79958341D01*
X51661717Y-80001291D01*
X51721327Y-80007700D01*
X52367072Y-80007699D01*
X52426683Y-80001291D01*
X52561531Y-79950996D01*
X52676746Y-79864746D01*
X52738399Y-79782388D01*
X52794332Y-79740518D01*
X52837665Y-79732700D01*
X53814216Y-79732700D01*
X53814218Y-79732700D01*
X53922437Y-79703703D01*
X54019463Y-79647685D01*
X54874285Y-78792863D01*
X54930303Y-78695837D01*
X54930304Y-78695831D01*
X54933030Y-78691111D01*
X54983597Y-78642895D01*
X54987990Y-78640739D01*
X55162693Y-78559275D01*
X55342289Y-78433520D01*
X55497320Y-78278489D01*
X55623075Y-78098893D01*
X55691418Y-77952330D01*
X55737590Y-77899890D01*
X55804783Y-77880738D01*
X55871665Y-77900953D01*
X55916182Y-77952330D01*
X55984525Y-78098893D01*
X56110280Y-78278489D01*
X56265311Y-78433520D01*
X56444907Y-78559275D01*
X56528745Y-78598369D01*
X56643605Y-78651929D01*
X56643607Y-78651929D01*
X56643612Y-78651932D01*
X56855388Y-78708677D01*
X57030117Y-78723964D01*
X57073799Y-78727786D01*
X57073800Y-78727786D01*
X57073801Y-78727786D01*
X57110202Y-78724601D01*
X57292212Y-78708677D01*
X57503988Y-78651932D01*
X57702693Y-78559275D01*
X57882289Y-78433520D01*
X58031911Y-78283898D01*
X64384169Y-78283898D01*
X64384169Y-78283901D01*
X64404806Y-78440660D01*
X64404807Y-78440662D01*
X64453938Y-78559276D01*
X64465315Y-78586741D01*
X64561569Y-78712182D01*
X64687010Y-78808436D01*
X64833089Y-78868944D01*
X64943868Y-78883528D01*
X65007765Y-78911794D01*
X65046236Y-78970119D01*
X65050622Y-78990281D01*
X65065207Y-79101060D01*
X65065207Y-79101062D01*
X65117462Y-79227218D01*
X65125715Y-79247141D01*
X65221969Y-79372582D01*
X65347410Y-79468836D01*
X65493489Y-79529344D01*
X65597462Y-79543032D01*
X65661359Y-79571298D01*
X65699830Y-79629623D01*
X65704216Y-79649785D01*
X65725607Y-79812261D01*
X65725607Y-79812262D01*
X65783072Y-79950996D01*
X65786115Y-79958341D01*
X65882369Y-80083782D01*
X66007810Y-80180036D01*
X66153889Y-80240544D01*
X66211473Y-80248125D01*
X66310650Y-80261182D01*
X66310651Y-80261182D01*
X66310652Y-80261182D01*
X66362905Y-80254302D01*
X66467413Y-80240544D01*
X66613492Y-80180036D01*
X66738933Y-80083782D01*
X66835187Y-79958341D01*
X66895695Y-79812262D01*
X66916333Y-79655500D01*
X66915304Y-79647686D01*
X66899724Y-79529343D01*
X66895695Y-79498738D01*
X66835187Y-79352659D01*
X66835186Y-79352658D01*
X66835186Y-79352657D01*
X66748966Y-79240293D01*
X66723772Y-79175124D01*
X66737810Y-79106679D01*
X66759655Y-79077132D01*
X66836271Y-79000516D01*
X66897593Y-78967034D01*
X66923950Y-78964200D01*
X69106016Y-78964200D01*
X69461616Y-78964200D01*
X69862952Y-78964200D01*
X69929991Y-78983885D01*
X69950633Y-79000519D01*
X70496413Y-79546299D01*
X70529898Y-79607622D01*
X70531671Y-79650160D01*
X70530969Y-79655500D01*
X70530969Y-79655502D01*
X70551606Y-79812260D01*
X70551607Y-79812262D01*
X70609072Y-79950996D01*
X70612115Y-79958341D01*
X70708369Y-80083782D01*
X70833810Y-80180036D01*
X70979889Y-80240544D01*
X71037473Y-80248125D01*
X71136650Y-80261182D01*
X71136651Y-80261182D01*
X71136652Y-80261182D01*
X71188905Y-80254302D01*
X71293413Y-80240544D01*
X71439492Y-80180036D01*
X71564933Y-80083782D01*
X71661187Y-79958341D01*
X71666080Y-79946529D01*
X75640300Y-79946529D01*
X75640300Y-80332670D01*
X75643089Y-80362414D01*
X75643091Y-80362426D01*
X75686947Y-80487755D01*
X75686948Y-80487757D01*
X75728659Y-80544273D01*
X75730219Y-80546387D01*
X75754190Y-80612016D01*
X75738874Y-80680187D01*
X75730219Y-80693655D01*
X75687395Y-80751677D01*
X75687394Y-80751679D01*
X75663628Y-80819599D01*
X75663628Y-80819600D01*
X76837972Y-80819600D01*
X76837971Y-80819599D01*
X76814205Y-80751679D01*
X76814204Y-80751677D01*
X76771381Y-80693656D01*
X76747409Y-80628028D01*
X76762723Y-80559857D01*
X76771372Y-80546398D01*
X76814652Y-80487757D01*
X76858510Y-80362419D01*
X76861300Y-80332666D01*
X76861300Y-79946534D01*
X76860999Y-79943327D01*
X76858510Y-79916785D01*
X76858510Y-79916781D01*
X76858508Y-79916777D01*
X76858508Y-79916773D01*
X76821937Y-79812262D01*
X76814652Y-79791443D01*
X76735799Y-79684601D01*
X76628957Y-79605748D01*
X76628955Y-79605747D01*
X76503626Y-79561891D01*
X76503614Y-79561889D01*
X76473870Y-79559100D01*
X76473866Y-79559100D01*
X76027734Y-79559100D01*
X76027730Y-79559100D01*
X75997985Y-79561889D01*
X75997973Y-79561891D01*
X75872644Y-79605747D01*
X75765801Y-79684601D01*
X75686947Y-79791444D01*
X75643091Y-79916773D01*
X75643089Y-79916785D01*
X75640300Y-79946529D01*
X71666080Y-79946529D01*
X71721695Y-79812262D01*
X71742333Y-79655500D01*
X71741304Y-79647686D01*
X71725724Y-79529343D01*
X71721695Y-79498738D01*
X71661187Y-79352659D01*
X71564933Y-79227218D01*
X71439492Y-79130964D01*
X71393863Y-79112064D01*
X71293413Y-79070456D01*
X71293411Y-79070455D01*
X71136653Y-79049818D01*
X71136651Y-79049818D01*
X71131311Y-79050520D01*
X71062278Y-79039753D01*
X71027450Y-79015262D01*
X70832469Y-78820281D01*
X70798984Y-78758958D01*
X70803968Y-78689266D01*
X70845840Y-78633333D01*
X70911304Y-78608916D01*
X70920150Y-78608600D01*
X71502365Y-78608600D01*
X71828601Y-78608600D01*
X71895640Y-78628285D01*
X71916282Y-78644919D01*
X72029162Y-78757799D01*
X72062647Y-78819122D01*
X72064420Y-78861660D01*
X72063718Y-78867000D01*
X72063718Y-78867002D01*
X72084355Y-79023760D01*
X72084356Y-79023762D01*
X72128760Y-79130964D01*
X72144864Y-79169841D01*
X72241118Y-79295282D01*
X72366559Y-79391536D01*
X72512638Y-79452044D01*
X72591019Y-79462363D01*
X72669399Y-79472682D01*
X72669400Y-79472682D01*
X72669401Y-79472682D01*
X72733554Y-79464236D01*
X72826162Y-79452044D01*
X72972241Y-79391536D01*
X73097682Y-79295282D01*
X73193936Y-79169841D01*
X73254444Y-79023762D01*
X73275082Y-78867000D01*
X73274801Y-78864869D01*
X73267474Y-78809213D01*
X86466800Y-78809213D01*
X86466800Y-78894787D01*
X86488949Y-78977445D01*
X86531736Y-79051554D01*
X86592246Y-79112064D01*
X86666355Y-79154851D01*
X86749013Y-79177000D01*
X86834587Y-79177000D01*
X86917245Y-79154851D01*
X86991354Y-79112064D01*
X87051864Y-79051554D01*
X87094651Y-78977445D01*
X87116800Y-78894787D01*
X87116800Y-78809213D01*
X87094651Y-78726555D01*
X87051864Y-78652446D01*
X86991354Y-78591936D01*
X86917245Y-78549149D01*
X86834587Y-78527000D01*
X86749013Y-78527000D01*
X86666355Y-78549149D01*
X86592246Y-78591936D01*
X86531736Y-78652446D01*
X86488949Y-78726555D01*
X86466800Y-78809213D01*
X73267474Y-78809213D01*
X73254444Y-78710239D01*
X73254444Y-78710238D01*
X73193936Y-78564159D01*
X73193935Y-78564158D01*
X73192502Y-78560697D01*
X73185033Y-78491227D01*
X73216308Y-78428748D01*
X73231580Y-78414866D01*
X73241329Y-78407385D01*
X73241328Y-78407385D01*
X73241333Y-78407382D01*
X73336928Y-78282800D01*
X83037553Y-78282800D01*
X83058034Y-78425256D01*
X83086859Y-78488372D01*
X83117823Y-78556173D01*
X83212072Y-78664943D01*
X83333147Y-78742753D01*
X83333150Y-78742754D01*
X83333149Y-78742754D01*
X83471236Y-78783299D01*
X83471238Y-78783300D01*
X83471239Y-78783300D01*
X83615162Y-78783300D01*
X83615162Y-78783299D01*
X83753253Y-78742753D01*
X83874328Y-78664943D01*
X83968577Y-78556173D01*
X84028365Y-78425257D01*
X84048847Y-78282800D01*
X84028365Y-78140343D01*
X83968577Y-78009427D01*
X83874328Y-77900657D01*
X83753253Y-77822847D01*
X83753251Y-77822846D01*
X83753249Y-77822845D01*
X83753250Y-77822845D01*
X83615163Y-77782300D01*
X83615161Y-77782300D01*
X83471239Y-77782300D01*
X83471236Y-77782300D01*
X83333149Y-77822845D01*
X83212073Y-77900656D01*
X83117823Y-78009426D01*
X83117822Y-78009428D01*
X83058034Y-78140343D01*
X83037553Y-78282800D01*
X73336928Y-78282800D01*
X73337587Y-78281941D01*
X73398095Y-78135862D01*
X73418733Y-77979100D01*
X73398095Y-77822338D01*
X73337587Y-77676259D01*
X73241333Y-77550818D01*
X73115892Y-77454564D01*
X73107150Y-77450943D01*
X72969813Y-77394056D01*
X72969811Y-77394055D01*
X72813052Y-77373418D01*
X72813050Y-77373418D01*
X72656290Y-77394055D01*
X72656288Y-77394056D01*
X72510208Y-77454564D01*
X72481785Y-77476375D01*
X72416616Y-77501570D01*
X72406298Y-77502000D01*
X65445687Y-77502000D01*
X65346815Y-77502000D01*
X65339516Y-77503956D01*
X65339512Y-77503957D01*
X65251311Y-77527590D01*
X65251310Y-77527591D01*
X65165687Y-77577026D01*
X65165681Y-77577033D01*
X65099049Y-77643663D01*
X65037725Y-77677147D01*
X64995194Y-77678920D01*
X64989858Y-77678218D01*
X64989849Y-77678218D01*
X64833090Y-77698855D01*
X64833088Y-77698856D01*
X64687011Y-77759363D01*
X64561569Y-77855618D01*
X64465314Y-77981060D01*
X64404807Y-78127137D01*
X64404806Y-78127139D01*
X64384169Y-78283898D01*
X58031911Y-78283898D01*
X58037320Y-78278489D01*
X58163075Y-78098893D01*
X58255732Y-77900188D01*
X58312477Y-77688412D01*
X58331586Y-77470000D01*
X58331339Y-77467182D01*
X58324942Y-77394056D01*
X58312477Y-77251588D01*
X58255732Y-77039812D01*
X58255374Y-77039045D01*
X58186769Y-76891919D01*
X58163075Y-76841107D01*
X58037320Y-76661511D01*
X57882289Y-76506480D01*
X57808908Y-76455098D01*
X72461369Y-76455098D01*
X72461369Y-76455101D01*
X72482006Y-76611860D01*
X72482007Y-76611862D01*
X72542515Y-76757941D01*
X72638769Y-76883382D01*
X72764210Y-76979636D01*
X72910289Y-77040144D01*
X72988670Y-77050463D01*
X73067050Y-77060782D01*
X73067051Y-77060782D01*
X73067052Y-77060782D01*
X73119305Y-77053902D01*
X73223813Y-77040144D01*
X73369892Y-76979636D01*
X73495333Y-76883382D01*
X73495334Y-76883379D01*
X73498144Y-76881224D01*
X73563314Y-76856030D01*
X73573631Y-76855600D01*
X75456273Y-76855600D01*
X75621945Y-76855600D01*
X75688984Y-76875285D01*
X75709626Y-76891919D01*
X75925119Y-77107412D01*
X75925120Y-77107413D01*
X75999687Y-77181980D01*
X76091013Y-77234707D01*
X76192873Y-77262000D01*
X76192875Y-77262000D01*
X76194812Y-77262519D01*
X76237384Y-77287098D01*
X76239122Y-77284834D01*
X76245567Y-77289779D01*
X76245569Y-77289782D01*
X76371010Y-77386036D01*
X76517089Y-77446544D01*
X76550503Y-77450943D01*
X76673850Y-77467182D01*
X76679951Y-77467182D01*
X76746990Y-77486867D01*
X76792744Y-77539669D01*
X76836223Y-77634873D01*
X76930472Y-77743643D01*
X77051547Y-77821453D01*
X77051550Y-77821454D01*
X77051549Y-77821454D01*
X77189636Y-77861999D01*
X77189638Y-77862000D01*
X77189639Y-77862000D01*
X77333562Y-77862000D01*
X77333562Y-77861999D01*
X77440721Y-77830535D01*
X77471650Y-77821454D01*
X77471650Y-77821453D01*
X77471653Y-77821453D01*
X77592728Y-77743643D01*
X77686977Y-77634873D01*
X77746765Y-77503957D01*
X77767247Y-77361500D01*
X77746765Y-77219043D01*
X77686977Y-77088127D01*
X77667385Y-77065516D01*
X77638362Y-77001960D01*
X77637100Y-76984315D01*
X77637100Y-76958700D01*
X77656785Y-76891661D01*
X77709589Y-76845906D01*
X77761100Y-76834700D01*
X77918301Y-76834700D01*
X77985340Y-76854385D01*
X78005982Y-76871019D01*
X78204232Y-77069269D01*
X78237717Y-77130592D01*
X78239289Y-77139302D01*
X78249634Y-77211254D01*
X78249635Y-77211258D01*
X78309422Y-77342171D01*
X78309423Y-77342173D01*
X78403672Y-77450943D01*
X78524747Y-77528753D01*
X78524750Y-77528754D01*
X78524749Y-77528754D01*
X78662836Y-77569299D01*
X78662838Y-77569300D01*
X78662839Y-77569300D01*
X78806762Y-77569300D01*
X78806762Y-77569299D01*
X78944853Y-77528753D01*
X79065928Y-77450943D01*
X79160177Y-77342173D01*
X79219965Y-77211257D01*
X79240447Y-77068800D01*
X79219965Y-76926343D01*
X79160177Y-76795427D01*
X79065928Y-76686657D01*
X78944853Y-76608847D01*
X78944851Y-76608846D01*
X78944849Y-76608845D01*
X78944850Y-76608845D01*
X78806765Y-76568300D01*
X78799229Y-76567217D01*
X78735674Y-76538191D01*
X78729197Y-76532160D01*
X78355763Y-76158726D01*
X78355762Y-76158725D01*
X78270138Y-76109290D01*
X78222386Y-76096495D01*
X78222384Y-76096494D01*
X78222382Y-76096493D01*
X78174636Y-76083700D01*
X78174635Y-76083700D01*
X77900299Y-76083700D01*
X77833260Y-76064015D01*
X77812618Y-76047381D01*
X77698819Y-75933582D01*
X77665334Y-75872259D01*
X77662500Y-75845901D01*
X77662500Y-75205567D01*
X77662500Y-75205565D01*
X77636910Y-75110062D01*
X77606448Y-75057300D01*
X77606447Y-75057298D01*
X77587477Y-75024440D01*
X77587473Y-75024435D01*
X76916619Y-74353581D01*
X76883134Y-74292258D01*
X76880300Y-74265900D01*
X76880300Y-74201483D01*
X76899985Y-74134444D01*
X76910583Y-74120285D01*
X76930177Y-74097673D01*
X76989965Y-73966757D01*
X77010447Y-73824300D01*
X76989965Y-73681843D01*
X76930177Y-73550927D01*
X76910771Y-73528531D01*
X76881747Y-73464975D01*
X76891691Y-73395816D01*
X76930849Y-73347561D01*
X77001223Y-73295623D01*
X77079181Y-73189994D01*
X77100861Y-73128036D01*
X77122541Y-73066081D01*
X77122541Y-73066079D01*
X77122541Y-73066074D01*
X77125300Y-73036657D01*
X77125299Y-72661744D01*
X77122541Y-72632321D01*
X77079181Y-72508406D01*
X77008644Y-72412832D01*
X76984674Y-72347205D01*
X76999989Y-72279035D01*
X77008642Y-72265570D01*
X77079181Y-72169994D01*
X77104218Y-72098442D01*
X77122541Y-72046081D01*
X77122541Y-72046079D01*
X77122541Y-72046074D01*
X77125300Y-72016657D01*
X77125299Y-71641744D01*
X77122541Y-71612321D01*
X77079181Y-71488406D01*
X77040202Y-71435591D01*
X77001223Y-71382776D01*
X76929660Y-71329961D01*
X76895594Y-71304819D01*
X76895592Y-71304818D01*
X76771680Y-71261458D01*
X76742261Y-71258700D01*
X76267346Y-71258700D01*
X76237925Y-71261458D01*
X76237915Y-71261460D01*
X76114007Y-71304818D01*
X76032334Y-71365096D01*
X75966705Y-71389067D01*
X75898534Y-71373752D01*
X75885066Y-71365096D01*
X75874957Y-71357635D01*
X75803394Y-71304819D01*
X75803392Y-71304818D01*
X75679480Y-71261458D01*
X75650061Y-71258700D01*
X75175146Y-71258700D01*
X75145725Y-71261458D01*
X75145715Y-71261460D01*
X75021807Y-71304818D01*
X74916176Y-71382776D01*
X74838218Y-71488407D01*
X74794858Y-71612318D01*
X74794858Y-71612320D01*
X74792100Y-71641738D01*
X74792100Y-72016653D01*
X74794858Y-72046074D01*
X74794860Y-72046084D01*
X74838219Y-72169994D01*
X74838219Y-72169995D01*
X74908754Y-72265567D01*
X74932725Y-72331196D01*
X74917409Y-72399366D01*
X74908754Y-72412833D01*
X74838219Y-72508404D01*
X74838219Y-72508405D01*
X74794858Y-72632318D01*
X74794858Y-72632320D01*
X74792100Y-72661738D01*
X74792100Y-73036653D01*
X74794858Y-73066074D01*
X74794860Y-73066084D01*
X74838218Y-73189992D01*
X74916176Y-73295623D01*
X74980259Y-73342918D01*
X75022509Y-73398565D01*
X75027968Y-73468222D01*
X75000339Y-73523889D01*
X74987225Y-73539022D01*
X74987222Y-73539028D01*
X74927434Y-73669943D01*
X74906953Y-73812400D01*
X74927434Y-73954856D01*
X74965655Y-74038546D01*
X74987223Y-74085773D01*
X75081472Y-74194543D01*
X75202547Y-74272353D01*
X75225082Y-74278969D01*
X75277829Y-74310266D01*
X76519581Y-75552018D01*
X76553066Y-75613341D01*
X76555900Y-75639699D01*
X76555900Y-76177526D01*
X76536215Y-76244565D01*
X76483411Y-76290320D01*
X76479352Y-76292087D01*
X76388475Y-76329729D01*
X76319006Y-76337198D01*
X76256527Y-76305923D01*
X76253342Y-76302849D01*
X76085115Y-76134622D01*
X76085113Y-76134620D01*
X76039450Y-76108256D01*
X75993789Y-76081893D01*
X75927065Y-76064015D01*
X75891927Y-76054600D01*
X75891926Y-76054600D01*
X73573631Y-76054600D01*
X73506592Y-76034915D01*
X73498144Y-76028976D01*
X73495334Y-76026820D01*
X73495333Y-76026818D01*
X73369892Y-75930564D01*
X73289496Y-75897263D01*
X73223813Y-75870056D01*
X73223811Y-75870055D01*
X73067052Y-75849418D01*
X73067050Y-75849418D01*
X72910290Y-75870055D01*
X72910288Y-75870056D01*
X72764211Y-75930563D01*
X72638769Y-76026818D01*
X72542514Y-76152260D01*
X72482007Y-76298337D01*
X72482006Y-76298339D01*
X72461369Y-76455098D01*
X57808908Y-76455098D01*
X57702693Y-76380725D01*
X57702689Y-76380723D01*
X57503994Y-76288070D01*
X57503980Y-76288065D01*
X57292217Y-76231324D01*
X57292207Y-76231322D01*
X57073801Y-76212214D01*
X57073799Y-76212214D01*
X56855392Y-76231322D01*
X56855382Y-76231324D01*
X56643619Y-76288065D01*
X56643605Y-76288070D01*
X56444910Y-76380723D01*
X56444908Y-76380724D01*
X56444907Y-76380725D01*
X56265311Y-76506480D01*
X56265309Y-76506481D01*
X56265306Y-76506484D01*
X56110284Y-76661506D01*
X55984524Y-76841107D01*
X55916182Y-76987670D01*
X55870010Y-77040109D01*
X55802816Y-77059261D01*
X55735935Y-77039045D01*
X55691418Y-76987670D01*
X55623075Y-76841107D01*
X55617300Y-76832860D01*
X55497320Y-76661511D01*
X55342289Y-76506480D01*
X55162693Y-76380725D01*
X55162689Y-76380723D01*
X54963994Y-76288070D01*
X54963980Y-76288065D01*
X54752217Y-76231324D01*
X54752207Y-76231322D01*
X54533801Y-76212214D01*
X54533799Y-76212214D01*
X54315392Y-76231322D01*
X54315382Y-76231324D01*
X54103619Y-76288065D01*
X54103605Y-76288070D01*
X53904910Y-76380723D01*
X53904908Y-76380724D01*
X53904907Y-76380725D01*
X53725311Y-76506480D01*
X53725309Y-76506481D01*
X53725306Y-76506484D01*
X53570284Y-76661506D01*
X53570281Y-76661509D01*
X53570280Y-76661511D01*
X53552673Y-76686657D01*
X53444524Y-76841108D01*
X53444523Y-76841110D01*
X53351870Y-77039805D01*
X53351865Y-77039819D01*
X53295124Y-77251582D01*
X53295122Y-77251592D01*
X53276014Y-77469999D01*
X53276014Y-77470000D01*
X53295122Y-77688407D01*
X53295124Y-77688417D01*
X53351865Y-77900180D01*
X53351870Y-77900194D01*
X53402807Y-78009428D01*
X53444525Y-78098893D01*
X53570280Y-78278489D01*
X53570284Y-78278493D01*
X53725309Y-78433518D01*
X53725315Y-78433523D01*
X53783542Y-78474294D01*
X53827167Y-78528871D01*
X53834361Y-78598369D01*
X53802838Y-78660724D01*
X53800101Y-78663550D01*
X53618269Y-78845382D01*
X53556949Y-78878866D01*
X53530590Y-78881700D01*
X52837665Y-78881700D01*
X52770626Y-78862015D01*
X52738398Y-78832011D01*
X52729617Y-78820281D01*
X52676746Y-78749654D01*
X52626689Y-78712181D01*
X52561535Y-78663406D01*
X52561528Y-78663402D01*
X52426686Y-78613110D01*
X52426685Y-78613109D01*
X52426683Y-78613109D01*
X52367073Y-78606700D01*
X52367063Y-78606700D01*
X51721329Y-78606700D01*
X51721323Y-78606701D01*
X51661716Y-78613108D01*
X51526871Y-78663402D01*
X51526864Y-78663406D01*
X51411655Y-78749652D01*
X51411652Y-78749655D01*
X51325406Y-78864864D01*
X51325402Y-78864871D01*
X51278628Y-78990281D01*
X51275109Y-78999717D01*
X51268700Y-79059327D01*
X50305099Y-79059327D01*
X50298691Y-78999717D01*
X50257613Y-78889582D01*
X50248397Y-78864871D01*
X50248393Y-78864864D01*
X50162147Y-78749655D01*
X50162144Y-78749652D01*
X50046935Y-78663406D01*
X50046928Y-78663402D01*
X49912086Y-78613110D01*
X49912085Y-78613109D01*
X49912083Y-78613109D01*
X49852473Y-78606700D01*
X49852463Y-78606700D01*
X49206729Y-78606700D01*
X49206723Y-78606701D01*
X49147116Y-78613108D01*
X49012271Y-78663402D01*
X49012264Y-78663406D01*
X48897056Y-78749652D01*
X48897055Y-78749653D01*
X48897054Y-78749654D01*
X48844183Y-78820281D01*
X48835402Y-78832011D01*
X48779468Y-78873882D01*
X48736135Y-78881700D01*
X47460577Y-78881700D01*
X47393538Y-78862015D01*
X47347783Y-78809211D01*
X47337839Y-78740053D01*
X47366864Y-78676497D01*
X47408172Y-78645318D01*
X47440093Y-78630433D01*
X47592693Y-78559275D01*
X47772289Y-78433520D01*
X47927320Y-78278489D01*
X48053075Y-78098893D01*
X48145732Y-77900188D01*
X48202477Y-77688412D01*
X48221586Y-77470000D01*
X48221339Y-77467182D01*
X48214942Y-77394056D01*
X48202477Y-77251588D01*
X48145732Y-77039812D01*
X48145374Y-77039045D01*
X48076769Y-76891919D01*
X48053075Y-76841107D01*
X47927320Y-76661511D01*
X47772289Y-76506480D01*
X47592693Y-76380725D01*
X47592689Y-76380723D01*
X47393994Y-76288070D01*
X47393980Y-76288065D01*
X47182217Y-76231324D01*
X47182207Y-76231322D01*
X46963801Y-76212214D01*
X46963799Y-76212214D01*
X46745392Y-76231322D01*
X46745382Y-76231324D01*
X46533619Y-76288065D01*
X46533605Y-76288070D01*
X46334910Y-76380723D01*
X46334908Y-76380724D01*
X46334907Y-76380725D01*
X46155311Y-76506480D01*
X46155309Y-76506481D01*
X46155306Y-76506484D01*
X46000284Y-76661506D01*
X45874524Y-76841107D01*
X45806182Y-76987670D01*
X45760010Y-77040109D01*
X45692816Y-77059261D01*
X45625935Y-77039045D01*
X45581418Y-76987670D01*
X45513075Y-76841107D01*
X45507300Y-76832860D01*
X45387320Y-76661511D01*
X45232289Y-76506480D01*
X45052693Y-76380725D01*
X45052689Y-76380723D01*
X44853994Y-76288070D01*
X44853980Y-76288065D01*
X44642217Y-76231324D01*
X44642207Y-76231322D01*
X44423801Y-76212214D01*
X44423799Y-76212214D01*
X44205392Y-76231322D01*
X44205382Y-76231324D01*
X43993619Y-76288065D01*
X43993605Y-76288070D01*
X43794910Y-76380723D01*
X43794908Y-76380724D01*
X43794907Y-76380725D01*
X43615311Y-76506480D01*
X43615309Y-76506481D01*
X43615306Y-76506484D01*
X43460284Y-76661506D01*
X43460281Y-76661509D01*
X43460280Y-76661511D01*
X43442673Y-76686657D01*
X43334524Y-76841108D01*
X43334523Y-76841110D01*
X43241870Y-77039805D01*
X43241865Y-77039819D01*
X43185124Y-77251582D01*
X43185122Y-77251592D01*
X43166014Y-77469999D01*
X43166014Y-77470000D01*
X43185122Y-77688407D01*
X43185124Y-77688417D01*
X43241865Y-77900180D01*
X43241870Y-77900194D01*
X43292807Y-78009428D01*
X43334525Y-78098893D01*
X43460280Y-78278489D01*
X43615311Y-78433520D01*
X43794907Y-78559275D01*
X43878745Y-78598369D01*
X43993605Y-78651929D01*
X43993607Y-78651929D01*
X43993612Y-78651932D01*
X44205388Y-78708677D01*
X44380117Y-78723964D01*
X44423799Y-78727786D01*
X44423800Y-78727786D01*
X44423801Y-78727786D01*
X44460202Y-78724601D01*
X44642212Y-78708677D01*
X44853988Y-78651932D01*
X44877592Y-78640924D01*
X44946669Y-78630433D01*
X45010453Y-78658953D01*
X45017678Y-78665626D01*
X45844181Y-79492129D01*
X45877666Y-79553452D01*
X45872682Y-79623144D01*
X45830810Y-79679077D01*
X45765346Y-79703494D01*
X45709048Y-79694371D01*
X45678234Y-79681607D01*
X45678222Y-79681603D01*
X45678219Y-79681602D01*
X45424916Y-79613730D01*
X45364281Y-79605747D01*
X45164927Y-79579500D01*
X45164920Y-79579500D01*
X44902680Y-79579500D01*
X44902672Y-79579500D01*
X44671572Y-79609926D01*
X44642684Y-79613730D01*
X44389381Y-79681602D01*
X44389371Y-79681605D01*
X44147109Y-79781953D01*
X44147099Y-79781958D01*
X43919996Y-79913075D01*
X43711948Y-80072718D01*
X43526518Y-80258148D01*
X43366875Y-80466196D01*
X43235758Y-80693299D01*
X43235753Y-80693309D01*
X43135405Y-80935571D01*
X43135402Y-80935581D01*
X43077372Y-81152155D01*
X43067530Y-81188885D01*
X43033300Y-81448872D01*
X41302013Y-81448872D01*
X41302013Y-75086406D01*
X41302014Y-75086403D01*
X41302013Y-75024936D01*
X41302329Y-75016091D01*
X41316641Y-74815955D01*
X41319157Y-74798449D01*
X41360867Y-74606711D01*
X41365846Y-74589753D01*
X41434419Y-74405899D01*
X41441768Y-74389809D01*
X41461550Y-74353581D01*
X41535804Y-74217593D01*
X41545360Y-74202724D01*
X41662953Y-74045638D01*
X41674527Y-74032281D01*
X41813281Y-73893527D01*
X41826638Y-73881953D01*
X41983724Y-73764360D01*
X41998593Y-73754804D01*
X42170814Y-73660765D01*
X42186899Y-73653419D01*
X42370753Y-73584846D01*
X42387711Y-73579867D01*
X42579449Y-73538157D01*
X42596948Y-73535641D01*
X42797093Y-73521328D01*
X42805936Y-73521013D01*
X42867403Y-73521014D01*
X42867407Y-73521013D01*
X64066121Y-73521013D01*
X64132013Y-73521013D01*
X64359515Y-73521013D01*
X64513941Y-73508216D01*
X64812956Y-73483439D01*
X64812958Y-73483438D01*
X64812966Y-73483438D01*
X65261764Y-73408546D01*
X65702845Y-73296848D01*
X65702858Y-73296843D01*
X65702864Y-73296842D01*
X66084524Y-73165817D01*
X66133196Y-73149108D01*
X66549877Y-72966334D01*
X66950041Y-72749776D01*
X67330955Y-72500912D01*
X67330955Y-72500911D01*
X67330964Y-72500906D01*
X67690008Y-72221450D01*
X67690009Y-72221448D01*
X67690018Y-72221442D01*
X68024775Y-71913276D01*
X68332941Y-71578518D01*
X68612411Y-71219456D01*
X68771862Y-70975398D01*
X69142718Y-70975398D01*
X69142718Y-70975401D01*
X69163355Y-71132160D01*
X69163356Y-71132162D01*
X69223864Y-71278241D01*
X69320118Y-71403682D01*
X69445559Y-71499936D01*
X69591638Y-71560444D01*
X69670019Y-71570763D01*
X69748399Y-71581082D01*
X69748400Y-71581082D01*
X69748401Y-71581082D01*
X69800654Y-71574202D01*
X69905162Y-71560444D01*
X70051241Y-71499936D01*
X70176682Y-71403682D01*
X70272936Y-71278241D01*
X70333444Y-71132162D01*
X70334361Y-71125198D01*
X71198818Y-71125198D01*
X71198818Y-71125201D01*
X71219455Y-71281960D01*
X71219456Y-71281962D01*
X71261214Y-71382776D01*
X71279964Y-71428041D01*
X71376218Y-71553482D01*
X71501659Y-71649736D01*
X71647738Y-71710244D01*
X71726119Y-71720563D01*
X71804499Y-71730882D01*
X71804500Y-71730882D01*
X71804501Y-71730882D01*
X71856754Y-71724002D01*
X71961262Y-71710244D01*
X72107341Y-71649736D01*
X72232782Y-71553482D01*
X72329036Y-71428041D01*
X72389544Y-71281962D01*
X72406567Y-71152662D01*
X72410182Y-71125201D01*
X72410182Y-71125198D01*
X72390461Y-70975401D01*
X72389544Y-70968438D01*
X72329036Y-70822359D01*
X72232782Y-70696918D01*
X72107341Y-70600664D01*
X72060896Y-70581426D01*
X71961262Y-70540156D01*
X71961260Y-70540155D01*
X71804501Y-70519518D01*
X71804499Y-70519518D01*
X71647739Y-70540155D01*
X71647737Y-70540156D01*
X71501660Y-70600663D01*
X71376218Y-70696918D01*
X71279963Y-70822360D01*
X71219456Y-70968437D01*
X71219455Y-70968439D01*
X71198818Y-71125198D01*
X70334361Y-71125198D01*
X70354082Y-70975400D01*
X70353165Y-70968438D01*
X70333444Y-70818639D01*
X70333444Y-70818638D01*
X70272936Y-70672559D01*
X70176682Y-70547118D01*
X70051241Y-70450864D01*
X70021138Y-70438395D01*
X69905162Y-70390356D01*
X69905160Y-70390355D01*
X69748401Y-70369718D01*
X69748399Y-70369718D01*
X69591639Y-70390355D01*
X69591637Y-70390356D01*
X69445560Y-70450863D01*
X69445559Y-70450864D01*
X69320118Y-70547118D01*
X69320117Y-70547119D01*
X69320116Y-70547120D01*
X69249168Y-70639581D01*
X69199758Y-70675658D01*
X69202927Y-70717737D01*
X69196224Y-70739286D01*
X69163357Y-70818634D01*
X69163355Y-70818639D01*
X69142718Y-70975398D01*
X68771862Y-70975398D01*
X68861275Y-70838542D01*
X68972608Y-70632816D01*
X69021828Y-70583226D01*
X69029954Y-70581426D01*
X69035135Y-70519380D01*
X69041739Y-70505076D01*
X69052307Y-70485545D01*
X69077834Y-70438378D01*
X69260607Y-70021697D01*
X69408348Y-69591346D01*
X69520045Y-69150265D01*
X69590343Y-68729001D01*
X70667189Y-68729001D01*
X70720960Y-68836990D01*
X70849401Y-69007072D01*
X71006901Y-69150652D01*
X71006903Y-69150654D01*
X71188103Y-69262848D01*
X71188105Y-69262849D01*
X71202901Y-69268580D01*
X71202901Y-69268579D01*
X72202901Y-69268579D01*
X72217696Y-69262849D01*
X72217698Y-69262848D01*
X72398898Y-69150654D01*
X72398900Y-69150652D01*
X72556400Y-69007072D01*
X72684841Y-68836990D01*
X72738613Y-68729001D01*
X73207189Y-68729001D01*
X73260960Y-68836990D01*
X73389401Y-69007072D01*
X73546901Y-69150652D01*
X73546903Y-69150654D01*
X73728103Y-69262848D01*
X73728105Y-69262849D01*
X73742901Y-69268580D01*
X73742901Y-69268579D01*
X74742901Y-69268579D01*
X74757696Y-69262849D01*
X74757698Y-69262848D01*
X74938898Y-69150654D01*
X74938900Y-69150652D01*
X75096400Y-69007072D01*
X75224841Y-68836990D01*
X75278613Y-68729001D01*
X74742901Y-68729001D01*
X74742901Y-69268579D01*
X73742901Y-69268579D01*
X73742901Y-68729001D01*
X73207189Y-68729001D01*
X72738613Y-68729001D01*
X72202901Y-68729001D01*
X72202901Y-69268579D01*
X71202901Y-69268579D01*
X71202901Y-68729001D01*
X70667189Y-68729001D01*
X69590343Y-68729001D01*
X69594938Y-68701467D01*
X69632513Y-68248016D01*
X69632513Y-68020514D01*
X69632513Y-67954622D01*
X69632513Y-65689001D01*
X70547472Y-65689001D01*
X70567145Y-65901311D01*
X70625495Y-66106388D01*
X70625497Y-66106393D01*
X70625497Y-66106395D01*
X70720533Y-66297254D01*
X70720535Y-66297256D01*
X70849029Y-66467408D01*
X71006599Y-66611053D01*
X71187882Y-66723299D01*
X71386703Y-66800322D01*
X71584874Y-66837366D01*
X71647154Y-66869034D01*
X71682427Y-66929347D01*
X71679493Y-66999155D01*
X71639284Y-67056295D01*
X71584873Y-67081144D01*
X71386842Y-67118163D01*
X71386837Y-67118164D01*
X71188111Y-67195150D01*
X71188102Y-67195154D01*
X71006903Y-67307347D01*
X71006901Y-67307349D01*
X70849401Y-67450929D01*
X70720960Y-67621011D01*
X70667188Y-67729000D01*
X70667189Y-67729001D01*
X71637075Y-67729001D01*
X71509908Y-67763076D01*
X71395894Y-67828902D01*
X71302802Y-67921994D01*
X71236976Y-68036008D01*
X71202901Y-68163175D01*
X71202901Y-68294827D01*
X71236976Y-68421994D01*
X71302802Y-68536008D01*
X71395894Y-68629100D01*
X71509908Y-68694926D01*
X71637075Y-68729001D01*
X71768727Y-68729001D01*
X71895894Y-68694926D01*
X72009908Y-68629100D01*
X72103000Y-68536008D01*
X72168826Y-68421994D01*
X72202901Y-68294827D01*
X72202901Y-68163175D01*
X72168826Y-68036008D01*
X72103000Y-67921994D01*
X72009908Y-67828902D01*
X71895894Y-67763076D01*
X71768727Y-67729001D01*
X72738613Y-67729001D01*
X72738613Y-67729000D01*
X73207188Y-67729000D01*
X73207189Y-67729001D01*
X74177075Y-67729001D01*
X74049908Y-67763076D01*
X73935894Y-67828902D01*
X73842802Y-67921994D01*
X73776976Y-68036008D01*
X73742901Y-68163175D01*
X73742901Y-68294827D01*
X73776976Y-68421994D01*
X73842802Y-68536008D01*
X73935894Y-68629100D01*
X74049908Y-68694926D01*
X74177075Y-68729001D01*
X74308727Y-68729001D01*
X74435894Y-68694926D01*
X74549908Y-68629100D01*
X74643000Y-68536008D01*
X74708826Y-68421994D01*
X74742901Y-68294827D01*
X74742901Y-68163175D01*
X74708826Y-68036008D01*
X74643000Y-67921994D01*
X74549908Y-67828902D01*
X74435894Y-67763076D01*
X74308727Y-67729001D01*
X75278613Y-67729001D01*
X75278613Y-67729000D01*
X75224841Y-67621011D01*
X75096400Y-67450929D01*
X74938900Y-67307349D01*
X74938898Y-67307347D01*
X74757699Y-67195154D01*
X74757690Y-67195150D01*
X74558964Y-67118164D01*
X74558959Y-67118163D01*
X74359567Y-67080890D01*
X74297286Y-67049222D01*
X74262013Y-66988909D01*
X74264947Y-66919101D01*
X74305156Y-66861961D01*
X74359567Y-66837112D01*
X74558959Y-66799838D01*
X74558964Y-66799837D01*
X74757690Y-66722851D01*
X74757699Y-66722847D01*
X74938898Y-66610654D01*
X74938900Y-66610652D01*
X75096400Y-66467072D01*
X75224841Y-66296990D01*
X75278613Y-66189001D01*
X74308727Y-66189001D01*
X74435894Y-66154926D01*
X74549908Y-66089100D01*
X74643000Y-65996008D01*
X74708826Y-65881994D01*
X74742901Y-65754827D01*
X74742901Y-65689001D01*
X75627472Y-65689001D01*
X75647145Y-65901311D01*
X75705495Y-66106388D01*
X75705497Y-66106393D01*
X75705497Y-66106395D01*
X75800533Y-66297254D01*
X75800535Y-66297256D01*
X75929029Y-66467408D01*
X76086599Y-66611053D01*
X76267882Y-66723299D01*
X76466703Y-66800322D01*
X76663514Y-66837112D01*
X76725794Y-66868780D01*
X76761067Y-66929093D01*
X76758133Y-66998901D01*
X76717924Y-67056041D01*
X76663514Y-67080889D01*
X76466703Y-67117680D01*
X76466700Y-67117680D01*
X76466700Y-67117681D01*
X76267883Y-67194702D01*
X76267881Y-67194703D01*
X76086600Y-67306948D01*
X75929028Y-67450594D01*
X75800533Y-67620747D01*
X75705497Y-67811606D01*
X75705497Y-67811608D01*
X75647145Y-68016690D01*
X75633572Y-68163175D01*
X75627472Y-68229001D01*
X75647145Y-68441311D01*
X75700576Y-68629100D01*
X75705497Y-68646393D01*
X75705497Y-68646395D01*
X75800533Y-68837254D01*
X75928775Y-69007072D01*
X75929029Y-69007408D01*
X76086599Y-69151053D01*
X76267882Y-69263299D01*
X76466703Y-69340322D01*
X76676291Y-69379501D01*
X76676293Y-69379501D01*
X76889509Y-69379501D01*
X76889511Y-69379501D01*
X77099099Y-69340322D01*
X77297920Y-69263299D01*
X77479203Y-69151053D01*
X77496562Y-69135227D01*
X77559364Y-69104611D01*
X77628751Y-69112808D01*
X77682692Y-69157217D01*
X77704061Y-69223739D01*
X77704100Y-69226865D01*
X77704100Y-71258764D01*
X77704100Y-71357636D01*
X77710837Y-71382777D01*
X77720263Y-71417957D01*
X77729690Y-71453139D01*
X77729691Y-71453140D01*
X77779126Y-71538763D01*
X78631232Y-72390871D01*
X78631236Y-72390874D01*
X78631237Y-72390875D01*
X78669273Y-72412834D01*
X78674047Y-72415590D01*
X78674049Y-72415592D01*
X78674050Y-72415592D01*
X78716862Y-72440310D01*
X78748575Y-72448808D01*
X78748576Y-72448808D01*
X78759198Y-72451654D01*
X78812364Y-72465900D01*
X78812365Y-72465900D01*
X78839526Y-72465900D01*
X78906565Y-72485585D01*
X78906566Y-72485585D01*
X79007347Y-72550353D01*
X79007348Y-72550353D01*
X79007349Y-72550354D01*
X79145436Y-72590899D01*
X79145438Y-72590900D01*
X79145439Y-72590900D01*
X79289362Y-72590900D01*
X79289362Y-72590899D01*
X79406610Y-72556473D01*
X79427450Y-72550354D01*
X79427450Y-72550353D01*
X79427453Y-72550353D01*
X79548528Y-72472543D01*
X79642777Y-72363773D01*
X79702565Y-72232857D01*
X79723047Y-72090400D01*
X79702565Y-71947943D01*
X79642777Y-71817027D01*
X79548528Y-71708257D01*
X79427453Y-71630447D01*
X79427451Y-71630446D01*
X79427449Y-71630445D01*
X79427450Y-71630445D01*
X79289363Y-71589900D01*
X79289361Y-71589900D01*
X79145439Y-71589900D01*
X79145435Y-71589900D01*
X79020377Y-71626620D01*
X78950507Y-71626620D01*
X78897762Y-71595324D01*
X78491419Y-71188981D01*
X78457934Y-71127658D01*
X78455100Y-71101300D01*
X78455100Y-69266900D01*
X78474785Y-69199861D01*
X78527589Y-69154106D01*
X78596747Y-69144162D01*
X78644378Y-69161473D01*
X78808107Y-69262849D01*
X78822901Y-69268580D01*
X78822901Y-69268579D01*
X79822901Y-69268579D01*
X79837696Y-69262849D01*
X79837698Y-69262848D01*
X80018898Y-69150654D01*
X80018900Y-69150652D01*
X80176400Y-69007072D01*
X80304841Y-68836990D01*
X80358613Y-68729001D01*
X79822901Y-68729001D01*
X79822901Y-69268579D01*
X78822901Y-69268579D01*
X78822901Y-68294827D01*
X78856976Y-68421994D01*
X78922802Y-68536008D01*
X79015894Y-68629100D01*
X79129908Y-68694926D01*
X79257075Y-68729001D01*
X79388727Y-68729001D01*
X79515894Y-68694926D01*
X79629908Y-68629100D01*
X79723000Y-68536008D01*
X79788826Y-68421994D01*
X79822901Y-68294827D01*
X79822901Y-68229001D01*
X80707472Y-68229001D01*
X80727145Y-68441311D01*
X80780576Y-68629100D01*
X80785497Y-68646393D01*
X80785497Y-68646395D01*
X80880533Y-68837254D01*
X81008775Y-69007072D01*
X81009029Y-69007408D01*
X81166599Y-69151053D01*
X81347882Y-69263299D01*
X81546703Y-69340322D01*
X81756291Y-69379501D01*
X81756293Y-69379501D01*
X81969509Y-69379501D01*
X81969511Y-69379501D01*
X82179099Y-69340322D01*
X82377920Y-69263299D01*
X82559203Y-69151053D01*
X82716773Y-69007408D01*
X82845267Y-68837256D01*
X82899171Y-68729001D01*
X82940304Y-68646395D01*
X82940304Y-68646394D01*
X82940306Y-68646390D01*
X82998657Y-68441311D01*
X83009430Y-68325048D01*
X83035216Y-68260112D01*
X83079770Y-68228195D01*
X83043398Y-68207332D01*
X83011208Y-68145319D01*
X83009430Y-68132952D01*
X83008750Y-68125614D01*
X82998657Y-68016691D01*
X82940306Y-67811612D01*
X82940304Y-67811607D01*
X82940304Y-67811606D01*
X82845268Y-67620747D01*
X82716773Y-67450594D01*
X82559203Y-67306949D01*
X82377920Y-67194703D01*
X82377918Y-67194702D01*
X82179102Y-67117681D01*
X82179101Y-67117680D01*
X82179099Y-67117680D01*
X81980927Y-67080635D01*
X81918647Y-67048966D01*
X81883374Y-66988654D01*
X81886308Y-66918846D01*
X81926517Y-66861706D01*
X81980928Y-66836857D01*
X82178959Y-66799838D01*
X82178964Y-66799837D01*
X82377690Y-66722851D01*
X82377699Y-66722847D01*
X82558898Y-66610654D01*
X82558900Y-66610652D01*
X82716400Y-66467072D01*
X82844841Y-66296990D01*
X82939834Y-66106217D01*
X82939842Y-66106197D01*
X82998162Y-65901220D01*
X82998163Y-65901216D01*
X83005430Y-65822790D01*
X83031216Y-65757852D01*
X83088016Y-65717164D01*
X83157797Y-65713644D01*
X83218404Y-65748409D01*
X83250594Y-65810421D01*
X83252901Y-65834230D01*
X83252901Y-66583786D01*
X83252903Y-66583809D01*
X83255809Y-66608870D01*
X83255810Y-66608874D01*
X83301112Y-66711475D01*
X83301115Y-66711480D01*
X83380421Y-66790786D01*
X83380426Y-66790789D01*
X83483024Y-66836090D01*
X83508107Y-66839000D01*
X84239332Y-66839000D01*
X84306371Y-66858684D01*
X84352126Y-66911488D01*
X84362070Y-66980647D01*
X84333045Y-67044203D01*
X84274267Y-67081977D01*
X84262116Y-67084889D01*
X84086703Y-67117680D01*
X84086701Y-67117680D01*
X84086699Y-67117681D01*
X83887883Y-67194702D01*
X83887881Y-67194703D01*
X83706600Y-67306948D01*
X83549028Y-67450594D01*
X83420533Y-67620747D01*
X83325497Y-67811606D01*
X83325497Y-67811608D01*
X83267145Y-68016690D01*
X83256372Y-68132952D01*
X83230586Y-68197889D01*
X83186031Y-68229805D01*
X83222404Y-68250669D01*
X83254594Y-68312682D01*
X83256371Y-68325048D01*
X83267145Y-68441311D01*
X83320576Y-68629100D01*
X83325497Y-68646393D01*
X83325497Y-68646395D01*
X83420533Y-68837254D01*
X83548775Y-69007072D01*
X83549029Y-69007408D01*
X83706599Y-69151053D01*
X83887882Y-69263299D01*
X84086703Y-69340322D01*
X84296291Y-69379501D01*
X84296293Y-69379501D01*
X84509509Y-69379501D01*
X84509511Y-69379501D01*
X84719099Y-69340322D01*
X84917920Y-69263299D01*
X85099203Y-69151053D01*
X85256773Y-69007408D01*
X85385267Y-68837256D01*
X85439171Y-68729001D01*
X85480304Y-68646395D01*
X85480304Y-68646394D01*
X85480306Y-68646390D01*
X85538657Y-68441311D01*
X85558330Y-68229001D01*
X85538657Y-68016691D01*
X85480306Y-67811612D01*
X85480304Y-67811607D01*
X85480304Y-67811606D01*
X85385268Y-67620747D01*
X85256773Y-67450594D01*
X85099203Y-67306949D01*
X84917920Y-67194703D01*
X84917918Y-67194702D01*
X84720348Y-67118164D01*
X84719099Y-67117680D01*
X84543682Y-67084888D01*
X84481402Y-67053220D01*
X84446129Y-66992908D01*
X84449063Y-66923100D01*
X84489272Y-66865960D01*
X84553990Y-66839629D01*
X84566468Y-66839000D01*
X85297687Y-66839000D01*
X85297709Y-66838998D01*
X85322770Y-66836092D01*
X85322774Y-66836091D01*
X85425375Y-66790789D01*
X85425380Y-66790786D01*
X85504686Y-66711480D01*
X85504689Y-66711475D01*
X85549990Y-66608878D01*
X85549990Y-66608876D01*
X85552900Y-66583795D01*
X85552901Y-66583792D01*
X85552901Y-66189001D01*
X84468727Y-66189001D01*
X84595894Y-66154926D01*
X84709908Y-66089100D01*
X84803000Y-65996008D01*
X84868826Y-65881994D01*
X84902901Y-65754827D01*
X84902901Y-65623175D01*
X84868826Y-65496008D01*
X84803000Y-65381994D01*
X84709908Y-65288902D01*
X84595894Y-65223076D01*
X84468727Y-65189001D01*
X84902901Y-65189001D01*
X85552900Y-65189001D01*
X85552900Y-64794215D01*
X85552898Y-64794192D01*
X85549992Y-64769131D01*
X85549991Y-64769127D01*
X85504689Y-64666526D01*
X85504686Y-64666521D01*
X85425380Y-64587215D01*
X85425375Y-64587212D01*
X85322777Y-64541911D01*
X85297695Y-64539001D01*
X84902901Y-64539001D01*
X84902901Y-65189001D01*
X84468727Y-65189001D01*
X84337075Y-65189001D01*
X84209908Y-65223076D01*
X84095894Y-65288902D01*
X84002802Y-65381994D01*
X83936976Y-65496008D01*
X83902901Y-65623175D01*
X83902901Y-64539001D01*
X83508115Y-64539001D01*
X83508092Y-64539003D01*
X83483031Y-64541909D01*
X83483027Y-64541910D01*
X83380426Y-64587212D01*
X83380421Y-64587215D01*
X83301115Y-64666521D01*
X83301112Y-64666526D01*
X83255811Y-64769123D01*
X83255811Y-64769125D01*
X83252901Y-64794206D01*
X83252901Y-65543769D01*
X83233216Y-65610808D01*
X83180412Y-65656563D01*
X83111254Y-65666507D01*
X83047698Y-65637482D01*
X83009924Y-65578704D01*
X83005430Y-65555210D01*
X82998163Y-65476784D01*
X82998162Y-65476781D01*
X82939842Y-65271804D01*
X82939834Y-65271784D01*
X82844841Y-65081011D01*
X82716400Y-64910929D01*
X82558900Y-64767349D01*
X82558898Y-64767347D01*
X82377702Y-64655156D01*
X82377694Y-64655152D01*
X82362901Y-64649420D01*
X82362901Y-65623175D01*
X82328826Y-65496008D01*
X82263000Y-65381994D01*
X82169908Y-65288902D01*
X82055894Y-65223076D01*
X81928727Y-65189001D01*
X81797075Y-65189001D01*
X81669908Y-65223076D01*
X81555894Y-65288902D01*
X81462802Y-65381994D01*
X81396976Y-65496008D01*
X81362901Y-65623175D01*
X81362901Y-65754827D01*
X81396976Y-65881994D01*
X81462802Y-65996008D01*
X81555894Y-66089100D01*
X81669908Y-66154926D01*
X81797075Y-66189001D01*
X80827189Y-66189001D01*
X80880960Y-66296990D01*
X81009401Y-66467072D01*
X81166901Y-66610652D01*
X81166903Y-66610654D01*
X81348102Y-66722847D01*
X81348111Y-66722851D01*
X81546837Y-66799837D01*
X81546842Y-66799838D01*
X81744873Y-66836857D01*
X81807154Y-66868525D01*
X81842427Y-66928837D01*
X81839493Y-66998646D01*
X81799284Y-67055786D01*
X81744874Y-67080635D01*
X81722118Y-67084889D01*
X81546703Y-67117680D01*
X81546701Y-67117680D01*
X81546699Y-67117681D01*
X81347883Y-67194702D01*
X81347881Y-67194703D01*
X81166600Y-67306948D01*
X81009028Y-67450594D01*
X80880533Y-67620747D01*
X80785497Y-67811606D01*
X80785497Y-67811608D01*
X80727145Y-68016690D01*
X80713572Y-68163175D01*
X80707472Y-68229001D01*
X79822901Y-68229001D01*
X79822901Y-68163175D01*
X79788826Y-68036008D01*
X79723000Y-67921994D01*
X79629908Y-67828902D01*
X79515894Y-67763076D01*
X79388727Y-67729001D01*
X80358613Y-67729001D01*
X80358613Y-67729000D01*
X80304841Y-67621011D01*
X80176400Y-67450929D01*
X80018900Y-67307349D01*
X80018898Y-67307347D01*
X79837699Y-67195154D01*
X79837690Y-67195150D01*
X79638964Y-67118164D01*
X79638959Y-67118163D01*
X79440928Y-67081144D01*
X79378647Y-67049476D01*
X79343374Y-66989163D01*
X79346308Y-66919355D01*
X79386517Y-66862215D01*
X79440925Y-66837367D01*
X79639099Y-66800322D01*
X79837920Y-66723299D01*
X80019203Y-66611053D01*
X80176773Y-66467408D01*
X80305267Y-66297256D01*
X80305399Y-66296990D01*
X80400304Y-66106395D01*
X80400304Y-66106394D01*
X80400306Y-66106390D01*
X80458657Y-65901311D01*
X80478330Y-65689001D01*
X80458657Y-65476691D01*
X80400306Y-65271612D01*
X80400304Y-65271607D01*
X80400304Y-65271606D01*
X80359171Y-65189000D01*
X80827188Y-65189000D01*
X80827189Y-65189001D01*
X81362901Y-65189001D01*
X81362901Y-64649421D01*
X81362900Y-64649420D01*
X81348107Y-64655152D01*
X81348099Y-64655156D01*
X81166903Y-64767347D01*
X81166901Y-64767349D01*
X81009401Y-64910929D01*
X80880960Y-65081011D01*
X80827188Y-65189000D01*
X80359171Y-65189000D01*
X80305268Y-65080747D01*
X80176773Y-64910594D01*
X80175254Y-64909209D01*
X80019203Y-64766949D01*
X79837920Y-64654703D01*
X79837918Y-64654702D01*
X79738509Y-64616191D01*
X79639099Y-64577680D01*
X79429511Y-64538501D01*
X79216291Y-64538501D01*
X79006703Y-64577680D01*
X79006700Y-64577680D01*
X79006700Y-64577681D01*
X78807883Y-64654702D01*
X78807881Y-64654703D01*
X78626600Y-64766948D01*
X78469028Y-64910594D01*
X78340533Y-65080747D01*
X78245497Y-65271606D01*
X78245497Y-65271608D01*
X78187145Y-65476690D01*
X78176372Y-65592952D01*
X78150586Y-65657889D01*
X78106031Y-65689805D01*
X78142404Y-65710669D01*
X78174594Y-65772682D01*
X78176371Y-65785048D01*
X78187145Y-65901311D01*
X78245495Y-66106388D01*
X78245497Y-66106393D01*
X78245497Y-66106395D01*
X78340533Y-66297254D01*
X78340535Y-66297256D01*
X78469029Y-66467408D01*
X78626599Y-66611053D01*
X78807882Y-66723299D01*
X79006703Y-66800322D01*
X79204874Y-66837366D01*
X79267154Y-66869034D01*
X79302427Y-66929347D01*
X79299493Y-66999155D01*
X79259284Y-67056295D01*
X79204873Y-67081144D01*
X79006842Y-67118163D01*
X79006837Y-67118164D01*
X78808111Y-67195150D01*
X78808102Y-67195155D01*
X78644377Y-67296528D01*
X78577016Y-67315083D01*
X78510317Y-67294275D01*
X78465456Y-67240710D01*
X78455100Y-67191101D01*
X78455100Y-66936267D01*
X78455100Y-66936265D01*
X78429510Y-66840762D01*
X78380075Y-66755138D01*
X78310162Y-66685225D01*
X77880518Y-66255581D01*
X77847033Y-66194258D01*
X77852017Y-66124566D01*
X77857191Y-66112645D01*
X77860306Y-66106390D01*
X77918657Y-65901311D01*
X77929430Y-65785048D01*
X77955216Y-65720112D01*
X77999770Y-65688195D01*
X77963398Y-65667332D01*
X77931208Y-65605319D01*
X77929430Y-65592952D01*
X77928110Y-65578704D01*
X77918657Y-65476691D01*
X77860306Y-65271612D01*
X77860304Y-65271607D01*
X77860304Y-65271606D01*
X77765268Y-65080747D01*
X77636773Y-64910594D01*
X77635254Y-64909209D01*
X77479203Y-64766949D01*
X77297920Y-64654703D01*
X77297918Y-64654702D01*
X77198509Y-64616191D01*
X77099099Y-64577680D01*
X76889511Y-64538501D01*
X76676291Y-64538501D01*
X76466703Y-64577680D01*
X76466700Y-64577680D01*
X76466700Y-64577681D01*
X76267883Y-64654702D01*
X76267881Y-64654703D01*
X76086600Y-64766948D01*
X75929028Y-64910594D01*
X75800533Y-65080747D01*
X75705497Y-65271606D01*
X75705497Y-65271608D01*
X75647145Y-65476690D01*
X75633572Y-65623175D01*
X75627472Y-65689001D01*
X74742901Y-65689001D01*
X74742901Y-65623175D01*
X74708826Y-65496008D01*
X74643000Y-65381994D01*
X74549908Y-65288902D01*
X74435894Y-65223076D01*
X74308727Y-65189001D01*
X74742901Y-65189001D01*
X75278613Y-65189001D01*
X75278613Y-65189000D01*
X75224841Y-65081011D01*
X75096400Y-64910929D01*
X74938900Y-64767349D01*
X74938898Y-64767347D01*
X74757702Y-64655156D01*
X74757694Y-64655152D01*
X74742901Y-64649420D01*
X74742901Y-65189001D01*
X74308727Y-65189001D01*
X74177075Y-65189001D01*
X74049908Y-65223076D01*
X73935894Y-65288902D01*
X73842802Y-65381994D01*
X73776976Y-65496008D01*
X73742901Y-65623175D01*
X73742901Y-65754827D01*
X73776976Y-65881994D01*
X73842802Y-65996008D01*
X73935894Y-66089100D01*
X74049908Y-66154926D01*
X74177075Y-66189001D01*
X73207189Y-66189001D01*
X73260960Y-66296990D01*
X73389401Y-66467072D01*
X73546901Y-66610652D01*
X73546903Y-66610654D01*
X73728102Y-66722847D01*
X73728111Y-66722851D01*
X73926837Y-66799837D01*
X73926842Y-66799838D01*
X74126234Y-66837112D01*
X74188515Y-66868780D01*
X74223788Y-66929093D01*
X74220854Y-66998901D01*
X74180645Y-67056041D01*
X74126234Y-67080890D01*
X73926842Y-67118163D01*
X73926837Y-67118164D01*
X73728111Y-67195150D01*
X73728102Y-67195154D01*
X73546903Y-67307347D01*
X73546901Y-67307349D01*
X73389401Y-67450929D01*
X73260960Y-67621011D01*
X73207188Y-67729000D01*
X72738613Y-67729000D01*
X72684841Y-67621011D01*
X72556400Y-67450929D01*
X72398900Y-67307349D01*
X72398898Y-67307347D01*
X72217699Y-67195154D01*
X72217690Y-67195150D01*
X72018964Y-67118164D01*
X72018959Y-67118163D01*
X71820928Y-67081144D01*
X71758647Y-67049476D01*
X71723374Y-66989163D01*
X71726308Y-66919355D01*
X71766517Y-66862215D01*
X71820925Y-66837367D01*
X72019099Y-66800322D01*
X72217920Y-66723299D01*
X72399203Y-66611053D01*
X72556773Y-66467408D01*
X72685267Y-66297256D01*
X72685399Y-66296990D01*
X72780304Y-66106395D01*
X72780304Y-66106394D01*
X72780306Y-66106390D01*
X72838657Y-65901311D01*
X72858330Y-65689001D01*
X72838657Y-65476691D01*
X72780306Y-65271612D01*
X72780304Y-65271607D01*
X72780304Y-65271606D01*
X72739171Y-65189000D01*
X73207188Y-65189000D01*
X73207189Y-65189001D01*
X73742901Y-65189001D01*
X73742901Y-64649421D01*
X73742900Y-64649420D01*
X73728107Y-64655152D01*
X73728099Y-64655156D01*
X73546903Y-64767347D01*
X73546901Y-64767349D01*
X73389401Y-64910929D01*
X73260960Y-65081011D01*
X73207188Y-65189000D01*
X72739171Y-65189000D01*
X72685268Y-65080747D01*
X72556773Y-64910594D01*
X72555254Y-64909209D01*
X72399203Y-64766949D01*
X72217920Y-64654703D01*
X72217918Y-64654702D01*
X72118509Y-64616191D01*
X72019099Y-64577680D01*
X71809511Y-64538501D01*
X71596291Y-64538501D01*
X71386703Y-64577680D01*
X71386700Y-64577680D01*
X71386700Y-64577681D01*
X71187883Y-64654702D01*
X71187881Y-64654703D01*
X71006600Y-64766948D01*
X70849028Y-64910594D01*
X70720533Y-65080747D01*
X70625497Y-65271606D01*
X70625497Y-65271608D01*
X70567145Y-65476690D01*
X70553572Y-65623175D01*
X70547472Y-65689001D01*
X69632513Y-65689001D01*
X69632513Y-65188506D01*
X69632514Y-65188503D01*
X69632513Y-65127036D01*
X69632829Y-65118191D01*
X69647141Y-64918055D01*
X69647142Y-64918053D01*
X69647141Y-64918048D01*
X69649657Y-64900549D01*
X69691367Y-64708811D01*
X69696346Y-64691853D01*
X69764919Y-64507999D01*
X69772268Y-64491909D01*
X69866304Y-64319693D01*
X69875860Y-64304824D01*
X69993453Y-64147738D01*
X70005029Y-64134380D01*
X70143781Y-63995627D01*
X70157138Y-63984053D01*
X70314224Y-63866460D01*
X70329093Y-63856904D01*
X70501314Y-63762865D01*
X70517399Y-63755519D01*
X70701253Y-63686946D01*
X70718211Y-63681967D01*
X70909949Y-63640257D01*
X70927448Y-63637741D01*
X71127593Y-63623428D01*
X71136436Y-63623113D01*
X71197903Y-63623114D01*
X71197907Y-63623113D01*
X85827619Y-63623113D01*
X85889082Y-63623113D01*
X85897928Y-63623428D01*
G37*
%TD.AperFunction*%
%TD*%
M02*
