%TF.GenerationSoftware,KiCad,Pcbnew,8.0.6*%
%TF.CreationDate,2026-02-16T15:05:02+02:00*%
%TF.ProjectId,ETH_TMC_shield,4554485f-544d-4435-9f73-6869656c642e,rev?*%
%TF.SameCoordinates,Original*%
%TF.FileFunction,Soldermask,Top*%
%TF.FilePolarity,Negative*%
%FSLAX46Y46*%
G04 Gerber Fmt 4.6, Leading zero omitted, Abs format (unit mm)*
G04 Created by KiCad (PCBNEW 8.0.6) date 2026-02-16 15:05:02*
%MOMM*%
%LPD*%
G01*
G04 APERTURE LIST*
G04 Aperture macros list*
%AMRoundRect*
0 Rectangle with rounded corners*
0 $1 Rounding radius*
0 $2 $3 $4 $5 $6 $7 $8 $9 X,Y pos of 4 corners*
0 Add a 4 corners polygon primitive as box body*
4,1,4,$2,$3,$4,$5,$6,$7,$8,$9,$2,$3,0*
0 Add four circle primitives for the rounded corners*
1,1,$1+$1,$2,$3*
1,1,$1+$1,$4,$5*
1,1,$1+$1,$6,$7*
1,1,$1+$1,$8,$9*
0 Add four rect primitives between the rounded corners*
20,1,$1+$1,$2,$3,$4,$5,0*
20,1,$1+$1,$4,$5,$6,$7,0*
20,1,$1+$1,$6,$7,$8,$9,0*
20,1,$1+$1,$8,$9,$2,$3,0*%
G04 Aperture macros list end*
%ADD10RoundRect,0.075000X-0.700000X0.075000X-0.700000X-0.075000X0.700000X-0.075000X0.700000X0.075000X0*%
%ADD11RoundRect,0.075000X-0.075000X0.700000X-0.075000X-0.700000X0.075000X-0.700000X0.075000X0.700000X0*%
%ADD12RoundRect,0.225000X-0.250000X0.225000X-0.250000X-0.225000X0.250000X-0.225000X0.250000X0.225000X0*%
%ADD13RoundRect,0.135000X0.185000X-0.135000X0.185000X0.135000X-0.185000X0.135000X-0.185000X-0.135000X0*%
%ADD14R,0.450000X1.500000*%
%ADD15O,1.800000X1.100000*%
%ADD16O,2.200000X1.100000*%
%ADD17R,0.900000X0.800000*%
%ADD18RoundRect,0.140000X-0.140000X-0.170000X0.140000X-0.170000X0.140000X0.170000X-0.140000X0.170000X0*%
%ADD19RoundRect,0.250000X-0.337500X-0.475000X0.337500X-0.475000X0.337500X0.475000X-0.337500X0.475000X0*%
%ADD20RoundRect,0.140000X0.140000X0.170000X-0.140000X0.170000X-0.140000X-0.170000X0.140000X-0.170000X0*%
%ADD21RoundRect,0.147500X0.172500X-0.147500X0.172500X0.147500X-0.172500X0.147500X-0.172500X-0.147500X0*%
%ADD22RoundRect,0.250000X-0.475000X0.337500X-0.475000X-0.337500X0.475000X-0.337500X0.475000X0.337500X0*%
%ADD23C,3.500000*%
%ADD24RoundRect,0.102000X-0.862500X-0.862500X0.862500X-0.862500X0.862500X0.862500X-0.862500X0.862500X0*%
%ADD25C,1.929000*%
%ADD26C,2.109000*%
%ADD27C,2.979000*%
%ADD28RoundRect,0.175000X0.175000X0.325000X-0.175000X0.325000X-0.175000X-0.325000X0.175000X-0.325000X0*%
%ADD29RoundRect,0.150000X0.200000X0.150000X-0.200000X0.150000X-0.200000X-0.150000X0.200000X-0.150000X0*%
%ADD30R,1.700000X1.700000*%
%ADD31O,1.700000X1.700000*%
%ADD32RoundRect,0.140000X0.170000X-0.140000X0.170000X0.140000X-0.170000X0.140000X-0.170000X-0.140000X0*%
%ADD33R,1.000000X1.000000*%
%ADD34O,1.000000X1.000000*%
%ADD35RoundRect,0.135000X-0.135000X-0.185000X0.135000X-0.185000X0.135000X0.185000X-0.135000X0.185000X0*%
%ADD36R,0.254000X0.762000*%
%ADD37R,0.762000X0.254000*%
%ADD38R,2.590800X2.590800*%
%ADD39RoundRect,0.140000X-0.170000X0.140000X-0.170000X-0.140000X0.170000X-0.140000X0.170000X0.140000X0*%
%ADD40RoundRect,0.250000X0.337500X0.475000X-0.337500X0.475000X-0.337500X-0.475000X0.337500X-0.475000X0*%
%ADD41RoundRect,0.135000X-0.185000X0.135000X-0.185000X-0.135000X0.185000X-0.135000X0.185000X0.135000X0*%
G04 APERTURE END LIST*
D10*
%TO.C,U6*%
X84177651Y-80452100D03*
X84177651Y-80952100D03*
X84177651Y-81452100D03*
X84177651Y-81952100D03*
X84177651Y-82452100D03*
X84177651Y-82952100D03*
X84177651Y-83452100D03*
X84177651Y-83952100D03*
X84177651Y-84452100D03*
X84177651Y-84952100D03*
X84177651Y-85452100D03*
X84177651Y-85952100D03*
X84177651Y-86452100D03*
X84177651Y-86952100D03*
X84177651Y-87452100D03*
X84177651Y-87952100D03*
D11*
X82252651Y-89877100D03*
X81752651Y-89877100D03*
X81252651Y-89877100D03*
X80752651Y-89877100D03*
X80252651Y-89877100D03*
X79752651Y-89877100D03*
X79252651Y-89877100D03*
X78752651Y-89877100D03*
X78252651Y-89877100D03*
X77752651Y-89877100D03*
X77252651Y-89877100D03*
X76752651Y-89877100D03*
X76252651Y-89877100D03*
X75752651Y-89877100D03*
X75252651Y-89877100D03*
X74752651Y-89877100D03*
D10*
X72827651Y-87952100D03*
X72827651Y-87452100D03*
X72827651Y-86952100D03*
X72827651Y-86452100D03*
X72827651Y-85952100D03*
X72827651Y-85452100D03*
X72827651Y-84952100D03*
X72827651Y-84452100D03*
X72827651Y-83952100D03*
X72827651Y-83452100D03*
X72827651Y-82952100D03*
X72827651Y-82452100D03*
X72827651Y-81952100D03*
X72827651Y-81452100D03*
X72827651Y-80952100D03*
X72827651Y-80452100D03*
D11*
X74752651Y-78527100D03*
X75252651Y-78527100D03*
X75752651Y-78527100D03*
X76252651Y-78527100D03*
X76752651Y-78527100D03*
X77252651Y-78527100D03*
X77752651Y-78527100D03*
X78252651Y-78527100D03*
X78752651Y-78527100D03*
X79252651Y-78527100D03*
X79752651Y-78527100D03*
X80252651Y-78527100D03*
X80752651Y-78527100D03*
X81252651Y-78527100D03*
X81752651Y-78527100D03*
X82252651Y-78527100D03*
%TD*%
D12*
%TO.C,C47*%
X82240000Y-73443800D03*
X82240000Y-74993800D03*
%TD*%
D13*
%TO.C,R39*%
X78785600Y-92516000D03*
X78785600Y-91496000D03*
%TD*%
D14*
%TO.C,J5*%
X67431800Y-93340800D03*
X66781800Y-93340800D03*
X66131800Y-93340800D03*
X65481800Y-93340800D03*
X64831800Y-93340800D03*
D15*
X68931800Y-93590800D03*
D16*
X66131800Y-91440800D03*
D15*
X63331800Y-93590800D03*
%TD*%
D17*
%TO.C,Y2*%
X79326651Y-75938300D03*
X80726651Y-75938300D03*
X80726651Y-74838300D03*
X79326651Y-74838300D03*
%TD*%
D18*
%TO.C,C46*%
X83543200Y-78282800D03*
X84503200Y-78282800D03*
%TD*%
D19*
%TO.C,C43*%
X71804500Y-71125200D03*
X73879500Y-71125200D03*
%TD*%
D20*
%TO.C,C57*%
X64002800Y-86410800D03*
X63042800Y-86410800D03*
%TD*%
D21*
%TO.C,D3*%
X75412600Y-73812400D03*
X75412600Y-72842400D03*
%TD*%
D22*
%TO.C,C5*%
X69748400Y-70975400D03*
X69748400Y-73050400D03*
%TD*%
D23*
%TO.C,J6*%
X45033800Y-81580000D03*
X56463800Y-81580000D03*
D24*
X55193800Y-87930000D03*
D25*
X53923800Y-90470000D03*
X52653800Y-87930000D03*
X51383800Y-90470000D03*
X50113800Y-87930000D03*
X48843800Y-90470000D03*
X47573800Y-87930000D03*
X46303800Y-90470000D03*
D26*
X57073800Y-77470000D03*
X54533800Y-77470000D03*
X46963800Y-77470000D03*
X44423800Y-77470000D03*
D27*
X42793800Y-85470000D03*
X58703800Y-85470000D03*
%TD*%
D28*
%TO.C,D8*%
X65333000Y-97402200D03*
D29*
X65333000Y-95702200D03*
X63333000Y-95702200D03*
X63333000Y-97602200D03*
%TD*%
D30*
%TO.C,J11*%
X71417901Y-100690201D03*
D31*
X71417901Y-103230201D03*
X68877901Y-100690201D03*
X68877901Y-103230201D03*
X66337901Y-100690201D03*
X66337901Y-103230201D03*
X63797901Y-100690201D03*
X63797901Y-103230201D03*
X61257901Y-100690201D03*
X61257901Y-103230201D03*
X58717901Y-100690201D03*
X58717901Y-103230201D03*
%TD*%
D32*
%TO.C,C44*%
X72696851Y-90259500D03*
X72696851Y-89299500D03*
%TD*%
D33*
%TO.C,J12*%
X86791800Y-77582000D03*
D34*
X86791800Y-78852000D03*
%TD*%
D35*
%TO.C,R32*%
X61997400Y-85090000D03*
X63017400Y-85090000D03*
%TD*%
D32*
%TO.C,C58*%
X62839600Y-80766800D03*
X62839600Y-79806800D03*
%TD*%
D33*
%TO.C,J13*%
X86791800Y-80137000D03*
D34*
X86791800Y-81407000D03*
X86791800Y-82677000D03*
%TD*%
D36*
%TO.C,U9*%
X64963051Y-85446700D03*
X65463050Y-85446700D03*
X65963051Y-85446700D03*
X66463051Y-85446700D03*
X66963052Y-85446700D03*
X67463051Y-85446700D03*
D37*
X68181551Y-84728200D03*
X68181551Y-84228201D03*
X68181551Y-83728200D03*
X68181551Y-83228200D03*
X68181551Y-82728199D03*
X68181551Y-82228200D03*
D36*
X67463051Y-81509700D03*
X66963052Y-81509700D03*
X66463051Y-81509700D03*
X65963051Y-81509700D03*
X65463050Y-81509700D03*
X64963051Y-81509700D03*
D37*
X64244551Y-82228200D03*
X64244551Y-82728199D03*
X64244551Y-83228200D03*
X64244551Y-83728200D03*
X64244551Y-84228201D03*
X64244551Y-84728200D03*
D38*
X66213051Y-83478200D03*
%TD*%
D30*
%TO.C,J10*%
X84402901Y-65689001D03*
D31*
X84402901Y-68229001D03*
X81862901Y-65689001D03*
X81862901Y-68229001D03*
X79322901Y-65689001D03*
X79322901Y-68229001D03*
X76782901Y-65689001D03*
X76782901Y-68229001D03*
X74242901Y-65689001D03*
X74242901Y-68229001D03*
X71702901Y-65689001D03*
X71702901Y-68229001D03*
%TD*%
D13*
%TO.C,R41*%
X80995400Y-92437800D03*
X80995400Y-91417800D03*
%TD*%
D39*
%TO.C,C3*%
X60401200Y-97360800D03*
X60401200Y-98320800D03*
%TD*%
D18*
%TO.C,C7*%
X83136800Y-89966800D03*
X84096800Y-89966800D03*
%TD*%
D21*
%TO.C,D2*%
X76504800Y-73824300D03*
X76504800Y-72854300D03*
%TD*%
D18*
%TO.C,C51*%
X67668200Y-87757000D03*
X68628200Y-87757000D03*
%TD*%
D39*
%TO.C,C59*%
X65913000Y-87708800D03*
X65913000Y-88668800D03*
%TD*%
D18*
%TO.C,C50*%
X67670800Y-86766400D03*
X68630800Y-86766400D03*
%TD*%
D12*
%TO.C,C48*%
X77842601Y-74376399D03*
X77842601Y-75926399D03*
%TD*%
D40*
%TO.C,C42*%
X58746300Y-97129600D03*
X56671300Y-97129600D03*
%TD*%
D32*
%TO.C,C10*%
X71089400Y-87960200D03*
X71089400Y-87000200D03*
%TD*%
D41*
%TO.C,R40*%
X80004800Y-91417800D03*
X80004800Y-92437800D03*
%TD*%
D39*
%TO.C,C1*%
X70967600Y-81612800D03*
X70967600Y-82572800D03*
%TD*%
M02*
