0
SECTION
2
HEADER
9
$INSUNITS
70
4
9
$ACADVER
1
AC1014
9
$HANDSEED
5
FFFF
0
ENDSEC
0
SECTION
2
TABLES
0
TABLE
2
VPORT
5
8
100
AcDbSymbolTable
0
ENDTAB
0
TABLE
2
LTYPE
5
5
100
AcDbSymbolTable
0
LTYPE
5
14
100
AcDbSymbolTableRecord
100
AcDbLinetypeTableRecord
2
BYBLOCK
70
0
0
LTYPE
5
15
100
AcDbSymbolTableRecord
100
AcDbLinetypeTableRecord
2
BYLAYER
70
0
0
LTYPE
5
16
100
AcDbSymbolTableRecord
100
AcDbLinetypeTableRecord
2
DASHED
70
0
3
Dashed __ __ __ __ __ __ __ __ __ __ __ __ __ _
72
65
73
2
40
0.75
49
0.5
74
0
49
-0.25
74
0
0
ENDTAB
0
TABLE
2
LAYER
5
2
100
AcDbSymbolTable
70
2
0
LAYER
5
50
100
AcDbSymbolTableRecord
100
AcDbLayerTableRecord
2
0
70
0
62
7
6
CONTINUOUS
0
ENDTAB
0
TABLE
2
STYLE
5
3
100
AcDbSymbolTable
70
1
0
STYLE
5
11
100
AcDbSymbolTableRecord
100
AcDbTextStyleTableRecord
2
STANDARD
70
0
0
ENDTAB
0
TABLE
2
VIEW
5
6
100
AcDbSymbolTable
70
0
0
ENDTAB
0
TABLE
2
UCS
5
7
100
AcDbSymbolTable
70
0
0
ENDTAB
0
TABLE
2
APPID
5
9
100
AcDbSymbolTable
70
2
0
APPID
5
12
100
AcDbSymbolTableRecord
100
AcDbRegAppTableRecord
2
ACAD
70
0
0
ENDTAB
0
TABLE
2
DIMSTYLE
5
A
100
AcDbSymbolTable
70
1
0
ENDTAB
0
TABLE
2
BLOCK_RECORD
5
1
100
AcDbSymbolTable
70
1
0
BLOCK_RECORD
5
1F
100
AcDbSymbolTableRecord
100
AcDbBlockTableRecord
2
*MODEL_SPACE
0
BLOCK_RECORD
5
1B
100
AcDbSymbolTableRecord
100
AcDbBlockTableRecord
2
*PAPER_SPACE
0
ENDTAB
0
ENDSEC
0
SECTION
2
BLOCKS
0
BLOCK
5
20
100
AcDbEntity
100
AcDbBlockBegin
2
*MODEL_SPACE
0
ENDBLK
5
21
100
AcDbEntity
100
AcDbBlockEnd
0
BLOCK
5
1C
100
AcDbEntity
100
AcDbBlockBegin
2
*PAPER_SPACE
0
ENDBLK
5
1D
100
AcDbEntity
100
AcDbBlockEnd
0
ENDSEC
0
SECTION
2
ENTITIES
0
LWPOLYLINE
5
100
100
AcDbEntity
8
0
100
AcDbPolyline
90
32
70
1
43
0.0
10
19.499999998641997
20
27.501209360601756
42
0.41421356237309503
10
16.999999998641997
20
30.001209360601756
10
6.5899999986419955
20
30.001209360601756
10
6.5899999986419955
20
28.601209360601754
10
7.8899999986419944
20
28.601209360601754
10
7.8899999986419944
20
22.001209360601752
10
-7.8900000013580058
20
22.001209360601752
10
-7.8900000013580058
20
28.601209360601754
10
-6.590000001358006
20
28.601209360601754
10
-6.590000001358006
20
30.001209360601756
10
-17.000000001358007
20
30.001209360601756
42
0.41421356237309503
10
-19.500000001358007
20
27.501209360601756
10
-19.500000001358
20
24.001209360601756
42
-0.41421356237309503
10
-24.000000001358011
20
19.501209360601742
10
-27.500000001358007
20
19.501209360601752
42
0.41421356237309503
10
-30.000000001358007
20
17.001209360601752
10
-30.000000001358007
20
-16.998790639398251
42
0.41421356237309476
10
-27.500000001358007
20
-19.498790639398248
10
-24.000000001358011
20
-19.498790639398244
42
-0.41421356237309476
10
-19.500000001358
20
-23.998790639398248
10
-19.500000001358011
20
-27.498790639398251
42
0.41421356237309503
10
-17.000000001358011
20
-29.998790639398251
10
16.999999998641993
20
-29.998790639398251
42
0.41421356237309503
10
19.499999998641993
20
-27.498790639398251
10
19.499999998641997
20
-23.998790639398248
42
-0.41421356237309442
10
23.999999998641997
20
-19.498790639398248
10
27.499999998641993
20
-19.498790639398248
42
0.41421356237309503
10
29.999999998641993
20
-16.998790639398248
10
29.999999998641993
20
17.001209360601756
42
0.41421356237309476
10
27.499999998641993
20
19.501209360601752
10
23.999999998641997
20
19.501209360601756
42
-0.41421356237309387
10
19.499999998641997
20
24.001209360601756
0
LWPOLYLINE
5
101
100
AcDbEntity
8
0
100
AcDbPolyline
90
4
70
1
43
0.0
10
26.049999998641997
20
-16.498790639398248
10
25.249999998641997
20
-16.498790639396947
10
25.249999998641997
20
-15.998790639396949
10
26.049999998641997
20
-15.998790639395349
0
LWPOLYLINE
5
102
100
AcDbEntity
8
0
100
AcDbPolyline
90
4
70
1
43
0.0
10
22.382070359307594
20
-10.898790639402847
10
22.382070359309193
20
-11.198790639403146
10
22.349999998639497
20
-11.198790639403347
10
22.349999998637898
20
-10.898790639403346
0
LWPOLYLINE
5
103
100
AcDbEntity
8
0
100
AcDbPolyline
90
4
70
1
43
0.0
10
22.382070359310994
20
-11.548790639402849
10
22.382070359312497
20
-11.848790639403147
10
22.349999998642794
20
-11.848790639403347
10
22.349999998641191
20
-11.548790639403348
0
LWPOLYLINE
5
104
100
AcDbEntity
8
0
100
AcDbPolyline
90
4
70
1
43
0.0
10
22.382070359314294
20
-12.198790639402848
10
22.382070359315797
20
-12.498790639403248
10
22.349999998646094
20
-12.498790639403348
10
22.349999998644595
20
-12.198790639403347
0
LWPOLYLINE
5
105
100
AcDbEntity
8
0
100
AcDbPolyline
90
4
70
1
43
0.0
10
24.317929637976398
20
-12.498790639393746
10
24.317929637974792
20
-12.198790639393247
10
24.349999998644591
20
-12.198790639393149
10
24.349999998646098
20
-12.49879063939315
0
LWPOLYLINE
5
106
100
AcDbEntity
8
0
100
AcDbPolyline
90
4
70
1
43
0.0
10
24.317929637973098
20
-11.84879063939375
10
24.317929637971496
20
-11.548790639393246
10
24.349999998641195
20
-11.548790639393147
10
24.349999998642797
20
-11.848790639393147
0
LWPOLYLINE
5
107
100
AcDbEntity
8
0
100
AcDbPolyline
90
4
70
1
43
0.0
10
24.317929637969694
20
-11.198790639393648
10
24.317929637968195
20
-10.898790639393248
10
24.349999998637895
20
-10.898790639393148
10
24.349999998639493
20
-11.198790639393149
0
LWPOLYLINE
5
108
100
AcDbEntity
8
0
100
AcDbPolyline
90
4
70
1
43
0.0
10
24.149999998641995
20
8.4082797212714553
10
24.149999998641995
20
8.0012093606017523
10
23.799999998641997
20
8.0012093606017523
10
23.799999998641997
20
8.4082797212714553
0
LWPOLYLINE
5
109
100
AcDbEntity
8
0
100
AcDbPolyline
90
4
70
1
43
0.0
10
24.799999998641997
20
8.4082797212714553
10
24.799999998641997
20
8.0012093606017523
10
24.449999998641996
20
8.0012093606017523
10
24.449999998641996
20
8.4082797212714553
0
LWPOLYLINE
5
110
100
AcDbEntity
8
0
100
AcDbPolyline
90
4
70
1
43
0.0
10
25.449999998641992
20
8.4082797212714553
10
25.449999998641992
20
8.0012093606017523
10
25.099999998641994
20
8.0012093606017523
10
25.099999998641994
20
8.4082797212714553
0
LWPOLYLINE
5
111
100
AcDbEntity
8
0
100
AcDbPolyline
90
4
70
1
43
0.0
10
26.099999998641998
20
8.4082797212714553
10
26.099999998641998
20
8.0012093606017523
10
25.749999998641997
20
8.0012093606017523
10
25.749999998641997
20
8.4082797212714553
0
LWPOLYLINE
5
112
100
AcDbEntity
8
0
100
AcDbPolyline
90
4
70
1
43
0.0
10
25.749999998641997
20
12.494138999932055
10
25.749999998641997
20
12.901209360601753
10
26.099999998641998
20
12.901209360601753
10
26.099999998641998
20
12.494138999932055
0
LWPOLYLINE
5
113
100
AcDbEntity
8
0
100
AcDbPolyline
90
4
70
1
43
0.0
10
25.099999998641994
20
12.494138999932055
10
25.099999998641994
20
12.901209360601753
10
25.449999998641992
20
12.901209360601753
10
25.449999998641992
20
12.494138999932055
0
LWPOLYLINE
5
114
100
AcDbEntity
8
0
100
AcDbPolyline
90
4
70
1
43
0.0
10
24.449999998641996
20
12.494138999932055
10
24.449999998641996
20
12.901209360601753
10
24.799999998641997
20
12.901209360601753
10
24.799999998641997
20
12.494138999932055
0
LWPOLYLINE
5
115
100
AcDbEntity
8
0
100
AcDbPolyline
90
4
70
1
43
0.0
10
23.799999998641997
20
12.494138999932055
10
23.799999998641997
20
12.901209360601753
10
24.149999998641995
20
12.901209360601753
10
24.149999998641995
20
12.494138999932055
0
LWPOLYLINE
5
116
100
AcDbEntity
8
0
100
AcDbPolyline
90
4
70
1
43
0.0
10
11.506323763329993
20
-10.05879063941865
10
10.999999998628493
20
-10.058790639421147
10
10.999999998627395
20
-9.8387906394211964
10
11.506323763328894
20
-9.8387906394186473
0
LWPOLYLINE
5
117
100
AcDbEntity
8
0
100
AcDbPolyline
90
4
70
1
43
0.0
10
11.506323763332594
20
-10.55879063941865
10
10.999999998631093
20
-10.558790639421147
10
10.999999998629995
20
-10.338790639421147
10
11.506323763331395
20
-10.338790639418647
0
LWPOLYLINE
5
118
100
AcDbEntity
8
0
100
AcDbPolyline
90
4
70
1
43
0.0
10
11.506323763335093
20
-11.058790639418648
10
10.999999998633594
20
-11.058790639421147
10
10.999999998632493
20
-10.838790639421148
10
11.506323763333995
20
-10.838790639418647
0
LWPOLYLINE
5
119
100
AcDbEntity
8
0
100
AcDbPolyline
90
4
70
1
43
0.0
10
11.506323763337694
20
-11.558790639418648
10
10.999999998636195
20
-11.558790639421147
10
10.999999998635095
20
-11.338790639421148
10
11.506323763336493
20
-11.338790639418647
0
LWPOLYLINE
5
120
100
AcDbEntity
8
0
100
AcDbPolyline
90
4
70
1
43
0.0
10
11.506323763340195
20
-12.058790639418648
10
10.999999998638692
20
-12.058790639421149
10
10.999999998637593
20
-11.838790639421248
10
11.506323763339095
20
-11.838790639418647
0
LWPOLYLINE
5
121
100
AcDbEntity
8
0
100
AcDbPolyline
90
4
70
1
43
0.0
10
11.506323763342793
20
-12.55879063941865
10
10.999999998641295
20
-12.558790639421149
10
10.999999998640194
20
-12.338790639421248
10
11.506323763341692
20
-12.338790639418649
0
LWPOLYLINE
5
122
100
AcDbEntity
8
0
100
AcDbPolyline
90
4
70
1
43
0.0
10
11.506323763345295
20
-13.05879063941865
10
10.999999998643894
20
-13.058790639421147
10
10.999999998642693
20
-12.83879063942125
10
11.506323763344193
20
-12.838790639418649
0
LWPOLYLINE
5
123
100
AcDbEntity
8
0
100
AcDbPolyline
90
4
70
1
43
0.0
10
11.506323763347893
20
-13.55879063941865
10
10.999999998646393
20
-13.558790639421147
10
10.999999998645293
20
-13.338790639421148
10
11.506323763346693
20
-13.338790639418647
0
LWPOLYLINE
5
124
100
AcDbEntity
8
0
100
AcDbPolyline
90
4
70
1
43
0.0
10
11.506323763350393
20
-14.058790639418648
10
10.999999998648995
20
-14.058790639421147
10
10.999999998647894
20
-13.838790639421148
10
11.506323763349293
20
-13.838790639418647
0
LWPOLYLINE
5
125
100
AcDbEntity
8
0
100
AcDbPolyline
90
4
70
1
43
0.0
10
11.506323763352995
20
-14.558790639418648
10
10.999999998651493
20
-14.558790639421149
10
10.999999998650393
20
-14.338790639421148
10
11.506323763351794
20
-14.338790639418647
0
LWPOLYLINE
5
126
100
AcDbEntity
8
0
100
AcDbPolyline
90
4
70
1
43
0.0
10
11.506323763355493
20
-15.05879063941865
10
10.999999998654094
20
-15.058790639421247
10
10.999999998652894
20
-14.838790639421248
10
11.506323763354393
20
-14.838790639418649
0
LWPOLYLINE
5
127
100
AcDbEntity
8
0
100
AcDbPolyline
90
4
70
1
43
0.0
10
11.506323763358093
20
-15.55879063941865
10
10.999999998656593
20
-15.558790639421247
10
10.999999998655493
20
-15.33879063942125
10
11.506323763356894
20
-15.338790639418649
0
LWPOLYLINE
5
128
100
AcDbEntity
8
0
100
AcDbPolyline
90
4
70
1
43
0.0
10
12.859999998662392
20
-16.692466874710249
10
12.859999998664895
20
-17.198790639411747
10
12.639999998664893
20
-17.198790639412849
10
12.639999998662395
20
-16.692466874711346
0
LWPOLYLINE
5
129
100
AcDbEntity
8
0
100
AcDbPolyline
90
4
70
1
43
0.0
10
13.359999998662392
20
-16.692466874707648
10
13.359999998664993
20
-17.198790639409147
10
13.139999998664893
20
-17.198790639410248
10
13.139999998662395
20
-16.692466874708845
0
LWPOLYLINE
5
130
100
AcDbEntity
8
0
100
AcDbPolyline
90
4
70
1
43
0.0
10
13.859999998662394
20
-16.692466874705147
10
13.859999998664993
20
-17.198790639406646
10
13.639999998664894
20
-17.198790639407747
10
13.639999998662393
20
-16.692466874706248
0
LWPOLYLINE
5
131
100
AcDbEntity
8
0
100
AcDbPolyline
90
4
70
1
43
0.0
10
14.359999998662394
20
-16.692466874702546
10
14.359999998664893
20
-17.198790639404049
10
14.139999998664894
20
-17.198790639405146
10
14.139999998662393
20
-16.692466874703747
0
LWPOLYLINE
5
132
100
AcDbEntity
8
0
100
AcDbPolyline
90
4
70
1
43
0.0
10
14.859999998662392
20
-16.692466874700049
10
14.859999998664895
20
-17.198790639401548
10
14.639999998664894
20
-17.198790639402649
10
14.639999998662393
20
-16.692466874701147
0
LWPOLYLINE
5
133
100
AcDbEntity
8
0
100
AcDbPolyline
90
4
70
1
43
0.0
10
15.359999998662392
20
-16.692466874697448
10
15.359999998664993
20
-17.19879063939895
10
15.139999998664994
20
-17.198790639400052
10
15.139999998662395
20
-16.692466874698546
0
LWPOLYLINE
5
134
100
AcDbEntity
8
0
100
AcDbPolyline
90
4
70
1
43
0.0
10
15.859999998662392
20
-16.692466874694951
10
15.859999998664993
20
-17.198790639396446
10
15.639999998664996
20
-17.198790639397547
10
15.639999998662395
20
-16.692466874696052
0
LWPOLYLINE
5
135
100
AcDbEntity
8
0
100
AcDbPolyline
90
4
70
1
43
0.0
10
16.359999998662392
20
-16.692466874692347
10
16.359999998664993
20
-17.198790639393849
10
16.139999998664997
20
-17.198790639394947
10
16.139999998662393
20
-16.692466874693448
0
LWPOLYLINE
5
136
100
AcDbEntity
8
0
100
AcDbPolyline
90
4
70
1
43
0.0
10
16.859999998662396
20
-16.692466874689845
10
16.859999998664993
20
-17.198790639391348
10
16.639999998664994
20
-17.198790639392449
10
16.639999998662393
20
-16.692466874690947
0
LWPOLYLINE
5
137
100
AcDbEntity
8
0
100
AcDbPolyline
90
4
70
1
43
0.0
10
17.359999998662392
20
-16.692466874687248
10
17.359999998664996
20
-17.198790639388747
10
17.139999998664994
20
-17.198790639389848
10
17.139999998662393
20
-16.692466874688346
0
LWPOLYLINE
5
138
100
AcDbEntity
8
0
100
AcDbPolyline
90
4
70
1
43
0.0
10
17.859999998662392
20
-16.692466874684747
10
17.859999998664993
20
-17.198790639386246
10
17.639999998664994
20
-17.198790639387347
10
17.639999998662393
20
-16.692466874685849
0
LWPOLYLINE
5
139
100
AcDbEntity
8
0
100
AcDbPolyline
90
4
70
1
43
0.0
10
18.359999998662392
20
-16.692466874682147
10
18.359999998664993
20
-17.198790639383645
10
18.139999998664994
20
-17.198790639384747
10
18.139999998662397
20
-16.692466874683248
0
LWPOLYLINE
5
140
100
AcDbEntity
8
0
100
AcDbPolyline
90
4
70
1
43
0.0
10
19.493676233953995
20
-15.338790639377848
10
19.999999998655493
20
-15.338790639375247
10
19.999999998656595
20
-15.558790639375248
10
19.493676233955092
20
-15.558790639377849
0
LWPOLYLINE
5
141
100
AcDbEntity
8
0
100
AcDbPolyline
90
4
70
1
43
0.0
10
19.493676233951398
20
-14.838790639377848
10
19.999999998652896
20
-14.838790639375247
10
19.999999998653998
20
-15.058790639375248
10
19.493676233952492
20
-15.058790639377849
0
LWPOLYLINE
5
142
100
AcDbEntity
8
0
100
AcDbPolyline
90
4
70
1
43
0.0
10
19.493676233948893
20
-14.338790639377947
10
19.999999998650392
20
-14.338790639375347
10
19.999999998651493
20
-14.55879063937525
10
19.493676233949994
20
-14.558790639377948
0
LWPOLYLINE
5
143
100
AcDbEntity
8
0
100
AcDbPolyline
90
4
70
1
43
0.0
10
19.493676233946292
20
-13.838790639377949
10
19.999999998647798
20
-13.838790639375249
10
19.999999998648896
20
-14.05879063937525
10
19.493676233947394
20
-14.058790639377847
0
LWPOLYLINE
5
144
100
AcDbEntity
8
0
100
AcDbPolyline
90
4
70
1
43
0.0
10
19.493676233943795
20
-13.338790639377949
10
19.999999998645293
20
-13.338790639375249
10
19.999999998646395
20
-13.558790639375349
10
19.493676233944896
20
-13.558790639377847
0
LWPOLYLINE
5
145
100
AcDbEntity
8
0
100
AcDbPolyline
90
4
70
1
43
0.0
10
19.493676233941194
20
-12.838790639377947
10
19.999999998642693
20
-12.838790639375247
10
19.999999998643794
20
-13.058790639375248
10
19.493676233942292
20
-13.058790639377849
0
LWPOLYLINE
5
146
100
AcDbEntity
8
0
100
AcDbPolyline
90
4
70
1
43
0.0
10
19.493676233938693
20
-12.338790639377947
10
19.999999998640192
20
-12.338790639375347
10
19.999999998641293
20
-12.558790639375248
10
19.493676233939794
20
-12.558790639377849
0
LWPOLYLINE
5
147
100
AcDbEntity
8
0
100
AcDbPolyline
90
4
70
1
43
0.0
10
19.493676233936093
20
-11.838790639377947
10
19.999999998637598
20
-11.838790639375247
10
19.999999998638692
20
-12.05879063937525
10
19.493676233937194
20
-12.058790639377847
0
LWPOLYLINE
5
148
100
AcDbEntity
8
0
100
AcDbPolyline
90
4
70
1
43
0.0
10
19.493676233933591
20
-11.33879063937785
10
19.999999998635094
20
-11.338790639375247
10
19.999999998636191
20
-11.55879063937525
10
19.493676233934693
20
-11.558790639377847
0
LWPOLYLINE
5
149
100
AcDbEntity
8
0
100
AcDbPolyline
90
4
70
1
43
0.0
10
19.493676233930994
20
-10.838790639377848
10
19.999999998632493
20
-10.838790639375249
10
19.999999998633594
20
-11.05879063937525
10
19.493676233932092
20
-11.058790639377847
0
LWPOLYLINE
5
150
100
AcDbEntity
8
0
100
AcDbPolyline
90
4
70
1
43
0.0
10
19.493676233928493
20
-10.338790639377848
10
19.999999998629995
20
-10.338790639375247
10
19.999999998631097
20
-10.558790639375248
10
19.493676233929595
20
-10.558790639377847
0
LWPOLYLINE
5
151
100
AcDbEntity
8
0
100
AcDbPolyline
90
4
70
1
43
0.0
10
19.493676233925893
20
-9.8387906393778479
10
19.999999998627391
20
-9.8387906393752971
10
19.999999998628493
20
-10.058790639375248
10
19.493676233926994
20
-10.058790639377849
0
LWPOLYLINE
5
152
100
AcDbEntity
8
0
100
AcDbPolyline
90
4
70
1
43
0.0
10
18.139999998621594
20
-8.7051144040862969
10
18.139999998618993
20
-8.1987906393847965
10
18.359999998618992
20
-8.1987906393836578
10
18.359999998621596
20
-8.7051144040851565
0
LWPOLYLINE
5
153
100
AcDbEntity
8
0
100
AcDbPolyline
90
4
70
1
43
0.0
10
17.639999998621594
20
-8.7051144040888477
10
17.639999998618993
20
-8.1987906393873473
10
17.859999998618996
20
-8.1987906393861962
10
17.859999998621593
20
-8.7051144040876967
0
LWPOLYLINE
5
154
100
AcDbEntity
8
0
100
AcDbPolyline
90
4
70
1
43
0.0
10
17.139999998621597
20
-8.7051144040913968
10
17.139999998618993
20
-8.1987906393898964
10
17.359999998618992
20
-8.1987906393887577
10
17.359999998621593
20
-8.7051144040902564
0
LWPOLYLINE
5
155
100
AcDbEntity
8
0
100
AcDbPolyline
90
4
70
1
43
0.0
10
16.639999998621594
20
-8.7051144040939477
10
16.639999998618997
20
-8.198790639392449
10
16.859999998618992
20
-8.1987906393912979
10
16.859999998621593
20
-8.7051144040927966
0
LWPOLYLINE
5
156
100
AcDbEntity
8
0
100
AcDbPolyline
90
4
70
1
43
0.0
10
16.139999998621594
20
-8.7051144040964967
10
16.139999998618993
20
-8.1987906393949963
10
16.359999998618992
20
-8.1987906393938577
10
16.359999998621593
20
-8.7051144040953563
0
LWPOLYLINE
5
157
100
AcDbEntity
8
0
100
AcDbPolyline
90
4
70
1
43
0.0
10
15.639999998621594
20
-8.7051144040990476
10
15.639999998618993
20
-8.1987906393975472
10
15.859999998618992
20
-8.1987906393963979
10
15.859999998621594
20
-8.7051144040978965
0
LWPOLYLINE
5
158
100
AcDbEntity
8
0
100
AcDbPolyline
90
4
70
1
43
0.0
10
15.139999998621594
20
-8.7051144041015966
10
15.139999998618993
20
-8.198790639400098
10
15.359999998618994
20
-8.1987906393989469
10
15.359999998621594
20
-8.705114404100458
0
LWPOLYLINE
5
159
100
AcDbEntity
8
0
100
AcDbPolyline
90
4
70
1
43
0.0
10
14.639999998621596
20
-8.7051144041041475
10
14.639999998618993
20
-8.1987906394026471
10
14.859999998619093
20
-8.1987906394014978
10
14.859999998621593
20
-8.7051144041029964
0
LWPOLYLINE
5
160
100
AcDbEntity
8
0
100
AcDbPolyline
90
4
70
1
43
0.0
10
14.139999998621596
20
-8.7051144041066983
10
14.139999998618995
20
-8.1987906394051979
10
14.359999998619095
20
-8.1987906394040486
10
14.359999998621593
20
-8.7051144041055579
0
LWPOLYLINE
5
161
100
AcDbEntity
8
0
100
AcDbPolyline
90
4
70
1
43
0.0
10
13.639999998621594
20
-8.7051144041092474
10
13.639999998618995
20
-8.198790639407747
10
13.859999998619095
20
-8.1987906394066474
10
13.859999998621593
20
-8.7051144041081479
0
LWPOLYLINE
5
162
100
AcDbEntity
8
0
100
AcDbPolyline
90
4
70
1
43
0.0
10
13.139999998621594
20
-8.7051144041117965
10
13.139999998619095
20
-8.1987906394102978
10
13.359999998619095
20
-8.1987906394091468
10
13.359999998621594
20
-8.7051144041106596
0
LWPOLYLINE
5
163
100
AcDbEntity
8
0
100
AcDbPolyline
90
4
70
1
43
0.0
10
12.639999998621594
20
-8.7051144041143473
10
12.639999998619093
20
-8.1987906394128469
10
12.859999998618994
20
-8.1987906394117473
10
12.859999998621694
20
-8.7051144041132478
0
LWPOLYLINE
5
164
100
AcDbEntity
8
0
100
AcDbPolyline
90
4
70
1
43
0.0
10
17.699999998641093
20
-4.1237906394046444
42
0.99999999999999989
10
17.699999998639495
20
-3.8237906394046517
10
17.399999998639593
20
-3.8237906394061572
10
17.399999998641093
20
-4.1237906394061579
0
LWPOLYLINE
5
165
100
AcDbEntity
8
0
100
AcDbPolyline
90
4
70
1
43
0.0
10
17.699999998644394
20
-4.7737906394046439
42
0.99999999999999989
10
17.699999998642994
20
-4.4737906394046503
10
17.399999998642894
20
-4.4737906394061469
10
17.399999998644393
20
-4.7737906394061467
0
LWPOLYLINE
5
166
100
AcDbEntity
8
0
100
AcDbPolyline
90
4
70
1
43
0.0
10
17.699999998647694
20
-5.4237906394046442
42
0.99999999999999989
10
17.699999998646298
20
-5.1237906394046533
10
17.399999998646194
20
-5.123790639406157
10
17.399999998647694
20
-5.4237906394061479
0
LWPOLYLINE
5
167
100
AcDbEntity
8
0
100
AcDbPolyline
90
4
70
1
43
0.0
10
20.199999998642895
20
-4.4737906393918507
42
0.99999999999999989
10
20.199999998644493
20
-4.7737906393918443
10
20.499999998644395
20
-4.7737906393903469
10
20.499999998642892
20
-4.473790639390347
0
LWPOLYLINE
5
168
100
AcDbEntity
8
0
100
AcDbPolyline
90
4
70
1
43
0.0
10
17.699999998637793
20
-3.4737906394046441
42
0.99999999999999989
10
17.699999998636194
20
-3.1737906394046518
10
17.399999998636293
20
-3.1737906394061577
10
17.399999998637796
20
-3.4737906394061473
0
LWPOLYLINE
5
169
100
AcDbEntity
8
0
100
AcDbPolyline
90
5
70
1
43
0.0
10
-15.100000001334507
20
-15.598790639422248
10
-15.100000001354108
20
-11.756882288354246
10
-14.741908001356007
20
-11.398790639420348
10
-11.700000001355908
20
-11.398790639404847
10
-11.700000001334507
20
-15.598790639404847
0
LWPOLYLINE
5
170
100
AcDbEntity
8
0
100
AcDbPolyline
90
4
70
1
43
0.0
10
-11.000000001356106
20
-11.36879063940145
10
-10.350000001356108
20
-11.368790639398247
10
-10.350000001353807
20
-11.818790639398246
10
-11.00000000135381
20
-11.81879063940135
0
LWPOLYLINE
5
171
100
AcDbEntity
8
0
100
AcDbPolyline
90
4
70
1
43
0.0
10
-16.44529578225611
20
-11.364909559278047
10
-15.795295782256106
20
-11.364909559274848
10
-15.79529578225381
20
-11.814909559274847
10
-16.445295782253808
20
-11.814909559278048
0
LWPOLYLINE
5
172
100
AcDbEntity
8
0
100
AcDbPolyline
90
4
70
1
43
0.0
10
-11.002482851343107
20
-13.908790639401447
10
-10.352482851343208
20
-13.90879063939825
10
-10.352482851340907
20
-14.358790639398249
10
-11.002482851340806
20
-14.358790639401349
0
LWPOLYLINE
5
173
100
AcDbEntity
8
0
100
AcDbPolyline
90
4
70
1
43
0.0
10
-16.442813162249706
20
-12.634909559278046
10
-15.792813162249708
20
-12.634909559274847
10
-15.792813162247407
20
-13.084909559274749
10
-16.442813162247411
20
-13.084909559278049
0
LWPOLYLINE
5
174
100
AcDbEntity
8
0
100
AcDbPolyline
90
4
70
1
43
0.0
10
-16.443342942236711
20
-15.174909559278049
10
-15.793342942236707
20
-15.174909559274747
10
-15.793342942234407
20
-15.624909559274746
10
-16.443342942234406
20
-15.624909559278048
0
LWPOLYLINE
5
175
100
AcDbEntity
8
0
100
AcDbPolyline
90
4
70
1
43
0.0
10
13.857070359310693
20
-20.548790639403151
10
13.857070359312791
20
-20.948790639403548
10
13.649999998642992
20
-20.948790639404645
10
13.649999998640991
20
-20.548790639404647
0
LWPOLYLINE
5
176
100
AcDbEntity
8
0
100
AcDbPolyline
90
4
70
1
43
0.0
10
15.942929637978192
20
-21.898790639393347
10
15.942929637976091
20
-21.498790639392947
10
16.149999998645793
20
-21.498790639391846
10
16.149999998647889
20
-21.898790639391848
0
LWPOLYLINE
5
177
100
AcDbEntity
8
0
100
AcDbPolyline
90
4
70
1
43
0.0
10
15.942929637968495
20
-19.998790639393349
10
15.942929637966394
20
-19.598790639392949
10
16.149999998636094
20
-19.598790639391847
10
16.149999998638194
20
-19.998790639391846
0
LWPOLYLINE
5
178
100
AcDbEntity
8
0
100
AcDbPolyline
90
5
70
1
43
0.0
10
-14.200000001334507
20
2.4012093605777531
10
-14.200000001354107
20
6.2431177116457537
10
-13.841908001356007
20
6.6012093605796025
10
-10.800000001356008
20
6.6012093605951039
10
-10.800000001334507
20
2.4012093605951028
0
LWPOLYLINE
5
179
100
AcDbEntity
8
0
100
AcDbPolyline
90
4
70
1
43
0.0
10
-10.100000001356108
20
6.631209360598703
10
-9.4500000013561074
20
6.6312093606020026
10
-9.450000001353807
20
6.1812093606020033
10
-10.100000001353809
20
6.1812093605987029
0
LWPOLYLINE
5
180
100
AcDbEntity
8
0
100
AcDbPolyline
90
4
70
1
43
0.0
10
-15.545295782256108
20
6.6350904407219025
10
-14.895295782256209
20
6.6350904407252029
10
-14.895295782253907
20
6.1850904407252028
10
-15.54529578225381
20
6.1850904407219032
0
LWPOLYLINE
5
181
100
AcDbEntity
8
0
100
AcDbPolyline
90
4
70
1
43
0.0
10
-10.102482851343208
20
4.0912093605985529
10
-9.4524828513431576
20
4.091209360601753
10
-9.4524828513408572
20
3.6412093606017533
10
-10.102482851340909
20
3.6412093605986535
0
LWPOLYLINE
5
182
100
AcDbEntity
8
0
100
AcDbPolyline
90
4
70
1
43
0.0
10
-15.542813162249709
20
5.3650904407219038
10
-14.892813162249707
20
5.3650904407252034
10
-14.892813162247407
20
4.9150904407252032
10
-15.542813162247409
20
4.9150904407219027
0
LWPOLYLINE
5
183
100
AcDbEntity
8
0
100
AcDbPolyline
90
4
70
1
43
0.0
10
-15.543342942236709
20
2.8250904407219029
10
-14.893342942236707
20
2.8250904407252033
10
-14.893342942234407
20
2.3750904407252027
10
-15.543342942234409
20
2.3750904407219027
0
LWPOLYLINE
5
184
100
AcDbEntity
8
0
100
AcDbPolyline
90
4
70
1
43
0.0
10
-15.547778632243208
20
-4.9049095592780967
10
-14.897778632243108
20
-4.9049095592747971
10
-14.897778632240907
20
-5.3549095592747973
10
-15.54777863224091
20
-5.3549095592780969
0
LWPOLYLINE
5
185
100
AcDbEntity
8
0
100
AcDbPolyline
90
4
70
1
43
0.0
10
-10.098047161336607
20
-6.1787906394014467
10
-9.4480471613366568
20
-6.1787906393982484
10
-9.4480471613343564
20
-6.6287906393982476
10
-10.098047161334307
20
-6.6287906394013074
0
LWPOLYLINE
5
186
100
AcDbEntity
8
0
100
AcDbPolyline
90
4
70
1
43
0.0
10
-10.097517381349707
20
-3.6387906394014475
10
-9.4475173813496571
20
-3.6387906393982474
10
-9.4475173813473567
20
-4.0887906393982467
10
-10.097517381347407
20
-4.0887906394013074
0
LWPOLYLINE
5
187
100
AcDbEntity
8
0
100
AcDbPolyline
90
4
70
1
43
0.0
10
23.499999998641993
20
-16.416434500211547
10
23.499999998641993
20
-16.281146778584947
10
23.999999998641997
20
-16.281146778584947
10
23.999999998641997
20
-16.416434500211547
0
LWPOLYLINE
5
188
100
AcDbEntity
8
0
100
AcDbPolyline
90
4
70
1
43
0.0
10
23.999999998641997
20
-15.481146778584947
10
23.999999998641997
20
-15.616434500211547
10
23.499999998641993
20
-15.616434500211547
10
23.499999998641993
20
-15.481146778584947
0
LWPOLYLINE
5
189
100
AcDbEntity
8
0
100
AcDbPolyline
90
4
70
1
43
0.0
10
22.542001665771892
20
-8.2487906393982477
10
22.757998331512091
20
-8.2487906393982477
10
22.757998331512091
20
-9.0487906393982485
10
22.542001665771892
20
-9.0487906393982485
0
LWPOLYLINE
5
190
100
AcDbEntity
8
0
100
AcDbPolyline
90
4
70
1
43
0.0
10
24.057998331512096
20
-9.0487906393982485
10
23.842001665771893
20
-9.0487906393982485
10
23.842001665771893
20
-8.2487906393982477
10
24.057998331512096
20
-8.2487906393982477
0
LWPOLYLINE
5
191
100
AcDbEntity
8
0
100
AcDbPolyline
90
4
70
1
43
0.0
10
7.207998331512103
20
-6.6987906393982479
10
6.9920016657718929
20
-6.6987906393982479
10
6.9920016657718929
20
-5.8987906393982472
10
7.207998331512103
20
-5.8987906393982472
0
LWPOLYLINE
5
192
100
AcDbEntity
8
0
100
AcDbPolyline
90
4
70
1
43
0.0
10
5.692001665771893
20
-5.8987906393982472
10
5.9079983315120934
20
-5.8987906393982472
10
5.9079983315120934
20
-6.6987906393982479
10
5.692001665771893
20
-6.6987906393982479
0
LWPOLYLINE
5
193
100
AcDbEntity
8
0
100
AcDbPolyline
90
4
70
1
43
0.0
10
-16.447778632243207
20
13.095090440721952
10
-15.797778632243206
20
13.095090440725155
10
-15.79777863224091
20
12.645090440725152
10
-16.447778632240908
20
12.645090440721953
0
LWPOLYLINE
5
194
100
AcDbEntity
8
0
100
AcDbPolyline
90
4
70
1
43
0.0
10
-10.998047161336707
20
11.821209360598653
10
-10.348047161336609
20
11.821209360601955
10
-10.348047161334309
20
11.371209360601952
10
-10.998047161334409
20
11.371209360598654
0
LWPOLYLINE
5
195
100
AcDbEntity
8
0
100
AcDbPolyline
90
4
70
1
43
0.0
10
-10.997517381349606
20
14.361209360598755
10
-10.34751738134961
20
14.361209360601954
10
-10.347517381347309
20
13.911209360602053
10
-10.997517381347308
20
13.911209360598754
0
LWPOLYLINE
5
196
100
AcDbEntity
8
0
100
AcDbPolyline
90
4
70
1
43
0.0
10
17.799999998641994
20
-20.531146778584951
10
17.799999998641994
20
-20.666434500211551
10
17.299999998641994
20
-20.666434500211551
10
17.299999998641994
20
-20.531146778584951
0
LWPOLYLINE
5
197
100
AcDbEntity
8
0
100
AcDbPolyline
90
4
70
1
43
0.0
10
17.299999998641994
20
-21.466434500211552
10
17.299999998641994
20
-21.331146778584952
10
17.799999998641994
20
-21.331146778584952
10
17.799999998641994
20
-21.466434500211552
0
LWPOLYLINE
5
198
100
AcDbEntity
8
0
100
AcDbPolyline
90
4
70
1
43
0.0
10
23.282356137828693
20
-13.198790639398247
10
23.417643859455293
20
-13.198790639398247
10
23.417643859455293
20
-13.698790639398249
10
23.282356137828693
20
-13.698790639398249
0
LWPOLYLINE
5
199
100
AcDbEntity
8
0
100
AcDbPolyline
90
4
70
1
43
0.0
10
24.217643859455293
20
-13.698790639398249
10
24.082356137828693
20
-13.698790639398249
10
24.082356137828693
20
-13.198790639398247
10
24.217643859455293
20
-13.198790639398247
0
LWPOLYLINE
5
200
100
AcDbEntity
8
0
100
AcDbPolyline
90
4
70
1
43
0.0
10
-9.3500000013580085
20
-7.7811467785849473
10
-9.3500000013580085
20
-7.9164345002115475
10
-9.8500000013580067
20
-7.9164345002115475
10
-9.8500000013580067
20
-7.7811467785849473
0
LWPOLYLINE
5
201
100
AcDbEntity
8
0
100
AcDbPolyline
90
4
70
1
43
0.0
10
-9.8500000013580067
20
-8.7164345002115482
10
-9.8500000013580067
20
-8.5811467785849977
10
-9.3500000013580085
20
-8.5811467785849977
10
-9.3500000013580085
20
-8.7164345002115482
0
LWPOLYLINE
5
202
100
AcDbEntity
8
0
100
AcDbPolyline
90
4
70
1
43
0.0
10
-9.5500000013580095
20
-15.716434500211546
10
-9.5500000013580095
20
-15.581146778584946
10
-9.0500000013580095
20
-15.581146778584946
10
-9.0500000013580095
20
-15.716434500211546
0
LWPOLYLINE
5
203
100
AcDbEntity
8
0
100
AcDbPolyline
90
4
70
1
43
0.0
10
-9.0500000013580095
20
-14.781146778584947
10
-9.0500000013580095
20
-14.916434500211547
10
-9.5500000013580095
20
-14.916434500211547
10
-9.5500000013580095
20
-14.781146778584947
0
LWPOLYLINE
5
204
100
AcDbEntity
8
0
100
AcDbPolyline
90
4
70
1
43
0.0
10
27.232356137828692
20
-15.998790639398248
10
27.367643859455292
20
-15.998790639398248
10
27.367643859455292
20
-16.498790639398248
10
27.232356137828692
20
-16.498790639398248
0
LWPOLYLINE
5
205
100
AcDbEntity
8
0
100
AcDbPolyline
90
4
70
1
43
0.0
10
28.167643859455293
20
-16.498790639398248
10
28.032356137828693
20
-16.498790639398248
10
28.032356137828693
20
-15.998790639398248
10
28.167643859455293
20
-15.998790639398248
0
LWPOLYLINE
5
206
100
AcDbEntity
8
0
100
AcDbPolyline
90
4
70
1
43
0.0
10
10.049999998641994
20
-12.931146778585047
10
10.049999998641994
20
-13.066434500211548
10
9.5499999986419937
20
-13.066434500211548
10
9.5499999986419919
20
-12.931146778585047
0
LWPOLYLINE
5
207
100
AcDbEntity
8
0
100
AcDbPolyline
90
4
70
1
43
0.0
10
9.5499999986419919
20
-13.866434500211549
10
9.5499999986419919
20
-13.731146778585048
10
10.049999998641992
20
-13.731146778585048
10
10.049999998641994
20
-13.866434500211549
0
LWPOLYLINE
5
208
100
AcDbEntity
8
0
100
AcDbPolyline
90
4
70
1
43
0.0
10
27.999999998641997
20
8.859207693471852
10
27.999999998641997
20
8.6432110277316525
10
27.199999998641996
20
8.6432110277316525
10
27.199999998641996
20
8.859207693471852
0
LWPOLYLINE
5
209
100
AcDbEntity
8
0
100
AcDbPolyline
90
4
70
1
43
0.0
10
27.199999998641996
20
7.3432110277316536
10
27.199999998641996
20
7.5592076934718531
10
27.999999998641997
20
7.5592076934718531
10
27.999999998641997
20
7.3432110277316536
0
LWPOLYLINE
5
210
100
AcDbEntity
8
0
100
AcDbPolyline
90
4
70
1
43
0.0
10
28.317643859455295
20
12.401209360601753
10
28.182356137828695
20
12.401209360601753
10
28.182356137828695
20
12.901209360601753
10
28.317643859455295
20
12.901209360601753
0
LWPOLYLINE
5
211
100
AcDbEntity
8
0
100
AcDbPolyline
90
4
70
1
43
0.0
10
27.382356137828694
20
12.901209360601753
10
27.517643859455294
20
12.901209360601753
10
27.517643859455294
20
12.401209360601753
10
27.382356137828694
20
12.401209360601753
0
LWPOLYLINE
5
212
100
AcDbEntity
8
0
100
AcDbPolyline
90
8
70
1
43
0.0
10
6.6093999986419929
20
-13.748990639398249
10
6.3553999986419925
20
-13.494990639398248
10
6.3553999986419925
20
-10.802590639398247
10
6.6093999986419929
20
-10.548590639398247
10
8.5905999986419914
20
-10.548590639398247
10
8.8445999986419928
20
-10.802590639398247
10
8.8445999986419928
20
-13.494990639398248
10
8.5905999986435404
20
-13.748990639397746
0
LWPOLYLINE
5
213
100
AcDbEntity
8
0
100
AcDbPolyline
90
4
70
1
43
0.0
10
-17.482356140544706
20
11.351209360601755
10
-17.617643862171306
20
11.351209360601755
10
-17.617643862171306
20
11.851209360601754
10
-17.482356140544706
20
11.851209360601754
0
LWPOLYLINE
5
214
100
AcDbEntity
8
0
100
AcDbPolyline
90
4
70
1
43
0.0
10
-18.417643862171307
20
11.851209360601754
10
-18.282356140544707
20
11.851209360601754
10
-18.282356140544707
20
11.351209360601755
10
-18.417643862171307
20
11.351209360601755
0
LWPOLYLINE
5
215
100
AcDbEntity
8
0
100
AcDbPolyline
90
4
70
1
43
0.0
10
-15.150000001358009
20
1.218853221415003
10
-15.150000001358009
20
1.083565499788453
10
-15.650000001358009
20
1.083565499788453
10
-15.650000001358009
20
1.218853221415003
0
LWPOLYLINE
5
216
100
AcDbEntity
8
0
100
AcDbPolyline
90
4
70
1
43
0.0
10
-15.650000001358009
20
0.28356549978845491
10
-15.650000001358009
20
0.41885322141505488
10
-15.150000001358009
20
0.41885322141505488
10
-15.150000001358009
20
0.28356549978845491
0
LWPOLYLINE
5
217
100
AcDbEntity
8
0
100
AcDbPolyline
90
4
70
1
43
0.0
10
-15.150000001358009
20
-7.7811467785849473
10
-15.150000001358009
20
-7.9164345002115475
10
-15.650000001358009
20
-7.9164345002115475
10
-15.650000001358009
20
-7.7811467785849473
0
LWPOLYLINE
5
218
100
AcDbEntity
8
0
100
AcDbPolyline
90
4
70
1
43
0.0
10
-15.650000001358009
20
-8.7164345002115482
10
-15.650000001358009
20
-8.5811467785849977
10
-15.150000001358009
20
-8.5811467785849977
10
-15.150000001358009
20
-8.7164345002115482
0
LWPOLYLINE
5
219
100
AcDbEntity
8
0
100
AcDbPolyline
90
4
70
1
43
0.0
10
-28.030000001358012
20
1.571209360601753
10
-28.030000001358012
20
0.93120936060175397
10
-28.670000001358012
20
0.93120936060175397
10
-28.670000001358012
20
1.571209360601753
0
LWPOLYLINE
5
220
100
AcDbEntity
8
0
100
AcDbPolyline
90
4
70
1
43
0.0
10
-29.950000001358006
20
2.0012093606017527
10
-29.950000001358006
20
3.0012093606017531
10
-26.150000001358009
20
3.0012093606017531
10
-26.150000001358009
20
2.0012093606017527
0
LWPOLYLINE
5
221
100
AcDbEntity
8
0
100
AcDbPolyline
90
4
70
1
43
0.0
10
-29.950000001358006
20
-2.9987906393982473
10
-29.950000001358006
20
-1.9987906393982471
10
-26.150000001358009
20
-1.9987906393982471
10
-26.150000001358009
20
-2.9987906393982473
0
LWPOLYLINE
5
222
100
AcDbEntity
8
0
100
AcDbPolyline
90
4
70
1
43
0.0
10
27.999999998641997
20
4.2512093606017531
10
28.499999998641993
20
4.2512093606017531
10
28.499999998641993
20
3.7512093606017527
10
27.999999998641997
20
3.7512093606017527
0
LWPOLYLINE
5
223
100
AcDbEntity
8
0
100
AcDbPolyline
90
4
70
1
43
0.0
10
28.499999998641993
20
0.25120936060175392
10
28.499999998641993
20
-0.24879063939824614
10
27.999999998641997
20
-0.24879063939824614
10
27.999999998641997
20
0.25120936060175392
0
LWPOLYLINE
5
224
100
AcDbEntity
8
0
100
AcDbPolyline
90
4
70
1
43
0.0
10
27.999999998641997
20
-3.7487906393982473
10
28.499999998641993
20
-3.7487906393982473
10
28.499999998641993
20
-4.2487906393982469
10
27.999999998641997
20
-4.2487906393982469
0
LWPOLYLINE
5
225
100
AcDbEntity
8
0
100
AcDbPolyline
90
4
70
1
43
0.0
10
25.449999998641992
20
4.751209360601754
10
25.449999998641992
20
5.9512093606017533
10
29.949999998641992
20
5.9512093606017533
10
29.949999998641992
20
4.751209360601754
0
LWPOLYLINE
5
226
100
AcDbEntity
8
0
100
AcDbPolyline
90
4
70
1
43
0.0
10
25.449999998641992
20
0.75120936060175103
10
25.449999998641992
20
1.2512093606017529
10
29.949999998641992
20
1.2512093606017529
10
29.949999998641992
20
0.75120936060175103
0
LWPOLYLINE
5
227
100
AcDbEntity
8
0
100
AcDbPolyline
90
4
70
1
43
0.0
10
25.449999998641992
20
-3.2487906393982473
10
25.449999998641992
20
-2.7487906393982477
10
29.949999998641992
20
-2.7487906393982477
10
29.949999998641992
20
-3.2487906393982473
0
LWPOLYLINE
5
228
100
AcDbEntity
8
0
100
AcDbPolyline
90
4
70
1
43
0.0
10
7.249999879441992
20
-27.998790639398248
10
7.249999879441992
20
-28.498790639398251
10
6.749999879441992
20
-28.498790639398251
10
6.749999879441992
20
-27.998790639398248
0
LWPOLYLINE
5
229
100
AcDbEntity
8
0
100
AcDbPolyline
90
4
70
1
43
0.0
10
3.249999879441992
20
-28.498790639398251
10
2.7499998794419915
20
-28.498790639398251
10
2.7499998794419915
20
-27.998790639398248
10
3.249999879441992
20
-27.998790639398248
0
LWPOLYLINE
5
230
100
AcDbEntity
8
0
100
AcDbPolyline
90
4
70
1
43
0.0
10
-1.2500001205580082
20
-27.998790639398248
10
-0.75000012055800924
20
-27.998790639398248
10
-0.75000012055800913
20
-28.498790639398251
10
-1.250000120558008
20
-28.498790639398251
0
LWPOLYLINE
5
231
100
AcDbEntity
8
0
100
AcDbPolyline
90
4
70
1
43
0.0
10
-5.250000120558008
20
-27.998790639398248
10
-4.750000120558008
20
-27.998790639398248
10
-4.750000120558008
20
-28.498790639398251
10
-5.250000120558008
20
-28.498790639398251
0
LWPOLYLINE
5
232
100
AcDbEntity
8
0
100
AcDbPolyline
90
4
70
1
43
0.0
10
5.749999879441992
20
-25.448790639398247
10
6.249999879441992
20
-25.448790639398247
10
6.249999879441992
20
-29.948790639398251
10
5.749999879441992
20
-29.948790639398251
0
LWPOLYLINE
5
233
100
AcDbEntity
8
0
100
AcDbPolyline
90
4
70
1
43
0.0
10
1.7499998794419922
20
-25.448790639398247
10
2.249999879441992
20
-25.448790639398247
10
2.249999879441992
20
-29.948790639398251
10
1.749999879441992
20
-29.948790639398251
0
LWPOLYLINE
5
234
100
AcDbEntity
8
0
100
AcDbPolyline
90
4
70
1
43
0.0
10
-2.250000120558008
20
-25.448790639398247
10
-1.7500001205580082
20
-25.448790639398247
10
-1.7500001205580085
20
-29.948790639398251
10
-2.2500001205580085
20
-29.948790639398251
0
LWPOLYLINE
5
235
100
AcDbEntity
8
0
100
AcDbPolyline
90
4
70
1
43
0.0
10
-6.2500001205580089
20
-25.448790639398247
10
-5.7500001205580089
20
-25.448790639398247
10
-5.7500001205580089
20
-29.948790639398251
10
-6.2500001205580089
20
-29.948790639398251
0
LWPOLYLINE
5
236
100
AcDbEntity
8
0
100
AcDbPolyline
90
4
70
1
43
0.0
10
28.399999998669596
20
-10.773790639398246
10
28.399999998669596
20
-11.973790639398247
10
28.099999998669595
20
-11.973790639398247
10
28.099999998669595
20
-10.773790639398246
0
LWPOLYLINE
5
237
100
AcDbEntity
8
0
100
AcDbPolyline
90
4
70
1
43
0.0
10
26.815434893376032
20
-12.798790639398248
10
25.840862027325393
20
-12.798790639398248
10
25.840862027325198
20
-12.548790639398248
10
26.815434893738367
20
-12.548790639398248
0
LWPOLYLINE
5
238
100
AcDbEntity
8
0
100
AcDbPolyline
90
4
70
1
43
0.0
10
26.815434893376032
20
-12.148790639398248
10
25.840862027325393
20
-12.148790639398248
10
25.840862027325198
20
-11.898790639398246
10
26.815434893738367
20
-11.898790639398246
0
LWPOLYLINE
5
239
100
AcDbEntity
8
0
100
AcDbPolyline
90
4
70
1
43
0.0
10
26.815434893376032
20
-11.498790639398244
10
25.840862027325393
20
-11.498790639398248
10
25.840862027325198
20
-11.248790639398248
10
26.815434893738367
20
-11.248790639398248
0
LWPOLYLINE
5
240
100
AcDbEntity
8
0
100
AcDbPolyline
90
4
70
1
43
0.0
10
26.815434893376032
20
-10.848790639398242
10
25.840862027325393
20
-10.848790639398247
10
25.840862027325198
20
-10.598790639398247
10
26.815434893738367
20
-10.598790639398253
0
LWPOLYLINE
5
241
100
AcDbEntity
8
0
100
AcDbPolyline
90
4
70
1
43
0.0
10
26.815434893376032
20
-10.198790639398247
10
25.840862027325393
20
-10.198790639398247
10
25.840862027325198
20
-9.948790639398247
10
26.815434893738367
20
-9.948790639398247
0
LWPOLYLINE
5
242
100
AcDbEntity
8
0
100
AcDbPolyline
90
7
70
1
43
0.0
10
27.284999998669598
20
-7.6237906393982469
10
27.284999998669598
20
-7.9437906393982471
10
28.234999998669593
20
-7.9437906393982471
10
28.384999998669596
20
-8.0937906393982466
10
28.384999998669596
20
-8.7629286393764474
10
26.784999998669594
20
-8.762928639392797
10
26.784999998669594
20
-7.6237906393982469
0
LWPOLYLINE
5
243
100
AcDbEntity
8
0
100
AcDbPolyline
90
4
70
1
43
0.0
10
26.249999998674951
20
-14.573792545030113
10
25.949999998672055
20
-14.573792545030109
10
25.949999998669597
20
-13.773790639398246
10
26.249999998669598
20
-13.773790639398246
0
LWPOLYLINE
5
244
100
AcDbEntity
8
0
100
AcDbPolyline
90
4
70
1
43
0.0
10
26.249999998669598
20
-8.9737906393982474
10
25.949999998669597
20
-8.9737906393982474
10
25.949999998672062
20
-8.1737887337663881
10
26.249999998674571
20
-8.1737887337663846
0
LWPOLYLINE
5
245
100
AcDbEntity
8
0
100
AcDbPolyline
90
4
70
1
43
0.0
10
8.1399999986620521
20
-0.9924668747113472
10
8.3599999986623921
20
-0.99246687471024819
10
8.3599999986649429
20
-1.4987906394117472
10
8.1399999986649423
20
-1.4987906394128472
0
LWPOLYLINE
5
246
100
AcDbEntity
8
0
100
AcDbPolyline
90
4
70
1
43
0.0
10
8.6399999986620521
20
-0.99246687470879724
10
8.8599999986623921
20
-0.99246687470769812
10
8.8599999986649429
20
-1.498790639409147
10
8.6399999986649423
20
-1.4987906394102972
0
LWPOLYLINE
5
247
100
AcDbEntity
8
0
100
AcDbPolyline
90
4
70
1
43
0.0
10
9.1399999986620521
20
-0.99246687470624717
10
9.3599999986623921
20
-0.99246687470509909
10
9.3599999986649429
20
-1.4987906394065973
10
9.1399999986649423
20
-1.4987906394077473
0
LWPOLYLINE
5
248
100
AcDbEntity
8
0
100
AcDbPolyline
90
4
70
1
43
0.0
10
9.6399999986620521
20
-0.9924668747036971
10
9.8599999986623921
20
-0.99246687470254913
10
9.8599999986649429
20
-1.4987906394040471
10
9.6399999986649441
20
-1.4987906394051973
0
LWPOLYLINE
5
249
100
AcDbEntity
8
0
100
AcDbPolyline
90
4
70
1
43
0.0
10
10.139999998662093
20
-0.99246687470114725
10
10.359999998662392
20
-0.99246687469999928
10
10.359999998664893
20
-1.4987906394014971
10
10.139999998664994
20
-1.4987906394026471
0
LWPOLYLINE
5
250
100
AcDbEntity
8
0
100
AcDbPolyline
90
4
70
1
43
0.0
10
10.639999998662093
20
-0.99246687469859707
10
10.859999998662392
20
-0.9924668746974491
10
10.859999998664893
20
-1.4987906393989472
10
10.639999998664996
20
-1.4987906394000972
0
LWPOLYLINE
5
251
100
AcDbEntity
8
0
100
AcDbPolyline
90
4
70
1
43
0.0
10
11.139999998662093
20
-0.99246687469604722
10
11.359999998662394
20
-0.99246687469489925
10
11.359999998664893
20
-1.498790639396397
10
11.139999998664994
20
-1.4987906393975472
0
LWPOLYLINE
5
252
100
AcDbEntity
8
0
100
AcDbPolyline
90
4
70
1
43
0.0
10
11.639999998662095
20
-0.99246687469349726
10
11.859999998662392
20
-0.99246687469234918
10
11.859999998664893
20
-1.4987906393938473
10
11.639999998664994
20
-1.498790639394997
0
LWPOLYLINE
5
253
100
AcDbEntity
8
0
100
AcDbPolyline
90
4
70
1
43
0.0
10
12.139999998662095
20
-0.99246687469094708
10
12.359999998662392
20
-0.99246687468979911
10
12.359999998664895
20
-1.4987906393912973
10
12.139999998664894
20
-1.4987906393924471
0
LWPOLYLINE
5
254
100
AcDbEntity
8
0
100
AcDbPolyline
90
4
70
1
43
0.0
10
12.639999998662095
20
-0.99246687468839712
10
12.859999998662392
20
-0.99246687468724915
10
12.859999998664895
20
-1.4987906393887471
10
12.639999998664893
20
-1.4987906393898973
0
LWPOLYLINE
5
255
100
AcDbEntity
8
0
100
AcDbPolyline
90
4
70
1
43
0.0
10
13.139999998662093
20
-0.99246687468584727
10
13.359999998662392
20
-0.99246687468469919
10
13.359999998664993
20
-1.4987906393861972
10
13.139999998664893
20
-1.4987906393873471
0
LWPOLYLINE
5
256
100
AcDbEntity
8
0
100
AcDbPolyline
90
4
70
1
43
0.0
10
13.639999998662093
20
-0.99246687468329708
10
13.859999998662394
20
-0.99246687468214911
10
13.859999998664993
20
-1.4987906393836472
10
13.639999998664894
20
-1.4987906393847972
0
LWPOLYLINE
5
257
100
AcDbEntity
8
0
100
AcDbPolyline
90
4
70
1
43
0.0
10
14.993676233955092
20
0.14120936062180089
10
14.993676233953995
20
0.36120936062215286
10
15.499999998655493
20
0.36120936062470294
10
15.499999998656593
20
0.14120936062470191
0
LWPOLYLINE
5
258
100
AcDbEntity
8
0
100
AcDbPolyline
90
4
70
1
43
0.0
10
14.993676233952593
20
0.64120936062180189
10
14.993676233951394
20
0.86120936062214992
10
15.499999998652893
20
0.86120936062469999
10
15.499999998653992
20
0.64120936062470202
0
LWPOLYLINE
5
259
100
AcDbEntity
8
0
100
AcDbPolyline
90
4
70
1
43
0.0
10
14.993676233949992
20
1.1412093606218028
10
14.993676233948893
20
1.3612093606221529
10
15.499999998650393
20
1.3612093606247031
10
15.499999998651495
20
1.1412093606247029
0
LWPOLYLINE
5
260
100
AcDbEntity
8
0
100
AcDbPolyline
90
4
70
1
43
0.0
10
14.993676233947495
20
1.6412093606218028
10
14.993676233946294
20
1.8612093606221531
10
15.499999998647793
20
1.8612093606247029
10
15.499999998648892
20
1.6412093606247029
0
LWPOLYLINE
5
261
100
AcDbEntity
8
0
100
AcDbPolyline
90
4
70
1
43
0.0
10
14.993676233944893
20
2.141209360621803
10
14.993676233943694
20
2.3612093606221531
10
15.499999998645295
20
2.3612093606247031
10
15.499999998646395
20
2.1412093606247029
0
LWPOLYLINE
5
262
100
AcDbEntity
8
0
100
AcDbPolyline
90
4
70
1
43
0.0
10
14.993676233942395
20
2.641209360621803
10
14.993676233941194
20
2.8612093606221527
10
15.499999998642693
20
2.8612093606247031
10
15.499999998643794
20
2.6412093606247029
0
LWPOLYLINE
5
263
100
AcDbEntity
8
0
100
AcDbPolyline
90
4
70
1
43
0.0
10
14.993676233939794
20
3.1412093606218034
10
14.993676233938595
20
3.3612093606221527
10
15.499999998640195
20
3.3612093606247035
10
15.499999998641293
20
3.1412093606247034
0
LWPOLYLINE
5
264
100
AcDbEntity
8
0
100
AcDbPolyline
90
4
70
1
43
0.0
10
14.993676233937293
20
3.6412093606218034
10
14.993676233936093
20
3.8612093606221531
10
15.499999998637595
20
3.8612093606247031
10
15.499999998638694
20
3.6412093606247034
0
LWPOLYLINE
5
265
100
AcDbEntity
8
0
100
AcDbPolyline
90
4
70
1
43
0.0
10
14.993676233934695
20
4.1412093606218026
10
14.993676233933495
20
4.3612093606221531
10
15.499999998635094
20
4.3612093606247031
10
15.499999998636193
20
4.1412093606247025
0
LWPOLYLINE
5
266
100
AcDbEntity
8
0
100
AcDbPolyline
90
4
70
1
43
0.0
10
14.993676233932193
20
4.6412093606218026
10
14.993676233930993
20
4.8612093606221531
10
15.499999998632495
20
4.8612093606247031
10
15.499999998633594
20
4.6412093606247034
0
LWPOLYLINE
5
267
100
AcDbEntity
8
0
100
AcDbPolyline
90
4
70
1
43
0.0
10
14.993676233929595
20
5.1412093606218026
10
14.993676233928394
20
5.3612093606221531
10
15.499999998629994
20
5.361209360624704
10
15.499999998631093
20
5.1412093606247025
0
LWPOLYLINE
5
268
100
AcDbEntity
8
0
100
AcDbPolyline
90
4
70
1
43
0.0
10
14.993676233927093
20
5.6412093606218026
10
14.993676233925894
20
5.861209360622154
10
15.499999998627395
20
5.8612093606247031
10
15.499999998628493
20
5.6412093606247025
0
LWPOLYLINE
5
269
100
AcDbEntity
8
0
100
AcDbPolyline
90
4
70
1
43
0.0
10
13.859999998621992
20
6.9948855959148526
10
13.639999998621594
20
6.9948855959137033
10
13.639999998618995
20
7.5012093606152028
10
13.859999998619095
20
7.501209360616353
0
LWPOLYLINE
5
270
100
AcDbEntity
8
0
100
AcDbPolyline
90
4
70
1
43
0.0
10
13.359999998621895
20
6.9948855959123035
10
13.139999998621693
20
6.9948855959111533
10
13.139999998619095
20
7.5012093606126529
10
13.359999998619095
20
7.5012093606138031
0
LWPOLYLINE
5
271
100
AcDbEntity
8
0
100
AcDbPolyline
90
4
70
1
43
0.0
10
12.859999998621895
20
6.9948855959097536
10
12.639999998621693
20
6.9948855959086034
10
12.639999998619093
20
7.5012093606101038
10
12.859999998618994
20
7.501209360611254
0
LWPOLYLINE
5
272
100
AcDbEntity
8
0
100
AcDbPolyline
90
4
70
1
43
0.0
10
12.359999998621994
20
6.9948855959072027
10
12.139999998621693
20
6.9948855959060534
10
12.139999998619093
20
7.5012093606075538
10
12.359999998618994
20
7.501209360608704
0
LWPOLYLINE
5
273
100
AcDbEntity
8
0
100
AcDbPolyline
90
4
70
1
43
0.0
10
11.859999998621992
20
6.9948855959046528
10
11.639999998621693
20
6.9948855959035026
10
11.639999998619093
20
7.501209360605003
10
11.859999998618992
20
7.5012093606061541
0
LWPOLYLINE
5
274
100
AcDbEntity
8
0
100
AcDbPolyline
90
4
70
1
43
0.0
10
11.359999998621893
20
6.9948855959021028
10
11.139999998621695
20
6.9948855959009526
10
11.139999998619093
20
7.501209360602453
10
11.359999998618992
20
7.5012093606036032
0
LWPOLYLINE
5
275
100
AcDbEntity
8
0
100
AcDbPolyline
90
4
70
1
43
0.0
10
10.859999998621895
20
6.9948855958995537
10
10.639999998621693
20
6.9948855958984035
10
10.639999998619095
20
7.5012093605999031
10
10.859999998618992
20
7.5012093606010533
0
LWPOLYLINE
5
276
100
AcDbEntity
8
0
100
AcDbPolyline
90
4
70
1
43
0.0
10
10.359999998621895
20
6.9948855958970038
10
10.139999998621693
20
6.9948855958958536
10
10.139999998619093
20
7.501209360597354
10
10.359999998618992
20
7.5012093605985042
0
LWPOLYLINE
5
277
100
AcDbEntity
8
0
100
AcDbPolyline
90
4
70
1
43
0.0
10
9.8599999986219427
20
6.9948855958944538
10
9.6399999986215938
20
6.9948855958933027
10
9.639999998619043
20
7.501209360594804
10
9.8599999986190454
20
7.5012093605959524
0
LWPOLYLINE
5
278
100
AcDbEntity
8
0
100
AcDbPolyline
90
4
70
1
43
0.0
10
9.3599999986219427
20
6.994885595891903
10
9.1399999986215938
20
6.9948855958907528
10
9.139999998619043
20
7.5012093605922541
10
9.3599999986190436
20
7.5012093605934025
0
LWPOLYLINE
5
279
100
AcDbEntity
8
0
100
AcDbPolyline
90
4
70
1
43
0.0
10
8.8599999986219444
20
6.994885595889353
10
8.6399999986215938
20
6.9948855958882028
10
8.639999998619043
20
7.5012093605897032
10
8.8599999986190436
20
7.5012093605908525
0
LWPOLYLINE
5
280
100
AcDbEntity
8
0
100
AcDbPolyline
90
4
70
1
43
0.0
10
8.3599999986219427
20
6.9948855958868039
10
8.1399999986215938
20
6.9948855958856537
10
8.139999998619043
20
7.5012093605871533
10
8.3599999986190436
20
7.5012093605883035
0
LWPOLYLINE
5
281
100
AcDbEntity
8
0
100
AcDbPolyline
90
4
70
1
43
0.0
10
7.0063237633289033
20
5.8612093605817028
10
7.0063237633300437
20
5.6412093605813531
10
6.4999999986285442
20
5.6412093605788041
10
6.4999999986274037
20
5.8612093605787532
0
LWPOLYLINE
5
282
100
AcDbEntity
8
0
100
AcDbPolyline
90
4
70
1
43
0.0
10
7.0063237633314435
20
5.3612093605817037
10
7.0063237633326025
20
5.1412093605813531
10
6.499999998631103
20
5.1412093605788032
10
6.4999999986299439
20
5.3612093605788038
0
LWPOLYLINE
5
283
100
AcDbEntity
8
0
100
AcDbPolyline
90
4
70
1
43
0.0
10
7.0063237633340041
20
4.8612093605817028
10
7.0063237633351427
20
4.6412093605813531
10
6.4999999986336432
20
4.6412093605788032
10
6.4999999986325028
20
4.8612093605788029
0
LWPOLYLINE
5
284
100
AcDbEntity
8
0
100
AcDbPolyline
90
4
70
1
43
0.0
10
7.0063237633365443
20
4.3612093605817028
10
7.0063237633376927
20
4.1412093605813531
10
6.4999999986361932
20
4.1412093605788041
10
6.499999998635043
20
4.3612093605788029
0
LWPOLYLINE
5
285
100
AcDbEntity
8
0
100
AcDbPolyline
90
4
70
1
43
0.0
10
7.006323763339104
20
3.8612093605817033
10
7.0063237633402426
20
3.6412093605813527
10
6.499999998638744
20
3.6412093605788032
10
6.4999999986376036
20
3.8612093605788034
0
LWPOLYLINE
5
286
100
AcDbEntity
8
0
100
AcDbPolyline
90
4
70
1
43
0.0
10
7.0063237633416442
20
3.3612093605817028
10
7.0063237633427935
20
3.1412093605813531
10
6.4999999986413037
20
3.1412093605788027
10
6.4999999986401438
20
3.3612093605788029
0
LWPOLYLINE
5
287
100
AcDbEntity
8
0
100
AcDbPolyline
90
4
70
1
43
0.0
10
7.006323763344203
20
2.8612093605817028
10
7.0063237633453435
20
2.6412093605813531
10
6.4999999986438439
20
2.6412093605788027
10
6.4999999986426937
20
2.8612093605788029
0
LWPOLYLINE
5
288
100
AcDbEntity
8
0
100
AcDbPolyline
90
4
70
1
43
0.0
10
7.0063237633467432
20
2.3612093605817028
10
7.0063237633478925
20
2.1412093605813527
10
6.499999998646393
20
2.1412093605788032
10
6.4999999986452428
20
2.3612093605788029
0
LWPOLYLINE
5
289
100
AcDbEntity
8
0
100
AcDbPolyline
90
4
70
1
43
0.0
10
7.0063237633493038
20
1.8612093605817028
10
7.0063237633504443
20
1.6412093605813529
10
6.499999998648943
20
1.6412093605788032
10
6.4999999986477928
20
1.8612093605788029
0
LWPOLYLINE
5
290
100
AcDbEntity
8
0
100
AcDbPolyline
90
4
70
1
43
0.0
10
7.0063237633518938
20
1.3612093605817031
10
7.006323763353004
20
1.1412093605813529
10
6.4999999986514929
20
1.141209360578803
10
6.4999999986503942
20
1.3612093605788032
0
LWPOLYLINE
5
291
100
AcDbEntity
8
0
100
AcDbPolyline
90
4
70
1
43
0.0
10
7.0063237633544029
20
0.86120936058170394
10
7.0063237633555442
20
0.64120936058135192
10
6.4999999986540438
20
0.64120936057880185
10
6.4999999986528936
20
0.86120936057880293
0
LWPOLYLINE
5
292
100
AcDbEntity
8
0
100
AcDbPolyline
90
4
70
1
43
0.0
10
7.0063237633569928
20
0.36120936058170289
10
7.0063237633580933
20
0.14120936058135086
10
6.4999999986565937
20
0.14120936057880087
10
6.4999999986554933
20
0.36120936057880293
0
LWPOLYLINE
5
293
100
AcDbEntity
8
0
100
AcDbPolyline
90
4
70
1
43
0.0
10
22.899999998641995
20
-6.3917202787285472
10
23.299999998641994
20
-6.3917202787285472
10
23.299999998641994
20
-6.5987906393982474
10
22.899999998641995
20
-6.5987906393982474
0
LWPOLYLINE
5
294
100
AcDbEntity
8
0
100
AcDbPolyline
90
4
70
1
43
0.0
10
24.249999998641997
20
-4.3058610000679467
10
23.849999998641994
20
-4.3058610000679467
10
23.849999998641994
20
-4.0987906393982474
10
24.249999998641997
20
-4.0987906393982474
0
LWPOLYLINE
5
295
100
AcDbEntity
8
0
100
AcDbPolyline
90
4
70
1
43
0.0
10
22.349999998641998
20
-4.3058610000679467
10
21.949999998641992
20
-4.3058610000679467
10
21.949999998641992
20
-4.0987906393982474
10
22.349999998641998
20
-4.0987906393982474
0
LWPOLYLINE
5
296
100
AcDbEntity
8
0
100
AcDbPolyline
90
4
70
1
43
0.0
10
22.174999998641994
20
10.458209985626155
10
21.524999998641992
20
10.458209985626155
10
21.524999998641992
20
10.551209360601755
10
22.174999998641994
20
10.551209360601755
0
LWPOLYLINE
5
297
100
AcDbEntity
8
0
100
AcDbPolyline
90
4
70
1
43
0.0
10
21.524999998641992
20
6.8442087355773529
10
22.174999998641994
20
6.8442087355773529
10
22.174999998641994
20
6.7512093606017531
10
21.524999998641992
20
6.7512093606017531
0
LWPOLYLINE
5
298
100
AcDbEntity
8
0
100
AcDbPolyline
90
4
70
1
43
0.0
10
19.457000623666396
20
17.476209360601757
10
19.457000623666396
20
18.126209360601752
10
19.549999998641994
20
18.126209360601752
10
19.549999998641994
20
17.476209360601757
0
LWPOLYLINE
5
299
100
AcDbEntity
8
0
100
AcDbPolyline
90
4
70
1
43
0.0
10
15.842999373617594
20
18.126209360601752
10
15.842999373617594
20
17.476209360601757
10
15.749999998641995
20
17.476209360601757
10
15.749999998641995
20
18.126209360601752
0
LWPOLYLINE
5
300
100
AcDbEntity
8
0
100
AcDbPolyline
90
4
70
1
43
0.0
10
10.242999373617593
20
12.976209360601754
10
10.242999373617593
20
12.326209360601755
10
10.149999998641995
20
12.326209360601755
10
10.149999998641995
20
12.976209360601754
0
LWPOLYLINE
5
301
100
AcDbEntity
8
0
100
AcDbPolyline
90
4
70
1
43
0.0
10
13.857000623666394
20
12.326209360601755
10
13.857000623666394
20
12.976209360601754
10
13.949999998641992
20
12.976209360601754
10
13.949999998641992
20
12.326209360601755
0
LWPOLYLINE
5
302
100
AcDbEntity
8
0
100
AcDbPolyline
90
4
70
1
43
0.0
10
10.242999373617593
20
15.476209360601754
10
10.242999373617593
20
14.826209360601755
10
10.149999998641995
20
14.826209360601755
10
10.149999998641995
20
15.476209360601754
0
LWPOLYLINE
5
303
100
AcDbEntity
8
0
100
AcDbPolyline
90
4
70
1
43
0.0
10
13.857000623666394
20
14.826209360601755
10
13.857000623666394
20
15.476209360601754
10
13.949999998641992
20
15.476209360601754
10
13.949999998641992
20
14.826209360601755
0
LWPOLYLINE
5
304
100
AcDbEntity
8
0
100
AcDbPolyline
90
4
70
1
43
0.0
10
13.099999998641994
20
17.701209360601752
10
13.099999998641994
20
19.701209360601752
10
14.208748434313193
20
19.701209360601752
10
14.208748434313193
20
17.701209360601752
0
LWPOLYLINE
5
305
100
AcDbEntity
8
0
100
AcDbPolyline
90
4
70
1
43
0.0
10
10.299999998641994
20
19.701209360601752
10
10.299999998641994
20
17.701209360601752
10
9.1912515629707929
20
17.701209360601752
10
9.1912515629707947
20
19.701209360601752
0
LWPOLYLINE
5
306
100
AcDbEntity
8
0
100
AcDbPolyline
90
4
70
1
43
0.0
10
10.399999998641993
20
16.994188962347152
10
10.399999998641993
20
20.408229758856354
10
12.999999998641997
20
20.408229758856251
10
12.999999998641997
20
16.994188962347152
0
LWPOLYLINE
5
307
100
AcDbEntity
8
0
100
AcDbPolyline
90
4
70
1
43
0.0
10
-4.9000000013580056
20
19.101209360601754
10
-6.9000000013580065
20
19.101209360601754
10
-6.9000000013580065
20
20.209957796272953
10
-4.9000000013580065
20
20.209957796272953
0
LWPOLYLINE
5
308
100
AcDbEntity
8
0
100
AcDbPolyline
90
4
70
1
43
0.0
10
-6.9000000013580065
20
16.301209360601753
10
-4.9000000013580065
20
16.301209360601753
10
-4.9000000013580056
20
15.192460924930554
10
-6.9000000013580065
20
15.192460924930554
0
LWPOLYLINE
5
309
100
AcDbEntity
8
0
100
AcDbPolyline
90
4
70
1
43
0.0
10
-4.1929796031034066
20
16.401209360601754
10
-7.6070203996126047
20
16.401209360601754
10
-7.6070203996125061
20
19.001209360601756
10
-4.1929796031034066
20
19.001209360601756
0
LWPOLYLINE
5
310
100
AcDbEntity
8
0
100
AcDbPolyline
90
4
70
1
43
0.0
10
5.7499999986419938
20
8.6236568082518534
10
5.7499999986419938
20
7.8787619129516528
10
5.4499999986419931
20
7.8787619129516528
10
5.4499999986419931
20
8.6236568082518534
0
LWPOLYLINE
5
311
100
AcDbEntity
8
0
100
AcDbPolyline
90
4
70
1
43
0.0
10
7.0499999986419937
20
7.8787619129516528
10
6.749999998641993
20
7.8787619129516528
10
6.749999998641993
20
8.6236568082518534
10
7.0499999986419937
20
8.6236568082518534
0
LWPOLYLINE
5
312
100
AcDbEntity
8
0
100
AcDbPolyline
90
4
70
1
43
0.0
10
1.9775525509918936
20
-0.44879063939824909
10
2.7224474462920933
20
-0.44879063939824909
10
2.7224474462920933
20
-0.74879063939824708
10
1.9775525509918936
20
-0.74879063939824708
0
LWPOLYLINE
5
313
100
AcDbEntity
8
0
100
AcDbPolyline
90
4
70
1
43
0.0
10
2.7224474462920933
20
0.85120936060175401
10
2.7224474462920933
20
0.55120936060175185
10
1.9775525509918936
20
0.55120936060175185
10
1.9775525509918936
20
0.85120936060175401
0
LWPOLYLINE
5
314
100
AcDbEntity
8
0
100
AcDbPolyline
90
4
70
1
43
0.0
10
6.7999999986419937
20
-4.226343191748148
10
6.7999999986419937
20
-4.9712380870483468
10
6.499999998641993
20
-4.9712380870483468
10
6.499999998641993
20
-4.226343191748148
0
LWPOLYLINE
5
315
100
AcDbEntity
8
0
100
AcDbPolyline
90
4
70
1
43
0.0
10
8.0999999986419944
20
-4.9712380870483468
10
7.7999999986419937
20
-4.9712380870483468
10
7.7999999986419937
20
-4.226343191748148
10
8.0999999986419944
20
-4.226343191748148
0
CIRCLE
5
316
100
AcDbEntity
8
0
100
AcDbCircle
10
-3.0000000013574972
20
-6.4987906393984272
30
0
40
4.8863237646498003
210
-8.3816471179732504e-31
220
5.4087195424017421e-29
230
1
0
CIRCLE
5
317
100
AcDbEntity
8
0
100
AcDbCircle
10
3.4999999986424846
20
15.501209360601953
30
0
40
4.88632376382703
210
-8.3816471179732504e-31
220
5.4086980978583001e-29
230
1
0
LWPOLYLINE
5
318
100
AcDbEntity
8
0
100
AcDbPolyline
90
4
70
1
43
0.0
10
10.031997497077594
20
-11.198790639398249
10
9.5680025002064433
20
-11.198790639398249
10
9.5680025002064433
20
-10.998790639398248
10
10.031997497077594
20
-10.998790639398248
0
LWPOLYLINE
5
319
100
AcDbEntity
8
0
100
AcDbPolyline
90
4
70
1
43
0.0
10
9.5680025002064433
20
-11.99879063939825
10
9.5680025002064433
20
-11.798790639398247
10
10.031997497077594
20
-11.798790639398247
10
10.031997497077594
20
-11.99879063939825
0
LWPOLYLINE
5
320
100
AcDbEntity
8
0
100
AcDbPolyline
90
4
70
1
43
0.0
10
23.999999998641997
20
7.0832068590373032
10
23.999999998641997
20
6.6192118621662033
10
23.799999998641997
20
6.6192118621662033
10
23.799999998641997
20
7.0832068590373032
0
LWPOLYLINE
5
321
100
AcDbEntity
8
0
100
AcDbPolyline
90
4
70
1
43
0.0
10
24.799999998641997
20
6.6192118621662033
10
24.599999998641998
20
6.6192118621662033
10
24.599999998641998
20
7.0832068590373032
10
24.799999998641997
20
7.0832068590373032
0
LWPOLYLINE
5
322
100
AcDbEntity
8
0
100
AcDbPolyline
90
4
70
1
43
0.0
10
-22.600000001358008
20
9.7287619129516543
10
-22.600000001358008
20
10.473656808251855
10
-22.300000001358008
20
10.473656808251855
10
-22.300000001358008
20
9.7287619129516543
0
LWPOLYLINE
5
323
100
AcDbEntity
8
0
100
AcDbPolyline
90
4
70
1
43
0.0
10
-23.900000001358009
20
10.473656808251855
10
-23.600000001358012
20
10.473656808251855
10
-23.600000001358012
20
9.7287619129516543
10
-23.900000001358009
20
9.7287619129516543
0
LWPOLYLINE
5
324
100
AcDbEntity
8
0
100
AcDbPolyline
90
4
70
1
43
0.0
10
-20.000000001358007
20
-9.5263431917481469
10
-20.000000001358007
20
-10.271238087048349
10
-20.300000001358008
20
-10.271238087048349
10
-20.300000001358008
20
-9.5263431917481469
0
LWPOLYLINE
5
325
100
AcDbEntity
8
0
100
AcDbPolyline
90
4
70
1
43
0.0
10
-18.700000001358006
20
-10.271238087048349
10
-19.000000001358007
20
-10.271238087048349
10
-19.000000001358007
20
-9.5263431917481469
10
-18.700000001358006
20
-9.5263431917481469
0
LWPOLYLINE
5
326
100
AcDbEntity
8
0
100
AcDbPolyline
90
4
70
1
43
0.0
10
28.149999998641992
20
11.419211862166254
10
28.149999998641992
20
11.883206859037255
10
28.349999998641998
20
11.883206859037255
10
28.349999998641998
20
11.419211862166254
0
LWPOLYLINE
5
327
100
AcDbEntity
8
0
100
AcDbPolyline
90
4
70
1
43
0.0
10
27.349999998641998
20
11.883206859037255
10
27.549999998641997
20
11.883206859037255
10
27.549999998641997
20
11.419211862166254
10
27.349999998641998
20
11.419211862166254
0
LWPOLYLINE
5
328
100
AcDbEntity
8
0
100
AcDbPolyline
90
4
70
1
43
0.0
10
16.318002500206493
20
-4.5987906393982474
10
16.781997497077494
20
-4.5987906393982474
10
16.781997497077494
20
-4.7987906393982467
10
16.318002500206493
20
-4.7987906393982467
0
LWPOLYLINE
5
329
100
AcDbEntity
8
0
100
AcDbPolyline
90
4
70
1
43
0.0
10
20.199999998641992
20
-6.8307881378337978
10
20.199999998641992
20
-6.3667931409626979
10
20.399999998641995
20
-6.3667931409626979
10
20.399999998641995
20
-6.8307881378337978
0
LWPOLYLINE
5
330
100
AcDbEntity
8
0
100
AcDbPolyline
90
4
70
1
43
0.0
10
12.499999998641993
20
-6.4667931409626975
10
12.499999998641993
20
-6.9307881378337974
10
12.299999998641995
20
-6.9307881378337974
10
12.299999998641995
20
-6.4667931409626975
0
LWPOLYLINE
5
331
100
AcDbEntity
8
0
100
AcDbPolyline
90
4
70
1
43
0.0
10
18.299999998641994
20
-18.630788137833747
10
18.299999998641994
20
-18.166793140962746
10
18.499999998641993
20
-18.166793140962746
10
18.499999998641993
20
-18.630788137833747
0
LWPOLYLINE
5
332
100
AcDbEntity
8
0
100
AcDbPolyline
90
4
70
1
43
0.0
10
21.431997497077493
20
-9.698790639398247
10
20.968002500206492
20
-9.698790639398247
10
20.968002500206492
20
-9.4987906393982477
10
21.431997497077493
20
-9.4987906393982477
0
LWPOLYLINE
5
333
100
AcDbEntity
8
0
100
AcDbPolyline
90
4
70
1
43
0.0
10
8.6319974970775437
20
-7.7487906393982477
10
8.1680025002064447
20
-7.7487906393982477
10
8.1680025002064447
20
-7.5487906393982476
10
8.6319974970775437
20
-7.5487906393982476
0
CIRCLE
5
334
100
AcDbEntity
8
0
100
AcDbCircle
10
-15.95000000135801
20
-25.408790639398248
30
0
40
1.6000000000000003
210
-0
220
0
230
1
0
CIRCLE
5
335
100
AcDbEntity
8
0
100
AcDbCircle
10
15.949999998641996
20
25.411209360601752
30
0
40
1.6000000000000003
210
-0
220
0
230
1
0
CIRCLE
5
336
100
AcDbEntity
8
0
100
AcDbCircle
10
-16.250000001358003
20
26.751209360601752
30
0
40
1.6000000000000003
210
-0
220
0
230
1
0
CIRCLE
5
337
100
AcDbEntity
8
0
100
AcDbCircle
10
16.249999998641989
20
-26.748790639398248
30
0
40
1.6000000000000003
210
-2.2186712959340966e-31
220
1.2316100376910979e-47
230
1
0
LWPOLYLINE
5
338
100
AcDbEntity
8
0
100
AcDbPolyline
90
4
70
1
43
0.0
10
8.1680025002064447
20
-8.5487906393982467
10
8.1680025002064447
20
-8.3487906393982474
10
8.6319974970775437
20
-8.3487906393982474
10
8.6319974970775437
20
-8.5487906393982467
0
LWPOLYLINE
5
339
100
AcDbEntity
8
0
100
AcDbPolyline
90
4
70
1
43
0.0
10
20.968002500206492
20
-10.498790639398248
10
20.968002500206492
20
-10.298790639398248
10
21.431997497077493
20
-10.298790639398248
10
21.431997497077493
20
-10.498790639398248
0
LWPOLYLINE
5
340
100
AcDbEntity
8
0
100
AcDbPolyline
90
4
70
1
43
0.0
10
17.499999998641993
20
-18.166793140962746
10
17.699999998641992
20
-18.166793140962746
10
17.699999998641992
20
-18.630788137833747
10
17.499999998641993
20
-18.630788137833747
0
LWPOLYLINE
5
341
100
AcDbEntity
8
0
100
AcDbPolyline
90
4
70
1
43
0.0
10
13.299999998641994
20
-6.9307881378337974
10
13.099999998641994
20
-6.9307881378337974
10
13.099999998641994
20
-6.4667931409626975
10
13.299999998641994
20
-6.4667931409626975
0
LWPOLYLINE
5
342
100
AcDbEntity
8
0
100
AcDbPolyline
90
4
70
1
43
0.0
10
19.399999998641992
20
-6.3667931409626979
10
19.599999998641994
20
-6.3667931409626979
10
19.599999998641994
20
-6.8307881378337978
10
19.399999998641992
20
-6.8307881378337978
0
LWPOLYLINE
5
343
100
AcDbEntity
8
0
100
AcDbPolyline
90
4
70
1
43
0.0
10
16.781997497077494
20
-3.7987906393982476
10
16.781997497077494
20
-3.9987906393982477
10
16.318002500206493
20
-3.9987906393982477
10
16.318002500206493
20
-3.7987906393982476
0
LWPOLYLINE
5
344
100
AcDbEntity
8
0
100
AcDbPolyline
90
4
70
1
43
0.0
10
-23.900000001358009
20
-9.5263431917481469
10
-23.600000001358012
20
-9.5263431917481469
10
-23.600000001358012
20
-10.271238087048349
10
-23.900000001358009
20
-10.271238087048349
0
LWPOLYLINE
5
345
100
AcDbEntity
8
0
100
AcDbPolyline
90
4
70
1
43
0.0
10
-22.600000001358008
20
-10.271238087048349
10
-22.600000001358008
20
-9.5263431917481469
10
-22.300000001358008
20
-9.5263431917481469
10
-22.300000001358008
20
-10.271238087048349
0
LWPOLYLINE
5
346
100
AcDbEntity
8
0
100
AcDbPolyline
90
4
70
1
43
0.0
10
-18.700000001358006
20
9.7287619129516543
10
-19.000000001358007
20
9.7287619129516543
10
-19.000000001358007
20
10.473656808251855
10
-18.700000001358006
20
10.473656808251855
0
LWPOLYLINE
5
347
100
AcDbEntity
8
0
100
AcDbPolyline
90
4
70
1
43
0.0
10
-20.000000001358007
20
10.473656808251855
10
-20.000000001358007
20
9.7287619129516543
10
-20.300000001358008
20
9.7287619129516543
10
-20.300000001358008
20
10.473656808251855
0
LWPOLYLINE
5
348
100
AcDbEntity
8
0
100
AcDbPolyline
90
4
70
1
43
0.0
10
24.649999998641992
20
-14.680788137833849
10
24.449999998641996
20
-14.680788137833849
10
24.449999998641996
20
-14.216793140962746
10
24.649999998641992
20
-14.216793140962746
0
LWPOLYLINE
5
349
100
AcDbEntity
8
0
100
AcDbPolyline
90
4
70
1
43
0.0
10
23.849999998641994
20
-14.216793140962746
10
23.849999998641994
20
-14.680788137833849
10
23.649999998641992
20
-14.680788137833849
10
23.649999998641992
20
-14.216793140962746
0
LWPOLYLINE
5
350
100
AcDbEntity
8
0
100
AcDbPolyline
90
4
70
1
43
0.0
10
16.699999998641992
20
13.339036019406754
10
17.099999998641994
20
13.339036019406754
10
17.099999998641994
20
12.163382701796754
10
16.699999998641992
20
12.163382701796754
0
LWPOLYLINE
5
351
100
AcDbEntity
8
0
100
AcDbPolyline
90
4
70
1
43
0.0
10
15.099999998641993
20
13.339036019406754
10
15.499999998641993
20
13.339036019406754
10
15.499999998641993
20
12.163382701796754
10
15.099999998641993
20
12.163382701796754
0
LWPOLYLINE
5
352
100
AcDbEntity
8
0
100
AcDbPolyline
90
4
70
1
43
0.0
10
10.337826657446993
20
-5.948790639398247
10
10.337826657446993
20
-6.3487906393982474
10
9.1621733398369933
20
-6.3487906393982474
10
9.1621733398369933
20
-5.948790639398247
0
LWPOLYLINE
5
353
100
AcDbEntity
8
0
100
AcDbPolyline
90
4
70
1
43
0.0
10
10.337826657446993
20
-4.3487906393982474
10
10.337826657446993
20
-4.7487906393982469
10
9.1621733398369933
20
-4.7487906393982469
10
9.1621733398369933
20
-4.3487906393982474
0
LWPOLYLINE
5
354
100
AcDbEntity
8
0
100
AcDbPolyline
90
4
70
1
43
0.0
10
9.449999998641994
20
10.789036019406753
10
9.8499999986419944
20
10.789036019406753
10
9.8499999986419944
20
9.6133827017967537
10
9.4499999986419922
20
9.6133827017967537
0
LWPOLYLINE
5
355
100
AcDbEntity
8
0
100
AcDbPolyline
90
4
70
1
43
0.0
10
7.8499999986419944
20
10.789036019406753
10
8.2499999986419947
20
10.789036019406753
10
8.2499999986419947
20
9.6133827017967537
10
7.8499999986419935
20
9.6133827017967537
0
LWPOLYLINE
5
356
100
AcDbEntity
8
0
100
AcDbPolyline
90
4
70
1
43
0.0
10
22.687826657446998
20
13.001209360601752
10
22.687826657446998
20
12.601209360601755
10
21.512173339836991
20
12.601209360601755
10
21.512173339836991
20
13.001209360601752
0
LWPOLYLINE
5
357
100
AcDbEntity
8
0
100
AcDbPolyline
90
4
70
1
43
0.0
10
22.687826657446998
20
14.601209360601754
10
22.687826657446998
20
14.201209360601755
10
21.512173339836991
20
14.201209360601755
10
21.512173339836991
20
14.601209360601754
0
LWPOLYLINE
5
358
100
AcDbEntity
8
0
100
AcDbPolyline
90
4
70
1
43
0.0
10
20.662826657446992
20
13.001209360601752
10
20.662826657446992
20
12.601209360601755
10
18.237173339836993
20
12.601209360601755
10
18.237173339836993
20
13.001209360601752
0
LWPOLYLINE
5
359
100
AcDbEntity
8
0
100
AcDbPolyline
90
4
70
1
43
0.0
10
20.662826657446992
20
15.801209360601753
10
20.662826657446992
20
15.401209360601753
10
18.237173339836993
20
15.401209360601753
10
18.237173339836993
20
15.801209360601753
0
LWPOLYLINE
5
360
100
AcDbEntity
8
0
100
AcDbPolyline
90
4
70
1
43
0.0
10
-15.012826660163007
20
19.851209360601754
10
-15.012826660163007
20
20.251209360601756
10
-12.587173342553005
20
20.251209360601756
10
-12.587173342553005
20
19.851209360601754
0
LWPOLYLINE
5
361
100
AcDbEntity
8
0
100
AcDbPolyline
90
4
70
1
43
0.0
10
-15.012826660163007
20
17.051209360601753
10
-15.012826660163007
20
17.451209360601752
10
-12.587173342553006
20
17.451209360601752
10
-12.587173342553006
20
17.051209360601753
0
LWPOLYLINE
5
362
100
AcDbEntity
8
0
100
AcDbPolyline
90
4
70
1
43
0.0
10
-11.512826660163007
20
19.851209360601754
10
-11.512826660163007
20
20.251209360601756
10
-9.0871733425530046
20
20.251209360601756
10
-9.0871733425530046
20
19.851209360601754
0
LWPOLYLINE
5
363
100
AcDbEntity
8
0
100
AcDbPolyline
90
4
70
1
43
0.0
10
-11.512826660163007
20
17.051209360601753
10
-11.512826660163007
20
17.451209360601752
10
-9.0871733425530063
20
17.451209360601752
10
-9.0871733425530046
20
17.051209360601753
0
LWPOLYLINE
5
364
100
AcDbEntity
8
0
100
AcDbPolyline
90
4
70
1
43
0.0
10
-12.787173342553009
20
-19.848790639398246
10
-12.787173342553009
20
-20.248790639398248
10
-15.21282666016301
20
-20.248790639398248
10
-15.21282666016301
20
-19.848790639398246
0
LWPOLYLINE
5
365
100
AcDbEntity
8
0
100
AcDbPolyline
90
4
70
1
43
0.0
10
-12.787173342553009
20
-17.048790639398248
10
-12.787173342553009
20
-17.448790639398247
10
-15.212826660163008
20
-17.448790639398247
10
-15.212826660163008
20
-17.048790639398248
0
LWPOLYLINE
5
366
100
AcDbEntity
8
0
100
AcDbPolyline
90
4
70
1
43
0.0
10
-9.2871733425530092
20
-19.848790639398246
10
-9.2871733425530092
20
-20.248790639398248
10
-11.71282666016301
20
-20.248790639398248
10
-11.71282666016301
20
-19.848790639398246
0
LWPOLYLINE
5
367
100
AcDbEntity
8
0
100
AcDbPolyline
90
4
70
1
43
0.0
10
-9.2871733425530092
20
-17.048790639398248
10
-9.2871733425530092
20
-17.448790639398247
10
-11.71282666016301
20
-17.448790639398247
10
-11.712826660163007
20
-17.048790639398248
0
LWPOLYLINE
5
368
100
AcDbEntity
8
0
100
AcDbPolyline
90
4
70
1
43
0.0
10
16.962173339836994
20
10.701209360601753
10
16.962173339836994
20
11.101209360601754
10
18.137826657446993
20
11.101209360601754
10
18.137826657446993
20
10.701209360601753
0
LWPOLYLINE
5
369
100
AcDbEntity
8
0
100
AcDbPolyline
90
4
70
1
43
0.0
10
16.962173339836994
20
9.1012093606017537
10
16.962173339836994
20
9.5012093606017523
10
18.137826657446993
20
9.5012093606017523
10
18.137826657446993
20
9.1012093606017537
0
LWPOLYLINE
5
370
100
AcDbEntity
8
0
100
AcDbPolyline
90
4
70
1
43
0.0
10
18.862173339836993
20
10.701209360601753
10
18.862173339836993
20
11.101209360601754
10
20.037826657446992
20
11.101209360601754
10
20.037826657446992
20
10.701209360601753
0
LWPOLYLINE
5
371
100
AcDbEntity
8
0
100
AcDbPolyline
90
4
70
1
43
0.0
10
18.862173339836993
20
9.1012093606017537
10
18.862173339836993
20
9.5012093606017523
10
20.037826657446992
20
9.5012093606017523
10
20.037826657446992
20
9.1012093606017537
0
LWPOLYLINE
5
372
100
AcDbEntity
8
0
100
AcDbPolyline
90
4
70
1
43
0.0
10
1.2378266574469936
20
-0.59879063939824606
10
1.2378266574469936
20
-0.99879063939824708
10
0.062173339836995023
20
-0.99879063939824708
10
0.062173339836994995
20
-0.59879063939824606
0
LWPOLYLINE
5
373
100
AcDbEntity
8
0
100
AcDbPolyline
90
4
70
1
43
0.0
10
1.2378266574469936
20
1.0012093606017531
10
1.2378266574469936
20
0.60120936060175389
10
0.062173339836995023
20
0.60120936060175389
10
0.062173339836995085
20
1.0012093606017531
0
LWPOLYLINE
5
374
100
AcDbEntity
8
0
100
AcDbPolyline
90
4
70
1
43
0.0
10
9.3499999986419926
20
-15.080788137833746
10
9.1499999986419915
20
-15.080788137833746
10
9.1499999986419915
20
-14.616793140962647
10
9.3499999986419926
20
-14.616793140962647
0
LWPOLYLINE
5
375
100
AcDbEntity
8
0
100
AcDbPolyline
90
4
70
1
43
0.0
10
8.5499999986419937
20
-14.616793140962647
10
8.5499999986419937
20
-15.080788137833746
10
8.3499999986419908
20
-15.080788137833746
10
8.3499999986419908
20
-14.616793140962647
0
CIRCLE
5
376
100
AcDbEntity
8
0
100
AcDbCircle
10
-3.0000000013575261
20
6.5012093606019628
30
0
40
4.8863237646453603
210
-8.3816471179732504e-31
220
5.408719426670651e-29
230
1
0
CIRCLE
5
377
100
AcDbEntity
8
0
100
AcDbCircle
10
-3.0000000013575381
20
-17.498790639397946
30
0
40
4.88632376420661
210
-8.3816471179732504e-31
220
5.4087079911677315e-29
230
1
0
LWPOLYLINE
5
378
100
AcDbEntity
8
0
100
AcDbPolyline
90
4
70
1
43
0.0
10
12.849999998641994
20
9.8287619129516521
10
12.549999998641994
20
9.8287619129516521
10
12.549999998641994
20
10.573656808251853
10
12.849999998641994
20
10.573656808251853
0
LWPOLYLINE
5
379
100
AcDbEntity
8
0
100
AcDbPolyline
90
4
70
1
43
0.0
10
11.549999998641994
20
10.573656808251853
10
11.549999998641994
20
9.8287619129516521
10
11.249999998641993
20
9.8287619129516521
10
11.249999998641993
20
10.573656808251853
0
LWPOLYLINE
5
380
100
AcDbEntity
8
0
100
AcDbPolyline
90
4
70
1
43
0.0
10
11.649999998641993
20
-4.3763431917481475
10
11.949999998641994
20
-4.3763431917481475
10
11.949999998641994
20
-5.1212380870483472
10
11.649999998641993
20
-5.1212380870483472
0
LWPOLYLINE
5
381
100
AcDbEntity
8
0
100
AcDbPolyline
90
4
70
1
43
0.0
10
12.949999998641992
20
-5.1212380870483472
10
12.949999998641992
20
-4.3763431917481475
10
13.249999998641995
20
-4.3763431917481475
10
13.249999998641995
20
-5.1212380870483472
0
LWPOLYLINE
5
382
100
AcDbEntity
8
0
100
AcDbPolyline
90
4
70
1
43
0.0
10
7.2499999986419938
20
-3.4712380870483472
10
6.949999998641994
20
-3.4712380870483472
10
6.949999998641994
20
-2.7263431917481471
10
7.2499999986419938
20
-2.7263431917481471
0
LWPOLYLINE
5
383
100
AcDbEntity
8
0
100
AcDbPolyline
90
4
70
1
43
0.0
10
5.949999998641994
20
-2.7263431917481471
10
5.949999998641994
20
-3.4712380870483472
10
5.6499999986419933
20
-3.4712380870483472
10
5.6499999986419933
20
-2.7263431917481471
0
LWPOLYLINE
5
384
100
AcDbEntity
8
0
100
AcDbPolyline
90
4
70
1
43
0.0
10
3.0275525509918939
20
3.7012093606017533
10
3.0275525509918939
20
4.0012093606017531
10
3.7724474462920936
20
4.0012093606017531
10
3.7724474462920936
20
3.7012093606017533
0
LWPOLYLINE
5
385
100
AcDbEntity
8
0
100
AcDbPolyline
90
4
70
1
43
0.0
10
3.7724474462920945
20
5.001209360601754
10
3.0275525509918944
20
5.001209360601754
10
3.0275525509918944
20
5.301209360601753
10
3.7724474462920945
20
5.301209360601753
0
LWPOLYLINE
5
386
100
AcDbEntity
8
0
100
AcDbPolyline
90
8
70
1
43
0.0
10
-23.850000001358008
20
-7.8887906393982474
10
-23.850000001358008
20
-6.5887906393982476
10
-25.250000001358011
20
-6.5887906393982476
10
-25.250000001358011
20
6.591209360601753
10
-23.850000001358008
20
6.591209360601753
10
-23.850000001358008
20
7.8912093606017528
10
-17.250000001358007
20
7.8912093606017528
10
-17.250000001358007
20
-7.8887906393982474
0
LWPOLYLINE
5
387
100
AcDbEntity
8
0
100
AcDbPolyline
90
7
70
1
43
0.0
10
26.784999998669594
20
-13.984652639403647
10
28.384999998669596
20
-13.984652639417249
10
28.384999998669596
20
-14.653790639398247
10
28.234999998669593
20
-14.803790639398249
10
27.284999998669598
20
-14.803790639398249
10
27.284999998669598
20
-15.12379063939825
10
26.784999998669292
20
-15.12379063939825
0
LWPOLYLINE
5
388
100
AcDbEntity
8
0
100
AcDbPolyline
90
4
70
1
43
0.0
10
-8.9500001205580091
20
-29.948790639398251
10
-8.9500001205580091
20
-25.448790639398247
10
-7.750000120558008
20
-25.448790639398247
10
-7.750000120558008
20
-29.948790639398251
0
LWPOLYLINE
5
389
100
AcDbEntity
8
0
100
AcDbPolyline
90
4
70
1
43
0.0
10
-4.250000120558008
20
-25.448790639398247
10
-3.7500001205580085
20
-25.448790639398247
10
-3.7500001205580085
20
-29.948790639398251
10
-4.250000120558008
20
-29.948790639398251
0
LWPOLYLINE
5
390
100
AcDbEntity
8
0
100
AcDbPolyline
90
4
70
1
43
0.0
10
-0.25000012055800891
20
-25.448790639398247
10
0.24999987944199209
20
-25.448790639398247
10
0.24999987944199187
20
-29.948790639398251
10
-0.25000012055800913
20
-29.948790639398251
0
LWPOLYLINE
5
391
100
AcDbEntity
8
0
100
AcDbPolyline
90
4
70
1
43
0.0
10
3.749999879441992
20
-25.448790639398247
10
4.249999879441992
20
-25.448790639398247
10
4.249999879441992
20
-29.948790639398251
10
3.749999879441992
20
-29.948790639398251
0
LWPOLYLINE
5
392
100
AcDbEntity
8
0
100
AcDbPolyline
90
4
70
1
43
0.0
10
7.749999879441992
20
-25.448790639398247
10
8.949999879441993
20
-25.448790639398247
10
8.949999879441993
20
-29.948790639398251
10
7.749999879441992
20
-29.948790639398251
0
LWPOLYLINE
5
393
100
AcDbEntity
8
0
100
AcDbPolyline
90
4
70
1
43
0.0
10
-6.750000120558008
20
-27.998790639398248
10
-6.750000120558008
20
-28.498790639398251
10
-7.2500001205580089
20
-28.498790639398251
10
-7.2500001205580089
20
-27.998790639398248
0
LWPOLYLINE
5
394
100
AcDbEntity
8
0
100
AcDbPolyline
90
4
70
1
43
0.0
10
-2.750000120558008
20
-27.998790639398248
10
-2.750000120558008
20
-28.498790639398251
10
-3.2500001205580089
20
-28.498790639398251
10
-3.2500001205580089
20
-27.998790639398248
0
LWPOLYLINE
5
395
100
AcDbEntity
8
0
100
AcDbPolyline
90
4
70
1
43
0.0
10
0.74999987944199209
20
-27.998790639398248
10
1.249999879441992
20
-27.998790639398248
10
1.249999879441992
20
-28.498790639398251
10
0.74999987944199209
20
-28.498790639398251
0
LWPOLYLINE
5
396
100
AcDbEntity
8
0
100
AcDbPolyline
90
4
70
1
43
0.0
10
4.749999879441992
20
-27.998790639398248
10
5.249999879441992
20
-27.998790639398248
10
5.249999879441992
20
-28.498790639398251
10
4.749999879441992
20
-28.498790639398251
0
LWPOLYLINE
5
397
100
AcDbEntity
8
0
100
AcDbPolyline
90
4
70
1
43
0.0
10
29.949999998641992
20
-5.948790639398247
10
25.449999998641992
20
-5.948790639398247
10
25.449999998641992
20
-4.7487906393982469
10
29.949999998641992
20
-4.7487906393982469
0
LWPOLYLINE
5
398
100
AcDbEntity
8
0
100
AcDbPolyline
90
4
70
1
43
0.0
10
25.449999998641992
20
-1.2487906393982471
10
25.449999998641992
20
-0.74879063939824708
10
29.949999998641992
20
-0.74879063939824708
10
29.949999998641992
20
-1.2487906393982471
0
LWPOLYLINE
5
399
100
AcDbEntity
8
0
100
AcDbPolyline
90
4
70
1
43
0.0
10
25.449999998641992
20
2.7512093606017531
10
25.449999998641992
20
3.2512093606017527
10
29.949999998641992
20
3.2512093606017527
10
29.949999998641992
20
2.7512093606017531
0
LWPOLYLINE
5
400
100
AcDbEntity
8
0
100
AcDbPolyline
90
4
70
1
43
0.0
10
27.999999998641997
20
-1.7487906393982473
10
28.499999998641993
20
-1.7487906393982473
10
28.499999998641993
20
-2.2487906393982473
10
27.999999998641997
20
-2.2487906393982473
0
LWPOLYLINE
5
401
100
AcDbEntity
8
0
100
AcDbPolyline
90
4
70
1
43
0.0
10
27.999999998641997
20
1.7512093606017531
10
27.999999998641997
20
2.2512093606017527
10
28.499999998641993
20
2.2512093606017527
10
28.499999998641993
20
1.7512093606017531
0
LWPOLYLINE
5
402
100
AcDbEntity
8
0
100
AcDbPolyline
90
4
70
1
43
0.0
10
-29.950000001358006
20
-6.2487906393982477
10
-29.950000001358006
20
-4.4987906393982469
10
-26.150000001358009
20
-4.4987906393982469
10
-26.150000001358009
20
-6.2487906393982477
0
LWPOLYLINE
5
403
100
AcDbEntity
8
0
100
AcDbPolyline
90
4
70
1
43
0.0
10
-29.950000001358006
20
-0.49879063939824719
10
-29.950000001358006
20
0.50120936060175403
10
-26.150000001358009
20
0.50120936060175403
10
-26.150000001358009
20
-0.49879063939824719
0
LWPOLYLINE
5
404
100
AcDbEntity
8
0
100
AcDbPolyline
90
4
70
1
43
0.0
10
-29.950000001358006
20
4.5012093606017531
10
-29.950000001358006
20
6.251209360601754
10
-26.150000001358009
20
6.251209360601754
10
-26.150000001358009
20
4.5012093606017531
0
LWPOLYLINE
5
405
100
AcDbEntity
8
0
100
AcDbPolyline
90
4
70
1
43
0.0
10
-28.030000001358012
20
-3.428790639398247
10
-28.030000001358012
20
-4.068790639398248
10
-28.670000001358012
20
-4.068790639398248
10
-28.670000001358012
20
-3.428790639398247
0
LWPOLYLINE
5
406
100
AcDbEntity
8
0
100
AcDbPolyline
90
4
70
1
43
0.0
10
-28.030000001358012
20
4.0712093606017525
10
-28.030000001358012
20
3.4312093606017529
10
-28.670000001358012
20
3.4312093606017529
10
-28.670000001358012
20
4.0712093606017525
0
LWPOLYLINE
5
407
100
AcDbEntity
8
0
100
AcDbPolyline
90
4
70
1
43
0.0
10
-28.030000001358012
20
-0.92879063939824613
10
-28.030000001358012
20
-1.5687906393982474
10
-28.670000001358012
20
-1.5687906393982474
10
-28.670000001358012
20
-0.92879063939824613
0
LWPOLYLINE
5
408
100
AcDbEntity
8
0
100
AcDbPolyline
90
4
70
1
43
0.0
10
15.449999998641992
20
9.2932110277316546
10
15.449999998641992
20
9.5092076934718524
10
16.249999998641993
20
9.5092076934718524
10
16.249999998641993
20
9.2932110277316546
0
LWPOLYLINE
5
409
100
AcDbEntity
8
0
100
AcDbPolyline
90
4
70
1
43
0.0
10
16.249999998641993
20
10.809207693471855
10
16.249999998641993
20
10.593211027731655
10
15.449999998641992
20
10.593211027731655
10
15.449999998641992
20
10.809207693471855
0
LWPOLYLINE
5
410
100
AcDbEntity
8
0
100
AcDbPolyline
90
4
70
1
43
0.0
10
-8.1500000013580074
20
3.2188532214150527
10
-8.1500000013580074
20
3.0835654997884534
10
-8.6500000013580074
20
3.0835654997884534
10
-8.6500000013580074
20
3.2188532214150527
0
LWPOLYLINE
5
411
100
AcDbEntity
8
0
100
AcDbPolyline
90
4
70
1
43
0.0
10
-8.6500000013580074
20
2.2835654997884527
10
-8.6500000013580074
20
2.4188532214150529
10
-8.1500000013580074
20
2.4188532214150529
10
-8.1500000013580074
20
2.2835654997884527
0
LWPOLYLINE
5
412
100
AcDbEntity
8
0
100
AcDbPolyline
90
4
70
1
43
0.0
10
-9.0500000013580078
20
12.218853221415053
10
-9.0500000013580078
20
12.083565499788453
10
-9.550000001358006
20
12.083565499788453
10
-9.550000001358006
20
12.218853221415053
0
LWPOLYLINE
5
413
100
AcDbEntity
8
0
100
AcDbPolyline
90
4
70
1
43
0.0
10
-9.550000001358006
20
11.283565499788455
10
-9.550000001358006
20
11.418853221415056
10
-9.0500000013580078
20
11.418853221415056
10
-9.0500000013580078
20
11.283565499788455
0
LWPOLYLINE
5
414
100
AcDbEntity
8
0
100
AcDbPolyline
90
4
70
1
43
0.0
10
2.3176438594552935
20
1.9012093606017531
10
2.1823561378287435
20
1.9012093606017531
10
2.1823561378287435
20
2.4012093606017531
10
2.3176438594552935
20
2.4012093606017531
0
LWPOLYLINE
5
415
100
AcDbEntity
8
0
100
AcDbPolyline
90
4
70
1
43
0.0
10
1.3823561378287437
20
2.4012093606017531
10
1.5176438594552937
20
2.4012093606017531
10
1.5176438594552937
20
1.9012093606017531
10
1.3823561378287437
20
1.9012093606017531
0
LWPOLYLINE
5
416
100
AcDbEntity
8
0
100
AcDbPolyline
90
4
70
1
43
0.0
10
27.382356137828694
20
13.901209360601754
10
27.517643859455294
20
13.901209360601754
10
27.517643859455294
20
13.401209360601754
10
27.382356137828694
20
13.401209360601754
0
LWPOLYLINE
5
417
100
AcDbEntity
8
0
100
AcDbPolyline
90
4
70
1
43
0.0
10
28.317643859455295
20
13.401209360601754
10
28.182356137828695
20
13.401209360601754
10
28.182356137828695
20
13.901209360601754
10
28.317643859455295
20
13.901209360601754
0
LWPOLYLINE
5
418
100
AcDbEntity
8
0
100
AcDbPolyline
90
4
70
1
43
0.0
10
17.492001665771895
20
7.9512093606017542
10
17.707998331512094
20
7.9512093606017542
10
17.707998331512094
20
6.7512093606017531
10
17.492001665771895
20
6.7512093606017531
0
LWPOLYLINE
5
419
100
AcDbEntity
8
0
100
AcDbPolyline
90
4
70
1
43
0.0
10
19.407998331512097
20
6.7512093606017531
10
19.192001665771894
20
6.7512093606017531
10
19.192001665771894
20
7.9512093606017542
10
19.407998331512097
20
7.9512093606017542
0
LWPOLYLINE
5
420
100
AcDbEntity
8
0
100
AcDbPolyline
90
4
70
1
43
0.0
10
24.349999998641998
20
15.859207693471852
10
24.349999998641998
20
15.643211027731654
10
23.549999998641994
20
15.643211027731654
10
23.549999998641994
20
15.859207693471852
0
LWPOLYLINE
5
421
100
AcDbEntity
8
0
100
AcDbPolyline
90
4
70
1
43
0.0
10
23.549999998641994
20
14.343211027731655
10
23.549999998641994
20
14.559207693471855
10
24.349999998641998
20
14.559207693471855
10
24.349999998641998
20
14.343211027731655
0
LWPOLYLINE
5
422
100
AcDbEntity
8
0
100
AcDbPolyline
90
4
70
1
43
0.0
10
28.167643859455293
20
-17.698790639398247
10
28.032356137828693
20
-17.698790639398247
10
28.032356137828693
20
-17.198790639398247
10
28.167643859455293
20
-17.198790639398247
0
LWPOLYLINE
5
423
100
AcDbEntity
8
0
100
AcDbPolyline
90
4
70
1
43
0.0
10
27.232356137828692
20
-17.198790639398247
10
27.367643859455292
20
-17.198790639398247
10
27.367643859455292
20
-17.698790639398247
10
27.232356137828692
20
-17.698790639398247
0
LWPOLYLINE
5
424
100
AcDbEntity
8
0
100
AcDbPolyline
90
4
70
1
43
0.0
10
11.682356137828693
20
-3.1987906393982475
10
11.817643859455293
20
-3.1987906393982475
10
11.817643859455293
20
-3.698790639398247
10
11.682356137828693
20
-3.698790639398247
0
LWPOLYLINE
5
425
100
AcDbEntity
8
0
100
AcDbPolyline
90
4
70
1
43
0.0
10
12.617643859455294
20
-3.698790639398247
10
12.482356137828795
20
-3.698790639398247
10
12.482356137828795
20
-3.1987906393982475
10
12.617643859455294
20
-3.1987906393982475
0
LWPOLYLINE
5
426
100
AcDbEntity
8
0
100
AcDbPolyline
90
4
70
1
43
0.0
10
-16.550000001358008
20
-17.716434500211548
10
-16.550000001358008
20
-17.581146778584948
10
-16.050000001358008
20
-17.581146778584948
10
-16.050000001358008
20
-17.716434500211548
0
LWPOLYLINE
5
427
100
AcDbEntity
8
0
100
AcDbPolyline
90
4
70
1
43
0.0
10
-16.050000001358008
20
-16.781146778584947
10
-16.050000001358008
20
-16.916434500211547
10
-16.550000001358008
20
-16.916434500211547
10
-16.550000001358008
20
-16.781146778584947
0
LWPOLYLINE
5
428
100
AcDbEntity
8
0
100
AcDbPolyline
90
4
70
1
43
0.0
10
22.499999998641993
20
-16.416434500211547
10
22.499999998641993
20
-16.281146778584947
10
22.999999998641997
20
-16.281146778584947
10
22.999999998641997
20
-16.416434500211547
0
LWPOLYLINE
5
429
100
AcDbEntity
8
0
100
AcDbPolyline
90
4
70
1
43
0.0
10
22.999999998641997
20
-15.481146778584947
10
22.999999998641997
20
-15.616434500211547
10
22.499999998641993
20
-15.616434500211547
10
22.499999998641993
20
-15.481146778584947
0
LWPOLYLINE
5
430
100
AcDbEntity
8
0
100
AcDbPolyline
90
4
70
1
43
0.0
10
24.217643859455293
20
-10.198790639398247
10
24.082356137828693
20
-10.198790639398247
10
24.082356137828693
20
-9.698790639398247
10
24.217643859455293
20
-9.698790639398247
0
LWPOLYLINE
5
431
100
AcDbEntity
8
0
100
AcDbPolyline
90
4
70
1
43
0.0
10
23.282356137828693
20
-9.698790639398247
10
23.417643859455293
20
-9.698790639398247
10
23.417643859455293
20
-10.198790639398247
10
23.282356137828693
20
-10.198790639398247
0
LWPOLYLINE
5
432
100
AcDbEntity
8
0
100
AcDbPolyline
90
4
70
1
43
0.0
10
-16.44529578225611
20
15.635090440721955
10
-15.795295782256106
20
15.635090440725254
10
-15.79529578225381
20
15.185090440725252
10
-16.445295782253808
20
15.185090440721954
0
LWPOLYLINE
5
433
100
AcDbEntity
8
0
100
AcDbPolyline
90
4
70
1
43
0.0
10
-11.000000001356106
20
15.631209360598655
10
-10.350000001356108
20
15.631209360602053
10
-10.350000001353807
20
15.181209360602052
10
-11.00000000135381
20
15.181209360598654
0
LWPOLYLINE
5
434
100
AcDbEntity
8
0
100
AcDbPolyline
90
5
70
1
43
0.0
10
-15.100000001334507
20
11.401209360577752
10
-15.100000001354108
20
15.243117711645755
10
-14.741908001356007
20
15.601209360579652
10
-11.700000001355908
20
15.601209360595155
10
-11.700000001334507
20
11.401209360595155
0
LWPOLYLINE
5
435
100
AcDbEntity
8
0
100
AcDbPolyline
90
4
70
1
43
0.0
10
25.749999998641997
20
15.859207693471852
10
25.749999998641997
20
15.643211027731654
10
24.949999998641992
20
15.643211027731654
10
24.949999998641992
20
15.859207693471852
0
LWPOLYLINE
5
436
100
AcDbEntity
8
0
100
AcDbPolyline
90
4
70
1
43
0.0
10
24.949999998641992
20
14.343211027731655
10
24.949999998641992
20
14.559207693471855
10
25.749999998641997
20
14.559207693471855
10
25.749999998641997
20
14.343211027731655
0
LWPOLYLINE
5
437
100
AcDbEntity
8
0
100
AcDbPolyline
90
4
70
1
43
0.0
10
7.5499999986419928
20
-7.5811467785849471
10
7.5499999986419928
20
-7.7164345002115473
10
7.0499999986419937
20
-7.7164345002115473
10
7.0499999986419937
20
-7.5811467785849471
0
LWPOLYLINE
5
438
100
AcDbEntity
8
0
100
AcDbPolyline
90
4
70
1
43
0.0
10
7.0499999986419937
20
-8.5164345002115471
10
7.0499999986419937
20
-8.3811467785849967
10
7.5499999986419928
20
-8.3811467785849967
10
7.5499999986419928
20
-8.5164345002115471
0
LWPOLYLINE
5
439
100
AcDbEntity
8
0
100
AcDbPolyline
90
4
70
1
43
0.0
10
-10.100000001356108
20
-2.3687906394014471
10
-9.4500000013561074
20
-2.368790639398247
10
-9.450000001353807
20
-2.8187906393982471
10
-10.100000001353809
20
-2.8187906394013069
0
LWPOLYLINE
5
440
100
AcDbEntity
8
0
100
AcDbPolyline
90
5
70
1
43
0.0
10
-14.200000001334507
20
-6.5987906394222478
10
-14.200000001354107
20
-2.7568822883542472
10
-13.841908001356007
20
-2.3987906394203975
10
-10.800000001356008
20
-2.398790639404897
10
-10.800000001334507
20
-6.5987906394048981
0
LWPOLYLINE
5
441
100
AcDbEntity
8
0
100
AcDbPolyline
90
4
70
1
43
0.0
10
-10.097517381349707
20
5.3612093605987035
10
-9.4475173813496571
20
5.361209360602003
10
-9.4475173813473567
20
4.9112093606017542
10
-10.097517381347407
20
4.9112093605987033
0
LWPOLYLINE
5
442
100
AcDbEntity
8
0
100
AcDbPolyline
90
4
70
1
43
0.0
10
-10.098047161336607
20
2.8212093605985529
10
-9.4480471613366568
20
2.821209360601753
10
-9.4480471613343564
20
2.3712093606017528
10
-10.098047161334307
20
2.3712093605987028
0
LWPOLYLINE
5
443
100
AcDbEntity
8
0
100
AcDbPolyline
90
4
70
1
43
0.0
10
-15.547778632243208
20
4.0950904407219033
10
-14.897778632243108
20
4.0950904407252029
10
-14.897778632240907
20
3.6450904407252027
10
-15.54777863224091
20
3.6450904407219031
0
LWPOLYLINE
5
444
100
AcDbEntity
8
0
100
AcDbPolyline
90
4
70
1
43
0.0
10
-16.443342942236711
20
11.825090440721853
10
-15.793342942236707
20
11.825090440725155
10
-15.793342942234407
20
11.375090440725153
10
-16.443342942234406
20
11.375090440721854
0
LWPOLYLINE
5
445
100
AcDbEntity
8
0
100
AcDbPolyline
90
4
70
1
43
0.0
10
-16.442813162249706
20
14.365090440721955
10
-15.792813162249708
20
14.365090440725252
10
-15.792813162247407
20
13.915090440725253
10
-16.442813162247411
20
13.915090440721954
0
LWPOLYLINE
5
446
100
AcDbEntity
8
0
100
AcDbPolyline
90
4
70
1
43
0.0
10
-11.002482851343107
20
13.091209360598652
10
-10.352482851343208
20
13.091209360601955
10
-10.352482851340907
20
12.641209360601955
10
-11.002482851340806
20
12.641209360598653
0
LWPOLYLINE
5
447
100
AcDbEntity
8
0
100
AcDbPolyline
90
4
70
1
43
0.0
10
15.292001665771895
20
16.101209360601754
10
15.507998331512095
20
16.101209360601754
10
15.507998331512095
20
15.301209360601753
10
15.292001665771895
20
15.301209360601753
0
LWPOLYLINE
5
448
100
AcDbEntity
8
0
100
AcDbPolyline
90
4
70
1
43
0.0
10
16.807998331512092
20
15.301209360601753
10
16.592001665771893
20
15.301209360601753
10
16.592001665771893
20
16.101209360601754
10
16.807998331512092
20
16.101209360601754
0
LWPOLYLINE
5
449
100
AcDbEntity
8
0
100
AcDbPolyline
90
8
70
1
43
0.0
10
19.599999998626192
20
6.0512093605933526
42
0.41421356237210294
10
18.299999998632792
20
4.7512093605911527
10
18.299999998649792
20
1.4512093605868028
10
21.199999998657795
20
-0.1487906393982471
10
22.899999998657794
20
-0.14879063938984721
42
0.41421356237310769
10
24.199999998651194
20
1.1512093606168028
10
24.199999998634393
20
4.4512093606168026
10
21.299999998626191
20
6.0512093606020034
0
LWPOLYLINE
5
450
100
AcDbEntity
8
0
100
AcDbPolyline
90
4
70
1
43
0.0
10
-10.997517381349606
20
-12.638790639401449
10
-10.34751738134961
20
-12.638790639398248
10
-10.347517381347309
20
-13.088790639398249
10
-10.997517381347308
20
-13.088790639401349
0
LWPOLYLINE
5
451
100
AcDbEntity
8
0
100
AcDbPolyline
90
4
70
1
43
0.0
10
-10.998047161336707
20
-15.178790639401447
10
-10.348047161336609
20
-15.178790639398247
10
-10.348047161334309
20
-15.628790639398247
10
-10.998047161334409
20
-15.628790639401346
0
LWPOLYLINE
5
452
100
AcDbEntity
8
0
100
AcDbPolyline
90
4
70
1
43
0.0
10
-16.447778632243207
20
-13.90490955927805
10
-15.797778632243206
20
-13.904909559274847
10
-15.79777863224091
20
-14.354909559274848
10
-16.447778632240908
20
-14.354909559278049
0
LWPOLYLINE
5
453
100
AcDbEntity
8
0
100
AcDbPolyline
90
4
70
1
43
0.0
10
-15.543342942236709
20
-6.174909559278098
10
-14.893342942236707
20
-6.1749095592747469
10
-14.893342942234407
20
-6.624909559274748
10
-15.543342942234409
20
-6.6249095592780982
0
LWPOLYLINE
5
454
100
AcDbEntity
8
0
100
AcDbPolyline
90
4
70
1
43
0.0
10
-15.542813162249709
20
-3.6349095592780971
10
-14.892813162249707
20
-3.6349095592747469
10
-14.892813162247407
20
-4.0849095592747471
10
-15.542813162247409
20
-4.0849095592780875
0
LWPOLYLINE
5
455
100
AcDbEntity
8
0
100
AcDbPolyline
90
4
70
1
43
0.0
10
-10.102482851343208
20
-4.9087906394014471
10
-9.4524828513431576
20
-4.908790639398247
10
-9.4524828513408572
20
-5.3587906393982472
10
-10.102482851340909
20
-5.3587906394013576
0
LWPOLYLINE
5
456
100
AcDbEntity
8
0
100
AcDbPolyline
90
4
70
1
43
0.0
10
-15.545295782256108
20
-2.3649095592780971
10
-14.895295782256209
20
-2.3649095592747971
10
-14.895295782253907
20
-2.814909559274807
10
-15.54529578225381
20
-2.8149095592780977
0
LWPOLYLINE
5
457
100
AcDbEntity
8
0
100
AcDbPolyline
90
4
70
1
43
0.0
10
20.199999998636294
20
-3.1737906393918509
42
0.99999999999999989
10
20.19999999863769
20
-3.4737906393918423
10
20.499999998637794
20
-3.473790639390347
10
20.499999998636294
20
-3.1737906393903477
0
LWPOLYLINE
5
458
100
AcDbEntity
8
0
100
AcDbPolyline
90
4
70
1
43
0.0
10
20.199999998646195
20
-5.1237906393918493
42
0.99999999999999989
10
20.199999998647794
20
-5.4237906393918456
10
20.499999998647695
20
-5.4237906393903383
10
20.499999998646192
20
-5.1237906393903474
0
LWPOLYLINE
5
459
100
AcDbEntity
8
0
100
AcDbPolyline
90
4
70
1
43
0.0
10
18.149999998635892
20
-3.0987906394023472
10
19.749999998635893
20
-3.0987906393941471
10
19.749999998648093
20
-5.4987906393941479
10
18.149999998648092
20
-5.4987906394023467
0
LWPOLYLINE
5
460
100
AcDbEntity
8
0
100
AcDbPolyline
90
4
70
1
43
0.0
10
20.499999998641094
20
-4.1237906393903483
10
20.199999998640997
20
-4.1237906393918342
42
-0.99999999999999989
10
20.199999998639594
20
-3.8237906393918402
10
20.499999998639595
20
-3.8237906393903476
0
LWPOLYLINE
5
461
100
AcDbEntity
8
0
100
AcDbPolyline
90
4
70
1
43
0.0
10
26.049999998641997
20
-17.698790639396947
10
25.249999998641997
20
-17.698790639396947
10
25.249999998641997
20
-17.198790639396947
10
26.049999998641997
20
-17.198790639396947
0
LWPOLYLINE
5
462
100
AcDbEntity
8
0
100
AcDbPolyline
90
26
70
1
43
0.0
10
16.999999998641993
20
-29.998790639398251
42
0.41421356237309503
10
19.499999998641993
20
-27.498790639398251
10
19.499999998641997
20
-23.998790639398248
42
-0.41421356237309442
10
23.999999998641997
20
-19.498790639398248
10
27.499999998641993
20
-19.498790639398248
42
0.41421356237309503
10
29.999999998641993
20
-16.998790639398248
10
29.999999998641993
20
17.001209360601756
42
0.41421356237309476
10
27.499999998641993
20
19.501209360601752
10
23.999999998641997
20
19.501209360601756
42
-0.41421356237309387
10
19.499999998641997
20
24.001209360601756
10
19.499999998641997
20
27.501209360601756
42
0.41421356237309503
10
16.999999998641997
20
30.001209360601756
10
6.5899999986419955
20
30.001209360601756
10
-6.5900000013580051
20
30.001209360601756
10
-17.000000001358007
20
30.001209360601756
42
0.41421356237309503
10
-19.500000001358007
20
27.501209360601756
10
-19.500000001358
20
24.001209360601756
42
-0.41421356237309503
10
-24.000000001358011
20
19.501209360601742
10
-27.500000001358007
20
19.501209360601752
42
0.41421356237309503
10
-30.000000001358007
20
17.001209360601752
10
-30.000000001358007
20
-16.998790639398251
42
0.41421356237309476
10
-27.500000001358007
20
-19.498790639398248
10
-24.000000001358011
20
-19.498790639398244
42
-0.41421356237309476
10
-19.500000001358
20
-23.998790639398248
10
-19.500000001358011
20
-27.498790639398251
42
0.41421356237309503
10
-17.000000001358011
20
-29.998790639398251
0
CIRCLE
5
463
100
AcDbEntity
8
0
100
AcDbCircle
10
16.249999998641989
20
-26.748790639398248
30
0
40
1.6000000000000003
210
-2.2186712959340966e-31
220
1.2316100376910979e-47
230
1
0
CIRCLE
5
464
100
AcDbEntity
8
0
100
AcDbCircle
10
-16.250000001358003
20
26.751209360601752
30
0
40
1.6000000000000003
210
-0
220
0
230
1
0
CIRCLE
5
465
100
AcDbEntity
8
0
100
AcDbCircle
10
-15.95000000135801
20
-25.408790639398248
30
0
40
1.6000000000000003
210
-0
220
0
230
1
0
CIRCLE
5
466
100
AcDbEntity
8
0
100
AcDbCircle
10
15.949999998641996
20
25.411209360601752
30
0
40
1.6000000000000003
210
-0
220
0
230
1
0
ENDSEC
0
SECTION
2
OBJECTS
0
DICTIONARY
5
C
100
AcDbDictionary
3
ACAD_GROUP
350
D
3
ACAD_MLINESTYLE
350
17
0
DICTIONARY
5
D
100
AcDbDictionary
0
DICTIONARY
5
1A
330
C
100
AcDbDictionary
0
DICTIONARY
5
17
100
AcDbDictionary
0
ENDSEC
0
EOF
