0
SECTION
2
HEADER
9
$INSUNITS
70
4
9
$ACADVER
1
AC1014
9
$HANDSEED
5
FFFF
0
ENDSEC
0
SECTION
2
TABLES
0
TABLE
2
VPORT
5
8
100
AcDbSymbolTable
0
ENDTAB
0
TABLE
2
LTYPE
5
5
100
AcDbSymbolTable
0
LTYPE
5
14
100
AcDbSymbolTableRecord
100
AcDbLinetypeTableRecord
2
BYBLOCK
70
0
0
LTYPE
5
15
100
AcDbSymbolTableRecord
100
AcDbLinetypeTableRecord
2
BYLAYER
70
0
0
LTYPE
5
16
100
AcDbSymbolTableRecord
100
AcDbLinetypeTableRecord
2
DASHED
70
0
3
Dashed __ __ __ __ __ __ __ __ __ __ __ __ __ _
72
65
73
2
40
0.75
49
0.5
74
0
49
-0.25
74
0
0
ENDTAB
0
TABLE
2
LAYER
5
2
100
AcDbSymbolTable
70
2
0
LAYER
5
50
100
AcDbSymbolTableRecord
100
AcDbLayerTableRecord
2
0
70
0
62
7
6
CONTINUOUS
0
ENDTAB
0
TABLE
2
STYLE
5
3
100
AcDbSymbolTable
70
1
0
STYLE
5
11
100
AcDbSymbolTableRecord
100
AcDbTextStyleTableRecord
2
STANDARD
70
0
0
ENDTAB
0
TABLE
2
VIEW
5
6
100
AcDbSymbolTable
70
0
0
ENDTAB
0
TABLE
2
UCS
5
7
100
AcDbSymbolTable
70
0
0
ENDTAB
0
TABLE
2
APPID
5
9
100
AcDbSymbolTable
70
2
0
APPID
5
12
100
AcDbSymbolTableRecord
100
AcDbRegAppTableRecord
2
ACAD
70
0
0
ENDTAB
0
TABLE
2
DIMSTYLE
5
A
100
AcDbSymbolTable
70
1
0
ENDTAB
0
TABLE
2
BLOCK_RECORD
5
1
100
AcDbSymbolTable
70
1
0
BLOCK_RECORD
5
1F
100
AcDbSymbolTableRecord
100
AcDbBlockTableRecord
2
*MODEL_SPACE
0
BLOCK_RECORD
5
1B
100
AcDbSymbolTableRecord
100
AcDbBlockTableRecord
2
*PAPER_SPACE
0
ENDTAB
0
ENDSEC
0
SECTION
2
BLOCKS
0
BLOCK
5
20
100
AcDbEntity
100
AcDbBlockBegin
2
*MODEL_SPACE
0
ENDBLK
5
21
100
AcDbEntity
100
AcDbBlockEnd
0
BLOCK
5
1C
100
AcDbEntity
100
AcDbBlockBegin
2
*PAPER_SPACE
0
ENDBLK
5
1D
100
AcDbEntity
100
AcDbBlockEnd
0
ENDSEC
0
SECTION
2
ENTITIES
0
POINT
5
100
100
AcDbEntity
8
0
100
AcDbPoint
10
-137.56921142578125
20
66.21280136108399
30
0
0
POINT
5
101
100
AcDbEntity
8
0
100
AcDbPoint
10
-103.52871142578127
20
71.60070136108385
30
0
0
POINT
5
102
100
AcDbEntity
8
0
100
AcDbPoint
10
-103.52871142578118
20
94.460701361083878
30
0
0
LWPOLYLINE
5
103
100
AcDbEntity
8
0
100
AcDbPolyline
90
4
70
1
43
0.0
10
-133.15921142578125
20
68.08280136108398
10
-148.39921142578126
20
68.08280136108398
10
-148.39921142578126
20
63.002801361083982
10
-133.15921142578125
20
63.002801361083982
0
LWPOLYLINE
5
104
100
AcDbEntity
8
0
100
AcDbPolyline
90
4
70
1
43
0.0
10
-138.90921142578125
20
63.672801361083984
10
-140.10921142578127
20
63.672801361083984
10
-140.10921142578124
20
64.872801361083987
10
-138.90921142578125
20
64.872801361083987
0
LWPOLYLINE
5
105
100
AcDbEntity
8
0
100
AcDbPolyline
90
4
70
1
43
0.0
10
-143.98921142578126
20
63.672801361083984
10
-145.18921142578125
20
63.672801361083984
10
-145.18921142578125
20
64.872801361083987
10
-143.98921142578126
20
64.872801361083987
0
LWPOLYLINE
5
106
100
AcDbEntity
8
0
100
AcDbPolyline
90
4
70
1
43
0.0
10
-141.44921142578124
20
64.872801361083987
10
-141.44921142578124
20
63.672801361083984
10
-142.64921142578123
20
63.672801361083984
10
-142.64921142578123
20
64.872801361083987
0
LWPOLYLINE
5
107
100
AcDbEntity
8
0
100
AcDbPolyline
90
4
70
1
43
0.0
10
-142.64921142578123
20
67.412801361083979
10
-141.44921142578124
20
67.412801361083979
10
-141.44921142578124
20
66.21280136108399
10
-142.64921142578123
20
66.21280136108399
0
LWPOLYLINE
5
108
100
AcDbEntity
8
0
100
AcDbPolyline
90
4
70
1
43
0.0
10
-138.90921142578125
20
66.21280136108399
10
-140.10921142578127
20
66.21280136108399
10
-140.10921142578124
20
67.412801361083993
10
-138.90921142578125
20
67.412801361083993
0
LWPOLYLINE
5
109
100
AcDbEntity
8
0
100
AcDbPolyline
90
4
70
1
43
0.0
10
-145.18921142578125
20
67.412801361083979
10
-143.98921142578126
20
67.412801361083979
10
-143.98921142578126
20
66.212801361083976
10
-145.18921142578125
20
66.21280136108399
0
LWPOLYLINE
5
110
100
AcDbEntity
8
0
100
AcDbPolyline
90
4
70
1
43
0.0
10
-136.36921142578126
20
67.412801361083993
10
-136.36921142578126
20
66.21280136108399
10
-137.56921142578125
20
66.21280136108399
10
-137.56921142578125
20
67.412801361083993
0
LWPOLYLINE
5
111
100
AcDbEntity
8
0
100
AcDbPolyline
90
4
70
1
43
0.0
10
-136.36921142578126
20
64.872801361083987
10
-136.36921142578126
20
63.672801361083984
10
-137.56921142578125
20
63.672801361083984
10
-137.56921142578125
20
64.872801361083987
0
LWPOLYLINE
5
112
100
AcDbEntity
8
0
100
AcDbPolyline
90
4
70
1
43
0.0
10
-135.02921142578123
20
64.872801361083987
10
-133.82921142578124
20
64.872801361083987
10
-133.82921142578124
20
63.672801361083984
10
-135.02921142578123
20
63.672801361083984
0
LWPOLYLINE
5
113
100
AcDbEntity
8
0
100
AcDbPolyline
90
4
70
1
43
0.0
10
-135.02921142578123
20
67.412801361083993
10
-133.82921142578124
20
67.412801361083993
10
-133.82921142578124
20
66.21280136108399
10
-135.02921142578123
20
66.21280136108399
0
LWPOLYLINE
5
114
100
AcDbEntity
8
0
100
AcDbPolyline
90
4
70
1
43
0.0
10
-147.72921142578124
20
67.412801361083979
10
-146.52921142578126
20
67.412801361083979
10
-146.52921142578126
20
66.212801361083976
10
-147.72921142578124
20
66.21280136108399
0
LWPOLYLINE
5
115
100
AcDbEntity
8
0
100
AcDbPolyline
90
4
70
1
43
0.0
10
-146.52921142578126
20
64.872801361083987
10
-146.52921142578126
20
63.672801361083984
10
-147.72921142578124
20
63.672801361083984
10
-147.72921142578124
20
64.872801361083987
0
LWPOLYLINE
5
116
100
AcDbEntity
8
0
100
AcDbPolyline
90
4
70
1
43
0.0
10
-120.17421142578122
20
103.058601361084
10
-135.41421142578122
20
103.058601361084
10
-135.41421142578122
20
97.978601361084003
10
-120.17421142578122
20
97.978601361083975
0
LWPOLYLINE
5
117
100
AcDbEntity
8
0
100
AcDbPolyline
90
4
70
1
43
0.0
10
-125.92421142578121
20
98.648601361083976
10
-127.12421142578123
20
98.648601361083976
10
-127.12421142578123
20
99.848601361083965
10
-125.92421142578121
20
99.848601361083979
0
LWPOLYLINE
5
118
100
AcDbEntity
8
0
100
AcDbPolyline
90
4
70
1
43
0.0
10
-131.00421142578122
20
98.648601361083976
10
-132.20421142578121
20
98.648601361083976
10
-132.20421142578121
20
99.848601361083965
10
-131.00421142578122
20
99.848601361083979
0
LWPOLYLINE
5
119
100
AcDbEntity
8
0
100
AcDbPolyline
90
4
70
1
43
0.0
10
-128.46421142578123
20
99.848601361083979
10
-128.46421142578123
20
98.64860136108399
10
-129.66421142578122
20
98.648601361083976
10
-129.66421142578122
20
99.848601361083965
0
LWPOLYLINE
5
120
100
AcDbEntity
8
0
100
AcDbPolyline
90
4
70
1
43
0.0
10
-129.66421142578122
20
102.388601361084
10
-128.46421142578123
20
102.388601361084
10
-128.46421142578123
20
101.18860136108401
10
-129.66421142578122
20
101.18860136108398
0
LWPOLYLINE
5
121
100
AcDbEntity
8
0
100
AcDbPolyline
90
4
70
1
43
0.0
10
-125.92421142578121
20
101.18860136108398
10
-127.12421142578123
20
101.18860136108398
10
-127.12421142578123
20
102.38860136108399
10
-125.92421142578121
20
102.388601361084
0
LWPOLYLINE
5
122
100
AcDbEntity
8
0
100
AcDbPolyline
90
4
70
1
43
0.0
10
-132.20421142578121
20
102.388601361084
10
-131.00421142578122
20
102.388601361084
10
-131.00421142578122
20
101.18860136108401
10
-132.20421142578121
20
101.18860136108398
0
LWPOLYLINE
5
123
100
AcDbEntity
8
0
100
AcDbPolyline
90
4
70
1
43
0.0
10
-123.38421142578122
20
102.388601361084
10
-123.38421142578122
20
101.18860136108401
10
-124.58421142578121
20
101.18860136108398
10
-124.58421142578123
20
102.38860136108399
0
LWPOLYLINE
5
124
100
AcDbEntity
8
0
100
AcDbPolyline
90
4
70
1
43
0.0
10
-123.38421142578122
20
99.848601361083979
10
-123.38421142578122
20
98.64860136108399
10
-124.58421142578121
20
98.648601361083976
10
-124.58421142578123
20
99.848601361083965
0
LWPOLYLINE
5
125
100
AcDbEntity
8
0
100
AcDbPolyline
90
4
70
1
43
0.0
10
-122.04421142578124
20
99.848601361083979
10
-120.84421142578122
20
99.848601361083979
10
-120.84421142578122
20
98.64860136108399
10
-122.04421142578124
20
98.648601361083976
0
LWPOLYLINE
5
126
100
AcDbEntity
8
0
100
AcDbPolyline
90
4
70
1
43
0.0
10
-122.04421142578124
20
102.388601361084
10
-120.84421142578122
20
102.388601361084
10
-120.84421142578122
20
101.18860136108401
10
-122.04421142578124
20
101.18860136108398
0
LWPOLYLINE
5
127
100
AcDbEntity
8
0
100
AcDbPolyline
90
4
70
1
43
0.0
10
-134.74421142578123
20
102.388601361084
10
-133.54421142578124
20
102.388601361084
10
-133.54421142578121
20
101.18860136108401
10
-134.7442114257812
20
101.18860136108398
0
LWPOLYLINE
5
128
100
AcDbEntity
8
0
100
AcDbPolyline
90
4
70
1
43
0.0
10
-133.54421142578121
20
99.848601361083979
10
-133.54421142578121
20
98.64860136108399
10
-134.7442114257812
20
98.648601361083976
10
-134.74421142578123
20
99.848601361083965
0
LINE
5
129
100
AcDbEntity
8
0
100
AcDbLine
10
-133.15921142578125
20
68.08280136108398
30
0
11
-133.15921142578117
21
97.978601361084003
31
0
6
DASHED
0
LINE
5
130
100
AcDbEntity
8
0
100
AcDbLine
10
-133.15921142578122
20
83.030701361083999
30
0
11
-168.09111124389287
21
83.030701361083999
31
0
6
DASHED
0
LINE
5
131
100
AcDbEntity
8
0
100
AcDbLine
10
-133.15921142578122
20
83.030701361083999
30
0
11
-94.241922319457302
21
83.030701361083914
31
0
6
DASHED
0
LWPOLYLINE
5
132
100
AcDbEntity
8
0
100
AcDbPolyline
90
23
70
1
43
0.0
10
-103.52871142578124
20
83.030701361083871
10
-103.52871142578127
20
73.60070136108385
42
-0.41421356237309243
10
-105.52871142578125
20
71.60070136108385
10
-126.85921142578124
20
71.600701361083878
42
0.41421356237309453
10
-131.85921142578124
20
66.600701361083892
10
-131.85921142578124
20
63.702801361083928
42
-0.41421356237310281
10
-133.8592114257813
20
61.702801361083942
10
-148.62071142578134
20
61.70280136108402
42
-0.41421356237309503
10
-150.62071142578131
20
63.702801361084049
10
-150.62071142578128
20
71.600701361083949
10
-150.62071142578122
20
83.030701361084041
10
-150.62071142578114
20
92.460701361084148
42
-0.41421356237309503
10
-148.62071142578117
20
94.460701361084119
10
-141.71421142578129
20
94.460701361084091
42
0.41421356237309609
10
-136.71421142578123
20
99.460701361084034
10
-136.71421142578123
20
102.35860136108406
42
-0.41421356237311324
10
-134.7142114257812
20
104.35860136108404
10
-120.87421142578117
20
104.35860136108394
42
-0.41421356237309243
10
-118.87421142578121
20
102.35860136108397
10
-118.87421142578121
20
99.460701361083977
42
0.41421356237309503
10
-113.87421142578125
20
94.460701361083949
10
-105.5287114257812
20
94.460701361083878
42
-0.41421356237309243
10
-103.52871142578122
20
92.460701361083878
0
LINE
5
133
100
AcDbEntity
8
0
100
AcDbLine
10
-102.52871142578124
20
85.554801361084003
30
0
11
-102.52871142578124
21
75.054801361084003
31
0
0
LINE
5
134
100
AcDbEntity
8
0
100
AcDbLine
10
-154.08821142578122
20
75.050801361083984
30
0
11
-154.08821142578122
21
86.95080136108399
31
0
0
ENDSEC
0
SECTION
2
OBJECTS
0
DICTIONARY
5
C
100
AcDbDictionary
3
ACAD_GROUP
350
D
3
ACAD_MLINESTYLE
350
17
0
DICTIONARY
5
D
100
AcDbDictionary
0
DICTIONARY
5
1A
330
C
100
AcDbDictionary
0
DICTIONARY
5
17
100
AcDbDictionary
0
ENDSEC
0
EOF
